<svg height="960" viewBox="0 0 720 720" width="960" xmlns="http://www.w3.org/2000/svg" xmlns:xlink="http://www.w3.org/1999/xlink"><defs><style>*{stroke-linecap:butt;stroke-linejoin:round;white-space:pre}</style></defs><g id="figure_1"><path d="M0 720h720V0H0z" fill="#fff" id="patch_1"/><g id="axes_1"><path d="M72 648h421.2V72H72z" fill="#fff" id="patch_2"/><path clip-path="url(#p5047f322cb)" d="M156.2 648H333l-8.2-.3-84.2-7.7-84.3-33.7-60-73.5L72 430.3V648z" fill="#481f70" id="PathCollection_1"/><path clip-path="url(#p5047f322cb)" d="M156.2 606.3l84.3 33.7 84.2 7.7 8.2.3h160.3v-29.8L409 584.6l-68.7-51.8-15.6-6.9-84.2-83.1-17.8-25.2-50.4-115.2-15-115.2-1-13.7L130.6 72H72v358.3l24.2 102.5z" fill="#3b528b" id="PathCollection_2"/><path clip-path="url(#p5047f322cb)" d="M409 584.6l84.2 33.6V506.8L409 427.2l-9-9.7-75.3-108-4.6-7.2-57.5-115.2L244.2 72H130.7l25.5 101.5 1 13.7 15 115.2 50.5 115.2 17.8 25.2 84.2 83.1 15.6 6.9z" fill="#287c8e" id="PathCollection_3"/><path clip-path="url(#p5047f322cb)" d="M409 427.3l84.2 79.4V360L448 302.4l-39-83.3-19.2-31.9L342 72h-97.8l18.4 115.2 57.5 115.2 4.6 7.3L400 417.6z" fill="#20a486" id="PathCollection_4"/><path clip-path="url(#p5047f322cb)" d="M493.2 359.9V148.8L449 72H342l47.8 115.2 19.2 31.9 39 83.3z" fill="#5ec962" id="PathCollection_5"/><path clip-path="url(#p5047f322cb)" d="M493.2 148.8V72H449z" fill="#c8e020" id="PathCollection_6"/><g id="matplotlib.axis_1"><g id="xtick_1"><g id="line2d_1"><defs><path d="M0 0v3.5" id="m659bf402a2" stroke="#000" stroke-width=".8"/></defs><use x="72" xlink:href="#m659bf402a2" y="648" stroke="#000" stroke-width=".8"/></g><g id="text_1"><defs><path d="M12.4 8.3h16.1v55.6L11 60.4v9l17.4 3.5h9.9V8.3h16V0H12.5z" id="DejaVuSans-49"/></defs><use xlink:href="#DejaVuSans-49" transform="matrix(.1 0 0 -.1 68.8 689.1)"/></g></g><g id="xtick_2"><use x="156.2" xlink:href="#m659bf402a2" y="648" stroke="#000" stroke-width=".8" id="line2d_2"/><g id="text_2"><defs><path d="M19.2 8.3h34.4V0H7.3v8.3l15.3 15.6q9.7 9.8 12.2 12.6 4.7 5.3 6.6 9 2 3.7 2 7.3 0 5.8-4.2 9.5-4 3.6-10.6 3.6-4.6 0-9.8-1.6-5.1-1.6-11-4.9v10q6 2.4 11.1 3.6 5.2 1.2 9.5 1.2 11.4 0 18-5.7 6.8-5.6 6.8-15 0-4.6-1.7-8.6-1.6-4-6-9.5l-7.9-8.2L19.2 8.3z" id="DejaVuSans-50"/></defs><use xlink:href="#DejaVuSans-50" transform="matrix(.1 0 0 -.1 153 689.1)"/></g></g><g id="xtick_3"><use x="240.5" xlink:href="#m659bf402a2" y="648" stroke="#000" stroke-width=".8" id="line2d_3"/><g id="text_3"><defs><path d="M40.6 39.3q7-1.5 11-6.3t4-11.8q0-10.8-7.4-16.7-7.4-6-21.1-6-4.6 0-9.4 1-4.9.9-10 2.7v9.5q4-2.4 8.9-3.6Q21.5 7 26.8 7q9.3 0 14.1 3.6 4.9 3.7 4.9 10.7 0 6.4-4.5 10Q36.8 35 28.7 35h-8.5V43h9q7.2 0 11 3 3.9 2.8 3.9 8.3 0 5.6-4 8.6t-11.4 3q-4 0-8.7-.9-4.6-.8-10.2-2.7v8.8q5.6 1.6 10.5 2.3 5 .8 9.3.8 11.2 0 17.8-5 6.5-5.2 6.5-13.9 0-6-3.5-10.2-3.4-4.2-9.8-5.8z" id="DejaVuSans-51"/></defs><use xlink:href="#DejaVuSans-51" transform="matrix(.1 0 0 -.1 237.3 689.1)"/></g></g><g id="xtick_4"><use x="324.7" xlink:href="#m659bf402a2" y="648" stroke="#000" stroke-width=".8" id="line2d_4"/><g id="text_4"><defs><path d="M37.8 64.3l-25-39h25zM35.2 73h12.4V25.4H58v-8.2H47.6V0h-9.8v17.2h-33v9.5z" id="DejaVuSans-52"/></defs><use xlink:href="#DejaVuSans-52" transform="matrix(.1 0 0 -.1 321.5 689.1)"/></g></g><g id="xtick_5"><use x="409" xlink:href="#m659bf402a2" y="648" stroke="#000" stroke-width=".8" id="line2d_5"/><g id="text_5"><defs><path d="M10.8 73h38.7v-8.4H19.8V46.7q2.2.8 4.3 1.1 2.2.4 4.3.4 12.2 0 19.4-6.7 7-6.7 7-18.1 0-11.8-7.2-18.3-7.4-6.5-20.7-6.5-4.6 0-9.4.8-4.7.7-9.8 2.3v10q4.4-2.5 9.1-3.6 4.7-1.2 9.9-1.2 8.5 0 13.4 4.4 5 4.5 5 12 0 7.7-5 12.1Q35 40 26.7 40q-4 0-7.9-.9-4-.9-8-2.7z" id="DejaVuSans-53"/></defs><use xlink:href="#DejaVuSans-53" transform="matrix(.1 0 0 -.1 405.8 689.1)"/></g></g><g id="xtick_6"><use x="493.2" xlink:href="#m659bf402a2" y="648" stroke="#000" stroke-width=".8" id="line2d_6"/><g id="text_6"><defs><path d="M33 40.4q-6.6 0-10.5-4.6-3.9-4.5-3.9-12.4T22.5 11Q26.4 6.4 33 6.4q6.7 0 10.5 4.6 4 4.5 4 12.4t-4 12.4q-3.8 4.6-10.5 4.6zm19.6 30.9v-9Q48.9 64.1 45 65q-3.8 1-7.5 1-9.8 0-15-6.7-5-6.6-5.8-19.9 2.9 4.3 7.2 6.5 4.4 2.3 9.6 2.3 11 0 17.4-6.7 6.3-6.6 6.3-18.1 0-11.2-6.6-18Q44-1.4 33-1.4q-12.6 0-19.3 9.7Q7 18 7 36.3 7 53.8 15.2 64q8.2 10.3 22 10.3 3.7 0 7.5-.7 3.8-.8 7.9-2.2z" id="DejaVuSans-54"/></defs><use xlink:href="#DejaVuSans-54" transform="matrix(.1 0 0 -.1 490 689.1)"/></g></g><g id="text_7"><defs><path d="M18.1 8.2v-29h-9v75.5h9v-8.3q2.9 4.9 7.2 7.2Q29.6 56 35.6 56q10 0 16.2-8Q58 40.3 58 27.4q0-12.9-6.2-20.8-6.2-8-16.2-8-6 0-10.3 2.5Q21 3.3 18 8.2zm30.6 19.1q0 9.9-4 15.5-4.2 5.7-11.3 5.7-7.1 0-11.2-5.7-4-5.6-4-15.5 0-10 4-15.6t11.2-5.6q7.1 0 11.2 5.7 4 5.6 4 15.5z" id="DejaVuSans-112"/><path d="M34.3 27.5q-11 0-15.1-2.5-4.2-2.5-4.2-8.5 0-4.8 3.1-7.6 3.2-2.8 8.6-2.8 7.5 0 12 5.3t4.5 14v2zm17.9 3.7V0h-9v8.3q-3-5-7.7-7.3Q31-1.4 24.3-1.4 16-1.4 11 3.3 6 8 6 15.9q0 9.2 6.2 14 6.2 4.6 18.4 4.6h12.6v1q0 6.1-4 9.5-4.1 3.4-11.5 3.4-4.7 0-9.2-1.1-4.4-1.2-8.5-3.4v8.3q5 2 9.6 2.8 4.6 1 9 1 11.9 0 17.7-6.2 5.9-6.1 5.9-18.6z" id="DejaVuSans-97"/><path d="M32.2-5q-3.8-9.8-7.5-12.8-3.6-3-9.6-3H7.9v7.5h5.3q3.7 0 5.7 1.8 2.1 1.7 4.6 8.3l1.6 4L3 54.8h9.5l17-42.8 17.2 42.8h9.5z" id="DejaVuSans-121"/><path d="M9.4 76h9V0h-9z" id="DejaVuSans-108"/><path d="M30.6 48.4q-7.2 0-11.4-5.6Q15 37 15 27.3t4.2-15.5q4.1-5.6 11.4-5.6 7.2 0 11.4 5.7 4.2 5.6 4.2 15.4 0 9.7-4.2 15.4-4.2 5.7-11.4 5.7zm0 7.6q11.7 0 18.4-7.6 6.7-7.6 6.7-21.1 0-13.4-6.7-21-6.7-7.7-18.4-7.7-11.8 0-18.4 7.6Q5.5 14 5.5 27.3q0 13.5 6.7 21Q18.8 56 30.6 56z" id="DejaVuSans-111"/><path d="M45.4 46.4V76h9V0h-9v8.2Q42.6 3.3 38.3 1q-4.4-2.4-10.4-2.4-10 0-16.2 7.9-6.2 8-6.2 20.8 0 12.9 6.2 20.8Q18 56 28 56q6 0 10.4-2.4 4.3-2.3 7.1-7.2zM14.8 27.3q0-10 4-15.6Q23 6.2 30.2 6.2q7.1 0 11.2 5.7 4.1 5.6 4.1 15.5t-4.1 15.5q-4.1 5.7-11.2 5.7t-11.2-5.7q-4.1-5.6-4.1-15.5z" id="DejaVuSans-100"/><path d="M48.7 27.3q0 9.9-4 15.5-4.2 5.7-11.3 5.7-7.1 0-11.2-5.7-4-5.6-4-15.5 0-10 4-15.6t11.2-5.6q7.1 0 11.2 5.7 4 5.6 4 15.5zM18 46.3q2.9 5 7.2 7.3Q29.6 56 35.6 56q10 0 16.2-8Q58 40.3 58 27.4q0-12.9-6.2-20.8-6.2-8-16.2-8-6 0-10.3 2.5Q21 3.3 18 8.2V0h-9v76h9z" id="DejaVuSans-98"/><path d="M41.1 46.3q-1.5.9-3.3 1.3-1.8.4-4 .4-7.5 0-11.6-5-4-5-4-14.2V0H9v54.7h9v-8.5q2.9 5 7.4 7.4Q30 56 36.5 56l2-.1 2.6-.4z" id="DejaVuSans-114"/><path d="M56.2 29.6v-4.4H14.9q.6-9.3 5.6-14.1 5-4.9 14-4.9 5 0 10 1.3 4.8 1.2 9.6 3.8V2.8q-4.8-2-10-3.1-5-1.1-10.2-1.1-13.1 0-20.7 7.6-7.7 7.6-7.7 20.6 0 13.4 7.3 21.3Q20 56 32.3 56q11 0 17.5-7.1 6.4-7.1 6.4-19.3zm-9 2.6q0 7.4-4.1 11.8-4 4.4-10.7 4.4-7.5 0-12-4.3-4.5-4.2-5.2-12z" id="DejaVuSans-101"/><path d="M18.3 70.2V54.7h18.5v-7H18.3V18q0-6.7 1.8-8.6 1.9-1.9 7.5-1.9h9.2V0h-9.2Q17.2 0 13.2 3.9T9.2 18v29.7H2.8v7h6.6v15.5z" id="DejaVuSans-116"/><path d="M54.9 33V0h-9v32.7q0 7.8-3 11.6-3 3.9-9.1 3.9-7.3 0-11.5-4.7Q18.1 39 18.1 31V0h-9v76h9V46.2q3.2 5 7.6 7.4Q30.1 56 35.8 56q9.4 0 14.2-5.8Q55 44.3 55 33z" id="DejaVuSans-104"/></defs><g transform="matrix(.1 0 0 -.1 241.5 702.8)"><use xlink:href="#DejaVuSans-112"/><use x="63.5" xlink:href="#DejaVuSans-97"/><use x="124.8" xlink:href="#DejaVuSans-121"/><use x="183.9" xlink:href="#DejaVuSans-108"/><use x="211.7" xlink:href="#DejaVuSans-111"/><use x="272.9" xlink:href="#DejaVuSans-97"/><use x="334.2" xlink:href="#DejaVuSans-100"/><use x="397.7" xlink:href="#DejaVuSans-32"/><use x="429.4" xlink:href="#DejaVuSans-98"/><use x="492.9" xlink:href="#DejaVuSans-114"/><use x="534" xlink:href="#DejaVuSans-101"/><use x="595.5" xlink:href="#DejaVuSans-97"/><use x="656.8" xlink:href="#DejaVuSans-100"/><use x="720.3" xlink:href="#DejaVuSans-116"/><use x="759.5" xlink:href="#DejaVuSans-104"/></g></g></g><g id="matplotlib.axis_2"><g id="ytick_1"><g id="line2d_7"><defs><path d="M0 0h-3.5" id="mbf3efe8643" stroke="#000" stroke-width=".8"/></defs><use x="72" xlink:href="#mbf3efe8643" y="648" stroke="#000" stroke-width=".8"/></g><use xlink:href="#DejaVuSans-49" transform="matrix(.1 0 0 -.1 32.1 651.8)" id="text_8"/></g><g id="ytick_2"><use x="72" xlink:href="#mbf3efe8643" y="532.8" stroke="#000" stroke-width=".8" id="line2d_8"/><use xlink:href="#DejaVuSans-50" transform="matrix(.1 0 0 -.1 32.1 536.6)" id="text_9"/></g><g id="ytick_3"><use x="72" xlink:href="#mbf3efe8643" y="417.6" stroke="#000" stroke-width=".8" id="line2d_9"/><use xlink:href="#DejaVuSans-51" transform="matrix(.1 0 0 -.1 32.1 421.4)" id="text_10"/></g><g id="ytick_4"><use x="72" xlink:href="#mbf3efe8643" y="302.4" stroke="#000" stroke-width=".8" id="line2d_10"/><use xlink:href="#DejaVuSans-52" transform="matrix(.1 0 0 -.1 32.1 306.2)" id="text_11"/></g><g id="ytick_5"><use x="72" xlink:href="#mbf3efe8643" y="187.2" stroke="#000" stroke-width=".8" id="line2d_11"/><use xlink:href="#DejaVuSans-53" transform="matrix(.1 0 0 -.1 32.1 191)" id="text_12"/></g><g id="ytick_6"><use x="72" xlink:href="#mbf3efe8643" y="72" stroke="#000" stroke-width=".8" id="line2d_12"/><use xlink:href="#DejaVuSans-54" transform="matrix(.1 0 0 -.1 32.1 75.8)" id="text_13"/></g><g transform="matrix(0 -.1 -.1 0 26 396)" id="text_14"><use xlink:href="#DejaVuSans-112"/><use x="63.5" xlink:href="#DejaVuSans-97"/><use x="124.8" xlink:href="#DejaVuSans-121"/><use x="183.9" xlink:href="#DejaVuSans-108"/><use x="211.7" xlink:href="#DejaVuSans-111"/><use x="272.9" xlink:href="#DejaVuSans-97"/><use x="334.2" xlink:href="#DejaVuSans-100"/><use x="397.7" xlink:href="#DejaVuSans-32"/><use x="429.4" xlink:href="#DejaVuSans-100"/><use x="492.9" xlink:href="#DejaVuSans-101"/><use x="554.4" xlink:href="#DejaVuSans-112"/><use x="617.9" xlink:href="#DejaVuSans-116"/><use x="657.1" xlink:href="#DejaVuSans-104"/></g></g><path d="M72 648V72" fill="none" stroke="#000" stroke-linecap="square" stroke-width=".8" id="patch_3"/><path d="M493.2 648V72" fill="none" stroke="#000" stroke-linecap="square" stroke-width=".8" id="patch_4"/><path d="M72 648h421.2" fill="none" stroke="#000" stroke-linecap="square" stroke-width=".8" id="patch_5"/><path d="M72 72h421.2" fill="none" stroke="#000" stroke-linecap="square" stroke-width=".8" id="patch_6"/><g id="text_15"><defs><path d="M9.4 54.7h9V0h-9zm0 21.3h9V64.6h-9z" id="DejaVuSans-105"/><path d="M54.9 54.7L35 28 56 0H45.3l-16 21.5L13.6 0H2.9L24 28.6l-19.4 26h10.6l14.5-19.4 14.5 19.5z" id="DejaVuSans-120"/><path d="M4.9 31.4h26.3v-8H4.9z" id="DejaVuSans-45"/><path d="M48.8 52.6v-8.4Q45 46.3 41 47.3q-3.8 1-7.7 1-8.7 0-13.6-5.5Q15 37.3 15 27.3t4.8-15.6q4.9-5.5 13.6-5.5 4 0 7.7 1 3.9 1.1 7.7 3.2V2.1Q45 .3 41-.5q-4-1-8.6-1-12.3 0-19.6 7.8-7.3 7.8-7.3 21 0 13.4 7.4 21Q20.2 56 33 56q4.2 0 8.1-.9 4-.8 7.7-2.5z" id="DejaVuSans-99"/><path d="M52 44.2q3.4 6 8 9Q64.9 56 71 56q8.6 0 13.3-6 4.6-6 4.6-17V0h-9v32.7q0 7.9-2.8 11.7-2.8 3.8-8.5 3.8-7 0-11-4.7-4-4.6-4-12.6V0h-9.1v32.7q0 8-2.8 11.7-2.8 3.8-8.6 3.8-6.9 0-11-4.7-4-4.6-4-12.6V0h-9v54.7h9v-8.5q3 5 7.4 7.4Q29.8 56 35.7 56q6 0 10.1-3 4.2-3 6.2-8.8z" id="DejaVuSans-109"/></defs><g transform="matrix(.12 0 0 -.12 239.5 22)"><use xlink:href="#DejaVuSans-112"/><use x="63.5" xlink:href="#DejaVuSans-105"/><use x="91.3" xlink:href="#DejaVuSans-120"/><use x="150.4" xlink:href="#DejaVuSans-101"/><use x="211.9" xlink:href="#DejaVuSans-108"/><use x="239.7" xlink:href="#DejaVuSans-51"/><use x="303.3" xlink:href="#DejaVuSans-45"/><use x="339.4" xlink:href="#DejaVuSans-99"/><use x="394.4" xlink:href="#DejaVuSans-104"/><use x="457.8" xlink:href="#DejaVuSans-114"/><use x="498.8" xlink:href="#DejaVuSans-111"/><use x="560" xlink:href="#DejaVuSans-109"/><use x="657.4" xlink:href="#DejaVuSans-101"/></g></g><g id="PathCollection_7" fill-opacity=".8" stroke-opacity=".8"><path d="M72 658.4a10.4 10.4 0 1 0 0-20.8 10.4 10.4 0 0 0 0 20.8zM72 543.2a10.4 10.4 0 1 0 0-20.8 10.4 10.4 0 0 0 0 20.8zM72 428a10.4 10.4 0 1 0 0-20.8 10.4 10.4 0 0 0 0 20.8zM72 312.8a10.4 10.4 0 1 0 0-20.8 10.4 10.4 0 0 0 0 20.8zM72 197.6a10.4 10.4 0 1 0 0-20.8 10.4 10.4 0 0 0 0 20.8zM72 82.4a10.4 10.4 0 1 0 0-20.8 10.4 10.4 0 0 0 0 20.8zM156.2 658.4a10.4 10.4 0 1 0 0-20.8 10.4 10.4 0 0 0 0 20.8zM156.2 543.2a10.4 10.4 0 1 0 0-20.8 10.4 10.4 0 0 0 0 20.8z" fill="#fff2ec" stroke="#fff2ec"/><path d="M156.2 437.6a20 20 0 1 0 0-40 20 20 0 0 0 0 40zM156.2 322.4a20 20 0 1 0 0-40 20 20 0 0 0 0 40z" fill="#fc9c7d" stroke="#fc9c7d"/><path d="M156.2 209.4a22.2 22.2 0 1 0 0-44.4 22.2 22.2 0 0 0 0 44.4z" fill="#fc8b6b" stroke="#fc8b6b"/><path d="M156.2 96.6a24.6 24.6 0 1 0 0-49.2 24.6 24.6 0 0 0 0 49.2z" fill="#fb7b5b" stroke="#fb7b5b"/><path d="M240.5 658.4a10.4 10.4 0 1 0 0-20.8 10.4 10.4 0 0 0 0 20.8zM240.5 543.2a10.4 10.4 0 1 0 0-20.8 10.4 10.4 0 0 0 0 20.8z" fill="#fff2ec" stroke="#fff2ec"/><path d="M240.5 437.6a20 20 0 1 0 0-40 20 20 0 0 0 0 40z" fill="#fc9c7d" stroke="#fc9c7d"/><path d="M240.5 326.5a24.1 24.1 0 1 0 0-48.2 24.1 24.1 0 0 0 0 48.2z" fill="#fb7d5d" stroke="#fb7d5d"/><path d="M240.5 214.6a27.4 27.4 0 1 0 0-54.8 27.4 27.4 0 0 0 0 54.8z" fill="#fb694a" stroke="#fb694a"/><path d="M240.5 104.3a32.3 32.3 0 1 0 0-64.6 32.3 32.3 0 0 0 0 64.6z" fill="#f34a36" stroke="#f34a36"/><path d="M324.7 658.4a10.4 10.4 0 1 0 0-20.8 10.4 10.4 0 0 0 0 20.8z" fill="#fff2ec" stroke="#fff2ec"/><path d="M324.7 552.8a20 20 0 1 0 0-40 20 20 0 0 0 0 40z" fill="#fc9c7d" stroke="#fc9c7d"/><path d="M324.7 439.8a22.2 22.2 0 1 0 0-44.4 22.2 22.2 0 0 0 0 44.4z" fill="#fc8b6b" stroke="#fc8b6b"/><path d="M324.7 329.8a27.4 27.4 0 1 0 0-54.8 27.4 27.4 0 0 0 0 54.8z" fill="#fb694a" stroke="#fb694a"/><path d="M324.7 220.4a33.2 33.2 0 1 0 0-66.4 33.2 33.2 0 0 0 0 66.4z" fill="#f24633" stroke="#f24633"/><path d="M324.7 111.6a39.6 39.6 0 1 0 0-79.2 39.6 39.6 0 0 0 0 79.2z" fill="#dd2a25" stroke="#dd2a25"/><path d="M409 658.4a10.4 10.4 0 1 0 0-20.8 10.4 10.4 0 0 0 0 20.8z" fill="#fff2ec" stroke="#fff2ec"/><path d="M409 552.8a20 20 0 1 0 0-40 20 20 0 0 0 0 40z" fill="#fc9c7d" stroke="#fc9c7d"/><path d="M409 442.2a24.6 24.6 0 1 0 0-49.2 24.6 24.6 0 0 0 0 49.2z" fill="#fb7b5b" stroke="#fb7b5b"/><path d="M409 333a30.6 30.6 0 1 0 0-61.2 30.6 30.6 0 0 0 0 61.2z" fill="#f6553c" stroke="#f6553c"/><path d="M409 225.1a38 38 0 1 0 0-75.9 38 38 0 0 0 0 76z" fill="#e43027" stroke="#e43027"/><path d="M409 119.9a47.9 47.9 0 1 0 0-95.8 47.9 47.9 0 0 0 0 95.8z" fill="#c2161b" stroke="#c2161b"/><path d="M493.2 658.4a10.4 10.4 0 1 0 0-20.8 10.4 10.4 0 0 0 0 20.8z" fill="#fff2ec" stroke="#fff2ec"/><path d="M493.2 552.8a20 20 0 1 0 0-40 20 20 0 0 0 0 40z" fill="#fc9c7d" stroke="#fc9c7d"/><path d="M493.2 443.8a26.2 26.2 0 1 0 0-52.4 26.2 26.2 0 0 0 0 52.4z" fill="#fb7151" stroke="#fb7151"/><path d="M493.2 336.1a33.7 33.7 0 1 0 0-67.4 33.7 33.7 0 0 0 0 67.4z" fill="#f14331" stroke="#f14331"/><path d="M493.2 230.2a43 43 0 1 0 0-86 43 43 0 0 0 0 86z" fill="#d21f20" stroke="#d21f20"/><path d="M493.2 129a57 57 0 1 0 0-114 57 57 0 0 0 0 114z" fill="#a81016" stroke="#a81016"/></g><g id="text_16"><defs><path d="M46 36.5q0 13.7-2.6 19.3-2.5 5.6-8.6 5.6-6 0-8.6-5.6-2.6-5.6-2.6-19.3 0-13.8 2.6-19.5 2.6-5.6 8.6-5.6t8.6 5.6Q46 22.7 46 36.5zm18.8-.1q0-18.1-7.8-28-7.8-9.8-22.2-9.8-14.4 0-22.2 9.8-7.8 9.9-7.8 28t7.8 28q7.8 9.8 22.2 9.8 14.4 0 22.2-9.8 7.8-9.9 7.8-28z" id="DejaVuSans-Bold-48"/><path d="M8.5-21v75.7h17.6V22.9q0-5.7 2.5-8.4 2.4-2.8 7.4-2.8t7.5 2.8q2.4 2.7 2.4 8.4v31.8h17.6V18q0-3.4.8-4.8t2.7-1.4q.9 0 1.7.3.8.2 1.7.8V.8Q67.8-.3 65.5-1q-2.2-.5-4.4-.5-4.4 0-7.1 1.8-2.8 1.9-4.5 5.9Q47.2 2.4 44 .5q-3.3-2-7.6-2-3.6 0-6.2 1.2-2.5 1.2-4 3.5v-24.1z" id="DejaVuSans-Bold-181"/><path d="M51.1 53V39.7q-5.6 2.3-10.8 3.5-5.2 1.2-9.9 1.2-5 0-7.4-1.3-2.4-1.2-2.4-3.8 0-2.1 1.8-3.2 1.9-1.1 6.6-1.7l3-.4q13.5-1.7 18.1-5.6 4.7-4 4.7-12.3 0-8.7-6.5-13.1Q42-1.4 29.1-1.4q-5.4 0-11.2.8Q12 .3 6 2v13.3q5.2-2.6 10.7-3.8 5.5-1.3 11.2-1.3 5.1 0 7.7 1.4 2.6 1.4 2.6 4.2 0 2.4-1.8 3.5-1.8 1.2-7.1 1.8l-3 .4Q14.4 23 9.8 26.9q-4.7 4-4.7 12 0 8.7 6 12.9Q17 56 29.3 56q4.8 0 10.1-.7 5.4-.8 11.6-2.3z" id="DejaVuSans-Bold-115"/></defs><g transform="matrix(.08536 0 0 -.08536 60.4 650.3)"><use xlink:href="#DejaVuSans-Bold-32"/><use x="34.8" xlink:href="#DejaVuSans-Bold-32"/><use x="69.6" xlink:href="#DejaVuSans-Bold-48"/><use x="139.2" xlink:href="#DejaVuSans-Bold-181"/><use x="212.8" xlink:href="#DejaVuSans-Bold-115"/></g></g><g transform="matrix(.08536 0 0 -.08536 60.4 535.1)" id="text_17"><use xlink:href="#DejaVuSans-Bold-32"/><use x="34.8" xlink:href="#DejaVuSans-Bold-32"/><use x="69.6" xlink:href="#DejaVuSans-Bold-48"/><use x="139.2" xlink:href="#DejaVuSans-Bold-181"/><use x="212.8" xlink:href="#DejaVuSans-Bold-115"/></g><g transform="matrix(.08536 0 0 -.08536 60.4 420)" id="text_18"><use xlink:href="#DejaVuSans-Bold-32"/><use x="34.8" xlink:href="#DejaVuSans-Bold-32"/><use x="69.6" xlink:href="#DejaVuSans-Bold-48"/><use x="139.2" xlink:href="#DejaVuSans-Bold-181"/><use x="212.8" xlink:href="#DejaVuSans-Bold-115"/></g><g transform="matrix(.08536 0 0 -.08536 60.4 304.7)" id="text_19"><use xlink:href="#DejaVuSans-Bold-32"/><use x="34.8" xlink:href="#DejaVuSans-Bold-32"/><use x="69.6" xlink:href="#DejaVuSans-Bold-48"/><use x="139.2" xlink:href="#DejaVuSans-Bold-181"/><use x="212.8" xlink:href="#DejaVuSans-Bold-115"/></g><g transform="matrix(.08536 0 0 -.08536 60.4 189.5)" id="text_20"><use xlink:href="#DejaVuSans-Bold-32"/><use x="34.8" xlink:href="#DejaVuSans-Bold-32"/><use x="69.6" xlink:href="#DejaVuSans-Bold-48"/><use x="139.2" xlink:href="#DejaVuSans-Bold-181"/><use x="212.8" xlink:href="#DejaVuSans-Bold-115"/></g><g transform="matrix(.08536 0 0 -.08536 60.4 74.3)" id="text_21"><use xlink:href="#DejaVuSans-Bold-32"/><use x="34.8" xlink:href="#DejaVuSans-Bold-32"/><use x="69.6" xlink:href="#DejaVuSans-Bold-48"/><use x="139.2" xlink:href="#DejaVuSans-Bold-181"/><use x="212.8" xlink:href="#DejaVuSans-Bold-115"/></g><g transform="matrix(.08536 0 0 -.08536 144.6 650.3)" id="text_22"><use xlink:href="#DejaVuSans-Bold-32"/><use x="34.8" xlink:href="#DejaVuSans-Bold-32"/><use x="69.6" xlink:href="#DejaVuSans-Bold-48"/><use x="139.2" xlink:href="#DejaVuSans-Bold-181"/><use x="212.8" xlink:href="#DejaVuSans-Bold-115"/></g><g transform="matrix(.08536 0 0 -.08536 144.6 535.1)" id="text_23"><use xlink:href="#DejaVuSans-Bold-32"/><use x="34.8" xlink:href="#DejaVuSans-Bold-32"/><use x="69.6" xlink:href="#DejaVuSans-Bold-48"/><use x="139.2" xlink:href="#DejaVuSans-Bold-181"/><use x="212.8" xlink:href="#DejaVuSans-Bold-115"/></g><g id="text_24"><defs><path d="M11.7 13h16.6V60l-17-3.5v12.8l17 3.5H46V13h16.6V0h-51z" id="DejaVuSans-Bold-49"/></defs><g transform="matrix(.1 0 0 -.1 139.1 420.3)"><use xlink:href="#DejaVuSans-Bold-49"/><use x="69.6" xlink:href="#DejaVuSans-Bold-48"/><use x="139.2" xlink:href="#DejaVuSans-Bold-48"/><use x="208.7" xlink:href="#DejaVuSans-Bold-181"/><use x="282.3" xlink:href="#DejaVuSans-Bold-115"/></g></g><g transform="matrix(.1 0 0 -.1 139.1 305.1)" id="text_25"><use xlink:href="#DejaVuSans-Bold-49"/><use x="69.6" xlink:href="#DejaVuSans-Bold-48"/><use x="139.2" xlink:href="#DejaVuSans-Bold-48"/><use x="208.7" xlink:href="#DejaVuSans-Bold-181"/><use x="282.3" xlink:href="#DejaVuSans-Bold-115"/></g><g id="text_26"><defs><path d="M28.8 13.8h32V0H8v13.8l26.6 23.5q3.6 3.2 5.3 6.3 1.7 3 1.7 6.4 0 5.1-3.4 8.3-3.5 3-9.2 3-4.4 0-9.6-1.8Q14 57.6 8 53.9v16q6.4 2.1 12.6 3.2 6.2 1.1 12.1 1.1 13.1 0 20.4-5.7 7.2-5.8 7.2-16.1 0-6-3-11.1-3.1-5.2-13-13.8z" id="DejaVuSans-Bold-50"/></defs><g transform="matrix(.10464 0 0 -.10464 138.4 190)"><use xlink:href="#DejaVuSans-Bold-50"/><use x="69.6" xlink:href="#DejaVuSans-Bold-48"/><use x="139.2" xlink:href="#DejaVuSans-Bold-48"/><use x="208.7" xlink:href="#DejaVuSans-Bold-181"/><use x="282.3" xlink:href="#DejaVuSans-Bold-115"/></g></g><g id="text_27"><defs><path d="M36.8 57.4L16.2 27h20.6zM33.7 73h20.9V27H65V13.3H54.6V0H36.8v13.3H4.5v16z" id="DejaVuSans-Bold-52"/></defs><g transform="matrix(.11036 0 0 -.11036 137.4 75)"><use xlink:href="#DejaVuSans-Bold-52"/><use x="69.6" xlink:href="#DejaVuSans-Bold-48"/><use x="139.2" xlink:href="#DejaVuSans-Bold-48"/><use x="208.7" xlink:href="#DejaVuSans-Bold-181"/><use x="282.3" xlink:href="#DejaVuSans-Bold-115"/></g></g><g transform="matrix(.08536 0 0 -.08536 228.9 650.3)" id="text_28"><use xlink:href="#DejaVuSans-Bold-32"/><use x="34.8" xlink:href="#DejaVuSans-Bold-32"/><use x="69.6" xlink:href="#DejaVuSans-Bold-48"/><use x="139.2" xlink:href="#DejaVuSans-Bold-181"/><use x="212.8" xlink:href="#DejaVuSans-Bold-115"/></g><g transform="matrix(.08536 0 0 -.08536 228.9 535.1)" id="text_29"><use xlink:href="#DejaVuSans-Bold-32"/><use x="34.8" xlink:href="#DejaVuSans-Bold-32"/><use x="69.6" xlink:href="#DejaVuSans-Bold-48"/><use x="139.2" xlink:href="#DejaVuSans-Bold-181"/><use x="212.8" xlink:href="#DejaVuSans-Bold-115"/></g><g transform="matrix(.1 0 0 -.1 223.4 420.3)" id="text_30"><use xlink:href="#DejaVuSans-Bold-49"/><use x="69.6" xlink:href="#DejaVuSans-Bold-48"/><use x="139.2" xlink:href="#DejaVuSans-Bold-48"/><use x="208.7" xlink:href="#DejaVuSans-Bold-181"/><use x="282.3" xlink:href="#DejaVuSans-Bold-115"/></g><g id="text_31"><defs><path d="M46.6 39.3q7.4-1.9 11.2-6.6 3.8-4.7 3.8-12 0-10.8-8.3-16.5Q45-1.4 29.1-1.4q-5.6 0-11.3.9-5.6.9-11.1 2.7v14.5q5.3-2.6 10.5-4 5.2-1.3 10.2-1.3 7.5 0 11.4 2.6 4 2.5 4 7.4 0 5-4 7.5-4.1 2.6-12.1 2.6h-7.5v12.1H27q7 0 10.5 2.2t3.5 6.8q0 4.2-3.4 6.5-3.3 2.3-9.5 2.3-4.5 0-9.2-1-4.6-1-9.2-3V71q5.6 1.6 11 2.3 5.5.8 10.8.8 14.2 0 21.2-4.7Q60 65 60 55.5q0-6.4-3.4-10.5-3.3-4-10-5.7z" id="DejaVuSans-Bold-51"/><path d="M10 1.6v13.5q4.5-2.1 8.6-3.2 4.1-1 8.1-1 8.4 0 13.1 4.6 4.7 4.7 5.5 13.9-3.3-2.4-7-3.7-3.8-1.2-8.2-1.2-11.2 0-18 6.5-7 6.5-7 17.2Q5.2 60 12.9 67q7.7 7.1 20.5 7.1 14.3 0 22-9.6 7.9-9.6 7.9-27.2 0-18-9.2-28.4Q45-1.4 29-1.4q-5.1 0-9.8.7-4.7.8-9.2 2.3zm23.2 35.1q5 0 7.4 3.2 2.5 3.2 2.5 9.6 0 6.4-2.5 9.6-2.5 3.2-7.4 3.2-5 0-7.4-3.2-2.5-3.2-2.5-9.6 0-6.4 2.5-9.6 2.5-3.2 7.4-3.2z" id="DejaVuSans-Bold-57"/></defs><g transform="matrix(.10914 0 0 -.10914 221.8 305.4)"><use xlink:href="#DejaVuSans-Bold-51"/><use x="69.6" xlink:href="#DejaVuSans-Bold-52"/><use x="139.2" xlink:href="#DejaVuSans-Bold-57"/><use x="208.7" xlink:href="#DejaVuSans-Bold-181"/><use x="282.3" xlink:href="#DejaVuSans-Bold-115"/></g></g><g id="text_32"><defs><path d="M34.8 32.6q-5.3 0-8.1-2.9-2.8-2.8-2.8-8.2 0-5.4 2.8-8.3 2.8-2.8 8.1-2.8 5.2 0 8 2.8 2.8 3 2.8 8.3 0 5.4-2.8 8.3-2.8 2.8-8 2.8zm-13.7 6.2q-6.6 2-10 6.2Q7.7 49 7.7 55.3q0 9.2 6.9 14 6.9 5 20.2 5 13.2 0 20.1-4.9 7-4.8 7-14 0-6.3-3.5-10.4-3.4-4.2-10-6.2 7.4-2 11.2-6.6 3.8-4.7 3.8-11.7 0-10.8-7.2-16.4Q49-1.4 34.8-1.4T13.4 4Q6 9.7 6 20.5q0 7 3.8 11.7 3.8 4.6 11.2 6.6zm4.4 14.6q0-4.3 2.4-6.7 2.4-2.3 7-2.3 4.3 0 6.7 2.3 2.4 2.4 2.4 6.7 0 4.4-2.4 6.7t-6.8 2.3q-4.5 0-6.9-2.3-2.4-2.4-2.4-6.7z" id="DejaVuSans-Bold-56"/></defs><g transform="matrix(.1174 0 0 -.1174 220.4 190.4)"><use xlink:href="#DejaVuSans-Bold-56"/><use x="69.6" xlink:href="#DejaVuSans-Bold-48"/><use x="139.2" xlink:href="#DejaVuSans-Bold-48"/><use x="208.7" xlink:href="#DejaVuSans-Bold-181"/><use x="282.3" xlink:href="#DejaVuSans-Bold-115"/></g></g><g id="text_33"><defs><path d="M59 45.6q3.4 5 8 7.7Q71.5 56 77 56q9.4 0 14.4-5.8 4.9-5.8 4.9-16.9V0H78.7v29.8l.1 2q0 5.8-1.7 8.4-1.7 2.6-5.5 2.6-5 0-7.7-4-2.7-4.2-2.8-12V0H43.5v28.5q0 9-1.6 11.7-1.5 2.6-5.5 2.6-5 0-7.8-4.1Q26 34.6 26 26.9V0H8.3v54.7h17.6v-8q3.2 4.6 7.4 7 4.2 2.3 9.2 2.3 5.6 0 10-2.7 4.3-2.8 6.6-7.7z" id="DejaVuSans-Bold-109"/></defs><g transform="matrix(.13206 0 0 -.13206 220.5 75.6)"><use xlink:href="#DejaVuSans-Bold-32"/><use x="34.8" xlink:href="#DejaVuSans-Bold-32"/><use x="69.6" xlink:href="#DejaVuSans-Bold-50"/><use x="139.2" xlink:href="#DejaVuSans-Bold-109"/><use x="243.4" xlink:href="#DejaVuSans-Bold-115"/></g></g><g transform="matrix(.08536 0 0 -.08536 313.1 650.3)" id="text_34"><use xlink:href="#DejaVuSans-Bold-32"/><use x="34.8" xlink:href="#DejaVuSans-Bold-32"/><use x="69.6" xlink:href="#DejaVuSans-Bold-48"/><use x="139.2" xlink:href="#DejaVuSans-Bold-181"/><use x="212.8" xlink:href="#DejaVuSans-Bold-115"/></g><g transform="matrix(.1 0 0 -.1 307.6 535.5)" id="text_35"><use xlink:href="#DejaVuSans-Bold-49"/><use x="69.6" xlink:href="#DejaVuSans-Bold-48"/><use x="139.2" xlink:href="#DejaVuSans-Bold-48"/><use x="208.7" xlink:href="#DejaVuSans-Bold-181"/><use x="282.3" xlink:href="#DejaVuSans-Bold-115"/></g><g transform="matrix(.10464 0 0 -.10464 306.8 420.5)" id="text_36"><use xlink:href="#DejaVuSans-Bold-50"/><use x="69.6" xlink:href="#DejaVuSans-Bold-48"/><use x="139.2" xlink:href="#DejaVuSans-Bold-48"/><use x="208.7" xlink:href="#DejaVuSans-Bold-181"/><use x="282.3" xlink:href="#DejaVuSans-Bold-115"/></g><g transform="matrix(.1174 0 0 -.1174 304.7 305.6)" id="text_37"><use xlink:href="#DejaVuSans-Bold-56"/><use x="69.6" xlink:href="#DejaVuSans-Bold-48"/><use x="139.2" xlink:href="#DejaVuSans-Bold-48"/><use x="208.7" xlink:href="#DejaVuSans-Bold-181"/><use x="282.3" xlink:href="#DejaVuSans-Bold-115"/></g><g transform="matrix(.13511 0 0 -.13511 304.3 191)" id="text_38"><use xlink:href="#DejaVuSans-Bold-32"/><use x="34.8" xlink:href="#DejaVuSans-Bold-32"/><use x="69.6" xlink:href="#DejaVuSans-Bold-51"/><use x="139.2" xlink:href="#DejaVuSans-Bold-109"/><use x="243.4" xlink:href="#DejaVuSans-Bold-115"/></g><g transform="matrix(.15852 0 0 -.15852 300.7 76.4)" id="text_39"><use xlink:href="#DejaVuSans-Bold-32"/><use x="34.8" xlink:href="#DejaVuSans-Bold-32"/><use x="69.6" xlink:href="#DejaVuSans-Bold-57"/><use x="139.2" xlink:href="#DejaVuSans-Bold-109"/><use x="243.4" xlink:href="#DejaVuSans-Bold-115"/></g><g transform="matrix(.08536 0 0 -.08536 397.3 650.3)" id="text_40"><use xlink:href="#DejaVuSans-Bold-32"/><use x="34.8" xlink:href="#DejaVuSans-Bold-32"/><use x="69.6" xlink:href="#DejaVuSans-Bold-48"/><use x="139.2" xlink:href="#DejaVuSans-Bold-181"/><use x="212.8" xlink:href="#DejaVuSans-Bold-115"/></g><g transform="matrix(.1 0 0 -.1 391.9 535.5)" id="text_41"><use xlink:href="#DejaVuSans-Bold-49"/><use x="69.6" xlink:href="#DejaVuSans-Bold-48"/><use x="139.2" xlink:href="#DejaVuSans-Bold-48"/><use x="208.7" xlink:href="#DejaVuSans-Bold-181"/><use x="282.3" xlink:href="#DejaVuSans-Bold-115"/></g><g transform="matrix(.11036 0 0 -.11036 390.1 420.6)" id="text_42"><use xlink:href="#DejaVuSans-Bold-52"/><use x="69.6" xlink:href="#DejaVuSans-Bold-48"/><use x="139.2" xlink:href="#DejaVuSans-Bold-48"/><use x="208.7" xlink:href="#DejaVuSans-Bold-181"/><use x="282.3" xlink:href="#DejaVuSans-Bold-115"/></g><g transform="matrix(.12693 0 0 -.12693 389.7 305.9)" id="text_43"><use xlink:href="#DejaVuSans-Bold-32"/><use x="34.8" xlink:href="#DejaVuSans-Bold-32"/><use x="69.6" xlink:href="#DejaVuSans-Bold-50"/><use x="139.2" xlink:href="#DejaVuSans-Bold-109"/><use x="243.4" xlink:href="#DejaVuSans-Bold-115"/></g><g id="text_44"><defs><path d="M6.7 73h55V62.2L33.1 0H14.9l26.9 59H6.7z" id="DejaVuSans-Bold-55"/></defs><g transform="matrix(.152 0 0 -.152 386 191.4)"><use xlink:href="#DejaVuSans-Bold-32"/><use x="34.8" xlink:href="#DejaVuSans-Bold-32"/><use x="69.6" xlink:href="#DejaVuSans-Bold-55"/><use x="139.2" xlink:href="#DejaVuSans-Bold-109"/><use x="243.4" xlink:href="#DejaVuSans-Bold-115"/></g></g><g transform="matrix(.1946 0 0 -.1946 376.1 77.4)" id="text_45"><use xlink:href="#DejaVuSans-Bold-32"/><use x="34.8" xlink:href="#DejaVuSans-Bold-51"/><use x="104.4" xlink:href="#DejaVuSans-Bold-51"/><use x="174" xlink:href="#DejaVuSans-Bold-109"/><use x="278.2" xlink:href="#DejaVuSans-Bold-115"/></g><g transform="matrix(.08536 0 0 -.08536 481.6 650.3)" id="text_46"><use xlink:href="#DejaVuSans-Bold-32"/><use x="34.8" xlink:href="#DejaVuSans-Bold-32"/><use x="69.6" xlink:href="#DejaVuSans-Bold-48"/><use x="139.2" xlink:href="#DejaVuSans-Bold-181"/><use x="212.8" xlink:href="#DejaVuSans-Bold-115"/></g><g transform="matrix(.1 0 0 -.1 476.1 535.5)" id="text_47"><use xlink:href="#DejaVuSans-Bold-49"/><use x="69.6" xlink:href="#DejaVuSans-Bold-48"/><use x="139.2" xlink:href="#DejaVuSans-Bold-48"/><use x="208.7" xlink:href="#DejaVuSans-Bold-181"/><use x="282.3" xlink:href="#DejaVuSans-Bold-115"/></g><g id="text_48"><defs><path d="M36.2 36q-5 0-7.4-3.2-2.5-3.2-2.5-9.6 0-6.4 2.5-9.6 2.4-3.2 7.4-3.2t7.4 3.2q2.5 3.2 2.5 9.6 0 6.4-2.5 9.6-2.4 3.2-7.4 3.2zm23.2 35V57.5q-4.6 2.2-8.7 3.3-4.1 1-8 1-8.4 0-13.1-4.7-4.7-4.6-5.5-13.8 3.2 2.4 7 3.6 3.8 1.2 8.2 1.2 11.2 0 18-6.6 6.9-6.5 6.9-17 0-11.8-7.7-18.9-7.6-7-20.5-7-14.2 0-22 9.6-7.8 9.6-7.8 27.2 0 18 9.1 28.4 9.1 10.3 25 10.3 5 0 9.7-.8 4.8-.7 9.4-2.3z" id="DejaVuSans-Bold-54"/></defs><g transform="matrix(.1143 0 0 -.1143 473.7 420.7)"><use xlink:href="#DejaVuSans-Bold-54"/><use x="69.6" xlink:href="#DejaVuSans-Bold-48"/><use x="139.2" xlink:href="#DejaVuSans-Bold-48"/><use x="208.7" xlink:href="#DejaVuSans-Bold-181"/><use x="282.3" xlink:href="#DejaVuSans-Bold-115"/></g></g><g transform="matrix(.13677 0 0 -.13677 472.5 306.2)" id="text_49"><use xlink:href="#DejaVuSans-Bold-32"/><use x="34.8" xlink:href="#DejaVuSans-Bold-32"/><use x="69.6" xlink:href="#DejaVuSans-Bold-51"/><use x="139.2" xlink:href="#DejaVuSans-Bold-109"/><use x="243.4" xlink:href="#DejaVuSans-Bold-115"/></g><g transform="matrix(.17233 0 0 -.17233 464.1 192)" id="text_50"><use xlink:href="#DejaVuSans-Bold-32"/><use x="34.8" xlink:href="#DejaVuSans-Bold-49"/><use x="104.4" xlink:href="#DejaVuSans-Bold-54"/><use x="174" xlink:href="#DejaVuSans-Bold-109"/><use x="278.2" xlink:href="#DejaVuSans-Bold-115"/></g><g id="text_51"><defs><path d="M10.6 73h46.7V59H25.6V47.9q2.1.6 4.3.9 2.2.3 4.5.3 13.4 0 20.8-6.6 7.4-6.7 7.4-18.6 0-11.8-8-18.5Q46.3-1.4 32-1.4q-6.2 0-12.3 1.2-6 1.2-12 3.6v14.8q5.9-3.4 11.2-5.1 5.4-1.7 10.1-1.7 6.8 0 10.8 3.3 3.9 3.4 3.9 9 0 5.8-4 9.2-3.9 3.3-10.7 3.3-4 0-8.6-1-4.6-1.1-10-3.3z" id="DejaVuSans-Bold-53"/></defs><g transform="matrix(.24216 0 0 -.24216 448.1 78.7)"><use xlink:href="#DejaVuSans-Bold-49"/><use x="69.6" xlink:href="#DejaVuSans-Bold-48"/><use x="139.2" xlink:href="#DejaVuSans-Bold-53"/><use x="208.7" xlink:href="#DejaVuSans-Bold-109"/><use x="312.9" xlink:href="#DejaVuSans-Bold-115"/></g></g></g><g id="axes_2"><path clip-path="url(#pe60e5bcad7)" d="M622.8 648V72h28.8v576z" fill="#fff" stroke="#fff" stroke-width="0" id="patch_7"/><g id="QuadMesh_1"><path clip-path="url(#pe60e5bcad7)" d="M622.8 648h28.8v-96h-28.8v96" fill="#481f70"/><path clip-path="url(#pe60e5bcad7)" d="M622.8 552h28.8v-96h-28.8v96" fill="#3b528b"/><path clip-path="url(#pe60e5bcad7)" d="M622.8 456h28.8v-96h-28.8v96" fill="#287c8e"/><path clip-path="url(#pe60e5bcad7)" d="M622.8 360h28.8v-96h-28.8v96" fill="#20a486"/><path clip-path="url(#pe60e5bcad7)" d="M622.8 264h28.8v-96h-28.8v96" fill="#5ec962"/><path clip-path="url(#pe60e5bcad7)" d="M622.8 168h28.8V72h-28.8v96" fill="#c8e020"/></g><g id="matplotlib.axis_4"><g id="ytick_7"><g id="line2d_13"><defs><path d="M0 0h3.5" id="m6531a0bf8b" stroke="#000" stroke-width=".8"/></defs><use x="651.6" xlink:href="#m6531a0bf8b" y="648" stroke="#000" stroke-width=".8"/></g><g id="text_52"><defs><path d="M31.8 66.4q-7.6 0-11.5-7.5-3.8-7.5-3.8-22.5t3.8-22.5q3.9-7.5 11.5-7.5 7.7 0 11.5 7.5T47 36.4q0 15-3.8 22.5t-11.5 7.5zm0 7.8q12.2 0 18.7-9.7T57 36.4Q57 18 50.5 8.3 44-1.4 31.8-1.4 19.5-1.4 13 8.3q-6.5 9.7-6.5 28 0 18.5 6.5 28.2 6.4 9.7 18.7 9.7z" id="DejaVuSans-48"/><path d="M19.7 34.8V8.1h15.8q8 0 11.8 3.3 3.8 3.3 3.8 10 0 7-3.8 10.2-3.8 3.2-11.8 3.2zm0 30v-22h14.6q7.2 0 10.7 2.7 3.6 2.8 3.6 8.3 0 5.5-3.6 8.3-3.5 2.7-10.7 2.7zm-9.9 8.1H35q11.3 0 17.4-4.7 6.1-4.7 6.1-13.3 0-6.7-3.1-10.7-3.1-4-9.2-4.9 7.3-1.5 11.3-6.5 4-5 4-12.4 0-9.8-6.6-15Q48.3 0 35.9 0H10z" id="DejaVuSans-66"/></defs><g transform="matrix(.1 0 0 -.1 658.6 651.8)"><use xlink:href="#DejaVuSans-32"/><use x="31.8" xlink:href="#DejaVuSans-49"/><use x="95.4" xlink:href="#DejaVuSans-48"/><use x="159" xlink:href="#DejaVuSans-66"/></g></g></g><g id="ytick_8"><use x="651.6" xlink:href="#m6531a0bf8b" y="552" stroke="#000" stroke-width=".8" id="line2d_14"/><g transform="matrix(.1 0 0 -.1 658.6 555.8)" id="text_53"><use xlink:href="#DejaVuSans-49"/><use x="63.6" xlink:href="#DejaVuSans-48"/><use x="127.2" xlink:href="#DejaVuSans-48"/><use x="190.9" xlink:href="#DejaVuSans-66"/></g></g><g id="ytick_9"><use x="651.6" xlink:href="#m6531a0bf8b" y="456" stroke="#000" stroke-width=".8" id="line2d_15"/><g id="text_54"><defs><path d="M9.8 73h9.9V42l32.7 31H65L28.9 39 67.7 0h-13l-35 35.1V0H9.8z" id="DejaVuSans-75"/></defs><g transform="matrix(.1 0 0 -.1 658.6 459.8)"><use xlink:href="#DejaVuSans-32"/><use x="31.8" xlink:href="#DejaVuSans-32"/><use x="63.6" xlink:href="#DejaVuSans-49"/><use x="127.2" xlink:href="#DejaVuSans-75"/><use x="192.8" xlink:href="#DejaVuSans-105"/><use x="220.6" xlink:href="#DejaVuSans-66"/></g></g></g><g id="ytick_10"><use x="651.6" xlink:href="#m6531a0bf8b" y="360" stroke="#000" stroke-width=".8" id="line2d_16"/><g transform="matrix(.1 0 0 -.1 658.6 363.8)" id="text_55"><use xlink:href="#DejaVuSans-32"/><use x="31.8" xlink:href="#DejaVuSans-49"/><use x="95.4" xlink:href="#DejaVuSans-48"/><use x="159" xlink:href="#DejaVuSans-75"/><use x="224.6" xlink:href="#DejaVuSans-105"/><use x="252.4" xlink:href="#DejaVuSans-66"/></g></g><g id="ytick_11"><use x="651.6" xlink:href="#m6531a0bf8b" y="264" stroke="#000" stroke-width=".8" id="line2d_17"/><g transform="matrix(.1 0 0 -.1 658.6 267.8)" id="text_56"><use xlink:href="#DejaVuSans-49"/><use x="63.6" xlink:href="#DejaVuSans-48"/><use x="127.2" xlink:href="#DejaVuSans-48"/><use x="190.9" xlink:href="#DejaVuSans-75"/><use x="256.4" xlink:href="#DejaVuSans-105"/><use x="284.2" xlink:href="#DejaVuSans-66"/></g></g><g id="ytick_12"><use x="651.6" xlink:href="#m6531a0bf8b" y="168" stroke="#000" stroke-width=".8" id="line2d_18"/><g id="text_57"><defs><path d="M9.8 73h14.7l18.6-49.7 18.7 49.6h14.7V0H67v64L48 14H38L19.5 64V0H9.8z" id="DejaVuSans-77"/></defs><g transform="matrix(.1 0 0 -.1 658.6 171.8)"><use xlink:href="#DejaVuSans-32"/><use x="31.8" xlink:href="#DejaVuSans-32"/><use x="63.6" xlink:href="#DejaVuSans-49"/><use x="127.2" xlink:href="#DejaVuSans-77"/><use x="213.5" xlink:href="#DejaVuSans-105"/><use x="241.3" xlink:href="#DejaVuSans-66"/></g></g></g><g id="ytick_13"><use x="651.6" xlink:href="#m6531a0bf8b" y="72" stroke="#000" stroke-width=".8" id="line2d_19"/><g transform="matrix(.1 0 0 -.1 658.6 75.8)" id="text_58"><use xlink:href="#DejaVuSans-32"/><use x="31.8" xlink:href="#DejaVuSans-49"/><use x="95.4" xlink:href="#DejaVuSans-48"/><use x="159" xlink:href="#DejaVuSans-77"/><use x="245.3" xlink:href="#DejaVuSans-105"/><use x="273.1" xlink:href="#DejaVuSans-66"/></g></g><g id="text_59"><defs><path d="M44.3 53v-8.4q-3.8 2-8 2.9-4 1-8.4 1-6.7 0-10-2-3.4-2.1-3.4-6.2 0-3.1 2.4-5 2.4-1.7 9.6-3.3l3-.7q9.7-2 13.7-5.8 4-3.7 4-10.4 0-7.6-6-12-6-4.5-16.6-4.5-4.4 0-9.1.8-4.8.9-10 2.6v9.3q5-2.6 9.7-4 4.9-1.2 9.6-1.2 6.4 0 9.8 2.2 3.4 2.2 3.4 6.1 0 3.7-2.5 5.6-2.4 2-10.8 3.8l-3.1.7q-8.4 1.8-12 5.4-3.8 3.6-3.8 10 0 7.7 5.5 11.9Q16.7 56 26.8 56q5 0 9.4-.7 4.4-.8 8-2.2z" id="DejaVuSans-115"/><path d="M5.5 54.7h42.7v-8.2L14.4 7.2h33.8V0H4.3v8.2l33.8 39.3H5.5z" id="DejaVuSans-122"/></defs><g transform="matrix(0 -.1 -.1 0 705.5 416.6)"><use xlink:href="#DejaVuSans-115"/><use x="52.1" xlink:href="#DejaVuSans-101"/><use x="113.6" xlink:href="#DejaVuSans-114"/><use x="154.7" xlink:href="#DejaVuSans-105"/><use x="182.5" xlink:href="#DejaVuSans-97"/><use x="243.8" xlink:href="#DejaVuSans-108"/><use x="271.6" xlink:href="#DejaVuSans-105"/><use x="299.4" xlink:href="#DejaVuSans-122"/><use x="351.9" xlink:href="#DejaVuSans-101"/><use x="413.4" xlink:href="#DejaVuSans-100"/><use x="476.9" xlink:href="#DejaVuSans-32"/><use x="508.6" xlink:href="#DejaVuSans-112"/><use x="572.1" xlink:href="#DejaVuSans-97"/><use x="633.4" xlink:href="#DejaVuSans-121"/><use x="692.6" xlink:href="#DejaVuSans-108"/><use x="720.4" xlink:href="#DejaVuSans-111"/><use x="781.5" xlink:href="#DejaVuSans-97"/><use x="842.8" xlink:href="#DejaVuSans-100"/><use x="906.3" xlink:href="#DejaVuSans-32"/><use x="938.1" xlink:href="#DejaVuSans-115"/><use x="990.2" xlink:href="#DejaVuSans-105"/><use x="1018" xlink:href="#DejaVuSans-122"/><use x="1070.5" xlink:href="#DejaVuSans-101"/></g></g></g><path d="M622.8 648V72h28.8v576z" fill="none" stroke="#000" stroke-width=".8" id="patch_8"/></g></g><defs><clipPath id="p5047f322cb"><path d="M72 72h421.2v576H72z"/></clipPath><clipPath id="pe60e5bcad7"><path d="M622.8 72h28.8v576h-28.8z"/></clipPath></defs></svg>