<svg width="937" height="399" version="1" xmlns="http://www.w3.org/2000/svg"><g fill="none" fill-rule="evenodd"><path stroke="#000" stroke-width="8" fill="#FFF" stroke-linejoin="round" d="M8 4h923v252H8z"/><path d="M720 136h-81a4 4 0 0 1 0-7h81v-14a2 2 0 0 1 3-2l35 17a2 2 0 0 1 0 4l-35 17a2 2 0 0 1-3-2v-13zM279 130h81a3 3 0 1 1 0 7h-81v13a2 2 0 0 1-4 2l-34-17a2 2 0 0 1 0-4l34-17a2 2 0 0 1 4 2v14z" fill="#000" fill-rule="nonzero"/><text font-family="RobotoCondensed-Bold, Roboto Condensed" font-size="45" font-style="condensed" font-weight="bold" fill="#000" transform="translate(-2 4)"><tspan x="63" y="142">Data</tspan></text><text font-family="RobotoMono-Bold, Roboto Mono" font-size="32" font-weight="bold" fill="#000" transform="translate(-2 4)"><tspan x="0" y="388">0</tspan></text><text font-family="RobotoCondensed-Bold, Roboto Condensed" font-size="45" font-style="condensed" font-weight="bold" fill="#000" transform="translate(-2 4)"><tspan x="381" y="144">Stack</tspan></text><text font-family="RobotoCondensed-Bold, Roboto Condensed" font-size="45" font-style="condensed" font-weight="bold" fill="#000" transform="translate(-2 4)"><tspan x="528" y="143">Heap</tspan></text><path d="M8 18v332" stroke="#000" stroke-width="8" stroke-linecap="round" stroke-dasharray="0,16"/><text font-family="RobotoMono-Bold, Roboto Mono" font-size="32" font-weight="bold" fill="#000" transform="translate(-2 4)"><tspan x="746" y="388">max memory</tspan></text><path d="M930 18v332" stroke="#000" stroke-width="8" stroke-linecap="round" stroke-dasharray="0,16"/><text font-family="RobotoMono-Bold, Roboto Mono" font-size="32" font-weight="bold" fill="#000" transform="translate(-2 4)"><tspan x="110" y="388">__data_end</tspan></text><path d="M204 18v332" stroke="#000" stroke-width="8" stroke-linecap="round" stroke-dasharray="0,16"/><text font-family="RobotoMono-Bold, Roboto Mono" font-size="32" font-weight="bold" fill="#000" transform="translate(-2 4)"><tspan x="400" y="388">__heap_base</tspan></text><path d="M504 18v332" stroke="#000" stroke-width="8" stroke-linecap="round" stroke-dasharray="0,16"/></g></svg>