<svg fill="none" stroke-linecap="square" stroke-miterlimit="10" width="600" height="371" xmlns="http://www.w3.org/2000/svg"><path fill="#fff" d="M0 0h600v371H0V0z"/><path stroke="#333" stroke-linecap="butt" d="M56.5 318.5h525"/><path stroke="#ccc" stroke-linecap="butt" d="M56.5 260.5h525M56.5 203.5h525M56.5 145.5h525M56.5 88.5h525"/><clipPath id="a"><path d="M56.5 88.3h525v230.1h-525V88.3z"/></clipPath><path clip-path="url(#a)" d="M74 318H63V182h11z"/><path fill="#4285f4" clip-path="url(#a)" d="M74 318H63V182h11z"/><path clip-path="url(#a)" d="M90 318H79V200h11z"/><path fill="#4285f4" clip-path="url(#a)" d="M90 318H79V200h11z"/><path clip-path="url(#a)" d="M106 318H95V215h11z"/><path fill="#4285f4" clip-path="url(#a)" d="M106 318H95V215h11z"/><path clip-path="url(#a)" d="M122 318h-11v-92h11z"/><path fill="#4285f4" clip-path="url(#a)" d="M122 318h-11v-92h11z"/><path clip-path="url(#a)" d="M138 318h-11v-83h11z"/><path fill="#4285f4" clip-path="url(#a)" d="M138 318h-11v-83h11z"/><path clip-path="url(#a)" d="M155 318h-11v-75h11z"/><path fill="#4285f4" clip-path="url(#a)" d="M155 318h-11v-75h11z"/><path clip-path="url(#a)" d="M171 318h-11v-69h11z"/><path fill="#4285f4" clip-path="url(#a)" d="M171 318h-11v-69h11z"/><path clip-path="url(#a)" d="M187 318h-11v-63h11z"/><path fill="#4285f4" clip-path="url(#a)" d="M187 318h-11v-63h11z"/><path clip-path="url(#a)" d="M203 318h-11v-59h11z"/><path fill="#4285f4" clip-path="url(#a)" d="M203 318h-11v-59h11z"/><path clip-path="url(#a)" d="M220 318h-11v-55h11z"/><path fill="#4285f4" clip-path="url(#a)" d="M220 318h-11v-55h11z"/><path clip-path="url(#a)" d="M236 318h-11v-51h11z"/><path fill="#4285f4" clip-path="url(#a)" d="M236 318h-11v-51h11z"/><path clip-path="url(#a)" d="M252 318h-11v-48h11z"/><path fill="#4285f4" clip-path="url(#a)" d="M252 318h-11v-48h11z"/><path clip-path="url(#a)" d="M268 318h-11v-45h11z"/><path fill="#4285f4" clip-path="url(#a)" d="M268 318h-11v-45h11z"/><path clip-path="url(#a)" d="M284 318h-11v-42h11z"/><path fill="#4285f4" clip-path="url(#a)" d="M284 318h-11v-42h11z"/><path clip-path="url(#a)" d="M301 318h-11v-40h11z"/><path fill="#4285f4" clip-path="url(#a)" d="M301 318h-11v-40h11z"/><path clip-path="url(#a)" d="M317 318h-11v-38h11z"/><path fill="#4285f4" clip-path="url(#a)" d="M317 318h-11v-38h11z"/><path clip-path="url(#a)" d="M333 318h-11v-36h11z"/><path fill="#4285f4" clip-path="url(#a)" d="M333 318h-11v-36h11z"/><path clip-path="url(#a)" d="M349 318h-11v-34h11z"/><path fill="#4285f4" clip-path="url(#a)" d="M349 318h-11v-34h11z"/><path clip-path="url(#a)" d="M366 318h-11v-33h11z"/><path fill="#4285f4" clip-path="url(#a)" d="M366 318h-11v-33h11z"/><path clip-path="url(#a)" d="M382 318h-11v-31h11z"/><path fill="#4285f4" clip-path="url(#a)" d="M382 318h-11v-31h11z"/><path clip-path="url(#a)" d="M398 318h-11v-30h11z"/><path fill="#4285f4" clip-path="url(#a)" d="M398 318h-11v-30h11z"/><path clip-path="url(#a)" d="M414 318h-11v-29h11z"/><path fill="#4285f4" clip-path="url(#a)" d="M414 318h-11v-29h11z"/><path clip-path="url(#a)" d="M430 318h-11v-27h11z"/><path fill="#4285f4" clip-path="url(#a)" d="M430 318h-11v-27h11z"/><path clip-path="url(#a)" d="M447 318h-11v-26h11z"/><path fill="#4285f4" clip-path="url(#a)" d="M447 318h-11v-26h11z"/><path clip-path="url(#a)" d="M463 318h-11v-25h11z"/><path fill="#4285f4" clip-path="url(#a)" d="M463 318h-11v-25h11z"/><path clip-path="url(#a)" d="M479 318h-11v-24h11z"/><path fill="#4285f4" clip-path="url(#a)" d="M479 318h-11v-24h11z"/><path clip-path="url(#a)" d="M495 318h-11v-23h11z"/><path fill="#4285f4" clip-path="url(#a)" d="M495 318h-11v-23h11z"/><path clip-path="url(#a)" d="M512 318h-11v-23h11z"/><path fill="#4285f4" clip-path="url(#a)" d="M512 318h-11v-23h11z"/><path clip-path="url(#a)" d="M528 318h-11v-22h11z"/><path fill="#4285f4" clip-path="url(#a)" d="M528 318h-11v-22h11z"/><path clip-path="url(#a)" d="M544 318h-11v-21h11z"/><path fill="#4285f4" clip-path="url(#a)" d="M544 318h-11v-21h11z"/><path clip-path="url(#a)" d="M560 318h-11v-20h11z"/><path fill="#4285f4" clip-path="url(#a)" d="M560 318h-11v-20h11z"/><path clip-path="url(#a)" d="M576 318h-11v-20h11z"/><path fill="#4285f4" clip-path="url(#a)" d="M576 318h-11v-20h11z"/><path clip-path="url(#a)" d="M74 182H63V90c0-1.1.9-2 2-2h7a2 2 0 0 1 2 2z"/><path fill="#db4437" clip-path="url(#a)" d="M74 182H63V90c0-1.1.9-2 2-2h7a2 2 0 0 1 2 2z"/><path clip-path="url(#a)" d="M90 200H79V90c0-1.1.9-2 2-2h7a2 2 0 0 1 2 2z"/><path fill="#db4437" clip-path="url(#a)" d="M90 200H79V90c0-1.1.9-2 2-2h7a2 2 0 0 1 2 2z"/><path clip-path="url(#a)" d="M106 215H95V90c0-1.1.9-2 2-2h7a2 2 0 0 1 2 2z"/><path fill="#db4437" clip-path="url(#a)" d="M106 215H95V90c0-1.1.9-2 2-2h7a2 2 0 0 1 2 2z"/><path clip-path="url(#a)" d="M122 226h-11V90c0-1.1.9-2 2-2h7a2 2 0 0 1 2 2z"/><path fill="#db4437" clip-path="url(#a)" d="M122 226h-11V90c0-1.1.9-2 2-2h7a2 2 0 0 1 2 2z"/><path clip-path="url(#a)" d="M138 235h-11V90c0-1.1.9-2 2-2h7a2 2 0 0 1 2 2z"/><path fill="#db4437" clip-path="url(#a)" d="M138 235h-11V90c0-1.1.9-2 2-2h7a2 2 0 0 1 2 2z"/><path clip-path="url(#a)" d="M155 243h-11V90c0-1.1.9-2 2-2h7a2 2 0 0 1 2 2z"/><path fill="#db4437" clip-path="url(#a)" d="M155 243h-11V90c0-1.1.9-2 2-2h7a2 2 0 0 1 2 2z"/><path clip-path="url(#a)" d="M171 249h-11V90c0-1.1.9-2 2-2h7a2 2 0 0 1 2 2z"/><path fill="#db4437" clip-path="url(#a)" d="M171 249h-11V90c0-1.1.9-2 2-2h7a2 2 0 0 1 2 2z"/><path clip-path="url(#a)" d="M187 255h-11V90c0-1.1.9-2 2-2h7a2 2 0 0 1 2 2z"/><path fill="#db4437" clip-path="url(#a)" d="M187 255h-11V90c0-1.1.9-2 2-2h7a2 2 0 0 1 2 2z"/><path clip-path="url(#a)" d="M203 259h-11V90c0-1.1.9-2 2-2h7a2 2 0 0 1 2 2z"/><path fill="#db4437" clip-path="url(#a)" d="M203 259h-11V90c0-1.1.9-2 2-2h7a2 2 0 0 1 2 2z"/><path clip-path="url(#a)" d="M220 263h-11V90c0-1.1.9-2 2-2h7a2 2 0 0 1 2 2z"/><path fill="#db4437" clip-path="url(#a)" d="M220 263h-11V90c0-1.1.9-2 2-2h7a2 2 0 0 1 2 2z"/><path clip-path="url(#a)" d="M236 267h-11V90c0-1.1.9-2 2-2h7a2 2 0 0 1 2 2z"/><path fill="#db4437" clip-path="url(#a)" d="M236 267h-11V90c0-1.1.9-2 2-2h7a2 2 0 0 1 2 2z"/><path clip-path="url(#a)" d="M252 270h-11V90c0-1.1.9-2 2-2h7a2 2 0 0 1 2 2z"/><path fill="#db4437" clip-path="url(#a)" d="M252 270h-11V90c0-1.1.9-2 2-2h7a2 2 0 0 1 2 2z"/><path clip-path="url(#a)" d="M268 273h-11V90c0-1.1.9-2 2-2h7a2 2 0 0 1 2 2z"/><path fill="#db4437" clip-path="url(#a)" d="M268 273h-11V90c0-1.1.9-2 2-2h7a2 2 0 0 1 2 2z"/><path clip-path="url(#a)" d="M284 276h-11V90c0-1.1.9-2 2-2h7a2 2 0 0 1 2 2z"/><path fill="#db4437" clip-path="url(#a)" d="M284 276h-11V90c0-1.1.9-2 2-2h7a2 2 0 0 1 2 2z"/><path clip-path="url(#a)" d="M301 278h-11V90c0-1.1.9-2 2-2h7a2 2 0 0 1 2 2z"/><path fill="#db4437" clip-path="url(#a)" d="M301 278h-11V90c0-1.1.9-2 2-2h7a2 2 0 0 1 2 2z"/><path clip-path="url(#a)" d="M317 280h-11V90c0-1.1.9-2 2-2h7a2 2 0 0 1 2 2z"/><path fill="#db4437" clip-path="url(#a)" d="M317 280h-11V90c0-1.1.9-2 2-2h7a2 2 0 0 1 2 2z"/><path clip-path="url(#a)" d="M333 282h-11V90c0-1.1.9-2 2-2h7a2 2 0 0 1 2 2z"/><path fill="#db4437" clip-path="url(#a)" d="M333 282h-11V90c0-1.1.9-2 2-2h7a2 2 0 0 1 2 2z"/><path clip-path="url(#a)" d="M349 284h-11V90c0-1.1.9-2 2-2h7a2 2 0 0 1 2 2z"/><path fill="#db4437" clip-path="url(#a)" d="M349 284h-11V90c0-1.1.9-2 2-2h7a2 2 0 0 1 2 2z"/><path clip-path="url(#a)" d="M366 285h-11V90c0-1.1.9-2 2-2h7a2 2 0 0 1 2 2z"/><path fill="#db4437" clip-path="url(#a)" d="M366 285h-11V90c0-1.1.9-2 2-2h7a2 2 0 0 1 2 2z"/><path clip-path="url(#a)" d="M382 287h-11V90c0-1.1.9-2 2-2h7a2 2 0 0 1 2 2z"/><path fill="#db4437" clip-path="url(#a)" d="M382 287h-11V90c0-1.1.9-2 2-2h7a2 2 0 0 1 2 2z"/><path clip-path="url(#a)" d="M398 288h-11V90c0-1.1.9-2 2-2h7a2 2 0 0 1 2 2z"/><path fill="#db4437" clip-path="url(#a)" d="M398 288h-11V90c0-1.1.9-2 2-2h7a2 2 0 0 1 2 2z"/><path clip-path="url(#a)" d="M414 289h-11V90c0-1.1.9-2 2-2h7a2 2 0 0 1 2 2z"/><path fill="#db4437" clip-path="url(#a)" d="M414 289h-11V90c0-1.1.9-2 2-2h7a2 2 0 0 1 2 2z"/><path clip-path="url(#a)" d="M430 291h-11V90c0-1.1.9-2 2-2h7a2 2 0 0 1 2 2z"/><path fill="#db4437" clip-path="url(#a)" d="M430 291h-11V90c0-1.1.9-2 2-2h7a2 2 0 0 1 2 2z"/><path clip-path="url(#a)" d="M447 292h-11V90c0-1.1.9-2 2-2h7a2 2 0 0 1 2 2z"/><path fill="#db4437" clip-path="url(#a)" d="M447 292h-11V90c0-1.1.9-2 2-2h7a2 2 0 0 1 2 2z"/><path clip-path="url(#a)" d="M463 293h-11V90c0-1.1.9-2 2-2h7a2 2 0 0 1 2 2z"/><path fill="#db4437" clip-path="url(#a)" d="M463 293h-11V90c0-1.1.9-2 2-2h7a2 2 0 0 1 2 2z"/><path clip-path="url(#a)" d="M479 294h-11V90c0-1.1.9-2 2-2h7a2 2 0 0 1 2 2z"/><path fill="#db4437" clip-path="url(#a)" d="M479 294h-11V90c0-1.1.9-2 2-2h7a2 2 0 0 1 2 2z"/><path clip-path="url(#a)" d="M495 295h-11V90c0-1.1.9-2 2-2h7a2 2 0 0 1 2 2z"/><path fill="#db4437" clip-path="url(#a)" d="M495 295h-11V90c0-1.1.9-2 2-2h7a2 2 0 0 1 2 2z"/><path clip-path="url(#a)" d="M512 295h-11V90c0-1.1.9-2 2-2h7a2 2 0 0 1 2 2z"/><path fill="#db4437" clip-path="url(#a)" d="M512 295h-11V90c0-1.1.9-2 2-2h7a2 2 0 0 1 2 2z"/><path clip-path="url(#a)" d="M528 296h-11V90c0-1.1.9-2 2-2h7a2 2 0 0 1 2 2z"/><path fill="#db4437" clip-path="url(#a)" d="M528 296h-11V90c0-1.1.9-2 2-2h7a2 2 0 0 1 2 2z"/><path clip-path="url(#a)" d="M544 297h-11V90c0-1.1.9-2 2-2h7a2 2 0 0 1 2 2z"/><path fill="#db4437" clip-path="url(#a)" d="M544 297h-11V90c0-1.1.9-2 2-2h7a2 2 0 0 1 2 2z"/><path clip-path="url(#a)" d="M560 298h-11V90c0-1.1.9-2 2-2h7a2 2 0 0 1 2 2z"/><path fill="#db4437" clip-path="url(#a)" d="M560 298h-11V90c0-1.1.9-2 2-2h7a2 2 0 0 1 2 2z"/><path clip-path="url(#a)" d="M576 298h-11V90c0-1.1.9-2 2-2h7a2 2 0 0 1 2 2z"/><path fill="#db4437" clip-path="url(#a)" d="M576 298h-11V90c0-1.1.9-2 2-2h7a2 2 0 0 1 2 2z"/><path fill="#000" d="M33 318.2q0-1.5.4-2.4.3-1 .9-1.5.6-.5 1.5-.5.7 0 1.3.3.5.3.8.8.4.5.6 1.3l.1 2q0 1.5-.3 2.5-.3.9-.9 1.4-.6.5-1.6.5-1.2 0-2-.9-.8-1-.8-3.5zm1.1 0q0 2.1.5 2.8.5.7 1.2.7.8 0 1.3-.7t.5-2.8q0-2.1-.5-2.8-.5-.7-1.3-.7-.7 0-1.1.6-.6.8-.6 3zm6.2-2.3q0-.9.4-1.5.5-.7 1.3-.7.9 0 1.4.6.5.6.5 1.7 0 1-.5 1.7-.6.5-1.3.5-.8 0-1.3-.5-.5-.6-.5-1.8zm1.8-1.5q-.4 0-.7.4-.2.3-.2 1.2 0 .9.2 1.2.3.3.7.3.4 0 .6-.3.3-.4.3-1.3 0-.8-.3-1.1-.2-.4-.6-.4zm0 8.4l4.7-9h.8l-4.6 9h-1zm3.7-2.4q0-.9.5-1.5.4-.7 1.3-.7.8 0 1.4.6.5.6.5 1.7 0 1-.6 1.7-.5.6-1.3.6t-1.3-.6q-.5-.6-.5-1.8zm1.8-1.4q-.4 0-.6.3-.3.3-.3 1.2 0 .9.3 1.2.3.3.6.3.4 0 .7-.3.3-.3.3-1.3 0-.8-.3-1.1-.3-.4-.7-.4zM31.6 263.9v1h-5.7l.1-.7.7-1.2 1.4-1.3q1.4-1.1 1.9-1.8t.5-1.3q0-.6-.4-1-.5-.4-1.2-.4-.8 0-1.2.4-.5.5-.5 1.3l-1-.1q0-1.3.7-1.9.8-.6 2-.6t2 .7q.7.7.7 1.7l-.2 1q-.2.5-.7 1l-1.6 1.5-1.3 1.1-.4.6h4.2zm1.4-1.2l1.2-.1q0 .8.5 1.2.5.4 1.1.4.8 0 1.3-.6t.5-1.5q0-1-.5-1.4-.5-.6-1.3-.6-.5 0-1 .3l-.6.6-1-.2.9-4.4h4.2v1H35l-.4 2.4q.7-.6 1.6-.6 1 0 1.9.8.7.8.7 2t-.6 2q-.9 1-2.3 1-1.2 0-2-.6-.6-.7-.8-1.7zm7.3-4.3q0-1 .4-1.6.5-.6 1.3-.6.9 0 1.4.6.5.5.5 1.6t-.5 1.7q-.6.6-1.3.6-.8 0-1.3-.6t-.5-1.7zm1.8-1.5q-.4 0-.7.3-.2.4-.2 1.3 0 .8.2 1.2.3.3.7.3.4 0 .6-.4.3-.3.3-1.2 0-.8-.3-1.2-.2-.3-.6-.3zm0 8.3l4.7-9h.8l-4.6 9h-1zm3.7-2.3q0-1 .5-1.6.4-.6 1.3-.6.8 0 1.4.6.5.5.5 1.7 0 1-.6 1.6-.5.6-1.3.6t-1.3-.6q-.5-.5-.5-1.7zm1.8-1.5q-.4 0-.6.4-.3.3-.3 1.2 0 .8.3 1.2.3.3.6.3.4 0 .7-.3.3-.4.3-1.3 0-.8-.3-1.1-.3-.4-.7-.4zM26 205.1h1.2q0 .7.5 1.1.5.4 1.1.4.8 0 1.3-.5.5-.6.5-1.5 0-1-.5-1.5t-1.3-.5l-1 .2-.6.6-1-.1.9-4.4h4.2v1H28l-.4 2.3q.7-.5 1.6-.5 1 0 1.9.7.7.8.7 2t-.6 2q-.9 1.1-2.3 1.1-1.2 0-2-.6-.6-.7-.8-1.8zm7-2q0-1.5.4-2.4.3-1 .9-1.5.6-.5 1.5-.5.7 0 1.3.3.5.3.8.8.4.6.6 1.3l.1 2q0 1.5-.3 2.5-.3.9-.9 1.4-.6.5-1.6.5-1.2 0-2-.9-.8-1-.8-3.5zm1.1 0q0 2.1.5 2.8.5.7 1.2.7.8 0 1.3-.7t.5-2.8q0-2-.5-2.8-.5-.7-1.3-.7-.7 0-1.1.6-.6.8-.6 3zm6.2-2.3q0-.9.4-1.5.5-.7 1.3-.7.9 0 1.4.6.5.6.5 1.7 0 1-.5 1.7-.6.6-1.3.6-.8 0-1.3-.6t-.5-1.8zm1.8-1.4q-.4 0-.7.3-.2.3-.2 1.2 0 .9.2 1.2.3.3.7.3.4 0 .6-.3.3-.3.3-1.2 0-.9-.3-1.2-.2-.3-.6-.3zm0 8.3l4.7-9h.8l-4.6 9h-1zm3.7-2.3q0-1 .5-1.6.4-.7 1.3-.7.8 0 1.4.6.5.6.5 1.7t-.6 1.7q-.5.6-1.3.6t-1.3-.6q-.5-.6-.5-1.7zm1.8-1.5q-.4 0-.6.3-.3.4-.3 1.3 0 .8.3 1.1.3.4.6.4.4 0 .7-.4.3-.3.3-1.2 0-.9-.3-1.2-.3-.3-.7-.3zM26.1 142.4v-1h5.6v.8q-.8.8-1.6 2.3-.8 1.4-1.3 3-.3 1-.4 2.3h-1q0-1 .3-2.4.4-1.5 1.1-2.8.7-1.3 1.5-2.2h-4.2zm7 5.2l1-.1q.2.8.6 1.2.5.4 1.1.4.8 0 1.3-.6t.5-1.5q0-.9-.5-1.4-.5-.5-1.3-.5l-1 .2-.6.6-1-.1.9-4.4h4.2v1H35l-.4 2.3q.7-.6 1.6-.6 1 0 1.9.8.7.8.7 2t-.6 2q-.9 1-2.3 1-1.2 0-2-.6-.6-.6-.8-1.7zm7.2-4.3q0-1 .4-1.6.5-.6 1.3-.6.9 0 1.4.6.5.5.5 1.7 0 1-.5 1.6-.6.6-1.3.6-.8 0-1.3-.6-.5-.5-.5-1.7zm1.8-1.5q-.4 0-.7.4-.2.3-.2 1.2 0 .8.2 1.2.3.3.7.3.4 0 .6-.3.3-.4.3-1.3 0-.8-.3-1.1-.2-.4-.6-.4zm0 8.3l4.7-9h.8l-4.6 9h-1zm3.7-2.3q0-1 .5-1.6.4-.6 1.3-.6.8 0 1.4.6.5.5.5 1.7 0 1-.6 1.7-.5.5-1.3.5t-1.3-.5q-.5-.6-.5-1.8zm1.8-1.5q-.4 0-.6.4-.3.3-.3 1.2 0 .8.3 1.2.3.3.6.3.4 0 .7-.3.3-.4.3-1.3 0-.8-.3-1.1-.3-.4-.7-.4zM23 92.3h-1v-6.7l-1 .7-1.1.5v-1q.8-.4 1.5-1t1-1.1h.6v8.6zm3-4.3q0-1.5.4-2.4.3-1 .9-1.4.6-.5 1.5-.5.7 0 1.3.2.5.3.8.9.4.5.6 1.2l.1 2q0 1.6-.3 2.5-.3 1-.9 1.4-.6.5-1.6.5-1.2 0-2-.9-.8-1-.8-3.5zm1.1 0q0 2.2.5 2.9.5.7 1.2.7.8 0 1.3-.7t.5-2.9q0-2-.5-2.8-.5-.7-1.3-.7-.7 0-1.1.6-.6.8-.6 3zm6 0q0-1.5.3-2.4.3-1 .9-1.4.6-.5 1.5-.5.7 0 1.3.2.5.3.8.9.4.5.6 1.2l.1 2q0 1.6-.3 2.5-.3 1-.9 1.4-.6.5-1.6.5-1.2 0-2-.9-.8-1-.8-3.5zm1 0q0 2.2.5 2.9.5.7 1.2.7.8 0 1.3-.7t.5-2.9q0-2-.5-2.8-.5-.7-1.3-.7-.7 0-1.1.6-.6.8-.6 3zm6.2-2.2q0-1 .4-1.6.5-.7 1.3-.7.9 0 1.4.6.5.6.5 1.7t-.5 1.7q-.6.6-1.3.6-.8 0-1.3-.6t-.5-1.7zm1.8-1.5q-.4 0-.7.3-.2.4-.2 1.3 0 .8.2 1.1.3.4.7.4.4 0 .6-.4.3-.3.3-1.2 0-.9-.3-1.2-.2-.3-.6-.3zm0 8.3l4.7-9h.8l-4.6 9h-1zm3.7-2.3q0-1 .5-1.6.4-.6 1.3-.6.8 0 1.4.5.5.6.5 1.7t-.6 1.7q-.5.6-1.3.6t-1.3-.6q-.5-.6-.5-1.7zm1.8-1.5q-.4 0-.6.3-.3.4-.3 1.3 0 .8.3 1.1.3.4.6.4.4 0 .7-.4.3-.3.3-1.2 0-.8-.3-1.2-.3-.3-.7-.3zM70.5 346.4h1v5.7l-.7-.1-1.2-.7-1.3-1.4q-1.1-1.4-1.8-1.9t-1.3-.5q-.6 0-1 .4-.4.5-.4 1.2 0 .8.4 1.2.5.5 1.3.5l-.1 1q-1.3 0-1.9-.7-.6-.8-.6-2t.7-2q.7-.7 1.7-.7l1 .2q.5.2 1 .7l1.5 1.6 1.1 1.3.6.4v-4.2zm-3.2-1.4q-1.6 0-2.5-.4-1-.3-1.4-.9-.5-.6-.5-1.5 0-.7.3-1.3.2-.5.8-.8.5-.4 1.2-.6l2-.1q1.6 0 2.5.3 1 .3 1.4.9.5.6.5 1.6 0 1.2-.8 2-1.1.8-3.5.8zm0-1.1q2 0 2.8-.5.7-.5.7-1.2 0-.8-.7-1.3t-2.8-.5q-2.2 0-2.8.5-.7.5-.7 1.3 0 .7.6 1.1.7.6 2.9.6zm4.2-10v1.1h-6.7l.7 1 .5 1.1h-1q-.4-.8-1-1.5t-1.1-1v-.6h8.6zm-4.2-3q-1.6 0-2.5-.3-1-.3-1.4-.9-.5-.6-.5-1.5 0-.7.3-1.3.2-.5.8-.8.5-.4 1.2-.6l2-.1q1.6 0 2.5.3 1 .3 1.4.9.5.6.5 1.6 0 1.2-.8 2-1.1.8-3.5.8zm0-1q2 0 2.8-.5.7-.5.7-1.2 0-.8-.7-1.3t-2.8-.5q-2.2 0-2.8.5-.7.5-.7 1.3 0 .7.6 1.1.7.6 2.9.6zM86.7 346.4h1v5.7l-.7-.1-1.1-.7-1.3-1.4q-1.2-1.4-1.9-1.9-.6-.5-1.2-.5-.7 0-1 .4-.5.5-.5 1.2 0 .8.4 1.2.5.5 1.3.5l-.1 1q-1.2 0-1.9-.7-.6-.8-.6-2t.7-2q.7-.7 1.7-.7l1 .2q.5.2 1 .7l1.6 1.6 1 1.3.6.4v-4.2zm-3.2-1.5q-1.5 0-2.5-.3-.9-.3-1.4-.9-.5-.6-.5-1.5 0-.7.3-1.3.3-.5.8-.8.5-.4 1.3-.6l2-.1q1.5 0 2.4.3 1 .3 1.5.9.5.6.5 1.6 0 1.2-1 2-1 .7-3.4.7zm0-1q2.1 0 2.8-.5.7-.5.7-1.2 0-.8-.7-1.3t-2.8-.5q-2.1 0-2.8.5-.7.5-.7 1.3 0 .7.6 1.1.8.6 2.9.6zm4.2-10v1.1H81l.7 1 .6 1.1h-1l-1-1.5q-.6-.7-1.2-1v-.6h8.6zm0-7v1.1H81l.7 1 .6 1.1h-1l-1-1.5q-.6-.7-1.2-1v-.6h8.6zM103 346.4h1v5.7l-.8-.1-1.1-.7-1.3-1.4L99 348q-.7-.5-1.3-.5-.6 0-1 .4-.5.5-.5 1.2 0 .8.5 1.2.4.5 1.2.5v1q-1.3 0-2-.7-.6-.8-.6-2t.7-2q.7-.7 1.7-.7l1 .2q.5.2 1 .7l1.6 1.6 1 1.3.6.4v-4.2zm-3.3-1.4q-1.5 0-2.4-.4-1-.3-1.5-.9-.5-.6-.5-1.5 0-.7.3-1.3.3-.5.8-.8.5-.4 1.3-.6l2-.1q1.5 0 2.5.3.9.3 1.4.9.5.6.5 1.6 0 1.2-.9 2-1 .8-3.5.8zm0-1.1q2.1 0 2.8-.5.7-.5.7-1.2 0-.8-.7-1.3t-2.8-.5q-2.1 0-2.8.5-.7.5-.7 1.3 0 .7.6 1.1.8.6 3 .6zm4.3-10v1.1h-6.8l.8 1 .5 1.1h-1q-.4-.8-1-1.5t-1.2-1v-.6h8.7zm-1-8.5h1v5.7l-.8-.1-1.1-.7-1.3-1.4L99 327q-.7-.5-1.3-.5-.6 0-1 .4-.5.5-.5 1.2 0 .8.5 1.2.4.5 1.2.5v1q-1.3 0-2-.7-.6-.8-.6-2t.7-2q.7-.7 1.7-.7l1 .2q.5.2 1 .7l1.6 1.6 1 1.3.6.4v-4.2zM119.2 346.4h1v5.7l-.8-.1-1.1-.7-1.3-1.4q-1.1-1.4-1.8-1.9t-1.3-.5q-.6 0-1 .4-.5.5-.5 1.2 0 .8.5 1.2.4.5 1.2.5v1q-1.3 0-2-.7-.5-.8-.5-2t.6-2q.7-.7 1.7-.7.6 0 1 .2l1.1.7 1.5 1.6 1.1 1.3.6.4v-4.2zm-3.3-1.5q-1.5 0-2.4-.3-1-.3-1.4-.9-.5-.6-.5-1.5 0-.7.2-1.3.3-.5.8-.8.6-.4 1.3-.6l2-.1q1.6 0 2.5.3.9.3 1.4.9.5.6.5 1.6 0 1.2-.9 2-1 .7-3.5.7zm0-1q2.2 0 2.9-.5.7-.5.7-1.2 0-.8-.7-1.3t-2.9-.5q-2 0-2.8.5-.7.5-.7 1.3 0 .7.6 1.1.8.6 3 .6zm4.3-10v1.1h-6.7l.7 1 .5 1.1h-1q-.4-.8-1-1.5t-1.1-1v-.6h8.6zm-2.3-3l-.1-1q.9-.2 1.3-.6.4-.5.4-1 0-.8-.6-1.4-.5-.5-1.2-.5-.8 0-1.2.5-.5.5-.5 1.2l.1.8-1-.2v-.1q0-.7-.2-1.2-.4-.6-1.1-.6-.6 0-1 .4t-.4 1q0 .6.4 1 .4.5 1.2.6l-.2 1q-1-.1-1.7-.8-.5-.7-.5-1.7 0-.7.3-1.3.3-.6.8-1 .5-.3 1-.3.6 0 1.1.3.5.3.7 1 .2-.8.8-1.3.5-.4 1.3-.4 1.2 0 2 .9.7.8.7 2 0 1.1-.6 1.9-.7.7-1.8.8zM135.4 346.4h1v5.7l-.7-.1-1.2-.7-1.3-1.4q-1.1-1.4-1.8-1.9t-1.3-.5q-.6 0-1 .4-.4.5-.4 1.2 0 .8.4 1.2.5.5 1.3.5l-.1 1q-1.3 0-1.9-.7-.6-.8-.6-2t.7-2q.7-.7 1.7-.7l1 .2q.5.2 1 .7l1.5 1.6 1.1 1.3.6.4v-4.2zm-3.2-1.4q-1.6 0-2.5-.4-1-.3-1.4-.9-.5-.6-.5-1.5 0-.7.3-1.3.2-.5.8-.8.5-.4 1.2-.6l2-.1q1.6 0 2.5.3 1 .3 1.4.9.5.6.5 1.6 0 1.2-.8 2-1.1.8-3.5.8zm0-1.1q2 0 2.8-.5.7-.5.7-1.2 0-.8-.7-1.3t-2.8-.5q-2.2 0-2.8.5-.7.5-.7 1.3 0 .7.6 1.1.7.6 2.9.6zm4.2-10v1.1h-6.7l.7 1 .6 1.1h-1l-1-1.5-1.2-1v-.6h8.6zm0-6.3h-2v3.7h-1l-5.6-4v-.8h5.6v-1.1h1v1.1h2v1zm-3 0h-3.9l3.9 2.7v-2.7zM151.6 346.4h1v5.7l-.7-.1-1.1-.7-1.3-1.4q-1.2-1.4-1.9-1.9-.6-.5-1.2-.5-.7 0-1 .4-.5.5-.5 1.2 0 .8.4 1.2.5.5 1.3.5l-.1 1q-1.2 0-1.9-.7-.6-.8-.6-2t.7-2q.7-.7 1.7-.7l1 .2q.5.2 1 .7l1.6 1.6 1 1.3.6.4v-4.2zm-3.2-1.4q-1.5 0-2.5-.4-.9-.3-1.4-.9-.5-.6-.5-1.5 0-.7.3-1.3.3-.5.8-.8.5-.4 1.3-.6l2-.1q1.5 0 2.4.3 1 .3 1.5.9.5.6.5 1.6 0 1.2-1 2t-3.4.8zm0-1.1q2.1 0 2.8-.5.7-.5.7-1.2 0-.8-.7-1.3t-2.8-.5q-2.1 0-2.8.5-.7.5-.7 1.3 0 .7.6 1.1.8.6 2.9.6zm4.2-10v1.1H146l.7 1 .6 1.1h-1l-1-1.5q-.6-.7-1.2-1v-.6h8.6zm-2.2-3l-.1-1q.8-.2 1.2-.6.4-.5.4-1.1 0-.8-.6-1.3-.5-.5-1.5-.5-.9 0-1.4.5-.5.5-.5 1.3l.2 1 .6.6-.1 1-4.4-.9v-4.2h1v3.4l2.3.4q-.6-.7-.6-1.6 0-1 .8-1.9.8-.7 2-.7t2 .6q1 .9 1 2.3 0 1.2-.6 2-.6.6-1.7.8zM167.8 346.4h1v5.7l-.7-.1-1.1-.7-1.3-1.4-1.8-1.9q-.7-.5-1.3-.5-.6 0-1 .4-.5.5-.5 1.2 0 .8.5 1.2.4.5 1.2.5v1q-1.3 0-2-.7-.6-.8-.6-2t.7-2q.7-.7 1.7-.7l1 .2q.5.2 1 .7l1.6 1.6 1 1.3.6.4v-4.2zm-3.2-1.4q-1.5 0-2.4-.4-1-.3-1.5-.9-.5-.6-.5-1.5 0-.7.3-1.3.3-.5.8-.8.5-.4 1.3-.6l2-.1q1.5 0 2.5.3.9.3 1.4.9.5.6.5 1.6 0 1.2-.9 2-1 .8-3.5.8zm0-1.1q2.1 0 2.8-.5.7-.5.7-1.2 0-.8-.7-1.3t-2.8-.5q-2.1 0-2.8.5-.7.5-.7 1.3 0 .7.6 1.1.8.6 3 .6zm4.3-10v1.1H162l.8 1 .5 1.1h-1q-.4-.8-1-1.5t-1.2-1v-.6h8.7zm-6.5-8.4v1l-.9.4q-.4.5-.4 1 0 .6.3 1 .3.5 1 .8l2 .3q-.6-.4-.8-1-.3-.5-.3-1.1 0-1 .8-1.8.7-.8 2-.8.8 0 1.5.4.7.3 1 1 .4.5.4 1.3 0 1.3-1 2.2-1 .8-3.2.8-2.5 0-3.6-1-1-.7-1-2 0-1.1.6-1.7.6-.7 1.6-.8zm3.7 4.3l1-.2q.5-.3.8-.7.2-.4.2-.9 0-.6-.5-1.1-.5-.5-1.5-.5-.9 0-1.4.5-.5.5-.5 1.2t.5 1.2q.5.5 1.4.5zM184 346.4h1v5.7l-.7-.1-1-.7q-.7-.5-1.4-1.4-1.1-1.4-1.8-1.9t-1.3-.5q-.6 0-1 .4-.5.5-.5 1.2 0 .8.5 1.2.4.5 1.3.5l-.2 1q-1.2 0-1.8-.7-.6-.8-.6-2t.6-2q.7-.7 1.7-.7.6 0 1 .2l1.1.7 1.5 1.6 1.1 1.3.6.4v-4.2zm-3.2-1.4q-1.5 0-2.4-.4-1-.3-1.4-.9-.5-.6-.5-1.5 0-.7.2-1.3.3-.5.9-.8.5-.4 1.2-.6l2-.1q1.6 0 2.5.3 1 .3 1.4.9.5.6.5 1.6 0 1.2-.9 2-1 .8-3.5.8zm0-1.1q2.2 0 2.9-.5.7-.5.7-1.2 0-.8-.7-1.3t-2.9-.5q-2 0-2.8.5-.7.5-.7 1.3 0 .7.6 1.1.8.6 3 .6zm4.3-10v1.1h-6.7l.7 1 .5 1.1h-1q-.4-.8-1-1.5t-1.1-1v-.6h8.6zm-7.5-3h-1v-5.6h.8q.9.8 2.4 1.6 1.4.8 3 1.3 1 .3 2.3.4v1q-1 0-2.5-.3-1.4-.4-2.7-1.1-1.4-.7-2.3-1.5v4.2zM200.3 346.4h1v5.7l-.7-.1-1.2-.7-1.3-1.4q-1.1-1.4-1.8-1.9t-1.3-.5q-.6 0-1 .4-.4.5-.4 1.2 0 .8.4 1.2.5.5 1.3.5l-.1 1q-1.3 0-1.9-.7-.6-.8-.6-2t.7-2q.7-.7 1.7-.7l1 .2q.5.2 1 .7l1.5 1.6 1.1 1.3.6.4v-4.2zm-3.2-1.5q-1.6 0-2.5-.3-1-.3-1.4-.9-.5-.6-.5-1.5 0-.7.3-1.3.2-.5.8-.8.5-.4 1.2-.6l2-.1q1.6 0 2.5.3 1 .3 1.4.9.5.6.5 1.6 0 1.2-.8 2-1.1.7-3.5.7zm0-1q2 0 2.8-.5.7-.5.7-1.2 0-.8-.7-1.3t-2.8-.5q-2.2 0-2.8.5-.7.5-.7 1.3 0 .7.6 1.1.7.6 2.9.6zm4.2-10v1.1h-6.7l.7 1 .6 1.1h-1l-1-1.5-1.2-1v-.6h8.6zm-4.6-4.6q-.3.7-.7 1-.5.3-1.1.3-1 0-1.6-.7-.6-.6-.6-1.7 0-1.2.6-1.9.7-.6 1.6-.6.6 0 1 .3.5.3.8 1 .2-.9.8-1.3.6-.4 1.4-.4 1 0 1.8.8.7.8.7 2 0 1.3-.7 2-.8.9-1.9.9-.8 0-1.4-.5-.5-.4-.7-1.2zm-1.8.2q.6 0 1-.3.3-.5.3-1 0-.7-.3-1-.4-.5-1-.5t-1 .4q-.4.4-.4 1t.4 1q.4.4 1 .4zm4 .4l.8-.2.7-.7q.2-.4.2-.9 0-.7-.5-1.2t-1.2-.5q-.8 0-1.3.5t-.5 1.3q0 .7.5 1.2t1.2.5zM216.5 346.4h1v5.7l-.7-.1-1.1-.7-1.3-1.4q-1.2-1.4-1.9-1.9-.6-.5-1.2-.5-.7 0-1 .4-.5.5-.5 1.2 0 .8.4 1.2.5.5 1.3.5l-.1 1q-1.2 0-1.9-.7-.6-.8-.6-2t.7-2q.7-.7 1.7-.7l1 .2q.5.2 1 .7l1.6 1.6 1 1.3.6.4v-4.2zm-3.2-1.4q-1.5 0-2.5-.4-.9-.3-1.4-.9-.5-.6-.5-1.5 0-.7.3-1.3.3-.5.8-.8.5-.4 1.3-.6l2-.1q1.5 0 2.4.3 1 .3 1.5.9.5.6.5 1.6 0 1.2-1 2t-3.4.8zm0-1.1q2.1 0 2.8-.5.7-.5.7-1.2 0-.8-.7-1.3t-2.8-.5q-2.1 0-2.8.5-.7.5-.7 1.3 0 .7.6 1.1.8.6 2.9.6zm4.2-10v1.1h-6.7l.7 1 .6 1.1h-1l-1-1.5q-.6-.7-1.2-1v-.6h8.6zm-2-3.1v-1q.7-.1 1-.5.3-.4.3-1l-.2-.8q-.2-.4-.6-.6l-1-.4-1.3-.1h-.2q.5.3.8.8.3.6.3 1.2 0 1-.7 1.8-.8.8-2 .8-1.4 0-2.2-.8-.8-.8-.8-2 0-.8.5-1.5.4-.7 1.3-1 .8-.4 2.4-.4 1.6 0 2.6.4 1 .3 1.5 1t.5 1.7q0 1-.6 1.6-.5.7-1.6.8zm-3.7-4.3q-1 0-1.5.5-.5.4-.5 1.1 0 .7.6 1.3.5.5 1.4.5.9 0 1.4-.5.5-.5.5-1.2 0-.8-.5-1.3-.5-.4-1.4-.4zM232.7 346.4h1v5.7l-.7-.1-1.1-.7-1.3-1.4-1.8-1.9q-.7-.5-1.3-.5-.6 0-1 .4-.5.5-.5 1.2 0 .8.5 1.2.4.5 1.2.5v1q-1.3 0-2-.7-.6-.8-.6-2t.7-2q.7-.7 1.7-.7l1 .2q.5.2 1 .7l1.6 1.6 1 1.3.6.4v-4.2zm-3.2-1.5q-1.5 0-2.4-.3-1-.3-1.5-.9-.5-.6-.5-1.5 0-.7.3-1.3.3-.5.8-.8.5-.4 1.3-.6l2-.1q1.5 0 2.5.3.9.3 1.4.9.5.6.5 1.6 0 1.2-.9 2-1 .7-3.5.7zm0-1q2.1 0 2.8-.5.7-.5.7-1.2 0-.8-.7-1.3t-2.8-.5q-2.1 0-2.8.5-.7.5-.7 1.3 0 .7.6 1.1.8.6 3 .6zm3.2-11.5h1v5.7l-.7-.1-1.1-.7-1.3-1.4-1.8-1.9q-.7-.5-1.3-.5-.6 0-1 .4-.5.5-.5 1.2 0 .8.5 1.2.4.5 1.2.5v1q-1.3 0-2-.7-.6-.8-.6-2t.7-2q.7-.7 1.7-.7l1 .2q.5.2 1 .7l1.6 1.6 1 1.3.6.4v-4.2zm-3.2-1.5q-1.5 0-2.4-.3-1-.3-1.5-.9-.5-.6-.5-1.5 0-.7.3-1.3.3-.5.8-.8.5-.4 1.3-.6l2-.1q1.5 0 2.5.3.9.3 1.4.9.5.6.5 1.6 0 1.2-.9 2-1 .7-3.5.7zm0-1q2.1 0 2.8-.5.7-.5.7-1.2 0-.8-.7-1.3t-2.8-.5q-2.1 0-2.8.5-.7.5-.7 1.3 0 .7.6 1.1.8.6 3 .6zM249 346.4h1v5.7l-.7-.1-1.2-.7-1.3-1.4q-1.1-1.4-1.8-1.9t-1.3-.5q-.6 0-1 .4-.5.5-.5 1.2 0 .8.5 1.2.4.5 1.3.5l-.2 1q-1.2 0-1.8-.7-.6-.8-.6-2t.6-2q.7-.7 1.8-.7l1 .2q.5.2 1 .7l1.5 1.6 1.1 1.3.6.4v-4.2zm-3.2-1.5q-1.6 0-2.5-.3-1-.3-1.4-.9-.5-.6-.5-1.5 0-.7.2-1.3.3-.5.9-.8.5-.4 1.2-.6l2-.1q1.6 0 2.5.3 1 .3 1.4.9.5.6.5 1.6 0 1.2-.9 2-1 .7-3.4.7zm0-1q2 0 2.8-.5.7-.5.7-1.2 0-.8-.7-1.3t-2.8-.5q-2.2 0-2.9.5-.7.5-.7 1.3 0 .7.6 1.1.8.6 3 .6zm3.2-11.5h1v5.7l-.7-.1-1.2-.7-1.3-1.4q-1.1-1.4-1.8-1.9t-1.3-.5q-.6 0-1 .4-.5.5-.5 1.2 0 .8.5 1.2.4.5 1.3.5l-.2 1q-1.2 0-1.8-.7-.6-.8-.6-2t.6-2q.7-.7 1.8-.7l1 .2q.5.2 1 .7l1.5 1.6 1.1 1.3.6.4v-4.2zm1-5.4v1h-6.7l.7 1 .5 1.1h-1q-.4-.8-1-1.5t-1.1-1v-.6h8.6zM265.2 346.4h1v5.7l-.7-.1-1.2-.7-1.3-1.4q-1.1-1.4-1.8-1.9t-1.3-.5q-.6 0-1 .4-.4.5-.4 1.2 0 .8.4 1.2.5.5 1.3.5l-.1 1q-1.2 0-1.9-.7-.6-.8-.6-2t.7-2q.7-.7 1.7-.7l1 .2q.5.2 1 .7l1.5 1.6 1.1 1.3.6.4v-4.2zM262 345q-1.6 0-2.5-.4-1-.3-1.4-.9-.5-.6-.5-1.5 0-.7.3-1.3.2-.5.8-.8.5-.4 1.2-.6l2-.1q1.6 0 2.5.3 1 .3 1.5.9.5.6.5 1.6 0 1.2-1 2t-3.4.8zm0-1.1q2 0 2.8-.5.7-.5.7-1.2 0-.8-.7-1.3t-2.8-.5q-2.1 0-2.8.5-.7.5-.7 1.3 0 .7.6 1.1.8.6 2.9.6zm3.2-11.5h1v5.7l-.7-.1-1.2-.7-1.3-1.4q-1.1-1.4-1.8-1.9t-1.3-.5q-.6 0-1 .4-.4.5-.4 1.2 0 .8.4 1.2.5.5 1.3.5l-.1 1q-1.2 0-1.9-.7-.6-.8-.6-2t.7-2q.7-.7 1.7-.7l1 .2q.5.2 1 .7l1.5 1.6 1.1 1.3.6.4v-4.2zm0-7h1v5.7l-.7-.1-1.2-.7-1.3-1.4q-1.1-1.4-1.8-1.9t-1.3-.5q-.6 0-1 .4-.4.5-.4 1.2 0 .8.4 1.2.5.5 1.3.5l-.1 1q-1.2 0-1.9-.7-.6-.8-.6-2t.7-2q.7-.7 1.7-.7l1 .2q.5.2 1 .7l1.5 1.6 1.1 1.3.6.4v-4.2zM281.4 346.4h1v5.7l-.7-.1-1.1-.7-1.3-1.4q-1.2-1.4-1.9-1.9-.6-.5-1.2-.5-.7 0-1 .4-.5.5-.5 1.2 0 .8.4 1.2.5.5 1.3.5l-.1 1q-1.2 0-1.8-.7-.7-.8-.7-2t.7-2q.7-.7 1.7-.7l1 .2q.5.2 1 .7l1.6 1.6 1 1.3.6.4v-4.2zm-3.2-1.5q-1.5 0-2.5-.3-.9-.3-1.4-.9-.5-.6-.5-1.5 0-.7.3-1.3.3-.5.8-.8.5-.4 1.3-.6l2-.1q1.5 0 2.4.3 1 .3 1.5.9.5.6.5 1.6 0 1.2-1 2-1 .7-3.4.7zm0-1q2.1 0 2.8-.5.7-.5.7-1.2 0-.8-.7-1.3t-2.8-.5q-2.1 0-2.8.5-.7.5-.7 1.3 0 .7.6 1.1.8.6 2.9.6zm3.2-11.5h1v5.7l-.7-.1-1.1-.7-1.3-1.4q-1.2-1.4-1.9-1.9-.6-.5-1.2-.5-.7 0-1 .4-.5.5-.5 1.2 0 .8.4 1.2.5.5 1.3.5l-.1 1q-1.2 0-1.8-.7-.7-.8-.7-2t.7-2q.7-.7 1.7-.7l1 .2q.5.2 1 .7l1.6 1.6 1 1.3.6.4v-4.2zm-1.2-1.5l-.2-1q1-.2 1.3-.6.4-.5.4-1 0-.8-.5-1.4-.5-.5-1.3-.5-.7 0-1.2.5t-.5 1.2l.2.8-1-.2v-.1q0-.7-.3-1.2-.4-.6-1-.6-.7 0-1 .4-.4.4-.4 1t.4 1q.4.5 1.1.6l-.2 1q-1-.1-1.6-.8-.6-.7-.6-1.7 0-.7.3-1.3.3-.6.8-1 .6-.3 1.1-.3.6 0 1 .3.5.3.8 1 .2-.8.7-1.3.6-.4 1.4-.4 1.1 0 2 .9.7.8.7 2 0 1.1-.7 1.9-.7.7-1.7.8zM297.6 346.4h1v5.7l-.7-.1-1.1-.7-1.3-1.4-1.8-1.9q-.7-.5-1.3-.5-.6 0-1 .4-.5.5-.5 1.2 0 .8.5 1.2.4.5 1.2.5v1q-1.3 0-2-.7-.6-.8-.6-2t.7-2q.7-.7 1.7-.7l1 .2q.5.2 1 .7l1.6 1.6 1 1.3.6.4v-4.2zm-3.2-1.5q-1.5 0-2.4-.3-1-.3-1.5-.9-.5-.6-.5-1.5 0-.7.3-1.3.3-.5.8-.8.5-.4 1.3-.6l2-.1q1.5 0 2.5.3.9.3 1.4.9.5.6.5 1.6 0 1.2-.9 2-1 .7-3.5.7zm0-1q2.1 0 2.8-.5.7-.5.7-1.2 0-.8-.7-1.3t-2.8-.5q-2.1 0-2.8.5-.7.5-.7 1.3 0 .7.6 1.1.8.6 3 .6zm3.2-11.5h1v5.7l-.7-.1-1.1-.7-1.3-1.4-1.8-1.9q-.7-.5-1.3-.5-.6 0-1 .4-.5.5-.5 1.2 0 .8.5 1.2.4.5 1.2.5v1q-1.3 0-2-.7-.6-.8-.6-2t.7-2q.7-.7 1.7-.7l1 .2q.5.2 1 .7l1.6 1.6 1 1.3.6.4v-4.2zm1-4.8h-2v3.7h-1l-5.5-4v-.8h5.5v-1.1h1v1.1h2v1zm-3 0h-3.8l3.8 2.7v-2.7zM313.9 346.4h1v5.7l-.7-.1-1.2-.7-1.3-1.4q-1.1-1.4-1.8-1.9t-1.3-.5q-.6 0-1 .4-.5.5-.5 1.2 0 .8.5 1.2.4.5 1.3.5l-.2 1q-1.2 0-1.8-.7-.6-.8-.6-2t.6-2q.7-.7 1.8-.7l1 .2q.5.2 1 .7l1.5 1.6 1.1 1.3.6.4v-4.2zm-3.2-1.4q-1.6 0-2.5-.4-1-.3-1.4-.9-.5-.6-.5-1.5 0-.7.2-1.3.3-.5.9-.8.5-.4 1.2-.6l2-.1q1.6 0 2.5.3 1 .3 1.4.9.5.6.5 1.6 0 1.2-.9 2-1 .8-3.4.8zm0-1.1q2 0 2.8-.5.7-.5.7-1.2 0-.8-.7-1.3t-2.8-.5q-2.2 0-2.9.5-.7.5-.7 1.3 0 .7.6 1.1.8.6 3 .6zm3.2-11.5h1v5.7l-.7-.1-1.2-.7-1.3-1.4q-1.1-1.4-1.8-1.9t-1.3-.5q-.6 0-1 .4-.5.5-.5 1.2 0 .8.5 1.2.4.5 1.3.5l-.2 1q-1.2 0-1.8-.7-.6-.8-.6-2t.6-2q.7-.7 1.8-.7l1 .2q.5.2 1 .7l1.5 1.6 1.1 1.3.6.4v-4.2zm-1.3-1.4v-1.2q.8 0 1.2-.5.4-.5.4-1.1 0-.8-.6-1.3t-1.5-.5q-1 0-1.4.5-.6.5-.6 1.3 0 .5.3 1l.5.6v1l-4.5-.9v-4.2h1v3.4l2.3.4q-.5-.7-.5-1.6 0-1 .8-1.9.7-.7 2-.7 1.1 0 2 .6 1 .9 1 2.3 0 1.2-.6 2-.7.6-1.8.8zM330.1 346.4h1v5.7l-.7-.1-1.2-.7-1.3-1.4q-1.1-1.4-1.8-1.9t-1.3-.5q-.6 0-1 .4-.4.5-.4 1.2 0 .8.4 1.2.5.5 1.3.5l-.1 1q-1.2 0-1.9-.7-.6-.8-.6-2t.7-2q.7-.7 1.7-.7l1 .2q.5.2 1 .7l1.5 1.6 1.1 1.3.6.4v-4.2zm-3.2-1.4q-1.6 0-2.5-.4-1-.3-1.4-.9-.5-.6-.5-1.5 0-.7.3-1.3.3-.5.8-.8.5-.4 1.2-.6l2-.1q1.6 0 2.5.3 1 .3 1.5.9.5.6.5 1.6 0 1.2-1 2t-3.4.8zm0-1.1q2 0 2.8-.5.7-.5.7-1.2 0-.8-.7-1.3t-2.8-.5q-2.1 0-2.8.5-.7.5-.7 1.3 0 .7.6 1.1.8.6 2.9.6zm3.2-11.5h1v5.7l-.7-.1-1.2-.7-1.3-1.4q-1.1-1.4-1.8-1.9t-1.3-.5q-.6 0-1 .4-.4.5-.4 1.2 0 .8.4 1.2.5.5 1.3.5l-.1 1q-1.2 0-1.9-.7-.6-.8-.6-2t.7-2q.7-.7 1.7-.7l1 .2q.5.2 1 .7l1.5 1.6 1.1 1.3.6.4v-4.2zm-5.5-7l.1 1.1-.9.4q-.5.5-.5 1 0 .6.3 1 .4.5 1.1.8l2 .3q-.6-.4-.9-1-.3-.5-.3-1.1 0-1 .8-1.8t2-.8q.8 0 1.5.4.7.3 1 1 .5.5.5 1.3 0 1.3-1 2.2-1 .8-3.2.8-2.5 0-3.6-1-1-.7-1-2 0-1.1.6-1.7.5-.7 1.5-.8zm3.7 4.4q.6 0 1-.2.6-.3.8-.7.3-.4.3-.9 0-.6-.5-1.1-.6-.5-1.5-.5t-1.4.5q-.5.5-.5 1.2t.5 1.2q.5.5 1.3.5zM346.3 346.4h1v5.7l-.7-.1-1.1-.7-1.3-1.4q-1.2-1.4-1.9-1.9-.6-.5-1.2-.5-.7 0-1 .4-.5.5-.5 1.2 0 .8.4 1.2.5.5 1.3.5l-.1 1q-1.2 0-1.8-.7-.7-.8-.7-2t.7-2q.7-.7 1.7-.7l1 .2q.5.2 1 .7l1.6 1.6 1 1.3.6.4v-4.2zm-3.2-1.5q-1.5 0-2.4-.3-1-.3-1.5-.9-.5-.6-.5-1.5 0-.7.3-1.3.3-.5.8-.8.5-.4 1.3-.6l2-.1q1.5 0 2.4.3 1 .3 1.5.9.5.6.5 1.6 0 1.2-1 2-1 .7-3.4.7zm0-1q2.1 0 2.8-.5.7-.5.7-1.2 0-.8-.7-1.3t-2.8-.5q-2.1 0-2.8.5-.7.5-.7 1.3 0 .7.6 1.1.8.6 2.9.6zm3.2-11.5h1v5.7l-.7-.1-1.1-.7-1.3-1.4q-1.2-1.4-1.9-1.9-.6-.5-1.2-.5-.7 0-1 .4-.5.5-.5 1.2 0 .8.4 1.2.5.5 1.3.5l-.1 1q-1.2 0-1.8-.7-.7-.8-.7-2t.7-2q.7-.7 1.7-.7l1 .2q.5.2 1 .7l1.6 1.6 1 1.3.6.4v-4.2zm-6.4-1.5h-1v-5.6h.8q.9.8 2.3 1.6t3 1.3q1 .3 2.3.4v1q-1 0-2.4-.3-1.5-.4-2.8-1.1-1.3-.7-2.2-1.5v4.2zM362.5 346.4h1v5.7l-.7-.1-1.1-.7-1.3-1.4-1.8-1.9q-.7-.5-1.3-.5-.6 0-1 .4-.5.5-.5 1.2 0 .8.5 1.2.4.5 1.2.5v1q-1.3 0-2-.7-.6-.8-.6-2t.7-2q.7-.7 1.7-.7l1 .2q.5.2 1 .7l1.6 1.6 1 1.3.6.4v-4.2zm-3.2-1.4q-1.5 0-2.4-.4-1-.3-1.5-.9-.5-.6-.5-1.5 0-.7.3-1.3.3-.5.8-.8.5-.4 1.3-.6l2-.1q1.5 0 2.5.3.9.3 1.4.9.5.6.5 1.6 0 1.2-.9 2-1 .8-3.5.8zm0-1.1q2.1 0 2.8-.5.7-.5.7-1.2 0-.8-.7-1.3t-2.8-.5q-2.1 0-2.8.5-.7.5-.7 1.3 0 .7.6 1.1.8.6 3 .6zm3.2-11.5h1v5.7l-.7-.1-1.1-.7-1.3-1.4-1.8-1.9q-.7-.5-1.3-.5-.6 0-1 .4-.5.5-.5 1.2 0 .8.5 1.2.4.5 1.2.5v1q-1.3 0-2-.7-.6-.8-.6-2t.7-2q.7-.7 1.7-.7l1 .2q.5.2 1 .7l1.6 1.6 1 1.3.6.4v-4.2zm-3.6-3q-.2.6-.7 1-.4.2-1 .2-1 0-1.6-.7-.7-.6-.7-1.7 0-1.2.7-1.9.7-.6 1.6-.6.6 0 1 .3.5.3.7 1 .3-.9.8-1.3.6-.4 1.4-.4 1.1 0 1.9.8.7.8.7 2 0 1.3-.7 2-.8.9-2 .9-.8 0-1.3-.5-.6-.4-.8-1.2zm-1.8.1q.6 0 1-.3.4-.5.4-1 0-.7-.4-1-.4-.5-1-.5-.5 0-.9.4t-.4 1q0 .6.4 1t1 .4zm4 .4l.9-.2q.4-.3.6-.7.2-.4.2-.9 0-.7-.4-1.2-.5-.5-1.3-.5-.7 0-1.2.5t-.5 1.3q0 .7.5 1.2.4.5 1.2.5zM378.8 346.4h1v5.7l-.7-.1-1.2-.7-1.3-1.4q-1.1-1.4-1.8-1.9t-1.3-.5q-.6 0-1 .4-.5.5-.5 1.2 0 .8.5 1.2.4.5 1.3.5l-.2 1q-1.2 0-1.8-.7-.6-.8-.6-2t.7-2q.6-.7 1.7-.7l1 .2q.5.2 1 .7l1.5 1.6 1.1 1.3.6.4v-4.2zm-3.2-1.4q-1.6 0-2.5-.4-1-.3-1.4-.9-.5-.6-.5-1.5 0-.7.2-1.3.3-.5.9-.8.5-.4 1.2-.6l2-.1q1.6 0 2.5.3 1 .3 1.4.9.5.6.5 1.6 0 1.2-.9 2-1 .8-3.4.8zm0-1.1q2 0 2.8-.5.7-.5.7-1.2 0-.8-.7-1.3t-2.8-.5q-2.2 0-2.9.5-.7.5-.7 1.3 0 .7.6 1.1.8.6 3 .6zm3.2-11.5h1v5.7l-.7-.1-1.2-.7-1.3-1.4q-1.1-1.4-1.8-1.9t-1.3-.5q-.6 0-1 .4-.5.5-.5 1.2 0 .8.5 1.2.4.5 1.3.5l-.2 1q-1.2 0-1.8-.7-.6-.8-.6-2t.7-2q.6-.7 1.7-.7l1 .2q.5.2 1 .7l1.5 1.6 1.1 1.3.6.4v-4.2zm-1-1.6v-1q.6-.1 1-.5.3-.4.3-1l-.2-.8-.6-.6-1-.4-1.3-.1h-.3q.5.3.9.8.3.6.3 1.2 0 1-.8 1.8t-2 .8q-1.3 0-2.1-.8t-.8-2q0-.8.4-1.5.5-.7 1.3-1 .8-.4 2.4-.4 1.7 0 2.6.4 1 .3 1.5 1t.5 1.7q0 1-.5 1.6-.6.7-1.6.8zm-3.8-4.3q-.9 0-1.4.5-.6.4-.6 1.1 0 .7.6 1.3.6.5 1.5.5.8 0 1.3-.5t.5-1.2q0-.8-.5-1.3-.5-.4-1.4-.4zM395 346.4h1v5.7l-.7-.1-1.2-.7-1.3-1.4q-1.1-1.4-1.8-1.9t-1.3-.5q-.6 0-1 .4-.4.5-.4 1.2 0 .8.4 1.2.5.5 1.3.5l-.1 1q-1.2 0-1.9-.7-.6-.8-.6-2t.7-2q.7-.7 1.7-.7l1 .2q.5.2 1 .7l1.5 1.6 1.1 1.3.6.4v-4.2zm-3.2-1.5q-1.6 0-2.5-.3-1-.3-1.4-.9-.5-.6-.5-1.5 0-.7.3-1.3.3-.5.8-.8.5-.4 1.2-.6l2-.1q1.6 0 2.5.3 1 .3 1.5.9.5.6.5 1.6 0 1.2-1 2-1 .7-3.4.7zm0-1q2 0 2.8-.5.7-.5.7-1.2 0-.8-.7-1.3t-2.8-.5q-2.1 0-2.8.5-.7.5-.7 1.3 0 .7.6 1.1.8.6 2.9.6zm2-6l-.2-1q.9-.2 1.3-.6.4-.5.4-1 0-.8-.5-1.4-.5-.5-1.3-.5-.7 0-1.2.5t-.5 1.2l.2.8-1-.2v-.1q0-.7-.3-1.2-.4-.6-1.1-.6-.6 0-1 .4t-.4 1q0 .6.4 1 .4.5 1.2.6l-.2 1q-1-.1-1.6-.8-.6-.7-.6-1.7 0-.7.3-1.3.3-.6.8-1 .5-.3 1.1-.3.6 0 1 .3.5.3.8 1 .1-.8.7-1.3.5-.4 1.4-.4 1.1 0 1.9.9.8.8.8 2 0 1.1-.7 1.9-.7.7-1.8.8zm-2-7q-1.6 0-2.5-.3-1-.3-1.4-.9-.5-.6-.5-1.5 0-.7.3-1.3.3-.5.8-.8.5-.4 1.2-.6l2-.1q1.6 0 2.5.3 1 .3 1.5.9.5.6.5 1.6 0 1.2-1 2-1 .7-3.4.7zm0-1q2 0 2.8-.5.7-.5.7-1.2 0-.8-.7-1.3t-2.8-.5q-2.1 0-2.8.5-.7.5-.7 1.3 0 .7.6 1.1.8.6 2.9.6zM411.2 346.4h1v5.7l-.7-.1-1.1-.7-1.3-1.4q-1.2-1.4-1.9-1.9-.6-.5-1.2-.5t-1 .4q-.5.5-.5 1.2 0 .8.4 1.2.5.5 1.3.5l-.1 1q-1.2 0-1.8-.7-.7-.8-.7-2t.7-2q.7-.7 1.7-.7l1 .2q.5.2 1 .7l1.6 1.6 1 1.3.6.4v-4.2zM408 345q-1.5 0-2.4-.4-1-.3-1.5-.9-.5-.6-.5-1.5 0-.7.3-1.3.3-.5.8-.8.5-.4 1.3-.6l2-.1q1.5 0 2.4.3 1 .3 1.5.9.5.6.5 1.6 0 1.2-1 2t-3.4.8zm0-1.1q2.1 0 2.8-.5.7-.5.7-1.2 0-.8-.7-1.3t-2.8-.5q-2.1 0-2.8.5-.7.5-.7 1.3 0 .7.6 1.1.8.6 3 .6zm2-6l-.2-1q1-.2 1.3-.6.4-.5.4-1 0-.8-.5-1.4-.5-.5-1.3-.5-.7 0-1.2.5-.4.5-.4 1.2v.8l-.9-.2v-.1q0-.7-.3-1.2-.3-.6-1-.6t-1 .4q-.4.4-.4 1t.4 1q.4.5 1.1.6l-.2 1q-1-.1-1.6-.8-.6-.7-.6-1.7 0-.7.3-1.3.3-.6.8-1 .6-.3 1.2-.3.5 0 1 .3.4.3.7 1 .2-.8.7-1.3.6-.4 1.4-.4 1.1 0 2 .9.7.8.7 2 0 1.1-.7 1.9-.7.7-1.7.8zm2.2-11v1.1h-6.7l.8 1 .5 1.1h-1q-.4-.8-1-1.5t-1.2-1v-.6h8.6zM427.5 346.4h1v5.7l-.8-.1-1.1-.7-1.3-1.4-1.8-1.9q-.7-.5-1.3-.5-.6 0-1 .4-.5.5-.5 1.2 0 .8.5 1.2.4.5 1.2.5v1q-1.3 0-2-.7-.6-.8-.6-2t.7-2q.7-.7 1.7-.7l1 .2q.5.2 1 .7l1.6 1.6 1 1.3.7.4v-4.2zm-3.3-1.4q-1.5 0-2.4-.4-1-.3-1.5-.9-.5-.6-.5-1.5 0-.7.3-1.3.3-.5.8-.8.6-.4 1.3-.6l2-.1q1.5 0 2.5.3.9.3 1.4.9.5.6.5 1.6 0 1.2-.9 2-1 .8-3.5.8zm0-1.1q2.1 0 2.8-.5.7-.5.7-1.2 0-.8-.7-1.3t-2.8-.5q-2 0-2.8.5-.7.5-.7 1.3 0 .7.6 1.1.8.6 3 .6zm2-6l-.1-1q.9-.2 1.3-.6.3-.5.3-1 0-.8-.5-1.4-.5-.5-1.2-.5-.8 0-1.2.5-.5.5-.5 1.2l.1.8-1-.2v-.1q0-.7-.3-1.2-.3-.6-1-.6-.6 0-1 .4t-.4 1q0 .6.4 1 .4.5 1.1.6l-.1 1q-1-.1-1.7-.8-.6-.7-.6-1.7 0-.7.4-1.3.3-.6.8-1 .5-.3 1-.3.6 0 1 .3.5.3.8 1 .2-.8.7-1.3.6-.4 1.4-.4 1.2 0 2 .9.7.8.7 2 0 1.1-.6 1.9-.7.7-1.8.8zm1.3-12.5h1v5.7l-.8-.1-1.1-.7-1.3-1.4-1.8-1.9q-.7-.5-1.3-.5-.6 0-1 .4-.5.5-.5 1.2 0 .8.5 1.2.4.5 1.2.5v1q-1.3 0-2-.7-.6-.8-.6-2t.7-2q.7-.7 1.7-.7l1 .2q.5.2 1 .7l1.6 1.6 1 1.3.7.4v-4.2zM443.7 346.4h1v5.7l-.7-.1-1.2-.7-1.3-1.4q-1.1-1.4-1.8-1.9t-1.3-.5q-.6 0-1 .4-.5.5-.5 1.2 0 .8.5 1.2.4.5 1.3.5l-.1 1q-1.3 0-1.9-.7-.6-.8-.6-2t.7-2q.6-.7 1.7-.7l1 .2q.5.2 1 .7l1.5 1.6 1.1 1.3.6.4v-4.2zm-3.2-1.5q-1.6 0-2.5-.3-1-.3-1.4-.9-.5-.6-.5-1.5 0-.7.2-1.3.3-.5.9-.8.5-.4 1.2-.6l2-.1q1.6 0 2.5.3 1 .3 1.4.9.5.6.5 1.6 0 1.2-.9 2-1 .7-3.4.7zm0-1q2 0 2.8-.5.7-.5.7-1.2 0-.8-.7-1.3t-2.8-.5q-2.2 0-2.9.5-.7.5-.7 1.3 0 .7.7 1.1.7.6 2.9.6zm2-6l-.2-1q.9-.2 1.3-.6.4-.5.4-1 0-.8-.5-1.4-.6-.5-1.3-.5-.7 0-1.2.5t-.5 1.2l.1.8-1-.2.1-.1q0-.7-.3-1.2-.4-.6-1.1-.6-.6 0-1 .4t-.4 1q0 .6.4 1 .4.5 1.2.6l-.2 1q-1-.1-1.6-.8-.6-.7-.6-1.7 0-.7.3-1.3.3-.6.8-1 .5-.3 1.1-.3.5 0 1 .3t.7 1q.2-.8.8-1.3.5-.4 1.4-.4 1 0 1.9.9.7.8.7 2 0 1.1-.6 1.9-.7.7-1.8.8zm0-7l-.2-1q.9-.2 1.3-.6.4-.5.4-1 0-.8-.5-1.4-.6-.5-1.3-.5-.7 0-1.2.5t-.5 1.2l.1.8-1-.2.1-.1q0-.7-.3-1.2-.4-.6-1.1-.6-.6 0-1 .4t-.4 1q0 .6.4 1 .4.5 1.2.6l-.2 1q-1-.1-1.6-.8-.6-.7-.6-1.7 0-.7.3-1.3.3-.6.8-1 .5-.3 1.1-.3.5 0 1 .3t.7 1q.2-.8.8-1.3.5-.4 1.4-.4 1 0 1.9.9.7.8.7 2 0 1.1-.6 1.9-.7.7-1.8.8zM459.9 346.4h1v5.7l-.7-.1-1.2-.7-1.3-1.4q-1.1-1.4-1.8-1.9t-1.2-.5q-.7 0-1 .4-.5.5-.5 1.2 0 .8.4 1.2.5.5 1.3.5l-.1 1q-1.2 0-1.9-.7-.6-.8-.6-2t.7-2q.7-.7 1.7-.7l1 .2q.5.2 1 .7l1.5 1.6 1.1 1.3.6.4v-4.2zm-3.2-1.4q-1.5 0-2.5-.4-1-.3-1.4-.9-.5-.6-.5-1.5 0-.7.3-1.3.3-.5.8-.8.5-.4 1.3-.6l2-.1q1.5 0 2.4.3 1 .3 1.5.9.5.6.5 1.6 0 1.2-1 2t-3.4.8zm0-1.1q2 0 2.8-.5.7-.5.7-1.2 0-.8-.7-1.3t-2.8-.5q-2.1 0-2.8.5-.7.5-.7 1.3 0 .7.6 1.1.8.6 2.9.6zm2-6l-.2-1q.9-.2 1.3-.6.4-.5.4-1 0-.8-.5-1.4-.5-.5-1.3-.5-.7 0-1.2.5t-.5 1.2l.2.8-1-.2v-.1q0-.7-.3-1.2-.4-.6-1.1-.6-.6 0-1 .4-.3.4-.3 1t.3 1q.4.5 1.2.6l-.2 1q-1-.1-1.6-.8-.6-.7-.6-1.7 0-.7.3-1.3.3-.6.8-1 .5-.3 1.1-.3.6 0 1 .3.5.3.8 1 .1-.8.7-1.3.5-.4 1.4-.4 1.1 0 1.9.9.8.8.8 2 0 1.1-.7 1.9-.7.7-1.7.8zm2.2-10.3h-2v3.7h-1l-5.6-4v-.8h5.6v-1.1h1v1.1h2v1zm-3 0H454l3.9 2.7v-2.7zM476.1 346.4h1v5.7l-.7-.1-1.1-.7-1.3-1.4q-1.2-1.4-1.9-1.9-.6-.5-1.2-.5t-1 .4q-.5.5-.5 1.2 0 .8.4 1.2.5.5 1.3.5l-.1 1q-1.2 0-1.8-.7-.7-.8-.7-2t.7-2q.7-.7 1.7-.7l1 .2q.5.2 1 .7l1.6 1.6 1 1.3.6.4v-4.2zm-3.2-1.5q-1.5 0-2.4-.3-1-.3-1.5-.9-.5-.6-.5-1.5 0-.7.3-1.3.3-.5.8-.8.5-.4 1.3-.6l2-.1q1.5 0 2.4.3 1 .3 1.5.9.5.6.5 1.6 0 1.2-1 2-1 .7-3.4.7zm0-1q2.1 0 2.8-.5.7-.5.7-1.2 0-.8-.7-1.3t-2.8-.5q-2.1 0-2.8.5-.7.5-.7 1.3 0 .7.6 1.1.8.6 3 .6zm2-6l-.2-1q1-.2 1.3-.6.4-.5.4-1 0-.8-.5-1.4-.5-.5-1.3-.5-.7 0-1.2.5-.4.5-.4 1.2v.8l-.9-.2v-.1q0-.7-.3-1.2-.3-.6-1-.6t-1 .4q-.4.4-.4 1t.4 1q.4.5 1.1.6l-.2 1q-1-.1-1.6-.8-.6-.7-.6-1.7 0-.7.3-1.3.3-.6.8-1 .6-.3 1.2-.3.5 0 1 .3.4.3.7 1 .2-.8.7-1.3.6-.4 1.4-.4 1.1 0 2 .9.7.8.7 2 0 1.1-.7 1.9-.7.7-1.7.8zm0-7l-.1-1q.8-.2 1.2-.6.4-.5.4-1.1 0-.8-.6-1.3-.5-.5-1.5-.5-.9 0-1.4.5-.5.5-.5 1.3l.2 1 .6.6-.1 1-4.4-.9v-4.2h1v3.4l2.3.4q-.6-.7-.6-1.6 0-1 .8-1.9.8-.7 2-.7t2 .6q1 .9 1 2.3 0 1.2-.6 2-.6.6-1.7.7zM492.4 346.4h1v5.7l-.8-.1-1.1-.7-1.3-1.4-1.8-1.9q-.7-.5-1.3-.5-.6 0-1 .4-.5.5-.5 1.2 0 .8.5 1.2.4.5 1.2.5v1q-1.3 0-2-.7-.6-.8-.6-2t.7-2q.7-.7 1.7-.7.6 0 1 .2l1.1.7 1.5 1.6 1 1.3.7.4v-4.2zm-3.3-1.5q-1.5 0-2.4-.3-1-.3-1.5-.9-.5-.6-.5-1.5 0-.7.3-1.3.3-.5.8-.8.6-.4 1.3-.6l2-.1q1.6 0 2.5.3.9.3 1.4.9.5.6.5 1.6 0 1.2-.9 2-1 .7-3.5.7zm0-1q2.1 0 2.8-.5.8-.5.8-1.2 0-.8-.8-1.3-.7-.5-2.8-.5-2 0-2.8.5-.7.5-.7 1.3 0 .7.6 1.1.8.6 3 .6zm2-6l-.1-1q.9-.2 1.3-.6.4-.5.4-1 0-.8-.6-1.4-.5-.5-1.2-.5-.8 0-1.2.5-.5.5-.5 1.2l.1.8-1-.2v-.1q0-.7-.3-1.2-.3-.6-1-.6-.6 0-1 .4t-.4 1q0 .6.4 1 .4.5 1.2.6l-.2 1q-1-.1-1.7-.8-.6-.7-.6-1.7 0-.7.4-1.3.3-.6.8-1 .5-.3 1-.3.6 0 1 .3.5.3.8 1 .2-.8.7-1.3.6-.4 1.4-.4 1.2 0 2 .9.7.8.7 2 0 1.1-.6 1.9-.7.7-1.8.8zm-4.2-12.4v1l-.8.4q-.5.5-.5 1 0 .6.3 1 .4.5 1 .8.8.2 2 .2-.5-.3-.8-.9-.3-.5-.3-1.1 0-1 .8-1.8t2-.8q.8 0 1.5.4.7.3 1 1 .4.5.4 1.3 0 1.3-1 2.2-1 .8-3.1.8-2.5 0-3.7-1-1-.7-1-2 0-1.1.6-1.7.6-.7 1.6-.8zm3.7 4.3l1-.2q.5-.3.8-.7.3-.4.3-.9 0-.6-.6-1.1-.5-.5-1.4-.5-1 0-1.5.5t-.5 1.2q0 .7.5 1.2.6.5 1.4.5zM508.6 346.4h1v5.7l-.7-.1-1.2-.7-1.3-1.4q-1.1-1.4-1.8-1.9t-1.3-.5q-.6 0-1 .4-.5.5-.5 1.2 0 .8.5 1.2.5.5 1.3.5l-.1 1q-1.3 0-1.9-.7-.6-.8-.6-2t.7-2q.6-.7 1.7-.7l1 .2q.5.2 1 .7l1.5 1.6 1.1 1.3.6.4v-4.2zm-3.2-1.4q-1.6 0-2.5-.4-1-.3-1.4-.9-.5-.6-.5-1.5 0-.7.3-1.3.2-.5.8-.8.5-.4 1.2-.6l2-.1q1.6 0 2.5.3 1 .3 1.4.9.5.6.5 1.6 0 1.2-.9 2-1 .8-3.4.8zm0-1.1q2 0 2.8-.5.7-.5.7-1.2 0-.8-.7-1.3t-2.8-.5q-2.2 0-2.9.5-.7.5-.7 1.3 0 .7.7 1.1.7.6 2.9.6zm2-6l-.2-1q.9-.2 1.3-.6.4-.5.4-1 0-.8-.5-1.4-.6-.5-1.3-.5-.7 0-1.2.5t-.5 1.2l.1.8-.9-.2v-.1q0-.7-.3-1.2-.4-.6-1.1-.6-.6 0-1 .4t-.4 1q0 .6.4 1 .4.5 1.2.6l-.2 1q-1-.1-1.6-.8-.6-.7-.6-1.7 0-.7.3-1.3.3-.6.8-1 .5-.3 1.1-.3.6 0 1 .3.5.3.7 1 .2-.8.8-1.3.5-.4 1.4-.4 1 0 1.9.9.8.8.8 2 0 1.1-.7 1.9-.7.7-1.8.8zm-5.3-7h-1v-5.6h.8q1 .8 2.4 1.6t3 1.3q1 .3 2.3.4v1q-1 0-2.5-.3-1.4-.4-2.7-1.1-1.4-.7-2.3-1.5v4.2zM524.8 346.4h1v5.7l-.7-.1-1.2-.7-1.3-1.4q-1.1-1.4-1.8-1.9t-1.2-.5q-.7 0-1 .4-.5.5-.5 1.2 0 .8.4 1.2.5.5 1.3.5l-.1 1q-1.2 0-1.9-.7-.6-.8-.6-2t.7-2q.7-.7 1.7-.7l1 .2q.5.2 1 .7l1.5 1.6 1.1 1.3.6.4v-4.2zm-3.2-1.4q-1.5 0-2.5-.4-.9-.3-1.4-.9-.5-.6-.5-1.5 0-.7.3-1.3.3-.5.8-.8.5-.4 1.3-.6l2-.1q1.5 0 2.4.3 1 .3 1.5.9.5.6.5 1.6 0 1.2-1 2t-3.4.8zm0-1.1q2.1 0 2.8-.5.7-.5.7-1.2 0-.8-.7-1.3t-2.8-.5q-2.1 0-2.8.5-.7.5-.7 1.3 0 .7.6 1.1.8.6 2.9.6zm2-6l-.2-1q1-.2 1.3-.6.4-.5.4-1 0-.8-.5-1.4-.5-.5-1.3-.5-.7 0-1.2.5t-.5 1.2l.2.8-1-.2v-.1q0-.7-.3-1.2-.4-.6-1.1-.6-.6 0-1 .4-.3.4-.3 1t.3 1q.4.5 1.2.6l-.2 1q-1-.1-1.6-.8-.6-.7-.6-1.7 0-.7.3-1.3.3-.6.8-1 .5-.3 1.1-.3.6 0 1 .3.5.3.8 1 .1-.8.7-1.3.5-.4 1.4-.4 1.1 0 1.9.9.8.8.8 2 0 1.1-.7 1.9-.7.7-1.7.8zm-2.4-8.6q-.3.7-.7 1-.5.3-1 .3-1 0-1.7-.7-.6-.6-.6-1.7 0-1.2.7-1.9.6-.6 1.5-.6.6 0 1 .3.5.3.8 1 .2-.9.8-1.3.6-.4 1.4-.4 1 0 1.8.8t.8 2q0 1.3-.8 2-.7.9-1.9.9-.8 0-1.4-.5-.5-.4-.7-1.2zm-1.8.2q.6 0 1-.3.4-.5.4-1 0-.7-.4-1-.4-.5-1-.5-.5 0-1 .4-.3.4-.3 1t.3 1q.4.4 1 .4zm4 .4l.8-.2.7-.7q.2-.4.2-.9 0-.7-.5-1.2t-1.2-.5q-.8 0-1.3.5t-.5 1.3q0 .7.5 1.2t1.2.5zM541 346.4h1v5.7l-.7-.1-1.1-.7-1.3-1.4q-1.2-1.4-1.9-1.9-.6-.5-1.2-.5t-1 .4q-.5.5-.5 1.2 0 .8.4 1.2.5.5 1.3.5v1q-1.3 0-2-.7-.6-.8-.6-2t.7-2q.7-.7 1.7-.7l1 .2q.5.2 1 .7l1.6 1.6 1 1.3.6.4v-4.2zm-3.2-1.4q-1.5 0-2.4-.4-1-.3-1.5-.9-.5-.6-.5-1.5 0-.7.3-1.3.3-.5.8-.8.5-.4 1.3-.6l2-.1q1.5 0 2.4.3 1 .3 1.5.9.5.6.5 1.6 0 1.2-.9 2-1 .8-3.5.8zm0-1.1q2.1 0 2.8-.5.7-.5.7-1.2 0-.8-.7-1.3t-2.8-.5q-2.1 0-2.8.5-.7.5-.7 1.3 0 .7.6 1.1.8.6 3 .6zm2-6l-.2-1q1-.2 1.3-.6.4-.5.4-1 0-.8-.5-1.4-.5-.5-1.3-.5-.7 0-1.2.5-.4.5-.4 1.2v.8l-.9-.2v-.1q0-.7-.3-1.2-.3-.6-1-.6t-1 .4q-.4.4-.4 1t.4 1q.4.5 1.1.6l-.2 1q-1-.1-1.6-.8-.6-.7-.6-1.7 0-.7.3-1.3.3-.6.8-1 .6-.3 1.2-.3.5 0 1 .3.4.3.7 1 .2-.8.7-1.3.6-.4 1.4-.4 1.1 0 2 .9.7.8.7 2 0 1.1-.7 1.9-.7.7-1.7.8zm.3-7.1l-.1-1q.7-.1 1-.5.3-.4.3-1l-.2-.8q-.2-.4-.6-.6l-1-.4-1.3-.1h-.2q.5.3.8.8.3.6.3 1.2 0 1-.7 1.8-.8.8-2 .8-1.4 0-2.2-.8-.8-.8-.8-2 0-.8.5-1.5.4-.7 1.3-1 .8-.4 2.4-.4 1.6 0 2.6.4 1 .3 1.5 1t.5 1.7q0 1-.6 1.6-.5.7-1.5.8zm-3.8-4.3q-1 0-1.5.5-.5.4-.5 1.1 0 .7.6 1.3.5.5 1.5.5.8 0 1.3-.5t.5-1.2q0-.8-.5-1.3-.5-.4-1.4-.4zM557.3 346.4h1v5.7l-.8-.1-1.1-.7-1.3-1.4-1.8-1.9q-.7-.5-1.3-.5-.6 0-1 .4-.5.5-.5 1.2 0 .8.5 1.2.4.5 1.2.5v1q-1.3 0-2-.7-.6-.8-.6-2t.7-2q.7-.7 1.7-.7.6 0 1 .2l1.1.7 1.5 1.6 1 1.3.7.4v-4.2zm-3.3-1.5q-1.5 0-2.4-.3-1-.3-1.5-.9-.5-.6-.5-1.5 0-.7.3-1.3.3-.5.8-.8.6-.4 1.3-.6l2-.1q1.6 0 2.5.3.9.3 1.4.9.5.6.5 1.6 0 1.2-.9 2-1 .7-3.5.7zm0-1q2.1 0 2.9-.5.7-.5.7-1.2 0-.8-.7-1.3-.8-.5-2.9-.5-2 0-2.8.5-.7.5-.7 1.3 0 .7.6 1.1.8.6 3 .6zm4.3-9.3h-2v3.7h-1l-5.6-4v-.8h5.5v-1.1h1v1.1h2v1zm-3 0h-4l4 2.7v-2.7zm-1.3-3.7q-1.5 0-2.4-.3-1-.3-1.5-.9-.5-.6-.5-1.5 0-.7.3-1.3.3-.5.8-.8.6-.4 1.3-.6l2-.1q1.6 0 2.5.3.9.3 1.4.9.5.6.5 1.6 0 1.2-.9 2-1 .7-3.5.7zm0-1q2.1 0 2.9-.5.7-.5.7-1.2 0-.8-.7-1.3-.8-.5-2.9-.5-2 0-2.8.5-.7.5-.7 1.3 0 .7.6 1.1.8.6 3 .6zM573.5 346.4h1v5.7l-.7-.1-1.2-.7-1.3-1.4q-1.1-1.4-1.8-1.9t-1.3-.5q-.6 0-1 .4-.5.5-.5 1.2 0 .8.5 1.2.5.5 1.3.5l-.1 1q-1.3 0-1.9-.7-.6-.8-.6-2t.7-2q.6-.7 1.7-.7l1 .2q.5.2 1 .7l1.5 1.6 1.1 1.3.6.4v-4.2zm-3.2-1.5q-1.6 0-2.5-.3-1-.3-1.4-.9-.5-.6-.5-1.5 0-.7.3-1.3.2-.5.8-.8.5-.4 1.2-.6l2-.1q1.6 0 2.5.3 1 .3 1.4.9.5.6.5 1.6 0 1.2-.9 2-1 .7-3.4.7zm0-1q2 0 2.8-.5.7-.5.7-1.2 0-.8-.7-1.3t-2.8-.5q-2.2 0-2.8.5-.8.5-.8 1.3 0 .7.7 1.1.7.6 2.9.6zm4.2-9.3h-2v3.7h-1l-5.6-4v-.8h5.6v-1.1h1v1.1h2v1zm-3 0h-3.9l3.9 2.7v-2.7zm3-7.6v1h-6.7l.7 1 .5 1.1h-1q-.4-.8-1-1.5t-1.1-1v-.6h8.6z"/><path fill="#db4437" d="M178.5 57c0-.6.4-1 1-1h10c.6 0 1 .4 1 1v10c0 .5-.4 1-1 1h-10a1 1 0 0 1-1-1z"/><path fill="#1a1a1a" d="M199.4 66v-8.7h1.1V65h4.3v1h-5.4zm6.5-3.2q0-1.7 1-2.6.8-.6 2-.6t2 .8q.8.8.8 2.3 0 1.2-.3 1.9-.4.7-1 1-.8.5-1.6.5-1.3 0-2.1-.9-.8-.8-.8-2.4zm1 0q0 1.2.6 1.8.5.6 1.3.6t1.3-.6q.5-.6.5-1.8 0-1.2-.5-1.8-.5-.6-1.3-.6t-1.3.6q-.5.6-.5 1.8zm7.5 3.1l-1.9-6.2h1.1l1 3.6.4 1.3.3-1.3 1-3.6h1l1 3.6.3 1.2.4-1.2 1-3.6h1l-1.9 6.2h-1l-1-3.7-.3-1-1.3 4.7h-1zm7.5-2.6v-1h3.2v1H222zm8.6.6l1.1.1q-.2 1-1 1.5-.6.6-1.7.6-1.4 0-2.2-.9-.8-.8-.8-2.3 0-1.6.8-2.5.9-.8 2.1-.8 1.3 0 2 .8.9.8.9 2.4v.3H227q0 1 .6 1.6.5.5 1.3.5.6 0 1-.3t.6-1zm-3.4-1.7h3.5q-.1-.8-.4-1.2-.5-.6-1.3-.6t-1.3.5q-.5.5-.5 1.3zm6.2 3.7v-6.2h1v.9q.6-1 2-1l1 .2.7.5.3.8v4.8h-1v-3.8l-.1-1-.5-.4q-.3-.2-.7-.2-.7 0-1.2.4t-.5 1.6V66h-1zm11 0v-.8q-.6 1-1.7 1-.8 0-1.4-.4-.6-.5-1-1.2-.3-.7-.3-1.7t.3-1.7q.3-.7 1-1.1.6-.4 1.3-.4.6 0 1 .2.5.2.8.6v-3h1v8.5h-1zm-3.3-3q0 1.1.5 1.7.5.6 1.2.6t1.2-.6q.4-.5.4-1.7 0-1.3-.5-1.9-.4-.6-1.2-.6-.7 0-1.1.6-.5.6-.5 1.8zm9.3 5.4v-8.6h1v.8q.3-.5.7-.7l1-.2q.9 0 1.5.4t.9 1.1q.3.8.3 1.7 0 1-.4 1.7-.3.7-1 1.2-.6.4-1.3.4-.5 0-1-.3l-.7-.5v3h-1zm1-5.5q0 1.2.4 1.8.5.6 1.2.6t1.2-.6q.5-.6.5-1.9 0-1.1-.5-1.7-.5-.6-1.1-.6-.7 0-1.2.6-.6.6-.6 1.8zm6 3.1v-8.6h1v3.1q.8-.8 1.9-.8.7 0 1.2.2.5.3.7.8.3.5.3 1.4v4h-1v-4q0-.8-.4-1.2-.4-.3-1-.3-.5 0-.9.2t-.6.7q-.2.4-.2 1.1V66h-1zm6.6-3q0-1.8 1-2.7.8-.6 2-.6t2 .8q.8.8.8 2.3 0 1.2-.3 1.9-.4.7-1 1-.8.5-1.6.5-1.3 0-2.1-.9-.8-.8-.8-2.4zm1 0q0 1 .6 1.7.5.6 1.3.6t1.3-.6q.5-.6.5-1.8 0-1.2-.5-1.8-.5-.6-1.3-.6t-1.3.6q-.5.6-.5 1.8zm6.4 3v-6.2h1v.9q.6-1 2-1l1 .2.7.5.3.8v4.8h-1v-3.8l-.1-1-.5-.4q-.3-.2-.7-.2-.7 0-1.2.4t-.5 1.6V66h-1zm11.2-2l1.1.1q-.2 1-1 1.5-.6.6-1.7.6-1.4 0-2.2-.9-.8-.8-.8-2.3 0-1.6.9-2.5.8-.8 2-.8 1.3 0 2 .8.9.8.9 2.4v.3H279q0 1 .6 1.6.5.5 1.3.5.6 0 1-.3t.6-1zm-3.4-1.7h3.5q-.1-.8-.4-1.2-.5-.6-1.3-.6t-1.3.5q-.5.5-.5 1.3zm5.8 1.9l1-.2q.1.6.5 1 .4.3 1.1.3.8 0 1-.3.5-.3.5-.7 0-.4-.4-.6l-1-.3-1.6-.5q-.5-.2-.7-.6-.3-.4-.3-.9 0-.4.2-.7.2-.4.6-.6l.6-.3 1-.1q.7 0 1.2.2.6.2.8.5.3.4.4 1l-1 .1q-.1-.4-.4-.7-.4-.3-1-.3-.7 0-1 .3-.3.2-.3.5v.4l.5.3 1 .2 1.5.5q.4.2.7.6.2.3.2.9 0 .5-.3 1-.3.4-.9.7-.5.3-1.3.3-1.2 0-1.8-.5-.7-.6-.8-1.5z"/><path fill="#4285f4" d="M306.5 57c0-.6.4-1 1-1h10c.6 0 1 .4 1 1v10c0 .5-.4 1-1 1h-10a1 1 0 0 1-1-1z"/><path fill="#1a1a1a" d="M327.5 66v-8.7h1V61h4.6v-3.6h1.1V66h-1.1v-4h-4.5v4h-1.1zm8.8-7.5v-1.2h1v1.2h-1zm0 7.4v-6.2h1v6.2h-1zm2.8.5l1 .2q0 .5.4.7.4.3 1 .3.8 0 1.2-.3.4-.3.5-.8l.1-1.4q-.7.8-1.7.8-1.3 0-2-1-.7-.8-.7-2.1 0-1 .3-1.7t1-1.1q.6-.4 1.4-.4 1 0 1.8.8v-.7h1v5.4q0 1.4-.3 2-.3.6-1 1-.6.3-1.5.3-1.1 0-1.8-.5t-.7-1.5zm.9-3.7q0 1.2.5 1.8.4.5 1.2.5.7 0 1.2-.5.5-.6.5-1.8 0-1.1-.5-1.7-.5-.6-1.2-.6t-1.2.6q-.5.6-.5 1.7zm6.3 3.2v-8.6h1v3.1q.8-.8 1.9-.8.7 0 1.2.2.5.3.7.8.3.5.3 1.4v4h-1v-4q0-.8-.4-1.2-.4-.3-1-.3-.5 0-.9.2t-.6.7q-.2.4-.2 1.1V66h-1zm6.6-2.6v-1h3.2v1H353zm8.6.6l1.1.1q-.2 1-1 1.5-.6.6-1.7.6-1.4 0-2.2-.9-.8-.8-.8-2.3 0-1.6.9-2.5.8-.8 2-.8 1.3 0 2 .8.9.8.9 2.4v.3H358q0 1 .6 1.6.5.5 1.3.5.6 0 1-.3t.6-1zm-3.4-1.7h3.5q-.1-.8-.4-1.2-.5-.6-1.3-.6t-1.3.5q-.5.5-.5 1.3zm6.2 3.7v-6.2h1v.9q.6-1 2-1l1 .2.7.5.3.8v4.8h-1v-3.8l-.1-1-.5-.4q-.3-.2-.7-.2-.7 0-1.2.4t-.5 1.6V66h-1zm11 0v-.8q-.6 1-1.7 1-.8 0-1.4-.4-.6-.5-1-1.2-.3-.7-.3-1.7t.3-1.7q.3-.7 1-1.1.6-.4 1.3-.4.6 0 1 .2.5.2.8.6v-3h1v8.5h-1zm-3.3-3q0 1.1.5 1.7.5.6 1.2.6t1.2-.6q.4-.5.4-1.7 0-1.3-.5-1.9-.4-.6-1.2-.6-.7 0-1.1.6-.5.6-.5 1.8zm9.3 5.4v-8.6h1v.8q.3-.5.7-.7l1-.2q.9 0 1.5.4t.9 1.1q.3.8.3 1.7 0 1-.4 1.7-.3.7-1 1.2-.6.4-1.3.4-.5 0-1-.3l-.7-.5v3h-1zm1-5.5q0 1.2.4 1.8.5.6 1.2.6t1.2-.6q.5-.6.5-1.9 0-1.1-.5-1.7-.5-.6-1.1-.6-.7 0-1.2.6-.6.6-.6 1.8zm6 3.1v-8.6h1v3.1q.8-.8 1.9-.8.7 0 1.2.2.5.3.7.8.3.5.3 1.4v4h-1v-4q0-.8-.4-1.2-.4-.3-1-.3-.5 0-.9.2t-.6.7q-.2.4-.2 1.1V66h-1zm6.6-3q0-1.8 1-2.7.8-.6 2-.6t2 .8q.8.8.8 2.3 0 1.2-.3 1.9-.4.7-1 1-.8.5-1.6.5-1.3 0-2.1-.9-.8-.8-.8-2.4zm1 0q0 1 .6 1.7.5.6 1.3.6t1.3-.6q.5-.6.5-1.8 0-1.2-.5-1.8-.5-.6-1.3-.6t-1.3.6q-.5.6-.5 1.8zm6.4 3v-6.2h1v.9q.6-1 2-1l1 .2.7.5.3.8v4.8h-1v-3.8l-.1-1-.5-.4q-.3-.2-.7-.2-.7 0-1.2.4t-.5 1.6V66h-1zm11.2-2l1.1.1q-.2 1-1 1.5-.6.6-1.7.6-1.4 0-2.2-.9-.8-.8-.8-2.3 0-1.6.9-2.5.8-.8 2-.8 1.3 0 2 .8.9.8.9 2.4v.3H410q0 1 .6 1.6.5.5 1.3.5.6 0 1-.3t.6-1zm-3.4-1.7h3.5q-.1-.8-.4-1.2-.5-.6-1.3-.6t-1.3.5q-.5.5-.5 1.3zm5.8 1.9l1-.2q.1.6.5 1 .4.3 1.1.3.8 0 1-.3.5-.3.5-.7 0-.4-.4-.6l-1-.3-1.6-.5q-.5-.2-.7-.6-.3-.4-.3-.9 0-.4.2-.7.2-.4.6-.6l.6-.3 1-.1q.7 0 1.2.2.6.2.8.5.3.4.4 1l-1 .1q-.1-.4-.4-.7-.4-.3-1-.3-.7 0-1 .3-.3.2-.3.5v.4l.5.3 1 .2 1.5.5q.4.2.7.6.2.3.2.9 0 .5-.3 1-.3.4-.9.7-.5.3-1.3.3-1.2 0-1.8-.5-.7-.6-.8-1.5z"/><path fill="#000" d="M26.8 32v-1.7h6v5.2q-1.3 1.2-2.8 1.7-1.5.6-3 .6-2.2 0-3.9-1-1.7-.8-2.6-2.5-.9-1.7-.9-3.8 0-2.1.9-4 .9-1.7 2.5-2.6 1.6-1 3.8-1 1.5 0 2.8.6 1.2.5 2 1.4.7.9 1 2.3l-1.7.5q-.3-1-.8-1.7-.4-.6-1.3-1-1-.4-2-.4-1.3 0-2.3.4-.9.4-1.5 1-.6.7-.9 1.5-.5 1.3-.5 2.8 0 2 .6 3.2.7 1.3 2 2 1.2.6 2.6.6 1.3 0 2.4-.5 1.2-.5 1.8-1v-2.7h-4.2zm15.9 5.5V36q-1.2 1.8-3.3 1.8-1 0-1.7-.4-.8-.3-1.2-.9-.4-.5-.6-1.3v-8h1.7v7.6q.3.7.8 1 .5.5 1.3.5t1.5-.4q.7-.4 1-1.1.3-.7.3-2v-5.6h1.7v10.3h-1.5zM54 34.3l1.8.2q-.4 1.6-1.6 2.5-1.2.9-3 .9-2.2 0-3.6-1.4-1.3-1.4-1.3-4t1.3-4q1.4-1.5 3.5-1.5t3.4 1.5q1.3 1.4 1.3 4v.4h-7.7q0 1.7 1 2.6.8 1 2.1 1 1 0 1.7-.6.7-.5 1-1.6zm-5.8-2.8H54q-.1-1.3-.7-2-.8-1-2.2-1-1.2 0-2 .8t-1 2.2zm9 3l1.7-.2q.1 1 .8 1.6.7.5 1.9.5t1.8-.5q.6-.5.6-1.1 0-.6-.5-1l-1.8-.5q-2-.5-2.7-.9-.8-.3-1.2-1-.3-.6-.3-1.4 0-.7.3-1.3.3-.6.8-1l1.2-.4q.7-.3 1.5-.3 1.2 0 2.1.4 1 .3 1.4 1 .4.5.6 1.5l-1.7.3q-.2-.8-.7-1.3-.6-.4-1.6-.4-1.2 0-1.7.4t-.5 1q0 .3.2.5.2.3.6.5l1.6.5 2.6.8q.7.3 1.2.9.4.6.4 1.5t-.5 1.7q-.5.7-1.5 1.2-1 .4-2.2.4-2 0-3-.9-1.1-.8-1.4-2.4zm10 0l1.7-.2q.1 1 .8 1.6.7.5 1.9.5t1.8-.5q.6-.5.6-1.1 0-.6-.5-1l-1.8-.5q-2-.5-2.7-.9-.8-.3-1.2-1-.3-.6-.3-1.4 0-.7.3-1.3.3-.6.8-1l1.2-.4q.7-.3 1.5-.3 1.2 0 2.1.4 1 .3 1.4 1 .4.5.6 1.5l-1.7.3q-.2-.8-.7-1.3-.6-.4-1.6-.4-1.2 0-1.7.4t-.5 1q0 .3.2.5.2.3.6.5l1.6.5 2.6.8q.7.3 1.2.9.4.6.4 1.5t-.5 1.7q-.5.7-1.5 1.2-1 .4-2.2.4-2 0-3-.9-1.1-.8-1.4-2.4zm17.8-.2l1.8.2q-.4 1.6-1.6 2.5-1.2.9-3 .9-2.2 0-3.6-1.4-1.3-1.4-1.3-4t1.3-4q1.4-1.5 3.5-1.5t3.4 1.5q1.3 1.4 1.3 4v.4h-7.7q0 1.7 1 2.6.8 1 2.1 1 1 0 1.7-.6.7-.5 1-1.6zm-5.8-2.8H85q-.1-1.3-.7-2-.8-1-2.2-1-1.2 0-2 .8t-1 2.2zm16.4 6.1v-1.3q-1 1.6-3 1.6-1.1 0-2.2-.7-1-.7-1.6-2-.6-1.1-.6-2.7t.6-2.8q.5-1.3 1.5-2t2.3-.7q1 0 1.7.4t1.2 1v-5h1.7v14.2h-1.6zM90 32.4q0 2 .9 3 .8 1 2 1 1.1 0 2-1 .7-1 .7-2.9 0-2.1-.8-3.1t-2-1q-1.2 0-2 1t-.8 3zm22.6 5.1v-1.3q-1 1.6-3 1.6-1.1 0-2.2-.7-1-.7-1.6-2-.6-1.1-.6-2.7t.6-2.8q.5-1.3 1.5-2t2.3-.7q1 0 1.7.4t1.2 1v-5h1.7v14.2h-1.6zm-5.6-5.1q0 2 .9 3 .8 1 2 1 1.1 0 2-1 .7-1 .7-2.9 0-2.1-.8-3.1t-2-1q-1.2 0-2 1t-.8 3zm17 1.8l1.8.2q-.4 1.6-1.6 2.5-1.2.9-3 .9-2.2 0-3.6-1.4-1.3-1.4-1.3-4t1.3-4q1.4-1.5 3.5-1.5t3.4 1.5q1.3 1.4 1.3 4v.4h-7.7q0 1.7 1 2.6.8 1 2.1 1 1 0 1.7-.6.7-.5 1-1.6zm-5.8-2.8h5.8q-.1-1.3-.7-2-.8-1-2.2-1-1.2 0-2 .8t-1 2.2zm9.7 6.1V27.2h1.5v1.4q.5-.7 1.3-1.2.9-.5 1.9-.5 1.1 0 1.9.5.7.5 1 1.4 1.3-1.9 3.2-1.9 1.6 0 2.4.9.8.9.8 2.6v7.1h-1.7V31q0-1-.2-1.5t-.6-.7q-.5-.3-1-.3-1.2 0-1.9.7t-.7 2.3v6H134v-6.7q0-1.2-.4-1.7-.4-.6-1.4-.6-.7 0-1.4.4-.6.4-.9 1.1-.3.8-.3 2.2v5.3H128zm16.3-5.1q0-3 1.6-4.3 1.4-1.2 3.3-1.2 2.1 0 3.5 1.4 1.3 1.5 1.3 4 0 2-.6 3-.6 1.2-1.7 1.9-1.2.6-2.5.6-2.2 0-3.5-1.4-1.4-1.4-1.4-4zm1.8 0q0 2 .9 3t2.2 1q1.3 0 2.2-1 .8-1 .8-3.1 0-2-.8-3-1-1-2.2-1-1.3 0-2.2 1-.9 1-.9 3zm9.6 6l1.7.3q0 .8.5 1.1.7.5 1.8.5 1.3 0 2-.5.6-.5.8-1.3.2-.6.2-2.3-1.2 1.3-3 1.3-2 0-3.2-1.5-1.2-1.5-1.2-3.7 0-1.5.5-2.7.6-1.3 1.6-2t2.4-.7q1.8 0 3 1.5v-1.2h1.6v9q0 2.4-.5 3.4t-1.5 1.6q-1 .6-2.7.6-1.8 0-3-.9-1.1-.8-1-2.5zm1.4-6.2q0 2 .8 3 .8.9 2 .9 1.3 0 2-1 .9-.9.9-2.9 0-1.9-.9-2.8-.8-1-2-1t-2 1q-.8.9-.8 2.8zm9.8 5.3V27.2h1.6v1.6q.6-1.2 1.2-1.5.5-.4 1-.4 1 0 1.9.6l-.6 1.6q-.7-.3-1.3-.3-.6 0-1 .3-.5.4-.7 1-.3.9-.3 2v5.4h-1.8zm13.8-1.2q-1 .8-1.8 1.1-1 .4-2 .4-1.7 0-2.6-.8-1-.9-1-2.2 0-.8.4-1.4.4-.6 1-1 .5-.4 1.2-.6l1.6-.2 3-.6.1-.5q0-1-.5-1.5-.7-.6-2-.6-1.2 0-1.8.4-.6.5-.9 1.6l-1.7-.3q.2-1 .7-1.7.6-.7 1.6-1 1-.5 2.4-.5 1.3 0 2.1.4.8.3 1.2.8.4.4.6 1.1v4q0 2.5.2 3.1 0 .7.4 1.3H181q-.3-.6-.4-1.3zm-.1-4q-1 .4-2.9.7l-1.5.4q-.5.1-.7.5-.3.4-.3.9 0 .7.6 1.1.5.5 1.5.5t1.8-.4q.8-.5 1.2-1.2.3-.7.3-1.8v-.7zm4.4 9.2V27.2h1.6v1.3q.5-.8 1.2-1.2.8-.4 1.8-.4 1.3 0 2.3.7 1 .7 1.5 2 .6 1.2.6 2.7 0 1.6-.6 2.9-.6 1.2-1.7 2-1 .6-2.3.6-.8 0-1.5-.4t-1.2-1v5.1H185zm1.6-9q0 2 .8 2.9.8 1 2 1 1.1 0 2-1 .8-1 .8-3.1 0-2-.8-3-.9-1-2-1t-2 1q-.8 1.1-.8 3.1zm9.4 5V23.2h1.7v5.2q1.3-1.5 3.1-1.5 1.2 0 2 .5.9.4 1.2 1.3.4.8.4 2.3v6.5h-1.7V31q0-1.3-.6-2-.6-.5-1.6-.5-.8 0-1.5.4t-1 1q-.3.8-.3 2v5.6H196zm11-12.2v-2h1.7v2H207zm0 12.2V27.2h1.7v10.3H207zm10.7-3.7l1.8.2q-.3 1.8-1.5 2.8-1.1 1-2.8 1-2.2 0-3.5-1.4-1.3-1.4-1.3-4 0-1.7.6-3 .5-1.2 1.7-1.8 1.1-.7 2.5-.7 1.7 0 2.7.9 1 .9 1.4 2.4l-1.7.3q-.2-1-.9-1.6-.6-.5-1.5-.5-1.3 0-2.1 1-.9.9-.9 3 0 2 .8 3t2.1 1q1 0 1.8-.7.7-.6.8-2zm8.6-1.4q0-3 1.6-4.3 1.4-1.2 3.3-1.2 2.1 0 3.5 1.4 1.3 1.5 1.3 4 0 2-.6 3-.6 1.2-1.7 1.9-1.2.6-2.5.6-2.2 0-3.5-1.4-1.4-1.4-1.4-4zm1.8 0q0 2 .9 3t2.2 1q1.3 0 2.2-1 .8-1 .8-3.1 0-2-.8-3-1-1-2.2-1-1.3 0-2.2 1-.9 1-.9 3zm10.3 5.1v-9h-1.6v-1.3h1.6V26q0-1 .2-1.6.2-.7.9-1 .6-.5 1.8-.5l1.6.2-.3 1.5-1-.1q-.8 0-1.1.3-.4.4-.4 1.3v1h2v1.4h-2v9h-1.7zm11-5.1q0-3 1.5-4.3 1.4-1.2 3.3-1.2 2.1 0 3.5 1.4 1.3 1.5 1.3 4 0 2-.6 3-.6 1.2-1.7 1.9-1.2.6-2.5.6-2.2 0-3.5-1.4-1.4-1.4-1.4-4zm1.7 0q0 2 .9 3t2.2 1q1.3 0 2.2-1 .8-1 .8-3.1 0-2-.8-3-1-1-2.2-1-1.3 0-2.2 1-.9 1-.9 3zm9.9 5.1V27.2h1.6v1.5q1.1-1.8 3.3-1.8.9 0 1.7.4.8.3 1.2.9.4.5.5 1.3l.1 1.7v6.3h-1.8v-6.3q0-1-.2-1.6-.2-.5-.7-.8-.5-.3-1.2-.3-1.1 0-2 .7-.8.7-.8 2.7v5.6H261zm11 0V23.2h1.7v14.3h-1.8zm4-12.2v-2h1.7v2H276zm0 12.2V27.2h1.7v10.3H276zm4 0V27.2h1.6v1.5q1.1-1.8 3.3-1.8.9 0 1.7.4.8.3 1.2.9.4.5.5 1.3l.1 1.7v6.3h-1.8v-6.3q0-1-.2-1.6-.2-.5-.7-.8-.5-.3-1.2-.3-1.1 0-2 .7-.8.7-.8 2.7v5.6H280zm18-3.3l1.9.2q-.4 1.6-1.6 2.5-1.2.9-3 .9-2.2 0-3.6-1.4-1.3-1.4-1.3-4t1.3-4q1.4-1.5 3.5-1.5t3.4 1.5q1.3 1.4 1.3 4v.4h-7.7q0 1.7 1 2.6.8 1 2.1 1 1 0 1.7-.6.7-.5 1-1.6zm-5.7-2.8h5.8q-.1-1.3-.7-2-.8-1-2.2-1-1.2 0-2 .8t-1 2.2zm22.5 6.1V36q-1.2 1.8-3.3 1.8-1 0-1.7-.4-.8-.3-1.2-.9-.4-.5-.6-1.3v-8h1.7v7.6q.3.7.8 1 .5.5 1.3.5t1.5-.4q.7-.4 1-1.1.3-.7.3-2v-5.6h1.7v10.3h-1.5zm3.5-3l1.7-.3q.2 1 .8 1.6.7.5 1.9.5t1.8-.5q.6-.5.6-1.1 0-.6-.5-1l-1.8-.5q-2-.5-2.7-.9-.8-.3-1.2-1-.3-.6-.3-1.4 0-.7.3-1.3.3-.6.8-1l1.2-.4q.7-.3 1.5-.3 1.2 0 2.1.4 1 .3 1.4 1 .4.5.6 1.5l-1.7.3q-.1-.8-.7-1.3-.6-.4-1.6-.4-1.2 0-1.7.4t-.5 1q0 .3.2.5.2.3.7.5l1.5.5 2.6.8q.7.3 1.2.9.4.6.4 1.5t-.5 1.7q-.5.7-1.5 1.2-1 .4-2.2.4-2 0-3-.9-1.1-.8-1.4-2.4zm17.8-.3l1.8.2q-.4 1.6-1.6 2.5-1.2.9-3 .9-2.2 0-3.6-1.4-1.3-1.4-1.3-4t1.3-4q1.4-1.5 3.5-1.5t3.4 1.5q1.3 1.4 1.3 4v.4h-7.7q0 1.7 1 2.6.8 1 2.1 1 1 0 1.7-.6.7-.5 1-1.6zm-5.8-2.8h5.8q-.1-1.3-.7-2-.8-1-2.2-1-1.2 0-2 .8t-1 2.2zm9.6 6.1V27.2h1.6v1.6q.6-1.2 1.2-1.5.5-.4 1-.4 1 0 1.9.6l-.6 1.6q-.7-.3-1.3-.3-.6 0-1 .3-.5.4-.7 1-.3.9-.3 2v5.4h-1.8zm6.4-3l1.7-.3q.2 1 .8 1.6.7.5 1.9.5t1.8-.5q.6-.5.6-1.1 0-.6-.5-1l-1.8-.5q-2-.5-2.7-.9-.8-.3-1.2-1-.3-.6-.3-1.4 0-.7.3-1.3.3-.6.8-1l1.2-.4q.7-.3 1.5-.3 1.2 0 2.1.4 1 .3 1.4 1 .4.5.6 1.5l-1.7.3q-.1-.8-.7-1.3-.6-.4-1.6-.4-1.2 0-1.7.4t-.5 1q0 .3.2.5.2.3.7.5l1.5.5 2.6.8q.7.3 1.2.9.4.6.4 1.5t-.5 1.7q-.5.7-1.5 1.2-1 .4-2.2.4-2 0-3-.9-1.1-.8-1.4-2.4z"/></svg>