<svg fill="none" stroke-linecap="square" stroke-miterlimit="10" width="600" height="371" xmlns="http://www.w3.org/2000/svg"><path fill="#fff" d="M0 0h600v371H0V0z"/><path stroke="#333" stroke-linecap="butt" d="M.5 371.5h600"/><path stroke="#ccc" stroke-linecap="butt" d="M.5 296.5h600M.5 222.5h600M.5 148.5h600M.5 74.5h600M.5.5h600"/><clipPath id="a"><path d="M0 0h600v371H0V0z"/></clipPath><path stroke="#434343" stroke-width="4" stroke-linecap="butt" clip-path="url(#a)" d="M50 350l100-35 100-47 100-150 100-60.6 100 .8"/><path fill="#434343" clip-path="url(#a)" d="M54.5 350a4.5 4.5 0 1 1-9 0 4.5 4.5 0 0 1 9 0zM154.5 315a4.5 4.5 0 1 1-9 0 4.5 4.5 0 0 1 9 0zM254.5 268a4.5 4.5 0 1 1-9 0 4.5 4.5 0 0 1 9 0zM354.5 118a4.5 4.5 0 1 1-9 0 4.5 4.5 0 0 1 9 0zM454.5 57.4a4.5 4.5 0 1 1-9 0 4.5 4.5 0 0 1 9 0zM554.5 58.2a4.5 4.5 0 1 1-9 0 4.5 4.5 0 0 1 9 0z"/><path stroke="#fff" stroke-width="3" stroke-linejoin="round" stroke-linecap="round" d="M10.3 310.8H9.2v-7.2l-2.2.8v-1l3.1-1.2h.2v8.6zm8.8-3.6q0 1.9-.7 2.8-.6 1-2 1t-2-1q-.7-.9-.7-2.7v-1.4q0-2 .6-2.8.7-1 2-1 1.4 0 2 1 .7.8.8 2.7v1.4zm-1.1-1.5q0-1.4-.4-2-.4-.7-1.2-.7-.9 0-1.3.7-.3.6-.3 1.9v1.7q0 1.4.4 2 .4.7 1.2.7.8 0 1.2-.6.4-.6.4-2v-1.7zm8 1.5q0 1.9-.6 2.8-.6 1-2 1t-2-1q-.7-.9-.7-2.7v-1.4q0-2 .6-2.8.7-1 2-1 1.4 0 2 1 .7.8.8 2.7v1.4zm-1-1.5q0-1.4-.4-2-.4-.7-1.2-.7-.9 0-1.3.7-.3.6-.3 1.9v1.7q0 1.4.4 2 .4.7 1.2.7.8 0 1.2-.6.4-.6.4-2v-1.7zm8 1.5q0 1.9-.6 2.8-.6 1-2 1t-2-1q-.7-.9-.7-2.7v-1.4q0-2 .6-2.8.7-1 2-1 1.4 0 2 1 .7.8.8 2.7v1.4zm-1-1.5q0-1.4-.4-2-.4-.7-1.2-.7-.9 0-1.3.7-.3.6-.3 1.9v1.7q0 1.4.4 2 .4.7 1.2.7.8 0 1.2-.6.4-.6.4-2v-1.7z"/><path fill="#757575" d="M10.3 310.8H9.2v-7.2l-2.2.8v-1l3.1-1.2h.2v8.6zm8.8-3.6q0 1.9-.7 2.8-.6 1-2 1t-2-1q-.7-.9-.7-2.7v-1.4q0-2 .6-2.8.7-1 2-1 1.4 0 2 1 .7.8.8 2.7v1.4zm-1.1-1.5q0-1.4-.4-2-.4-.7-1.2-.7-.9 0-1.3.7-.3.6-.3 1.9v1.7q0 1.4.4 2 .4.7 1.2.7.8 0 1.2-.6.4-.6.4-2v-1.7zm8 1.5q0 1.9-.6 2.8-.6 1-2 1t-2-1q-.7-.9-.7-2.7v-1.4q0-2 .6-2.8.7-1 2-1 1.4 0 2 1 .7.8.8 2.7v1.4zm-1-1.5q0-1.4-.4-2-.4-.7-1.2-.7-.9 0-1.3.7-.3.6-.3 1.9v1.7q0 1.4.4 2 .4.7 1.2.7.8 0 1.2-.6.4-.6.4-2v-1.7zm8 1.5q0 1.9-.6 2.8-.6 1-2 1t-2-1q-.7-.9-.7-2.7v-1.4q0-2 .6-2.8.7-1 2-1 1.4 0 2 1 .7.8.8 2.7v1.4zm-1-1.5q0-1.4-.4-2-.4-.7-1.2-.7-.9 0-1.3.7-.3.6-.3 1.9v1.7q0 1.4.4 2 .4.7 1.2.7.8 0 1.2-.6.4-.6.4-2v-1.7z"/><path stroke="#fff" stroke-width="3" stroke-linejoin="round" stroke-linecap="round" d="M12.3 236.6H6.7v-.8l3-3.3.9-1.2q.2-.4.2-1t-.4-1q-.4-.5-1-.5-.9 0-1.3.5-.5.5-.5 1.3h-1q0-1.2.7-2 .8-.7 2-.7t2 .7q.6.6.6 1.6 0 1.3-1.6 3L8 235.7h4.3v.9zm6.8-3.6q0 1.9-.7 2.8-.6 1-2 1t-2-1q-.7-.9-.7-2.7v-1.4q0-2 .6-2.8.7-1 2-1 1.4 0 2 1 .7.8.8 2.7v1.4zm-1.1-1.5q0-1.4-.4-2-.4-.7-1.2-.7-.9 0-1.3.7-.3.6-.3 1.9v1.7q0 1.4.4 2 .4.7 1.2.7.8 0 1.2-.6.4-.6.4-2v-1.7zm8 1.5q0 1.9-.6 2.8-.6 1-2 1t-2-1q-.7-.9-.7-2.7v-1.4q0-2 .6-2.8.7-1 2-1 1.4 0 2 1 .7.8.8 2.7v1.4zm-1-1.5q0-1.4-.4-2-.4-.7-1.2-.7-.9 0-1.3.7-.3.6-.3 1.9v1.7q0 1.4.4 2 .4.7 1.2.7.8 0 1.2-.6.4-.6.4-2v-1.7zm8 1.5q0 1.9-.6 2.8-.6 1-2 1t-2-1q-.7-.9-.7-2.7v-1.4q0-2 .6-2.8.7-1 2-1 1.4 0 2 1 .7.8.8 2.7v1.4zm-1-1.5q0-1.4-.4-2-.4-.7-1.2-.7-.9 0-1.3.7-.3.6-.3 1.9v1.7q0 1.4.4 2 .4.7 1.2.7.8 0 1.2-.6.4-.6.4-2v-1.7z"/><path fill="#757575" d="M12.3 236.6H6.7v-.8l3-3.3.9-1.2q.2-.4.2-1t-.4-1q-.4-.5-1-.5-.9 0-1.3.5-.5.5-.5 1.3h-1q0-1.2.7-2 .8-.7 2-.7t2 .7q.6.6.6 1.6 0 1.3-1.6 3L8 235.7h4.3v.9zm6.8-3.6q0 1.9-.7 2.8-.6 1-2 1t-2-1q-.7-.9-.7-2.7v-1.4q0-2 .6-2.8.7-1 2-1 1.4 0 2 1 .7.8.8 2.7v1.4zm-1.1-1.5q0-1.4-.4-2-.4-.7-1.2-.7-.9 0-1.3.7-.3.6-.3 1.9v1.7q0 1.4.4 2 .4.7 1.2.7.8 0 1.2-.6.4-.6.4-2v-1.7zm8 1.5q0 1.9-.6 2.8-.6 1-2 1t-2-1q-.7-.9-.7-2.7v-1.4q0-2 .6-2.8.7-1 2-1 1.4 0 2 1 .7.8.8 2.7v1.4zm-1-1.5q0-1.4-.4-2-.4-.7-1.2-.7-.9 0-1.3.7-.3.6-.3 1.9v1.7q0 1.4.4 2 .4.7 1.2.7.8 0 1.2-.6.4-.6.4-2v-1.7zm8 1.5q0 1.9-.6 2.8-.6 1-2 1t-2-1q-.7-.9-.7-2.7v-1.4q0-2 .6-2.8.7-1 2-1 1.4 0 2 1 .7.8.8 2.7v1.4zm-1-1.5q0-1.4-.4-2-.4-.7-1.2-.7-.9 0-1.3.7-.3.6-.3 1.9v1.7q0 1.4.4 2 .4.7 1.2.7.8 0 1.2-.6.4-.6.4-2v-1.7z"/><path stroke="#fff" stroke-width="3" stroke-linejoin="round" stroke-linecap="round" d="M8.3 157.6H9q.8 0 1.2-.4.4-.4.4-1 0-1.6-1.4-1.6-.8 0-1.2.4-.4.4-.4 1.1h-1q0-1 .7-1.7t1.8-.7q1.3 0 2 .7.6.6.6 1.8 0 .5-.3 1-.4.6-1 .8.7.2 1 .8.5.5.5 1.2 0 1.2-.8 1.9-.7.6-2 .6-1.1 0-1.9-.6-.8-.7-.8-1.8h1.1q0 .7.5 1.1.4.4 1.2.4.7 0 1.2-.4.4-.4.4-1.2 0-.7-.5-1-.4-.5-1.3-.5h-.8v-.9zm10.8 1.2q0 1.9-.7 2.8-.6 1-2 1t-2-1q-.7-.9-.7-2.7v-1.4q0-2 .6-2.8.7-1 2-1 1.4 0 2 1 .7.8.8 2.7v1.4zm-1.1-1.5q0-1.4-.4-2-.4-.7-1.2-.7-.9 0-1.3.7-.3.6-.3 1.9v1.7q0 1.4.4 2 .4.7 1.2.7.8 0 1.2-.6.4-.6.4-2v-1.7zm8 1.5q0 1.9-.6 2.8-.6 1-2 1t-2-1q-.7-.9-.7-2.7v-1.4q0-2 .6-2.8.7-1 2-1 1.4 0 2 1 .7.8.8 2.7v1.4zm-1-1.5q0-1.4-.4-2-.4-.7-1.2-.7-.9 0-1.3.7-.3.6-.3 1.9v1.7q0 1.4.4 2 .4.7 1.2.7.8 0 1.2-.6.4-.6.4-2v-1.7zm8 1.5q0 1.9-.6 2.8-.6 1-2 1t-2-1q-.7-.9-.7-2.7v-1.4q0-2 .6-2.8.7-1 2-1 1.4 0 2 1 .7.8.8 2.7v1.4zm-1-1.5q0-1.4-.4-2-.4-.7-1.2-.7-.9 0-1.3.7-.3.6-.3 1.9v1.7q0 1.4.4 2 .4.7 1.2.7.8 0 1.2-.6.4-.6.4-2v-1.7z"/><path fill="#757575" d="M8.3 157.6H9q.8 0 1.2-.4.4-.4.4-1 0-1.6-1.4-1.6-.8 0-1.2.4-.4.4-.4 1.1h-1q0-1 .7-1.7t1.8-.7q1.3 0 2 .7.6.6.6 1.8 0 .5-.3 1-.4.6-1 .8.7.2 1 .8.5.5.5 1.2 0 1.2-.8 1.9-.7.6-2 .6-1.1 0-1.9-.6-.8-.7-.8-1.8h1.1q0 .7.5 1.1.4.4 1.2.4.7 0 1.2-.4.4-.4.4-1.2 0-.7-.5-1-.4-.5-1.3-.5h-.8v-.9zm10.8 1.2q0 1.9-.7 2.8-.6 1-2 1t-2-1q-.7-.9-.7-2.7v-1.4q0-2 .6-2.8.7-1 2-1 1.4 0 2 1 .7.8.8 2.7v1.4zm-1.1-1.5q0-1.4-.4-2-.4-.7-1.2-.7-.9 0-1.3.7-.3.6-.3 1.9v1.7q0 1.4.4 2 .4.7 1.2.7.8 0 1.2-.6.4-.6.4-2v-1.7zm8 1.5q0 1.9-.6 2.8-.6 1-2 1t-2-1q-.7-.9-.7-2.7v-1.4q0-2 .6-2.8.7-1 2-1 1.4 0 2 1 .7.8.8 2.7v1.4zm-1-1.5q0-1.4-.4-2-.4-.7-1.2-.7-.9 0-1.3.7-.3.6-.3 1.9v1.7q0 1.4.4 2 .4.7 1.2.7.8 0 1.2-.6.4-.6.4-2v-1.7zm8 1.5q0 1.9-.6 2.8-.6 1-2 1t-2-1q-.7-.9-.7-2.7v-1.4q0-2 .6-2.8.7-1 2-1 1.4 0 2 1 .7.8.8 2.7v1.4zm-1-1.5q0-1.4-.4-2-.4-.7-1.2-.7-.9 0-1.3.7-.3.6-.3 1.9v1.7q0 1.4.4 2 .4.7 1.2.7.8 0 1.2-.6.4-.6.4-2v-1.7z"/><path stroke="#fff" stroke-width="3" stroke-linejoin="round" stroke-linecap="round" d="M11.3 85.3h1.2v1h-1.2v1.9h-1.1v-2H6.3v-.6l3.8-6h1.2v5.7zm-3.8 0h2.7v-4.1l-.1.2-2.6 4zm11.6-.7q0 1.9-.7 2.8-.6 1-2 1t-2-1q-.7-.9-.7-2.7v-1.4q0-2 .6-2.8.7-1 2-1 1.4 0 2 1 .7.8.8 2.7v1.4zM18 83q0-1.4-.4-2-.4-.7-1.2-.7-.9 0-1.3.7-.3.6-.3 1.9v1.7q0 1.4.4 2 .4.7 1.2.7.8 0 1.2-.6.4-.6.4-2v-1.7zm8 1.5q0 1.9-.6 2.8-.6 1-2 1t-2-1q-.7-.9-.7-2.7v-1.4q0-2 .6-2.8.7-1 2-1 1.4 0 2 1 .7.8.8 2.7v1.4zM25 83q0-1.4-.4-2-.4-.7-1.2-.7-.9 0-1.3.7-.3.6-.3 1.9v1.7q0 1.4.4 2 .4.7 1.2.7.8 0 1.2-.6.4-.6.4-2v-1.7zm8 1.5q0 1.9-.6 2.8-.6 1-2 1t-2-1q-.7-.9-.7-2.7v-1.4q0-2 .6-2.8.7-1 2-1 1.4 0 2 1 .7.8.8 2.7v1.4zM32 83q0-1.4-.4-2-.4-.7-1.2-.7-.9 0-1.3.7-.3.6-.3 1.9v1.7q0 1.4.4 2 .4.7 1.2.7.8 0 1.2-.6.4-.6.4-2v-1.7z"/><path fill="#757575" d="M11.3 85.3h1.2v1h-1.2v1.9h-1.1v-2H6.3v-.6l3.8-6h1.2v5.7zm-3.8 0h2.7v-4.1l-.1.2-2.6 4zm11.6-.7q0 1.9-.7 2.8-.6 1-2 1t-2-1q-.7-.9-.7-2.7v-1.4q0-2 .6-2.8.7-1 2-1 1.4 0 2 1 .7.8.8 2.7v1.4zM18 83q0-1.4-.4-2-.4-.7-1.2-.7-.9 0-1.3.7-.3.6-.3 1.9v1.7q0 1.4.4 2 .4.7 1.2.7.8 0 1.2-.6.4-.6.4-2v-1.7zm8 1.5q0 1.9-.6 2.8-.6 1-2 1t-2-1q-.7-.9-.7-2.7v-1.4q0-2 .6-2.8.7-1 2-1 1.4 0 2 1 .7.8.8 2.7v1.4zM25 83q0-1.4-.4-2-.4-.7-1.2-.7-.9 0-1.3.7-.3.6-.3 1.9v1.7q0 1.4.4 2 .4.7 1.2.7.8 0 1.2-.6.4-.6.4-2v-1.7zm8 1.5q0 1.9-.6 2.8-.6 1-2 1t-2-1q-.7-.9-.7-2.7v-1.4q0-2 .6-2.8.7-1 2-1 1.4 0 2 1 .7.8.8 2.7v1.4zM32 83q0-1.4-.4-2-.4-.7-1.2-.7-.9 0-1.3.7-.3.6-.3 1.9v1.7q0 1.4.4 2 .4.7 1.2.7.8 0 1.2-.6.4-.6.4-2v-1.7z"/><path stroke="#fff" stroke-width="3" stroke-linejoin="round" stroke-linecap="round" d="M28 362h-1v-6.3h1v6.3zm-1.2-8q0-.3.2-.5t.5-.2q.3 0 .4.2.2.2.2.5l-.2.4q-.1.2-.4.2-.3 0-.5-.2l-.2-.4zm4.3 4.7v3.3H30v-8.5H33q1.4 0 2.2.7.8.7.8 1.9t-.8 1.9q-.7.7-2.2.7h-2zm0-1h2q1 0 1.4-.4.5-.4.5-1.2 0-.8-.5-1.2-.5-.5-1.3-.5h-2v3.3zm7.8-1.3q.7-.9 1.9-.9 2 0 2 2.3v4.2h-1v-4.2q0-.7-.4-1-.3-.3-1-.3-.5 0-.9.3-.4.2-.6.7v4.5h-1v-9h1v3.4zm5.6 2.4q0-1 .4-1.7.4-.8 1-1.1.7-.5 1.5-.5 1.3 0 2.1 1 .8.8.8 2.3v.1q0 1-.3 1.7-.4.7-1 1.1-.7.4-1.6.4-1.3 0-2-.9-.9-.9-.9-2.4zm1.1.1q0 1 .5 1.7.5.6 1.3.6.9 0 1.3-.6.5-.7.5-1.8 0-1-.5-1.7t-1.3-.7q-.8 0-1.3.7-.5.6-.5 1.8zm7.2-3.2v.8q.8-1 2-1 2 0 2 2.3v4.2h-1v-4.2q0-.7-.4-1-.3-.3-1-.3-.5 0-.9.3-.4.2-.6.7v4.5h-1v-6.3h1zm8.7 6.4q-1.3 0-2.2-.8-.8-.9-.8-2.3v-.2q0-1 .4-1.7t1-1.1q.7-.5 1.4-.5 1.2 0 2 .9.6.8.6 2.3v.4h-4.3q0 1 .6 1.6.5.5 1.3.5.6 0 1-.2t.7-.6l.6.5q-.8 1.2-2.3 1.2zm-.2-5.7q-.6 0-1.1.5-.4.5-.5 1.4h3.1v-.1q0-.9-.4-1.3-.4-.5-1-.5zm11 2.7h1.2v1h-1.2v1.9h-1.1v-2h-3.9v-.6l3.8-6h1.2v5.7zm-3.8 0h2.7V355l-.1.2-2.6 4z"/><path fill="#757575" d="M28 362h-1v-6.3h1v6.3zm-1.2-8q0-.3.2-.5t.5-.2q.3 0 .4.2.2.2.2.5l-.2.4q-.1.2-.4.2-.3 0-.5-.2l-.2-.4zm4.3 4.7v3.3H30v-8.5H33q1.4 0 2.2.7.8.7.8 1.9t-.8 1.9q-.7.7-2.2.7h-2zm0-1h2q1 0 1.4-.4.5-.4.5-1.2 0-.8-.5-1.2-.5-.5-1.3-.5h-2v3.3zm7.8-1.3q.7-.9 1.9-.9 2 0 2 2.3v4.2h-1v-4.2q0-.7-.4-1-.3-.3-1-.3-.5 0-.9.3-.4.2-.6.7v4.5h-1v-9h1v3.4zm5.6 2.4q0-1 .4-1.7.4-.8 1-1.1.7-.5 1.5-.5 1.3 0 2.1 1 .8.8.8 2.3v.1q0 1-.3 1.7-.4.7-1 1.1-.7.4-1.6.4-1.3 0-2-.9-.9-.9-.9-2.4zm1.1.1q0 1 .5 1.7.5.6 1.3.6.9 0 1.3-.6.5-.7.5-1.8 0-1-.5-1.7t-1.3-.7q-.8 0-1.3.7-.5.6-.5 1.8zm7.2-3.2v.8q.8-1 2-1 2 0 2 2.3v4.2h-1v-4.2q0-.7-.4-1-.3-.3-1-.3-.5 0-.9.3-.4.2-.6.7v4.5h-1v-6.3h1zm8.7 6.4q-1.3 0-2.2-.8-.8-.9-.8-2.3v-.2q0-1 .4-1.7t1-1.1q.7-.5 1.4-.5 1.2 0 2 .9.6.8.6 2.3v.4h-4.3q0 1 .6 1.6.5.5 1.3.5.6 0 1-.2t.7-.6l.6.5q-.8 1.2-2.3 1.2zm-.2-5.7q-.6 0-1.1.5-.4.5-.5 1.4h3.1v-.1q0-.9-.4-1.3-.4-.5-1-.5zm11 2.7h1.2v1h-1.2v1.9h-1.1v-2h-3.9v-.6l3.8-6h1.2v5.7zm-3.8 0h2.7V355l-.1.2-2.6 4z"/><path stroke="#fff" stroke-width="3" stroke-linejoin="round" stroke-linecap="round" d="M128 362h-1v-6.3h1v6.3zm-1.2-8q0-.3.2-.5t.5-.2q.3 0 .4.2.2.2.2.5l-.2.4q-.1.2-.4.2-.3 0-.5-.2l-.2-.4zm4.3 4.7v3.3H130v-8.5h3.1q1.4 0 2.2.7.8.7.8 1.9t-.8 1.9q-.7.7-2.2.7h-2zm0-1h2q1 0 1.4-.4.5-.4.5-1.2 0-.8-.5-1.2-.5-.5-1.3-.5h-2v3.3zm7.8-1.3q.7-.9 1.9-.9 2 0 2 2.3v4.2h-1v-4.2q0-.7-.4-1-.3-.3-1-.3-.5 0-.9.3-.4.2-.6.7v4.5h-1v-9h1v3.4zm5.6 2.4q0-1 .4-1.7.4-.8 1-1.1.7-.5 1.5-.5 1.3 0 2.1 1 .8.8.8 2.3v.1q0 1-.3 1.7-.4.7-1 1.1-.7.4-1.6.4-1.3 0-2-.9-.9-.9-.9-2.4zm1.1.1q0 1 .5 1.7.5.6 1.3.6t1.3-.6q.5-.7.5-1.8 0-1-.5-1.7t-1.3-.7q-.8 0-1.3.7-.5.6-.5 1.8zm7.2-3.2v.8q.8-1 2-1 2 0 2 2.3v4.2h-1v-4.2q0-.7-.4-1-.3-.3-1-.3-.5 0-.9.3-.4.2-.6.7v4.5h-1v-6.3h1zm8.7 6.4q-1.3 0-2.2-.8-.8-.9-.8-2.3v-.2q0-1 .4-1.7t1-1.1q.7-.5 1.4-.5 1.2 0 2 .9.6.8.6 2.3v.4h-4.3q0 1 .6 1.6.5.5 1.3.5.6 0 1-.2t.7-.6l.6.5q-.8 1.2-2.3 1.2zm-.2-5.7q-.6 0-1.1.5-.4.5-.5 1.4h3.1v-.1q0-.9-.4-1.3-.4-.5-1-.5zm6.9 1.3l.4-4.2h4.4v1h-3.4l-.3 2.3q.6-.4 1.4-.4 1.2 0 1.9.8t.7 2q0 1.4-.8 2.2-.7.7-2 .7-1 0-1.8-.6-.7-.6-.8-1.8h1q.1.8.6 1.2.4.3 1 .3.8 0 1.3-.5.4-.5.4-1.4 0-.9-.5-1.4-.4-.5-1.2-.5-.7 0-1.1.3l-.3.2-.9-.2z"/><path fill="#757575" d="M128 362h-1v-6.3h1v6.3zm-1.2-8q0-.3.2-.5t.5-.2q.3 0 .4.2.2.2.2.5l-.2.4q-.1.2-.4.2-.3 0-.5-.2l-.2-.4zm4.3 4.7v3.3H130v-8.5h3.1q1.4 0 2.2.7.8.7.8 1.9t-.8 1.9q-.7.7-2.2.7h-2zm0-1h2q1 0 1.4-.4.5-.4.5-1.2 0-.8-.5-1.2-.5-.5-1.3-.5h-2v3.3zm7.8-1.3q.7-.9 1.9-.9 2 0 2 2.3v4.2h-1v-4.2q0-.7-.4-1-.3-.3-1-.3-.5 0-.9.3-.4.2-.6.7v4.5h-1v-9h1v3.4zm5.6 2.4q0-1 .4-1.7.4-.8 1-1.1.7-.5 1.5-.5 1.3 0 2.1 1 .8.8.8 2.3v.1q0 1-.3 1.7-.4.7-1 1.1-.7.4-1.6.4-1.3 0-2-.9-.9-.9-.9-2.4zm1.1.1q0 1 .5 1.7.5.6 1.3.6t1.3-.6q.5-.7.5-1.8 0-1-.5-1.7t-1.3-.7q-.8 0-1.3.7-.5.6-.5 1.8zm7.2-3.2v.8q.8-1 2-1 2 0 2 2.3v4.2h-1v-4.2q0-.7-.4-1-.3-.3-1-.3-.5 0-.9.3-.4.2-.6.7v4.5h-1v-6.3h1zm8.7 6.4q-1.3 0-2.2-.8-.8-.9-.8-2.3v-.2q0-1 .4-1.7t1-1.1q.7-.5 1.4-.5 1.2 0 2 .9.6.8.6 2.3v.4h-4.3q0 1 .6 1.6.5.5 1.3.5.6 0 1-.2t.7-.6l.6.5q-.8 1.2-2.3 1.2zm-.2-5.7q-.6 0-1.1.5-.4.5-.5 1.4h3.1v-.1q0-.9-.4-1.3-.4-.5-1-.5zm6.9 1.3l.4-4.2h4.4v1h-3.4l-.3 2.3q.6-.4 1.4-.4 1.2 0 1.9.8t.7 2q0 1.4-.8 2.2-.7.7-2 .7-1 0-1.8-.6-.7-.6-.8-1.8h1q.1.8.6 1.2.4.3 1 .3.8 0 1.3-.5.4-.5.4-1.4 0-.9-.5-1.4-.4-.5-1.2-.5-.7 0-1.1.3l-.3.2-.9-.2z"/><path stroke="#fff" stroke-width="3" stroke-linejoin="round" stroke-linecap="round" d="M228 362h-1v-6.3h1v6.3zm-1.2-8q0-.3.2-.5t.5-.2q.3 0 .4.2.2.2.2.5l-.2.4q-.1.2-.4.2-.3 0-.5-.2l-.2-.4zm4.3 4.7v3.3H230v-8.5h3.1q1.4 0 2.2.7.8.7.8 1.9t-.8 1.9q-.7.7-2.2.7h-2zm0-1h2q1 0 1.4-.4.5-.4.5-1.2 0-.8-.5-1.2-.5-.5-1.3-.5h-2v3.3zm7.8-1.3q.7-.9 1.9-.9 2 0 2 2.3v4.2h-1v-4.2q0-.7-.4-1-.3-.3-1-.3-.5 0-.9.3-.4.2-.6.7v4.5h-1v-9h1v3.4zm5.6 2.4q0-1 .4-1.7.4-.8 1-1.1.7-.5 1.5-.5 1.3 0 2.1 1 .8.8.8 2.3v.1q0 1-.3 1.7-.4.7-1 1.1-.7.4-1.6.4-1.3 0-2-.9-.9-.9-.9-2.4zm1.1.1q0 1 .5 1.7.5.6 1.3.6t1.3-.6q.5-.7.5-1.8 0-1-.5-1.7t-1.3-.7q-.8 0-1.3.7-.5.6-.5 1.8zm7.2-3.2v.8q.8-1 2-1 2 0 2 2.3v4.2h-1v-4.2q0-.7-.4-1-.3-.3-1-.3-.5 0-.9.3-.4.2-.6.7v4.5h-1v-6.3h1zm8.7 6.4q-1.3 0-2.2-.8-.8-.9-.8-2.3v-.2q0-1 .4-1.7t1-1.1q.7-.5 1.4-.5 1.2 0 2 .9.6.8.6 2.3v.4h-4.3q0 1 .6 1.6.5.5 1.3.5.6 0 1-.2t.7-.6l.6.5q-.8 1.2-2.3 1.2zm-.2-5.7q-.6 0-1.1.5-.4.5-.5 1.4h3.1v-.1q0-.9-.4-1.3-.4-.5-1-.5zm10.7-3v1h-.2q-1.3 0-2 .7-.8.8-1 2 .8-.7 2-.7 1 0 1.7.8t.7 2q0 1.3-.7 2.1-.8.8-2 .8t-2-1q-.7-.9-.7-2.4v-.4q0-2.3 1-3.6 1-1.2 3-1.2h.2zm-1.5 4l-1 .2q-.5.4-.6.9v.4q0 1 .4 1.7.5.6 1.2.6.8 0 1.2-.5.4-.6.4-1.4 0-1-.4-1.4-.4-.6-1.2-.6z"/><path fill="#757575" d="M228 362h-1v-6.3h1v6.3zm-1.2-8q0-.3.2-.5t.5-.2q.3 0 .4.2.2.2.2.5l-.2.4q-.1.2-.4.2-.3 0-.5-.2l-.2-.4zm4.3 4.7v3.3H230v-8.5h3.1q1.4 0 2.2.7.8.7.8 1.9t-.8 1.9q-.7.7-2.2.7h-2zm0-1h2q1 0 1.4-.4.5-.4.5-1.2 0-.8-.5-1.2-.5-.5-1.3-.5h-2v3.3zm7.8-1.3q.7-.9 1.9-.9 2 0 2 2.3v4.2h-1v-4.2q0-.7-.4-1-.3-.3-1-.3-.5 0-.9.3-.4.2-.6.7v4.5h-1v-9h1v3.4zm5.6 2.4q0-1 .4-1.7.4-.8 1-1.1.7-.5 1.5-.5 1.3 0 2.1 1 .8.8.8 2.3v.1q0 1-.3 1.7-.4.7-1 1.1-.7.4-1.6.4-1.3 0-2-.9-.9-.9-.9-2.4zm1.1.1q0 1 .5 1.7.5.6 1.3.6t1.3-.6q.5-.7.5-1.8 0-1-.5-1.7t-1.3-.7q-.8 0-1.3.7-.5.6-.5 1.8zm7.2-3.2v.8q.8-1 2-1 2 0 2 2.3v4.2h-1v-4.2q0-.7-.4-1-.3-.3-1-.3-.5 0-.9.3-.4.2-.6.7v4.5h-1v-6.3h1zm8.7 6.4q-1.3 0-2.2-.8-.8-.9-.8-2.3v-.2q0-1 .4-1.7t1-1.1q.7-.5 1.4-.5 1.2 0 2 .9.6.8.6 2.3v.4h-4.3q0 1 .6 1.6.5.5 1.3.5.6 0 1-.2t.7-.6l.6.5q-.8 1.2-2.3 1.2zm-.2-5.7q-.6 0-1.1.5-.4.5-.5 1.4h3.1v-.1q0-.9-.4-1.3-.4-.5-1-.5zm10.7-3v1h-.2q-1.3 0-2 .7-.8.8-1 2 .8-.7 2-.7 1 0 1.7.8t.7 2q0 1.3-.7 2.1-.8.8-2 .8t-2-1q-.7-.9-.7-2.4v-.4q0-2.3 1-3.6 1-1.2 3-1.2h.2zm-1.5 4l-1 .2q-.5.4-.6.9v.4q0 1 .4 1.7.5.6 1.2.6.8 0 1.2-.5.4-.6.4-1.4 0-1-.4-1.4-.4-.6-1.2-.6z"/><path stroke="#fff" stroke-width="3" stroke-linejoin="round" stroke-linecap="round" d="M328 362h-1v-6.3h1v6.3zm-1.2-8q0-.3.2-.5t.5-.2q.3 0 .4.2.2.2.2.5l-.2.4q-.1.2-.4.2-.3 0-.5-.2l-.2-.4zm4.3 4.7v3.3H330v-8.5h3.1q1.4 0 2.2.7.8.7.8 1.9t-.8 1.9q-.7.7-2.2.7h-2zm0-1h2q1 0 1.4-.4.5-.4.5-1.2 0-.8-.5-1.2-.5-.5-1.3-.5h-2v3.3zm7.8-1.3q.7-.9 1.9-.9 2 0 2 2.3v4.2h-1v-4.2q0-.7-.4-1-.3-.3-1-.3-.5 0-.9.3-.4.2-.6.7v4.5h-1v-9h1v3.4zm5.6 2.4q0-1 .4-1.7.4-.8 1-1.1.7-.5 1.5-.5 1.3 0 2.1 1 .8.8.8 2.3v.1q0 1-.3 1.7-.4.7-1 1.1-.7.4-1.6.4-1.3 0-2-.9-.9-.9-.9-2.4zm1.1.1q0 1 .5 1.7.5.6 1.3.6.9 0 1.3-.6.5-.7.5-1.8 0-1-.5-1.7t-1.3-.7q-.8 0-1.3.7-.5.6-.5 1.8zm7.2-3.2v.8q.8-1 2-1 2 0 2 2.3v4.2h-1v-4.2q0-.7-.4-1-.3-.3-1-.3-.5 0-.9.3-.4.2-.6.7v4.5h-1v-6.3h1zm8.7 6.4q-1.3 0-2.2-.8-.8-.9-.8-2.3v-.2q0-1 .4-1.7t1-1.1q.7-.5 1.4-.5 1.2 0 2 .9.6.8.6 2.3v.4h-4.3q0 1 .6 1.6.5.5 1.3.5.6 0 1-.2t.7-.6l.6.5q-.8 1.2-2.3 1.2zm-.2-5.7q-.6 0-1.1.5-.4.5-.5 1.4h3.1v-.1q0-.9-.4-1.3-.4-.5-1-.5zm12-2.3l-3.6 7.9h-1.2l3.6-7.6h-4.6v-1h5.7v.7z"/><path fill="#757575" d="M328 362h-1v-6.3h1v6.3zm-1.2-8q0-.3.2-.5t.5-.2q.3 0 .4.2.2.2.2.5l-.2.4q-.1.2-.4.2-.3 0-.5-.2l-.2-.4zm4.3 4.7v3.3H330v-8.5h3.1q1.4 0 2.2.7.8.7.8 1.9t-.8 1.9q-.7.7-2.2.7h-2zm0-1h2q1 0 1.4-.4.5-.4.5-1.2 0-.8-.5-1.2-.5-.5-1.3-.5h-2v3.3zm7.8-1.3q.7-.9 1.9-.9 2 0 2 2.3v4.2h-1v-4.2q0-.7-.4-1-.3-.3-1-.3-.5 0-.9.3-.4.2-.6.7v4.5h-1v-9h1v3.4zm5.6 2.4q0-1 .4-1.7.4-.8 1-1.1.7-.5 1.5-.5 1.3 0 2.1 1 .8.8.8 2.3v.1q0 1-.3 1.7-.4.7-1 1.1-.7.4-1.6.4-1.3 0-2-.9-.9-.9-.9-2.4zm1.1.1q0 1 .5 1.7.5.6 1.3.6.9 0 1.3-.6.5-.7.5-1.8 0-1-.5-1.7t-1.3-.7q-.8 0-1.3.7-.5.6-.5 1.8zm7.2-3.2v.8q.8-1 2-1 2 0 2 2.3v4.2h-1v-4.2q0-.7-.4-1-.3-.3-1-.3-.5 0-.9.3-.4.2-.6.7v4.5h-1v-6.3h1zm8.7 6.4q-1.3 0-2.2-.8-.8-.9-.8-2.3v-.2q0-1 .4-1.7t1-1.1q.7-.5 1.4-.5 1.2 0 2 .9.6.8.6 2.3v.4h-4.3q0 1 .6 1.6.5.5 1.3.5.6 0 1-.2t.7-.6l.6.5q-.8 1.2-2.3 1.2zm-.2-5.7q-.6 0-1.1.5-.4.5-.5 1.4h3.1v-.1q0-.9-.4-1.3-.4-.5-1-.5zm12-2.3l-3.6 7.9h-1.2l3.6-7.6h-4.6v-1h5.7v.7z"/><path stroke="#fff" stroke-width="3" stroke-linejoin="round" stroke-linecap="round" d="M428 362h-1v-6.3h1v6.3zm-1.2-8q0-.3.2-.5t.5-.2q.3 0 .4.2.2.2.2.5l-.2.4q-.1.2-.4.2-.3 0-.5-.2l-.2-.4zm4.3 4.7v3.3H430v-8.5h3.1q1.4 0 2.2.7.8.7.8 1.9t-.8 1.9q-.7.7-2.2.7h-2zm0-1h2q1 0 1.4-.4.5-.4.5-1.2 0-.8-.5-1.2-.5-.5-1.3-.5h-2v3.3zm7.8-1.3q.7-.9 1.9-.9 2 0 2 2.3v4.2h-1v-4.2q0-.7-.4-1-.3-.3-1-.3-.5 0-.9.3-.4.2-.6.7v4.5h-1v-9h1v3.4zm5.6 2.4q0-1 .4-1.7.4-.8 1-1.1.7-.5 1.5-.5 1.3 0 2.1 1 .8.8.8 2.3v.1q0 1-.3 1.7-.4.7-1 1.1-.7.4-1.6.4-1.3 0-2-.9-.9-.9-.9-2.4zm1.1.1q0 1 .5 1.7.5.6 1.3.6.9 0 1.3-.6.5-.7.5-1.8 0-1-.5-1.7t-1.3-.7q-.8 0-1.3.7-.5.6-.5 1.8zm7.2-3.2v.8q.8-1 2-1 2 0 2 2.3v4.2h-1v-4.2q0-.7-.4-1-.3-.3-1-.3-.5 0-.9.3-.4.2-.6.7v4.5h-1v-6.3h1zm8.7 6.4q-1.3 0-2.2-.8-.8-.9-.8-2.3v-.2q0-1 .4-1.7t1-1.1q.7-.5 1.4-.5 1.2 0 2 .9.6.8.6 2.3v.4h-4.3q0 1 .6 1.6.5.5 1.3.5.6 0 1-.2t.7-.6l.6.5q-.8 1.2-2.3 1.2zm-.2-5.7q-.6 0-1.1.5-.4.5-.5 1.4h3.1v-.1q0-.9-.4-1.3-.4-.5-1-.5zm11.6-.7q0 .6-.4 1.1-.3.5-.9.8.7.3 1 .9.5.5.5 1.2 0 1.1-.8 1.8-.7.6-2 .6-1.2 0-2-.6-.6-.7-.6-1.8 0-.7.3-1.2.4-.6 1-.9-.5-.3-.8-.8-.3-.5-.3-1.1 0-1 .6-1.7.7-.7 1.9-.7 1.1 0 1.8.7.7.6.7 1.7zm-.9 4q0-.7-.5-1.2-.4-.4-1.1-.4-.8 0-1.2.4-.5.5-.5 1.2t.5 1.1q.4.4 1.2.4.7 0 1.2-.4.4-.4.4-1.1zm-1.6-5.5q-.7 0-1 .4-.5.4-.5 1.1 0 .7.4 1 .4.5 1 .5.7 0 1.1-.4.4-.4.4-1 0-.7-.4-1.1-.4-.5-1-.5z"/><path fill="#757575" d="M428 362h-1v-6.3h1v6.3zm-1.2-8q0-.3.2-.5t.5-.2q.3 0 .4.2.2.2.2.5l-.2.4q-.1.2-.4.2-.3 0-.5-.2l-.2-.4zm4.3 4.7v3.3H430v-8.5h3.1q1.4 0 2.2.7.8.7.8 1.9t-.8 1.9q-.7.7-2.2.7h-2zm0-1h2q1 0 1.4-.4.5-.4.5-1.2 0-.8-.5-1.2-.5-.5-1.3-.5h-2v3.3zm7.8-1.3q.7-.9 1.9-.9 2 0 2 2.3v4.2h-1v-4.2q0-.7-.4-1-.3-.3-1-.3-.5 0-.9.3-.4.2-.6.7v4.5h-1v-9h1v3.4zm5.6 2.4q0-1 .4-1.7.4-.8 1-1.1.7-.5 1.5-.5 1.3 0 2.1 1 .8.8.8 2.3v.1q0 1-.3 1.7-.4.7-1 1.1-.7.4-1.6.4-1.3 0-2-.9-.9-.9-.9-2.4zm1.1.1q0 1 .5 1.7.5.6 1.3.6.9 0 1.3-.6.5-.7.5-1.8 0-1-.5-1.7t-1.3-.7q-.8 0-1.3.7-.5.6-.5 1.8zm7.2-3.2v.8q.8-1 2-1 2 0 2 2.3v4.2h-1v-4.2q0-.7-.4-1-.3-.3-1-.3-.5 0-.9.3-.4.2-.6.7v4.5h-1v-6.3h1zm8.7 6.4q-1.3 0-2.2-.8-.8-.9-.8-2.3v-.2q0-1 .4-1.7t1-1.1q.7-.5 1.4-.5 1.2 0 2 .9.6.8.6 2.3v.4h-4.3q0 1 .6 1.6.5.5 1.3.5.6 0 1-.2t.7-.6l.6.5q-.8 1.2-2.3 1.2zm-.2-5.7q-.6 0-1.1.5-.4.5-.5 1.4h3.1v-.1q0-.9-.4-1.3-.4-.5-1-.5zm11.6-.7q0 .6-.4 1.1-.3.5-.9.8.7.3 1 .9.5.5.5 1.2 0 1.1-.8 1.8-.7.6-2 .6-1.2 0-2-.6-.6-.7-.6-1.8 0-.7.3-1.2.4-.6 1-.9-.5-.3-.8-.8-.3-.5-.3-1.1 0-1 .6-1.7.7-.7 1.9-.7 1.1 0 1.8.7.7.6.7 1.7zm-.9 4q0-.7-.5-1.2-.4-.4-1.1-.4-.8 0-1.2.4-.5.5-.5 1.2t.5 1.1q.4.4 1.2.4.7 0 1.2-.4.4-.4.4-1.1zm-1.6-5.5q-.7 0-1 .4-.5.4-.5 1.1 0 .7.4 1 .4.5 1 .5.7 0 1.1-.4.4-.4.4-1 0-.7-.4-1.1-.4-.5-1-.5z"/><path stroke="#fff" stroke-width="3" stroke-linejoin="round" stroke-linecap="round" d="M527.5 362h-1v-6.3h1v6.3zm-1.2-8q0-.3.2-.5t.5-.2q.3 0 .4.2.2.2.2.5l-.2.4q-.1.2-.4.2-.3 0-.5-.2l-.2-.4zm4.3 4.7v3.3h-1.1v-8.5h3.1q1.4 0 2.2.7.8.7.8 1.9t-.8 1.9q-.7.7-2.2.7h-2zm0-1h2q1 0 1.4-.4.5-.4.5-1.2 0-.8-.5-1.2-.5-.5-1.3-.5h-2v3.3zm7.8-1.3q.7-.9 1.9-.9 2 0 2 2.3v4.2h-1v-4.2q0-.7-.4-1-.3-.3-1-.3-.5 0-.9.3-.4.2-.6.7v4.5h-1v-9h1v3.4zm5.6 2.4q0-1 .4-1.7.4-.8 1-1.1.7-.5 1.5-.5 1.3 0 2.1 1 .8.8.8 2.3v.1q0 1-.3 1.7-.4.7-1 1.1-.7.4-1.6.4-1.3 0-2-.9-.9-.9-.9-2.4zm1.1.1q0 1 .5 1.7.5.6 1.3.6.9 0 1.3-.6.5-.7.5-1.8 0-1-.5-1.7t-1.3-.7q-.8 0-1.3.7-.5.6-.5 1.8zm7.2-3.2v.8q.8-1 2-1 2 0 2 2.3v4.2h-1v-4.2q0-.7-.4-1-.3-.3-1-.3-.5 0-.9.3-.4.2-.6.7v4.5h-1v-6.3h1zm8.7 6.4q-1.3 0-2.2-.8-.8-.9-.8-2.3v-.2q0-1 .4-1.7t1-1.1q.7-.5 1.4-.5 1.2 0 2 .9.6.8.6 2.3v.4h-4.3q0 1 .6 1.6.5.5 1.3.5.6 0 1-.2t.7-.6l.6.5q-.8 1.2-2.3 1.2zm-.2-5.7q-.6 0-1.1.5-.4.5-.5 1.4h3.1v-.1q0-.9-.4-1.3-.4-.5-1-.5zm9.5.3l2-3.2h1.3l-2.6 4.2 2.7 4.3h-1.3l-2.1-3.3-2.1 3.3h-1.4l2.8-4.3-2.7-4.2h1.3l2 3.2z"/><path fill="#757575" d="M527.5 362h-1v-6.3h1v6.3zm-1.2-8q0-.3.2-.5t.5-.2q.3 0 .4.2.2.2.2.5l-.2.4q-.1.2-.4.2-.3 0-.5-.2l-.2-.4zm4.3 4.7v3.3h-1.1v-8.5h3.1q1.4 0 2.2.7.8.7.8 1.9t-.8 1.9q-.7.7-2.2.7h-2zm0-1h2q1 0 1.4-.4.5-.4.5-1.2 0-.8-.5-1.2-.5-.5-1.3-.5h-2v3.3zm7.8-1.3q.7-.9 1.9-.9 2 0 2 2.3v4.2h-1v-4.2q0-.7-.4-1-.3-.3-1-.3-.5 0-.9.3-.4.2-.6.7v4.5h-1v-9h1v3.4zm5.6 2.4q0-1 .4-1.7.4-.8 1-1.1.7-.5 1.5-.5 1.3 0 2.1 1 .8.8.8 2.3v.1q0 1-.3 1.7-.4.7-1 1.1-.7.4-1.6.4-1.3 0-2-.9-.9-.9-.9-2.4zm1.1.1q0 1 .5 1.7.5.6 1.3.6.9 0 1.3-.6.5-.7.5-1.8 0-1-.5-1.7t-1.3-.7q-.8 0-1.3.7-.5.6-.5 1.8zm7.2-3.2v.8q.8-1 2-1 2 0 2 2.3v4.2h-1v-4.2q0-.7-.4-1-.3-.3-1-.3-.5 0-.9.3-.4.2-.6.7v4.5h-1v-6.3h1zm8.7 6.4q-1.3 0-2.2-.8-.8-.9-.8-2.3v-.2q0-1 .4-1.7t1-1.1q.7-.5 1.4-.5 1.2 0 2 .9.6.8.6 2.3v.4h-4.3q0 1 .6 1.6.5.5 1.3.5.6 0 1-.2t.7-.6l.6.5q-.8 1.2-2.3 1.2zm-.2-5.7q-.6 0-1.1.5-.4.5-.5 1.4h3.1v-.1q0-.9-.4-1.3-.4-.5-1-.5zm9.5.3l2-3.2h1.3l-2.6 4.2 2.7 4.3h-1.3l-2.1-3.3-2.1 3.3h-1.4l2.8-4.3-2.7-4.2h1.3l2 3.2z"/><path stroke="#fff" stroke-width="3" stroke-linejoin="round" stroke-linecap="round" d="M15.9 20.9q-.8 1-2 1.5-1.3.5-3 .5-1.8 0-3.2-.8-1.3-.8-2-2.3-.8-1.5-.8-3.5V15q0-3.2 1.5-5 1.5-1.7 4.2-1.7 2.2 0 3.6 1.1 1.4 1.2 1.7 3.3h-2q-.4-2.9-3.3-2.9-1.9 0-2.8 1.4-1 1.3-1 3.8v1.2q0 2.4 1 3.8 1.2 1.4 3 1.4 1.1 0 1.9-.3.8-.2 1.3-.7V17h-3.3v-1.5H16V21zm7.6 2q-2.2 0-3.5-1.4-1.4-1.4-1.4-3.8v-.3q0-1.6.6-2.8.6-1.2 1.7-2 1-.7 2.3-.7 2.1 0 3.2 1.4 1.2 1.4 1.2 3.9v.7h-7.2q0 1.6 1 2.6.8 1 2.2 1 1 0 1.6-.5.7-.4 1.2-1l1 .9q-1.3 2-4 2zm-.3-9.5q-1 0-1.8.8-.7.8-1 2.3h5.4v-.2q-.1-1.4-.8-2.1-.6-.8-1.8-.8zM34.5 23q-2.2 0-3.5-1.4-1.4-1.4-1.4-3.8v-.3q0-1.6.6-2.8.6-1.2 1.7-2 1-.7 2.3-.7 2.1 0 3.2 1.4 1.2 1.4 1.2 3.9v.7h-7.2q0 1.6 1 2.6.8 1 2.2 1 1 0 1.6-.5.7-.4 1.2-1l1 .9q-1.3 2-4 2zm-.3-9.5q-1 0-1.8.8-.7.8-1 2.3h5.4v-.2q-.1-1.4-.8-2.1-.6-.8-1.8-.8zm9.8 4.4L43 19v3.7h-1.8v-15h1.8v9l1-1L47 12h2.3l-4.2 4.5 4.6 6.1h-2L44 17.8zm16-.3q0 2.5-1 4-1.2 1.4-3 1.4-2 0-3.2-1.4v1.2H51v-15h1.8v5.6q1-1.4 3-1.4t3 1.5q1.1 1.5 1.1 4v.1zm-1.8-.2q0-1.8-.7-2.8-.7-1-2-1-1.8 0-2.6 1.6v4.6q.8 1.7 2.6 1.7 1.3 0 2-1t.7-3zm8.3 5.6q-2.2 0-3.5-1.4-1.4-1.4-1.4-3.8v-.3q0-1.6.6-2.8.6-1.2 1.7-2 1-.7 2.3-.7 2.1 0 3.2 1.4 1.2 1.4 1.2 3.9v.7h-7.2q0 1.6 1 2.6.8 1 2.2 1 1 0 1.6-.5.7-.4 1.2-1l1 .9q-1.3 2-4 2zm-.3-9.5q-1 0-1.8.8-.7.8-1 2.3h5.4v-.2q-.1-1.4-.8-2.1-.6-.8-1.8-.8zm8.6-1.3v1.4q1.3-1.6 3.2-1.6 3.4 0 3.4 3.8v7h-1.8v-7q0-1.1-.5-1.7-.5-.5-1.6-.5-1 0-1.6.4-.6.5-1 1.3v7.5H73V12.1h1.7zm13.5 9.3q1 0 1.7-.5.7-.6.8-1.5h1.7q0 .9-.6 1.7-.6.8-1.5 1.3-1 .5-2 .5-2.2 0-3.5-1.4-1.3-1.5-1.3-4v-.3q0-1.5.6-2.7.5-1.2 1.6-1.9 1-.7 2.5-.7 1.8 0 3 1.1 1.1 1 1.2 2.8h-1.7q0-1-.8-1.7-.7-.7-1.7-.7-1.4 0-2.1 1-.8 1-.8 2.9v.3q0 1.9.8 2.8.7 1 2.1 1zm7.6-8Q97 12 99 12q3.4 0 3.4 3.8v7h-1.8v-7q0-1.1-.5-1.7-.5-.5-1.6-.5-1 0-1.6.4-.6.5-1 1.3v7.5H94v-15h1.8v5.7zm20.3 6.5q0-.7-.5-1.1-.6-.4-2-.7-1.3-.3-2.1-.7-.8-.4-1.2-1-.4-.6-.4-1.4 0-1.3 1.1-2.1 1-1 2.8-1 1.8 0 3 1 1 .9 1 2.3h-1.8q0-.7-.6-1.2-.6-.6-1.6-.6t-1.5.5q-.6.4-.6 1 0 .7.5 1 .5.4 1.9.7 1.4.3 2.2.7.8.4 1.2 1 .4.6.4 1.5 0 1.4-1.1 2.3-1.1.8-3 .8-1.2 0-2.2-.4-1-.5-1.5-1.3-.6-.8-.6-1.7h1.8q0 .9.8 1.4.7.5 1.8.5 1 0 1.6-.4.6-.4.6-1zm8.1 1.5q1 0 1.7-.5.7-.6.8-1.5h1.7q0 .9-.6 1.7-.6.8-1.5 1.3-1 .5-2 .5-2.2 0-3.5-1.4-1.3-1.5-1.3-4v-.3q0-1.5.6-2.7.5-1.2 1.6-1.9 1-.7 2.5-.7 1.8 0 3 1.1 1.1 1 1.2 2.8h-1.7q0-1-.8-1.7-.7-.7-1.7-.7-1.4 0-2.1 1-.8 1-.8 2.9v.3q0 1.9.8 2.8.7 1 2.1 1zm5.3-4q0-1.6.6-2.9.6-1.2 1.7-1.9 1-.7 2.5-.7 2.2 0 3.5 1.5 1.3 1.5 1.3 4v.1q0 1.6-.6 2.8-.6 1.2-1.7 2-1 .6-2.5.6-2.1 0-3.5-1.5-1.3-1.5-1.3-4zm1.8.1q0 1.8.8 2.9.9 1 2.2 1 1.4 0 2.2-1 .8-1.1.8-3 0-1.8-.8-2.9-.8-1-2.2-1-1.3 0-2.2 1-.8 1-.8 3zm14.8-3.7l-.9-.1q-1.8 0-2.4 1.5v7.5H141V12.1h1.7v1.3q1-1.5 2.6-1.5.5 0 .8.2v1.7zm6.3 9.1q-2.2 0-3.5-1.4-1.4-1.4-1.4-3.8v-.3q0-1.6.6-2.8.6-1.2 1.7-2 1-.7 2.3-.7 2.1 0 3.2 1.4 1.2 1.4 1.2 3.9v.7h-7.2q0 1.6 1 2.6.8 1 2.2 1 1 0 1.6-.5.7-.4 1.2-1l1 .9q-1.3 2-4 2zm-.3-9.5q-1 0-1.8.8-.7.8-1 2.3h5.4v-.2q-.1-1.4-.8-2.1-.6-.8-1.8-.8zm13 6.5q0-.7-.5-1.1-.6-.4-2-.7-1.3-.3-2.1-.7-.8-.4-1.2-1-.4-.6-.4-1.4 0-1.3 1.1-2.1 1-1 2.8-1 1.8 0 3 1 1 .9 1 2.3h-1.8q0-.7-.6-1.2-.6-.6-1.6-.6t-1.5.5q-.6.4-.6 1 0 .7.5 1 .5.4 1.9.7 1.4.3 2.2.7.8.4 1.2 1 .4.6.4 1.5 0 1.4-1.1 2.3-1.1.8-3 .8-1.2 0-2.2-.4-1-.5-1.5-1.3-.6-.8-.6-1.7h1.8q0 .9.8 1.4.7.5 1.8.5 1 0 1.6-.4.6-.4.6-1z"/><path fill="#757575" d="M15.9 20.9q-.8 1-2 1.5-1.3.5-3 .5-1.8 0-3.2-.8-1.3-.8-2-2.3-.8-1.5-.8-3.5V15q0-3.2 1.5-5 1.5-1.7 4.2-1.7 2.2 0 3.6 1.1 1.4 1.2 1.7 3.3h-2q-.4-2.9-3.3-2.9-1.9 0-2.8 1.4-1 1.3-1 3.8v1.2q0 2.4 1 3.8 1.2 1.4 3 1.4 1.1 0 1.9-.3.8-.2 1.3-.7V17h-3.3v-1.5H16V21zm7.6 2q-2.2 0-3.5-1.4-1.4-1.4-1.4-3.8v-.3q0-1.6.6-2.8.6-1.2 1.7-2 1-.7 2.3-.7 2.1 0 3.2 1.4 1.2 1.4 1.2 3.9v.7h-7.2q0 1.6 1 2.6.8 1 2.2 1 1 0 1.6-.5.7-.4 1.2-1l1 .9q-1.3 2-4 2zm-.3-9.5q-1 0-1.8.8-.7.8-1 2.3h5.4v-.2q-.1-1.4-.8-2.1-.6-.8-1.8-.8zM34.5 23q-2.2 0-3.5-1.4-1.4-1.4-1.4-3.8v-.3q0-1.6.6-2.8.6-1.2 1.7-2 1-.7 2.3-.7 2.1 0 3.2 1.4 1.2 1.4 1.2 3.9v.7h-7.2q0 1.6 1 2.6.8 1 2.2 1 1 0 1.6-.5.7-.4 1.2-1l1 .9q-1.3 2-4 2zm-.3-9.5q-1 0-1.8.8-.7.8-1 2.3h5.4v-.2q-.1-1.4-.8-2.1-.6-.8-1.8-.8zm9.8 4.4L43 19v3.7h-1.8v-15h1.8v9l1-1L47 12h2.3l-4.2 4.5 4.6 6.1h-2L44 17.8zm16-.3q0 2.5-1 4-1.2 1.4-3 1.4-2 0-3.2-1.4v1.2H51v-15h1.8v5.6q1-1.4 3-1.4t3 1.5q1.1 1.5 1.1 4v.1zm-1.8-.2q0-1.8-.7-2.8-.7-1-2-1-1.8 0-2.6 1.6v4.6q.8 1.7 2.6 1.7 1.3 0 2-1t.7-3zm8.3 5.6q-2.2 0-3.5-1.4-1.4-1.4-1.4-3.8v-.3q0-1.6.6-2.8.6-1.2 1.7-2 1-.7 2.3-.7 2.1 0 3.2 1.4 1.2 1.4 1.2 3.9v.7h-7.2q0 1.6 1 2.6.8 1 2.2 1 1 0 1.6-.5.7-.4 1.2-1l1 .9q-1.3 2-4 2zm-.3-9.5q-1 0-1.8.8-.7.8-1 2.3h5.4v-.2q-.1-1.4-.8-2.1-.6-.8-1.8-.8zm8.6-1.3v1.4q1.3-1.6 3.2-1.6 3.4 0 3.4 3.8v7h-1.8v-7q0-1.1-.5-1.7-.5-.5-1.6-.5-1 0-1.6.4-.6.5-1 1.3v7.5H73V12.1h1.7zm13.5 9.3q1 0 1.7-.5.7-.6.8-1.5h1.7q0 .9-.6 1.7-.6.8-1.5 1.3-1 .5-2 .5-2.2 0-3.5-1.4-1.3-1.5-1.3-4v-.3q0-1.5.6-2.7.5-1.2 1.6-1.9 1-.7 2.5-.7 1.8 0 3 1.1 1.1 1 1.2 2.8h-1.7q0-1-.8-1.7-.7-.7-1.7-.7-1.4 0-2.1 1-.8 1-.8 2.9v.3q0 1.9.8 2.8.7 1 2.1 1zm7.6-8Q97 12 99 12q3.4 0 3.4 3.8v7h-1.8v-7q0-1.1-.5-1.7-.5-.5-1.6-.5-1 0-1.6.4-.6.5-1 1.3v7.5H94v-15h1.8v5.7zm20.3 6.5q0-.7-.5-1.1-.6-.4-2-.7-1.3-.3-2.1-.7-.8-.4-1.2-1-.4-.6-.4-1.4 0-1.3 1.1-2.1 1-1 2.8-1 1.8 0 3 1 1 .9 1 2.3h-1.8q0-.7-.6-1.2-.6-.6-1.6-.6t-1.5.5q-.6.4-.6 1 0 .7.5 1 .5.4 1.9.7 1.4.3 2.2.7.8.4 1.2 1 .4.6.4 1.5 0 1.4-1.1 2.3-1.1.8-3 .8-1.2 0-2.2-.4-1-.5-1.5-1.3-.6-.8-.6-1.7h1.8q0 .9.8 1.4.7.5 1.8.5 1 0 1.6-.4.6-.4.6-1zm8.1 1.5q1 0 1.7-.5.7-.6.8-1.5h1.7q0 .9-.6 1.7-.6.8-1.5 1.3-1 .5-2 .5-2.2 0-3.5-1.4-1.3-1.5-1.3-4v-.3q0-1.5.6-2.7.5-1.2 1.6-1.9 1-.7 2.5-.7 1.8 0 3 1.1 1.1 1 1.2 2.8h-1.7q0-1-.8-1.7-.7-.7-1.7-.7-1.4 0-2.1 1-.8 1-.8 2.9v.3q0 1.9.8 2.8.7 1 2.1 1zm5.3-4q0-1.6.6-2.9.6-1.2 1.7-1.9 1-.7 2.5-.7 2.2 0 3.5 1.5 1.3 1.5 1.3 4v.1q0 1.6-.6 2.8-.6 1.2-1.7 2-1 .6-2.5.6-2.1 0-3.5-1.5-1.3-1.5-1.3-4zm1.8.1q0 1.8.8 2.9.9 1 2.2 1 1.4 0 2.2-1 .8-1.1.8-3 0-1.8-.8-2.9-.8-1-2.2-1-1.3 0-2.2 1-.8 1-.8 3zm14.8-3.7l-.9-.1q-1.8 0-2.4 1.5v7.5H141V12.1h1.7v1.3q1-1.5 2.6-1.5.5 0 .8.2v1.7zm6.3 9.1q-2.2 0-3.5-1.4-1.4-1.4-1.4-3.8v-.3q0-1.6.6-2.8.6-1.2 1.7-2 1-.7 2.3-.7 2.1 0 3.2 1.4 1.2 1.4 1.2 3.9v.7h-7.2q0 1.6 1 2.6.8 1 2.2 1 1 0 1.6-.5.7-.4 1.2-1l1 .9q-1.3 2-4 2zm-.3-9.5q-1 0-1.8.8-.7.8-1 2.3h5.4v-.2q-.1-1.4-.8-2.1-.6-.8-1.8-.8zm13 6.5q0-.7-.5-1.1-.6-.4-2-.7-1.3-.3-2.1-.7-.8-.4-1.2-1-.4-.6-.4-1.4 0-1.3 1.1-2.1 1-1 2.8-1 1.8 0 3 1 1 .9 1 2.3h-1.8q0-.7-.6-1.2-.6-.6-1.6-.6t-1.5.5q-.6.4-.6 1 0 .7.5 1 .5.4 1.9.7 1.4.3 2.2.7.8.4 1.2 1 .4.6.4 1.5 0 1.4-1.1 2.3-1.1.8-3 .8-1.2 0-2.2-.4-1-.5-1.5-1.3-.6-.8-.6-1.7h1.8q0 .9.8 1.4.7.5 1.8.5 1 0 1.6-.4.6-.4.6-1z"/></svg>