<svg width="1105" height="726" viewBox="0 0 1105 726" xmlns="http://www.w3.org/2000/svg"><title>Group</title><g fill="none" fill-rule="evenodd"><path d="M549.5 3v734.206" stroke="#000" stroke-width="6" opacity=".311" stroke-linecap="square" stroke-dasharray="40,28"/><path stroke="#000" stroke-width="5" d="M2.5 187.5h396v536H2.5z"/><text font-family="UbuntuMono-Regular, Ubuntu Mono" font-size="72" fill="#221A20" transform="translate(0 2)"><tspan x="20.5" y="473">Components</tspan></text><text font-family="UbuntuMono-Regular, Ubuntu Mono" font-size="72" fill="#9C403A" transform="translate(0 2)"><tspan x="38.5" y="67">UI Thread</tspan></text><text font-family="UbuntuMono-Regular, Ubuntu Mono" font-size="64" fill="#9C403A" transform="translate(0 2)"><tspan x="425" y="356">{state}</tspan></text><text font-family="UbuntuMono-Regular, Ubuntu Mono" font-size="64" fill="#9C403A" transform="translate(0 2)"><tspan x="441" y="600">Events</tspan></text><text font-family="UbuntuMono-Regular, Ubuntu Mono" font-size="72" fill="#9C403A" transform="translate(0 2)"><tspan x="782" y="60">Worker</tspan></text><path stroke="#000" stroke-width="5" d="M676.5 526.5h426v197h-426z"/><text font-family="UbuntuMono-Regular, Ubuntu Mono" font-size="72" fill="#221A20" transform="translate(0 2)"><tspan x="728" y="645">App Logic</tspan></text><path stroke="#000" stroke-width="5" d="M676.5 187.5h426v197h-426z"/><text font-family="UbuntuMono-Regular, Ubuntu Mono" font-size="72" fill="#221A20" transform="translate(0 2)"><tspan x="692" y="301">State Logic</tspan></text><path d="M401 629h257" stroke="#9C403A" stroke-width="10"/><path d="M658 629l-10.8-3v6l10.8-3z" stroke="#9C403A" stroke-width="10"/><path d="M891 524V398" stroke="#9C403A" stroke-width="10"/><path d="M891 398l-3 10.8h6l-3-10.8z" stroke="#9C403A" stroke-width="10"/><path d="M674 285H411" stroke="#9C403A" stroke-width="10"/><path d="M411 285l10.8 3v-6l-10.8 3z" stroke="#9C403A" stroke-width="10"/></g></svg>