<svg width="1105" height="749" viewBox="0 0 1105 749" xmlns="http://www.w3.org/2000/svg"><title>Group</title><g fill="none" fill-rule="evenodd"><path d="M549.5 7v734.206" stroke="#000" stroke-width="14" stroke-linecap="square" stroke-dasharray="44"/><path stroke="#000" stroke-width="5" d="M2.5 191.5h396v536H2.5z"/><text font-family="UbuntuMono-Regular, Ubuntu Mono" font-size="72" fill="#221A20" transform="translate(0 6)"><tspan x="20.5" y="473">Components</tspan></text><text font-family="UbuntuMono-Regular, Ubuntu Mono" font-size="72" fill="#9C403A" transform="translate(0 6)"><tspan x="38.5" y="67">UI Thread</tspan></text><text font-family="UbuntuMono-Regular, Ubuntu Mono" font-size="72" fill="#9C403A" transform="translate(0 6)"><tspan x="782" y="60">Worker</tspan></text><path stroke="#000" stroke-width="5" d="M676.5 530.5h426v197h-426z"/><text font-family="UbuntuMono-Regular, Ubuntu Mono" font-size="72" fill="#221A20" transform="translate(0 6)"><tspan x="728" y="645">App Logic</tspan></text><path stroke="#000" stroke-width="5" d="M676.5 191.5h426v197h-426z"/><text font-family="UbuntuMono-Regular, Ubuntu Mono" font-size="72" fill="#221A20" transform="translate(0 6)"><tspan x="692" y="301">State Logic</tspan></text><path d="M401 633h257m0 0l-10.8-3v6l10.8-3zm233-105V402m0 0l-3 10.8h6l-3-10.8zM674 289H411m0 0l10.8 3v-6l-10.8 3z" stroke="#9C403A" stroke-width="10"/></g></svg>