<svg width="863" height="405" xmlns="http://www.w3.org/2000/svg"><g fill="none" fill-rule="nonzero"><path d="M130.4 81.7a4.5 4.5 0 0 1-3.8-2 7 7 0 0 1-1-2.7c-.2-.5-.2-1-.2-1.4v-2.1c0-1.2-.3-2-.8-2.6-.6-.5-1.4-.7-2.5-.7v-2.7c1 0 2-.2 2.5-.7.5-.5.8-1.4.8-2.6v-2.1a9.2 9.2 0 0 1 .5-2.8c.1-.5.3-1 .6-1.3a4.4 4.4 0 0 1 3.9-2l.4 2c-.5 0-1 .1-1.2.4a2 2 0 0 0-.6 1c-.2.3-.2.7-.3 1.2v3.6c0 1-.3 2-.8 2.8-.5.8-1.3 1.4-2.4 1.9 1.1.4 2 1 2.4 1.8.6.8.8 1.7.8 2.8V77l.4 1.4.7 1c.2.2.6.3 1 .3l-.4 2zm26.4 11.5l-.4 5.5h-2.3v-7h2.7v1.5zm5.4 0l-.3 5.5h-2.4v-7h2.7v1.5zm19 11.8c0 1 0 2-.3 2.9a7 7 0 0 1-1 2.3c-.5.6-1.1 1.1-1.8 1.5a5 5 0 0 1-2.4.6c-.7 0-1.4-.2-2-.4-.6-.3-1-.7-1.5-1.1v6.7h-3.7V97.7h3.4l.1 1.4a4.7 4.7 0 0 1 3.7-1.7c.9 0 1.7.2 2.4.6.7.3 1.3.8 1.7 1.5.5.6.9 1.4 1.1 2.3.3.9.4 1.8.4 3v.2zm-3.6-.3l-.1-1.7c-.2-.5-.3-1-.6-1.3-.2-.4-.5-.7-.9-1l-1.3-.2a3 3 0 0 0-1.6.3l-1 1v6c.3.5.6.9 1 1.1.4.3 1 .4 1.6.4.6 0 1 0 1.4-.3l.9-1 .5-1.3.1-1.7v-.3zm17.3-7.2a9.8 9.8 0 0 1 2.7.3l-.6 3.7a12.6 12.6 0 0 0-2.9-.4c-1 0-1.8.2-2.4.6-.7.4-1.1 1-1.4 1.7v8.6h-3.7V97.7h3.4l.2 2.4c.6-.8 1.3-1.5 2-2 .9-.4 1.8-.6 2.7-.6zm5.5 7.2c0-1 .1-2 .4-2.8a6 6 0 0 1 3.4-3.8 7 7 0 0 1 2.9-.6c1 0 2 .2 2.9.5a6 6 0 0 1 3.4 3.9c.3.8.4 1.8.4 2.8v.3c0 1-.1 2-.4 3-.3.8-.8 1.6-1.3 2.2a6 6 0 0 1-2.1 1.5 7 7 0 0 1-2.9.6c-1 0-2-.2-2.8-.6a6 6 0 0 1-2.2-1.5c-.5-.6-1-1.4-1.3-2.3a9 9 0 0 1-.4-2.9v-.3zm3.6.3c0 .6 0 1.2.2 1.7l.5 1.4c.3.4.6.7 1 .9.4.2.9.3 1.4.3.6 0 1 0 1.4-.3.4-.2.7-.5 1-1l.5-1.3.2-1.7v-.3l-.2-1.6c-.1-.5-.3-1-.6-1.4-.2-.4-.5-.7-.9-1-.4-.1-.9-.3-1.4-.3-.6 0-1 .2-1.4.4-.4.2-.7.5-1 1l-.5 1.3-.2 1.6v.3zm25.9 0c0 1-.1 2-.4 2.9a7 7 0 0 1-1 2.3c-.5.6-1 1.1-1.8 1.5a5 5 0 0 1-2.4.6c-.7 0-1.4-.2-2-.4-.6-.3-1-.7-1.5-1.1v6.7H217V97.7h3.4l.1 1.4a4.7 4.7 0 0 1 3.7-1.7c.9 0 1.7.2 2.4.6.7.3 1.3.8 1.8 1.5.4.6.8 1.4 1 2.3.3.9.4 1.8.4 3v.2zm-3.7-.3l-.1-1.7c-.2-.5-.3-1-.6-1.3-.2-.4-.5-.7-.9-1l-1.3-.2a3 3 0 0 0-1.6.3l-1 1v6c.3.5.6.9 1 1.1.5.3 1 .4 1.7.4.5 0 1 0 1.3-.3l.9-1 .5-1.3.1-1.7v-.3zm16 7.3h-3.6V97.3l-4.9 1.7v-3.2l8.4-3h.2V112zM254 93.2l-.3 5.5h-2.4v-7h2.7v1.5zm5.5 0l-.4 5.5h-2.3v-7h2.7v1.5zm10 16.7l.2-1 .5-.7.8-.6 1.1-.1 1 .1c.4.2.7.3.9.6l.5.7a2.5 2.5 0 0 1-.5 2.7l-.8.5a3 3 0 0 1-1 .2 3 3 0 0 1-1.2-.2l-.8-.5-.5-.8-.1-1zm0-11l.2-.9.5-.7.8-.5c.4-.2.7-.2 1.1-.2.4 0 .8 0 1 .2.4 0 .7.3.9.5l.5.7a2.5 2.5 0 0 1-.5 2.7l-.8.5a3 3 0 0 1-1 .2 3 3 0 0 1-1.2-.2l-.8-.5-.5-.8-.1-1zm33.1-5.7l-.3 5.5h-2.4v-7h2.7v1.5zm5.5 0l-.4 5.5h-2.3v-7h2.7v1.5zm9.9 16.7c0-.4 0-.7.2-1 0-.3.2-.5.5-.7.2-.3.5-.4.8-.6l1-.1 1.1.1c.3.2.6.3.8.6l.5.7a2.5 2.5 0 0 1-.5 2.7l-.8.5a3 3 0 0 1-1 .2 3 3 0 0 1-1.1-.2l-.8-.5c-.3-.2-.4-.5-.5-.8l-.2-1zm16.2 0c0-.4 0-.7.2-1 0-.3.3-.5.5-.7.2-.3.5-.4.8-.6l1-.1 1.1.1c.3.2.6.3.8.6l.5.7a2.5 2.5 0 0 1-.5 2.7l-.8.5a3 3 0 0 1-1 .2 3 3 0 0 1-1.1-.2l-.8-.5-.5-.8-.2-1zm16.2 0c0-.4 0-.7.2-1 0-.3.3-.5.5-.7.2-.3.5-.4.8-.6l1-.1 1.1.1c.3.2.6.3.8.6l.5.7a2.5 2.5 0 0 1-.5 2.7l-.8.5a3 3 0 0 1-1 .2 3 3 0 0 1-1.1-.2l-.8-.5-.5-.8-.2-1zm17-16.7l-.3 5.5h-2.4v-7h2.8v1.5zm5.5 0l-.4 5.5h-2.3v-7h2.7v1.5zm13.7 18.5c0 .5 0 1-.2 1.6a8.3 8.3 0 0 1-2.5 4l-2-1a16.2 16.2 0 0 0 1-2 8.8 8.8 0 0 0 .3-2.4v-3.1h3.4v3zm-229.8 16.5l-.4 5.5h-2.3v-7h2.7v1.5zm5.4 0l-.3 5.5h-2.4v-7h2.7v1.5zm19 11.8c0 1 0 2-.3 2.9a7 7 0 0 1-1 2.3c-.5.6-1.1 1.1-1.8 1.5a5 5 0 0 1-2.4.6c-.7 0-1.4-.2-2-.4-.6-.3-1-.7-1.5-1.1v6.7h-3.7v-19.8h3.4l.1 1.4a4.7 4.7 0 0 1 3.7-1.7c.9 0 1.7.2 2.4.6.7.3 1.3.8 1.7 1.5.5.6.9 1.4 1.1 2.3.3.9.4 1.8.4 3v.2zm-3.6-.3l-.1-1.7c-.2-.5-.3-1-.6-1.3-.2-.4-.5-.7-.9-1l-1.3-.2a3 3 0 0 0-1.6.3l-1 1v6c.3.5.6.9 1 1.1.4.3 1 .4 1.6.4.6 0 1 0 1.4-.3l.9-1 .5-1.3.1-1.7v-.3zm17.3-7.2a9.8 9.8 0 0 1 2.7.3l-.6 3.7a12.6 12.6 0 0 0-2.9-.4c-1 0-1.8.2-2.4.6-.7.4-1.1 1-1.4 1.7v8.6h-3.7v-14.3h3.4l.2 2.4c.6-.8 1.3-1.5 2-2 .9-.4 1.8-.6 2.7-.6zm5.5 7.2c0-1 .1-2 .4-2.8a6 6 0 0 1 3.4-3.8 7 7 0 0 1 2.9-.6c1 0 2 .2 2.9.5a6 6 0 0 1 3.4 3.9c.3.8.4 1.8.4 2.8v.3c0 1-.1 2-.4 3-.3.8-.8 1.6-1.3 2.2a6 6 0 0 1-2.1 1.5 7 7 0 0 1-2.9.6c-1 0-2-.2-2.8-.6a6 6 0 0 1-2.2-1.5c-.5-.6-1-1.4-1.3-2.3a9 9 0 0 1-.4-2.9v-.3zm3.6.3c0 .6 0 1.2.2 1.7l.5 1.4c.3.4.6.7 1 .9.4.2.9.3 1.4.3.6 0 1 0 1.4-.3.4-.2.7-.5 1-1l.5-1.3.2-1.7v-.3l-.2-1.6c-.1-.5-.3-1-.6-1.4-.2-.4-.5-.7-.9-1-.4-.1-.9-.3-1.4-.3-.6 0-1 .2-1.4.4-.4.2-.7.5-1 1l-.5 1.3-.2 1.6v.3zm25.9 0c0 1-.1 2-.4 2.9a7 7 0 0 1-1 2.3c-.5.6-1 1.1-1.8 1.5a5 5 0 0 1-2.4.6c-.7 0-1.4-.2-2-.4-.6-.3-1-.7-1.5-1.1v6.7H217v-19.8h3.4l.1 1.4a4.7 4.7 0 0 1 3.7-1.7c.9 0 1.7.2 2.4.6.7.3 1.3.8 1.8 1.5.4.6.8 1.4 1 2.3.3.9.4 1.8.4 3v.2zm-3.7-.3l-.1-1.7c-.2-.5-.3-1-.6-1.3-.2-.4-.5-.7-.9-1l-1.3-.2a3 3 0 0 0-1.6.3l-1 1v6c.3.5.6.9 1 1.1.5.3 1 .4 1.7.4.5 0 1 0 1.3-.3l.9-1 .5-1.3.1-1.7v-.3zm19.6 7.3h-13v-2.5l6.1-6.7a23.3 23.3 0 0 0 2-2.6c.3-.3.4-.7.5-1l.2-.9c0-.4 0-.8-.2-1.1-.1-.4-.3-.6-.5-.9l-.8-.5-1-.2c-1 0-1.8.3-2.3.8-.5.6-.8 1.4-.8 2.4h-3.7a6 6 0 0 1 4-5.8c.9-.3 1.8-.5 2.8-.5 1 0 1.9.2 2.6.4.8.3 1.4.7 2 1.2.4.5.8 1 1 1.8a6.4 6.4 0 0 1-.7 5.8l-1.3 1.7-1.7 1.8-3.6 3.9h8.4v2.9zm8.2-18.8l-.3 5.5h-2.4v-7h2.7v1.5zm5.5 0l-.4 5.5h-2.3v-7h2.7v1.5zm10 16.7l.2-1 .5-.7.8-.6 1.1-.1 1 .1c.4.2.7.3.9.6l.5.7a2.5 2.5 0 0 1-.5 2.7l-.8.5a3 3 0 0 1-1 .2 3 3 0 0 1-1.2-.2l-.8-.5-.5-.8-.1-1zm0-11l.2-.9.5-.7.8-.5c.4-.2.7-.2 1.1-.2.4 0 .8 0 1 .2.4 0 .7.3.9.5l.5.7a2.5 2.5 0 0 1-.5 2.7l-.8.5a3 3 0 0 1-1 .2 3 3 0 0 1-1.2-.2l-.8-.5-.5-.8-.1-1zm33.1-5.7l-.3 5.5h-2.4v-7h2.7v1.5zm5.5 0l-.4 5.5h-2.3v-7h2.7v1.5zm9.9 16.7c0-.4 0-.7.2-1 0-.3.2-.5.5-.7.2-.3.5-.4.8-.6l1-.1 1.1.1c.3.2.6.3.8.6l.5.7a2.5 2.5 0 0 1-.5 2.7l-.8.5a3 3 0 0 1-1 .2 3 3 0 0 1-1.1-.2l-.8-.5c-.3-.2-.4-.5-.5-.8l-.2-1zm16.2 0c0-.4 0-.7.2-1 0-.3.3-.5.5-.7.2-.3.5-.4.8-.6l1-.1 1.1.1c.3.2.6.3.8.6l.5.7a2.5 2.5 0 0 1-.5 2.7l-.8.5a3 3 0 0 1-1 .2 3 3 0 0 1-1.1-.2l-.8-.5-.5-.8-.2-1zm16.2 0c0-.4 0-.7.2-1 0-.3.3-.5.5-.7.2-.3.5-.4.8-.6l1-.1 1.1.1c.3.2.6.3.8.6l.5.7a2.5 2.5 0 0 1-.5 2.7l-.8.5a3 3 0 0 1-1 .2 3 3 0 0 1-1.1-.2l-.8-.5-.5-.8-.2-1zm17-16.7l-.3 5.5h-2.4v-7h2.8v1.5zm5.5 0l-.4 5.5h-2.3v-7h2.7v1.5zm13.7 18.5c0 .5 0 1-.2 1.6a8.3 8.3 0 0 1-2.5 4l-2-1a16.2 16.2 0 0 0 1-2 8.8 8.8 0 0 0 .3-2.4v-3.1h3.4v3zm-229.8 16.5l-.4 5.5h-2.3v-7h2.7v1.5zm5.4 0l-.3 5.5h-2.4v-7h2.7v1.5zm19 11.8c0 1 0 2-.3 2.9a7 7 0 0 1-1 2.3c-.5.6-1.1 1.1-1.8 1.5a5 5 0 0 1-2.4.6c-.7 0-1.4-.2-2-.4-.6-.3-1-.7-1.5-1.1v6.7h-3.7v-19.8h3.4l.1 1.4a4.7 4.7 0 0 1 3.7-1.7c.9 0 1.7.2 2.4.6.7.3 1.3.8 1.7 1.5.5.6.9 1.4 1.1 2.3.3.9.4 1.8.4 3v.2zm-3.6-.3l-.1-1.7c-.2-.5-.3-1-.6-1.3-.2-.4-.5-.7-.9-1l-1.3-.2a3 3 0 0 0-1.6.3l-1 1v6c.3.5.6.9 1 1.1.4.3 1 .4 1.6.4.6 0 1 0 1.4-.3l.9-1 .5-1.3.1-1.7v-.3zm17.3-7.2a9.8 9.8 0 0 1 2.7.3l-.6 3.7a12.6 12.6 0 0 0-2.9-.4c-1 0-1.8.2-2.4.6-.7.4-1.1 1-1.4 1.7v8.6h-3.7v-14.3h3.4l.2 2.4c.6-.8 1.3-1.5 2-2 .9-.4 1.8-.6 2.7-.6zm5.5 7.2c0-1 .1-2 .4-2.8a6 6 0 0 1 3.4-3.8 7 7 0 0 1 2.9-.6c1 0 2 .2 2.9.5a6 6 0 0 1 3.4 3.9c.3.8.4 1.8.4 2.8v.3c0 1-.1 2-.4 3-.3.8-.8 1.6-1.3 2.2a6 6 0 0 1-2.1 1.5 7 7 0 0 1-2.9.6c-1 0-2-.2-2.8-.6a6 6 0 0 1-2.2-1.5c-.5-.6-1-1.4-1.3-2.3a9 9 0 0 1-.4-2.9v-.3zm3.6.3c0 .6 0 1.2.2 1.7l.5 1.4c.3.4.6.7 1 .9.4.2.9.3 1.4.3.6 0 1 0 1.4-.3.4-.2.7-.5 1-1l.5-1.3.2-1.7v-.3l-.2-1.6c-.1-.5-.3-1-.6-1.4-.2-.4-.5-.7-.9-1-.4-.1-.9-.3-1.4-.3-.6 0-1 .2-1.4.4-.4.2-.7.5-1 1l-.5 1.3-.2 1.6v.3zm25.9 0c0 1-.1 2-.4 2.9a7 7 0 0 1-1 2.3c-.5.6-1 1.1-1.8 1.5a5 5 0 0 1-2.4.6c-.7 0-1.4-.2-2-.4-.6-.3-1-.7-1.5-1.1v6.7H217v-19.8h3.4l.1 1.4a4.7 4.7 0 0 1 3.7-1.7c.9 0 1.7.2 2.4.6.7.3 1.3.8 1.8 1.5.4.6.8 1.4 1 2.3.3.9.4 1.8.4 3v.2zm-3.7-.3l-.1-1.7c-.2-.5-.3-1-.6-1.3-.2-.4-.5-.7-.9-1l-1.3-.2a3 3 0 0 0-1.6.3l-1 1v6c.3.5.6.9 1 1.1.5.3 1 .4 1.7.4.5 0 1 0 1.3-.3l.9-1 .5-1.3.1-1.7v-.3zm10.8-4h2c1 0 1.7-.2 2.2-.7.5-.5.7-1.1.7-2 0-.3 0-.7-.2-1a2.2 2.2 0 0 0-1.3-1.3l-1.2-.2c-.3 0-.7 0-1 .2-.3 0-.6.2-.8.4l-.6.7a2 2 0 0 0-.2 1h-3.7a4.7 4.7 0 0 1 1.8-3.8c.6-.5 1.2-.8 2-1 .8-.3 1.6-.5 2.5-.5 1 0 1.8.2 2.6.4s1.4.6 2 1c.6.5 1 1 1.3 1.7a5.6 5.6 0 0 1 .3 3.6 4.4 4.4 0 0 1-1.4 2.2l-1.2.8c.5.1 1 .4 1.3.7a4.3 4.3 0 0 1 1.6 2.3l.2 1.4a5.1 5.1 0 0 1-2 4.2c-.6.5-1.3.8-2 1a9 9 0 0 1-5.1.1c-.8-.2-1.5-.5-2.1-1a5 5 0 0 1-1.5-1.7 5 5 0 0 1-.5-2.4h3.6c0 .3.1.7.3 1 .1.3.3.6.6.8.2.2.5.4.9.5.3.2.7.2 1.1.2a3 3 0 0 0 2.2-.7c.6-.5.8-1.2.8-2 0-.5 0-1-.2-1.3l-.7-1-1-.5a5 5 0 0 0-1.3-.2h-2v-2.8zm17-7.5l-.3 5.5h-2.4v-7h2.7v1.5zm5.5 0l-.4 5.5h-2.3v-7h2.7v1.5zm10 16.7l.2-1 .5-.7.8-.6 1.1-.1 1 .1c.4.2.7.3.9.6l.5.7a2.5 2.5 0 0 1-.5 2.7l-.8.5a3 3 0 0 1-1 .2 3 3 0 0 1-1.2-.2l-.8-.5-.5-.8-.1-1zm0-11l.2-.9.5-.7.8-.5c.4-.2.7-.2 1.1-.2.4 0 .8 0 1 .2.4 0 .7.3.9.5l.5.7a2.5 2.5 0 0 1-.5 2.7l-.8.5a3 3 0 0 1-1 .2 3 3 0 0 1-1.2-.2l-.8-.5-.5-.8-.1-1zm33.1-5.7l-.3 5.5h-2.4v-7h2.7v1.5zm5.5 0l-.4 5.5h-2.3v-7h2.7v1.5zm9.9 16.7c0-.4 0-.7.2-1 0-.3.2-.5.5-.7.2-.3.5-.4.8-.6l1-.1 1.1.1c.3.2.6.3.8.6l.5.7a2.5 2.5 0 0 1-.5 2.7l-.8.5a3 3 0 0 1-1 .2 3 3 0 0 1-1.1-.2l-.8-.5c-.3-.2-.4-.5-.5-.8l-.2-1zm16.2 0c0-.4 0-.7.2-1 0-.3.3-.5.5-.7.2-.3.5-.4.8-.6l1-.1 1.1.1c.3.2.6.3.8.6l.5.7a2.5 2.5 0 0 1-.5 2.7l-.8.5a3 3 0 0 1-1 .2 3 3 0 0 1-1.1-.2l-.8-.5-.5-.8-.2-1zm16.2 0c0-.4 0-.7.2-1 0-.3.3-.5.5-.7.2-.3.5-.4.8-.6l1-.1 1.1.1c.3.2.6.3.8.6l.5.7a2.5 2.5 0 0 1-.5 2.7l-.8.5a3 3 0 0 1-1 .2 3 3 0 0 1-1.1-.2l-.8-.5-.5-.8-.2-1zm17-16.7l-.3 5.5h-2.4v-7h2.8v1.5zm5.5 0l-.4 5.5h-2.3v-7h2.7v1.5zm13.7 18.5c0 .5 0 1-.2 1.6a8.3 8.3 0 0 1-2.5 4l-2-1a16.2 16.2 0 0 0 1-2 8.8 8.8 0 0 0 .3-2.4v-3.1h3.4v3zm-229.8 16.5l-.4 5.5h-2.3v-7h2.7v1.5zm5.4 0l-.3 5.5h-2.4v-7h2.7v1.5zm10 16.7l.1-1 .5-.7.8-.6 1.1-.1 1 .1c.4.2.7.3.9.6l.5.7a2.5 2.5 0 0 1-.5 2.7l-.8.5a3 3 0 0 1-1 .2 3 3 0 0 1-1.2-.2l-.8-.5-.5-.8-.1-1zm16.2 0l.1-1 .5-.7.9-.6 1-.1 1 .1c.4.2.7.3.9.6l.5.7a2.5 2.5 0 0 1-.5 2.7l-.8.5a3 3 0 0 1-1 .2 3 3 0 0 1-1.1-.2c-.4-.1-.6-.3-.9-.5l-.5-.8-.1-1zm16.2 0l.1-1 .5-.7.9-.6 1-.1 1 .1c.4.2.7.3.9.6l.5.7a2.5 2.5 0 0 1-.5 2.7l-.8.5a3 3 0 0 1-1 .2 3 3 0 0 1-1.1-.2c-.4-.1-.6-.3-.9-.5l-.5-.8-.1-1zm17-16.7l-.3 5.5h-2.4v-7h2.7v1.5zm5.5 0l-.4 5.5h-2.3v-7h2.7v1.5zm10 16.7l.2-1 .5-.7.8-.6 1.1-.1 1 .1c.4.2.7.3.9.6l.5.7a2.5 2.5 0 0 1-.5 2.7l-.8.5a3 3 0 0 1-1 .2 3 3 0 0 1-1.2-.2l-.8-.5-.5-.8-.1-1zm0-11l.2-.9.5-.7.8-.5c.4-.2.7-.2 1.1-.2.4 0 .8 0 1 .2.4 0 .7.3.9.5l.5.7a2.5 2.5 0 0 1-.5 2.7l-.8.5a3 3 0 0 1-1 .2 3 3 0 0 1-1.2-.2l-.8-.5-.5-.8-.1-1zm33.1-5.7l-.3 5.5h-2.4v-7h2.7v1.5zm5.5 0l-.4 5.5H273v-7h2.7v1.5zm9.9 16.7c0-.4 0-.7.2-1 0-.3.2-.5.5-.7.2-.3.4-.4.8-.6l1-.1 1.1.1c.3.2.6.3.8.6l.5.7a2.5 2.5 0 0 1-.5 2.7l-.8.5a3 3 0 0 1-1 .2 3 3 0 0 1-1.1-.2c-.4-.1-.6-.3-.8-.5-.3-.2-.4-.5-.5-.8-.2-.3-.2-.6-.2-1zm16.2 0c0-.4 0-.7.2-1 0-.3.2-.5.5-.7.2-.3.5-.4.8-.6l1-.1 1.1.1c.3.2.6.3.8.6l.5.7a2.5 2.5 0 0 1-.5 2.7l-.8.5a3 3 0 0 1-1 .2 3 3 0 0 1-1.1-.2l-.8-.5c-.3-.2-.4-.5-.5-.8-.2-.3-.2-.6-.2-1zm16.2 0c0-.4 0-.7.2-1 0-.3.2-.5.5-.7.2-.3.5-.4.8-.6l1-.1 1.1.1c.3.2.6.3.8.6l.5.7a2.5 2.5 0 0 1-.5 2.7l-.8.5a3 3 0 0 1-1 .2 3 3 0 0 1-1.1-.2l-.8-.5c-.3-.2-.4-.5-.5-.8l-.2-1zm17-16.7l-.3 5.5h-2.4v-7h2.8v1.5zm5.5 0l-.4 5.5h-2.3v-7h2.7v1.5zm-218.1 56.5c.4 0 .8-.1 1-.4.3-.2.5-.5.7-1 .1-.3.3-.8.3-1.3l.1-1.4v-2.1c0-.6 0-1 .2-1.5a4.6 4.6 0 0 1 2.8-3.1c-1-.5-1.8-1.1-2.3-2-.4-.7-.7-1.7-.7-2.7v-2.1a32 32 0 0 0-.3-2.8 2 2 0 0 0-.6-1c-.3-.2-.7-.3-1.2-.3l.4-2c.6 0 1.2 0 1.7.2a4.4 4.4 0 0 1 2.2 1.8 6.2 6.2 0 0 1 1 2.7l.1 1.4v2.1c0 1.2.3 2 .8 2.6.6.5 1.4.7 2.5.7v2.7c-1 0-2 .2-2.5.7-.5.5-.8 1.4-.8 2.6v2.1a7.9 7.9 0 0 1-1.2 4.1c-.2.4-.6.8-1 1a4.5 4.5 0 0 1-2.8 1l-.4-2z" fill="#035363"/><path d="M77.5 93v122h18l-22 44-22-44h18V93h-18l22-44 22 44h-18z" fill="#DA3B3B"/><path d="M61.8 210H42.6v-6.4c0-1 0-2 .3-2.8.2-.9.5-1.6 1-2.2.4-.6 1-1 1.6-1.4.6-.3 1.4-.5 2.3-.5 1 0 1.7.2 2.4.7.7.5 1.3 1.2 1.6 2 .2-.5.4-1 .7-1.3a4 4 0 0 1 2.2-1.7l1.4-.1c1 0 1.8.1 2.5.4.7.3 1.3.8 1.7 1.4a6 6 0 0 1 1.1 2.1c.2.9.4 1.8.4 2.9v7zm-8.5-3.6h5.5V203c0-1-.3-1.8-.8-2.3-.5-.6-1.1-.8-1.9-.8-.9 0-1.6.2-2 .7-.5.5-.8 1.2-.8 2.2v3.5zm-2.7 0v-2.8a4 4 0 0 0-.6-2.4c-.4-.5-1-.8-1.9-.8-.9 0-1.5.3-2 .8-.3.6-.5 1.4-.5 2.4v2.8h5zm-3.4-23a9.8 9.8 0 0 1 .4-2.6l3.6.5a12.6 12.6 0 0 0-.3 3c0 1 .2 1.8.6 2.4.4.7 1 1.1 1.7 1.4h8.6v3.7H47.5v-3.4l2.3-.2a6.5 6.5 0 0 1-1.9-2c-.4-.9-.7-1.8-.7-2.7zM62 170.7a8 8 0 0 1-.5 3 7 7 0 0 1-1.5 2.3c-.6.6-1.3 1.1-2.2 1.5a7 7 0 0 1-2.7.5h-.5c-1 0-2-.2-3-.5a6.5 6.5 0 0 1-3.8-3.6 7 7 0 0 1-.6-2.8c0-1 .2-2 .5-2.7a5.7 5.7 0 0 1 3.7-3.4 9 9 0 0 1 2.9-.4h1.5v9.7c.5 0 1-.2 1.3-.4a3.6 3.6 0 0 0 2-3.4 5.5 5.5 0 0 0-.4-2.1l-.5-1-.7-.7 2-1.8.9.9.8 1.3a8.3 8.3 0 0 1 .8 3.6zm-11.8.4a2.7 2.7 0 0 0 .8 2c.3.3.6.6 1 .7l1.3.4v-6H53l-1.1.2a2.6 2.6 0 0 0-1.5 1.5l-.2 1.2zm11.6-18.6l-.6.2a8 8 0 0 1-.8.2 4.8 4.8 0 0 1 1.5 2.6l.1 1.3c0 .7 0 1.4-.3 2-.2.6-.5 1.1-.9 1.6a4 4 0 0 1-3 1.4 4 4 0 0 1-3.5-1.7 8.5 8.5 0 0 1-1.3-5v-2h-.8a2 2 0 0 0-1.6.6c-.4.4-.6 1-.6 2 0 .7.1 1.2.5 1.6.3.3.7.5 1.2.5v3.6c-.6 0-1.1 0-1.7-.4-.5-.2-1-.6-1.4-1.1-.4-.5-.8-1.2-1-2a8.8 8.8 0 0 1 0-5c.2-.6.5-1.3.9-1.8s1-1 1.5-1.3c.7-.3 1.4-.4 2.2-.4h6.1c.8 0 1.4 0 2-.2.4 0 .9-.2 1.2-.4h.3v3.7zm-2.6 3.5a3.8 3.8 0 0 0-1-2.5l-.5-.5h-2.5v1.9c0 .6 0 1 .2 1.5l.5 1 .7.5.9.2c.5 0 .9-.2 1.2-.5.3-.4.5-.9.5-1.6zm-4.7-10.4c-1 0-2-.1-3-.4-.8-.2-1.6-.6-2.2-1a5 5 0 0 1-1.5-1.8c-.4-.7-.6-1.5-.6-2.4 0-.7.2-1.4.4-2l1.2-1.5h-7.3v-3.7h20.3v3.3l-1.5.2c.5.5 1 1 1.3 1.6.3.6.4 1.3.4 2.1a5 5 0 0 1-2 4.1 7 7 0 0 1-2.3 1.1c-.9.3-1.9.4-2.9.4h-.3zm.3-3.7l1.7-.1 1.3-.5c.4-.2.7-.5 1-.9l.2-1.3c0-.6 0-1.2-.4-1.6-.2-.4-.6-.7-1-1h-5.9c-.4.3-.8.6-1 1-.4.4-.5 1-.5 1.6 0 .5.1 1 .3 1.3l1 .9 1.3.5 1.7.1h.3zM44 122.2h3.5v-5.3h2.7v5.3h6.1c.5 0 1 0 1.3-.2.4-.1.7-.3.9-.5l.4-.8.1-1a9.7 9.7 0 0 0-.1-1.7 19.1 19.1 0 0 0-.3-1.4l2.6-.4.3 1a8.7 8.7 0 0 1 .5 2.2v1.3c0 .8 0 1.5-.3 2.1a4.2 4.2 0 0 1-2.6 2.7 7 7 0 0 1-2.4.4h-6.5v3.2h-2.7V126H44v-3.7zm5.5-13.2a4.5 4.5 0 0 1-2.2-4c0-.7 0-1.4.3-2a4 4 0 0 1 1-1.6c.5-.5 1.1-.8 1.8-1 .8-.3 1.7-.5 2.7-.5h8.7v3.7H53c-.5 0-1 0-1.3.2l-1 .5-.4.9-.2 1.1c0 .6.1 1.2.3 1.6.3.5.6.9 1 1.1h10.3v3.7H41.5V109h8z" fill="#DA3B3B"/><g><path d="M472.4 82.7a4.5 4.5 0 0 1-3.8-2 7 7 0 0 1-1-2.7c-.2-.5-.2-1-.2-1.4v-2.1c0-1.2-.3-2-.8-2.6-.6-.5-1.4-.7-2.5-.7v-2.7c1 0 2-.2 2.5-.7.5-.5.8-1.4.8-2.6v-2.1a9.2 9.2 0 0 1 .5-2.8c.1-.5.3-1 .6-1.3a4.4 4.4 0 0 1 3.9-2l.4 2c-.5 0-1 .1-1.2.4a2 2 0 0 0-.6 1c-.2.3-.2.7-.3 1.2v3.6c0 1-.3 2-.8 2.8-.5.8-1.3 1.4-2.4 1.9 1.1.4 2 1 2.4 1.8.6.8.8 1.7.8 2.8V78l.4 1.4.7 1c.2.2.6.3 1 .3l-.4 2zm26.4 11.5l-.4 5.5h-2.3v-7h2.7v1.5zm5.4 0l-.3 5.5h-2.4v-7h2.7v1.5zm19 11.8c0 1 0 2-.3 2.9a7 7 0 0 1-1 2.3c-.5.6-1.1 1.1-1.8 1.5a5 5 0 0 1-2.4.6c-.7 0-1.4-.2-2-.4-.6-.3-1-.7-1.5-1.1v6.7h-3.7V98.7h3.4l.1 1.4a4.7 4.7 0 0 1 3.7-1.7c.9 0 1.7.2 2.4.6.7.3 1.3.8 1.7 1.5.5.6.9 1.4 1.1 2.3.3.9.4 1.8.4 3v.2zm-3.6-.3l-.1-1.7c-.2-.5-.3-1-.6-1.3-.2-.4-.5-.7-.9-1l-1.3-.2a3 3 0 0 0-1.6.3l-1 1v6c.3.5.6.9 1 1.1.4.3 1 .4 1.6.4.6 0 1 0 1.4-.3l.9-1 .5-1.3.1-1.7v-.3zm17.3-7.2a9.8 9.8 0 0 1 2.7.3l-.6 3.7a12.6 12.6 0 0 0-2.9-.4c-1 0-1.8.2-2.4.6-.7.4-1.1 1-1.4 1.7v8.6h-3.7V98.7h3.4l.2 2.4c.6-.8 1.3-1.5 2-2 .9-.4 1.8-.6 2.7-.6zm5.5 7.2c0-1 .1-2 .4-2.8a6 6 0 0 1 3.4-3.8 7 7 0 0 1 2.9-.6c1 0 2 .2 2.9.5a6 6 0 0 1 3.4 3.9c.3.8.4 1.8.4 2.8v.3c0 1-.1 2-.4 3-.3.8-.8 1.6-1.3 2.2a6 6 0 0 1-2.1 1.5 7 7 0 0 1-2.9.6c-1 0-2-.2-2.8-.6a6 6 0 0 1-2.2-1.5c-.5-.6-1-1.4-1.3-2.3a9 9 0 0 1-.4-2.9v-.3zm3.6.3c0 .6 0 1.2.2 1.7l.5 1.4c.3.4.6.7 1 .9.4.2.9.3 1.4.3.6 0 1 0 1.4-.3.4-.2.7-.5 1-1l.5-1.3.2-1.7v-.3l-.2-1.6c-.1-.5-.3-1-.6-1.4-.2-.4-.5-.7-.9-1-.4-.1-.9-.3-1.4-.3-.6 0-1 .2-1.4.4-.4.2-.7.5-1 1l-.5 1.3-.2 1.6v.3zm25.9 0c0 1-.1 2-.4 2.9a7 7 0 0 1-1 2.3c-.5.6-1 1.1-1.8 1.5a5 5 0 0 1-2.4.6c-.7 0-1.4-.2-2-.4-.6-.3-1-.7-1.5-1.1v6.7H559V98.7h3.4l.1 1.4a4.7 4.7 0 0 1 3.7-1.7c.9 0 1.7.2 2.4.6.7.3 1.3.8 1.8 1.5.4.6.8 1.4 1 2.3.3.9.4 1.8.4 3v.2zm-3.7-.3l-.1-1.7c-.2-.5-.3-1-.6-1.3-.2-.4-.5-.7-.9-1l-1.3-.2a3 3 0 0 0-1.6.3l-1 1v6c.3.5.6.9 1 1.1.5.3 1 .4 1.7.4.5 0 1 0 1.3-.3l.9-1 .5-1.3.1-1.7v-.3zm16 7.3h-3.6V98.3l-4.9 1.7v-3.2l8.4-3h.2V113zm11-2.1c0-.4 0-.7.2-1 0-.3.2-.5.5-.7.2-.3.4-.4.8-.6l1-.1 1.1.1c.3.2.6.3.8.6l.5.7a2.5 2.5 0 0 1-.5 2.7l-.8.5a3 3 0 0 1-1 .2 3 3 0 0 1-1.1-.2c-.4-.1-.6-.3-.8-.5-.3-.2-.4-.5-.5-.8-.2-.3-.2-.6-.2-1zm21.5 2.1H613V98.3L608 100v-3.2l8.4-3h.2V113zm11.7-18.8l-.3 5.5h-2.4v-7h2.7v1.5zm5.5 0l-.4 5.5h-2.3v-7h2.7v1.5zm10 16.7l.2-1 .5-.7.9-.6 1-.1 1 .1c.4.2.7.3.9.6l.5.7a2.5 2.5 0 0 1-.5 2.7l-.8.5a3 3 0 0 1-1 .2 3 3 0 0 1-1.1-.2c-.4-.1-.6-.3-.9-.5l-.5-.8-.1-1zm0-11l.2-.9.5-.7c.3-.2.5-.4.9-.5.3-.2.6-.2 1-.2s.8 0 1 .2c.4 0 .7.3.9.5l.5.7a2.5 2.5 0 0 1-.5 2.7l-.8.5a3 3 0 0 1-1 .2 3 3 0 0 1-1.1-.2c-.4-.1-.6-.3-.9-.5l-.5-.8-.1-1zm39.1 17.8a4.5 4.5 0 0 1-3.8-2 7 7 0 0 1-1-2.7l-.2-1.4v-2.1c0-1.2-.3-2-.8-2.6-.5-.5-1.4-.7-2.5-.7v-2.7c1.1 0 2-.2 2.5-.7.5-.5.8-1.4.8-2.6v-2.1a9.2 9.2 0 0 1 .5-2.8l.6-1.3a4.4 4.4 0 0 1 4-2l.4 2c-.6 0-1 .1-1.3.4a2 2 0 0 0-.6 1l-.2 1.2v3.6c0 1-.3 2-.8 2.8-.5.8-1.3 1.4-2.4 1.9 1 .4 1.9 1 2.4 1.8s.7 1.7.7 2.8v2.1l.1 1.4c0 .5.2 1 .3 1.4l.7 1c.3.2.6.3 1 .3l-.4 2zm-151.8 11.5l-.4 5.5h-2.3v-7h2.7v1.5zm5.4 0l-.3 5.5h-2.4v-7h2.7v1.5zm19 11.8c0 1 0 2-.3 2.9a7 7 0 0 1-1 2.3c-.5.6-1.1 1.1-1.8 1.5a5 5 0 0 1-2.4.6c-.7 0-1.4-.2-2-.4-.6-.3-1-.7-1.5-1.1v6.7h-3.7v-19.8h3.4l.1 1.4a4.7 4.7 0 0 1 3.7-1.7c.9 0 1.7.2 2.4.6.7.3 1.3.8 1.7 1.5.5.6.9 1.4 1.1 2.3.3.9.4 1.8.4 3v.2zm-3.6-.3l-.1-1.7c-.2-.5-.3-1-.6-1.3-.2-.4-.5-.7-.9-1l-1.3-.2a3 3 0 0 0-1.6.3l-1 1v6c.3.5.6.9 1 1.1.5.3 1 .4 1.6.4.6 0 1 0 1.4-.3l.9-1 .5-1.3.1-1.7v-.3zm17.3-7.2a9.8 9.8 0 0 1 2.7.3l-.5 3.7a12.6 12.6 0 0 0-3-.4c-1 0-1.8.2-2.4.6-.7.4-1.1 1-1.4 1.7v8.6H561v-14.3h3.4l.2 2.4c.6-.8 1.3-1.5 2-2 .9-.4 1.8-.6 2.7-.6zm5.5 7.2c0-1 .1-2 .4-2.8a6 6 0 0 1 3.4-3.8 7 7 0 0 1 2.9-.6c1 0 2 .2 2.9.5a6 6 0 0 1 3.4 3.9c.3.8.4 1.8.4 2.8v.3c0 1-.1 2-.4 3-.3.8-.7 1.6-1.3 2.2a6 6 0 0 1-2.1 1.5 7 7 0 0 1-2.9.6c-1 0-2-.2-2.8-.6a6 6 0 0 1-2.2-1.5c-.5-.6-1-1.4-1.3-2.3a9 9 0 0 1-.4-2.9v-.3zm3.6.3l.2 1.7c.1.5.3 1 .6 1.4.2.4.5.7 1 .9.3.2.8.3 1.3.3.6 0 1 0 1.4-.3.4-.2.7-.5 1-1l.5-1.3.2-1.7v-.3l-.2-1.6-.5-1.4-1-1c-.4-.1-.8-.3-1.4-.3-.5 0-1 .2-1.4.4-.4.2-.7.5-1 1l-.5 1.3-.2 1.6v.3zm25.9 0c0 1-.1 2-.4 2.9a7 7 0 0 1-1 2.3c-.5.6-1 1.1-1.8 1.5a5 5 0 0 1-2.4.6c-.7 0-1.4-.2-2-.4-.6-.3-1-.7-1.5-1.1v6.7h-3.7v-19.8h3.4l.2 1.4c.4-.5 1-.9 1.5-1.2.6-.3 1.3-.4 2.1-.4a4.9 4.9 0 0 1 4.2 2c.4.6.8 1.4 1 2.3.3.9.4 1.8.4 3v.2zm-3.7-.3l-.1-1.7-.5-1.3-1-1-1.3-.2a3 3 0 0 0-1.5.3c-.5.3-.8.6-1 1v6c.2.5.5.9 1 1.1.4.3.9.4 1.6.4.5 0 1 0 1.3-.3l.9-1 .5-1.3.1-1.7v-.3zm19.6 7.3h-13v-2.5l6.2-6.7a23.3 23.3 0 0 0 2-2.6l.4-1 .2-.9c0-.4 0-.8-.2-1.1-.1-.4-.3-.6-.5-.9l-.8-.5-1-.2c-1 0-1.8.3-2.3.8-.5.6-.8 1.4-.8 2.4h-3.7a6 6 0 0 1 4-5.8c.9-.3 1.8-.5 2.8-.5 1 0 1.9.2 2.6.4.8.3 1.4.7 2 1.2.4.5.8 1 1 1.8a6.4 6.4 0 0 1-.7 5.8l-1.3 1.7-1.7 1.8-3.6 3.9h8.4v2.9zm7.4-2.1c0-.4 0-.7.2-1 0-.3.2-.5.5-.7.2-.3.4-.4.8-.6l1-.1 1.1.1c.3.2.6.3.8.6l.5.7a2.5 2.5 0 0 1-.5 2.7l-.8.5a3 3 0 0 1-1 .2 3 3 0 0 1-1.1-.2c-.4-.1-.6-.3-.8-.5-.3-.2-.4-.5-.5-.8-.2-.3-.2-.6-.2-1zM649 148h-3.7v-14.7l-4.9 1.7v-3.2l8.4-3h.2V148zm11.8-18.8l-.4 5.5H658v-7h2.8v1.5zm5.4 0l-.4 5.5h-2.3v-7h2.7v1.5zm10 16.7c0-.4.1-.7.3-1 0-.3.2-.5.5-.7.2-.3.4-.4.8-.6l1-.1 1 .1c.4.2.7.3.9.6l.5.7a2.5 2.5 0 0 1-.5 2.7l-.8.5a3 3 0 0 1-1 .2 3 3 0 0 1-1.1-.2c-.4-.1-.6-.3-.8-.5-.3-.2-.4-.5-.5-.8-.2-.3-.2-.6-.2-1zm0-11l.3-.9c0-.3.2-.5.5-.7.2-.2.4-.4.8-.5.3-.2.6-.2 1-.2s.8 0 1 .2c.4 0 .7.3.9.5l.5.7a2.5 2.5 0 0 1-.5 2.7l-.8.5a3 3 0 0 1-1 .2 3 3 0 0 1-1.1-.2c-.4-.1-.6-.3-.8-.5-.3-.2-.4-.5-.5-.8-.2-.3-.2-.6-.2-1zm39.1 17.8a4.5 4.5 0 0 1-3.8-2 7 7 0 0 1-1-2.7l-.2-1.4v-2.1c0-1.2-.3-2-.8-2.6-.5-.5-1.4-.7-2.5-.7v-2.7c1.1 0 2-.2 2.5-.7.5-.5.8-1.4.8-2.6v-2.1a9.2 9.2 0 0 1 .5-2.8l.6-1.3a4.4 4.4 0 0 1 4-2l.4 2c-.6 0-1 .1-1.3.4a2 2 0 0 0-.6 1l-.2 1.2v3.6c0 1-.3 2-.8 2.8-.5.8-1.3 1.4-2.4 1.9 1 .4 1.9 1 2.4 1.8s.7 1.7.7 2.8v2.1l.1 1.4c0 .5.2 1 .4 1.4.1.4.3.7.6 1 .3.2.6.3 1 .3l-.4 2zm-151.8 11.5l-.3 5.5h-2.4v-7h2.7v1.5zm5.5 0l-.4 5.5h-2.3v-7h2.7v1.5zm19 11.8c0 1-.1 2-.4 2.9a7 7 0 0 1-1 2.3c-.5.6-1 1.1-1.8 1.5a5 5 0 0 1-2.4.6c-.7 0-1.4-.2-2-.4-.6-.3-1-.7-1.5-1.1v6.7h-3.7v-19.8h3.4l.2 1.4c.4-.5 1-.9 1.5-1.2.6-.3 1.3-.4 2.1-.4a4.9 4.9 0 0 1 4.2 2c.4.6.8 1.4 1 2.3.3.9.4 1.8.4 3v.2zm-3.7-.3l-.1-1.7c-.1-.5-.3-1-.6-1.3l-.8-1-1.4-.2a3 3 0 0 0-1.5.3c-.5.3-.8.6-1 1v6c.2.5.5.9 1 1.1.4.3.9.4 1.6.4.5 0 1 0 1.3-.3l.9-1 .5-1.3.1-1.7v-.3zm17.3-7.2a9.8 9.8 0 0 1 2.7.3l-.5 3.7a12.6 12.6 0 0 0-3-.4c-1 0-1.8.2-2.4.6-.7.4-1.1 1-1.4 1.7v8.6h-3.7v-14.3h3.4l.2 2.4c.6-.8 1.3-1.5 2-2 .9-.4 1.8-.6 2.7-.6zm5.5 7.2c0-1 .1-2 .4-2.8a6 6 0 0 1 3.4-3.8 7 7 0 0 1 3-.6c1 0 2 .2 2.8.5a6 6 0 0 1 3.4 3.9c.3.8.4 1.8.4 2.8v.3c0 1-.1 2-.4 3-.3.8-.7 1.6-1.3 2.2a6 6 0 0 1-2.1 1.5 7 7 0 0 1-2.9.6c-1 0-2-.2-2.8-.6a6 6 0 0 1-2.2-1.5c-.5-.6-1-1.4-1.3-2.3a9 9 0 0 1-.4-2.9v-.3zm3.6.3l.2 1.7c.1.5.3 1 .6 1.4.2.4.5.7 1 .9.3.2.8.3 1.3.3.6 0 1 0 1.4-.3.4-.2.7-.5 1-1l.5-1.3.2-1.7v-.3c0-.5 0-1-.2-1.6l-.5-1.4-1-1c-.4-.1-.8-.3-1.4-.3-.5 0-1 .2-1.4.4-.4.2-.7.5-1 1l-.5 1.3-.2 1.6v.3zm25.9 0c0 1-.1 2-.4 2.9a7 7 0 0 1-1 2.3c-.5.6-1 1.1-1.8 1.5a5 5 0 0 1-2.4.6c-.7 0-1.4-.2-2-.4-.6-.3-1-.7-1.5-1.1v6.7h-3.7v-19.8h3.4l.2 1.4c.4-.5 1-.9 1.5-1.2.6-.3 1.3-.4 2.1-.4a4.9 4.9 0 0 1 4.2 2c.4.6.8 1.4 1 2.3.3.9.4 1.8.4 3v.2zm-3.7-.3l-.1-1.7-.5-1.3-1-1-1.3-.2a3 3 0 0 0-1.5.3c-.4.3-.8.6-1 1v6c.2.5.6.9 1 1.1.4.3.9.4 1.6.4.5 0 1 0 1.3-.3.4-.2.6-.6.9-1l.5-1.3.1-1.7v-.3zm10.8-4h2c1 0 1.7-.2 2.2-.7.5-.5.7-1.1.7-2l-.1-1a2.2 2.2 0 0 0-1.4-1.3l-1.2-.2c-.3 0-.7 0-1 .2-.3 0-.6.2-.8.4l-.6.7a2 2 0 0 0-.2 1h-3.7a4.7 4.7 0 0 1 1.8-3.8c.6-.5 1.2-.8 2-1 .8-.3 1.6-.5 2.5-.5 1 0 1.8.2 2.6.4s1.4.6 2 1c.6.5 1 1 1.3 1.7a5.6 5.6 0 0 1 .3 3.6 4.4 4.4 0 0 1-1.4 2.2l-1.2.8a4.3 4.3 0 0 1 3 3v1.4c0 1 0 1.7-.4 2.4s-.8 1.3-1.4 1.8c-.6.5-1.4.8-2.2 1a9 9 0 0 1-5 .1c-.8-.2-1.5-.5-2.1-1a5 5 0 0 1-1.5-1.7 5 5 0 0 1-.5-2.4h3.7c0 .3 0 .7.2 1 .1.3.3.6.6.8.2.2.5.4.9.5.3.2.7.2 1.1.2a3 3 0 0 0 2.2-.7c.6-.5.8-1.2.8-2 0-.5 0-1-.2-1.3-.1-.4-.4-.7-.7-1l-1-.5a5 5 0 0 0-1.3-.2h-2v-2.8zM660 181c0-.4 0-.7.2-1 0-.3.2-.5.5-.7.2-.3.5-.4.8-.6l1-.1 1.1.1c.3.2.6.3.8.6l.5.7a2.5 2.5 0 0 1-.5 2.7l-.8.5a3 3 0 0 1-1 .2 3 3 0 0 1-1.1-.2l-.8-.5c-.3-.2-.4-.5-.5-.8l-.2-1zm21.5 2.1h-3.7v-14.7l-4.9 1.7v-3.2l8.4-3h.2V183zm11.8-18.8l-.4 5.5h-2.4v-7h2.8v1.5zm5.4 0l-.4 5.5H696v-7h2.7v1.5zm10 16.7c0-.4.1-.7.3-1 0-.3.2-.5.5-.7.2-.3.4-.4.8-.6l1-.1 1.1.1c.3.2.6.3.8.6l.5.7a2.5 2.5 0 0 1-.5 2.7l-.8.5a3 3 0 0 1-1 .2 3 3 0 0 1-1.1-.2c-.4-.1-.6-.3-.8-.5-.3-.2-.4-.5-.5-.8-.2-.3-.2-.6-.2-1zm0-11l.3-.9c0-.3.2-.5.5-.7.2-.2.4-.4.8-.5.3-.2.6-.2 1-.2s.8 0 1.1.2c.3 0 .6.3.8.5l.5.7a2.5 2.5 0 0 1-.5 2.7l-.8.5a3 3 0 0 1-1 .2 3 3 0 0 1-1.1-.2c-.4-.1-.6-.3-.8-.5-.3-.2-.4-.5-.5-.8-.2-.3-.2-.6-.2-1zm39.1 17.8a4.5 4.5 0 0 1-3.8-2 7 7 0 0 1-1-2.7l-.2-1.4v-2.1c0-1.2-.2-2-.8-2.6-.5-.5-1.4-.7-2.5-.7v-2.7c1.1 0 2-.2 2.5-.7.6-.5.8-1.4.8-2.6v-2.1a9.2 9.2 0 0 1 .5-2.8l.6-1.3a4.4 4.4 0 0 1 4-2l.4 2c-.6 0-1 .1-1.3.4a2 2 0 0 0-.6 1l-.2 1.2v3.6c0 1-.3 2-.8 2.8-.5.8-1.3 1.4-2.4 1.9 1 .4 1.9 1 2.4 1.8s.7 1.7.7 2.8v2.1l.1 1.4c0 .5.2 1 .4 1.4.1.4.3.7.6 1 .3.2.6.3 1 .3l-.4 2zM596 199.2l-.3 5.5h-2.4v-7h2.7v1.5zm5.5 0l-.4 5.5h-2.3v-7h2.7v1.5zm9.9 16.7c0-.4 0-.7.2-1 0-.3.2-.5.5-.7.2-.3.4-.4.8-.6l1-.1 1.1.1c.3.2.6.3.8.6l.5.7a2.5 2.5 0 0 1-.5 2.7l-.8.5a3 3 0 0 1-1 .2 3 3 0 0 1-1.1-.2c-.4-.1-.6-.3-.8-.5-.3-.2-.4-.5-.5-.8-.2-.3-.2-.6-.2-1zm16.2 0c0-.4 0-.7.2-1 0-.3.2-.5.5-.7.2-.3.4-.4.8-.6l1-.1 1.1.1c.3.2.6.3.8.6l.5.7a2.5 2.5 0 0 1-.5 2.7l-.8.5a3 3 0 0 1-1 .2 3 3 0 0 1-1.1-.2c-.4-.1-.6-.3-.8-.5-.3-.2-.4-.5-.5-.8-.2-.3-.2-.6-.2-1zm16.2 0c0-.4 0-.7.2-1 0-.3.2-.5.5-.7.2-.3.5-.4.8-.6l1-.1 1.1.1c.3.2.6.3.8.6l.5.7a2.5 2.5 0 0 1-.5 2.7l-.8.5a3 3 0 0 1-1 .2 3 3 0 0 1-1.1-.2l-.8-.5c-.3-.2-.4-.5-.5-.8-.2-.3-.2-.6-.2-1zm17-16.7l-.3 5.5H658v-7h2.8v1.5zm5.5 0l-.4 5.5h-2.3v-7h2.7v1.5zm10 16.7c0-.4.1-.7.3-1 0-.3.2-.5.5-.7.2-.3.4-.4.8-.6l1-.1 1 .1c.4.2.7.3.9.6l.5.7a2.5 2.5 0 0 1-.5 2.7l-.8.5a3 3 0 0 1-1 .2 3 3 0 0 1-1.1-.2c-.4-.1-.6-.3-.8-.5-.3-.2-.4-.5-.5-.8-.2-.3-.2-.6-.2-1zm0-11l.3-.9c0-.3.2-.5.5-.7.2-.2.4-.4.8-.5.3-.2.6-.2 1-.2s.8 0 1 .2c.4 0 .7.3.9.5l.5.7a2.5 2.5 0 0 1-.5 2.7l-.8.5a3 3 0 0 1-1 .2 3 3 0 0 1-1.1-.2c-.4-.1-.6-.3-.8-.5-.3-.2-.4-.5-.5-.8-.2-.3-.2-.6-.2-1zm33.2-5.7l-.4 5.5h-2.4v-7h2.8v1.5zm5.4 0l-.4 5.5h-2.3v-7h2.7v1.5zm10 16.7v-1l.6-.7c.2-.3.5-.4.8-.6l1-.1 1.1.1c.3.2.6.3.8.6l.5.7a2.5 2.5 0 0 1-.5 2.7l-.8.5a3 3 0 0 1-1 .2 3 3 0 0 1-1.1-.2l-.8-.5-.5-.8-.2-1zm16.1 0c0-.4 0-.7.2-1 0-.3.3-.5.5-.7.2-.3.5-.4.8-.6l1-.1 1.1.1c.3.2.6.3.8.6l.5.7a2.5 2.5 0 0 1-.5 2.7l-.8.5a3 3 0 0 1-1 .2 3 3 0 0 1-1.1-.2l-.8-.5-.5-.8-.2-1zm16.2 0c0-.4 0-.7.2-1l.5-.7c.2-.3.5-.4.8-.6l1-.1 1.1.1c.3.2.6.3.8.6l.5.7a2.5 2.5 0 0 1-.5 2.7l-.8.5a3 3 0 0 1-1 .2 3 3 0 0 1-1.1-.2l-.8-.5-.5-.8-.2-1zm17-16.7l-.3 5.5h-2.3v-7h2.7v1.5zm5.5 0l-.4 5.5H777v-7h2.7v1.5zm-218.1 56.5c.4 0 .8-.1 1-.4.3-.2.5-.5.7-1a11.5 11.5 0 0 0 .4-2.8v-2c0-.6 0-1 .2-1.5a4.6 4.6 0 0 1 2.8-3.1c-1-.5-1.8-1.1-2.2-2-.5-.7-.8-1.7-.8-2.7v-2.1a32 32 0 0 0-.2-2.8 2 2 0 0 0-.7-1c-.3-.2-.7-.3-1.2-.3l.4-2c.7 0 1.2 0 1.7.2a4.4 4.4 0 0 1 2.2 1.8 6.2 6.2 0 0 1 1 2.7l.2 1.4v2.1c0 1.2.2 2 .8 2.6.5.5 1.3.7 2.5.7v2.7c-1.2 0-2 .2-2.5.7-.6.5-.8 1.4-.8 2.6v2.1a7.9 7.9 0 0 1-1.2 4.1c-.3.4-.6.8-1 1a4.5 4.5 0 0 1-2.9 1l-.4-2zm-32.4 35c.4 0 .8-.1 1-.4.3-.2.5-.5.7-1a11.5 11.5 0 0 0 .4-2.8v-2c0-.6 0-1 .2-1.5a4.6 4.6 0 0 1 2.8-3.1c-1-.5-1.8-1.1-2.3-2-.4-.7-.7-1.7-.7-2.7v-2.1a32 32 0 0 0-.2-2.8 2 2 0 0 0-.7-1c-.3-.2-.7-.3-1.2-.3l.4-2c.7 0 1.2 0 1.7.2a4.4 4.4 0 0 1 2.2 1.8 6.2 6.2 0 0 1 1 2.7l.1 1.4v2.1c0 1.2.3 2 .9 2.6.5.5 1.3.7 2.5.7v2.7c-1.2 0-2 .2-2.5.7-.6.5-.9 1.4-.9 2.6v2.1a7.9 7.9 0 0 1-1.2 4.1c-.2.4-.5.8-1 1a4.5 4.5 0 0 1-2.8 1l-.4-2zm-32.4 35c.4 0 .8-.1 1-.4.3-.2.5-.5.7-1a11.5 11.5 0 0 0 .4-2.8v-2c0-.6 0-1 .2-1.5a4.6 4.6 0 0 1 2.8-3.1c-1-.5-1.8-1.1-2.3-2-.4-.7-.7-1.7-.7-2.7v-2.1a32 32 0 0 0-.2-2.8 2 2 0 0 0-.7-1c-.3-.2-.7-.3-1.2-.3l.4-2c.6 0 1.2 0 1.7.2a4.4 4.4 0 0 1 2.2 1.8 6.2 6.2 0 0 1 1 2.7l.1 1.4v2.1c0 1.2.3 2 .9 2.6.5.5 1.3.7 2.4.7v2.7c-1 0-2 .2-2.4.7-.6.5-.9 1.4-.9 2.6v2.1a7.9 7.9 0 0 1-1.2 4.1c-.2.4-.6.8-1 1a4.5 4.5 0 0 1-2.8 1l-.4-2zm-32.4 35c.4 0 .8-.1 1-.4.3-.2.5-.5.7-1 .1-.3.3-.8.3-1.3l.1-1.4v-2.1c0-.6 0-1 .2-1.5a4.6 4.6 0 0 1 2.8-3.1c-1-.5-1.8-1.1-2.3-2-.4-.7-.7-1.7-.7-2.7v-2.1a32 32 0 0 0-.3-2.8 2 2 0 0 0-.6-1c-.3-.2-.7-.3-1.2-.3l.4-2c.6 0 1.2 0 1.7.2a4.4 4.4 0 0 1 2.2 1.8 6.2 6.2 0 0 1 1 2.7l.1 1.4v2.1c0 1.2.3 2 .8 2.6.6.5 1.4.7 2.5.7v2.7c-1 0-2 .2-2.5.7-.5.5-.8 1.4-.8 2.6v2.1a7.9 7.9 0 0 1-1.2 4.1c-.2.4-.6.8-1 1a4.5 4.5 0 0 1-2.8 1l-.4-2z" fill="#035363"/><path d="M719.4 80l77.3 91.8 13.8-11.6L822 208l-45.2-19.5 13.8-11.6-77.3-91.7-13.8 11.6L688 49l45.2 19.5L719.4 80z" fill="#DA3B3B"/><path d="M741.2 88.8L756 76.5l3.2 3.8c.9 1 1.4 2 1.8 3a7.7 7.7 0 0 1-.8 6.3c-.5 1-1.3 2-2.3 2.8l-1.2 1c-1 .8-2 1.5-3.1 1.8-1.1.4-2.2.6-3.2.5-1.1 0-2.1-.3-3.1-.8s-1.9-1.2-2.6-2.1l-3.4-4zm14.8-7.5l-10 8.5.8 1a3.8 3.8 0 0 0 3.3 1.5c.6 0 1.3-.1 2-.4a9 9 0 0 0 2-1.4l1.3-1 1.6-1.8c.4-.6.7-1.2.8-1.8a4 4 0 0 0 0-1.9c-.2-.6-.5-1.2-1-1.8l-.8-1zm0 25.6a8 8 0 0 1-1.5-2.7 7 7 0 0 1-.3-2.7c0-.9.3-1.7.7-2.5a7 7 0 0 1 1.7-2.2l.4-.3c.9-.7 1.7-1.2 2.6-1.5a6.5 6.5 0 0 1 5.3.3 7 7 0 0 1 2.2 1.7 7 7 0 0 1 1.4 2.5 5.7 5.7 0 0 1-.7 4.9 9 9 0 0 1-1.9 2.1l-1.2 1-6.2-7.4a4 4 0 0 0-.8 1.2 3.6 3.6 0 0 0 .7 3.8 5.5 5.5 0 0 0 1.7 1.4l1 .4h1l-.3 2.7h-1.3a6 6 0 0 1-1.5-.5 8.3 8.3 0 0 1-3-2.2zm8.8-8c-.2-.3-.5-.5-.9-.7-.3-.2-.7-.3-1-.3l-1.2.1-1.2.5 3.8 4.7.3-.2.7-1a2.6 2.6 0 0 0 .1-2c0-.4-.3-.7-.6-1zm11 20.2a11 11 0 0 1-2.4 1.6 7 7 0 0 1-2.5.7 5 5 0 0 1-4.2-1.8c-.5-.7-.9-1.3-1-1.9-.2-.6-.2-1.2-.2-1.8l-5.1 4.3-2.4-2.8 15.2-12.7 2.1 2.6-1 1c.7 0 1.4.1 2 .4.6.2 1.2.7 1.7 1.3.6.7 1 1.4 1.1 2.2.2.7.2 1.5 0 2.3-.2.7-.5 1.5-1 2.3l-2 2.1-.3.2zm-2.1-3l1.1-1.2c.4-.4.6-.8.8-1.2v-1.3c0-.4-.2-.8-.5-1.2a3 3 0 0 0-1.3-1c-.5-.2-1-.2-1.5 0l-4.5 3.8c-.2.4-.3 1-.2 1.4 0 .5.3 1 .7 1.5.3.4.7.6 1.1.8h1.3c.4 0 .9-.2 1.4-.4l1.3-1 .3-.2zm16.8 3.8l-2.6 2.3 3.4 4-2 1.8-3.5-4-4.7 3.9a4 4 0 0 0-.9 1 2 2 0 0 0-.3.9c0 .3 0 .6.2.9.1.3.3.6.6.8a9.7 9.7 0 0 0 1.2 1.3 19.1 19.1 0 0 0 1 .8l-1.7 2-.8-.5a8.7 8.7 0 0 1-1.9-1.5 13 13 0 0 1-.8-.9c-.5-.6-.9-1.2-1.1-1.8a4.2 4.2 0 0 1 .3-3.8 7 7 0 0 1 1.6-1.8l5-4.2-2.2-2.5 2.1-1.7 2.1 2.5 2.7-2.3 2.3 2.8zm4.3 13.6c.8 0 1.6 0 2.4.3.7.3 1.4.7 1.9 1.4a6 6 0 0 1 1 1.8c.3.6.4 1.2.3 1.9 0 .6-.3 1.3-.7 2-.4.6-1 1.3-1.8 2l-6.7 5.5-2.3-2.8 6.6-5.6 1-1 .2-1-.1-1-.6-1-1.3-1a3 3 0 0 0-1.4-.2l-8 6.6-2.3-2.8 15.5-13 2.4 2.8-6 5.1z" fill="#DA3B3B"/></g></g></svg>