<?xml version="1.0" encoding="utf-8" standalone="no"?>
<!DOCTYPE svg PUBLIC "-//W3C//DTD SVG 1.1//EN"
  "http://www.w3.org/Graphics/SVG/1.1/DTD/svg11.dtd">
<!-- Created with matplotlib (https://matplotlib.org/) -->
<svg height="720pt" version="1.1" viewBox="0 0 720 720" width="720pt" xmlns="http://www.w3.org/2000/svg" xmlns:xlink="http://www.w3.org/1999/xlink">
 <defs>
  <style type="text/css">
*{stroke-linecap:butt;stroke-linejoin:round;white-space:pre;}
  </style>
 </defs>
 <g id="figure_1">
  <g id="patch_1">
   <path d="M 0 720 
L 720 720 
L 720 0 
L 0 0 
z
" style="fill:#ffffff;"/>
  </g>
  <g id="axes_1">
   <g id="patch_2">
    <path d="M 72 648 
L 493.2 648 
L 493.2 72 
L 72 72 
z
" style="fill:#ffffff;"/>
   </g>
   <g id="PathCollection_1">
    <path clip-path="url(#p4c036b9e93)" d="M 156.24 648 
L 240.48 648 
L 324.72 648 
L 332.852967 648 
L 324.72 647.681794 
L 240.48 639.966872 
L 156.24 606.311218 
L 96.2414 532.8 
L 72 430.293422 
L 72 532.8 
L 72 648 
z
" style="fill:#481f70;"/>
   </g>
   <g id="PathCollection_2">
    <path clip-path="url(#p4c036b9e93)" d="M 156.24 606.311218 
L 240.48 639.966872 
L 324.72 647.681794 
L 332.852967 648 
L 408.96 648 
L 493.2 648 
L 493.2 618.248947 
L 408.96 584.641798 
L 340.295479 532.8 
L 324.72 525.915639 
L 240.48 442.761877 
L 222.732188 417.6 
L 172.279003 302.4 
L 157.244619 187.2 
L 156.24 173.506398 
L 130.744622 72 
L 72 72 
L 72 187.2 
L 72 302.4 
L 72 417.6 
L 72 430.293422 
L 96.2414 532.8 
z
" style="fill:#3b528b;"/>
   </g>
   <g id="PathCollection_3">
    <path clip-path="url(#p4c036b9e93)" d="M 408.96 584.641798 
L 493.2 618.248947 
L 493.2 532.8 
L 493.2 506.73757 
L 408.96 427.345767 
L 399.998776 417.6 
L 324.72 309.691224 
L 320.057677 302.4 
L 262.605392 187.2 
L 244.172312 72 
L 240.48 72 
L 156.24 72 
L 130.744622 72 
L 156.24 173.506398 
L 157.244619 187.2 
L 172.279003 302.4 
L 222.732188 417.6 
L 240.48 442.761877 
L 324.72 525.915639 
L 340.295479 532.8 
z
" style="fill:#287c8e;"/>
   </g>
   <g id="PathCollection_4">
    <path clip-path="url(#p4c036b9e93)" d="M 408.96 427.345767 
L 493.2 506.73757 
L 493.2 417.6 
L 493.2 359.874667 
L 447.996165 302.4 
L 408.96 219.077403 
L 389.789479 187.2 
L 342.016195 72 
L 324.72 72 
L 244.172312 72 
L 262.605392 187.2 
L 320.057677 302.4 
L 324.72 309.691224 
L 399.998776 417.6 
z
" style="fill:#20a486;"/>
   </g>
   <g id="PathCollection_5">
    <path clip-path="url(#p4c036b9e93)" d="M 493.2 359.874667 
L 493.2 302.4 
L 493.2 187.2 
L 493.2 148.79319 
L 449.003496 72 
L 408.96 72 
L 342.016195 72 
L 389.789479 187.2 
L 408.96 219.077403 
L 447.996165 302.4 
z
" style="fill:#5ec962;"/>
   </g>
   <g id="PathCollection_6">
    <path clip-path="url(#p4c036b9e93)" d="M 493.2 148.79319 
L 493.2 72 
L 449.003496 72 
z
" style="fill:#c8e020;"/>
   </g>
   <g id="matplotlib.axis_1">
    <g id="xtick_1">
     <g id="line2d_1">
      <defs>
       <path d="M 0 0 
L 0 3.5 
" id="mca2b854b42" style="stroke:#000000;stroke-width:0.8;"/>
      </defs>
      <g>
       <use style="stroke:#000000;stroke-width:0.8;" x="72" xlink:href="#mca2b854b42" y="648"/>
      </g>
     </g>
     <g id="text_1">
      <!-- 1 -->
      <defs>
       <path d="M 12.40625 8.296875 
L 28.515625 8.296875 
L 28.515625 63.921875 
L 10.984375 60.40625 
L 10.984375 69.390625 
L 28.421875 72.90625 
L 38.28125 72.90625 
L 38.28125 8.296875 
L 54.390625 8.296875 
L 54.390625 0 
L 12.40625 0 
z
" id="DejaVuSans-49"/>
      </defs>
      <g transform="translate(68.81875 689.098438)scale(0.1 -0.1)">
       <use xlink:href="#DejaVuSans-49"/>
      </g>
     </g>
    </g>
    <g id="xtick_2">
     <g id="line2d_2">
      <g>
       <use style="stroke:#000000;stroke-width:0.8;" x="156.24" xlink:href="#mca2b854b42" y="648"/>
      </g>
     </g>
     <g id="text_2">
      <!-- 2 -->
      <defs>
       <path d="M 19.1875 8.296875 
L 53.609375 8.296875 
L 53.609375 0 
L 7.328125 0 
L 7.328125 8.296875 
Q 12.9375 14.109375 22.625 23.890625 
Q 32.328125 33.6875 34.8125 36.53125 
Q 39.546875 41.84375 41.421875 45.53125 
Q 43.3125 49.21875 43.3125 52.78125 
Q 43.3125 58.59375 39.234375 62.25 
Q 35.15625 65.921875 28.609375 65.921875 
Q 23.96875 65.921875 18.8125 64.3125 
Q 13.671875 62.703125 7.8125 59.421875 
L 7.8125 69.390625 
Q 13.765625 71.78125 18.9375 73 
Q 24.125 74.21875 28.421875 74.21875 
Q 39.75 74.21875 46.484375 68.546875 
Q 53.21875 62.890625 53.21875 53.421875 
Q 53.21875 48.921875 51.53125 44.890625 
Q 49.859375 40.875 45.40625 35.40625 
Q 44.1875 33.984375 37.640625 27.21875 
Q 31.109375 20.453125 19.1875 8.296875 
z
" id="DejaVuSans-50"/>
      </defs>
      <g transform="translate(153.05875 689.098438)scale(0.1 -0.1)">
       <use xlink:href="#DejaVuSans-50"/>
      </g>
     </g>
    </g>
    <g id="xtick_3">
     <g id="line2d_3">
      <g>
       <use style="stroke:#000000;stroke-width:0.8;" x="240.48" xlink:href="#mca2b854b42" y="648"/>
      </g>
     </g>
     <g id="text_3">
      <!-- 3 -->
      <defs>
       <path d="M 40.578125 39.3125 
Q 47.65625 37.796875 51.625 33 
Q 55.609375 28.21875 55.609375 21.1875 
Q 55.609375 10.40625 48.1875 4.484375 
Q 40.765625 -1.421875 27.09375 -1.421875 
Q 22.515625 -1.421875 17.65625 -0.515625 
Q 12.796875 0.390625 7.625 2.203125 
L 7.625 11.71875 
Q 11.71875 9.328125 16.59375 8.109375 
Q 21.484375 6.890625 26.8125 6.890625 
Q 36.078125 6.890625 40.9375 10.546875 
Q 45.796875 14.203125 45.796875 21.1875 
Q 45.796875 27.640625 41.28125 31.265625 
Q 36.765625 34.90625 28.71875 34.90625 
L 20.21875 34.90625 
L 20.21875 43.015625 
L 29.109375 43.015625 
Q 36.375 43.015625 40.234375 45.921875 
Q 44.09375 48.828125 44.09375 54.296875 
Q 44.09375 59.90625 40.109375 62.90625 
Q 36.140625 65.921875 28.71875 65.921875 
Q 24.65625 65.921875 20.015625 65.03125 
Q 15.375 64.15625 9.8125 62.3125 
L 9.8125 71.09375 
Q 15.4375 72.65625 20.34375 73.4375 
Q 25.25 74.21875 29.59375 74.21875 
Q 40.828125 74.21875 47.359375 69.109375 
Q 53.90625 64.015625 53.90625 55.328125 
Q 53.90625 49.265625 50.4375 45.09375 
Q 46.96875 40.921875 40.578125 39.3125 
z
" id="DejaVuSans-51"/>
      </defs>
      <g transform="translate(237.29875 689.098438)scale(0.1 -0.1)">
       <use xlink:href="#DejaVuSans-51"/>
      </g>
     </g>
    </g>
    <g id="xtick_4">
     <g id="line2d_4">
      <g>
       <use style="stroke:#000000;stroke-width:0.8;" x="324.72" xlink:href="#mca2b854b42" y="648"/>
      </g>
     </g>
     <g id="text_4">
      <!-- 4 -->
      <defs>
       <path d="M 37.796875 64.3125 
L 12.890625 25.390625 
L 37.796875 25.390625 
z
M 35.203125 72.90625 
L 47.609375 72.90625 
L 47.609375 25.390625 
L 58.015625 25.390625 
L 58.015625 17.1875 
L 47.609375 17.1875 
L 47.609375 0 
L 37.796875 0 
L 37.796875 17.1875 
L 4.890625 17.1875 
L 4.890625 26.703125 
z
" id="DejaVuSans-52"/>
      </defs>
      <g transform="translate(321.53875 689.098438)scale(0.1 -0.1)">
       <use xlink:href="#DejaVuSans-52"/>
      </g>
     </g>
    </g>
    <g id="xtick_5">
     <g id="line2d_5">
      <g>
       <use style="stroke:#000000;stroke-width:0.8;" x="408.96" xlink:href="#mca2b854b42" y="648"/>
      </g>
     </g>
     <g id="text_5">
      <!-- 5 -->
      <defs>
       <path d="M 10.796875 72.90625 
L 49.515625 72.90625 
L 49.515625 64.59375 
L 19.828125 64.59375 
L 19.828125 46.734375 
Q 21.96875 47.46875 24.109375 47.828125 
Q 26.265625 48.1875 28.421875 48.1875 
Q 40.625 48.1875 47.75 41.5 
Q 54.890625 34.8125 54.890625 23.390625 
Q 54.890625 11.625 47.5625 5.09375 
Q 40.234375 -1.421875 26.90625 -1.421875 
Q 22.3125 -1.421875 17.546875 -0.640625 
Q 12.796875 0.140625 7.71875 1.703125 
L 7.71875 11.625 
Q 12.109375 9.234375 16.796875 8.0625 
Q 21.484375 6.890625 26.703125 6.890625 
Q 35.15625 6.890625 40.078125 11.328125 
Q 45.015625 15.765625 45.015625 23.390625 
Q 45.015625 31 40.078125 35.4375 
Q 35.15625 39.890625 26.703125 39.890625 
Q 22.75 39.890625 18.8125 39.015625 
Q 14.890625 38.140625 10.796875 36.28125 
z
" id="DejaVuSans-53"/>
      </defs>
      <g transform="translate(405.77875 689.098438)scale(0.1 -0.1)">
       <use xlink:href="#DejaVuSans-53"/>
      </g>
     </g>
    </g>
    <g id="xtick_6">
     <g id="line2d_6">
      <g>
       <use style="stroke:#000000;stroke-width:0.8;" x="493.2" xlink:href="#mca2b854b42" y="648"/>
      </g>
     </g>
     <g id="text_6">
      <!-- 6 -->
      <defs>
       <path d="M 33.015625 40.375 
Q 26.375 40.375 22.484375 35.828125 
Q 18.609375 31.296875 18.609375 23.390625 
Q 18.609375 15.53125 22.484375 10.953125 
Q 26.375 6.390625 33.015625 6.390625 
Q 39.65625 6.390625 43.53125 10.953125 
Q 47.40625 15.53125 47.40625 23.390625 
Q 47.40625 31.296875 43.53125 35.828125 
Q 39.65625 40.375 33.015625 40.375 
z
M 52.59375 71.296875 
L 52.59375 62.3125 
Q 48.875 64.0625 45.09375 64.984375 
Q 41.3125 65.921875 37.59375 65.921875 
Q 27.828125 65.921875 22.671875 59.328125 
Q 17.53125 52.734375 16.796875 39.40625 
Q 19.671875 43.65625 24.015625 45.921875 
Q 28.375 48.1875 33.59375 48.1875 
Q 44.578125 48.1875 50.953125 41.515625 
Q 57.328125 34.859375 57.328125 23.390625 
Q 57.328125 12.15625 50.6875 5.359375 
Q 44.046875 -1.421875 33.015625 -1.421875 
Q 20.359375 -1.421875 13.671875 8.265625 
Q 6.984375 17.96875 6.984375 36.375 
Q 6.984375 53.65625 15.1875 63.9375 
Q 23.390625 74.21875 37.203125 74.21875 
Q 40.921875 74.21875 44.703125 73.484375 
Q 48.484375 72.75 52.59375 71.296875 
z
" id="DejaVuSans-54"/>
      </defs>
      <g transform="translate(490.01875 689.098438)scale(0.1 -0.1)">
       <use xlink:href="#DejaVuSans-54"/>
      </g>
     </g>
    </g>
    <g id="text_7">
     <!-- payload breadth -->
     <defs>
      <path d="M 18.109375 8.203125 
L 18.109375 -20.796875 
L 9.078125 -20.796875 
L 9.078125 54.6875 
L 18.109375 54.6875 
L 18.109375 46.390625 
Q 20.953125 51.265625 25.265625 53.625 
Q 29.59375 56 35.59375 56 
Q 45.5625 56 51.78125 48.09375 
Q 58.015625 40.1875 58.015625 27.296875 
Q 58.015625 14.40625 51.78125 6.484375 
Q 45.5625 -1.421875 35.59375 -1.421875 
Q 29.59375 -1.421875 25.265625 0.953125 
Q 20.953125 3.328125 18.109375 8.203125 
z
M 48.6875 27.296875 
Q 48.6875 37.203125 44.609375 42.84375 
Q 40.53125 48.484375 33.40625 48.484375 
Q 26.265625 48.484375 22.1875 42.84375 
Q 18.109375 37.203125 18.109375 27.296875 
Q 18.109375 17.390625 22.1875 11.75 
Q 26.265625 6.109375 33.40625 6.109375 
Q 40.53125 6.109375 44.609375 11.75 
Q 48.6875 17.390625 48.6875 27.296875 
z
" id="DejaVuSans-112"/>
      <path d="M 34.28125 27.484375 
Q 23.390625 27.484375 19.1875 25 
Q 14.984375 22.515625 14.984375 16.5 
Q 14.984375 11.71875 18.140625 8.90625 
Q 21.296875 6.109375 26.703125 6.109375 
Q 34.1875 6.109375 38.703125 11.40625 
Q 43.21875 16.703125 43.21875 25.484375 
L 43.21875 27.484375 
z
M 52.203125 31.203125 
L 52.203125 0 
L 43.21875 0 
L 43.21875 8.296875 
Q 40.140625 3.328125 35.546875 0.953125 
Q 30.953125 -1.421875 24.3125 -1.421875 
Q 15.921875 -1.421875 10.953125 3.296875 
Q 6 8.015625 6 15.921875 
Q 6 25.140625 12.171875 29.828125 
Q 18.359375 34.515625 30.609375 34.515625 
L 43.21875 34.515625 
L 43.21875 35.40625 
Q 43.21875 41.609375 39.140625 45 
Q 35.0625 48.390625 27.6875 48.390625 
Q 23 48.390625 18.546875 47.265625 
Q 14.109375 46.140625 10.015625 43.890625 
L 10.015625 52.203125 
Q 14.9375 54.109375 19.578125 55.046875 
Q 24.21875 56 28.609375 56 
Q 40.484375 56 46.34375 49.84375 
Q 52.203125 43.703125 52.203125 31.203125 
z
" id="DejaVuSans-97"/>
      <path d="M 32.171875 -5.078125 
Q 28.375 -14.84375 24.75 -17.8125 
Q 21.140625 -20.796875 15.09375 -20.796875 
L 7.90625 -20.796875 
L 7.90625 -13.28125 
L 13.1875 -13.28125 
Q 16.890625 -13.28125 18.9375 -11.515625 
Q 21 -9.765625 23.484375 -3.21875 
L 25.09375 0.875 
L 2.984375 54.6875 
L 12.5 54.6875 
L 29.59375 11.921875 
L 46.6875 54.6875 
L 56.203125 54.6875 
z
" id="DejaVuSans-121"/>
      <path d="M 9.421875 75.984375 
L 18.40625 75.984375 
L 18.40625 0 
L 9.421875 0 
z
" id="DejaVuSans-108"/>
      <path d="M 30.609375 48.390625 
Q 23.390625 48.390625 19.1875 42.75 
Q 14.984375 37.109375 14.984375 27.296875 
Q 14.984375 17.484375 19.15625 11.84375 
Q 23.34375 6.203125 30.609375 6.203125 
Q 37.796875 6.203125 41.984375 11.859375 
Q 46.1875 17.53125 46.1875 27.296875 
Q 46.1875 37.015625 41.984375 42.703125 
Q 37.796875 48.390625 30.609375 48.390625 
z
M 30.609375 56 
Q 42.328125 56 49.015625 48.375 
Q 55.71875 40.765625 55.71875 27.296875 
Q 55.71875 13.875 49.015625 6.21875 
Q 42.328125 -1.421875 30.609375 -1.421875 
Q 18.84375 -1.421875 12.171875 6.21875 
Q 5.515625 13.875 5.515625 27.296875 
Q 5.515625 40.765625 12.171875 48.375 
Q 18.84375 56 30.609375 56 
z
" id="DejaVuSans-111"/>
      <path d="M 45.40625 46.390625 
L 45.40625 75.984375 
L 54.390625 75.984375 
L 54.390625 0 
L 45.40625 0 
L 45.40625 8.203125 
Q 42.578125 3.328125 38.25 0.953125 
Q 33.9375 -1.421875 27.875 -1.421875 
Q 17.96875 -1.421875 11.734375 6.484375 
Q 5.515625 14.40625 5.515625 27.296875 
Q 5.515625 40.1875 11.734375 48.09375 
Q 17.96875 56 27.875 56 
Q 33.9375 56 38.25 53.625 
Q 42.578125 51.265625 45.40625 46.390625 
z
M 14.796875 27.296875 
Q 14.796875 17.390625 18.875 11.75 
Q 22.953125 6.109375 30.078125 6.109375 
Q 37.203125 6.109375 41.296875 11.75 
Q 45.40625 17.390625 45.40625 27.296875 
Q 45.40625 37.203125 41.296875 42.84375 
Q 37.203125 48.484375 30.078125 48.484375 
Q 22.953125 48.484375 18.875 42.84375 
Q 14.796875 37.203125 14.796875 27.296875 
z
" id="DejaVuSans-100"/>
      <path id="DejaVuSans-32"/>
      <path d="M 48.6875 27.296875 
Q 48.6875 37.203125 44.609375 42.84375 
Q 40.53125 48.484375 33.40625 48.484375 
Q 26.265625 48.484375 22.1875 42.84375 
Q 18.109375 37.203125 18.109375 27.296875 
Q 18.109375 17.390625 22.1875 11.75 
Q 26.265625 6.109375 33.40625 6.109375 
Q 40.53125 6.109375 44.609375 11.75 
Q 48.6875 17.390625 48.6875 27.296875 
z
M 18.109375 46.390625 
Q 20.953125 51.265625 25.265625 53.625 
Q 29.59375 56 35.59375 56 
Q 45.5625 56 51.78125 48.09375 
Q 58.015625 40.1875 58.015625 27.296875 
Q 58.015625 14.40625 51.78125 6.484375 
Q 45.5625 -1.421875 35.59375 -1.421875 
Q 29.59375 -1.421875 25.265625 0.953125 
Q 20.953125 3.328125 18.109375 8.203125 
L 18.109375 0 
L 9.078125 0 
L 9.078125 75.984375 
L 18.109375 75.984375 
z
" id="DejaVuSans-98"/>
      <path d="M 41.109375 46.296875 
Q 39.59375 47.171875 37.8125 47.578125 
Q 36.03125 48 33.890625 48 
Q 26.265625 48 22.1875 43.046875 
Q 18.109375 38.09375 18.109375 28.8125 
L 18.109375 0 
L 9.078125 0 
L 9.078125 54.6875 
L 18.109375 54.6875 
L 18.109375 46.1875 
Q 20.953125 51.171875 25.484375 53.578125 
Q 30.03125 56 36.53125 56 
Q 37.453125 56 38.578125 55.875 
Q 39.703125 55.765625 41.0625 55.515625 
z
" id="DejaVuSans-114"/>
      <path d="M 56.203125 29.59375 
L 56.203125 25.203125 
L 14.890625 25.203125 
Q 15.484375 15.921875 20.484375 11.0625 
Q 25.484375 6.203125 34.421875 6.203125 
Q 39.59375 6.203125 44.453125 7.46875 
Q 49.3125 8.734375 54.109375 11.28125 
L 54.109375 2.78125 
Q 49.265625 0.734375 44.1875 -0.34375 
Q 39.109375 -1.421875 33.890625 -1.421875 
Q 20.796875 -1.421875 13.15625 6.1875 
Q 5.515625 13.8125 5.515625 26.8125 
Q 5.515625 40.234375 12.765625 48.109375 
Q 20.015625 56 32.328125 56 
Q 43.359375 56 49.78125 48.890625 
Q 56.203125 41.796875 56.203125 29.59375 
z
M 47.21875 32.234375 
Q 47.125 39.59375 43.09375 43.984375 
Q 39.0625 48.390625 32.421875 48.390625 
Q 24.90625 48.390625 20.390625 44.140625 
Q 15.875 39.890625 15.1875 32.171875 
z
" id="DejaVuSans-101"/>
      <path d="M 18.3125 70.21875 
L 18.3125 54.6875 
L 36.8125 54.6875 
L 36.8125 47.703125 
L 18.3125 47.703125 
L 18.3125 18.015625 
Q 18.3125 11.328125 20.140625 9.421875 
Q 21.96875 7.515625 27.59375 7.515625 
L 36.8125 7.515625 
L 36.8125 0 
L 27.59375 0 
Q 17.1875 0 13.234375 3.875 
Q 9.28125 7.765625 9.28125 18.015625 
L 9.28125 47.703125 
L 2.6875 47.703125 
L 2.6875 54.6875 
L 9.28125 54.6875 
L 9.28125 70.21875 
z
" id="DejaVuSans-116"/>
      <path d="M 54.890625 33.015625 
L 54.890625 0 
L 45.90625 0 
L 45.90625 32.71875 
Q 45.90625 40.484375 42.875 44.328125 
Q 39.84375 48.1875 33.796875 48.1875 
Q 26.515625 48.1875 22.3125 43.546875 
Q 18.109375 38.921875 18.109375 30.90625 
L 18.109375 0 
L 9.078125 0 
L 9.078125 75.984375 
L 18.109375 75.984375 
L 18.109375 46.1875 
Q 21.34375 51.125 25.703125 53.5625 
Q 30.078125 56 35.796875 56 
Q 45.21875 56 50.046875 50.171875 
Q 54.890625 44.34375 54.890625 33.015625 
z
" id="DejaVuSans-104"/>
     </defs>
     <g transform="translate(241.454687 702.776563)scale(0.1 -0.1)">
      <use xlink:href="#DejaVuSans-112"/>
      <use x="63.476562" xlink:href="#DejaVuSans-97"/>
      <use x="124.755859" xlink:href="#DejaVuSans-121"/>
      <use x="183.935547" xlink:href="#DejaVuSans-108"/>
      <use x="211.71875" xlink:href="#DejaVuSans-111"/>
      <use x="272.900391" xlink:href="#DejaVuSans-97"/>
      <use x="334.179688" xlink:href="#DejaVuSans-100"/>
      <use x="397.65625" xlink:href="#DejaVuSans-32"/>
      <use x="429.443359" xlink:href="#DejaVuSans-98"/>
      <use x="492.919922" xlink:href="#DejaVuSans-114"/>
      <use x="534.001953" xlink:href="#DejaVuSans-101"/>
      <use x="595.525391" xlink:href="#DejaVuSans-97"/>
      <use x="656.804688" xlink:href="#DejaVuSans-100"/>
      <use x="720.28125" xlink:href="#DejaVuSans-116"/>
      <use x="759.490234" xlink:href="#DejaVuSans-104"/>
     </g>
    </g>
   </g>
   <g id="matplotlib.axis_2">
    <g id="ytick_1">
     <g id="line2d_7">
      <defs>
       <path d="M 0 0 
L -3.5 0 
" id="m366cf63cd0" style="stroke:#000000;stroke-width:0.8;"/>
      </defs>
      <g>
       <use style="stroke:#000000;stroke-width:0.8;" x="72" xlink:href="#m366cf63cd0" y="648"/>
      </g>
     </g>
     <g id="text_8">
      <!-- 1 -->
      <g transform="translate(32.1375 651.799219)scale(0.1 -0.1)">
       <use xlink:href="#DejaVuSans-49"/>
      </g>
     </g>
    </g>
    <g id="ytick_2">
     <g id="line2d_8">
      <g>
       <use style="stroke:#000000;stroke-width:0.8;" x="72" xlink:href="#m366cf63cd0" y="532.8"/>
      </g>
     </g>
     <g id="text_9">
      <!-- 2 -->
      <g transform="translate(32.1375 536.599219)scale(0.1 -0.1)">
       <use xlink:href="#DejaVuSans-50"/>
      </g>
     </g>
    </g>
    <g id="ytick_3">
     <g id="line2d_9">
      <g>
       <use style="stroke:#000000;stroke-width:0.8;" x="72" xlink:href="#m366cf63cd0" y="417.6"/>
      </g>
     </g>
     <g id="text_10">
      <!-- 3 -->
      <g transform="translate(32.1375 421.399219)scale(0.1 -0.1)">
       <use xlink:href="#DejaVuSans-51"/>
      </g>
     </g>
    </g>
    <g id="ytick_4">
     <g id="line2d_10">
      <g>
       <use style="stroke:#000000;stroke-width:0.8;" x="72" xlink:href="#m366cf63cd0" y="302.4"/>
      </g>
     </g>
     <g id="text_11">
      <!-- 4 -->
      <g transform="translate(32.1375 306.199219)scale(0.1 -0.1)">
       <use xlink:href="#DejaVuSans-52"/>
      </g>
     </g>
    </g>
    <g id="ytick_5">
     <g id="line2d_11">
      <g>
       <use style="stroke:#000000;stroke-width:0.8;" x="72" xlink:href="#m366cf63cd0" y="187.2"/>
      </g>
     </g>
     <g id="text_12">
      <!-- 5 -->
      <g transform="translate(32.1375 190.999219)scale(0.1 -0.1)">
       <use xlink:href="#DejaVuSans-53"/>
      </g>
     </g>
    </g>
    <g id="ytick_6">
     <g id="line2d_12">
      <g>
       <use style="stroke:#000000;stroke-width:0.8;" x="72" xlink:href="#m366cf63cd0" y="72"/>
      </g>
     </g>
     <g id="text_13">
      <!-- 6 -->
      <g transform="translate(32.1375 75.799219)scale(0.1 -0.1)">
       <use xlink:href="#DejaVuSans-54"/>
      </g>
     </g>
    </g>
    <g id="text_14">
     <!-- payload depth -->
     <g transform="translate(26.057813 396.027344)rotate(-90)scale(0.1 -0.1)">
      <use xlink:href="#DejaVuSans-112"/>
      <use x="63.476562" xlink:href="#DejaVuSans-97"/>
      <use x="124.755859" xlink:href="#DejaVuSans-121"/>
      <use x="183.935547" xlink:href="#DejaVuSans-108"/>
      <use x="211.71875" xlink:href="#DejaVuSans-111"/>
      <use x="272.900391" xlink:href="#DejaVuSans-97"/>
      <use x="334.179688" xlink:href="#DejaVuSans-100"/>
      <use x="397.65625" xlink:href="#DejaVuSans-32"/>
      <use x="429.443359" xlink:href="#DejaVuSans-100"/>
      <use x="492.919922" xlink:href="#DejaVuSans-101"/>
      <use x="554.443359" xlink:href="#DejaVuSans-112"/>
      <use x="617.919922" xlink:href="#DejaVuSans-116"/>
      <use x="657.128906" xlink:href="#DejaVuSans-104"/>
     </g>
    </g>
   </g>
   <g id="patch_3">
    <path d="M 72 648 
L 72 72 
" style="fill:none;stroke:#000000;stroke-linecap:square;stroke-linejoin:miter;stroke-width:0.8;"/>
   </g>
   <g id="patch_4">
    <path d="M 493.2 648 
L 493.2 72 
" style="fill:none;stroke:#000000;stroke-linecap:square;stroke-linejoin:miter;stroke-width:0.8;"/>
   </g>
   <g id="patch_5">
    <path d="M 72 648 
L 493.2 648 
" style="fill:none;stroke:#000000;stroke-linecap:square;stroke-linejoin:miter;stroke-width:0.8;"/>
   </g>
   <g id="patch_6">
    <path d="M 72 72 
L 493.2 72 
" style="fill:none;stroke:#000000;stroke-linecap:square;stroke-linejoin:miter;stroke-width:0.8;"/>
   </g>
   <g id="text_15">
    <!-- imac-chrome -->
    <defs>
     <path d="M 9.421875 54.6875 
L 18.40625 54.6875 
L 18.40625 0 
L 9.421875 0 
z
M 9.421875 75.984375 
L 18.40625 75.984375 
L 18.40625 64.59375 
L 9.421875 64.59375 
z
" id="DejaVuSans-105"/>
     <path d="M 52 44.1875 
Q 55.375 50.25 60.0625 53.125 
Q 64.75 56 71.09375 56 
Q 79.640625 56 84.28125 50.015625 
Q 88.921875 44.046875 88.921875 33.015625 
L 88.921875 0 
L 79.890625 0 
L 79.890625 32.71875 
Q 79.890625 40.578125 77.09375 44.375 
Q 74.3125 48.1875 68.609375 48.1875 
Q 61.625 48.1875 57.5625 43.546875 
Q 53.515625 38.921875 53.515625 30.90625 
L 53.515625 0 
L 44.484375 0 
L 44.484375 32.71875 
Q 44.484375 40.625 41.703125 44.40625 
Q 38.921875 48.1875 33.109375 48.1875 
Q 26.21875 48.1875 22.15625 43.53125 
Q 18.109375 38.875 18.109375 30.90625 
L 18.109375 0 
L 9.078125 0 
L 9.078125 54.6875 
L 18.109375 54.6875 
L 18.109375 46.1875 
Q 21.1875 51.21875 25.484375 53.609375 
Q 29.78125 56 35.6875 56 
Q 41.65625 56 45.828125 52.96875 
Q 50 49.953125 52 44.1875 
z
" id="DejaVuSans-109"/>
     <path d="M 48.78125 52.59375 
L 48.78125 44.1875 
Q 44.96875 46.296875 41.140625 47.34375 
Q 37.3125 48.390625 33.40625 48.390625 
Q 24.65625 48.390625 19.8125 42.84375 
Q 14.984375 37.3125 14.984375 27.296875 
Q 14.984375 17.28125 19.8125 11.734375 
Q 24.65625 6.203125 33.40625 6.203125 
Q 37.3125 6.203125 41.140625 7.25 
Q 44.96875 8.296875 48.78125 10.40625 
L 48.78125 2.09375 
Q 45.015625 0.34375 40.984375 -0.53125 
Q 36.96875 -1.421875 32.421875 -1.421875 
Q 20.0625 -1.421875 12.78125 6.34375 
Q 5.515625 14.109375 5.515625 27.296875 
Q 5.515625 40.671875 12.859375 48.328125 
Q 20.21875 56 33.015625 56 
Q 37.15625 56 41.109375 55.140625 
Q 45.0625 54.296875 48.78125 52.59375 
z
" id="DejaVuSans-99"/>
     <path d="M 4.890625 31.390625 
L 31.203125 31.390625 
L 31.203125 23.390625 
L 4.890625 23.390625 
z
" id="DejaVuSans-45"/>
    </defs>
    <g transform="translate(243.174375 22)scale(0.12 -0.12)">
     <use xlink:href="#DejaVuSans-105"/>
     <use x="27.783203" xlink:href="#DejaVuSans-109"/>
     <use x="125.195312" xlink:href="#DejaVuSans-97"/>
     <use x="186.474609" xlink:href="#DejaVuSans-99"/>
     <use x="241.455078" xlink:href="#DejaVuSans-45"/>
     <use x="277.539062" xlink:href="#DejaVuSans-99"/>
     <use x="332.519531" xlink:href="#DejaVuSans-104"/>
     <use x="395.898438" xlink:href="#DejaVuSans-114"/>
     <use x="436.980469" xlink:href="#DejaVuSans-111"/>
     <use x="498.162109" xlink:href="#DejaVuSans-109"/>
     <use x="595.574219" xlink:href="#DejaVuSans-101"/>
    </g>
   </g>
   <g id="PathCollection_7">
    <path d="M 72 664.685103 
C 76.424941 664.685103 80.669244 662.927055 83.79815 659.79815 
C 86.927055 656.669244 88.685103 652.424941 88.685103 648 
C 88.685103 643.575059 86.927055 639.330756 83.79815 636.20185 
C 80.669244 633.072945 76.424941 631.314897 72 631.314897 
C 67.575059 631.314897 63.330756 633.072945 60.20185 636.20185 
C 57.072945 639.330756 55.314897 643.575059 55.314897 648 
C 55.314897 652.424941 57.072945 656.669244 60.20185 659.79815 
C 63.330756 662.927055 67.575059 664.685103 72 664.685103 
z
" style="fill:#fcb79c;fill-opacity:0.8;stroke:#fcb79c;stroke-opacity:0.8;"/>
    <path d="M 72 549.033454 
C 76.305162 549.033454 80.434576 547.322995 83.478786 544.278786 
C 86.522995 541.234576 88.233454 537.105162 88.233454 532.8 
C 88.233454 528.494838 86.522995 524.365424 83.478786 521.321214 
C 80.434576 518.277005 76.305162 516.566546 72 516.566546 
C 67.694838 516.566546 63.565424 518.277005 60.521214 521.321214 
C 57.477005 524.365424 55.766546 528.494838 55.766546 532.8 
C 55.766546 537.105162 57.477005 541.234576 60.521214 544.278786 
C 63.565424 547.322995 67.694838 549.033454 72 549.033454 
z
" style="fill:#fcbca2;fill-opacity:0.8;stroke:#fcbca2;stroke-opacity:0.8;"/>
    <path d="M 72 434.285103 
C 76.424941 434.285103 80.669244 432.527055 83.79815 429.39815 
C 86.927055 426.269244 88.685103 422.024941 88.685103 417.6 
C 88.685103 413.175059 86.927055 408.930756 83.79815 405.80185 
C 80.669244 402.672945 76.424941 400.914897 72 400.914897 
C 67.575059 400.914897 63.330756 402.672945 60.20185 405.80185 
C 57.072945 408.930756 55.314897 413.175059 55.314897 417.6 
C 55.314897 422.024941 57.072945 426.269244 60.20185 429.39815 
C 63.330756 432.527055 67.575059 434.285103 72 434.285103 
z
" style="fill:#fcb79c;fill-opacity:0.8;stroke:#fcb79c;stroke-opacity:0.8;"/>
    <path d="M 72 319.476756 
C 76.528809 319.476756 80.872739 317.677441 84.07509 314.47509 
C 87.277441 311.272739 89.076756 306.928809 89.076756 302.4 
C 89.076756 297.871191 87.277441 293.527261 84.07509 290.32491 
C 80.872739 287.122559 76.528809 285.323244 72 285.323244 
C 67.471191 285.323244 63.127261 287.122559 59.92491 290.32491 
C 56.722559 293.527261 54.923244 297.871191 54.923244 302.4 
C 54.923244 306.928809 56.722559 311.272739 59.92491 314.47509 
C 63.127261 317.677441 67.471191 319.476756 72 319.476756 
z
" style="fill:#fcb398;fill-opacity:0.8;stroke:#fcb398;stroke-opacity:0.8;"/>
    <path d="M 72 204.276756 
C 76.528809 204.276756 80.872739 202.477441 84.07509 199.27509 
C 87.277441 196.072739 89.076756 191.728809 89.076756 187.2 
C 89.076756 182.671191 87.277441 178.327261 84.07509 175.12491 
C 80.872739 171.922559 76.528809 170.123244 72 170.123244 
C 67.471191 170.123244 63.127261 171.922559 59.92491 175.12491 
C 56.722559 178.327261 54.923244 182.671191 54.923244 187.2 
C 54.923244 191.728809 56.722559 196.072739 59.92491 199.27509 
C 63.127261 202.477441 67.471191 204.276756 72 204.276756 
z
" style="fill:#fcb398;fill-opacity:0.8;stroke:#fcb398;stroke-opacity:0.8;"/>
    <path d="M 72 89.076756 
C 76.528809 89.076756 80.872739 87.277441 84.07509 84.07509 
C 87.277441 80.872739 89.076756 76.528809 89.076756 72 
C 89.076756 67.471191 87.277441 63.127261 84.07509 59.92491 
C 80.872739 56.722559 76.528809 54.923244 72 54.923244 
C 67.471191 54.923244 63.127261 56.722559 59.92491 59.92491 
C 56.722559 63.127261 54.923244 67.471191 54.923244 72 
C 54.923244 76.528809 56.722559 80.872739 59.92491 84.07509 
C 63.127261 87.277441 67.471191 89.076756 72 89.076756 
z
" style="fill:#fcb398;fill-opacity:0.8;stroke:#fcb398;stroke-opacity:0.8;"/>
    <path d="M 156.24 664.685104 
C 160.664941 664.685104 164.909244 662.927056 168.03815 659.79815 
C 171.167056 656.669244 172.925104 652.424941 172.925104 648 
C 172.925104 643.575059 171.167056 639.330756 168.03815 636.20185 
C 164.909244 633.072944 160.664941 631.314896 156.24 631.314896 
C 151.815059 631.314896 147.570756 633.072944 144.44185 636.20185 
C 141.312944 639.330756 139.554896 643.575059 139.554896 648 
C 139.554896 652.424941 141.312944 656.669244 144.44185 659.79815 
C 147.570756 662.927056 151.815059 664.685104 156.24 664.685104 
z
" style="fill:#fcb79c;fill-opacity:0.8;stroke:#fcb79c;stroke-opacity:0.8;"/>
    <path d="M 156.24 549.485104 
C 160.664941 549.485104 164.909244 547.727056 168.03815 544.59815 
C 171.167056 541.469244 172.925104 537.224941 172.925104 532.8 
C 172.925104 528.375059 171.167056 524.130756 168.03815 521.00185 
C 164.909244 517.872944 160.664941 516.114896 156.24 516.114896 
C 151.815059 516.114896 147.570756 517.872944 144.44185 521.00185 
C 141.312944 524.130756 139.554896 528.375059 139.554896 532.8 
C 139.554896 537.224941 141.312944 541.469244 144.44185 544.59815 
C 147.570756 547.727056 151.815059 549.485104 156.24 549.485104 
z
" style="fill:#fcb79c;fill-opacity:0.8;stroke:#fcb79c;stroke-opacity:0.8;"/>
    <path d="M 156.24 434.676756 
C 160.768809 434.676756 165.112739 432.877441 168.31509 429.67509 
C 171.517441 426.472739 173.316756 422.128809 173.316756 417.6 
C 173.316756 413.071191 171.517441 408.727261 168.31509 405.52491 
C 165.112739 402.322559 160.768809 400.523244 156.24 400.523244 
C 151.711191 400.523244 147.367261 402.322559 144.16491 405.52491 
C 140.962559 408.727261 139.163244 413.071191 139.163244 417.6 
C 139.163244 422.128809 140.962559 426.472739 144.16491 429.67509 
C 147.367261 432.877441 151.711191 434.676756 156.24 434.676756 
z
" style="fill:#fcb398;fill-opacity:0.8;stroke:#fcb398;stroke-opacity:0.8;"/>
    <path d="M 156.24 319.476756 
C 160.768809 319.476756 165.112739 317.677441 168.31509 314.47509 
C 171.517441 311.272739 173.316756 306.928809 173.316756 302.4 
C 173.316756 297.871191 171.517441 293.527261 168.31509 290.32491 
C 165.112739 287.122559 160.768809 285.323244 156.24 285.323244 
C 151.711191 285.323244 147.367261 287.122559 144.16491 290.32491 
C 140.962559 293.527261 139.163244 297.871191 139.163244 302.4 
C 139.163244 306.928809 140.962559 311.272739 144.16491 314.47509 
C 147.367261 317.677441 151.711191 319.476756 156.24 319.476756 
z
" style="fill:#fcb398;fill-opacity:0.8;stroke:#fcb398;stroke-opacity:0.8;"/>
    <path d="M 156.24 204.935085 
C 160.943399 204.935085 165.454793 203.066404 168.780599 199.740599 
C 172.106404 196.414793 173.975085 191.903399 173.975085 187.2 
C 173.975085 182.496601 172.106404 177.985207 168.780599 174.659401 
C 165.454793 171.333596 160.943399 169.464915 156.24 169.464915 
C 151.536601 169.464915 147.025207 171.333596 143.699401 174.659401 
C 140.373596 177.985207 138.504915 182.496601 138.504915 187.2 
C 138.504915 191.903399 140.373596 196.414793 143.699401 199.740599 
C 147.025207 203.066404 151.536601 204.935085 156.24 204.935085 
z
" style="fill:#fcad90;fill-opacity:0.8;stroke:#fcad90;stroke-opacity:0.8;"/>
    <path d="M 156.24 90.278926 
C 161.087628 90.278926 165.737362 88.352943 169.165153 84.925153 
C 172.592943 81.497362 174.518926 76.847628 174.518926 72 
C 174.518926 67.152372 172.592943 62.502638 169.165153 59.074847 
C 165.737362 55.647057 161.087628 53.721074 156.24 53.721074 
C 151.392372 53.721074 146.742638 55.647057 143.314847 59.074847 
C 139.887057 62.502638 137.961074 67.152372 137.961074 72 
C 137.961074 76.847628 139.887057 81.497362 143.314847 84.925153 
C 146.742638 88.352943 151.392372 90.278926 156.24 90.278926 
z
" style="fill:#fca78b;fill-opacity:0.8;stroke:#fca78b;stroke-opacity:0.8;"/>
    <path d="M 240.48 665.076756 
C 245.008809 665.076756 249.352739 663.277441 252.55509 660.07509 
C 255.757441 656.872739 257.556756 652.528809 257.556756 648 
C 257.556756 643.471191 255.757441 639.127261 252.55509 635.92491 
C 249.352739 632.722559 245.008809 630.923244 240.48 630.923244 
C 235.951191 630.923244 231.607261 632.722559 228.40491 635.92491 
C 225.202559 639.127261 223.403244 643.471191 223.403244 648 
C 223.403244 652.528809 225.202559 656.872739 228.40491 660.07509 
C 231.607261 663.277441 235.951191 665.076756 240.48 665.076756 
z
" style="fill:#fcb398;fill-opacity:0.8;stroke:#fcb398;stroke-opacity:0.8;"/>
    <path d="M 240.48 549.876756 
C 245.008809 549.876756 249.352739 548.077441 252.55509 544.87509 
C 255.757441 541.672739 257.556756 537.328809 257.556756 532.8 
C 257.556756 528.271191 255.757441 523.927261 252.55509 520.72491 
C 249.352739 517.522559 245.008809 515.723244 240.48 515.723244 
C 235.951191 515.723244 231.607261 517.522559 228.40491 520.72491 
C 225.202559 523.927261 223.403244 528.271191 223.403244 532.8 
C 223.403244 537.328809 225.202559 541.672739 228.40491 544.87509 
C 231.607261 548.077441 235.951191 549.876756 240.48 549.876756 
z
" style="fill:#fcb398;fill-opacity:0.8;stroke:#fcb398;stroke-opacity:0.8;"/>
    <path d="M 240.48 434.676757 
C 245.008809 434.676757 249.352739 432.877442 252.555091 429.675091 
C 255.757442 426.472739 257.556757 422.128809 257.556757 417.6 
C 257.556757 413.071191 255.757442 408.727261 252.555091 405.524909 
C 249.352739 402.322558 245.008809 400.523243 240.48 400.523243 
C 235.951191 400.523243 231.607261 402.322558 228.404909 405.524909 
C 225.202558 408.727261 223.403243 413.071191 223.403243 417.6 
C 223.403243 422.128809 225.202558 426.472739 228.404909 429.675091 
C 231.607261 432.877442 235.951191 434.676757 240.48 434.676757 
z
" style="fill:#fcb398;fill-opacity:0.8;stroke:#fcb398;stroke-opacity:0.8;"/>
    <path d="M 240.48 320.678926 
C 245.327628 320.678926 249.977362 318.752943 253.405153 315.325153 
C 256.832943 311.897362 258.758926 307.247628 258.758926 302.4 
C 258.758926 297.552372 256.832943 292.902638 253.405153 289.474847 
C 249.977362 286.047057 245.327628 284.121074 240.48 284.121074 
C 235.632372 284.121074 230.982638 286.047057 227.554847 289.474847 
C 224.127057 292.902638 222.201074 297.552372 222.201074 302.4 
C 222.201074 307.247628 224.127057 311.897362 227.554847 315.325153 
C 230.982638 318.752943 235.632372 320.678926 240.48 320.678926 
z
" style="fill:#fca78b;fill-opacity:0.8;stroke:#fca78b;stroke-opacity:0.8;"/>
    <path d="M 240.48 206.885335 
C 245.700612 206.885335 250.708104 204.811164 254.399634 201.119634 
C 258.091164 197.428104 260.165335 192.420612 260.165335 187.2 
C 260.165335 181.979388 258.091164 176.971896 254.399634 173.280366 
C 250.708104 169.588836 245.700612 167.514665 240.48 167.514665 
C 235.259388 167.514665 230.251896 169.588836 226.560366 173.280366 
C 222.868836 176.971896 220.794665 181.979388 220.794665 187.2 
C 220.794665 192.420612 222.868836 197.428104 226.560366 201.119634 
C 230.251896 204.811164 235.259388 206.885335 240.48 206.885335 
z
" style="fill:#fc9b7c;fill-opacity:0.8;stroke:#fc9b7c;stroke-opacity:0.8;"/>
    <path d="M 240.48 94.114878 
C 246.344934 94.114878 251.970446 91.784715 256.11758 87.63758 
C 260.264715 83.490446 262.594878 77.864934 262.594878 72 
C 262.594878 66.135066 260.264715 60.509554 256.11758 56.36242 
C 251.970446 52.215285 246.344934 49.885122 240.48 49.885122 
C 234.615066 49.885122 228.989554 52.215285 224.84242 56.36242 
C 220.695285 60.509554 218.365122 66.135066 218.365122 72 
C 218.365122 77.864934 220.695285 83.490446 224.84242 87.63758 
C 228.989554 91.784715 234.615066 94.114878 240.48 94.114878 
z
" style="fill:#fc8767;fill-opacity:0.8;stroke:#fc8767;stroke-opacity:0.8;"/>
    <path d="M 324.72 665.076756 
C 329.248809 665.076756 333.592739 663.277441 336.79509 660.07509 
C 339.997441 656.872739 341.796756 652.528809 341.796756 648 
C 341.796756 643.471191 339.997441 639.127261 336.79509 635.92491 
C 333.592739 632.722559 329.248809 630.923244 324.72 630.923244 
C 320.191191 630.923244 315.847261 632.722559 312.64491 635.92491 
C 309.442559 639.127261 307.643244 643.471191 307.643244 648 
C 307.643244 652.528809 309.442559 656.872739 312.64491 660.07509 
C 315.847261 663.277441 320.191191 665.076756 324.72 665.076756 
z
" style="fill:#fcb398;fill-opacity:0.8;stroke:#fcb398;stroke-opacity:0.8;"/>
    <path d="M 324.72 549.876757 
C 329.248809 549.876757 333.592739 548.077442 336.795091 544.875091 
C 339.997442 541.672739 341.796757 537.328809 341.796757 532.8 
C 341.796757 528.271191 339.997442 523.927261 336.795091 520.724909 
C 333.592739 517.522558 329.248809 515.723243 324.72 515.723243 
C 320.191191 515.723243 315.847261 517.522558 312.644909 520.724909 
C 309.442558 523.927261 307.643243 528.271191 307.643243 532.8 
C 307.643243 537.328809 309.442558 541.672739 312.644909 544.875091 
C 315.847261 548.077442 320.191191 549.876757 324.72 549.876757 
z
" style="fill:#fcb398;fill-opacity:0.8;stroke:#fcb398;stroke-opacity:0.8;"/>
    <path d="M 324.72 435.618576 
C 329.498582 435.618576 334.082089 433.720025 337.461057 430.341057 
C 340.840025 426.962089 342.738576 422.378582 342.738576 417.6 
C 342.738576 412.821418 340.840025 408.237911 337.461057 404.858943 
C 334.082089 401.479975 329.498582 399.581424 324.72 399.581424 
C 319.941418 399.581424 315.357911 401.479975 311.978943 404.858943 
C 308.599975 408.237911 306.701424 412.821418 306.701424 417.6 
C 306.701424 422.378582 308.599975 426.962089 311.978943 430.341057 
C 315.357911 433.720025 319.941418 435.618576 324.72 435.618576 
z
" style="fill:#fcaa8d;fill-opacity:0.8;stroke:#fcaa8d;stroke-opacity:0.8;"/>
    <path d="M 324.72 322.085335 
C 329.940612 322.085335 334.948104 320.011164 338.639634 316.319634 
C 342.331164 312.628104 344.405335 307.620612 344.405335 302.4 
C 344.405335 297.179388 342.331164 292.171896 338.639634 288.480366 
C 334.948104 284.788836 329.940612 282.714665 324.72 282.714665 
C 319.499388 282.714665 314.491896 284.788836 310.800366 288.480366 
C 307.108836 292.171896 305.034665 297.179388 305.034665 302.4 
C 305.034665 307.620612 307.108836 312.628104 310.800366 316.319634 
C 314.491896 320.011164 319.499388 322.085335 324.72 322.085335 
z
" style="fill:#fc9b7c;fill-opacity:0.8;stroke:#fc9b7c;stroke-opacity:0.8;"/>
    <path d="M 324.72 209.64228 
C 330.671762 209.64228 336.380557 207.277619 340.589088 203.069088 
C 344.797619 198.860557 347.16228 193.151762 347.16228 187.2 
C 347.16228 181.248238 344.797619 175.539443 340.589088 171.330912 
C 336.380557 167.122381 330.671762 164.75772 324.72 164.75772 
C 318.768238 164.75772 313.059443 167.122381 308.850912 171.330912 
C 304.642381 175.539443 302.27772 181.248238 302.27772 187.2 
C 302.27772 193.151762 304.642381 198.860557 308.850912 203.069088 
C 313.059443 207.277619 318.768238 209.64228 324.72 209.64228 
z
" style="fill:#fc8565;fill-opacity:0.8;stroke:#fc8565;stroke-opacity:0.8;"/>
    <path d="M 324.72 98.446742 
C 331.733758 98.446742 338.461195 95.660146 343.42067 90.70067 
C 348.380146 85.741195 351.166742 79.013758 351.166742 72 
C 351.166742 64.986242 348.380146 58.258805 343.42067 53.29933 
C 338.461195 48.339854 331.733758 45.553258 324.72 45.553258 
C 317.706242 45.553258 310.978805 48.339854 306.01933 53.29933 
C 301.059854 58.258805 298.273258 64.986242 298.273258 72 
C 298.273258 79.013758 301.059854 85.741195 306.01933 90.70067 
C 310.978805 95.660146 317.706242 98.446742 324.72 98.446742 
z
" style="fill:#fb6b4b;fill-opacity:0.8;stroke:#fb6b4b;stroke-opacity:0.8;"/>
    <path d="M 408.96 665.076756 
C 413.488809 665.076756 417.832739 663.277441 421.03509 660.07509 
C 424.237441 656.872739 426.036756 652.528809 426.036756 648 
C 426.036756 643.471191 424.237441 639.127261 421.03509 635.92491 
C 417.832739 632.722559 413.488809 630.923244 408.96 630.923244 
C 404.431191 630.923244 400.087261 632.722559 396.88491 635.92491 
C 393.682559 639.127261 391.883244 643.471191 391.883244 648 
C 391.883244 652.528809 393.682559 656.872739 396.88491 660.07509 
C 400.087261 663.277441 404.431191 665.076756 408.96 665.076756 
z
" style="fill:#fcb398;fill-opacity:0.8;stroke:#fcb398;stroke-opacity:0.8;"/>
    <path d="M 408.96 549.876757 
C 413.488809 549.876757 417.832739 548.077442 421.035091 544.875091 
C 424.237442 541.672739 426.036757 537.328809 426.036757 532.8 
C 426.036757 528.271191 424.237442 523.927261 421.035091 520.724909 
C 417.832739 517.522558 413.488809 515.723243 408.96 515.723243 
C 404.431191 515.723243 400.087261 517.522558 396.884909 520.724909 
C 393.682558 523.927261 391.883243 528.271191 391.883243 532.8 
C 391.883243 537.328809 393.682558 541.672739 396.884909 544.875091 
C 400.087261 548.077442 404.431191 549.876757 408.96 549.876757 
z
" style="fill:#fcb398;fill-opacity:0.8;stroke:#fcb398;stroke-opacity:0.8;"/>
    <path d="M 408.96 436.119891 
C 413.871532 436.119891 418.582562 434.168518 422.05554 430.69554 
C 425.528518 427.222562 427.479891 422.511532 427.479891 417.6 
C 427.479891 412.688468 425.528518 407.977438 422.05554 404.50446 
C 418.582562 401.031482 413.871532 399.080109 408.96 399.080109 
C 404.048468 399.080109 399.337438 401.031482 395.86446 404.50446 
C 392.391482 407.977438 390.440109 412.688468 390.440109 417.6 
C 390.440109 422.511532 392.391482 427.222562 395.86446 430.69554 
C 399.337438 434.168518 404.048468 436.119891 408.96 436.119891 
z
" style="fill:#fca588;fill-opacity:0.8;stroke:#fca588;stroke-opacity:0.8;"/>
    <path d="M 408.96 323.550386 
C 414.569148 323.550386 419.949315 321.321848 423.915581 317.355581 
C 427.881848 313.389315 430.110386 308.009148 430.110386 302.4 
C 430.110386 296.790852 427.881848 291.410685 423.915581 287.444419 
C 419.949315 283.478152 414.569148 281.249614 408.96 281.249614 
C 403.350852 281.249614 397.970685 283.478152 394.004419 287.444419 
C 390.038152 291.410685 387.809614 296.790852 387.809614 302.4 
C 387.809614 308.009148 390.038152 313.389315 394.004419 317.355581 
C 397.970685 321.321848 403.350852 323.550386 408.96 323.550386 
z
" style="fill:#fc8f6f;fill-opacity:0.8;stroke:#fc8f6f;stroke-opacity:0.8;"/>
    <path d="M 408.96 212.565557 
C 415.687024 212.565557 422.139433 209.892882 426.896158 205.136158 
C 431.652882 200.379433 434.325557 193.927024 434.325557 187.2 
C 434.325557 180.472976 431.652882 174.020567 426.896158 169.263842 
C 422.139433 164.507118 415.687024 161.834443 408.96 161.834443 
C 402.232976 161.834443 395.780567 164.507118 391.023842 169.263842 
C 386.267118 174.020567 383.594443 180.472976 383.594443 187.2 
C 383.594443 193.927024 386.267118 200.379433 391.023842 205.136158 
C 395.780567 209.892882 402.232976 212.565557 408.96 212.565557 
z
" style="fill:#fb7151;fill-opacity:0.8;stroke:#fb7151;stroke-opacity:0.8;"/>
    <path d="M 408.96 103.574624 
C 417.333688 103.574624 425.365539 100.247722 431.286631 94.326631 
C 437.207722 88.405539 440.534624 80.373688 440.534624 72 
C 440.534624 63.626312 437.207722 55.594461 431.286631 49.673369 
C 425.365539 43.752278 417.333688 40.425376 408.96 40.425376 
C 400.586312 40.425376 392.554461 43.752278 386.633369 49.673369 
C 380.712278 55.594461 377.385376 63.626312 377.385376 72 
C 377.385376 80.373688 380.712278 88.405539 386.633369 94.326631 
C 392.554461 100.247722 400.586312 103.574624 408.96 103.574624 
z
" style="fill:#f24734;fill-opacity:0.8;stroke:#f24734;stroke-opacity:0.8;"/>
    <path d="M 493.2 665.076756 
C 497.728809 665.076756 502.072739 663.277441 505.27509 660.07509 
C 508.477441 656.872739 510.276756 652.528809 510.276756 648 
C 510.276756 643.471191 508.477441 639.127261 505.27509 635.92491 
C 502.072739 632.722559 497.728809 630.923244 493.2 630.923244 
C 488.671191 630.923244 484.327261 632.722559 481.12491 635.92491 
C 477.922559 639.127261 476.123244 643.471191 476.123244 648 
C 476.123244 652.528809 477.922559 656.872739 481.12491 660.07509 
C 484.327261 663.277441 488.671191 665.076756 493.2 665.076756 
z
" style="fill:#fcb398;fill-opacity:0.8;stroke:#fcb398;stroke-opacity:0.8;"/>
    <path d="M 493.2 550.051723 
C 497.77521 550.051723 502.163648 548.233972 505.39881 544.99881 
C 508.633972 541.763648 510.451723 537.37521 510.451723 532.8 
C 510.451723 528.22479 508.633972 523.836352 505.39881 520.60119 
C 502.163648 517.366028 497.77521 515.548277 493.2 515.548277 
C 488.62479 515.548277 484.236352 517.366028 481.00119 520.60119 
C 477.766028 523.836352 475.948277 528.22479 475.948277 532.8 
C 475.948277 537.37521 477.766028 541.763648 481.00119 544.99881 
C 484.236352 548.233972 488.62479 550.051723 493.2 550.051723 
z
" style="fill:#fcb296;fill-opacity:0.8;stroke:#fcb296;stroke-opacity:0.8;"/>
    <path d="M 493.2 436.752472 
C 498.279295 436.752472 503.151239 434.734447 506.742843 431.142843 
C 510.334447 427.551239 512.352472 422.679295 512.352472 417.6 
C 512.352472 412.520705 510.334447 407.648761 506.742843 404.057157 
C 503.151239 400.465553 498.279295 398.447528 493.2 398.447528 
C 488.120705 398.447528 483.248761 400.465553 479.657157 404.057157 
C 476.065553 407.648761 474.047528 412.520705 474.047528 417.6 
C 474.047528 422.679295 476.065553 427.551239 479.657157 431.142843 
C 483.248761 434.734447 488.120705 436.752472 493.2 436.752472 
z
" style="fill:#fca082;fill-opacity:0.8;stroke:#fca082;stroke-opacity:0.8;"/>
    <path d="M 493.2 325.07125 
C 499.212486 325.07125 504.979525 322.682464 509.230994 318.430994 
C 513.482464 314.179525 515.87125 308.412486 515.87125 302.4 
C 515.87125 296.387514 513.482464 290.620475 509.230994 286.369006 
C 504.979525 282.117536 499.212486 279.72875 493.2 279.72875 
C 487.187514 279.72875 481.420475 282.117536 477.169006 286.369006 
C 472.917536 290.620475 470.52875 296.387514 470.52875 302.4 
C 470.52875 308.412486 472.917536 314.179525 477.169006 318.430994 
C 481.420475 322.682464 487.187514 325.07125 493.2 325.07125 
z
" style="fill:#fc8464;fill-opacity:0.8;stroke:#fc8464;stroke-opacity:0.8;"/>
    <path d="M 493.2 215.484271 
C 500.701076 215.484271 507.895938 212.504062 513.2 207.2 
C 518.504062 201.895938 521.484271 194.701076 521.484271 187.2 
C 521.484271 179.698924 518.504062 172.504062 513.2 167.2 
C 507.895938 161.895938 500.701076 158.915729 493.2 158.915729 
C 485.698924 158.915729 478.504062 161.895938 473.2 167.2 
C 467.895938 172.504062 464.915729 179.698924 464.915729 187.2 
C 464.915729 194.701076 467.895938 201.895938 473.2 207.2 
C 478.504062 212.504062 485.698924 215.484271 493.2 215.484271 
z
" style="fill:#f85d42;fill-opacity:0.8;stroke:#f85d42;stroke-opacity:0.8;"/>
    <path d="M 493.2 110.00429 
C 503.278856 110.00429 512.946264 105.999918 520.073091 98.873091 
C 527.199918 91.746264 531.20429 82.078856 531.20429 72 
C 531.20429 61.921144 527.199918 52.253736 520.073091 45.126909 
C 512.946264 38.000082 503.278856 33.99571 493.2 33.99571 
C 483.121144 33.99571 473.453736 38.000082 466.326909 45.126909 
C 459.200082 52.253736 455.19571 61.921144 455.19571 72 
C 455.19571 82.078856 459.200082 91.746264 466.326909 98.873091 
C 473.453736 105.999918 483.121144 110.00429 493.2 110.00429 
z
" style="fill:#dd2a25;fill-opacity:0.8;stroke:#dd2a25;stroke-opacity:0.8;"/>
   </g>
   <g id="text_16">
    <!--  30µs -->
    <defs>
     <path id="DejaVuSans-Bold-32"/>
     <path d="M 46.578125 39.3125 
Q 53.953125 37.40625 57.78125 32.6875 
Q 61.625 27.984375 61.625 20.703125 
Q 61.625 9.859375 53.3125 4.21875 
Q 45.015625 -1.421875 29.109375 -1.421875 
Q 23.484375 -1.421875 17.84375 -0.515625 
Q 12.203125 0.390625 6.6875 2.203125 
L 6.6875 16.703125 
Q 11.96875 14.0625 17.15625 12.71875 
Q 22.359375 11.375 27.390625 11.375 
Q 34.859375 11.375 38.84375 13.953125 
Q 42.828125 16.546875 42.828125 21.390625 
Q 42.828125 26.375 38.75 28.9375 
Q 34.671875 31.5 26.703125 31.5 
L 19.1875 31.5 
L 19.1875 43.609375 
L 27.09375 43.609375 
Q 34.1875 43.609375 37.640625 45.828125 
Q 41.109375 48.046875 41.109375 52.59375 
Q 41.109375 56.78125 37.734375 59.078125 
Q 34.375 61.375 28.21875 61.375 
Q 23.6875 61.375 19.046875 60.34375 
Q 14.40625 59.328125 9.8125 57.328125 
L 9.8125 71.09375 
Q 15.375 72.65625 20.84375 73.4375 
Q 26.3125 74.21875 31.59375 74.21875 
Q 45.796875 74.21875 52.84375 69.546875 
Q 59.90625 64.890625 59.90625 55.515625 
Q 59.90625 49.125 56.53125 45.046875 
Q 53.171875 40.96875 46.578125 39.3125 
z
" id="DejaVuSans-Bold-51"/>
     <path d="M 46 36.53125 
Q 46 50.203125 43.4375 55.78125 
Q 40.875 61.375 34.8125 61.375 
Q 28.765625 61.375 26.171875 55.78125 
Q 23.578125 50.203125 23.578125 36.53125 
Q 23.578125 22.703125 26.171875 17.03125 
Q 28.765625 11.375 34.8125 11.375 
Q 40.828125 11.375 43.40625 17.03125 
Q 46 22.703125 46 36.53125 
z
M 64.796875 36.375 
Q 64.796875 18.265625 56.984375 8.421875 
Q 49.171875 -1.421875 34.8125 -1.421875 
Q 20.40625 -1.421875 12.59375 8.421875 
Q 4.78125 18.265625 4.78125 36.375 
Q 4.78125 54.546875 12.59375 64.375 
Q 20.40625 74.21875 34.8125 74.21875 
Q 49.171875 74.21875 56.984375 64.375 
Q 64.796875 54.546875 64.796875 36.375 
z
" id="DejaVuSans-Bold-48"/>
     <path d="M 8.5 -20.90625 
L 8.5 54.6875 
L 26.125 54.6875 
L 26.125 22.90625 
Q 26.125 17.234375 28.5625 14.46875 
Q 31 11.71875 35.984375 11.71875 
Q 41.015625 11.71875 43.453125 14.46875 
Q 45.90625 17.234375 45.90625 22.90625 
L 45.90625 54.6875 
L 63.484375 54.6875 
L 63.484375 18.109375 
Q 63.484375 14.65625 64.28125 13.28125 
Q 65.09375 11.921875 67 11.921875 
Q 67.875 11.921875 68.671875 12.15625 
Q 69.484375 12.40625 70.40625 12.984375 
L 70.40625 0.78125 
Q 67.828125 -0.34375 65.546875 -0.875 
Q 63.28125 -1.421875 61.078125 -1.421875 
Q 56.734375 -1.421875 53.96875 0.40625 
Q 51.21875 2.25 49.515625 6.296875 
Q 47.21875 2.4375 43.921875 0.5 
Q 40.625 -1.421875 36.28125 -1.421875 
Q 32.671875 -1.421875 30.125 -0.265625 
Q 27.59375 0.875 26.125 3.21875 
L 26.125 -20.90625 
z
" id="DejaVuSans-Bold-181"/>
     <path d="M 51.125 52.984375 
L 51.125 39.703125 
Q 45.515625 42.046875 40.28125 43.21875 
Q 35.0625 44.390625 30.421875 44.390625 
Q 25.4375 44.390625 23.015625 43.140625 
Q 20.609375 41.890625 20.609375 39.3125 
Q 20.609375 37.203125 22.4375 36.078125 
Q 24.265625 34.96875 29 34.421875 
L 32.078125 33.984375 
Q 45.515625 32.28125 50.140625 28.375 
Q 54.78125 24.46875 54.78125 16.109375 
Q 54.78125 7.375 48.328125 2.96875 
Q 41.890625 -1.421875 29.109375 -1.421875 
Q 23.6875 -1.421875 17.890625 -0.5625 
Q 12.109375 0.296875 6 2 
L 6 15.28125 
Q 11.234375 12.75 16.71875 11.46875 
Q 22.21875 10.203125 27.875 10.203125 
Q 33.015625 10.203125 35.59375 11.609375 
Q 38.1875 13.03125 38.1875 15.828125 
Q 38.1875 18.171875 36.40625 19.3125 
Q 34.625 20.453125 29.296875 21.09375 
L 26.21875 21.484375 
Q 14.546875 22.953125 9.859375 26.90625 
Q 5.171875 30.859375 5.171875 38.921875 
Q 5.171875 47.609375 11.125 51.796875 
Q 17.09375 56 29.390625 56 
Q 34.234375 56 39.546875 55.265625 
Q 44.875 54.546875 51.125 52.984375 
z
" id="DejaVuSans-Bold-115"/>
    </defs>
    <g transform="translate(57.580401 650.581322)scale(0.09392 -0.09392)">
     <use xlink:href="#DejaVuSans-Bold-32"/>
     <use x="34.814453" xlink:href="#DejaVuSans-Bold-51"/>
     <use x="104.394531" xlink:href="#DejaVuSans-Bold-48"/>
     <use x="173.974609" xlink:href="#DejaVuSans-Bold-181"/>
     <use x="247.558594" xlink:href="#DejaVuSans-Bold-115"/>
    </g>
   </g>
   <g id="text_17">
    <!--  25µs -->
    <defs>
     <path d="M 28.8125 13.8125 
L 60.890625 13.8125 
L 60.890625 0 
L 7.90625 0 
L 7.90625 13.8125 
L 34.515625 37.3125 
Q 38.09375 40.53125 39.796875 43.609375 
Q 41.5 46.6875 41.5 50 
Q 41.5 55.125 38.0625 58.25 
Q 34.625 61.375 28.90625 61.375 
Q 24.515625 61.375 19.28125 59.5 
Q 14.0625 57.625 8.109375 53.90625 
L 8.109375 69.921875 
Q 14.453125 72.015625 20.65625 73.109375 
Q 26.859375 74.21875 32.8125 74.21875 
Q 45.90625 74.21875 53.15625 68.453125 
Q 60.40625 62.703125 60.40625 52.390625 
Q 60.40625 46.4375 57.328125 41.28125 
Q 54.25 36.140625 44.390625 27.484375 
z
" id="DejaVuSans-Bold-50"/>
     <path d="M 10.59375 72.90625 
L 57.328125 72.90625 
L 57.328125 59.078125 
L 25.59375 59.078125 
L 25.59375 47.796875 
Q 27.734375 48.390625 29.90625 48.703125 
Q 32.078125 49.03125 34.421875 49.03125 
Q 47.75 49.03125 55.171875 42.359375 
Q 62.59375 35.6875 62.59375 23.78125 
Q 62.59375 11.96875 54.515625 5.265625 
Q 46.4375 -1.421875 32.078125 -1.421875 
Q 25.875 -1.421875 19.796875 -0.21875 
Q 13.71875 0.984375 7.71875 3.421875 
L 7.71875 18.21875 
Q 13.671875 14.796875 19.015625 13.078125 
Q 24.359375 11.375 29.109375 11.375 
Q 35.9375 11.375 39.859375 14.71875 
Q 43.796875 18.0625 43.796875 23.78125 
Q 43.796875 29.546875 39.859375 32.859375 
Q 35.9375 36.1875 29.109375 36.1875 
Q 25.046875 36.1875 20.453125 35.125 
Q 15.875 34.078125 10.59375 31.890625 
z
" id="DejaVuSans-Bold-53"/>
    </defs>
    <g transform="translate(57.694534 535.360891)scale(0.093176 -0.093176)">
     <use xlink:href="#DejaVuSans-Bold-32"/>
     <use x="34.814453" xlink:href="#DejaVuSans-Bold-50"/>
     <use x="104.394531" xlink:href="#DejaVuSans-Bold-53"/>
     <use x="173.974609" xlink:href="#DejaVuSans-Bold-181"/>
     <use x="247.558594" xlink:href="#DejaVuSans-Bold-115"/>
    </g>
   </g>
   <g id="text_18">
    <!--  30µs -->
    <g transform="translate(57.580401 420.181322)scale(0.09392 -0.09392)">
     <use xlink:href="#DejaVuSans-Bold-32"/>
     <use x="34.814453" xlink:href="#DejaVuSans-Bold-51"/>
     <use x="104.394531" xlink:href="#DejaVuSans-Bold-48"/>
     <use x="173.974609" xlink:href="#DejaVuSans-Bold-181"/>
     <use x="247.558594" xlink:href="#DejaVuSans-Bold-115"/>
    </g>
   </g>
   <g id="text_19">
    <!--  35µs -->
    <g transform="translate(57.478895 304.999494)scale(0.094581 -0.094581)">
     <use xlink:href="#DejaVuSans-Bold-32"/>
     <use x="34.814453" xlink:href="#DejaVuSans-Bold-51"/>
     <use x="104.394531" xlink:href="#DejaVuSans-Bold-53"/>
     <use x="173.974609" xlink:href="#DejaVuSans-Bold-181"/>
     <use x="247.558594" xlink:href="#DejaVuSans-Bold-115"/>
    </g>
   </g>
   <g id="text_20">
    <!--  35µs -->
    <g transform="translate(57.478895 189.799494)scale(0.094581 -0.094581)">
     <use xlink:href="#DejaVuSans-Bold-32"/>
     <use x="34.814453" xlink:href="#DejaVuSans-Bold-51"/>
     <use x="104.394531" xlink:href="#DejaVuSans-Bold-53"/>
     <use x="173.974609" xlink:href="#DejaVuSans-Bold-181"/>
     <use x="247.558594" xlink:href="#DejaVuSans-Bold-115"/>
    </g>
   </g>
   <g id="text_21">
    <!--  35µs -->
    <g transform="translate(57.478895 74.599494)scale(0.094581 -0.094581)">
     <use xlink:href="#DejaVuSans-Bold-32"/>
     <use x="34.814453" xlink:href="#DejaVuSans-Bold-51"/>
     <use x="104.394531" xlink:href="#DejaVuSans-Bold-53"/>
     <use x="173.974609" xlink:href="#DejaVuSans-Bold-181"/>
     <use x="247.558594" xlink:href="#DejaVuSans-Bold-115"/>
    </g>
   </g>
   <g id="text_22">
    <!--  30µs -->
    <g transform="translate(141.820401 650.581322)scale(0.09392 -0.09392)">
     <use xlink:href="#DejaVuSans-Bold-32"/>
     <use x="34.814453" xlink:href="#DejaVuSans-Bold-51"/>
     <use x="104.394531" xlink:href="#DejaVuSans-Bold-48"/>
     <use x="173.974609" xlink:href="#DejaVuSans-Bold-181"/>
     <use x="247.558594" xlink:href="#DejaVuSans-Bold-115"/>
    </g>
   </g>
   <g id="text_23">
    <!--  30µs -->
    <g transform="translate(141.820401 535.381322)scale(0.09392 -0.09392)">
     <use xlink:href="#DejaVuSans-Bold-32"/>
     <use x="34.814453" xlink:href="#DejaVuSans-Bold-51"/>
     <use x="104.394531" xlink:href="#DejaVuSans-Bold-48"/>
     <use x="173.974609" xlink:href="#DejaVuSans-Bold-181"/>
     <use x="247.558594" xlink:href="#DejaVuSans-Bold-115"/>
    </g>
   </g>
   <g id="text_24">
    <!--  35µs -->
    <g transform="translate(141.718895 420.199494)scale(0.094581 -0.094581)">
     <use xlink:href="#DejaVuSans-Bold-32"/>
     <use x="34.814453" xlink:href="#DejaVuSans-Bold-51"/>
     <use x="104.394531" xlink:href="#DejaVuSans-Bold-53"/>
     <use x="173.974609" xlink:href="#DejaVuSans-Bold-181"/>
     <use x="247.558594" xlink:href="#DejaVuSans-Bold-115"/>
    </g>
   </g>
   <g id="text_25">
    <!--  35µs -->
    <g transform="translate(141.718895 304.999494)scale(0.094581 -0.094581)">
     <use xlink:href="#DejaVuSans-Bold-32"/>
     <use x="34.814453" xlink:href="#DejaVuSans-Bold-51"/>
     <use x="104.394531" xlink:href="#DejaVuSans-Bold-53"/>
     <use x="173.974609" xlink:href="#DejaVuSans-Bold-181"/>
     <use x="247.558594" xlink:href="#DejaVuSans-Bold-115"/>
    </g>
   </g>
   <g id="text_26">
    <!--  45µs -->
    <defs>
     <path d="M 36.8125 57.421875 
L 16.21875 26.90625 
L 36.8125 26.90625 
z
M 33.6875 72.90625 
L 54.59375 72.90625 
L 54.59375 26.90625 
L 64.984375 26.90625 
L 64.984375 13.28125 
L 54.59375 13.28125 
L 54.59375 0 
L 36.8125 0 
L 36.8125 13.28125 
L 4.5 13.28125 
L 4.5 29.390625 
z
" id="DejaVuSans-Bold-52"/>
    </defs>
    <g transform="translate(141.542966 189.830987)scale(0.095727 -0.095727)">
     <use xlink:href="#DejaVuSans-Bold-32"/>
     <use x="34.814453" xlink:href="#DejaVuSans-Bold-52"/>
     <use x="104.394531" xlink:href="#DejaVuSans-Bold-53"/>
     <use x="173.974609" xlink:href="#DejaVuSans-Bold-181"/>
     <use x="247.558594" xlink:href="#DejaVuSans-Bold-115"/>
    </g>
   </g>
   <g id="text_27">
    <!--  55µs -->
    <g transform="translate(141.392613 74.657903)scale(0.096706 -0.096706)">
     <use xlink:href="#DejaVuSans-Bold-32"/>
     <use x="34.814453" xlink:href="#DejaVuSans-Bold-53"/>
     <use x="104.394531" xlink:href="#DejaVuSans-Bold-53"/>
     <use x="173.974609" xlink:href="#DejaVuSans-Bold-181"/>
     <use x="247.558594" xlink:href="#DejaVuSans-Bold-115"/>
    </g>
   </g>
   <g id="text_28">
    <!--  35µs -->
    <g transform="translate(225.958895 650.599494)scale(0.094581 -0.094581)">
     <use xlink:href="#DejaVuSans-Bold-32"/>
     <use x="34.814453" xlink:href="#DejaVuSans-Bold-51"/>
     <use x="104.394531" xlink:href="#DejaVuSans-Bold-53"/>
     <use x="173.974609" xlink:href="#DejaVuSans-Bold-181"/>
     <use x="247.558594" xlink:href="#DejaVuSans-Bold-115"/>
    </g>
   </g>
   <g id="text_29">
    <!--  35µs -->
    <g transform="translate(225.958895 535.399494)scale(0.094581 -0.094581)">
     <use xlink:href="#DejaVuSans-Bold-32"/>
     <use x="34.814453" xlink:href="#DejaVuSans-Bold-51"/>
     <use x="104.394531" xlink:href="#DejaVuSans-Bold-53"/>
     <use x="173.974609" xlink:href="#DejaVuSans-Bold-181"/>
     <use x="247.558594" xlink:href="#DejaVuSans-Bold-115"/>
    </g>
   </g>
   <g id="text_30">
    <!--  35µs -->
    <g transform="translate(225.958894 420.199494)scale(0.094581 -0.094581)">
     <use xlink:href="#DejaVuSans-Bold-32"/>
     <use x="34.814453" xlink:href="#DejaVuSans-Bold-51"/>
     <use x="104.394531" xlink:href="#DejaVuSans-Bold-53"/>
     <use x="173.974609" xlink:href="#DejaVuSans-Bold-181"/>
     <use x="247.558594" xlink:href="#DejaVuSans-Bold-115"/>
    </g>
   </g>
   <g id="text_31">
    <!--  55µs -->
    <g transform="translate(225.632613 305.057903)scale(0.096706 -0.096706)">
     <use xlink:href="#DejaVuSans-Bold-32"/>
     <use x="34.814453" xlink:href="#DejaVuSans-Bold-53"/>
     <use x="104.394531" xlink:href="#DejaVuSans-Bold-53"/>
     <use x="173.974609" xlink:href="#DejaVuSans-Bold-181"/>
     <use x="247.558594" xlink:href="#DejaVuSans-Bold-115"/>
    </g>
   </g>
   <g id="text_32">
    <!--  90µs -->
    <defs>
     <path d="M 10.015625 1.609375 
L 10.015625 15.09375 
Q 14.5 12.984375 18.59375 11.9375 
Q 22.703125 10.890625 26.703125 10.890625 
Q 35.109375 10.890625 39.796875 15.546875 
Q 44.484375 20.21875 45.3125 29.390625 
Q 42 26.953125 38.234375 25.734375 
Q 34.46875 24.515625 30.078125 24.515625 
Q 18.890625 24.515625 12.03125 31.03125 
Q 5.171875 37.546875 5.171875 48.1875 
Q 5.171875 59.96875 12.8125 67.046875 
Q 20.453125 74.125 33.296875 74.125 
Q 47.5625 74.125 55.375 64.5 
Q 63.1875 54.890625 63.1875 37.3125 
Q 63.1875 19.234375 54.046875 8.90625 
Q 44.921875 -1.421875 29 -1.421875 
Q 23.875 -1.421875 19.1875 -0.65625 
Q 14.5 0.09375 10.015625 1.609375 
z
M 33.203125 36.71875 
Q 38.140625 36.71875 40.625 39.90625 
Q 43.109375 43.109375 43.109375 49.515625 
Q 43.109375 55.859375 40.625 59.078125 
Q 38.140625 62.3125 33.203125 62.3125 
Q 28.265625 62.3125 25.78125 59.078125 
Q 23.296875 55.859375 23.296875 49.515625 
Q 23.296875 43.109375 25.78125 39.90625 
Q 28.265625 36.71875 33.203125 36.71875 
z
" id="DejaVuSans-Bold-57"/>
    </defs>
    <g transform="translate(225.222737 189.931277)scale(0.099376 -0.099376)">
     <use xlink:href="#DejaVuSans-Bold-32"/>
     <use x="34.814453" xlink:href="#DejaVuSans-Bold-57"/>
     <use x="104.394531" xlink:href="#DejaVuSans-Bold-48"/>
     <use x="173.974609" xlink:href="#DejaVuSans-Bold-181"/>
     <use x="247.558594" xlink:href="#DejaVuSans-Bold-115"/>
    </g>
   </g>
   <g id="text_33">
    <!-- 195µs -->
    <defs>
     <path d="M 11.71875 12.984375 
L 28.328125 12.984375 
L 28.328125 60.109375 
L 11.28125 56.59375 
L 11.28125 69.390625 
L 28.21875 72.90625 
L 46.09375 72.90625 
L 46.09375 12.984375 
L 62.703125 12.984375 
L 62.703125 0 
L 11.71875 0 
z
" id="DejaVuSans-Bold-49"/>
    </defs>
    <g transform="translate(222.627446 74.870836)scale(0.104453 -0.104453)">
     <use xlink:href="#DejaVuSans-Bold-49"/>
     <use x="69.580078" xlink:href="#DejaVuSans-Bold-57"/>
     <use x="139.160156" xlink:href="#DejaVuSans-Bold-53"/>
     <use x="208.740234" xlink:href="#DejaVuSans-Bold-181"/>
     <use x="282.324219" xlink:href="#DejaVuSans-Bold-115"/>
    </g>
   </g>
   <g id="text_34">
    <!--  35µs -->
    <g transform="translate(310.198895 650.599494)scale(0.094581 -0.094581)">
     <use xlink:href="#DejaVuSans-Bold-32"/>
     <use x="34.814453" xlink:href="#DejaVuSans-Bold-51"/>
     <use x="104.394531" xlink:href="#DejaVuSans-Bold-53"/>
     <use x="173.974609" xlink:href="#DejaVuSans-Bold-181"/>
     <use x="247.558594" xlink:href="#DejaVuSans-Bold-115"/>
    </g>
   </g>
   <g id="text_35">
    <!--  35µs -->
    <g transform="translate(310.198894 535.399494)scale(0.094581 -0.094581)">
     <use xlink:href="#DejaVuSans-Bold-32"/>
     <use x="34.814453" xlink:href="#DejaVuSans-Bold-51"/>
     <use x="104.394531" xlink:href="#DejaVuSans-Bold-53"/>
     <use x="173.974609" xlink:href="#DejaVuSans-Bold-181"/>
     <use x="247.558594" xlink:href="#DejaVuSans-Bold-115"/>
    </g>
   </g>
   <g id="text_36">
    <!--  50µs -->
    <g transform="translate(309.945157 420.244916)scale(0.096233 -0.096233)">
     <use xlink:href="#DejaVuSans-Bold-32"/>
     <use x="34.814453" xlink:href="#DejaVuSans-Bold-53"/>
     <use x="104.394531" xlink:href="#DejaVuSans-Bold-48"/>
     <use x="173.974609" xlink:href="#DejaVuSans-Bold-181"/>
     <use x="247.558594" xlink:href="#DejaVuSans-Bold-115"/>
    </g>
   </g>
   <g id="text_37">
    <!--  90µs -->
    <g transform="translate(309.462737 305.131277)scale(0.099376 -0.099376)">
     <use xlink:href="#DejaVuSans-Bold-32"/>
     <use x="34.814453" xlink:href="#DejaVuSans-Bold-57"/>
     <use x="104.394531" xlink:href="#DejaVuSans-Bold-48"/>
     <use x="173.974609" xlink:href="#DejaVuSans-Bold-181"/>
     <use x="247.558594" xlink:href="#DejaVuSans-Bold-115"/>
    </g>
   </g>
   <g id="text_38">
    <!-- 215µs -->
    <g transform="translate(306.742781 190.090883)scale(0.105183 -0.105183)">
     <use xlink:href="#DejaVuSans-Bold-50"/>
     <use x="69.580078" xlink:href="#DejaVuSans-Bold-49"/>
     <use x="139.160156" xlink:href="#DejaVuSans-Bold-53"/>
     <use x="208.740234" xlink:href="#DejaVuSans-Bold-181"/>
     <use x="282.324219" xlink:href="#DejaVuSans-Bold-115"/>
    </g>
   </g>
   <g id="text_39">
    <!-- 640µs -->
    <defs>
     <path d="M 36.1875 35.984375 
Q 31.25 35.984375 28.78125 32.78125 
Q 26.3125 29.59375 26.3125 23.1875 
Q 26.3125 16.796875 28.78125 13.59375 
Q 31.25 10.40625 36.1875 10.40625 
Q 41.15625 10.40625 43.625 13.59375 
Q 46.09375 16.796875 46.09375 23.1875 
Q 46.09375 29.59375 43.625 32.78125 
Q 41.15625 35.984375 36.1875 35.984375 
z
M 59.421875 71 
L 59.421875 57.515625 
Q 54.78125 59.71875 50.671875 60.765625 
Q 46.578125 61.8125 42.671875 61.8125 
Q 34.28125 61.8125 29.59375 57.140625 
Q 24.90625 52.484375 24.125 43.3125 
Q 27.34375 45.703125 31.09375 46.890625 
Q 34.859375 48.09375 39.3125 48.09375 
Q 50.484375 48.09375 57.34375 41.546875 
Q 64.203125 35.015625 64.203125 24.421875 
Q 64.203125 12.703125 56.53125 5.640625 
Q 48.875 -1.421875 35.984375 -1.421875 
Q 21.78125 -1.421875 13.984375 8.171875 
Q 6.203125 17.78125 6.203125 35.40625 
Q 6.203125 53.46875 15.3125 63.796875 
Q 24.421875 74.125 40.28125 74.125 
Q 45.3125 74.125 50.046875 73.34375 
Q 54.78125 72.5625 59.421875 71 
z
" id="DejaVuSans-Bold-54"/>
    </defs>
    <g transform="translate(305.069753 75.15992)scale(0.114972 -0.114972)">
     <use xlink:href="#DejaVuSans-Bold-54"/>
     <use x="69.580078" xlink:href="#DejaVuSans-Bold-52"/>
     <use x="139.160156" xlink:href="#DejaVuSans-Bold-48"/>
     <use x="208.740234" xlink:href="#DejaVuSans-Bold-181"/>
     <use x="282.324219" xlink:href="#DejaVuSans-Bold-115"/>
    </g>
   </g>
   <g id="text_40">
    <!--  35µs -->
    <g transform="translate(394.438895 650.599494)scale(0.094581 -0.094581)">
     <use xlink:href="#DejaVuSans-Bold-32"/>
     <use x="34.814453" xlink:href="#DejaVuSans-Bold-51"/>
     <use x="104.394531" xlink:href="#DejaVuSans-Bold-53"/>
     <use x="173.974609" xlink:href="#DejaVuSans-Bold-181"/>
     <use x="247.558594" xlink:href="#DejaVuSans-Bold-115"/>
    </g>
   </g>
   <g id="text_41">
    <!--  35µs -->
    <g transform="translate(394.438894 535.399494)scale(0.094581 -0.094581)">
     <use xlink:href="#DejaVuSans-Bold-32"/>
     <use x="34.814453" xlink:href="#DejaVuSans-Bold-51"/>
     <use x="104.394531" xlink:href="#DejaVuSans-Bold-53"/>
     <use x="173.974609" xlink:href="#DejaVuSans-Bold-181"/>
     <use x="247.558594" xlink:href="#DejaVuSans-Bold-115"/>
    </g>
   </g>
   <g id="text_42">
    <!--  60µs -->
    <g transform="translate(394.044544 420.270088)scale(0.097149 -0.097149)">
     <use xlink:href="#DejaVuSans-Bold-32"/>
     <use x="34.814453" xlink:href="#DejaVuSans-Bold-54"/>
     <use x="104.394531" xlink:href="#DejaVuSans-Bold-48"/>
     <use x="173.974609" xlink:href="#DejaVuSans-Bold-181"/>
     <use x="247.558594" xlink:href="#DejaVuSans-Bold-115"/>
    </g>
   </g>
   <g id="text_43">
    <!-- 145µs -->
    <g transform="translate(391.46405 305.213491)scale(0.102367 -0.102367)">
     <use xlink:href="#DejaVuSans-Bold-49"/>
     <use x="69.580078" xlink:href="#DejaVuSans-Bold-52"/>
     <use x="139.160156" xlink:href="#DejaVuSans-Bold-53"/>
     <use x="208.740234" xlink:href="#DejaVuSans-Bold-181"/>
     <use x="282.324219" xlink:href="#DejaVuSans-Bold-115"/>
    </g>
   </g>
   <g id="text_44">
    <!-- 485µs -->
    <defs>
     <path d="M 34.8125 32.625 
Q 29.546875 32.625 26.703125 29.734375 
Q 23.875 26.859375 23.875 21.484375 
Q 23.875 16.109375 26.703125 13.25 
Q 29.546875 10.40625 34.8125 10.40625 
Q 40.046875 10.40625 42.828125 13.25 
Q 45.609375 16.109375 45.609375 21.484375 
Q 45.609375 26.90625 42.828125 29.765625 
Q 40.046875 32.625 34.8125 32.625 
z
M 21.09375 38.8125 
Q 14.453125 40.828125 11.078125 44.96875 
Q 7.71875 49.125 7.71875 55.328125 
Q 7.71875 64.546875 14.59375 69.375 
Q 21.484375 74.21875 34.8125 74.21875 
Q 48.046875 74.21875 54.921875 69.40625 
Q 61.8125 64.59375 61.8125 55.328125 
Q 61.8125 49.125 58.421875 44.96875 
Q 55.03125 40.828125 48.390625 38.8125 
Q 55.8125 36.765625 59.59375 32.15625 
Q 63.375 27.546875 63.375 20.515625 
Q 63.375 9.671875 56.171875 4.125 
Q 48.96875 -1.421875 34.8125 -1.421875 
Q 20.609375 -1.421875 13.359375 4.125 
Q 6.109375 9.671875 6.109375 20.515625 
Q 6.109375 27.546875 9.890625 32.15625 
Q 13.671875 36.765625 21.09375 38.8125 
z
M 25.484375 53.421875 
Q 25.484375 49.078125 27.90625 46.734375 
Q 30.328125 44.390625 34.8125 44.390625 
Q 39.203125 44.390625 41.59375 46.734375 
Q 44 49.078125 44 53.421875 
Q 44 57.765625 41.59375 60.078125 
Q 39.203125 62.40625 34.8125 62.40625 
Q 30.328125 62.40625 27.90625 60.0625 
Q 25.484375 57.71875 25.484375 53.421875 
z
" id="DejaVuSans-Bold-56"/>
    </defs>
    <g transform="translate(389.788471 190.282938)scale(0.112171 -0.112171)">
     <use xlink:href="#DejaVuSans-Bold-52"/>
     <use x="69.580078" xlink:href="#DejaVuSans-Bold-56"/>
     <use x="139.160156" xlink:href="#DejaVuSans-Bold-53"/>
     <use x="208.740234" xlink:href="#DejaVuSans-Bold-181"/>
     <use x="282.324219" xlink:href="#DejaVuSans-Bold-115"/>
    </g>
   </g>
   <g id="text_45">
    <!--   2ms -->
    <defs>
     <path d="M 59.078125 45.609375 
Q 62.40625 50.6875 66.96875 53.34375 
Q 71.53125 56 77 56 
Q 86.421875 56 91.359375 50.1875 
Q 96.296875 44.390625 96.296875 33.296875 
L 96.296875 0 
L 78.71875 0 
L 78.71875 28.515625 
Q 78.765625 29.15625 78.78125 29.828125 
Q 78.8125 30.515625 78.8125 31.78125 
Q 78.8125 37.59375 77.09375 40.203125 
Q 75.390625 42.828125 71.578125 42.828125 
Q 66.609375 42.828125 63.890625 38.71875 
Q 61.1875 34.625 61.078125 26.859375 
L 61.078125 0 
L 43.5 0 
L 43.5 28.515625 
Q 43.5 37.59375 41.9375 40.203125 
Q 40.375 42.828125 36.375 42.828125 
Q 31.34375 42.828125 28.609375 38.703125 
Q 25.875 34.578125 25.875 26.90625 
L 25.875 0 
L 8.296875 0 
L 8.296875 54.6875 
L 25.875 54.6875 
L 25.875 46.6875 
Q 29.109375 51.3125 33.28125 53.65625 
Q 37.453125 56 42.484375 56 
Q 48.140625 56 52.484375 53.265625 
Q 56.84375 50.53125 59.078125 45.609375 
z
" id="DejaVuSans-Bold-109"/>
    </defs>
    <g transform="translate(389.293124 75.582989)scale(0.129848 -0.129848)">
     <use xlink:href="#DejaVuSans-Bold-32"/>
     <use x="34.814453" xlink:href="#DejaVuSans-Bold-32"/>
     <use x="69.628906" xlink:href="#DejaVuSans-Bold-50"/>
     <use x="139.208984" xlink:href="#DejaVuSans-Bold-109"/>
     <use x="243.408203" xlink:href="#DejaVuSans-Bold-115"/>
    </g>
   </g>
   <g id="text_46">
    <!--  35µs -->
    <g transform="translate(478.678895 650.599494)scale(0.094581 -0.094581)">
     <use xlink:href="#DejaVuSans-Bold-32"/>
     <use x="34.814453" xlink:href="#DejaVuSans-Bold-51"/>
     <use x="104.394531" xlink:href="#DejaVuSans-Bold-53"/>
     <use x="173.974609" xlink:href="#DejaVuSans-Bold-181"/>
     <use x="247.558594" xlink:href="#DejaVuSans-Bold-115"/>
    </g>
   </g>
   <g id="text_47">
    <!--  37µs -->
    <defs>
     <path d="M 6.6875 72.90625 
L 61.625 72.90625 
L 61.625 62.3125 
L 33.203125 0 
L 14.890625 0 
L 41.796875 59.078125 
L 6.6875 59.078125 
z
" id="DejaVuSans-Bold-55"/>
    </defs>
    <g transform="translate(478.632787 535.407748)scale(0.094881 -0.094881)">
     <use xlink:href="#DejaVuSans-Bold-32"/>
     <use x="34.814453" xlink:href="#DejaVuSans-Bold-51"/>
     <use x="104.394531" xlink:href="#DejaVuSans-Bold-55"/>
     <use x="173.974609" xlink:href="#DejaVuSans-Bold-181"/>
     <use x="247.558594" xlink:href="#DejaVuSans-Bold-115"/>
    </g>
   </g>
   <g id="text_48">
    <!--  75µs -->
    <g transform="translate(478.101605 420.302837)scale(0.098341 -0.098341)">
     <use xlink:href="#DejaVuSans-Bold-32"/>
     <use x="34.814453" xlink:href="#DejaVuSans-Bold-55"/>
     <use x="104.394531" xlink:href="#DejaVuSans-Bold-53"/>
     <use x="173.974609" xlink:href="#DejaVuSans-Bold-181"/>
     <use x="247.558594" xlink:href="#DejaVuSans-Bold-115"/>
    </g>
   </g>
   <g id="text_49">
    <!-- 230µs -->
    <g transform="translate(475.134507 305.305079)scale(0.105699 -0.105699)">
     <use xlink:href="#DejaVuSans-Bold-50"/>
     <use x="69.580078" xlink:href="#DejaVuSans-Bold-51"/>
     <use x="139.160156" xlink:href="#DejaVuSans-Bold-48"/>
     <use x="208.740234" xlink:href="#DejaVuSans-Bold-181"/>
     <use x="282.324219" xlink:href="#DejaVuSans-Bold-115"/>
    </g>
   </g>
   <g id="text_50">
    <!--   1ms -->
    <g transform="translate(475.024687 190.51125)scale(0.12 -0.12)">
     <use xlink:href="#DejaVuSans-Bold-32"/>
     <use x="34.814453" xlink:href="#DejaVuSans-Bold-32"/>
     <use x="69.628906" xlink:href="#DejaVuSans-Bold-49"/>
     <use x="139.208984" xlink:href="#DejaVuSans-Bold-109"/>
     <use x="243.408203" xlink:href="#DejaVuSans-Bold-115"/>
    </g>
   </g>
   <g id="text_51">
    <!--   7ms -->
    <g transform="translate(470.145176 76.200219)scale(0.152216 -0.152216)">
     <use xlink:href="#DejaVuSans-Bold-32"/>
     <use x="34.814453" xlink:href="#DejaVuSans-Bold-32"/>
     <use x="69.628906" xlink:href="#DejaVuSans-Bold-55"/>
     <use x="139.208984" xlink:href="#DejaVuSans-Bold-109"/>
     <use x="243.408203" xlink:href="#DejaVuSans-Bold-115"/>
    </g>
   </g>
  </g>
  <g id="axes_2">
   <g id="patch_7">
    <path clip-path="url(#pa93381952b)" d="M 622.8 648 
L 622.8 552 
L 622.8 168 
L 622.8 72 
L 651.6 72 
L 651.6 168 
L 651.6 552 
L 651.6 648 
z
" style="fill:#ffffff;stroke:#ffffff;stroke-linejoin:miter;stroke-width:0.01;"/>
   </g>
   <g id="QuadMesh_1">
    <path clip-path="url(#pa93381952b)" d="M 622.8 648 
L 651.6 648 
L 651.6 552 
L 622.8 552 
L 622.8 648 
" style="fill:#481f70;"/>
    <path clip-path="url(#pa93381952b)" d="M 622.8 552 
L 651.6 552 
L 651.6 456 
L 622.8 456 
L 622.8 552 
" style="fill:#3b528b;"/>
    <path clip-path="url(#pa93381952b)" d="M 622.8 456 
L 651.6 456 
L 651.6 360 
L 622.8 360 
L 622.8 456 
" style="fill:#287c8e;"/>
    <path clip-path="url(#pa93381952b)" d="M 622.8 360 
L 651.6 360 
L 651.6 264 
L 622.8 264 
L 622.8 360 
" style="fill:#20a486;"/>
    <path clip-path="url(#pa93381952b)" d="M 622.8 264 
L 651.6 264 
L 651.6 168 
L 622.8 168 
L 622.8 264 
" style="fill:#5ec962;"/>
    <path clip-path="url(#pa93381952b)" d="M 622.8 168 
L 651.6 168 
L 651.6 72 
L 622.8 72 
L 622.8 168 
" style="fill:#c8e020;"/>
   </g>
   <g id="matplotlib.axis_3"/>
   <g id="matplotlib.axis_4">
    <g id="ytick_7">
     <g id="line2d_13">
      <defs>
       <path d="M 0 0 
L 3.5 0 
" id="macd34f74a8" style="stroke:#000000;stroke-width:0.8;"/>
      </defs>
      <g>
       <use style="stroke:#000000;stroke-width:0.8;" x="651.6" xlink:href="#macd34f74a8" y="648"/>
      </g>
     </g>
     <g id="text_52">
      <!--  10B -->
      <defs>
       <path d="M 31.78125 66.40625 
Q 24.171875 66.40625 20.328125 58.90625 
Q 16.5 51.421875 16.5 36.375 
Q 16.5 21.390625 20.328125 13.890625 
Q 24.171875 6.390625 31.78125 6.390625 
Q 39.453125 6.390625 43.28125 13.890625 
Q 47.125 21.390625 47.125 36.375 
Q 47.125 51.421875 43.28125 58.90625 
Q 39.453125 66.40625 31.78125 66.40625 
z
M 31.78125 74.21875 
Q 44.046875 74.21875 50.515625 64.515625 
Q 56.984375 54.828125 56.984375 36.375 
Q 56.984375 17.96875 50.515625 8.265625 
Q 44.046875 -1.421875 31.78125 -1.421875 
Q 19.53125 -1.421875 13.0625 8.265625 
Q 6.59375 17.96875 6.59375 36.375 
Q 6.59375 54.828125 13.0625 64.515625 
Q 19.53125 74.21875 31.78125 74.21875 
z
" id="DejaVuSans-48"/>
       <path d="M 19.671875 34.8125 
L 19.671875 8.109375 
L 35.5 8.109375 
Q 43.453125 8.109375 47.28125 11.40625 
Q 51.125 14.703125 51.125 21.484375 
Q 51.125 28.328125 47.28125 31.5625 
Q 43.453125 34.8125 35.5 34.8125 
z
M 19.671875 64.796875 
L 19.671875 42.828125 
L 34.28125 42.828125 
Q 41.5 42.828125 45.03125 45.53125 
Q 48.578125 48.25 48.578125 53.8125 
Q 48.578125 59.328125 45.03125 62.0625 
Q 41.5 64.796875 34.28125 64.796875 
z
M 9.8125 72.90625 
L 35.015625 72.90625 
Q 46.296875 72.90625 52.390625 68.21875 
Q 58.5 63.53125 58.5 54.890625 
Q 58.5 48.1875 55.375 44.234375 
Q 52.25 40.28125 46.1875 39.3125 
Q 53.46875 37.75 57.5 32.78125 
Q 61.53125 27.828125 61.53125 20.40625 
Q 61.53125 10.640625 54.890625 5.3125 
Q 48.25 0 35.984375 0 
L 9.8125 0 
z
" id="DejaVuSans-66"/>
      </defs>
      <g transform="translate(658.6 651.799219)scale(0.1 -0.1)">
       <use xlink:href="#DejaVuSans-32"/>
       <use x="31.787109" xlink:href="#DejaVuSans-49"/>
       <use x="95.410156" xlink:href="#DejaVuSans-48"/>
       <use x="159.033203" xlink:href="#DejaVuSans-66"/>
      </g>
     </g>
    </g>
    <g id="ytick_8">
     <g id="line2d_14">
      <g>
       <use style="stroke:#000000;stroke-width:0.8;" x="651.6" xlink:href="#macd34f74a8" y="552"/>
      </g>
     </g>
     <g id="text_53">
      <!-- 100B -->
      <g transform="translate(658.6 555.799219)scale(0.1 -0.1)">
       <use xlink:href="#DejaVuSans-49"/>
       <use x="63.623047" xlink:href="#DejaVuSans-48"/>
       <use x="127.246094" xlink:href="#DejaVuSans-48"/>
       <use x="190.869141" xlink:href="#DejaVuSans-66"/>
      </g>
     </g>
    </g>
    <g id="ytick_9">
     <g id="line2d_15">
      <g>
       <use style="stroke:#000000;stroke-width:0.8;" x="651.6" xlink:href="#macd34f74a8" y="456"/>
      </g>
     </g>
     <g id="text_54">
      <!--   1KB -->
      <defs>
       <path d="M 9.8125 72.90625 
L 19.671875 72.90625 
L 19.671875 42.09375 
L 52.390625 72.90625 
L 65.09375 72.90625 
L 28.90625 38.921875 
L 67.671875 0 
L 54.6875 0 
L 19.671875 35.109375 
L 19.671875 0 
L 9.8125 0 
z
" id="DejaVuSans-75"/>
      </defs>
      <g transform="translate(658.6 459.799219)scale(0.1 -0.1)">
       <use xlink:href="#DejaVuSans-32"/>
       <use x="31.787109" xlink:href="#DejaVuSans-32"/>
       <use x="63.574219" xlink:href="#DejaVuSans-49"/>
       <use x="127.197266" xlink:href="#DejaVuSans-75"/>
       <use x="192.773438" xlink:href="#DejaVuSans-66"/>
      </g>
     </g>
    </g>
    <g id="ytick_10">
     <g id="line2d_16">
      <g>
       <use style="stroke:#000000;stroke-width:0.8;" x="651.6" xlink:href="#macd34f74a8" y="360"/>
      </g>
     </g>
     <g id="text_55">
      <!--  10KB -->
      <g transform="translate(658.6 363.799219)scale(0.1 -0.1)">
       <use xlink:href="#DejaVuSans-32"/>
       <use x="31.787109" xlink:href="#DejaVuSans-49"/>
       <use x="95.410156" xlink:href="#DejaVuSans-48"/>
       <use x="159.033203" xlink:href="#DejaVuSans-75"/>
       <use x="224.609375" xlink:href="#DejaVuSans-66"/>
      </g>
     </g>
    </g>
    <g id="ytick_11">
     <g id="line2d_17">
      <g>
       <use style="stroke:#000000;stroke-width:0.8;" x="651.6" xlink:href="#macd34f74a8" y="264"/>
      </g>
     </g>
     <g id="text_56">
      <!-- 100KB -->
      <g transform="translate(658.6 267.799219)scale(0.1 -0.1)">
       <use xlink:href="#DejaVuSans-49"/>
       <use x="63.623047" xlink:href="#DejaVuSans-48"/>
       <use x="127.246094" xlink:href="#DejaVuSans-48"/>
       <use x="190.869141" xlink:href="#DejaVuSans-75"/>
       <use x="256.445312" xlink:href="#DejaVuSans-66"/>
      </g>
     </g>
    </g>
    <g id="ytick_12">
     <g id="line2d_18">
      <g>
       <use style="stroke:#000000;stroke-width:0.8;" x="651.6" xlink:href="#macd34f74a8" y="168"/>
      </g>
     </g>
     <g id="text_57">
      <!--   1MB -->
      <defs>
       <path d="M 9.8125 72.90625 
L 24.515625 72.90625 
L 43.109375 23.296875 
L 61.8125 72.90625 
L 76.515625 72.90625 
L 76.515625 0 
L 66.890625 0 
L 66.890625 64.015625 
L 48.09375 14.015625 
L 38.1875 14.015625 
L 19.390625 64.015625 
L 19.390625 0 
L 9.8125 0 
z
" id="DejaVuSans-77"/>
      </defs>
      <g transform="translate(658.6 171.799219)scale(0.1 -0.1)">
       <use xlink:href="#DejaVuSans-32"/>
       <use x="31.787109" xlink:href="#DejaVuSans-32"/>
       <use x="63.574219" xlink:href="#DejaVuSans-49"/>
       <use x="127.197266" xlink:href="#DejaVuSans-77"/>
       <use x="213.476562" xlink:href="#DejaVuSans-66"/>
      </g>
     </g>
    </g>
    <g id="ytick_13">
     <g id="line2d_19">
      <g>
       <use style="stroke:#000000;stroke-width:0.8;" x="651.6" xlink:href="#macd34f74a8" y="72"/>
      </g>
     </g>
     <g id="text_58">
      <!--  10MB -->
      <g transform="translate(658.6 75.799219)scale(0.1 -0.1)">
       <use xlink:href="#DejaVuSans-32"/>
       <use x="31.787109" xlink:href="#DejaVuSans-49"/>
       <use x="95.410156" xlink:href="#DejaVuSans-48"/>
       <use x="159.033203" xlink:href="#DejaVuSans-77"/>
       <use x="245.3125" xlink:href="#DejaVuSans-66"/>
      </g>
     </g>
    </g>
    <g id="text_59">
     <!-- serialized payload size -->
     <defs>
      <path d="M 44.28125 53.078125 
L 44.28125 44.578125 
Q 40.484375 46.53125 36.375 47.5 
Q 32.28125 48.484375 27.875 48.484375 
Q 21.1875 48.484375 17.84375 46.4375 
Q 14.5 44.390625 14.5 40.28125 
Q 14.5 37.15625 16.890625 35.375 
Q 19.28125 33.59375 26.515625 31.984375 
L 29.59375 31.296875 
Q 39.15625 29.25 43.1875 25.515625 
Q 47.21875 21.78125 47.21875 15.09375 
Q 47.21875 7.46875 41.1875 3.015625 
Q 35.15625 -1.421875 24.609375 -1.421875 
Q 20.21875 -1.421875 15.453125 -0.5625 
Q 10.6875 0.296875 5.421875 2 
L 5.421875 11.28125 
Q 10.40625 8.6875 15.234375 7.390625 
Q 20.0625 6.109375 24.8125 6.109375 
Q 31.15625 6.109375 34.5625 8.28125 
Q 37.984375 10.453125 37.984375 14.40625 
Q 37.984375 18.0625 35.515625 20.015625 
Q 33.0625 21.96875 24.703125 23.78125 
L 21.578125 24.515625 
Q 13.234375 26.265625 9.515625 29.90625 
Q 5.8125 33.546875 5.8125 39.890625 
Q 5.8125 47.609375 11.28125 51.796875 
Q 16.75 56 26.8125 56 
Q 31.78125 56 36.171875 55.265625 
Q 40.578125 54.546875 44.28125 53.078125 
z
" id="DejaVuSans-115"/>
      <path d="M 5.515625 54.6875 
L 48.1875 54.6875 
L 48.1875 46.484375 
L 14.40625 7.171875 
L 48.1875 7.171875 
L 48.1875 0 
L 4.296875 0 
L 4.296875 8.203125 
L 38.09375 47.515625 
L 5.515625 47.515625 
z
" id="DejaVuSans-122"/>
     </defs>
     <g transform="translate(702.704687 416.6)rotate(-90)scale(0.1 -0.1)">
      <use xlink:href="#DejaVuSans-115"/>
      <use x="52.099609" xlink:href="#DejaVuSans-101"/>
      <use x="113.623047" xlink:href="#DejaVuSans-114"/>
      <use x="154.736328" xlink:href="#DejaVuSans-105"/>
      <use x="182.519531" xlink:href="#DejaVuSans-97"/>
      <use x="243.798828" xlink:href="#DejaVuSans-108"/>
      <use x="271.582031" xlink:href="#DejaVuSans-105"/>
      <use x="299.365234" xlink:href="#DejaVuSans-122"/>
      <use x="351.855469" xlink:href="#DejaVuSans-101"/>
      <use x="413.378906" xlink:href="#DejaVuSans-100"/>
      <use x="476.855469" xlink:href="#DejaVuSans-32"/>
      <use x="508.642578" xlink:href="#DejaVuSans-112"/>
      <use x="572.119141" xlink:href="#DejaVuSans-97"/>
      <use x="633.398438" xlink:href="#DejaVuSans-121"/>
      <use x="692.578125" xlink:href="#DejaVuSans-108"/>
      <use x="720.361328" xlink:href="#DejaVuSans-111"/>
      <use x="781.542969" xlink:href="#DejaVuSans-97"/>
      <use x="842.822266" xlink:href="#DejaVuSans-100"/>
      <use x="906.298828" xlink:href="#DejaVuSans-32"/>
      <use x="938.085938" xlink:href="#DejaVuSans-115"/>
      <use x="990.185547" xlink:href="#DejaVuSans-105"/>
      <use x="1017.96875" xlink:href="#DejaVuSans-122"/>
      <use x="1070.458984" xlink:href="#DejaVuSans-101"/>
     </g>
    </g>
   </g>
   <g id="patch_8">
    <path d="M 622.8 648 
L 622.8 552 
L 622.8 168 
L 622.8 72 
L 651.6 72 
L 651.6 168 
L 651.6 552 
L 651.6 648 
z
" style="fill:none;stroke:#000000;stroke-linejoin:miter;stroke-width:0.8;"/>
   </g>
  </g>
 </g>
 <defs>
  <clipPath id="p4c036b9e93">
   <rect height="576" width="421.2" x="72" y="72"/>
  </clipPath>
  <clipPath id="pa93381952b">
   <rect height="576" width="28.8" x="622.8" y="72"/>
  </clipPath>
 </defs>
</svg>
