<?xml version="1.0" encoding="utf-8" standalone="no"?>
<!DOCTYPE svg PUBLIC "-//W3C//DTD SVG 1.1//EN"
  "http://www.w3.org/Graphics/SVG/1.1/DTD/svg11.dtd">
<!-- Created with matplotlib (https://matplotlib.org/) -->
<svg height="720pt" version="1.1" viewBox="0 0 720 720" width="720pt" xmlns="http://www.w3.org/2000/svg" xmlns:xlink="http://www.w3.org/1999/xlink">
 <defs>
  <style type="text/css">
*{stroke-linecap:butt;stroke-linejoin:round;white-space:pre;}
  </style>
 </defs>
 <g id="figure_1">
  <g id="patch_1">
   <path d="M 0 720 
L 720 720 
L 720 0 
L 0 0 
z
" style="fill:#ffffff;"/>
  </g>
  <g id="axes_1">
   <g id="patch_2">
    <path d="M 72 648 
L 493.2 648 
L 493.2 72 
L 72 72 
z
" style="fill:#ffffff;"/>
   </g>
   <g id="PathCollection_1">
    <path clip-path="url(#p487961d4b4)" d="M 156.24 648 
L 240.48 648 
L 324.72 648 
L 332.852967 648 
L 324.72 647.681794 
L 240.48 639.966872 
L 156.24 606.311218 
L 96.2414 532.8 
L 72 430.293422 
L 72 532.8 
L 72 648 
z
" style="fill:#481f70;"/>
   </g>
   <g id="PathCollection_2">
    <path clip-path="url(#p487961d4b4)" d="M 156.24 606.311218 
L 240.48 639.966872 
L 324.72 647.681794 
L 332.852967 648 
L 408.96 648 
L 493.2 648 
L 493.2 618.248947 
L 408.96 584.641798 
L 340.295479 532.8 
L 324.72 525.915639 
L 240.48 442.761877 
L 222.732188 417.6 
L 172.279003 302.4 
L 157.244619 187.2 
L 156.24 173.506398 
L 130.744622 72 
L 72 72 
L 72 187.2 
L 72 302.4 
L 72 417.6 
L 72 430.293422 
L 96.2414 532.8 
z
" style="fill:#3b528b;"/>
   </g>
   <g id="PathCollection_3">
    <path clip-path="url(#p487961d4b4)" d="M 408.96 584.641798 
L 493.2 618.248947 
L 493.2 532.8 
L 493.2 506.73757 
L 408.96 427.345767 
L 399.998776 417.6 
L 324.72 309.691224 
L 320.057677 302.4 
L 262.605392 187.2 
L 244.172312 72 
L 240.48 72 
L 156.24 72 
L 130.744622 72 
L 156.24 173.506398 
L 157.244619 187.2 
L 172.279003 302.4 
L 222.732188 417.6 
L 240.48 442.761877 
L 324.72 525.915639 
L 340.295479 532.8 
z
" style="fill:#287c8e;"/>
   </g>
   <g id="PathCollection_4">
    <path clip-path="url(#p487961d4b4)" d="M 408.96 427.345767 
L 493.2 506.73757 
L 493.2 417.6 
L 493.2 359.874667 
L 447.996165 302.4 
L 408.96 219.077403 
L 389.789479 187.2 
L 342.016195 72 
L 324.72 72 
L 244.172312 72 
L 262.605392 187.2 
L 320.057677 302.4 
L 324.72 309.691224 
L 399.998776 417.6 
z
" style="fill:#20a486;"/>
   </g>
   <g id="PathCollection_5">
    <path clip-path="url(#p487961d4b4)" d="M 493.2 359.874667 
L 493.2 302.4 
L 493.2 187.2 
L 493.2 148.79319 
L 449.003496 72 
L 408.96 72 
L 342.016195 72 
L 389.789479 187.2 
L 408.96 219.077403 
L 447.996165 302.4 
z
" style="fill:#5ec962;"/>
   </g>
   <g id="PathCollection_6">
    <path clip-path="url(#p487961d4b4)" d="M 493.2 148.79319 
L 493.2 72 
L 449.003496 72 
z
" style="fill:#c8e020;"/>
   </g>
   <g id="matplotlib.axis_1">
    <g id="xtick_1">
     <g id="line2d_1">
      <defs>
       <path d="M 0 0 
L 0 3.5 
" id="m2a34a37571" style="stroke:#000000;stroke-width:0.8;"/>
      </defs>
      <g>
       <use style="stroke:#000000;stroke-width:0.8;" x="72" xlink:href="#m2a34a37571" y="648"/>
      </g>
     </g>
     <g id="text_1">
      <!-- 1 -->
      <defs>
       <path d="M 12.40625 8.296875 
L 28.515625 8.296875 
L 28.515625 63.921875 
L 10.984375 60.40625 
L 10.984375 69.390625 
L 28.421875 72.90625 
L 38.28125 72.90625 
L 38.28125 8.296875 
L 54.390625 8.296875 
L 54.390625 0 
L 12.40625 0 
z
" id="DejaVuSans-49"/>
      </defs>
      <g transform="translate(68.81875 689.098438)scale(0.1 -0.1)">
       <use xlink:href="#DejaVuSans-49"/>
      </g>
     </g>
    </g>
    <g id="xtick_2">
     <g id="line2d_2">
      <g>
       <use style="stroke:#000000;stroke-width:0.8;" x="156.24" xlink:href="#m2a34a37571" y="648"/>
      </g>
     </g>
     <g id="text_2">
      <!-- 2 -->
      <defs>
       <path d="M 19.1875 8.296875 
L 53.609375 8.296875 
L 53.609375 0 
L 7.328125 0 
L 7.328125 8.296875 
Q 12.9375 14.109375 22.625 23.890625 
Q 32.328125 33.6875 34.8125 36.53125 
Q 39.546875 41.84375 41.421875 45.53125 
Q 43.3125 49.21875 43.3125 52.78125 
Q 43.3125 58.59375 39.234375 62.25 
Q 35.15625 65.921875 28.609375 65.921875 
Q 23.96875 65.921875 18.8125 64.3125 
Q 13.671875 62.703125 7.8125 59.421875 
L 7.8125 69.390625 
Q 13.765625 71.78125 18.9375 73 
Q 24.125 74.21875 28.421875 74.21875 
Q 39.75 74.21875 46.484375 68.546875 
Q 53.21875 62.890625 53.21875 53.421875 
Q 53.21875 48.921875 51.53125 44.890625 
Q 49.859375 40.875 45.40625 35.40625 
Q 44.1875 33.984375 37.640625 27.21875 
Q 31.109375 20.453125 19.1875 8.296875 
z
" id="DejaVuSans-50"/>
      </defs>
      <g transform="translate(153.05875 689.098438)scale(0.1 -0.1)">
       <use xlink:href="#DejaVuSans-50"/>
      </g>
     </g>
    </g>
    <g id="xtick_3">
     <g id="line2d_3">
      <g>
       <use style="stroke:#000000;stroke-width:0.8;" x="240.48" xlink:href="#m2a34a37571" y="648"/>
      </g>
     </g>
     <g id="text_3">
      <!-- 3 -->
      <defs>
       <path d="M 40.578125 39.3125 
Q 47.65625 37.796875 51.625 33 
Q 55.609375 28.21875 55.609375 21.1875 
Q 55.609375 10.40625 48.1875 4.484375 
Q 40.765625 -1.421875 27.09375 -1.421875 
Q 22.515625 -1.421875 17.65625 -0.515625 
Q 12.796875 0.390625 7.625 2.203125 
L 7.625 11.71875 
Q 11.71875 9.328125 16.59375 8.109375 
Q 21.484375 6.890625 26.8125 6.890625 
Q 36.078125 6.890625 40.9375 10.546875 
Q 45.796875 14.203125 45.796875 21.1875 
Q 45.796875 27.640625 41.28125 31.265625 
Q 36.765625 34.90625 28.71875 34.90625 
L 20.21875 34.90625 
L 20.21875 43.015625 
L 29.109375 43.015625 
Q 36.375 43.015625 40.234375 45.921875 
Q 44.09375 48.828125 44.09375 54.296875 
Q 44.09375 59.90625 40.109375 62.90625 
Q 36.140625 65.921875 28.71875 65.921875 
Q 24.65625 65.921875 20.015625 65.03125 
Q 15.375 64.15625 9.8125 62.3125 
L 9.8125 71.09375 
Q 15.4375 72.65625 20.34375 73.4375 
Q 25.25 74.21875 29.59375 74.21875 
Q 40.828125 74.21875 47.359375 69.109375 
Q 53.90625 64.015625 53.90625 55.328125 
Q 53.90625 49.265625 50.4375 45.09375 
Q 46.96875 40.921875 40.578125 39.3125 
z
" id="DejaVuSans-51"/>
      </defs>
      <g transform="translate(237.29875 689.098438)scale(0.1 -0.1)">
       <use xlink:href="#DejaVuSans-51"/>
      </g>
     </g>
    </g>
    <g id="xtick_4">
     <g id="line2d_4">
      <g>
       <use style="stroke:#000000;stroke-width:0.8;" x="324.72" xlink:href="#m2a34a37571" y="648"/>
      </g>
     </g>
     <g id="text_4">
      <!-- 4 -->
      <defs>
       <path d="M 37.796875 64.3125 
L 12.890625 25.390625 
L 37.796875 25.390625 
z
M 35.203125 72.90625 
L 47.609375 72.90625 
L 47.609375 25.390625 
L 58.015625 25.390625 
L 58.015625 17.1875 
L 47.609375 17.1875 
L 47.609375 0 
L 37.796875 0 
L 37.796875 17.1875 
L 4.890625 17.1875 
L 4.890625 26.703125 
z
" id="DejaVuSans-52"/>
      </defs>
      <g transform="translate(321.53875 689.098438)scale(0.1 -0.1)">
       <use xlink:href="#DejaVuSans-52"/>
      </g>
     </g>
    </g>
    <g id="xtick_5">
     <g id="line2d_5">
      <g>
       <use style="stroke:#000000;stroke-width:0.8;" x="408.96" xlink:href="#m2a34a37571" y="648"/>
      </g>
     </g>
     <g id="text_5">
      <!-- 5 -->
      <defs>
       <path d="M 10.796875 72.90625 
L 49.515625 72.90625 
L 49.515625 64.59375 
L 19.828125 64.59375 
L 19.828125 46.734375 
Q 21.96875 47.46875 24.109375 47.828125 
Q 26.265625 48.1875 28.421875 48.1875 
Q 40.625 48.1875 47.75 41.5 
Q 54.890625 34.8125 54.890625 23.390625 
Q 54.890625 11.625 47.5625 5.09375 
Q 40.234375 -1.421875 26.90625 -1.421875 
Q 22.3125 -1.421875 17.546875 -0.640625 
Q 12.796875 0.140625 7.71875 1.703125 
L 7.71875 11.625 
Q 12.109375 9.234375 16.796875 8.0625 
Q 21.484375 6.890625 26.703125 6.890625 
Q 35.15625 6.890625 40.078125 11.328125 
Q 45.015625 15.765625 45.015625 23.390625 
Q 45.015625 31 40.078125 35.4375 
Q 35.15625 39.890625 26.703125 39.890625 
Q 22.75 39.890625 18.8125 39.015625 
Q 14.890625 38.140625 10.796875 36.28125 
z
" id="DejaVuSans-53"/>
      </defs>
      <g transform="translate(405.77875 689.098438)scale(0.1 -0.1)">
       <use xlink:href="#DejaVuSans-53"/>
      </g>
     </g>
    </g>
    <g id="xtick_6">
     <g id="line2d_6">
      <g>
       <use style="stroke:#000000;stroke-width:0.8;" x="493.2" xlink:href="#m2a34a37571" y="648"/>
      </g>
     </g>
     <g id="text_6">
      <!-- 6 -->
      <defs>
       <path d="M 33.015625 40.375 
Q 26.375 40.375 22.484375 35.828125 
Q 18.609375 31.296875 18.609375 23.390625 
Q 18.609375 15.53125 22.484375 10.953125 
Q 26.375 6.390625 33.015625 6.390625 
Q 39.65625 6.390625 43.53125 10.953125 
Q 47.40625 15.53125 47.40625 23.390625 
Q 47.40625 31.296875 43.53125 35.828125 
Q 39.65625 40.375 33.015625 40.375 
z
M 52.59375 71.296875 
L 52.59375 62.3125 
Q 48.875 64.0625 45.09375 64.984375 
Q 41.3125 65.921875 37.59375 65.921875 
Q 27.828125 65.921875 22.671875 59.328125 
Q 17.53125 52.734375 16.796875 39.40625 
Q 19.671875 43.65625 24.015625 45.921875 
Q 28.375 48.1875 33.59375 48.1875 
Q 44.578125 48.1875 50.953125 41.515625 
Q 57.328125 34.859375 57.328125 23.390625 
Q 57.328125 12.15625 50.6875 5.359375 
Q 44.046875 -1.421875 33.015625 -1.421875 
Q 20.359375 -1.421875 13.671875 8.265625 
Q 6.984375 17.96875 6.984375 36.375 
Q 6.984375 53.65625 15.1875 63.9375 
Q 23.390625 74.21875 37.203125 74.21875 
Q 40.921875 74.21875 44.703125 73.484375 
Q 48.484375 72.75 52.59375 71.296875 
z
" id="DejaVuSans-54"/>
      </defs>
      <g transform="translate(490.01875 689.098438)scale(0.1 -0.1)">
       <use xlink:href="#DejaVuSans-54"/>
      </g>
     </g>
    </g>
    <g id="text_7">
     <!-- payload breadth -->
     <defs>
      <path d="M 18.109375 8.203125 
L 18.109375 -20.796875 
L 9.078125 -20.796875 
L 9.078125 54.6875 
L 18.109375 54.6875 
L 18.109375 46.390625 
Q 20.953125 51.265625 25.265625 53.625 
Q 29.59375 56 35.59375 56 
Q 45.5625 56 51.78125 48.09375 
Q 58.015625 40.1875 58.015625 27.296875 
Q 58.015625 14.40625 51.78125 6.484375 
Q 45.5625 -1.421875 35.59375 -1.421875 
Q 29.59375 -1.421875 25.265625 0.953125 
Q 20.953125 3.328125 18.109375 8.203125 
z
M 48.6875 27.296875 
Q 48.6875 37.203125 44.609375 42.84375 
Q 40.53125 48.484375 33.40625 48.484375 
Q 26.265625 48.484375 22.1875 42.84375 
Q 18.109375 37.203125 18.109375 27.296875 
Q 18.109375 17.390625 22.1875 11.75 
Q 26.265625 6.109375 33.40625 6.109375 
Q 40.53125 6.109375 44.609375 11.75 
Q 48.6875 17.390625 48.6875 27.296875 
z
" id="DejaVuSans-112"/>
      <path d="M 34.28125 27.484375 
Q 23.390625 27.484375 19.1875 25 
Q 14.984375 22.515625 14.984375 16.5 
Q 14.984375 11.71875 18.140625 8.90625 
Q 21.296875 6.109375 26.703125 6.109375 
Q 34.1875 6.109375 38.703125 11.40625 
Q 43.21875 16.703125 43.21875 25.484375 
L 43.21875 27.484375 
z
M 52.203125 31.203125 
L 52.203125 0 
L 43.21875 0 
L 43.21875 8.296875 
Q 40.140625 3.328125 35.546875 0.953125 
Q 30.953125 -1.421875 24.3125 -1.421875 
Q 15.921875 -1.421875 10.953125 3.296875 
Q 6 8.015625 6 15.921875 
Q 6 25.140625 12.171875 29.828125 
Q 18.359375 34.515625 30.609375 34.515625 
L 43.21875 34.515625 
L 43.21875 35.40625 
Q 43.21875 41.609375 39.140625 45 
Q 35.0625 48.390625 27.6875 48.390625 
Q 23 48.390625 18.546875 47.265625 
Q 14.109375 46.140625 10.015625 43.890625 
L 10.015625 52.203125 
Q 14.9375 54.109375 19.578125 55.046875 
Q 24.21875 56 28.609375 56 
Q 40.484375 56 46.34375 49.84375 
Q 52.203125 43.703125 52.203125 31.203125 
z
" id="DejaVuSans-97"/>
      <path d="M 32.171875 -5.078125 
Q 28.375 -14.84375 24.75 -17.8125 
Q 21.140625 -20.796875 15.09375 -20.796875 
L 7.90625 -20.796875 
L 7.90625 -13.28125 
L 13.1875 -13.28125 
Q 16.890625 -13.28125 18.9375 -11.515625 
Q 21 -9.765625 23.484375 -3.21875 
L 25.09375 0.875 
L 2.984375 54.6875 
L 12.5 54.6875 
L 29.59375 11.921875 
L 46.6875 54.6875 
L 56.203125 54.6875 
z
" id="DejaVuSans-121"/>
      <path d="M 9.421875 75.984375 
L 18.40625 75.984375 
L 18.40625 0 
L 9.421875 0 
z
" id="DejaVuSans-108"/>
      <path d="M 30.609375 48.390625 
Q 23.390625 48.390625 19.1875 42.75 
Q 14.984375 37.109375 14.984375 27.296875 
Q 14.984375 17.484375 19.15625 11.84375 
Q 23.34375 6.203125 30.609375 6.203125 
Q 37.796875 6.203125 41.984375 11.859375 
Q 46.1875 17.53125 46.1875 27.296875 
Q 46.1875 37.015625 41.984375 42.703125 
Q 37.796875 48.390625 30.609375 48.390625 
z
M 30.609375 56 
Q 42.328125 56 49.015625 48.375 
Q 55.71875 40.765625 55.71875 27.296875 
Q 55.71875 13.875 49.015625 6.21875 
Q 42.328125 -1.421875 30.609375 -1.421875 
Q 18.84375 -1.421875 12.171875 6.21875 
Q 5.515625 13.875 5.515625 27.296875 
Q 5.515625 40.765625 12.171875 48.375 
Q 18.84375 56 30.609375 56 
z
" id="DejaVuSans-111"/>
      <path d="M 45.40625 46.390625 
L 45.40625 75.984375 
L 54.390625 75.984375 
L 54.390625 0 
L 45.40625 0 
L 45.40625 8.203125 
Q 42.578125 3.328125 38.25 0.953125 
Q 33.9375 -1.421875 27.875 -1.421875 
Q 17.96875 -1.421875 11.734375 6.484375 
Q 5.515625 14.40625 5.515625 27.296875 
Q 5.515625 40.1875 11.734375 48.09375 
Q 17.96875 56 27.875 56 
Q 33.9375 56 38.25 53.625 
Q 42.578125 51.265625 45.40625 46.390625 
z
M 14.796875 27.296875 
Q 14.796875 17.390625 18.875 11.75 
Q 22.953125 6.109375 30.078125 6.109375 
Q 37.203125 6.109375 41.296875 11.75 
Q 45.40625 17.390625 45.40625 27.296875 
Q 45.40625 37.203125 41.296875 42.84375 
Q 37.203125 48.484375 30.078125 48.484375 
Q 22.953125 48.484375 18.875 42.84375 
Q 14.796875 37.203125 14.796875 27.296875 
z
" id="DejaVuSans-100"/>
      <path id="DejaVuSans-32"/>
      <path d="M 48.6875 27.296875 
Q 48.6875 37.203125 44.609375 42.84375 
Q 40.53125 48.484375 33.40625 48.484375 
Q 26.265625 48.484375 22.1875 42.84375 
Q 18.109375 37.203125 18.109375 27.296875 
Q 18.109375 17.390625 22.1875 11.75 
Q 26.265625 6.109375 33.40625 6.109375 
Q 40.53125 6.109375 44.609375 11.75 
Q 48.6875 17.390625 48.6875 27.296875 
z
M 18.109375 46.390625 
Q 20.953125 51.265625 25.265625 53.625 
Q 29.59375 56 35.59375 56 
Q 45.5625 56 51.78125 48.09375 
Q 58.015625 40.1875 58.015625 27.296875 
Q 58.015625 14.40625 51.78125 6.484375 
Q 45.5625 -1.421875 35.59375 -1.421875 
Q 29.59375 -1.421875 25.265625 0.953125 
Q 20.953125 3.328125 18.109375 8.203125 
L 18.109375 0 
L 9.078125 0 
L 9.078125 75.984375 
L 18.109375 75.984375 
z
" id="DejaVuSans-98"/>
      <path d="M 41.109375 46.296875 
Q 39.59375 47.171875 37.8125 47.578125 
Q 36.03125 48 33.890625 48 
Q 26.265625 48 22.1875 43.046875 
Q 18.109375 38.09375 18.109375 28.8125 
L 18.109375 0 
L 9.078125 0 
L 9.078125 54.6875 
L 18.109375 54.6875 
L 18.109375 46.1875 
Q 20.953125 51.171875 25.484375 53.578125 
Q 30.03125 56 36.53125 56 
Q 37.453125 56 38.578125 55.875 
Q 39.703125 55.765625 41.0625 55.515625 
z
" id="DejaVuSans-114"/>
      <path d="M 56.203125 29.59375 
L 56.203125 25.203125 
L 14.890625 25.203125 
Q 15.484375 15.921875 20.484375 11.0625 
Q 25.484375 6.203125 34.421875 6.203125 
Q 39.59375 6.203125 44.453125 7.46875 
Q 49.3125 8.734375 54.109375 11.28125 
L 54.109375 2.78125 
Q 49.265625 0.734375 44.1875 -0.34375 
Q 39.109375 -1.421875 33.890625 -1.421875 
Q 20.796875 -1.421875 13.15625 6.1875 
Q 5.515625 13.8125 5.515625 26.8125 
Q 5.515625 40.234375 12.765625 48.109375 
Q 20.015625 56 32.328125 56 
Q 43.359375 56 49.78125 48.890625 
Q 56.203125 41.796875 56.203125 29.59375 
z
M 47.21875 32.234375 
Q 47.125 39.59375 43.09375 43.984375 
Q 39.0625 48.390625 32.421875 48.390625 
Q 24.90625 48.390625 20.390625 44.140625 
Q 15.875 39.890625 15.1875 32.171875 
z
" id="DejaVuSans-101"/>
      <path d="M 18.3125 70.21875 
L 18.3125 54.6875 
L 36.8125 54.6875 
L 36.8125 47.703125 
L 18.3125 47.703125 
L 18.3125 18.015625 
Q 18.3125 11.328125 20.140625 9.421875 
Q 21.96875 7.515625 27.59375 7.515625 
L 36.8125 7.515625 
L 36.8125 0 
L 27.59375 0 
Q 17.1875 0 13.234375 3.875 
Q 9.28125 7.765625 9.28125 18.015625 
L 9.28125 47.703125 
L 2.6875 47.703125 
L 2.6875 54.6875 
L 9.28125 54.6875 
L 9.28125 70.21875 
z
" id="DejaVuSans-116"/>
      <path d="M 54.890625 33.015625 
L 54.890625 0 
L 45.90625 0 
L 45.90625 32.71875 
Q 45.90625 40.484375 42.875 44.328125 
Q 39.84375 48.1875 33.796875 48.1875 
Q 26.515625 48.1875 22.3125 43.546875 
Q 18.109375 38.921875 18.109375 30.90625 
L 18.109375 0 
L 9.078125 0 
L 9.078125 75.984375 
L 18.109375 75.984375 
L 18.109375 46.1875 
Q 21.34375 51.125 25.703125 53.5625 
Q 30.078125 56 35.796875 56 
Q 45.21875 56 50.046875 50.171875 
Q 54.890625 44.34375 54.890625 33.015625 
z
" id="DejaVuSans-104"/>
     </defs>
     <g transform="translate(241.454687 702.776563)scale(0.1 -0.1)">
      <use xlink:href="#DejaVuSans-112"/>
      <use x="63.476562" xlink:href="#DejaVuSans-97"/>
      <use x="124.755859" xlink:href="#DejaVuSans-121"/>
      <use x="183.935547" xlink:href="#DejaVuSans-108"/>
      <use x="211.71875" xlink:href="#DejaVuSans-111"/>
      <use x="272.900391" xlink:href="#DejaVuSans-97"/>
      <use x="334.179688" xlink:href="#DejaVuSans-100"/>
      <use x="397.65625" xlink:href="#DejaVuSans-32"/>
      <use x="429.443359" xlink:href="#DejaVuSans-98"/>
      <use x="492.919922" xlink:href="#DejaVuSans-114"/>
      <use x="534.001953" xlink:href="#DejaVuSans-101"/>
      <use x="595.525391" xlink:href="#DejaVuSans-97"/>
      <use x="656.804688" xlink:href="#DejaVuSans-100"/>
      <use x="720.28125" xlink:href="#DejaVuSans-116"/>
      <use x="759.490234" xlink:href="#DejaVuSans-104"/>
     </g>
    </g>
   </g>
   <g id="matplotlib.axis_2">
    <g id="ytick_1">
     <g id="line2d_7">
      <defs>
       <path d="M 0 0 
L -3.5 0 
" id="mef4340d554" style="stroke:#000000;stroke-width:0.8;"/>
      </defs>
      <g>
       <use style="stroke:#000000;stroke-width:0.8;" x="72" xlink:href="#mef4340d554" y="648"/>
      </g>
     </g>
     <g id="text_8">
      <!-- 1 -->
      <g transform="translate(32.1375 651.799219)scale(0.1 -0.1)">
       <use xlink:href="#DejaVuSans-49"/>
      </g>
     </g>
    </g>
    <g id="ytick_2">
     <g id="line2d_8">
      <g>
       <use style="stroke:#000000;stroke-width:0.8;" x="72" xlink:href="#mef4340d554" y="532.8"/>
      </g>
     </g>
     <g id="text_9">
      <!-- 2 -->
      <g transform="translate(32.1375 536.599219)scale(0.1 -0.1)">
       <use xlink:href="#DejaVuSans-50"/>
      </g>
     </g>
    </g>
    <g id="ytick_3">
     <g id="line2d_9">
      <g>
       <use style="stroke:#000000;stroke-width:0.8;" x="72" xlink:href="#mef4340d554" y="417.6"/>
      </g>
     </g>
     <g id="text_10">
      <!-- 3 -->
      <g transform="translate(32.1375 421.399219)scale(0.1 -0.1)">
       <use xlink:href="#DejaVuSans-51"/>
      </g>
     </g>
    </g>
    <g id="ytick_4">
     <g id="line2d_10">
      <g>
       <use style="stroke:#000000;stroke-width:0.8;" x="72" xlink:href="#mef4340d554" y="302.4"/>
      </g>
     </g>
     <g id="text_11">
      <!-- 4 -->
      <g transform="translate(32.1375 306.199219)scale(0.1 -0.1)">
       <use xlink:href="#DejaVuSans-52"/>
      </g>
     </g>
    </g>
    <g id="ytick_5">
     <g id="line2d_11">
      <g>
       <use style="stroke:#000000;stroke-width:0.8;" x="72" xlink:href="#mef4340d554" y="187.2"/>
      </g>
     </g>
     <g id="text_12">
      <!-- 5 -->
      <g transform="translate(32.1375 190.999219)scale(0.1 -0.1)">
       <use xlink:href="#DejaVuSans-53"/>
      </g>
     </g>
    </g>
    <g id="ytick_6">
     <g id="line2d_12">
      <g>
       <use style="stroke:#000000;stroke-width:0.8;" x="72" xlink:href="#mef4340d554" y="72"/>
      </g>
     </g>
     <g id="text_13">
      <!-- 6 -->
      <g transform="translate(32.1375 75.799219)scale(0.1 -0.1)">
       <use xlink:href="#DejaVuSans-54"/>
      </g>
     </g>
    </g>
    <g id="text_14">
     <!-- payload depth -->
     <g transform="translate(26.057813 396.027344)rotate(-90)scale(0.1 -0.1)">
      <use xlink:href="#DejaVuSans-112"/>
      <use x="63.476562" xlink:href="#DejaVuSans-97"/>
      <use x="124.755859" xlink:href="#DejaVuSans-121"/>
      <use x="183.935547" xlink:href="#DejaVuSans-108"/>
      <use x="211.71875" xlink:href="#DejaVuSans-111"/>
      <use x="272.900391" xlink:href="#DejaVuSans-97"/>
      <use x="334.179688" xlink:href="#DejaVuSans-100"/>
      <use x="397.65625" xlink:href="#DejaVuSans-32"/>
      <use x="429.443359" xlink:href="#DejaVuSans-100"/>
      <use x="492.919922" xlink:href="#DejaVuSans-101"/>
      <use x="554.443359" xlink:href="#DejaVuSans-112"/>
      <use x="617.919922" xlink:href="#DejaVuSans-116"/>
      <use x="657.128906" xlink:href="#DejaVuSans-104"/>
     </g>
    </g>
   </g>
   <g id="patch_3">
    <path d="M 72 648 
L 72 72 
" style="fill:none;stroke:#000000;stroke-linecap:square;stroke-linejoin:miter;stroke-width:0.8;"/>
   </g>
   <g id="patch_4">
    <path d="M 493.2 648 
L 493.2 72 
" style="fill:none;stroke:#000000;stroke-linecap:square;stroke-linejoin:miter;stroke-width:0.8;"/>
   </g>
   <g id="patch_5">
    <path d="M 72 648 
L 493.2 648 
" style="fill:none;stroke:#000000;stroke-linecap:square;stroke-linejoin:miter;stroke-width:0.8;"/>
   </g>
   <g id="patch_6">
    <path d="M 72 72 
L 493.2 72 
" style="fill:none;stroke:#000000;stroke-linecap:square;stroke-linejoin:miter;stroke-width:0.8;"/>
   </g>
   <g id="text_15">
    <!-- imac-firefox -->
    <defs>
     <path d="M 9.421875 54.6875 
L 18.40625 54.6875 
L 18.40625 0 
L 9.421875 0 
z
M 9.421875 75.984375 
L 18.40625 75.984375 
L 18.40625 64.59375 
L 9.421875 64.59375 
z
" id="DejaVuSans-105"/>
     <path d="M 52 44.1875 
Q 55.375 50.25 60.0625 53.125 
Q 64.75 56 71.09375 56 
Q 79.640625 56 84.28125 50.015625 
Q 88.921875 44.046875 88.921875 33.015625 
L 88.921875 0 
L 79.890625 0 
L 79.890625 32.71875 
Q 79.890625 40.578125 77.09375 44.375 
Q 74.3125 48.1875 68.609375 48.1875 
Q 61.625 48.1875 57.5625 43.546875 
Q 53.515625 38.921875 53.515625 30.90625 
L 53.515625 0 
L 44.484375 0 
L 44.484375 32.71875 
Q 44.484375 40.625 41.703125 44.40625 
Q 38.921875 48.1875 33.109375 48.1875 
Q 26.21875 48.1875 22.15625 43.53125 
Q 18.109375 38.875 18.109375 30.90625 
L 18.109375 0 
L 9.078125 0 
L 9.078125 54.6875 
L 18.109375 54.6875 
L 18.109375 46.1875 
Q 21.1875 51.21875 25.484375 53.609375 
Q 29.78125 56 35.6875 56 
Q 41.65625 56 45.828125 52.96875 
Q 50 49.953125 52 44.1875 
z
" id="DejaVuSans-109"/>
     <path d="M 48.78125 52.59375 
L 48.78125 44.1875 
Q 44.96875 46.296875 41.140625 47.34375 
Q 37.3125 48.390625 33.40625 48.390625 
Q 24.65625 48.390625 19.8125 42.84375 
Q 14.984375 37.3125 14.984375 27.296875 
Q 14.984375 17.28125 19.8125 11.734375 
Q 24.65625 6.203125 33.40625 6.203125 
Q 37.3125 6.203125 41.140625 7.25 
Q 44.96875 8.296875 48.78125 10.40625 
L 48.78125 2.09375 
Q 45.015625 0.34375 40.984375 -0.53125 
Q 36.96875 -1.421875 32.421875 -1.421875 
Q 20.0625 -1.421875 12.78125 6.34375 
Q 5.515625 14.109375 5.515625 27.296875 
Q 5.515625 40.671875 12.859375 48.328125 
Q 20.21875 56 33.015625 56 
Q 37.15625 56 41.109375 55.140625 
Q 45.0625 54.296875 48.78125 52.59375 
z
" id="DejaVuSans-99"/>
     <path d="M 4.890625 31.390625 
L 31.203125 31.390625 
L 31.203125 23.390625 
L 4.890625 23.390625 
z
" id="DejaVuSans-45"/>
     <path d="M 37.109375 75.984375 
L 37.109375 68.5 
L 28.515625 68.5 
Q 23.6875 68.5 21.796875 66.546875 
Q 19.921875 64.59375 19.921875 59.515625 
L 19.921875 54.6875 
L 34.71875 54.6875 
L 34.71875 47.703125 
L 19.921875 47.703125 
L 19.921875 0 
L 10.890625 0 
L 10.890625 47.703125 
L 2.296875 47.703125 
L 2.296875 54.6875 
L 10.890625 54.6875 
L 10.890625 58.5 
Q 10.890625 67.625 15.140625 71.796875 
Q 19.390625 75.984375 28.609375 75.984375 
z
" id="DejaVuSans-102"/>
     <path d="M 54.890625 54.6875 
L 35.109375 28.078125 
L 55.90625 0 
L 45.3125 0 
L 29.390625 21.484375 
L 13.484375 0 
L 2.875 0 
L 24.125 28.609375 
L 4.6875 54.6875 
L 15.28125 54.6875 
L 29.78125 35.203125 
L 44.28125 54.6875 
z
" id="DejaVuSans-120"/>
    </defs>
    <g transform="translate(246.680625 22)scale(0.12 -0.12)">
     <use xlink:href="#DejaVuSans-105"/>
     <use x="27.783203" xlink:href="#DejaVuSans-109"/>
     <use x="125.195312" xlink:href="#DejaVuSans-97"/>
     <use x="186.474609" xlink:href="#DejaVuSans-99"/>
     <use x="241.455078" xlink:href="#DejaVuSans-45"/>
     <use x="277.539062" xlink:href="#DejaVuSans-102"/>
     <use x="312.744141" xlink:href="#DejaVuSans-105"/>
     <use x="340.527344" xlink:href="#DejaVuSans-114"/>
     <use x="381.609375" xlink:href="#DejaVuSans-101"/>
     <use x="443.132812" xlink:href="#DejaVuSans-102"/>
     <use x="478.337891" xlink:href="#DejaVuSans-111"/>
     <use x="539.472656" xlink:href="#DejaVuSans-120"/>
    </g>
   </g>
   <g id="PathCollection_7">
    <path d="M 72 663.697284 
C 76.162968 663.697284 80.155993 662.043319 83.099656 659.099656 
C 86.043319 656.155993 87.697284 652.162968 87.697284 648 
C 87.697284 643.837032 86.043319 639.844007 83.099656 636.900344 
C 80.155993 633.956681 76.162968 632.302716 72 632.302716 
C 67.837032 632.302716 63.844007 633.956681 60.900344 636.900344 
C 57.956681 639.844007 56.302716 643.837032 56.302716 648 
C 56.302716 652.162968 57.956681 656.155993 60.900344 659.099656 
C 63.844007 662.043319 67.837032 663.697284 72 663.697284 
z
" style="fill:#fcc1a8;fill-opacity:0.8;stroke:#fcc1a8;stroke-opacity:0.8;"/>
    <path d="M 72 550.223446 
C 76.620752 550.223446 81.052872 548.387602 84.320237 545.120237 
C 87.587602 541.852872 89.423446 537.420752 89.423446 532.8 
C 89.423446 528.179248 87.587602 523.747128 84.320237 520.479763 
C 81.052872 517.212398 76.620752 515.376554 72 515.376554 
C 67.379248 515.376554 62.947128 517.212398 59.679763 520.479763 
C 56.412398 523.747128 54.576554 528.179248 54.576554 532.8 
C 54.576554 537.420752 56.412398 541.852872 59.679763 545.120237 
C 62.947128 548.387602 67.379248 550.223446 72 550.223446 
z
" style="fill:#fcaf93;fill-opacity:0.8;stroke:#fcaf93;stroke-opacity:0.8;"/>
    <path d="M 72 435.023446 
C 76.620752 435.023446 81.052872 433.187602 84.320237 429.920237 
C 87.587602 426.652872 89.423446 422.220752 89.423446 417.6 
C 89.423446 412.979248 87.587602 408.547128 84.320237 405.279763 
C 81.052872 402.012398 76.620752 400.176554 72 400.176554 
C 67.379248 400.176554 62.947128 402.012398 59.679763 405.279763 
C 56.412398 408.547128 54.576554 412.979248 54.576554 417.6 
C 54.576554 422.220752 56.412398 426.652872 59.679763 429.920237 
C 62.947128 433.187602 67.379248 435.023446 72 435.023446 
z
" style="fill:#fcaf93;fill-opacity:0.8;stroke:#fcaf93;stroke-opacity:0.8;"/>
    <path d="M 72 318.097284 
C 76.162968 318.097284 80.155993 316.443319 83.099656 313.499656 
C 86.043319 310.555993 87.697284 306.562968 87.697284 302.4 
C 87.697284 298.237032 86.043319 294.244007 83.099656 291.300344 
C 80.155993 288.356681 76.162968 286.702716 72 286.702716 
C 67.837032 286.702716 63.844007 288.356681 60.900344 291.300344 
C 57.956681 294.244007 56.302716 298.237032 56.302716 302.4 
C 56.302716 306.562968 57.956681 310.555993 60.900344 313.499656 
C 63.844007 316.443319 67.837032 318.097284 72 318.097284 
z
" style="fill:#fcc1a8;fill-opacity:0.8;stroke:#fcc1a8;stroke-opacity:0.8;"/>
    <path d="M 72 204.623446 
C 76.620752 204.623446 81.052872 202.787602 84.320237 199.520237 
C 87.587602 196.252872 89.423446 191.820752 89.423446 187.2 
C 89.423446 182.579248 87.587602 178.147128 84.320237 174.879763 
C 81.052872 171.612398 76.620752 169.776554 72 169.776554 
C 67.379248 169.776554 62.947128 171.612398 59.679763 174.879763 
C 56.412398 178.147128 54.576554 182.579248 54.576554 187.2 
C 54.576554 191.820752 56.412398 196.252872 59.679763 199.520237 
C 62.947128 202.787602 67.379248 204.623446 72 204.623446 
z
" style="fill:#fcaf93;fill-opacity:0.8;stroke:#fcaf93;stroke-opacity:0.8;"/>
    <path d="M 72 89.423446 
C 76.620752 89.423446 81.052872 87.587602 84.320237 84.320237 
C 87.587602 81.052872 89.423446 76.620752 89.423446 72 
C 89.423446 67.379248 87.587602 62.947128 84.320237 59.679763 
C 81.052872 56.412398 76.620752 54.576554 72 54.576554 
C 67.379248 54.576554 62.947128 56.412398 59.679763 59.679763 
C 56.412398 62.947128 54.576554 67.379248 54.576554 72 
C 54.576554 76.620752 56.412398 81.052872 59.679763 84.320237 
C 62.947128 87.587602 67.379248 89.423446 72 89.423446 
z
" style="fill:#fcaf93;fill-opacity:0.8;stroke:#fcaf93;stroke-opacity:0.8;"/>
    <path d="M 156.24 665.423446 
C 160.860752 665.423446 165.292872 663.587602 168.560237 660.320237 
C 171.827602 657.052872 173.663446 652.620752 173.663446 648 
C 173.663446 643.379248 171.827602 638.947128 168.560237 635.679763 
C 165.292872 632.412398 160.860752 630.576554 156.24 630.576554 
C 151.619248 630.576554 147.187128 632.412398 143.919763 635.679763 
C 140.652398 638.947128 138.816554 643.379248 138.816554 648 
C 138.816554 652.620752 140.652398 657.052872 143.919763 660.320237 
C 147.187128 663.587602 151.619248 665.423446 156.24 665.423446 
z
" style="fill:#fcaf93;fill-opacity:0.8;stroke:#fcaf93;stroke-opacity:0.8;"/>
    <path d="M 156.24 550.223446 
C 160.860752 550.223446 165.292872 548.387602 168.560237 545.120237 
C 171.827602 541.852872 173.663446 537.420752 173.663446 532.8 
C 173.663446 528.179248 171.827602 523.747128 168.560237 520.479763 
C 165.292872 517.212398 160.860752 515.376554 156.24 515.376554 
C 151.619248 515.376554 147.187128 517.212398 143.919763 520.479763 
C 140.652398 523.747128 138.816554 528.179248 138.816554 532.8 
C 138.816554 537.420752 140.652398 541.852872 143.919763 545.120237 
C 147.187128 548.387602 151.619248 550.223446 156.24 550.223446 
z
" style="fill:#fcaf93;fill-opacity:0.8;stroke:#fcaf93;stroke-opacity:0.8;"/>
    <path d="M 156.24 435.023446 
C 160.860752 435.023446 165.292872 433.187602 168.560237 429.920237 
C 171.827602 426.652872 173.663446 422.220752 173.663446 417.6 
C 173.663446 412.979248 171.827602 408.547128 168.560237 405.279763 
C 165.292872 402.012398 160.860752 400.176554 156.24 400.176554 
C 151.619248 400.176554 147.187128 402.012398 143.919763 405.279763 
C 140.652398 408.547128 138.816554 412.979248 138.816554 417.6 
C 138.816554 422.220752 140.652398 426.652872 143.919763 429.920237 
C 147.187128 433.187602 151.619248 435.023446 156.24 435.023446 
z
" style="fill:#fcaf93;fill-opacity:0.8;stroke:#fcaf93;stroke-opacity:0.8;"/>
    <path d="M 156.24 320.919891 
C 161.151533 320.919891 165.862563 318.968519 169.335541 315.495541 
C 172.808519 312.022563 174.759891 307.311533 174.759891 302.4 
C 174.759891 297.488467 172.808519 292.777437 169.335541 289.304459 
C 165.862563 285.831481 161.151533 283.880109 156.24 283.880109 
C 151.328467 283.880109 146.617437 285.831481 143.144459 289.304459 
C 139.671481 292.777437 137.720109 297.488467 137.720109 302.4 
C 137.720109 307.311533 139.671481 312.022563 143.144459 315.495541 
C 146.617437 318.968519 151.328467 320.919891 156.24 320.919891 
z
" style="fill:#fca588;fill-opacity:0.8;stroke:#fca588;stroke-opacity:0.8;"/>
    <path d="M 156.24 206.539426 
C 161.368876 206.539426 166.288377 204.501702 169.915039 200.875039 
C 173.541702 197.248377 175.579426 192.328876 175.579426 187.2 
C 175.579426 182.071124 173.541702 177.151623 169.915039 173.524961 
C 166.288377 169.898298 161.368876 167.860574 156.24 167.860574 
C 151.111124 167.860574 146.191623 169.898298 142.564961 173.524961 
C 138.938298 177.151623 136.900574 182.071124 136.900574 187.2 
C 136.900574 192.328876 138.938298 197.248377 142.564961 200.875039 
C 146.191623 204.501702 151.111124 206.539426 156.24 206.539426 
z
" style="fill:#fc9e80;fill-opacity:0.8;stroke:#fc9e80;stroke-opacity:0.8;"/>
    <path d="M 156.24 93.038969 
C 161.8196 93.038969 167.171425 90.822171 171.116798 86.876798 
C 175.062171 82.931425 177.278969 77.5796 177.278969 72 
C 177.278969 66.4204 175.062171 61.068575 171.116798 57.123202 
C 167.171425 53.177829 161.8196 50.961031 156.24 50.961031 
C 150.6604 50.961031 145.308575 53.177829 141.363202 57.123202 
C 137.417829 61.068575 135.201031 66.4204 135.201031 72 
C 135.201031 77.5796 137.417829 82.931425 141.363202 86.876798 
C 145.308575 90.822171 150.6604 93.038969 156.24 93.038969 
z
" style="fill:#fc9070;fill-opacity:0.8;stroke:#fc9070;stroke-opacity:0.8;"/>
    <path d="M 240.48 663.697284 
C 244.642968 663.697284 248.635993 662.043319 251.579656 659.099656 
C 254.523319 656.155993 256.177284 652.162968 256.177284 648 
C 256.177284 643.837032 254.523319 639.844007 251.579656 636.900344 
C 248.635993 633.956681 244.642968 632.302716 240.48 632.302716 
C 236.317032 632.302716 232.324007 633.956681 229.380344 636.900344 
C 226.436681 639.844007 224.782716 643.837032 224.782716 648 
C 224.782716 652.162968 226.436681 656.155993 229.380344 659.099656 
C 232.324007 662.043319 236.317032 663.697284 240.48 663.697284 
z
" style="fill:#fcc1a8;fill-opacity:0.8;stroke:#fcc1a8;stroke-opacity:0.8;"/>
    <path d="M 240.48 550.223446 
C 245.100752 550.223446 249.532872 548.387602 252.800237 545.120237 
C 256.067602 541.852872 257.903446 537.420752 257.903446 532.8 
C 257.903446 528.179248 256.067602 523.747128 252.800237 520.479763 
C 249.532872 517.212398 245.100752 515.376554 240.48 515.376554 
C 235.859248 515.376554 231.427128 517.212398 228.159763 520.479763 
C 224.892398 523.747128 223.056554 528.179248 223.056554 532.8 
C 223.056554 537.420752 224.892398 541.852872 228.159763 545.120237 
C 231.427128 548.387602 235.859248 550.223446 240.48 550.223446 
z
" style="fill:#fcaf93;fill-opacity:0.8;stroke:#fcaf93;stroke-opacity:0.8;"/>
    <path d="M 240.48 436.119891 
C 245.391533 436.119891 250.102563 434.168519 253.575541 430.695541 
C 257.048519 427.222563 258.999891 422.511533 258.999891 417.6 
C 258.999891 412.688467 257.048519 407.977437 253.575541 404.504459 
C 250.102563 401.031481 245.391533 399.080109 240.48 399.080109 
C 235.568467 399.080109 230.857437 401.031481 227.384459 404.504459 
C 223.911481 407.977437 221.960109 412.688467 221.960109 417.6 
C 221.960109 422.511533 223.911481 427.222563 227.384459 430.695541 
C 230.857437 434.168519 235.568467 436.119891 240.48 436.119891 
z
" style="fill:#fca588;fill-opacity:0.8;stroke:#fca588;stroke-opacity:0.8;"/>
    <path d="M 240.48 322.956443 
C 245.931632 322.956443 251.160714 320.790486 255.0156 316.9356 
C 258.870486 313.080714 261.036443 307.851632 261.036443 302.4 
C 261.036443 296.948368 258.870486 291.719286 255.0156 287.8644 
C 251.160714 284.009514 245.931632 281.843557 240.48 281.843557 
C 235.028368 281.843557 229.799286 284.009514 225.9444 287.8644 
C 222.089514 291.719286 219.923557 296.948368 219.923557 302.4 
C 219.923557 307.851632 222.089514 313.080714 225.9444 316.9356 
C 229.799286 320.790486 235.028368 322.956443 240.48 322.956443 
z
" style="fill:#fc9474;fill-opacity:0.8;stroke:#fc9474;stroke-opacity:0.8;"/>
    <path d="M 240.48 210.552533 
C 246.673164 210.552533 252.613506 208.091962 256.992734 203.712734 
C 261.371962 199.333506 263.832533 193.393164 263.832533 187.2 
C 263.832533 181.006836 261.371962 175.066494 256.992734 170.687266 
C 252.613506 166.308038 246.673164 163.847467 240.48 163.847467 
C 234.286836 163.847467 228.346494 166.308038 223.967266 170.687266 
C 219.588038 175.066494 217.127467 181.006836 217.127467 187.2 
C 217.127467 193.393164 219.588038 199.333506 223.967266 203.712734 
C 228.346494 208.091962 234.286836 210.552533 240.48 210.552533 
z
" style="fill:#fc7f5f;fill-opacity:0.8;stroke:#fc7f5f;stroke-opacity:0.8;"/>
    <path d="M 240.48 99.246054 
C 247.705738 99.246054 254.636501 96.375238 259.74587 91.26587 
C 264.855238 86.156501 267.726054 79.225738 267.726054 72 
C 267.726054 64.774262 264.855238 57.843499 259.74587 52.73413 
C 254.636501 47.624762 247.705738 44.753946 240.48 44.753946 
C 233.254262 44.753946 226.323499 47.624762 221.21413 52.73413 
C 216.104762 57.843499 213.233946 64.774262 213.233946 72 
C 213.233946 79.225738 216.104762 86.156501 221.21413 91.26587 
C 226.323499 96.375238 233.254262 99.246054 240.48 99.246054 
z
" style="fill:#fa6547;fill-opacity:0.8;stroke:#fa6547;stroke-opacity:0.8;"/>
    <path d="M 324.72 665.423446 
C 329.340752 665.423446 333.772872 663.587602 337.040237 660.320237 
C 340.307602 657.052872 342.143446 652.620752 342.143446 648 
C 342.143446 643.379248 340.307602 638.947128 337.040237 635.679763 
C 333.772872 632.412398 329.340752 630.576554 324.72 630.576554 
C 320.099248 630.576554 315.667128 632.412398 312.399763 635.679763 
C 309.132398 638.947128 307.296554 643.379248 307.296554 648 
C 307.296554 652.620752 309.132398 657.052872 312.399763 660.320237 
C 315.667128 663.587602 320.099248 665.423446 324.72 665.423446 
z
" style="fill:#fcaf93;fill-opacity:0.8;stroke:#fcaf93;stroke-opacity:0.8;"/>
    <path d="M 324.72 550.223446 
C 329.340752 550.223446 333.772872 548.387602 337.040237 545.120237 
C 340.307602 541.852872 342.143446 537.420752 342.143446 532.8 
C 342.143446 528.179248 340.307602 523.747128 337.040237 520.479763 
C 333.772872 517.212398 329.340752 515.376554 324.72 515.376554 
C 320.099248 515.376554 315.667128 517.212398 312.399763 520.479763 
C 309.132398 523.747128 307.296554 528.179248 307.296554 532.8 
C 307.296554 537.420752 309.132398 541.852872 312.399763 545.120237 
C 315.667128 548.387602 320.099248 550.223446 324.72 550.223446 
z
" style="fill:#fcaf93;fill-opacity:0.8;stroke:#fcaf93;stroke-opacity:0.8;"/>
    <path d="M 324.72 437.6 
C 330.024062 437.6 335.111597 435.492674 338.862136 431.742136 
C 342.612674 427.991597 344.72 422.904062 344.72 417.6 
C 344.72 412.295938 342.612674 407.208403 338.862136 403.457864 
C 335.111597 399.707326 330.024062 397.6 324.72 397.6 
C 319.415938 397.6 314.328403 399.707326 310.577864 403.457864 
C 306.827326 407.208403 304.72 412.295938 304.72 417.6 
C 304.72 422.904062 306.827326 427.991597 310.577864 431.742136 
C 314.328403 435.492674 319.415938 437.6 324.72 437.6 
z
" style="fill:#fc9879;fill-opacity:0.8;stroke:#fc9879;stroke-opacity:0.8;"/>
    <path d="M 324.72 325.752533 
C 330.913164 325.752533 336.853506 323.291962 341.232734 318.912734 
C 345.611962 314.533506 348.072533 308.593164 348.072533 302.4 
C 348.072533 296.206836 345.611962 290.266494 341.232734 285.887266 
C 336.853506 281.508038 330.913164 279.047467 324.72 279.047467 
C 318.526836 279.047467 312.586494 281.508038 308.207266 285.887266 
C 303.828038 290.266494 301.367467 296.206836 301.367467 302.4 
C 301.367467 308.593164 303.828038 314.533506 308.207266 318.912734 
C 312.586494 323.291962 318.526836 325.752533 324.72 325.752533 
z
" style="fill:#fc7f5f;fill-opacity:0.8;stroke:#fc7f5f;stroke-opacity:0.8;"/>
    <path d="M 324.72 215.039268 
C 332.10306 215.039268 339.184723 212.105947 344.405335 206.885335 
C 349.625947 201.664723 352.559268 194.58306 352.559268 187.2 
C 352.559268 179.81694 349.625947 172.735277 344.405335 167.514665 
C 339.184723 162.294053 332.10306 159.360732 324.72 159.360732 
C 317.33694 159.360732 310.255277 162.294053 305.034665 167.514665 
C 299.814053 172.735277 296.880732 179.81694 296.880732 187.2 
C 296.880732 194.58306 299.814053 201.664723 305.034665 206.885335 
C 310.255277 212.105947 317.33694 215.039268 324.72 215.039268 
z
" style="fill:#f96044;fill-opacity:0.8;stroke:#f96044;stroke-opacity:0.8;"/>
    <path d="M 324.72 106.19714 
C 333.789187 106.19714 342.488145 102.593913 348.901029 96.181029 
C 355.313913 89.768145 358.91714 81.069187 358.91714 72 
C 358.91714 62.930813 355.313913 54.231855 348.901029 47.818971 
C 342.488145 41.406087 333.789187 37.80286 324.72 37.80286 
C 315.650813 37.80286 306.951855 41.406087 300.538971 47.818971 
C 294.126087 54.231855 290.52286 62.930813 290.52286 72 
C 290.52286 81.069187 294.126087 89.768145 300.538971 96.181029 
C 306.951855 102.593913 315.650813 106.19714 324.72 106.19714 
z
" style="fill:#ed392b;fill-opacity:0.8;stroke:#ed392b;stroke-opacity:0.8;"/>
    <path d="M 408.96 665.423446 
C 413.580752 665.423446 418.012872 663.587602 421.280237 660.320237 
C 424.547602 657.052872 426.383446 652.620752 426.383446 648 
C 426.383446 643.379248 424.547602 638.947128 421.280237 635.679763 
C 418.012872 632.412398 413.580752 630.576554 408.96 630.576554 
C 404.339248 630.576554 399.907128 632.412398 396.639763 635.679763 
C 393.372398 638.947128 391.536554 643.379248 391.536554 648 
C 391.536554 652.620752 393.372398 657.052872 396.639763 660.320237 
C 399.907128 663.587602 404.339248 665.423446 408.96 665.423446 
z
" style="fill:#fcaf93;fill-opacity:0.8;stroke:#fcaf93;stroke-opacity:0.8;"/>
    <path d="M 408.96 551.319891 
C 413.871533 551.319891 418.582563 549.368519 422.055541 545.895541 
C 425.528519 542.422563 427.479891 537.711533 427.479891 532.8 
C 427.479891 527.888467 425.528519 523.177437 422.055541 519.704459 
C 418.582563 516.231481 413.871533 514.280109 408.96 514.280109 
C 404.048467 514.280109 399.337437 516.231481 395.864459 519.704459 
C 392.391481 523.177437 390.440109 527.888467 390.440109 532.8 
C 390.440109 537.711533 392.391481 542.422563 395.864459 545.895541 
C 399.337437 549.368519 404.048467 551.319891 408.96 551.319891 
z
" style="fill:#fca588;fill-opacity:0.8;stroke:#fca588;stroke-opacity:0.8;"/>
    <path d="M 408.96 438.638969 
C 414.5396 438.638969 419.891425 436.422171 423.836798 432.476798 
C 427.782171 428.531425 429.998969 423.1796 429.998969 417.6 
C 429.998969 412.0204 427.782171 406.668575 423.836798 402.723202 
C 419.891425 398.777829 414.5396 396.561031 408.96 396.561031 
C 403.3804 396.561031 398.028575 398.777829 394.083202 402.723202 
C 390.137829 406.668575 387.921031 412.0204 387.921031 417.6 
C 387.921031 423.1796 390.137829 428.531425 394.083202 432.476798 
C 398.028575 436.422171 403.3804 438.638969 408.96 438.638969 
z
" style="fill:#fc9070;fill-opacity:0.8;stroke:#fc9070;stroke-opacity:0.8;"/>
    <path d="M 408.96 328.320508 
C 415.834199 328.320508 422.427774 325.58936 427.288567 320.728567 
C 432.14936 315.867774 434.880508 309.274199 434.880508 302.4 
C 434.880508 295.525801 432.14936 288.932226 427.288567 284.071433 
C 422.427774 279.21064 415.834199 276.479492 408.96 276.479492 
C 402.085801 276.479492 395.492226 279.21064 390.631433 284.071433 
C 385.77064 288.932226 383.039492 295.525801 383.039492 302.4 
C 383.039492 309.274199 385.77064 315.867774 390.631433 320.728567 
C 395.492226 325.58936 402.085801 328.320508 408.96 328.320508 
z
" style="fill:#fb6d4d;fill-opacity:0.8;stroke:#fb6d4d;stroke-opacity:0.8;"/>
    <path d="M 408.96 219.627681 
C 417.559921 219.627681 425.80877 216.210896 431.889833 210.129833 
C 437.970896 204.04877 441.387681 195.799921 441.387681 187.2 
C 441.387681 178.600079 437.970896 170.35123 431.889833 164.270167 
C 425.80877 158.189104 417.559921 154.772319 408.96 154.772319 
C 400.360079 154.772319 392.11123 158.189104 386.030167 164.270167 
C 379.949104 170.35123 376.532319 178.600079 376.532319 187.2 
C 376.532319 195.799921 379.949104 204.04877 386.030167 210.129833 
C 392.11123 216.210896 400.360079 219.627681 408.96 219.627681 
z
" style="fill:#f14331;fill-opacity:0.8;stroke:#f14331;stroke-opacity:0.8;"/>
    <path d="M 408.96 113.533703 
C 419.974867 113.533703 430.540076 109.15745 438.328763 101.368763 
C 446.11745 93.580076 450.493703 83.014867 450.493703 72 
C 450.493703 60.985133 446.11745 50.419924 438.328763 42.631237 
C 430.540076 34.84255 419.974867 30.466297 408.96 30.466297 
C 397.945133 30.466297 387.379924 34.84255 379.591237 42.631237 
C 371.80255 50.419924 367.426297 60.985133 367.426297 72 
C 367.426297 83.014867 371.80255 93.580076 379.591237 101.368763 
C 387.379924 109.15745 397.945133 113.533703 408.96 113.533703 
z
" style="fill:#d01d1f;fill-opacity:0.8;stroke:#d01d1f;stroke-opacity:0.8;"/>
    <path d="M 493.2 665.423446 
C 497.820752 665.423446 502.252872 663.587602 505.520237 660.320237 
C 508.787602 657.052872 510.623446 652.620752 510.623446 648 
C 510.623446 643.379248 508.787602 638.947128 505.520237 635.679763 
C 502.252872 632.412398 497.820752 630.576554 493.2 630.576554 
C 488.579248 630.576554 484.147128 632.412398 480.879763 635.679763 
C 477.612398 638.947128 475.776554 643.379248 475.776554 648 
C 475.776554 652.620752 477.612398 657.052872 480.879763 660.320237 
C 484.147128 663.587602 488.579248 665.423446 493.2 665.423446 
z
" style="fill:#fcaf93;fill-opacity:0.8;stroke:#fcaf93;stroke-opacity:0.8;"/>
    <path d="M 493.2 551.319891 
C 498.111533 551.319891 502.822563 549.368519 506.295541 545.895541 
C 509.768519 542.422563 511.719891 537.711533 511.719891 532.8 
C 511.719891 527.888467 509.768519 523.177437 506.295541 519.704459 
C 502.822563 516.231481 498.111533 514.280109 493.2 514.280109 
C 488.288467 514.280109 483.577437 516.231481 480.104459 519.704459 
C 476.631481 523.177437 474.680109 527.888467 474.680109 532.8 
C 474.680109 537.711533 476.631481 542.422563 480.104459 545.895541 
C 483.577437 549.368519 488.288467 551.319891 493.2 551.319891 
z
" style="fill:#fca588;fill-opacity:0.8;stroke:#fca588;stroke-opacity:0.8;"/>
    <path d="M 493.2 439.799313 
C 499.087326 439.799313 504.734316 437.460253 508.897284 433.297284 
C 513.060253 429.134316 515.399313 423.487326 515.399313 417.6 
C 515.399313 411.712674 513.060253 406.065684 508.897284 401.902716 
C 504.734316 397.739747 499.087326 395.400687 493.2 395.400687 
C 487.312674 395.400687 481.665684 397.739747 477.502716 401.902716 
C 473.339747 406.065684 471.000687 411.712674 471.000687 417.6 
C 471.000687 423.487326 473.339747 429.134316 477.502716 433.297284 
C 481.665684 437.460253 487.312674 439.799313 493.2 439.799313 
z
" style="fill:#fc8767;fill-opacity:0.8;stroke:#fc8767;stroke-opacity:0.8;"/>
    <path d="M 493.2 330.640701 
C 500.689522 330.640701 507.8733 327.665083 513.169191 322.369191 
C 518.465083 317.0733 521.440701 309.889522 521.440701 302.4 
C 521.440701 294.910478 518.465083 287.7267 513.169191 282.430809 
C 507.8733 277.134917 500.689522 274.159299 493.2 274.159299 
C 485.710478 274.159299 478.5267 277.134917 473.230809 282.430809 
C 467.934917 287.7267 464.959299 294.910478 464.959299 302.4 
C 464.959299 309.889522 467.934917 317.0733 473.230809 322.369191 
C 478.5267 327.665083 485.710478 330.640701 493.2 330.640701 
z
" style="fill:#f85d42;fill-opacity:0.8;stroke:#f85d42;stroke-opacity:0.8;"/>
    <path d="M 493.2 223.954921 
C 502.947519 223.954921 512.297117 220.082191 519.189654 213.189654 
C 526.082191 206.297117 529.954921 196.947519 529.954921 187.2 
C 529.954921 177.452481 526.082191 168.102883 519.189654 161.210346 
C 512.297117 154.317809 502.947519 150.445079 493.2 150.445079 
C 483.452481 150.445079 474.102883 154.317809 467.210346 161.210346 
C 460.317809 168.102883 456.445079 177.452481 456.445079 187.2 
C 456.445079 196.947519 460.317809 206.297117 467.210346 213.189654 
C 474.102883 220.082191 483.452481 223.954921 493.2 223.954921 
z
" style="fill:#e22e27;fill-opacity:0.8;stroke:#e22e27;stroke-opacity:0.8;"/>
    <path d="M 493.2 120.849376 
C 506.155006 120.849376 518.581152 115.702297 527.741725 106.541725 
C 536.902297 97.381152 542.049376 84.955006 542.049376 72 
C 542.049376 59.044994 536.902297 46.618848 527.741725 37.458275 
C 518.581152 28.297703 506.155006 23.150624 493.2 23.150624 
C 480.244994 23.150624 467.818848 28.297703 458.658275 37.458275 
C 449.497703 46.618848 444.350624 59.044994 444.350624 72 
C 444.350624 84.955006 449.497703 97.381152 458.658275 106.541725 
C 467.818848 115.702297 480.244994 120.849376 493.2 120.849376 
z
" style="fill:#b71319;fill-opacity:0.8;stroke:#b71319;stroke-opacity:0.8;"/>
   </g>
   <g id="text_16">
    <!--  20µs -->
    <defs>
     <path id="DejaVuSans-Bold-32"/>
     <path d="M 28.8125 13.8125 
L 60.890625 13.8125 
L 60.890625 0 
L 7.90625 0 
L 7.90625 13.8125 
L 34.515625 37.3125 
Q 38.09375 40.53125 39.796875 43.609375 
Q 41.5 46.6875 41.5 50 
Q 41.5 55.125 38.0625 58.25 
Q 34.625 61.375 28.90625 61.375 
Q 24.515625 61.375 19.28125 59.5 
Q 14.0625 57.625 8.109375 53.90625 
L 8.109375 69.921875 
Q 14.453125 72.015625 20.65625 73.109375 
Q 26.859375 74.21875 32.8125 74.21875 
Q 45.90625 74.21875 53.15625 68.453125 
Q 60.40625 62.703125 60.40625 52.390625 
Q 60.40625 46.4375 57.328125 41.28125 
Q 54.25 36.140625 44.390625 27.484375 
z
" id="DejaVuSans-Bold-50"/>
     <path d="M 46 36.53125 
Q 46 50.203125 43.4375 55.78125 
Q 40.875 61.375 34.8125 61.375 
Q 28.765625 61.375 26.171875 55.78125 
Q 23.578125 50.203125 23.578125 36.53125 
Q 23.578125 22.703125 26.171875 17.03125 
Q 28.765625 11.375 34.8125 11.375 
Q 40.828125 11.375 43.40625 17.03125 
Q 46 22.703125 46 36.53125 
z
M 64.796875 36.375 
Q 64.796875 18.265625 56.984375 8.421875 
Q 49.171875 -1.421875 34.8125 -1.421875 
Q 20.40625 -1.421875 12.59375 8.421875 
Q 4.78125 18.265625 4.78125 36.375 
Q 4.78125 54.546875 12.59375 64.375 
Q 20.40625 74.21875 34.8125 74.21875 
Q 49.171875 74.21875 56.984375 64.375 
Q 64.796875 54.546875 64.796875 36.375 
z
" id="DejaVuSans-Bold-48"/>
     <path d="M 8.5 -20.90625 
L 8.5 54.6875 
L 26.125 54.6875 
L 26.125 22.90625 
Q 26.125 17.234375 28.5625 14.46875 
Q 31 11.71875 35.984375 11.71875 
Q 41.015625 11.71875 43.453125 14.46875 
Q 45.90625 17.234375 45.90625 22.90625 
L 45.90625 54.6875 
L 63.484375 54.6875 
L 63.484375 18.109375 
Q 63.484375 14.65625 64.28125 13.28125 
Q 65.09375 11.921875 67 11.921875 
Q 67.875 11.921875 68.671875 12.15625 
Q 69.484375 12.40625 70.40625 12.984375 
L 70.40625 0.78125 
Q 67.828125 -0.34375 65.546875 -0.875 
Q 63.28125 -1.421875 61.078125 -1.421875 
Q 56.734375 -1.421875 53.96875 0.40625 
Q 51.21875 2.25 49.515625 6.296875 
Q 47.21875 2.4375 43.921875 0.5 
Q 40.625 -1.421875 36.28125 -1.421875 
Q 32.671875 -1.421875 30.125 -0.265625 
Q 27.59375 0.875 26.125 3.21875 
L 26.125 -20.90625 
z
" id="DejaVuSans-Bold-181"/>
     <path d="M 51.125 52.984375 
L 51.125 39.703125 
Q 45.515625 42.046875 40.28125 43.21875 
Q 35.0625 44.390625 30.421875 44.390625 
Q 25.4375 44.390625 23.015625 43.140625 
Q 20.609375 41.890625 20.609375 39.3125 
Q 20.609375 37.203125 22.4375 36.078125 
Q 24.265625 34.96875 29 34.421875 
L 32.078125 33.984375 
Q 45.515625 32.28125 50.140625 28.375 
Q 54.78125 24.46875 54.78125 16.109375 
Q 54.78125 7.375 48.328125 2.96875 
Q 41.890625 -1.421875 29.109375 -1.421875 
Q 23.6875 -1.421875 17.890625 -0.5625 
Q 12.109375 0.296875 6 2 
L 6 15.28125 
Q 11.234375 12.75 16.71875 11.46875 
Q 22.21875 10.203125 27.875 10.203125 
Q 33.015625 10.203125 35.59375 11.609375 
Q 38.1875 13.03125 38.1875 15.828125 
Q 38.1875 18.171875 36.40625 19.3125 
Q 34.625 20.453125 29.296875 21.09375 
L 26.21875 21.484375 
Q 14.546875 22.953125 9.859375 26.90625 
Q 5.171875 30.859375 5.171875 38.921875 
Q 5.171875 47.609375 11.125 51.796875 
Q 17.09375 56 29.390625 56 
Q 34.234375 56 39.546875 55.265625 
Q 44.875 54.546875 51.125 52.984375 
z
" id="DejaVuSans-Bold-115"/>
    </defs>
    <g transform="translate(57.825959 650.537364)scale(0.09232 -0.09232)">
     <use xlink:href="#DejaVuSans-Bold-32"/>
     <use x="34.814453" xlink:href="#DejaVuSans-Bold-50"/>
     <use x="104.394531" xlink:href="#DejaVuSans-Bold-48"/>
     <use x="173.974609" xlink:href="#DejaVuSans-Bold-181"/>
     <use x="247.558594" xlink:href="#DejaVuSans-Bold-115"/>
    </g>
   </g>
   <g id="text_17">
    <!--  40µs -->
    <defs>
     <path d="M 36.8125 57.421875 
L 16.21875 26.90625 
L 36.8125 26.90625 
z
M 33.6875 72.90625 
L 54.59375 72.90625 
L 54.59375 26.90625 
L 64.984375 26.90625 
L 64.984375 13.28125 
L 54.59375 13.28125 
L 54.59375 0 
L 36.8125 0 
L 36.8125 13.28125 
L 4.5 13.28125 
L 4.5 29.390625 
z
" id="DejaVuSans-Bold-52"/>
    </defs>
    <g transform="translate(57.387076 535.41593)scale(0.095179 -0.095179)">
     <use xlink:href="#DejaVuSans-Bold-32"/>
     <use x="34.814453" xlink:href="#DejaVuSans-Bold-52"/>
     <use x="104.394531" xlink:href="#DejaVuSans-Bold-48"/>
     <use x="173.974609" xlink:href="#DejaVuSans-Bold-181"/>
     <use x="247.558594" xlink:href="#DejaVuSans-Bold-115"/>
    </g>
   </g>
   <g id="text_18">
    <!--  40µs -->
    <g transform="translate(57.387076 420.21593)scale(0.095179 -0.095179)">
     <use xlink:href="#DejaVuSans-Bold-32"/>
     <use x="34.814453" xlink:href="#DejaVuSans-Bold-52"/>
     <use x="104.394531" xlink:href="#DejaVuSans-Bold-48"/>
     <use x="173.974609" xlink:href="#DejaVuSans-Bold-181"/>
     <use x="247.558594" xlink:href="#DejaVuSans-Bold-115"/>
    </g>
   </g>
   <g id="text_19">
    <!--  20µs -->
    <g transform="translate(57.825959 304.937364)scale(0.09232 -0.09232)">
     <use xlink:href="#DejaVuSans-Bold-32"/>
     <use x="34.814453" xlink:href="#DejaVuSans-Bold-50"/>
     <use x="104.394531" xlink:href="#DejaVuSans-Bold-48"/>
     <use x="173.974609" xlink:href="#DejaVuSans-Bold-181"/>
     <use x="247.558594" xlink:href="#DejaVuSans-Bold-115"/>
    </g>
   </g>
   <g id="text_20">
    <!--  40µs -->
    <g transform="translate(57.387076 189.81593)scale(0.095179 -0.095179)">
     <use xlink:href="#DejaVuSans-Bold-32"/>
     <use x="34.814453" xlink:href="#DejaVuSans-Bold-52"/>
     <use x="104.394531" xlink:href="#DejaVuSans-Bold-48"/>
     <use x="173.974609" xlink:href="#DejaVuSans-Bold-181"/>
     <use x="247.558594" xlink:href="#DejaVuSans-Bold-115"/>
    </g>
   </g>
   <g id="text_21">
    <!--  40µs -->
    <g transform="translate(57.387076 74.61593)scale(0.095179 -0.095179)">
     <use xlink:href="#DejaVuSans-Bold-32"/>
     <use x="34.814453" xlink:href="#DejaVuSans-Bold-52"/>
     <use x="104.394531" xlink:href="#DejaVuSans-Bold-48"/>
     <use x="173.974609" xlink:href="#DejaVuSans-Bold-181"/>
     <use x="247.558594" xlink:href="#DejaVuSans-Bold-115"/>
    </g>
   </g>
   <g id="text_22">
    <!--  40µs -->
    <g transform="translate(141.627076 650.61593)scale(0.095179 -0.095179)">
     <use xlink:href="#DejaVuSans-Bold-32"/>
     <use x="34.814453" xlink:href="#DejaVuSans-Bold-52"/>
     <use x="104.394531" xlink:href="#DejaVuSans-Bold-48"/>
     <use x="173.974609" xlink:href="#DejaVuSans-Bold-181"/>
     <use x="247.558594" xlink:href="#DejaVuSans-Bold-115"/>
    </g>
   </g>
   <g id="text_23">
    <!--  40µs -->
    <g transform="translate(141.627076 535.41593)scale(0.095179 -0.095179)">
     <use xlink:href="#DejaVuSans-Bold-32"/>
     <use x="34.814453" xlink:href="#DejaVuSans-Bold-52"/>
     <use x="104.394531" xlink:href="#DejaVuSans-Bold-48"/>
     <use x="173.974609" xlink:href="#DejaVuSans-Bold-181"/>
     <use x="247.558594" xlink:href="#DejaVuSans-Bold-115"/>
    </g>
   </g>
   <g id="text_24">
    <!--  40µs -->
    <g transform="translate(141.627076 420.21593)scale(0.095179 -0.095179)">
     <use xlink:href="#DejaVuSans-Bold-32"/>
     <use x="34.814453" xlink:href="#DejaVuSans-Bold-52"/>
     <use x="104.394531" xlink:href="#DejaVuSans-Bold-48"/>
     <use x="173.974609" xlink:href="#DejaVuSans-Bold-181"/>
     <use x="247.558594" xlink:href="#DejaVuSans-Bold-115"/>
    </g>
   </g>
   <g id="text_25">
    <!--  60µs -->
    <defs>
     <path d="M 36.1875 35.984375 
Q 31.25 35.984375 28.78125 32.78125 
Q 26.3125 29.59375 26.3125 23.1875 
Q 26.3125 16.796875 28.78125 13.59375 
Q 31.25 10.40625 36.1875 10.40625 
Q 41.15625 10.40625 43.625 13.59375 
Q 46.09375 16.796875 46.09375 23.1875 
Q 46.09375 29.59375 43.625 32.78125 
Q 41.15625 35.984375 36.1875 35.984375 
z
M 59.421875 71 
L 59.421875 57.515625 
Q 54.78125 59.71875 50.671875 60.765625 
Q 46.578125 61.8125 42.671875 61.8125 
Q 34.28125 61.8125 29.59375 57.140625 
Q 24.90625 52.484375 24.125 43.3125 
Q 27.34375 45.703125 31.09375 46.890625 
Q 34.859375 48.09375 39.3125 48.09375 
Q 50.484375 48.09375 57.34375 41.546875 
Q 64.203125 35.015625 64.203125 24.421875 
Q 64.203125 12.703125 56.53125 5.640625 
Q 48.875 -1.421875 35.984375 -1.421875 
Q 21.78125 -1.421875 13.984375 8.171875 
Q 6.203125 17.78125 6.203125 35.40625 
Q 6.203125 53.46875 15.3125 63.796875 
Q 24.421875 74.125 40.28125 74.125 
Q 45.3125 74.125 50.046875 73.34375 
Q 54.78125 72.5625 59.421875 71 
z
" id="DejaVuSans-Bold-54"/>
    </defs>
    <g transform="translate(141.324544 305.070088)scale(0.097149 -0.097149)">
     <use xlink:href="#DejaVuSans-Bold-32"/>
     <use x="34.814453" xlink:href="#DejaVuSans-Bold-54"/>
     <use x="104.394531" xlink:href="#DejaVuSans-Bold-48"/>
     <use x="173.974609" xlink:href="#DejaVuSans-Bold-181"/>
     <use x="247.558594" xlink:href="#DejaVuSans-Bold-115"/>
    </g>
   </g>
   <g id="text_26">
    <!--  80µs -->
    <defs>
     <path d="M 34.8125 32.625 
Q 29.546875 32.625 26.703125 29.734375 
Q 23.875 26.859375 23.875 21.484375 
Q 23.875 16.109375 26.703125 13.25 
Q 29.546875 10.40625 34.8125 10.40625 
Q 40.046875 10.40625 42.828125 13.25 
Q 45.609375 16.109375 45.609375 21.484375 
Q 45.609375 26.90625 42.828125 29.765625 
Q 40.046875 32.625 34.8125 32.625 
z
M 21.09375 38.8125 
Q 14.453125 40.828125 11.078125 44.96875 
Q 7.71875 49.125 7.71875 55.328125 
Q 7.71875 64.546875 14.59375 69.375 
Q 21.484375 74.21875 34.8125 74.21875 
Q 48.046875 74.21875 54.921875 69.40625 
Q 61.8125 64.59375 61.8125 55.328125 
Q 61.8125 49.125 58.421875 44.96875 
Q 55.03125 40.828125 48.390625 38.8125 
Q 55.8125 36.765625 59.59375 32.15625 
Q 63.375 27.546875 63.375 20.515625 
Q 63.375 9.671875 56.171875 4.125 
Q 48.96875 -1.421875 34.8125 -1.421875 
Q 20.609375 -1.421875 13.359375 4.125 
Q 6.109375 9.671875 6.109375 20.515625 
Q 6.109375 27.546875 9.890625 32.15625 
Q 13.671875 36.765625 21.09375 38.8125 
z
M 25.484375 53.421875 
Q 25.484375 49.078125 27.90625 46.734375 
Q 30.328125 44.390625 34.8125 44.390625 
Q 39.203125 44.390625 41.59375 46.734375 
Q 44 49.078125 44 53.421875 
Q 44 57.765625 41.59375 60.078125 
Q 39.203125 62.40625 34.8125 62.40625 
Q 30.328125 62.40625 27.90625 60.0625 
Q 25.484375 57.71875 25.484375 53.421875 
z
" id="DejaVuSans-Bold-56"/>
    </defs>
    <g transform="translate(141.086363 189.912726)scale(0.098701 -0.098701)">
     <use xlink:href="#DejaVuSans-Bold-32"/>
     <use x="34.814453" xlink:href="#DejaVuSans-Bold-56"/>
     <use x="104.394531" xlink:href="#DejaVuSans-Bold-48"/>
     <use x="173.974609" xlink:href="#DejaVuSans-Bold-181"/>
     <use x="247.558594" xlink:href="#DejaVuSans-Bold-115"/>
    </g>
   </g>
   <g id="text_27">
    <!-- 140µs -->
    <defs>
     <path d="M 11.71875 12.984375 
L 28.328125 12.984375 
L 28.328125 60.109375 
L 11.28125 56.59375 
L 11.28125 69.390625 
L 28.21875 72.90625 
L 46.09375 72.90625 
L 46.09375 12.984375 
L 62.703125 12.984375 
L 62.703125 0 
L 11.71875 0 
z
" id="DejaVuSans-Bold-49"/>
    </defs>
    <g transform="translate(138.78422 74.807032)scale(0.102132 -0.102132)">
     <use xlink:href="#DejaVuSans-Bold-49"/>
     <use x="69.580078" xlink:href="#DejaVuSans-Bold-52"/>
     <use x="139.160156" xlink:href="#DejaVuSans-Bold-48"/>
     <use x="208.740234" xlink:href="#DejaVuSans-Bold-181"/>
     <use x="282.324219" xlink:href="#DejaVuSans-Bold-115"/>
    </g>
   </g>
   <g id="text_28">
    <!--  20µs -->
    <g transform="translate(226.305959 650.537364)scale(0.09232 -0.09232)">
     <use xlink:href="#DejaVuSans-Bold-32"/>
     <use x="34.814453" xlink:href="#DejaVuSans-Bold-50"/>
     <use x="104.394531" xlink:href="#DejaVuSans-Bold-48"/>
     <use x="173.974609" xlink:href="#DejaVuSans-Bold-181"/>
     <use x="247.558594" xlink:href="#DejaVuSans-Bold-115"/>
    </g>
   </g>
   <g id="text_29">
    <!--  40µs -->
    <g transform="translate(225.867076 535.41593)scale(0.095179 -0.095179)">
     <use xlink:href="#DejaVuSans-Bold-32"/>
     <use x="34.814453" xlink:href="#DejaVuSans-Bold-52"/>
     <use x="104.394531" xlink:href="#DejaVuSans-Bold-48"/>
     <use x="173.974609" xlink:href="#DejaVuSans-Bold-181"/>
     <use x="247.558594" xlink:href="#DejaVuSans-Bold-115"/>
    </g>
   </g>
   <g id="text_30">
    <!--  60µs -->
    <g transform="translate(225.564544 420.270088)scale(0.097149 -0.097149)">
     <use xlink:href="#DejaVuSans-Bold-32"/>
     <use x="34.814453" xlink:href="#DejaVuSans-Bold-54"/>
     <use x="104.394531" xlink:href="#DejaVuSans-Bold-48"/>
     <use x="173.974609" xlink:href="#DejaVuSans-Bold-181"/>
     <use x="247.558594" xlink:href="#DejaVuSans-Bold-115"/>
    </g>
   </g>
   <g id="text_31">
    <!-- 120µs -->
    <g transform="translate(223.19574 305.17945)scale(0.101128 -0.101128)">
     <use xlink:href="#DejaVuSans-Bold-49"/>
     <use x="69.580078" xlink:href="#DejaVuSans-Bold-50"/>
     <use x="139.160156" xlink:href="#DejaVuSans-Bold-48"/>
     <use x="208.740234" xlink:href="#DejaVuSans-Bold-181"/>
     <use x="282.324219" xlink:href="#DejaVuSans-Bold-115"/>
    </g>
   </g>
   <g id="text_32">
    <!-- 280µs -->
    <g transform="translate(222.146555 190.148168)scale(0.107267 -0.107267)">
     <use xlink:href="#DejaVuSans-Bold-50"/>
     <use x="69.580078" xlink:href="#DejaVuSans-Bold-56"/>
     <use x="139.160156" xlink:href="#DejaVuSans-Bold-48"/>
     <use x="208.740234" xlink:href="#DejaVuSans-Bold-181"/>
     <use x="282.324219" xlink:href="#DejaVuSans-Bold-115"/>
    </g>
   </g>
   <g id="text_33">
    <!-- 780µs -->
    <defs>
     <path d="M 6.6875 72.90625 
L 61.625 72.90625 
L 61.625 62.3125 
L 33.203125 0 
L 14.890625 0 
L 41.796875 59.078125 
L 6.6875 59.078125 
z
" id="DejaVuSans-Bold-55"/>
    </defs>
    <g transform="translate(220.462994 75.218898)scale(0.117117 -0.117117)">
     <use xlink:href="#DejaVuSans-Bold-55"/>
     <use x="69.580078" xlink:href="#DejaVuSans-Bold-56"/>
     <use x="139.160156" xlink:href="#DejaVuSans-Bold-48"/>
     <use x="208.740234" xlink:href="#DejaVuSans-Bold-181"/>
     <use x="282.324219" xlink:href="#DejaVuSans-Bold-115"/>
    </g>
   </g>
   <g id="text_34">
    <!--  40µs -->
    <g transform="translate(310.107076 650.61593)scale(0.095179 -0.095179)">
     <use xlink:href="#DejaVuSans-Bold-32"/>
     <use x="34.814453" xlink:href="#DejaVuSans-Bold-52"/>
     <use x="104.394531" xlink:href="#DejaVuSans-Bold-48"/>
     <use x="173.974609" xlink:href="#DejaVuSans-Bold-181"/>
     <use x="247.558594" xlink:href="#DejaVuSans-Bold-115"/>
    </g>
   </g>
   <g id="text_35">
    <!--  40µs -->
    <g transform="translate(310.107076 535.41593)scale(0.095179 -0.095179)">
     <use xlink:href="#DejaVuSans-Bold-32"/>
     <use x="34.814453" xlink:href="#DejaVuSans-Bold-52"/>
     <use x="104.394531" xlink:href="#DejaVuSans-Bold-48"/>
     <use x="173.974609" xlink:href="#DejaVuSans-Bold-181"/>
     <use x="247.558594" xlink:href="#DejaVuSans-Bold-115"/>
    </g>
   </g>
   <g id="text_36">
    <!-- 100µs -->
    <g transform="translate(307.628594 420.348437)scale(0.1 -0.1)">
     <use xlink:href="#DejaVuSans-Bold-49"/>
     <use x="69.580078" xlink:href="#DejaVuSans-Bold-48"/>
     <use x="139.160156" xlink:href="#DejaVuSans-Bold-48"/>
     <use x="208.740234" xlink:href="#DejaVuSans-Bold-181"/>
     <use x="282.324219" xlink:href="#DejaVuSans-Bold-115"/>
    </g>
   </g>
   <g id="text_37">
    <!-- 280µs -->
    <g transform="translate(306.386555 305.348168)scale(0.107267 -0.107267)">
     <use xlink:href="#DejaVuSans-Bold-50"/>
     <use x="69.580078" xlink:href="#DejaVuSans-Bold-56"/>
     <use x="139.160156" xlink:href="#DejaVuSans-Bold-48"/>
     <use x="208.740234" xlink:href="#DejaVuSans-Bold-181"/>
     <use x="282.324219" xlink:href="#DejaVuSans-Bold-115"/>
    </g>
   </g>
   <g id="text_38">
    <!-- 900µs -->
    <defs>
     <path d="M 10.015625 1.609375 
L 10.015625 15.09375 
Q 14.5 12.984375 18.59375 11.9375 
Q 22.703125 10.890625 26.703125 10.890625 
Q 35.109375 10.890625 39.796875 15.546875 
Q 44.484375 20.21875 45.3125 29.390625 
Q 42 26.953125 38.234375 25.734375 
Q 34.46875 24.515625 30.078125 24.515625 
Q 18.890625 24.515625 12.03125 31.03125 
Q 5.171875 37.546875 5.171875 48.1875 
Q 5.171875 59.96875 12.8125 67.046875 
Q 20.453125 74.125 33.296875 74.125 
Q 47.5625 74.125 55.375 64.5 
Q 63.1875 54.890625 63.1875 37.3125 
Q 63.1875 19.234375 54.046875 8.90625 
Q 44.921875 -1.421875 29 -1.421875 
Q 23.875 -1.421875 19.1875 -0.65625 
Q 14.5 0.09375 10.015625 1.609375 
z
M 33.203125 36.71875 
Q 38.140625 36.71875 40.625 39.90625 
Q 43.109375 43.109375 43.109375 49.515625 
Q 43.109375 55.859375 40.625 59.078125 
Q 38.140625 62.3125 33.203125 62.3125 
Q 28.265625 62.3125 25.78125 59.078125 
Q 23.296875 55.859375 23.296875 49.515625 
Q 23.296875 43.109375 25.78125 39.90625 
Q 28.265625 36.71875 33.203125 36.71875 
z
" id="DejaVuSans-Bold-57"/>
    </defs>
    <g transform="translate(304.423743 190.463804)scale(0.118751 -0.118751)">
     <use xlink:href="#DejaVuSans-Bold-57"/>
     <use x="69.580078" xlink:href="#DejaVuSans-Bold-48"/>
     <use x="139.160156" xlink:href="#DejaVuSans-Bold-48"/>
     <use x="208.740234" xlink:href="#DejaVuSans-Bold-181"/>
     <use x="282.324219" xlink:href="#DejaVuSans-Bold-115"/>
    </g>
   </g>
   <g id="text_39">
    <!--   4ms -->
    <defs>
     <path d="M 59.078125 45.609375 
Q 62.40625 50.6875 66.96875 53.34375 
Q 71.53125 56 77 56 
Q 86.421875 56 91.359375 50.1875 
Q 96.296875 44.390625 96.296875 33.296875 
L 96.296875 0 
L 78.71875 0 
L 78.71875 28.515625 
Q 78.765625 29.15625 78.78125 29.828125 
Q 78.8125 30.515625 78.8125 31.78125 
Q 78.8125 37.59375 77.09375 40.203125 
Q 75.390625 42.828125 71.578125 42.828125 
Q 66.609375 42.828125 63.890625 38.71875 
Q 61.1875 34.625 61.078125 26.859375 
L 61.078125 0 
L 43.5 0 
L 43.5 28.515625 
Q 43.5 37.59375 41.9375 40.203125 
Q 40.375 42.828125 36.375 42.828125 
Q 31.34375 42.828125 28.609375 38.703125 
Q 25.875 34.578125 25.875 26.90625 
L 25.875 0 
L 8.296875 0 
L 8.296875 54.6875 
L 25.875 54.6875 
L 25.875 46.6875 
Q 29.109375 51.3125 33.28125 53.65625 
Q 37.453125 56 42.484375 56 
Q 48.140625 56 52.484375 53.265625 
Q 56.84375 50.53125 59.078125 45.609375 
z
" id="DejaVuSans-Bold-109"/>
    </defs>
    <g transform="translate(303.746868 75.820968)scale(0.138472 -0.138472)">
     <use xlink:href="#DejaVuSans-Bold-32"/>
     <use x="34.814453" xlink:href="#DejaVuSans-Bold-32"/>
     <use x="69.628906" xlink:href="#DejaVuSans-Bold-52"/>
     <use x="139.208984" xlink:href="#DejaVuSans-Bold-109"/>
     <use x="243.408203" xlink:href="#DejaVuSans-Bold-115"/>
    </g>
   </g>
   <g id="text_40">
    <!--  40µs -->
    <g transform="translate(394.347076 650.61593)scale(0.095179 -0.095179)">
     <use xlink:href="#DejaVuSans-Bold-32"/>
     <use x="34.814453" xlink:href="#DejaVuSans-Bold-52"/>
     <use x="104.394531" xlink:href="#DejaVuSans-Bold-48"/>
     <use x="173.974609" xlink:href="#DejaVuSans-Bold-181"/>
     <use x="247.558594" xlink:href="#DejaVuSans-Bold-115"/>
    </g>
   </g>
   <g id="text_41">
    <!--  60µs -->
    <g transform="translate(394.044544 535.470088)scale(0.097149 -0.097149)">
     <use xlink:href="#DejaVuSans-Bold-32"/>
     <use x="34.814453" xlink:href="#DejaVuSans-Bold-54"/>
     <use x="104.394531" xlink:href="#DejaVuSans-Bold-48"/>
     <use x="173.974609" xlink:href="#DejaVuSans-Bold-181"/>
     <use x="247.558594" xlink:href="#DejaVuSans-Bold-115"/>
    </g>
   </g>
   <g id="text_42">
    <!-- 140µs -->
    <g transform="translate(391.50422 420.407032)scale(0.102132 -0.102132)">
     <use xlink:href="#DejaVuSans-Bold-49"/>
     <use x="69.580078" xlink:href="#DejaVuSans-Bold-52"/>
     <use x="139.160156" xlink:href="#DejaVuSans-Bold-48"/>
     <use x="208.740234" xlink:href="#DejaVuSans-Bold-181"/>
     <use x="282.324219" xlink:href="#DejaVuSans-Bold-115"/>
    </g>
   </g>
   <g id="text_43">
    <!-- 560µs -->
    <defs>
     <path d="M 10.59375 72.90625 
L 57.328125 72.90625 
L 57.328125 59.078125 
L 25.59375 59.078125 
L 25.59375 47.796875 
Q 27.734375 48.390625 29.90625 48.703125 
Q 32.078125 49.03125 34.421875 49.03125 
Q 47.75 49.03125 55.171875 42.359375 
Q 62.59375 35.6875 62.59375 23.78125 
Q 62.59375 11.96875 54.515625 5.265625 
Q 46.4375 -1.421875 32.078125 -1.421875 
Q 25.875 -1.421875 19.796875 -0.21875 
Q 13.71875 0.984375 7.71875 3.421875 
L 7.71875 18.21875 
Q 13.671875 14.796875 19.015625 13.078125 
Q 24.359375 11.375 29.109375 11.375 
Q 35.9375 11.375 39.859375 14.71875 
Q 43.796875 18.0625 43.796875 23.78125 
Q 43.796875 29.546875 39.859375 32.859375 
Q 35.9375 36.1875 29.109375 36.1875 
Q 25.046875 36.1875 20.453125 35.125 
Q 15.875 34.078125 10.59375 31.890625 
z
" id="DejaVuSans-Bold-53"/>
    </defs>
    <g transform="translate(389.54525 305.52205)scale(0.113594 -0.113594)">
     <use xlink:href="#DejaVuSans-Bold-53"/>
     <use x="69.580078" xlink:href="#DejaVuSans-Bold-54"/>
     <use x="139.160156" xlink:href="#DejaVuSans-Bold-48"/>
     <use x="208.740234" xlink:href="#DejaVuSans-Bold-181"/>
     <use x="282.324219" xlink:href="#DejaVuSans-Bold-115"/>
    </g>
   </g>
   <g id="text_44">
    <!--   2ms -->
    <g transform="translate(388.879654 190.858317)scale(0.132578 -0.132578)">
     <use xlink:href="#DejaVuSans-Bold-32"/>
     <use x="34.814453" xlink:href="#DejaVuSans-Bold-32"/>
     <use x="69.628906" xlink:href="#DejaVuSans-Bold-50"/>
     <use x="139.208984" xlink:href="#DejaVuSans-Bold-109"/>
     <use x="243.408203" xlink:href="#DejaVuSans-Bold-115"/>
    </g>
   </g>
   <g id="text_45">
    <!--  13ms -->
    <defs>
     <path d="M 46.578125 39.3125 
Q 53.953125 37.40625 57.78125 32.6875 
Q 61.625 27.984375 61.625 20.703125 
Q 61.625 9.859375 53.3125 4.21875 
Q 45.015625 -1.421875 29.109375 -1.421875 
Q 23.484375 -1.421875 17.84375 -0.515625 
Q 12.203125 0.390625 6.6875 2.203125 
L 6.6875 16.703125 
Q 11.96875 14.0625 17.15625 12.71875 
Q 22.359375 11.375 27.390625 11.375 
Q 34.859375 11.375 38.84375 13.953125 
Q 42.828125 16.546875 42.828125 21.390625 
Q 42.828125 26.375 38.75 28.9375 
Q 34.671875 31.5 26.703125 31.5 
L 19.1875 31.5 
L 19.1875 43.609375 
L 27.09375 43.609375 
Q 34.1875 43.609375 37.640625 45.828125 
Q 41.109375 48.046875 41.109375 52.59375 
Q 41.109375 56.78125 37.734375 59.078125 
Q 34.375 61.375 28.21875 61.375 
Q 23.6875 61.375 19.046875 60.34375 
Q 14.40625 59.328125 9.8125 57.328125 
L 9.8125 71.09375 
Q 15.375 72.65625 20.84375 73.4375 
Q 26.3125 74.21875 31.59375 74.21875 
Q 45.796875 74.21875 52.84375 69.546875 
Q 59.90625 64.890625 59.90625 55.515625 
Q 59.90625 49.125 56.53125 45.046875 
Q 53.171875 40.96875 46.578125 39.3125 
z
" id="DejaVuSans-Bold-51"/>
    </defs>
    <g transform="translate(380.889317 76.587528)scale(0.166252 -0.166252)">
     <use xlink:href="#DejaVuSans-Bold-32"/>
     <use x="34.814453" xlink:href="#DejaVuSans-Bold-49"/>
     <use x="104.394531" xlink:href="#DejaVuSans-Bold-51"/>
     <use x="173.974609" xlink:href="#DejaVuSans-Bold-109"/>
     <use x="278.173828" xlink:href="#DejaVuSans-Bold-115"/>
    </g>
   </g>
   <g id="text_46">
    <!--  40µs -->
    <g transform="translate(478.587076 650.61593)scale(0.095179 -0.095179)">
     <use xlink:href="#DejaVuSans-Bold-32"/>
     <use x="34.814453" xlink:href="#DejaVuSans-Bold-52"/>
     <use x="104.394531" xlink:href="#DejaVuSans-Bold-48"/>
     <use x="173.974609" xlink:href="#DejaVuSans-Bold-181"/>
     <use x="247.558594" xlink:href="#DejaVuSans-Bold-115"/>
    </g>
   </g>
   <g id="text_47">
    <!--  60µs -->
    <g transform="translate(478.284544 535.470088)scale(0.097149 -0.097149)">
     <use xlink:href="#DejaVuSans-Bold-32"/>
     <use x="34.814453" xlink:href="#DejaVuSans-Bold-54"/>
     <use x="104.394531" xlink:href="#DejaVuSans-Bold-48"/>
     <use x="173.974609" xlink:href="#DejaVuSans-Bold-181"/>
     <use x="247.558594" xlink:href="#DejaVuSans-Bold-115"/>
    </g>
   </g>
   <g id="text_48">
    <!-- 200µs -->
    <g transform="translate(475.315472 420.475978)scale(0.10464 -0.10464)">
     <use xlink:href="#DejaVuSans-Bold-50"/>
     <use x="69.580078" xlink:href="#DejaVuSans-Bold-48"/>
     <use x="139.160156" xlink:href="#DejaVuSans-Bold-48"/>
     <use x="208.740234" xlink:href="#DejaVuSans-Bold-181"/>
     <use x="282.324219" xlink:href="#DejaVuSans-Bold-115"/>
    </g>
   </g>
   <g id="text_49">
    <!-- 990µs -->
    <g transform="translate(472.711359 305.694741)scale(0.119877 -0.119877)">
     <use xlink:href="#DejaVuSans-Bold-57"/>
     <use x="69.580078" xlink:href="#DejaVuSans-Bold-57"/>
     <use x="139.160156" xlink:href="#DejaVuSans-Bold-48"/>
     <use x="208.740234" xlink:href="#DejaVuSans-Bold-181"/>
     <use x="282.324219" xlink:href="#DejaVuSans-Bold-115"/>
    </g>
   </g>
   <g id="text_50">
    <!--   6ms -->
    <g transform="translate(470.852512 191.271353)scale(0.147546 -0.147546)">
     <use xlink:href="#DejaVuSans-Bold-32"/>
     <use x="34.814453" xlink:href="#DejaVuSans-Bold-32"/>
     <use x="69.628906" xlink:href="#DejaVuSans-Bold-54"/>
     <use x="139.208984" xlink:href="#DejaVuSans-Bold-109"/>
     <use x="243.408203" xlink:href="#DejaVuSans-Bold-115"/>
    </g>
   </g>
   <g id="text_51">
    <!--  38ms -->
    <g transform="translate(459.547233 77.499795)scale(0.199313 -0.199313)">
     <use xlink:href="#DejaVuSans-Bold-32"/>
     <use x="34.814453" xlink:href="#DejaVuSans-Bold-51"/>
     <use x="104.394531" xlink:href="#DejaVuSans-Bold-56"/>
     <use x="173.974609" xlink:href="#DejaVuSans-Bold-109"/>
     <use x="278.173828" xlink:href="#DejaVuSans-Bold-115"/>
    </g>
   </g>
  </g>
  <g id="axes_2">
   <g id="patch_7">
    <path clip-path="url(#pb4048ca2d8)" d="M 622.8 648 
L 622.8 552 
L 622.8 168 
L 622.8 72 
L 651.6 72 
L 651.6 168 
L 651.6 552 
L 651.6 648 
z
" style="fill:#ffffff;stroke:#ffffff;stroke-linejoin:miter;stroke-width:0.01;"/>
   </g>
   <g id="QuadMesh_1">
    <path clip-path="url(#pb4048ca2d8)" d="M 622.8 648 
L 651.6 648 
L 651.6 552 
L 622.8 552 
L 622.8 648 
" style="fill:#481f70;"/>
    <path clip-path="url(#pb4048ca2d8)" d="M 622.8 552 
L 651.6 552 
L 651.6 456 
L 622.8 456 
L 622.8 552 
" style="fill:#3b528b;"/>
    <path clip-path="url(#pb4048ca2d8)" d="M 622.8 456 
L 651.6 456 
L 651.6 360 
L 622.8 360 
L 622.8 456 
" style="fill:#287c8e;"/>
    <path clip-path="url(#pb4048ca2d8)" d="M 622.8 360 
L 651.6 360 
L 651.6 264 
L 622.8 264 
L 622.8 360 
" style="fill:#20a486;"/>
    <path clip-path="url(#pb4048ca2d8)" d="M 622.8 264 
L 651.6 264 
L 651.6 168 
L 622.8 168 
L 622.8 264 
" style="fill:#5ec962;"/>
    <path clip-path="url(#pb4048ca2d8)" d="M 622.8 168 
L 651.6 168 
L 651.6 72 
L 622.8 72 
L 622.8 168 
" style="fill:#c8e020;"/>
   </g>
   <g id="matplotlib.axis_3"/>
   <g id="matplotlib.axis_4">
    <g id="ytick_7">
     <g id="line2d_13">
      <defs>
       <path d="M 0 0 
L 3.5 0 
" id="m6de95c4e3d" style="stroke:#000000;stroke-width:0.8;"/>
      </defs>
      <g>
       <use style="stroke:#000000;stroke-width:0.8;" x="651.6" xlink:href="#m6de95c4e3d" y="648"/>
      </g>
     </g>
     <g id="text_52">
      <!--  10B -->
      <defs>
       <path d="M 31.78125 66.40625 
Q 24.171875 66.40625 20.328125 58.90625 
Q 16.5 51.421875 16.5 36.375 
Q 16.5 21.390625 20.328125 13.890625 
Q 24.171875 6.390625 31.78125 6.390625 
Q 39.453125 6.390625 43.28125 13.890625 
Q 47.125 21.390625 47.125 36.375 
Q 47.125 51.421875 43.28125 58.90625 
Q 39.453125 66.40625 31.78125 66.40625 
z
M 31.78125 74.21875 
Q 44.046875 74.21875 50.515625 64.515625 
Q 56.984375 54.828125 56.984375 36.375 
Q 56.984375 17.96875 50.515625 8.265625 
Q 44.046875 -1.421875 31.78125 -1.421875 
Q 19.53125 -1.421875 13.0625 8.265625 
Q 6.59375 17.96875 6.59375 36.375 
Q 6.59375 54.828125 13.0625 64.515625 
Q 19.53125 74.21875 31.78125 74.21875 
z
" id="DejaVuSans-48"/>
       <path d="M 19.671875 34.8125 
L 19.671875 8.109375 
L 35.5 8.109375 
Q 43.453125 8.109375 47.28125 11.40625 
Q 51.125 14.703125 51.125 21.484375 
Q 51.125 28.328125 47.28125 31.5625 
Q 43.453125 34.8125 35.5 34.8125 
z
M 19.671875 64.796875 
L 19.671875 42.828125 
L 34.28125 42.828125 
Q 41.5 42.828125 45.03125 45.53125 
Q 48.578125 48.25 48.578125 53.8125 
Q 48.578125 59.328125 45.03125 62.0625 
Q 41.5 64.796875 34.28125 64.796875 
z
M 9.8125 72.90625 
L 35.015625 72.90625 
Q 46.296875 72.90625 52.390625 68.21875 
Q 58.5 63.53125 58.5 54.890625 
Q 58.5 48.1875 55.375 44.234375 
Q 52.25 40.28125 46.1875 39.3125 
Q 53.46875 37.75 57.5 32.78125 
Q 61.53125 27.828125 61.53125 20.40625 
Q 61.53125 10.640625 54.890625 5.3125 
Q 48.25 0 35.984375 0 
L 9.8125 0 
z
" id="DejaVuSans-66"/>
      </defs>
      <g transform="translate(658.6 651.799219)scale(0.1 -0.1)">
       <use xlink:href="#DejaVuSans-32"/>
       <use x="31.787109" xlink:href="#DejaVuSans-49"/>
       <use x="95.410156" xlink:href="#DejaVuSans-48"/>
       <use x="159.033203" xlink:href="#DejaVuSans-66"/>
      </g>
     </g>
    </g>
    <g id="ytick_8">
     <g id="line2d_14">
      <g>
       <use style="stroke:#000000;stroke-width:0.8;" x="651.6" xlink:href="#m6de95c4e3d" y="552"/>
      </g>
     </g>
     <g id="text_53">
      <!-- 100B -->
      <g transform="translate(658.6 555.799219)scale(0.1 -0.1)">
       <use xlink:href="#DejaVuSans-49"/>
       <use x="63.623047" xlink:href="#DejaVuSans-48"/>
       <use x="127.246094" xlink:href="#DejaVuSans-48"/>
       <use x="190.869141" xlink:href="#DejaVuSans-66"/>
      </g>
     </g>
    </g>
    <g id="ytick_9">
     <g id="line2d_15">
      <g>
       <use style="stroke:#000000;stroke-width:0.8;" x="651.6" xlink:href="#m6de95c4e3d" y="456"/>
      </g>
     </g>
     <g id="text_54">
      <!--   1KB -->
      <defs>
       <path d="M 9.8125 72.90625 
L 19.671875 72.90625 
L 19.671875 42.09375 
L 52.390625 72.90625 
L 65.09375 72.90625 
L 28.90625 38.921875 
L 67.671875 0 
L 54.6875 0 
L 19.671875 35.109375 
L 19.671875 0 
L 9.8125 0 
z
" id="DejaVuSans-75"/>
      </defs>
      <g transform="translate(658.6 459.799219)scale(0.1 -0.1)">
       <use xlink:href="#DejaVuSans-32"/>
       <use x="31.787109" xlink:href="#DejaVuSans-32"/>
       <use x="63.574219" xlink:href="#DejaVuSans-49"/>
       <use x="127.197266" xlink:href="#DejaVuSans-75"/>
       <use x="192.773438" xlink:href="#DejaVuSans-66"/>
      </g>
     </g>
    </g>
    <g id="ytick_10">
     <g id="line2d_16">
      <g>
       <use style="stroke:#000000;stroke-width:0.8;" x="651.6" xlink:href="#m6de95c4e3d" y="360"/>
      </g>
     </g>
     <g id="text_55">
      <!--  10KB -->
      <g transform="translate(658.6 363.799219)scale(0.1 -0.1)">
       <use xlink:href="#DejaVuSans-32"/>
       <use x="31.787109" xlink:href="#DejaVuSans-49"/>
       <use x="95.410156" xlink:href="#DejaVuSans-48"/>
       <use x="159.033203" xlink:href="#DejaVuSans-75"/>
       <use x="224.609375" xlink:href="#DejaVuSans-66"/>
      </g>
     </g>
    </g>
    <g id="ytick_11">
     <g id="line2d_17">
      <g>
       <use style="stroke:#000000;stroke-width:0.8;" x="651.6" xlink:href="#m6de95c4e3d" y="264"/>
      </g>
     </g>
     <g id="text_56">
      <!-- 100KB -->
      <g transform="translate(658.6 267.799219)scale(0.1 -0.1)">
       <use xlink:href="#DejaVuSans-49"/>
       <use x="63.623047" xlink:href="#DejaVuSans-48"/>
       <use x="127.246094" xlink:href="#DejaVuSans-48"/>
       <use x="190.869141" xlink:href="#DejaVuSans-75"/>
       <use x="256.445312" xlink:href="#DejaVuSans-66"/>
      </g>
     </g>
    </g>
    <g id="ytick_12">
     <g id="line2d_18">
      <g>
       <use style="stroke:#000000;stroke-width:0.8;" x="651.6" xlink:href="#m6de95c4e3d" y="168"/>
      </g>
     </g>
     <g id="text_57">
      <!--   1MB -->
      <defs>
       <path d="M 9.8125 72.90625 
L 24.515625 72.90625 
L 43.109375 23.296875 
L 61.8125 72.90625 
L 76.515625 72.90625 
L 76.515625 0 
L 66.890625 0 
L 66.890625 64.015625 
L 48.09375 14.015625 
L 38.1875 14.015625 
L 19.390625 64.015625 
L 19.390625 0 
L 9.8125 0 
z
" id="DejaVuSans-77"/>
      </defs>
      <g transform="translate(658.6 171.799219)scale(0.1 -0.1)">
       <use xlink:href="#DejaVuSans-32"/>
       <use x="31.787109" xlink:href="#DejaVuSans-32"/>
       <use x="63.574219" xlink:href="#DejaVuSans-49"/>
       <use x="127.197266" xlink:href="#DejaVuSans-77"/>
       <use x="213.476562" xlink:href="#DejaVuSans-66"/>
      </g>
     </g>
    </g>
    <g id="ytick_13">
     <g id="line2d_19">
      <g>
       <use style="stroke:#000000;stroke-width:0.8;" x="651.6" xlink:href="#m6de95c4e3d" y="72"/>
      </g>
     </g>
     <g id="text_58">
      <!--  10MB -->
      <g transform="translate(658.6 75.799219)scale(0.1 -0.1)">
       <use xlink:href="#DejaVuSans-32"/>
       <use x="31.787109" xlink:href="#DejaVuSans-49"/>
       <use x="95.410156" xlink:href="#DejaVuSans-48"/>
       <use x="159.033203" xlink:href="#DejaVuSans-77"/>
       <use x="245.3125" xlink:href="#DejaVuSans-66"/>
      </g>
     </g>
    </g>
    <g id="text_59">
     <!-- serialized payload size -->
     <defs>
      <path d="M 44.28125 53.078125 
L 44.28125 44.578125 
Q 40.484375 46.53125 36.375 47.5 
Q 32.28125 48.484375 27.875 48.484375 
Q 21.1875 48.484375 17.84375 46.4375 
Q 14.5 44.390625 14.5 40.28125 
Q 14.5 37.15625 16.890625 35.375 
Q 19.28125 33.59375 26.515625 31.984375 
L 29.59375 31.296875 
Q 39.15625 29.25 43.1875 25.515625 
Q 47.21875 21.78125 47.21875 15.09375 
Q 47.21875 7.46875 41.1875 3.015625 
Q 35.15625 -1.421875 24.609375 -1.421875 
Q 20.21875 -1.421875 15.453125 -0.5625 
Q 10.6875 0.296875 5.421875 2 
L 5.421875 11.28125 
Q 10.40625 8.6875 15.234375 7.390625 
Q 20.0625 6.109375 24.8125 6.109375 
Q 31.15625 6.109375 34.5625 8.28125 
Q 37.984375 10.453125 37.984375 14.40625 
Q 37.984375 18.0625 35.515625 20.015625 
Q 33.0625 21.96875 24.703125 23.78125 
L 21.578125 24.515625 
Q 13.234375 26.265625 9.515625 29.90625 
Q 5.8125 33.546875 5.8125 39.890625 
Q 5.8125 47.609375 11.28125 51.796875 
Q 16.75 56 26.8125 56 
Q 31.78125 56 36.171875 55.265625 
Q 40.578125 54.546875 44.28125 53.078125 
z
" id="DejaVuSans-115"/>
      <path d="M 5.515625 54.6875 
L 48.1875 54.6875 
L 48.1875 46.484375 
L 14.40625 7.171875 
L 48.1875 7.171875 
L 48.1875 0 
L 4.296875 0 
L 4.296875 8.203125 
L 38.09375 47.515625 
L 5.515625 47.515625 
z
" id="DejaVuSans-122"/>
     </defs>
     <g transform="translate(702.704687 416.6)rotate(-90)scale(0.1 -0.1)">
      <use xlink:href="#DejaVuSans-115"/>
      <use x="52.099609" xlink:href="#DejaVuSans-101"/>
      <use x="113.623047" xlink:href="#DejaVuSans-114"/>
      <use x="154.736328" xlink:href="#DejaVuSans-105"/>
      <use x="182.519531" xlink:href="#DejaVuSans-97"/>
      <use x="243.798828" xlink:href="#DejaVuSans-108"/>
      <use x="271.582031" xlink:href="#DejaVuSans-105"/>
      <use x="299.365234" xlink:href="#DejaVuSans-122"/>
      <use x="351.855469" xlink:href="#DejaVuSans-101"/>
      <use x="413.378906" xlink:href="#DejaVuSans-100"/>
      <use x="476.855469" xlink:href="#DejaVuSans-32"/>
      <use x="508.642578" xlink:href="#DejaVuSans-112"/>
      <use x="572.119141" xlink:href="#DejaVuSans-97"/>
      <use x="633.398438" xlink:href="#DejaVuSans-121"/>
      <use x="692.578125" xlink:href="#DejaVuSans-108"/>
      <use x="720.361328" xlink:href="#DejaVuSans-111"/>
      <use x="781.542969" xlink:href="#DejaVuSans-97"/>
      <use x="842.822266" xlink:href="#DejaVuSans-100"/>
      <use x="906.298828" xlink:href="#DejaVuSans-32"/>
      <use x="938.085938" xlink:href="#DejaVuSans-115"/>
      <use x="990.185547" xlink:href="#DejaVuSans-105"/>
      <use x="1017.96875" xlink:href="#DejaVuSans-122"/>
      <use x="1070.458984" xlink:href="#DejaVuSans-101"/>
     </g>
    </g>
   </g>
   <g id="patch_8">
    <path d="M 622.8 648 
L 622.8 552 
L 622.8 168 
L 622.8 72 
L 651.6 72 
L 651.6 168 
L 651.6 552 
L 651.6 648 
z
" style="fill:none;stroke:#000000;stroke-linejoin:miter;stroke-width:0.8;"/>
   </g>
  </g>
 </g>
 <defs>
  <clipPath id="p487961d4b4">
   <rect height="576" width="421.2" x="72" y="72"/>
  </clipPath>
  <clipPath id="pb4048ca2d8">
   <rect height="576" width="28.8" x="622.8" y="72"/>
  </clipPath>
 </defs>
</svg>
