<?xml version="1.0" encoding="utf-8" standalone="no"?>
<!DOCTYPE svg PUBLIC "-//W3C//DTD SVG 1.1//EN"
  "http://www.w3.org/Graphics/SVG/1.1/DTD/svg11.dtd">
<!-- Created with matplotlib (https://matplotlib.org/) -->
<svg height="720pt" version="1.1" viewBox="0 0 720 720" width="720pt" xmlns="http://www.w3.org/2000/svg" xmlns:xlink="http://www.w3.org/1999/xlink">
 <defs>
  <style type="text/css">
*{stroke-linecap:butt;stroke-linejoin:round;white-space:pre;}
  </style>
 </defs>
 <g id="figure_1">
  <g id="patch_1">
   <path d="M 0 720 
L 720 720 
L 720 0 
L 0 0 
z
" style="fill:#ffffff;"/>
  </g>
  <g id="axes_1">
   <g id="patch_2">
    <path d="M 72 648 
L 493.2 648 
L 493.2 72 
L 72 72 
z
" style="fill:#ffffff;"/>
   </g>
   <g id="PathCollection_1">
    <path clip-path="url(#p803885182b)" d="M 156.24 648 
L 240.48 648 
L 324.72 648 
L 332.852967 648 
L 324.72 647.681794 
L 240.48 639.966872 
L 156.24 606.311218 
L 96.2414 532.8 
L 72 430.293422 
L 72 532.8 
L 72 648 
z
" style="fill:#481f70;"/>
   </g>
   <g id="PathCollection_2">
    <path clip-path="url(#p803885182b)" d="M 156.24 606.311218 
L 240.48 639.966872 
L 324.72 647.681794 
L 332.852967 648 
L 408.96 648 
L 493.2 648 
L 493.2 618.248947 
L 408.96 584.641798 
L 340.295479 532.8 
L 324.72 525.915639 
L 240.48 442.761877 
L 222.732188 417.6 
L 172.279003 302.4 
L 157.244619 187.2 
L 156.24 173.506398 
L 130.744622 72 
L 72 72 
L 72 187.2 
L 72 302.4 
L 72 417.6 
L 72 430.293422 
L 96.2414 532.8 
z
" style="fill:#3b528b;"/>
   </g>
   <g id="PathCollection_3">
    <path clip-path="url(#p803885182b)" d="M 408.96 584.641798 
L 493.2 618.248947 
L 493.2 532.8 
L 493.2 506.73757 
L 408.96 427.345767 
L 399.998776 417.6 
L 324.72 309.691224 
L 320.057677 302.4 
L 262.605392 187.2 
L 244.172312 72 
L 240.48 72 
L 156.24 72 
L 130.744622 72 
L 156.24 173.506398 
L 157.244619 187.2 
L 172.279003 302.4 
L 222.732188 417.6 
L 240.48 442.761877 
L 324.72 525.915639 
L 340.295479 532.8 
z
" style="fill:#287c8e;"/>
   </g>
   <g id="PathCollection_4">
    <path clip-path="url(#p803885182b)" d="M 408.96 427.345767 
L 493.2 506.73757 
L 493.2 417.6 
L 493.2 359.874667 
L 447.996165 302.4 
L 408.96 219.077403 
L 389.789479 187.2 
L 342.016195 72 
L 324.72 72 
L 244.172312 72 
L 262.605392 187.2 
L 320.057677 302.4 
L 324.72 309.691224 
L 399.998776 417.6 
z
" style="fill:#20a486;"/>
   </g>
   <g id="PathCollection_5">
    <path clip-path="url(#p803885182b)" d="M 493.2 359.874667 
L 493.2 302.4 
L 493.2 187.2 
L 493.2 148.79319 
L 449.003496 72 
L 408.96 72 
L 342.016195 72 
L 389.789479 187.2 
L 408.96 219.077403 
L 447.996165 302.4 
z
" style="fill:#5ec962;"/>
   </g>
   <g id="PathCollection_6">
    <path clip-path="url(#p803885182b)" d="M 493.2 148.79319 
L 493.2 72 
L 449.003496 72 
z
" style="fill:#c8e020;"/>
   </g>
   <g id="matplotlib.axis_1">
    <g id="xtick_1">
     <g id="line2d_1">
      <defs>
       <path d="M 0 0 
L 0 3.5 
" id="mba6107e02c" style="stroke:#000000;stroke-width:0.8;"/>
      </defs>
      <g>
       <use style="stroke:#000000;stroke-width:0.8;" x="72" xlink:href="#mba6107e02c" y="648"/>
      </g>
     </g>
     <g id="text_1">
      <!-- 1 -->
      <defs>
       <path d="M 12.40625 8.296875 
L 28.515625 8.296875 
L 28.515625 63.921875 
L 10.984375 60.40625 
L 10.984375 69.390625 
L 28.421875 72.90625 
L 38.28125 72.90625 
L 38.28125 8.296875 
L 54.390625 8.296875 
L 54.390625 0 
L 12.40625 0 
z
" id="DejaVuSans-49"/>
      </defs>
      <g transform="translate(68.81875 689.098438)scale(0.1 -0.1)">
       <use xlink:href="#DejaVuSans-49"/>
      </g>
     </g>
    </g>
    <g id="xtick_2">
     <g id="line2d_2">
      <g>
       <use style="stroke:#000000;stroke-width:0.8;" x="156.24" xlink:href="#mba6107e02c" y="648"/>
      </g>
     </g>
     <g id="text_2">
      <!-- 2 -->
      <defs>
       <path d="M 19.1875 8.296875 
L 53.609375 8.296875 
L 53.609375 0 
L 7.328125 0 
L 7.328125 8.296875 
Q 12.9375 14.109375 22.625 23.890625 
Q 32.328125 33.6875 34.8125 36.53125 
Q 39.546875 41.84375 41.421875 45.53125 
Q 43.3125 49.21875 43.3125 52.78125 
Q 43.3125 58.59375 39.234375 62.25 
Q 35.15625 65.921875 28.609375 65.921875 
Q 23.96875 65.921875 18.8125 64.3125 
Q 13.671875 62.703125 7.8125 59.421875 
L 7.8125 69.390625 
Q 13.765625 71.78125 18.9375 73 
Q 24.125 74.21875 28.421875 74.21875 
Q 39.75 74.21875 46.484375 68.546875 
Q 53.21875 62.890625 53.21875 53.421875 
Q 53.21875 48.921875 51.53125 44.890625 
Q 49.859375 40.875 45.40625 35.40625 
Q 44.1875 33.984375 37.640625 27.21875 
Q 31.109375 20.453125 19.1875 8.296875 
z
" id="DejaVuSans-50"/>
      </defs>
      <g transform="translate(153.05875 689.098438)scale(0.1 -0.1)">
       <use xlink:href="#DejaVuSans-50"/>
      </g>
     </g>
    </g>
    <g id="xtick_3">
     <g id="line2d_3">
      <g>
       <use style="stroke:#000000;stroke-width:0.8;" x="240.48" xlink:href="#mba6107e02c" y="648"/>
      </g>
     </g>
     <g id="text_3">
      <!-- 3 -->
      <defs>
       <path d="M 40.578125 39.3125 
Q 47.65625 37.796875 51.625 33 
Q 55.609375 28.21875 55.609375 21.1875 
Q 55.609375 10.40625 48.1875 4.484375 
Q 40.765625 -1.421875 27.09375 -1.421875 
Q 22.515625 -1.421875 17.65625 -0.515625 
Q 12.796875 0.390625 7.625 2.203125 
L 7.625 11.71875 
Q 11.71875 9.328125 16.59375 8.109375 
Q 21.484375 6.890625 26.8125 6.890625 
Q 36.078125 6.890625 40.9375 10.546875 
Q 45.796875 14.203125 45.796875 21.1875 
Q 45.796875 27.640625 41.28125 31.265625 
Q 36.765625 34.90625 28.71875 34.90625 
L 20.21875 34.90625 
L 20.21875 43.015625 
L 29.109375 43.015625 
Q 36.375 43.015625 40.234375 45.921875 
Q 44.09375 48.828125 44.09375 54.296875 
Q 44.09375 59.90625 40.109375 62.90625 
Q 36.140625 65.921875 28.71875 65.921875 
Q 24.65625 65.921875 20.015625 65.03125 
Q 15.375 64.15625 9.8125 62.3125 
L 9.8125 71.09375 
Q 15.4375 72.65625 20.34375 73.4375 
Q 25.25 74.21875 29.59375 74.21875 
Q 40.828125 74.21875 47.359375 69.109375 
Q 53.90625 64.015625 53.90625 55.328125 
Q 53.90625 49.265625 50.4375 45.09375 
Q 46.96875 40.921875 40.578125 39.3125 
z
" id="DejaVuSans-51"/>
      </defs>
      <g transform="translate(237.29875 689.098438)scale(0.1 -0.1)">
       <use xlink:href="#DejaVuSans-51"/>
      </g>
     </g>
    </g>
    <g id="xtick_4">
     <g id="line2d_4">
      <g>
       <use style="stroke:#000000;stroke-width:0.8;" x="324.72" xlink:href="#mba6107e02c" y="648"/>
      </g>
     </g>
     <g id="text_4">
      <!-- 4 -->
      <defs>
       <path d="M 37.796875 64.3125 
L 12.890625 25.390625 
L 37.796875 25.390625 
z
M 35.203125 72.90625 
L 47.609375 72.90625 
L 47.609375 25.390625 
L 58.015625 25.390625 
L 58.015625 17.1875 
L 47.609375 17.1875 
L 47.609375 0 
L 37.796875 0 
L 37.796875 17.1875 
L 4.890625 17.1875 
L 4.890625 26.703125 
z
" id="DejaVuSans-52"/>
      </defs>
      <g transform="translate(321.53875 689.098438)scale(0.1 -0.1)">
       <use xlink:href="#DejaVuSans-52"/>
      </g>
     </g>
    </g>
    <g id="xtick_5">
     <g id="line2d_5">
      <g>
       <use style="stroke:#000000;stroke-width:0.8;" x="408.96" xlink:href="#mba6107e02c" y="648"/>
      </g>
     </g>
     <g id="text_5">
      <!-- 5 -->
      <defs>
       <path d="M 10.796875 72.90625 
L 49.515625 72.90625 
L 49.515625 64.59375 
L 19.828125 64.59375 
L 19.828125 46.734375 
Q 21.96875 47.46875 24.109375 47.828125 
Q 26.265625 48.1875 28.421875 48.1875 
Q 40.625 48.1875 47.75 41.5 
Q 54.890625 34.8125 54.890625 23.390625 
Q 54.890625 11.625 47.5625 5.09375 
Q 40.234375 -1.421875 26.90625 -1.421875 
Q 22.3125 -1.421875 17.546875 -0.640625 
Q 12.796875 0.140625 7.71875 1.703125 
L 7.71875 11.625 
Q 12.109375 9.234375 16.796875 8.0625 
Q 21.484375 6.890625 26.703125 6.890625 
Q 35.15625 6.890625 40.078125 11.328125 
Q 45.015625 15.765625 45.015625 23.390625 
Q 45.015625 31 40.078125 35.4375 
Q 35.15625 39.890625 26.703125 39.890625 
Q 22.75 39.890625 18.8125 39.015625 
Q 14.890625 38.140625 10.796875 36.28125 
z
" id="DejaVuSans-53"/>
      </defs>
      <g transform="translate(405.77875 689.098438)scale(0.1 -0.1)">
       <use xlink:href="#DejaVuSans-53"/>
      </g>
     </g>
    </g>
    <g id="xtick_6">
     <g id="line2d_6">
      <g>
       <use style="stroke:#000000;stroke-width:0.8;" x="493.2" xlink:href="#mba6107e02c" y="648"/>
      </g>
     </g>
     <g id="text_6">
      <!-- 6 -->
      <defs>
       <path d="M 33.015625 40.375 
Q 26.375 40.375 22.484375 35.828125 
Q 18.609375 31.296875 18.609375 23.390625 
Q 18.609375 15.53125 22.484375 10.953125 
Q 26.375 6.390625 33.015625 6.390625 
Q 39.65625 6.390625 43.53125 10.953125 
Q 47.40625 15.53125 47.40625 23.390625 
Q 47.40625 31.296875 43.53125 35.828125 
Q 39.65625 40.375 33.015625 40.375 
z
M 52.59375 71.296875 
L 52.59375 62.3125 
Q 48.875 64.0625 45.09375 64.984375 
Q 41.3125 65.921875 37.59375 65.921875 
Q 27.828125 65.921875 22.671875 59.328125 
Q 17.53125 52.734375 16.796875 39.40625 
Q 19.671875 43.65625 24.015625 45.921875 
Q 28.375 48.1875 33.59375 48.1875 
Q 44.578125 48.1875 50.953125 41.515625 
Q 57.328125 34.859375 57.328125 23.390625 
Q 57.328125 12.15625 50.6875 5.359375 
Q 44.046875 -1.421875 33.015625 -1.421875 
Q 20.359375 -1.421875 13.671875 8.265625 
Q 6.984375 17.96875 6.984375 36.375 
Q 6.984375 53.65625 15.1875 63.9375 
Q 23.390625 74.21875 37.203125 74.21875 
Q 40.921875 74.21875 44.703125 73.484375 
Q 48.484375 72.75 52.59375 71.296875 
z
" id="DejaVuSans-54"/>
      </defs>
      <g transform="translate(490.01875 689.098438)scale(0.1 -0.1)">
       <use xlink:href="#DejaVuSans-54"/>
      </g>
     </g>
    </g>
    <g id="text_7">
     <!-- payload breadth -->
     <defs>
      <path d="M 18.109375 8.203125 
L 18.109375 -20.796875 
L 9.078125 -20.796875 
L 9.078125 54.6875 
L 18.109375 54.6875 
L 18.109375 46.390625 
Q 20.953125 51.265625 25.265625 53.625 
Q 29.59375 56 35.59375 56 
Q 45.5625 56 51.78125 48.09375 
Q 58.015625 40.1875 58.015625 27.296875 
Q 58.015625 14.40625 51.78125 6.484375 
Q 45.5625 -1.421875 35.59375 -1.421875 
Q 29.59375 -1.421875 25.265625 0.953125 
Q 20.953125 3.328125 18.109375 8.203125 
z
M 48.6875 27.296875 
Q 48.6875 37.203125 44.609375 42.84375 
Q 40.53125 48.484375 33.40625 48.484375 
Q 26.265625 48.484375 22.1875 42.84375 
Q 18.109375 37.203125 18.109375 27.296875 
Q 18.109375 17.390625 22.1875 11.75 
Q 26.265625 6.109375 33.40625 6.109375 
Q 40.53125 6.109375 44.609375 11.75 
Q 48.6875 17.390625 48.6875 27.296875 
z
" id="DejaVuSans-112"/>
      <path d="M 34.28125 27.484375 
Q 23.390625 27.484375 19.1875 25 
Q 14.984375 22.515625 14.984375 16.5 
Q 14.984375 11.71875 18.140625 8.90625 
Q 21.296875 6.109375 26.703125 6.109375 
Q 34.1875 6.109375 38.703125 11.40625 
Q 43.21875 16.703125 43.21875 25.484375 
L 43.21875 27.484375 
z
M 52.203125 31.203125 
L 52.203125 0 
L 43.21875 0 
L 43.21875 8.296875 
Q 40.140625 3.328125 35.546875 0.953125 
Q 30.953125 -1.421875 24.3125 -1.421875 
Q 15.921875 -1.421875 10.953125 3.296875 
Q 6 8.015625 6 15.921875 
Q 6 25.140625 12.171875 29.828125 
Q 18.359375 34.515625 30.609375 34.515625 
L 43.21875 34.515625 
L 43.21875 35.40625 
Q 43.21875 41.609375 39.140625 45 
Q 35.0625 48.390625 27.6875 48.390625 
Q 23 48.390625 18.546875 47.265625 
Q 14.109375 46.140625 10.015625 43.890625 
L 10.015625 52.203125 
Q 14.9375 54.109375 19.578125 55.046875 
Q 24.21875 56 28.609375 56 
Q 40.484375 56 46.34375 49.84375 
Q 52.203125 43.703125 52.203125 31.203125 
z
" id="DejaVuSans-97"/>
      <path d="M 32.171875 -5.078125 
Q 28.375 -14.84375 24.75 -17.8125 
Q 21.140625 -20.796875 15.09375 -20.796875 
L 7.90625 -20.796875 
L 7.90625 -13.28125 
L 13.1875 -13.28125 
Q 16.890625 -13.28125 18.9375 -11.515625 
Q 21 -9.765625 23.484375 -3.21875 
L 25.09375 0.875 
L 2.984375 54.6875 
L 12.5 54.6875 
L 29.59375 11.921875 
L 46.6875 54.6875 
L 56.203125 54.6875 
z
" id="DejaVuSans-121"/>
      <path d="M 9.421875 75.984375 
L 18.40625 75.984375 
L 18.40625 0 
L 9.421875 0 
z
" id="DejaVuSans-108"/>
      <path d="M 30.609375 48.390625 
Q 23.390625 48.390625 19.1875 42.75 
Q 14.984375 37.109375 14.984375 27.296875 
Q 14.984375 17.484375 19.15625 11.84375 
Q 23.34375 6.203125 30.609375 6.203125 
Q 37.796875 6.203125 41.984375 11.859375 
Q 46.1875 17.53125 46.1875 27.296875 
Q 46.1875 37.015625 41.984375 42.703125 
Q 37.796875 48.390625 30.609375 48.390625 
z
M 30.609375 56 
Q 42.328125 56 49.015625 48.375 
Q 55.71875 40.765625 55.71875 27.296875 
Q 55.71875 13.875 49.015625 6.21875 
Q 42.328125 -1.421875 30.609375 -1.421875 
Q 18.84375 -1.421875 12.171875 6.21875 
Q 5.515625 13.875 5.515625 27.296875 
Q 5.515625 40.765625 12.171875 48.375 
Q 18.84375 56 30.609375 56 
z
" id="DejaVuSans-111"/>
      <path d="M 45.40625 46.390625 
L 45.40625 75.984375 
L 54.390625 75.984375 
L 54.390625 0 
L 45.40625 0 
L 45.40625 8.203125 
Q 42.578125 3.328125 38.25 0.953125 
Q 33.9375 -1.421875 27.875 -1.421875 
Q 17.96875 -1.421875 11.734375 6.484375 
Q 5.515625 14.40625 5.515625 27.296875 
Q 5.515625 40.1875 11.734375 48.09375 
Q 17.96875 56 27.875 56 
Q 33.9375 56 38.25 53.625 
Q 42.578125 51.265625 45.40625 46.390625 
z
M 14.796875 27.296875 
Q 14.796875 17.390625 18.875 11.75 
Q 22.953125 6.109375 30.078125 6.109375 
Q 37.203125 6.109375 41.296875 11.75 
Q 45.40625 17.390625 45.40625 27.296875 
Q 45.40625 37.203125 41.296875 42.84375 
Q 37.203125 48.484375 30.078125 48.484375 
Q 22.953125 48.484375 18.875 42.84375 
Q 14.796875 37.203125 14.796875 27.296875 
z
" id="DejaVuSans-100"/>
      <path id="DejaVuSans-32"/>
      <path d="M 48.6875 27.296875 
Q 48.6875 37.203125 44.609375 42.84375 
Q 40.53125 48.484375 33.40625 48.484375 
Q 26.265625 48.484375 22.1875 42.84375 
Q 18.109375 37.203125 18.109375 27.296875 
Q 18.109375 17.390625 22.1875 11.75 
Q 26.265625 6.109375 33.40625 6.109375 
Q 40.53125 6.109375 44.609375 11.75 
Q 48.6875 17.390625 48.6875 27.296875 
z
M 18.109375 46.390625 
Q 20.953125 51.265625 25.265625 53.625 
Q 29.59375 56 35.59375 56 
Q 45.5625 56 51.78125 48.09375 
Q 58.015625 40.1875 58.015625 27.296875 
Q 58.015625 14.40625 51.78125 6.484375 
Q 45.5625 -1.421875 35.59375 -1.421875 
Q 29.59375 -1.421875 25.265625 0.953125 
Q 20.953125 3.328125 18.109375 8.203125 
L 18.109375 0 
L 9.078125 0 
L 9.078125 75.984375 
L 18.109375 75.984375 
z
" id="DejaVuSans-98"/>
      <path d="M 41.109375 46.296875 
Q 39.59375 47.171875 37.8125 47.578125 
Q 36.03125 48 33.890625 48 
Q 26.265625 48 22.1875 43.046875 
Q 18.109375 38.09375 18.109375 28.8125 
L 18.109375 0 
L 9.078125 0 
L 9.078125 54.6875 
L 18.109375 54.6875 
L 18.109375 46.1875 
Q 20.953125 51.171875 25.484375 53.578125 
Q 30.03125 56 36.53125 56 
Q 37.453125 56 38.578125 55.875 
Q 39.703125 55.765625 41.0625 55.515625 
z
" id="DejaVuSans-114"/>
      <path d="M 56.203125 29.59375 
L 56.203125 25.203125 
L 14.890625 25.203125 
Q 15.484375 15.921875 20.484375 11.0625 
Q 25.484375 6.203125 34.421875 6.203125 
Q 39.59375 6.203125 44.453125 7.46875 
Q 49.3125 8.734375 54.109375 11.28125 
L 54.109375 2.78125 
Q 49.265625 0.734375 44.1875 -0.34375 
Q 39.109375 -1.421875 33.890625 -1.421875 
Q 20.796875 -1.421875 13.15625 6.1875 
Q 5.515625 13.8125 5.515625 26.8125 
Q 5.515625 40.234375 12.765625 48.109375 
Q 20.015625 56 32.328125 56 
Q 43.359375 56 49.78125 48.890625 
Q 56.203125 41.796875 56.203125 29.59375 
z
M 47.21875 32.234375 
Q 47.125 39.59375 43.09375 43.984375 
Q 39.0625 48.390625 32.421875 48.390625 
Q 24.90625 48.390625 20.390625 44.140625 
Q 15.875 39.890625 15.1875 32.171875 
z
" id="DejaVuSans-101"/>
      <path d="M 18.3125 70.21875 
L 18.3125 54.6875 
L 36.8125 54.6875 
L 36.8125 47.703125 
L 18.3125 47.703125 
L 18.3125 18.015625 
Q 18.3125 11.328125 20.140625 9.421875 
Q 21.96875 7.515625 27.59375 7.515625 
L 36.8125 7.515625 
L 36.8125 0 
L 27.59375 0 
Q 17.1875 0 13.234375 3.875 
Q 9.28125 7.765625 9.28125 18.015625 
L 9.28125 47.703125 
L 2.6875 47.703125 
L 2.6875 54.6875 
L 9.28125 54.6875 
L 9.28125 70.21875 
z
" id="DejaVuSans-116"/>
      <path d="M 54.890625 33.015625 
L 54.890625 0 
L 45.90625 0 
L 45.90625 32.71875 
Q 45.90625 40.484375 42.875 44.328125 
Q 39.84375 48.1875 33.796875 48.1875 
Q 26.515625 48.1875 22.3125 43.546875 
Q 18.109375 38.921875 18.109375 30.90625 
L 18.109375 0 
L 9.078125 0 
L 9.078125 75.984375 
L 18.109375 75.984375 
L 18.109375 46.1875 
Q 21.34375 51.125 25.703125 53.5625 
Q 30.078125 56 35.796875 56 
Q 45.21875 56 50.046875 50.171875 
Q 54.890625 44.34375 54.890625 33.015625 
z
" id="DejaVuSans-104"/>
     </defs>
     <g transform="translate(241.454687 702.776563)scale(0.1 -0.1)">
      <use xlink:href="#DejaVuSans-112"/>
      <use x="63.476562" xlink:href="#DejaVuSans-97"/>
      <use x="124.755859" xlink:href="#DejaVuSans-121"/>
      <use x="183.935547" xlink:href="#DejaVuSans-108"/>
      <use x="211.71875" xlink:href="#DejaVuSans-111"/>
      <use x="272.900391" xlink:href="#DejaVuSans-97"/>
      <use x="334.179688" xlink:href="#DejaVuSans-100"/>
      <use x="397.65625" xlink:href="#DejaVuSans-32"/>
      <use x="429.443359" xlink:href="#DejaVuSans-98"/>
      <use x="492.919922" xlink:href="#DejaVuSans-114"/>
      <use x="534.001953" xlink:href="#DejaVuSans-101"/>
      <use x="595.525391" xlink:href="#DejaVuSans-97"/>
      <use x="656.804688" xlink:href="#DejaVuSans-100"/>
      <use x="720.28125" xlink:href="#DejaVuSans-116"/>
      <use x="759.490234" xlink:href="#DejaVuSans-104"/>
     </g>
    </g>
   </g>
   <g id="matplotlib.axis_2">
    <g id="ytick_1">
     <g id="line2d_7">
      <defs>
       <path d="M 0 0 
L -3.5 0 
" id="mf0d339d44e" style="stroke:#000000;stroke-width:0.8;"/>
      </defs>
      <g>
       <use style="stroke:#000000;stroke-width:0.8;" x="72" xlink:href="#mf0d339d44e" y="648"/>
      </g>
     </g>
     <g id="text_8">
      <!-- 1 -->
      <g transform="translate(32.1375 651.799219)scale(0.1 -0.1)">
       <use xlink:href="#DejaVuSans-49"/>
      </g>
     </g>
    </g>
    <g id="ytick_2">
     <g id="line2d_8">
      <g>
       <use style="stroke:#000000;stroke-width:0.8;" x="72" xlink:href="#mf0d339d44e" y="532.8"/>
      </g>
     </g>
     <g id="text_9">
      <!-- 2 -->
      <g transform="translate(32.1375 536.599219)scale(0.1 -0.1)">
       <use xlink:href="#DejaVuSans-50"/>
      </g>
     </g>
    </g>
    <g id="ytick_3">
     <g id="line2d_9">
      <g>
       <use style="stroke:#000000;stroke-width:0.8;" x="72" xlink:href="#mf0d339d44e" y="417.6"/>
      </g>
     </g>
     <g id="text_10">
      <!-- 3 -->
      <g transform="translate(32.1375 421.399219)scale(0.1 -0.1)">
       <use xlink:href="#DejaVuSans-51"/>
      </g>
     </g>
    </g>
    <g id="ytick_4">
     <g id="line2d_10">
      <g>
       <use style="stroke:#000000;stroke-width:0.8;" x="72" xlink:href="#mf0d339d44e" y="302.4"/>
      </g>
     </g>
     <g id="text_11">
      <!-- 4 -->
      <g transform="translate(32.1375 306.199219)scale(0.1 -0.1)">
       <use xlink:href="#DejaVuSans-52"/>
      </g>
     </g>
    </g>
    <g id="ytick_5">
     <g id="line2d_11">
      <g>
       <use style="stroke:#000000;stroke-width:0.8;" x="72" xlink:href="#mf0d339d44e" y="187.2"/>
      </g>
     </g>
     <g id="text_12">
      <!-- 5 -->
      <g transform="translate(32.1375 190.999219)scale(0.1 -0.1)">
       <use xlink:href="#DejaVuSans-53"/>
      </g>
     </g>
    </g>
    <g id="ytick_6">
     <g id="line2d_12">
      <g>
       <use style="stroke:#000000;stroke-width:0.8;" x="72" xlink:href="#mf0d339d44e" y="72"/>
      </g>
     </g>
     <g id="text_13">
      <!-- 6 -->
      <g transform="translate(32.1375 75.799219)scale(0.1 -0.1)">
       <use xlink:href="#DejaVuSans-54"/>
      </g>
     </g>
    </g>
    <g id="text_14">
     <!-- payload depth -->
     <g transform="translate(26.057813 396.027344)rotate(-90)scale(0.1 -0.1)">
      <use xlink:href="#DejaVuSans-112"/>
      <use x="63.476562" xlink:href="#DejaVuSans-97"/>
      <use x="124.755859" xlink:href="#DejaVuSans-121"/>
      <use x="183.935547" xlink:href="#DejaVuSans-108"/>
      <use x="211.71875" xlink:href="#DejaVuSans-111"/>
      <use x="272.900391" xlink:href="#DejaVuSans-97"/>
      <use x="334.179688" xlink:href="#DejaVuSans-100"/>
      <use x="397.65625" xlink:href="#DejaVuSans-32"/>
      <use x="429.443359" xlink:href="#DejaVuSans-100"/>
      <use x="492.919922" xlink:href="#DejaVuSans-101"/>
      <use x="554.443359" xlink:href="#DejaVuSans-112"/>
      <use x="617.919922" xlink:href="#DejaVuSans-116"/>
      <use x="657.128906" xlink:href="#DejaVuSans-104"/>
     </g>
    </g>
   </g>
   <g id="patch_3">
    <path d="M 72 648 
L 72 72 
" style="fill:none;stroke:#000000;stroke-linecap:square;stroke-linejoin:miter;stroke-width:0.8;"/>
   </g>
   <g id="patch_4">
    <path d="M 493.2 648 
L 493.2 72 
" style="fill:none;stroke:#000000;stroke-linecap:square;stroke-linejoin:miter;stroke-width:0.8;"/>
   </g>
   <g id="patch_5">
    <path d="M 72 648 
L 493.2 648 
" style="fill:none;stroke:#000000;stroke-linecap:square;stroke-linejoin:miter;stroke-width:0.8;"/>
   </g>
   <g id="patch_6">
    <path d="M 72 72 
L 493.2 72 
" style="fill:none;stroke:#000000;stroke-linecap:square;stroke-linejoin:miter;stroke-width:0.8;"/>
   </g>
   <g id="text_15">
    <!-- nokia2-chrome -->
    <defs>
     <path d="M 54.890625 33.015625 
L 54.890625 0 
L 45.90625 0 
L 45.90625 32.71875 
Q 45.90625 40.484375 42.875 44.328125 
Q 39.84375 48.1875 33.796875 48.1875 
Q 26.515625 48.1875 22.3125 43.546875 
Q 18.109375 38.921875 18.109375 30.90625 
L 18.109375 0 
L 9.078125 0 
L 9.078125 54.6875 
L 18.109375 54.6875 
L 18.109375 46.1875 
Q 21.34375 51.125 25.703125 53.5625 
Q 30.078125 56 35.796875 56 
Q 45.21875 56 50.046875 50.171875 
Q 54.890625 44.34375 54.890625 33.015625 
z
" id="DejaVuSans-110"/>
     <path d="M 9.078125 75.984375 
L 18.109375 75.984375 
L 18.109375 31.109375 
L 44.921875 54.6875 
L 56.390625 54.6875 
L 27.390625 29.109375 
L 57.625 0 
L 45.90625 0 
L 18.109375 26.703125 
L 18.109375 0 
L 9.078125 0 
z
" id="DejaVuSans-107"/>
     <path d="M 9.421875 54.6875 
L 18.40625 54.6875 
L 18.40625 0 
L 9.421875 0 
z
M 9.421875 75.984375 
L 18.40625 75.984375 
L 18.40625 64.59375 
L 9.421875 64.59375 
z
" id="DejaVuSans-105"/>
     <path d="M 4.890625 31.390625 
L 31.203125 31.390625 
L 31.203125 23.390625 
L 4.890625 23.390625 
z
" id="DejaVuSans-45"/>
     <path d="M 48.78125 52.59375 
L 48.78125 44.1875 
Q 44.96875 46.296875 41.140625 47.34375 
Q 37.3125 48.390625 33.40625 48.390625 
Q 24.65625 48.390625 19.8125 42.84375 
Q 14.984375 37.3125 14.984375 27.296875 
Q 14.984375 17.28125 19.8125 11.734375 
Q 24.65625 6.203125 33.40625 6.203125 
Q 37.3125 6.203125 41.140625 7.25 
Q 44.96875 8.296875 48.78125 10.40625 
L 48.78125 2.09375 
Q 45.015625 0.34375 40.984375 -0.53125 
Q 36.96875 -1.421875 32.421875 -1.421875 
Q 20.0625 -1.421875 12.78125 6.34375 
Q 5.515625 14.109375 5.515625 27.296875 
Q 5.515625 40.671875 12.859375 48.328125 
Q 20.21875 56 33.015625 56 
Q 37.15625 56 41.109375 55.140625 
Q 45.0625 54.296875 48.78125 52.59375 
z
" id="DejaVuSans-99"/>
     <path d="M 52 44.1875 
Q 55.375 50.25 60.0625 53.125 
Q 64.75 56 71.09375 56 
Q 79.640625 56 84.28125 50.015625 
Q 88.921875 44.046875 88.921875 33.015625 
L 88.921875 0 
L 79.890625 0 
L 79.890625 32.71875 
Q 79.890625 40.578125 77.09375 44.375 
Q 74.3125 48.1875 68.609375 48.1875 
Q 61.625 48.1875 57.5625 43.546875 
Q 53.515625 38.921875 53.515625 30.90625 
L 53.515625 0 
L 44.484375 0 
L 44.484375 32.71875 
Q 44.484375 40.625 41.703125 44.40625 
Q 38.921875 48.1875 33.109375 48.1875 
Q 26.21875 48.1875 22.15625 43.53125 
Q 18.109375 38.875 18.109375 30.90625 
L 18.109375 0 
L 9.078125 0 
L 9.078125 54.6875 
L 18.109375 54.6875 
L 18.109375 46.1875 
Q 21.1875 51.21875 25.484375 53.609375 
Q 29.78125 56 35.6875 56 
Q 41.65625 56 45.828125 52.96875 
Q 50 49.953125 52 44.1875 
z
" id="DejaVuSans-109"/>
    </defs>
    <g transform="translate(237.552187 22)scale(0.12 -0.12)">
     <use xlink:href="#DejaVuSans-110"/>
     <use x="63.378906" xlink:href="#DejaVuSans-111"/>
     <use x="124.560547" xlink:href="#DejaVuSans-107"/>
     <use x="182.470703" xlink:href="#DejaVuSans-105"/>
     <use x="210.253906" xlink:href="#DejaVuSans-97"/>
     <use x="271.533203" xlink:href="#DejaVuSans-50"/>
     <use x="335.15625" xlink:href="#DejaVuSans-45"/>
     <use x="371.240234" xlink:href="#DejaVuSans-99"/>
     <use x="426.220703" xlink:href="#DejaVuSans-104"/>
     <use x="489.599609" xlink:href="#DejaVuSans-114"/>
     <use x="530.681641" xlink:href="#DejaVuSans-111"/>
     <use x="591.863281" xlink:href="#DejaVuSans-109"/>
     <use x="689.275391" xlink:href="#DejaVuSans-101"/>
    </g>
   </g>
   <g id="PathCollection_7">
    <path d="M 72 671.5963 
C 78.257812 671.5963 84.260162 669.110045 88.685103 664.685103 
C 93.110045 660.260162 95.5963 654.257812 95.5963 648 
C 95.5963 641.742188 93.110045 635.739838 88.685103 631.314897 
C 84.260162 626.889955 78.257812 624.4037 72 624.4037 
C 65.742188 624.4037 59.739838 626.889955 55.314897 631.314897 
C 50.889955 635.739838 48.4037 641.742188 48.4037 648 
C 48.4037 654.257812 50.889955 660.260162 55.314897 664.685103 
C 59.739838 669.110045 65.742188 671.5963 72 671.5963 
z
" style="fill:#fb7d5d;fill-opacity:0.8;stroke:#fb7d5d;stroke-opacity:0.8;"/>
    <path d="M 72 556.3963 
C 78.257812 556.3963 84.260162 553.910045 88.685103 549.485103 
C 93.110045 545.060162 95.5963 539.057812 95.5963 532.8 
C 95.5963 526.542188 93.110045 520.539838 88.685103 516.114897 
C 84.260162 511.689955 78.257812 509.2037 72 509.2037 
C 65.742188 509.2037 59.739838 511.689955 55.314897 516.114897 
C 50.889955 520.539838 48.4037 526.542188 48.4037 532.8 
C 48.4037 539.057812 50.889955 545.060162 55.314897 549.485103 
C 59.739838 553.910045 65.742188 556.3963 72 556.3963 
z
" style="fill:#fb7d5d;fill-opacity:0.8;stroke:#fb7d5d;stroke-opacity:0.8;"/>
    <path d="M 72 441.1963 
C 78.257812 441.1963 84.260162 438.710045 88.685103 434.285103 
C 93.110045 429.860162 95.5963 423.857812 95.5963 417.6 
C 95.5963 411.342188 93.110045 405.339838 88.685103 400.914897 
C 84.260162 396.489955 78.257812 394.0037 72 394.0037 
C 65.742188 394.0037 59.739838 396.489955 55.314897 400.914897 
C 50.889955 405.339838 48.4037 411.342188 48.4037 417.6 
C 48.4037 423.857812 50.889955 429.860162 55.314897 434.285103 
C 59.739838 438.710045 65.742188 441.1963 72 441.1963 
z
" style="fill:#fb7d5d;fill-opacity:0.8;stroke:#fb7d5d;stroke-opacity:0.8;"/>
    <path d="M 72 325.9963 
C 78.257812 325.9963 84.260162 323.510045 88.685103 319.085103 
C 93.110045 314.660162 95.5963 308.657812 95.5963 302.4 
C 95.5963 296.142188 93.110045 290.139838 88.685103 285.714897 
C 84.260162 281.289955 78.257812 278.8037 72 278.8037 
C 65.742188 278.8037 59.739838 281.289955 55.314897 285.714897 
C 50.889955 290.139838 48.4037 296.142188 48.4037 302.4 
C 48.4037 308.657812 50.889955 314.660162 55.314897 319.085103 
C 59.739838 323.510045 65.742188 325.9963 72 325.9963 
z
" style="fill:#fb7d5d;fill-opacity:0.8;stroke:#fb7d5d;stroke-opacity:0.8;"/>
    <path d="M 72 210.7963 
C 78.257812 210.7963 84.260162 208.310045 88.685103 203.885103 
C 93.110045 199.460162 95.5963 193.457812 95.5963 187.2 
C 95.5963 180.942188 93.110045 174.939838 88.685103 170.514897 
C 84.260162 166.089955 78.257812 163.6037 72 163.6037 
C 65.742188 163.6037 59.739838 166.089955 55.314897 170.514897 
C 50.889955 174.939838 48.4037 180.942188 48.4037 187.2 
C 48.4037 193.457812 50.889955 199.460162 55.314897 203.885103 
C 59.739838 208.310045 65.742188 210.7963 72 210.7963 
z
" style="fill:#fb7d5d;fill-opacity:0.8;stroke:#fb7d5d;stroke-opacity:0.8;"/>
    <path d="M 72 95.5963 
C 78.257812 95.5963 84.260162 93.110045 88.685103 88.685103 
C 93.110045 84.260162 95.5963 78.257812 95.5963 72 
C 95.5963 65.742188 93.110045 59.739838 88.685103 55.314897 
C 84.260162 50.889955 78.257812 48.4037 72 48.4037 
C 65.742188 48.4037 59.739838 50.889955 55.314897 55.314897 
C 50.889955 59.739838 48.4037 65.742188 48.4037 72 
C 48.4037 78.257812 50.889955 84.260162 55.314897 88.685103 
C 59.739838 93.110045 65.742188 95.5963 72 95.5963 
z
" style="fill:#fb7d5d;fill-opacity:0.8;stroke:#fb7d5d;stroke-opacity:0.8;"/>
    <path d="M 156.24 671.5963 
C 162.497812 671.5963 168.500162 669.110045 172.925103 664.685103 
C 177.350045 660.260162 179.8363 654.257812 179.8363 648 
C 179.8363 641.742188 177.350045 635.739838 172.925103 631.314897 
C 168.500162 626.889955 162.497812 624.4037 156.24 624.4037 
C 149.982188 624.4037 143.979838 626.889955 139.554897 631.314897 
C 135.129955 635.739838 132.6437 641.742188 132.6437 648 
C 132.6437 654.257812 135.129955 660.260162 139.554897 664.685103 
C 143.979838 669.110045 149.982188 671.5963 156.24 671.5963 
z
" style="fill:#fb7d5d;fill-opacity:0.8;stroke:#fb7d5d;stroke-opacity:0.8;"/>
    <path d="M 156.24 556.3963 
C 162.497812 556.3963 168.500162 553.910045 172.925103 549.485103 
C 177.350045 545.060162 179.8363 539.057812 179.8363 532.8 
C 179.8363 526.542188 177.350045 520.539838 172.925103 516.114897 
C 168.500162 511.689955 162.497812 509.2037 156.24 509.2037 
C 149.982188 509.2037 143.979838 511.689955 139.554897 516.114897 
C 135.129955 520.539838 132.6437 526.542188 132.6437 532.8 
C 132.6437 539.057812 135.129955 545.060162 139.554897 549.485103 
C 143.979838 553.910045 149.982188 556.3963 156.24 556.3963 
z
" style="fill:#fb7d5d;fill-opacity:0.8;stroke:#fb7d5d;stroke-opacity:0.8;"/>
    <path d="M 156.24 442.240474 
C 162.77473 442.240474 169.042694 439.644198 173.663446 435.023446 
C 178.284198 430.402694 180.880474 424.13473 180.880474 417.6 
C 180.880474 411.06527 178.284198 404.797306 173.663446 400.176554 
C 169.042694 395.555802 162.77473 392.959526 156.24 392.959526 
C 149.70527 392.959526 143.437306 395.555802 138.816554 400.176554 
C 134.195802 404.797306 131.599526 411.06527 131.599526 417.6 
C 131.599526 424.13473 134.195802 430.402694 138.816554 435.023446 
C 143.437306 439.644198 149.70527 442.240474 156.24 442.240474 
z
" style="fill:#fb7656;fill-opacity:0.8;stroke:#fb7656;stroke-opacity:0.8;"/>
    <path d="M 156.24 327.040474 
C 162.77473 327.040474 169.042694 324.444198 173.663446 319.823446 
C 178.284198 315.202694 180.880474 308.93473 180.880474 302.4 
C 180.880474 295.86527 178.284198 289.597306 173.663446 284.976554 
C 169.042694 280.355802 162.77473 277.759526 156.24 277.759526 
C 149.70527 277.759526 143.437306 280.355802 138.816554 284.976554 
C 134.195802 289.597306 131.599526 295.86527 131.599526 302.4 
C 131.599526 308.93473 134.195802 315.202694 138.816554 319.823446 
C 143.437306 324.444198 149.70527 327.040474 156.24 327.040474 
z
" style="fill:#fb7656;fill-opacity:0.8;stroke:#fb7656;stroke-opacity:0.8;"/>
    <path d="M 156.24 212.682115 
C 162.997936 212.682115 169.479994 209.997158 174.258576 205.218576 
C 179.037158 200.439994 181.722115 193.957936 181.722115 187.2 
C 181.722115 180.442064 179.037158 173.960006 174.258576 169.181424 
C 169.479994 164.402842 162.997936 161.717885 156.24 161.717885 
C 149.482064 161.717885 143.000006 164.402842 138.221424 169.181424 
C 133.442842 173.960006 130.757885 180.442064 130.757885 187.2 
C 130.757885 193.957936 133.442842 200.439994 138.221424 205.218576 
C 143.000006 209.997158 149.482064 212.682115 156.24 212.682115 
z
" style="fill:#fb7050;fill-opacity:0.8;stroke:#fb7050;stroke-opacity:0.8;"/>
    <path d="M 156.24 98.805871 
C 163.349 98.805871 170.167791 95.981435 175.194613 90.954613 
C 180.221435 85.927791 183.045871 79.109 183.045871 72 
C 183.045871 64.891 180.221435 58.072209 175.194613 53.045387 
C 170.167791 48.018565 163.349 45.194129 156.24 45.194129 
C 149.131 45.194129 142.312209 48.018565 137.285387 53.045387 
C 132.258565 58.072209 129.434129 64.891 129.434129 72 
C 129.434129 79.109 132.258565 85.927791 137.285387 90.954613 
C 142.312209 95.981435 149.131 98.805871 156.24 98.805871 
z
" style="fill:#fa6849;fill-opacity:0.8;stroke:#fa6849;stroke-opacity:0.8;"/>
    <path d="M 240.48 671.5963 
C 246.737812 671.5963 252.740162 669.110045 257.165103 664.685103 
C 261.590045 660.260162 264.0763 654.257812 264.0763 648 
C 264.0763 641.742188 261.590045 635.739838 257.165103 631.314897 
C 252.740162 626.889955 246.737812 624.4037 240.48 624.4037 
C 234.222188 624.4037 228.219838 626.889955 223.794897 631.314897 
C 219.369955 635.739838 216.8837 641.742188 216.8837 648 
C 216.8837 654.257812 219.369955 660.260162 223.794897 664.685103 
C 228.219838 669.110045 234.222188 671.5963 240.48 671.5963 
z
" style="fill:#fb7d5d;fill-opacity:0.8;stroke:#fb7d5d;stroke-opacity:0.8;"/>
    <path d="M 240.48 557.440474 
C 247.01473 557.440474 253.282694 554.844198 257.903446 550.223446 
C 262.524198 545.602694 265.120474 539.33473 265.120474 532.8 
C 265.120474 526.26527 262.524198 519.997306 257.903446 515.376554 
C 253.282694 510.755802 247.01473 508.159526 240.48 508.159526 
C 233.94527 508.159526 227.677306 510.755802 223.056554 515.376554 
C 218.435802 519.997306 215.839526 526.26527 215.839526 532.8 
C 215.839526 539.33473 218.435802 545.602694 223.056554 550.223446 
C 227.677306 554.844198 233.94527 557.440474 240.48 557.440474 
z
" style="fill:#fb7656;fill-opacity:0.8;stroke:#fb7656;stroke-opacity:0.8;"/>
    <path d="M 240.48 442.240474 
C 247.01473 442.240474 253.282694 439.644198 257.903446 435.023446 
C 262.524198 430.402694 265.120474 424.13473 265.120474 417.6 
C 265.120474 411.06527 262.524198 404.797306 257.903446 400.176554 
C 253.282694 395.555802 247.01473 392.959526 240.48 392.959526 
C 233.94527 392.959526 227.677306 395.555802 223.056554 400.176554 
C 218.435802 404.797306 215.839526 411.06527 215.839526 417.6 
C 215.839526 424.13473 218.435802 430.402694 223.056554 435.023446 
C 227.677306 439.644198 233.94527 442.240474 240.48 442.240474 
z
" style="fill:#fb7656;fill-opacity:0.8;stroke:#fb7656;stroke-opacity:0.8;"/>
    <path d="M 240.48 328.902695 
C 247.508597 328.902695 254.250267 326.110204 259.220235 321.140235 
C 264.190204 316.170267 266.982695 309.428597 266.982695 302.4 
C 266.982695 295.371403 264.190204 288.629733 259.220235 283.659765 
C 254.250267 278.689796 247.508597 275.897305 240.48 275.897305 
C 233.451403 275.897305 226.709733 278.689796 221.739765 283.659765 
C 216.769796 288.629733 213.977305 295.371403 213.977305 302.4 
C 213.977305 309.428597 216.769796 316.170267 221.739765 321.140235 
C 226.709733 326.110204 233.451403 328.902695 240.48 328.902695 
z
" style="fill:#fb694a;fill-opacity:0.8;stroke:#fb694a;stroke-opacity:0.8;"/>
    <path d="M 240.48 216.2712 
C 248.189772 216.2712 255.58481 213.208075 261.036443 207.756443 
C 266.488075 202.30481 269.5512 194.909772 269.5512 187.2 
C 269.5512 179.490228 266.488075 172.09519 261.036443 166.643557 
C 255.58481 161.191925 248.189772 158.1288 240.48 158.1288 
C 232.770228 158.1288 225.37519 161.191925 219.923557 166.643557 
C 214.471925 172.09519 211.4088 179.490228 211.4088 187.2 
C 211.4088 194.909772 214.471925 202.30481 219.923557 207.756443 
C 225.37519 213.208075 232.770228 216.2712 240.48 216.2712 
z
" style="fill:#f6583e;fill-opacity:0.8;stroke:#f6583e;stroke-opacity:0.8;"/>
    <path d="M 240.48 104.268033 
C 249.037582 104.268033 257.24582 100.868069 263.296945 94.816945 
C 269.348069 88.76582 272.748033 80.557582 272.748033 72 
C 272.748033 63.442418 269.348069 55.23418 263.296945 49.183055 
C 257.24582 43.131931 249.037582 39.731967 240.48 39.731967 
C 231.922418 39.731967 223.71418 43.131931 217.663055 49.183055 
C 211.611931 55.23418 208.211967 63.442418 208.211967 72 
C 208.211967 80.557582 211.611931 88.76582 217.663055 94.816945 
C 223.71418 100.868069 231.922418 104.268033 240.48 104.268033 
z
" style="fill:#f14331;fill-opacity:0.8;stroke:#f14331;stroke-opacity:0.8;"/>
    <path d="M 324.72 671.5963 
C 330.977812 671.5963 336.980162 669.110045 341.405103 664.685103 
C 345.830045 660.260162 348.3163 654.257812 348.3163 648 
C 348.3163 641.742188 345.830045 635.739838 341.405103 631.314897 
C 336.980162 626.889955 330.977812 624.4037 324.72 624.4037 
C 318.462188 624.4037 312.459838 626.889955 308.034897 631.314897 
C 303.609955 635.739838 301.1237 641.742188 301.1237 648 
C 301.1237 654.257812 303.609955 660.260162 308.034897 664.685103 
C 312.459838 669.110045 318.462188 671.5963 324.72 671.5963 
z
" style="fill:#fb7d5d;fill-opacity:0.8;stroke:#fb7d5d;stroke-opacity:0.8;"/>
    <path d="M 324.72 556.3963 
C 330.977812 556.3963 336.980162 553.910045 341.405103 549.485103 
C 345.830045 545.060162 348.3163 539.057812 348.3163 532.8 
C 348.3163 526.542188 345.830045 520.539838 341.405103 516.114897 
C 336.980162 511.689955 330.977812 509.2037 324.72 509.2037 
C 318.462188 509.2037 312.459838 511.689955 308.034897 516.114897 
C 303.609955 520.539838 301.1237 526.542188 301.1237 532.8 
C 301.1237 539.057812 303.609955 545.060162 308.034897 549.485103 
C 312.459838 553.910045 318.462188 556.3963 324.72 556.3963 
z
" style="fill:#fb7d5d;fill-opacity:0.8;stroke:#fb7d5d;stroke-opacity:0.8;"/>
    <path d="M 324.72 443.082115 
C 331.477936 443.082115 337.959994 440.397158 342.738576 435.618576 
C 347.517158 430.839994 350.202115 424.357936 350.202115 417.6 
C 350.202115 410.842064 347.517158 404.360006 342.738576 399.581424 
C 337.959994 394.802842 331.477936 392.117885 324.72 392.117885 
C 317.962064 392.117885 311.480006 394.802842 306.701424 399.581424 
C 301.922842 404.360006 299.237885 410.842064 299.237885 417.6 
C 299.237885 424.357936 301.922842 430.839994 306.701424 435.618576 
C 311.480006 440.397158 317.962064 443.082115 324.72 443.082115 
z
" style="fill:#fb7050;fill-opacity:0.8;stroke:#fb7050;stroke-opacity:0.8;"/>
    <path d="M 324.72 331.092951 
C 332.329459 331.092951 339.62828 328.06968 345.00898 322.68898 
C 350.38968 317.30828 353.412951 310.009459 353.412951 302.4 
C 353.412951 294.790541 350.38968 287.49172 345.00898 282.11102 
C 339.62828 276.73032 332.329459 273.707049 324.72 273.707049 
C 317.110541 273.707049 309.81172 276.73032 304.43102 282.11102 
C 299.05032 287.49172 296.027049 294.790541 296.027049 302.4 
C 296.027049 310.009459 299.05032 317.30828 304.43102 322.68898 
C 309.81172 328.06968 317.110541 331.092951 324.72 331.092951 
z
" style="fill:#f75b40;fill-opacity:0.8;stroke:#f75b40;stroke-opacity:0.8;"/>
    <path d="M 324.72 220.225468 
C 333.478457 220.225468 341.879369 216.745697 348.072533 210.552533 
C 354.265697 204.359369 357.745468 195.958457 357.745468 187.2 
C 357.745468 178.441543 354.265697 170.040631 348.072533 163.847467 
C 341.879369 157.654303 333.478457 154.174532 324.72 154.174532 
C 315.961543 154.174532 307.560631 157.654303 301.367467 163.847467 
C 295.174303 170.040631 291.694532 178.441543 291.694532 187.2 
C 291.694532 195.958457 295.174303 204.359369 301.367467 210.552533 
C 307.560631 216.745697 315.961543 220.225468 324.72 220.225468 
z
" style="fill:#f03f2e;fill-opacity:0.8;stroke:#f03f2e;stroke-opacity:0.8;"/>
    <path d="M 324.72 111.50113 
C 335.195822 111.50113 345.243992 107.339041 352.651517 99.931517 
C 360.059041 92.523992 364.22113 82.475822 364.22113 72 
C 364.22113 61.524178 360.059041 51.476008 352.651517 44.068483 
C 345.243992 36.660959 335.195822 32.49887 324.72 32.49887 
C 314.244178 32.49887 304.196008 36.660959 296.788483 44.068483 
C 289.380959 51.476008 285.21887 61.524178 285.21887 72 
C 285.21887 82.475822 289.380959 92.523992 296.788483 99.931517 
C 304.196008 107.339041 314.244178 111.50113 324.72 111.50113 
z
" style="fill:#d82422;fill-opacity:0.8;stroke:#d82422;stroke-opacity:0.8;"/>
    <path d="M 408.96 671.5963 
C 415.217812 671.5963 421.220162 669.110045 425.645103 664.685103 
C 430.070045 660.260162 432.5563 654.257812 432.5563 648 
C 432.5563 641.742188 430.070045 635.739838 425.645103 631.314897 
C 421.220162 626.889955 415.217812 624.4037 408.96 624.4037 
C 402.702188 624.4037 396.699838 626.889955 392.274897 631.314897 
C 387.849955 635.739838 385.3637 641.742188 385.3637 648 
C 385.3637 654.257812 387.849955 660.260162 392.274897 664.685103 
C 396.699838 669.110045 402.702188 671.5963 408.96 671.5963 
z
" style="fill:#fb7d5d;fill-opacity:0.8;stroke:#fb7d5d;stroke-opacity:0.8;"/>
    <path d="M 408.96 557.440474 
C 415.49473 557.440474 421.762694 554.844198 426.383446 550.223446 
C 431.004198 545.602694 433.600474 539.33473 433.600474 532.8 
C 433.600474 526.26527 431.004198 519.997306 426.383446 515.376554 
C 421.762694 510.755802 415.49473 508.159526 408.96 508.159526 
C 402.42527 508.159526 396.157306 510.755802 391.536554 515.376554 
C 386.915802 519.997306 384.319526 526.26527 384.319526 532.8 
C 384.319526 539.33473 386.915802 545.602694 391.536554 550.223446 
C 396.157306 554.844198 402.42527 557.440474 408.96 557.440474 
z
" style="fill:#fb7656;fill-opacity:0.8;stroke:#fb7656;stroke-opacity:0.8;"/>
    <path d="M 408.96 444.950079 
C 416.213326 444.950079 423.17055 442.068302 428.299426 436.939426 
C 433.428302 431.81055 436.310079 424.853326 436.310079 417.6 
C 436.310079 410.346674 433.428302 403.38945 428.299426 398.260574 
C 423.17055 393.131698 416.213326 390.249921 408.96 390.249921 
C 401.706674 390.249921 394.74945 393.131698 389.620574 398.260574 
C 384.491698 403.38945 381.609921 410.346674 381.609921 417.6 
C 381.609921 424.853326 384.491698 431.81055 389.620574 436.939426 
C 394.74945 442.068302 401.706674 444.950079 408.96 444.950079 
z
" style="fill:#f96346;fill-opacity:0.8;stroke:#f96346;stroke-opacity:0.8;"/>
    <path d="M 408.96 333.30063 
C 417.154943 333.30063 425.015345 330.044745 430.810045 324.250045 
C 436.604745 318.455345 439.86063 310.594943 439.86063 302.4 
C 439.86063 294.205057 436.604745 286.344655 430.810045 280.549955 
C 425.015345 274.755255 417.154943 271.49937 408.96 271.49937 
C 400.765057 271.49937 392.904655 274.755255 387.109955 280.549955 
C 381.315255 286.344655 378.05937 294.205057 378.05937 302.4 
C 378.05937 310.594943 381.315255 318.455345 387.109955 324.250045 
C 392.904655 330.044745 400.765057 333.30063 408.96 333.30063 
z
" style="fill:#f34c37;fill-opacity:0.8;stroke:#f34c37;stroke-opacity:0.8;"/>
    <path d="M 408.96 224.688723 
C 418.902126 224.688723 428.438386 220.738675 435.46853 213.70853 
C 442.498675 206.678386 446.448723 197.142126 446.448723 187.2 
C 446.448723 177.257874 442.498675 167.721614 435.46853 160.69147 
C 428.438386 153.661325 418.902126 149.711277 408.96 149.711277 
C 399.017874 149.711277 389.481614 153.661325 382.45147 160.69147 
C 375.421325 167.721614 371.471277 177.257874 371.471277 187.2 
C 371.471277 197.142126 375.421325 206.678386 382.45147 213.70853 
C 389.481614 220.738675 399.017874 224.688723 408.96 224.688723 
z
" style="fill:#e02c26;fill-opacity:0.8;stroke:#e02c26;stroke-opacity:0.8;"/>
    <path d="M 408.96 119.23982 
C 421.488147 119.23982 433.50486 114.262335 442.363597 105.403597 
C 451.222335 96.54486 456.19982 84.528147 456.19982 72 
C 456.19982 59.471853 451.222335 47.45514 442.363597 38.596403 
C 433.50486 29.737665 421.488147 24.76018 408.96 24.76018 
C 396.431853 24.76018 384.41514 29.737665 375.556403 38.596403 
C 366.697665 47.45514 361.72018 59.471853 361.72018 72 
C 361.72018 84.528147 366.697665 96.54486 375.556403 105.403597 
C 384.41514 114.262335 396.431853 119.23982 408.96 119.23982 
z
" style="fill:#bc141a;fill-opacity:0.8;stroke:#bc141a;stroke-opacity:0.8;"/>
    <path d="M 493.2 672.140304 
C 499.602083 672.140304 505.742816 669.596729 510.269772 665.069772 
C 514.796729 660.542816 517.340304 654.402083 517.340304 648 
C 517.340304 641.597917 514.796729 635.457184 510.269772 630.930228 
C 505.742816 626.403271 499.602083 623.859696 493.2 623.859696 
C 486.797917 623.859696 480.657184 626.403271 476.130228 630.930228 
C 471.603271 635.457184 469.059696 641.597917 469.059696 648 
C 469.059696 654.402083 471.603271 660.542816 476.130228 665.069772 
C 480.657184 669.596729 486.797917 672.140304 493.2 672.140304 
z
" style="fill:#fb7a5a;fill-opacity:0.8;stroke:#fb7a5a;stroke-opacity:0.8;"/>
    <path d="M 493.2 557.440474 
C 499.73473 557.440474 506.002694 554.844198 510.623446 550.223446 
C 515.244198 545.602694 517.840474 539.33473 517.840474 532.8 
C 517.840474 526.26527 515.244198 519.997306 510.623446 515.376554 
C 506.002694 510.755802 499.73473 508.159526 493.2 508.159526 
C 486.66527 508.159526 480.397306 510.755802 475.776554 515.376554 
C 471.155802 519.997306 468.559526 526.26527 468.559526 532.8 
C 468.559526 539.33473 471.155802 545.602694 475.776554 550.223446 
C 480.397306 554.844198 486.66527 557.440474 493.2 557.440474 
z
" style="fill:#fb7656;fill-opacity:0.8;stroke:#fb7656;stroke-opacity:0.8;"/>
    <path d="M 493.2 445.884271 
C 500.701076 445.884271 507.895938 442.904062 513.2 437.6 
C 518.504062 432.295938 521.484271 425.101076 521.484271 417.6 
C 521.484271 410.098924 518.504062 402.904062 513.2 397.6 
C 507.895938 392.295938 500.701076 389.315729 493.2 389.315729 
C 485.698924 389.315729 478.504062 392.295938 473.2 397.6 
C 467.895938 402.904062 464.915729 410.098924 464.915729 417.6 
C 464.915729 425.101076 467.895938 432.295938 473.2 437.6 
C 478.504062 442.904062 485.698924 445.884271 493.2 445.884271 
z
" style="fill:#f85d42;fill-opacity:0.8;stroke:#f85d42;stroke-opacity:0.8;"/>
    <path d="M 493.2 336.014642 
C 502.114707 336.014642 510.665491 332.472791 516.969141 326.169141 
C 523.272791 319.865491 526.814642 311.314707 526.814642 302.4 
C 526.814642 293.485293 523.272791 284.934509 516.969141 278.630859 
C 510.665491 272.327209 502.114707 268.785358 493.2 268.785358 
C 484.285293 268.785358 475.734509 272.327209 469.430859 278.630859 
C 463.127209 284.934509 459.585358 293.485293 459.585358 302.4 
C 459.585358 311.314707 463.127209 319.865491 469.430859 326.169141 
C 475.734509 332.472791 484.285293 336.014642 493.2 336.014642 
z
" style="fill:#ef3c2c;fill-opacity:0.8;stroke:#ef3c2c;stroke-opacity:0.8;"/>
    <path d="M 493.2 229.759715 
C 504.486968 229.759715 515.313171 225.275355 523.294263 217.294263 
C 531.275355 209.313171 535.759715 198.486968 535.759715 187.2 
C 535.759715 175.913032 531.275355 165.086829 523.294263 157.105737 
C 515.313171 149.124645 504.486968 144.640285 493.2 144.640285 
C 481.913032 144.640285 471.086829 149.124645 463.105737 157.105737 
C 455.124645 165.086829 450.640285 175.913032 450.640285 187.2 
C 450.640285 198.486968 455.124645 209.313171 463.105737 217.294263 
C 471.086829 225.275355 481.913032 229.759715 493.2 229.759715 
z
" style="fill:#cc191e;fill-opacity:0.8;stroke:#cc191e;stroke-opacity:0.8;"/>
    <path d="M 493.2 127.738788 
C 507.982099 127.738788 522.160752 121.865798 532.613275 111.413275 
C 543.065798 100.960752 548.938788 86.782099 548.938788 72 
C 548.938788 57.217901 543.065798 43.039248 532.613275 32.586725 
C 522.160752 22.134202 507.982099 16.261212 493.2 16.261212 
C 478.417901 16.261212 464.239248 22.134202 453.786725 32.586725 
C 443.334202 43.039248 437.461212 57.217901 437.461212 72 
C 437.461212 86.782099 443.334202 100.960752 453.786725 111.413275 
C 464.239248 121.865798 478.417901 127.738788 493.2 127.738788 
z
" style="fill:#9f0e14;fill-opacity:0.8;stroke:#9f0e14;stroke-opacity:0.8;"/>
   </g>
   <g id="text_16">
    <!-- 300µs -->
    <defs>
     <path d="M 46.578125 39.3125 
Q 53.953125 37.40625 57.78125 32.6875 
Q 61.625 27.984375 61.625 20.703125 
Q 61.625 9.859375 53.3125 4.21875 
Q 45.015625 -1.421875 29.109375 -1.421875 
Q 23.484375 -1.421875 17.84375 -0.515625 
Q 12.203125 0.390625 6.6875 2.203125 
L 6.6875 16.703125 
Q 11.96875 14.0625 17.15625 12.71875 
Q 22.359375 11.375 27.390625 11.375 
Q 34.859375 11.375 38.84375 13.953125 
Q 42.828125 16.546875 42.828125 21.390625 
Q 42.828125 26.375 38.75 28.9375 
Q 34.671875 31.5 26.703125 31.5 
L 19.1875 31.5 
L 19.1875 43.609375 
L 27.09375 43.609375 
Q 34.1875 43.609375 37.640625 45.828125 
Q 41.109375 48.046875 41.109375 52.59375 
Q 41.109375 56.78125 37.734375 59.078125 
Q 34.375 61.375 28.21875 61.375 
Q 23.6875 61.375 19.046875 60.34375 
Q 14.40625 59.328125 9.8125 57.328125 
L 9.8125 71.09375 
Q 15.375 72.65625 20.84375 73.4375 
Q 26.3125 74.21875 31.59375 74.21875 
Q 45.796875 74.21875 52.84375 69.546875 
Q 59.90625 64.890625 59.90625 55.515625 
Q 59.90625 49.125 56.53125 45.046875 
Q 53.171875 40.96875 46.578125 39.3125 
z
" id="DejaVuSans-Bold-51"/>
     <path d="M 46 36.53125 
Q 46 50.203125 43.4375 55.78125 
Q 40.875 61.375 34.8125 61.375 
Q 28.765625 61.375 26.171875 55.78125 
Q 23.578125 50.203125 23.578125 36.53125 
Q 23.578125 22.703125 26.171875 17.03125 
Q 28.765625 11.375 34.8125 11.375 
Q 40.828125 11.375 43.40625 17.03125 
Q 46 22.703125 46 36.53125 
z
M 64.796875 36.375 
Q 64.796875 18.265625 56.984375 8.421875 
Q 49.171875 -1.421875 34.8125 -1.421875 
Q 20.40625 -1.421875 12.59375 8.421875 
Q 4.78125 18.265625 4.78125 36.375 
Q 4.78125 54.546875 12.59375 64.375 
Q 20.40625 74.21875 34.8125 74.21875 
Q 49.171875 74.21875 56.984375 64.375 
Q 64.796875 54.546875 64.796875 36.375 
z
" id="DejaVuSans-Bold-48"/>
     <path d="M 8.5 -20.90625 
L 8.5 54.6875 
L 26.125 54.6875 
L 26.125 22.90625 
Q 26.125 17.234375 28.5625 14.46875 
Q 31 11.71875 35.984375 11.71875 
Q 41.015625 11.71875 43.453125 14.46875 
Q 45.90625 17.234375 45.90625 22.90625 
L 45.90625 54.6875 
L 63.484375 54.6875 
L 63.484375 18.109375 
Q 63.484375 14.65625 64.28125 13.28125 
Q 65.09375 11.921875 67 11.921875 
Q 67.875 11.921875 68.671875 12.15625 
Q 69.484375 12.40625 70.40625 12.984375 
L 70.40625 0.78125 
Q 67.828125 -0.34375 65.546875 -0.875 
Q 63.28125 -1.421875 61.078125 -1.421875 
Q 56.734375 -1.421875 53.96875 0.40625 
Q 51.21875 2.25 49.515625 6.296875 
Q 47.21875 2.4375 43.921875 0.5 
Q 40.625 -1.421875 36.28125 -1.421875 
Q 32.671875 -1.421875 30.125 -0.265625 
Q 27.59375 0.875 26.125 3.21875 
L 26.125 -20.90625 
z
" id="DejaVuSans-Bold-181"/>
     <path d="M 51.125 52.984375 
L 51.125 39.703125 
Q 45.515625 42.046875 40.28125 43.21875 
Q 35.0625 44.390625 30.421875 44.390625 
Q 25.4375 44.390625 23.015625 43.140625 
Q 20.609375 41.890625 20.609375 39.3125 
Q 20.609375 37.203125 22.4375 36.078125 
Q 24.265625 34.96875 29 34.421875 
L 32.078125 33.984375 
Q 45.515625 32.28125 50.140625 28.375 
Q 54.78125 24.46875 54.78125 16.109375 
Q 54.78125 7.375 48.328125 2.96875 
Q 41.890625 -1.421875 29.109375 -1.421875 
Q 23.6875 -1.421875 17.890625 -0.5625 
Q 12.109375 0.296875 6 2 
L 6 15.28125 
Q 11.234375 12.75 16.71875 11.46875 
Q 22.21875 10.203125 27.875 10.203125 
Q 33.015625 10.203125 35.59375 11.609375 
Q 38.1875 13.03125 38.1875 15.828125 
Q 38.1875 18.171875 36.40625 19.3125 
Q 34.625 20.453125 29.296875 21.09375 
L 26.21875 21.484375 
Q 14.546875 22.953125 9.859375 26.90625 
Q 5.171875 30.859375 5.171875 38.921875 
Q 5.171875 47.609375 11.125 51.796875 
Q 17.09375 56 29.390625 56 
Q 34.234375 56 39.546875 55.265625 
Q 44.875 54.546875 51.125 52.984375 
z
" id="DejaVuSans-Bold-115"/>
    </defs>
    <g transform="translate(53.568753 650.963895)scale(0.107839 -0.107839)">
     <use xlink:href="#DejaVuSans-Bold-51"/>
     <use x="69.580078" xlink:href="#DejaVuSans-Bold-48"/>
     <use x="139.160156" xlink:href="#DejaVuSans-Bold-48"/>
     <use x="208.740234" xlink:href="#DejaVuSans-Bold-181"/>
     <use x="282.324219" xlink:href="#DejaVuSans-Bold-115"/>
    </g>
   </g>
   <g id="text_17">
    <!-- 300µs -->
    <g transform="translate(53.568753 535.763895)scale(0.107839 -0.107839)">
     <use xlink:href="#DejaVuSans-Bold-51"/>
     <use x="69.580078" xlink:href="#DejaVuSans-Bold-48"/>
     <use x="139.160156" xlink:href="#DejaVuSans-Bold-48"/>
     <use x="208.740234" xlink:href="#DejaVuSans-Bold-181"/>
     <use x="282.324219" xlink:href="#DejaVuSans-Bold-115"/>
    </g>
   </g>
   <g id="text_18">
    <!-- 300µs -->
    <g transform="translate(53.568753 420.563895)scale(0.107839 -0.107839)">
     <use xlink:href="#DejaVuSans-Bold-51"/>
     <use x="69.580078" xlink:href="#DejaVuSans-Bold-48"/>
     <use x="139.160156" xlink:href="#DejaVuSans-Bold-48"/>
     <use x="208.740234" xlink:href="#DejaVuSans-Bold-181"/>
     <use x="282.324219" xlink:href="#DejaVuSans-Bold-115"/>
    </g>
   </g>
   <g id="text_19">
    <!-- 300µs -->
    <g transform="translate(53.568753 305.363895)scale(0.107839 -0.107839)">
     <use xlink:href="#DejaVuSans-Bold-51"/>
     <use x="69.580078" xlink:href="#DejaVuSans-Bold-48"/>
     <use x="139.160156" xlink:href="#DejaVuSans-Bold-48"/>
     <use x="208.740234" xlink:href="#DejaVuSans-Bold-181"/>
     <use x="282.324219" xlink:href="#DejaVuSans-Bold-115"/>
    </g>
   </g>
   <g id="text_20">
    <!-- 300µs -->
    <g transform="translate(53.568753 190.163895)scale(0.107839 -0.107839)">
     <use xlink:href="#DejaVuSans-Bold-51"/>
     <use x="69.580078" xlink:href="#DejaVuSans-Bold-48"/>
     <use x="139.160156" xlink:href="#DejaVuSans-Bold-48"/>
     <use x="208.740234" xlink:href="#DejaVuSans-Bold-181"/>
     <use x="282.324219" xlink:href="#DejaVuSans-Bold-115"/>
    </g>
   </g>
   <g id="text_21">
    <!-- 300µs -->
    <g transform="translate(53.568753 74.963895)scale(0.107839 -0.107839)">
     <use xlink:href="#DejaVuSans-Bold-51"/>
     <use x="69.580078" xlink:href="#DejaVuSans-Bold-48"/>
     <use x="139.160156" xlink:href="#DejaVuSans-Bold-48"/>
     <use x="208.740234" xlink:href="#DejaVuSans-Bold-181"/>
     <use x="282.324219" xlink:href="#DejaVuSans-Bold-115"/>
    </g>
   </g>
   <g id="text_22">
    <!-- 300µs -->
    <g transform="translate(137.808753 650.963895)scale(0.107839 -0.107839)">
     <use xlink:href="#DejaVuSans-Bold-51"/>
     <use x="69.580078" xlink:href="#DejaVuSans-Bold-48"/>
     <use x="139.160156" xlink:href="#DejaVuSans-Bold-48"/>
     <use x="208.740234" xlink:href="#DejaVuSans-Bold-181"/>
     <use x="282.324219" xlink:href="#DejaVuSans-Bold-115"/>
    </g>
   </g>
   <g id="text_23">
    <!-- 300µs -->
    <g transform="translate(137.808753 535.763895)scale(0.107839 -0.107839)">
     <use xlink:href="#DejaVuSans-Bold-51"/>
     <use x="69.580078" xlink:href="#DejaVuSans-Bold-48"/>
     <use x="139.160156" xlink:href="#DejaVuSans-Bold-48"/>
     <use x="208.740234" xlink:href="#DejaVuSans-Bold-181"/>
     <use x="282.324219" xlink:href="#DejaVuSans-Bold-115"/>
    </g>
   </g>
   <g id="text_24">
    <!-- 400µs -->
    <defs>
     <path d="M 36.8125 57.421875 
L 16.21875 26.90625 
L 36.8125 26.90625 
z
M 33.6875 72.90625 
L 54.59375 72.90625 
L 54.59375 26.90625 
L 64.984375 26.90625 
L 64.984375 13.28125 
L 54.59375 13.28125 
L 54.59375 0 
L 36.8125 0 
L 36.8125 13.28125 
L 4.5 13.28125 
L 4.5 29.390625 
z
" id="DejaVuSans-Bold-52"/>
    </defs>
    <g transform="translate(137.378326 420.633111)scale(0.110358 -0.110358)">
     <use xlink:href="#DejaVuSans-Bold-52"/>
     <use x="69.580078" xlink:href="#DejaVuSans-Bold-48"/>
     <use x="139.160156" xlink:href="#DejaVuSans-Bold-48"/>
     <use x="208.740234" xlink:href="#DejaVuSans-Bold-181"/>
     <use x="282.324219" xlink:href="#DejaVuSans-Bold-115"/>
    </g>
   </g>
   <g id="text_25">
    <!-- 400µs -->
    <g transform="translate(137.378326 305.433111)scale(0.110358 -0.110358)">
     <use xlink:href="#DejaVuSans-Bold-52"/>
     <use x="69.580078" xlink:href="#DejaVuSans-Bold-48"/>
     <use x="139.160156" xlink:href="#DejaVuSans-Bold-48"/>
     <use x="208.740234" xlink:href="#DejaVuSans-Bold-181"/>
     <use x="282.324219" xlink:href="#DejaVuSans-Bold-115"/>
    </g>
   </g>
   <g id="text_26">
    <!-- 500µs -->
    <defs>
     <path d="M 10.59375 72.90625 
L 57.328125 72.90625 
L 57.328125 59.078125 
L 25.59375 59.078125 
L 25.59375 47.796875 
Q 27.734375 48.390625 29.90625 48.703125 
Q 32.078125 49.03125 34.421875 49.03125 
Q 47.75 49.03125 55.171875 42.359375 
Q 62.59375 35.6875 62.59375 23.78125 
Q 62.59375 11.96875 54.515625 5.265625 
Q 46.4375 -1.421875 32.078125 -1.421875 
Q 25.875 -1.421875 19.796875 -0.21875 
Q 13.71875 0.984375 7.71875 3.421875 
L 7.71875 18.21875 
Q 13.671875 14.796875 19.015625 13.078125 
Q 24.359375 11.375 29.109375 11.375 
Q 35.9375 11.375 39.859375 14.71875 
Q 43.796875 18.0625 43.796875 23.78125 
Q 43.796875 29.546875 39.859375 32.859375 
Q 35.9375 36.1875 29.109375 36.1875 
Q 25.046875 36.1875 20.453125 35.125 
Q 15.875 34.078125 10.59375 31.890625 
z
" id="DejaVuSans-Bold-53"/>
    </defs>
    <g transform="translate(137.017824 190.291083)scale(0.112467 -0.112467)">
     <use xlink:href="#DejaVuSans-Bold-53"/>
     <use x="69.580078" xlink:href="#DejaVuSans-Bold-48"/>
     <use x="139.160156" xlink:href="#DejaVuSans-Bold-48"/>
     <use x="208.740234" xlink:href="#DejaVuSans-Bold-181"/>
     <use x="282.324219" xlink:href="#DejaVuSans-Bold-115"/>
    </g>
   </g>
   <g id="text_27">
    <!-- 700µs -->
    <defs>
     <path d="M 6.6875 72.90625 
L 61.625 72.90625 
L 61.625 62.3125 
L 33.203125 0 
L 14.890625 0 
L 41.796875 59.078125 
L 6.6875 59.078125 
z
" id="DejaVuSans-Bold-55"/>
    </defs>
    <g transform="translate(136.42632 75.186201)scale(0.115928 -0.115928)">
     <use xlink:href="#DejaVuSans-Bold-55"/>
     <use x="69.580078" xlink:href="#DejaVuSans-Bold-48"/>
     <use x="139.160156" xlink:href="#DejaVuSans-Bold-48"/>
     <use x="208.740234" xlink:href="#DejaVuSans-Bold-181"/>
     <use x="282.324219" xlink:href="#DejaVuSans-Bold-115"/>
    </g>
   </g>
   <g id="text_28">
    <!-- 300µs -->
    <g transform="translate(222.048753 650.963895)scale(0.107839 -0.107839)">
     <use xlink:href="#DejaVuSans-Bold-51"/>
     <use x="69.580078" xlink:href="#DejaVuSans-Bold-48"/>
     <use x="139.160156" xlink:href="#DejaVuSans-Bold-48"/>
     <use x="208.740234" xlink:href="#DejaVuSans-Bold-181"/>
     <use x="282.324219" xlink:href="#DejaVuSans-Bold-115"/>
    </g>
   </g>
   <g id="text_29">
    <!-- 400µs -->
    <g transform="translate(221.618326 535.833111)scale(0.110358 -0.110358)">
     <use xlink:href="#DejaVuSans-Bold-52"/>
     <use x="69.580078" xlink:href="#DejaVuSans-Bold-48"/>
     <use x="139.160156" xlink:href="#DejaVuSans-Bold-48"/>
     <use x="208.740234" xlink:href="#DejaVuSans-Bold-181"/>
     <use x="282.324219" xlink:href="#DejaVuSans-Bold-115"/>
    </g>
   </g>
   <g id="text_30">
    <!-- 400µs -->
    <g transform="translate(221.618326 420.633111)scale(0.110358 -0.110358)">
     <use xlink:href="#DejaVuSans-Bold-52"/>
     <use x="69.580078" xlink:href="#DejaVuSans-Bold-48"/>
     <use x="139.160156" xlink:href="#DejaVuSans-Bold-48"/>
     <use x="208.740234" xlink:href="#DejaVuSans-Bold-181"/>
     <use x="282.324219" xlink:href="#DejaVuSans-Bold-115"/>
    </g>
   </g>
   <g id="text_31">
    <!-- 649µs -->
    <defs>
     <path d="M 36.1875 35.984375 
Q 31.25 35.984375 28.78125 32.78125 
Q 26.3125 29.59375 26.3125 23.1875 
Q 26.3125 16.796875 28.78125 13.59375 
Q 31.25 10.40625 36.1875 10.40625 
Q 41.15625 10.40625 43.625 13.59375 
Q 46.09375 16.796875 46.09375 23.1875 
Q 46.09375 29.59375 43.625 32.78125 
Q 41.15625 35.984375 36.1875 35.984375 
z
M 59.421875 71 
L 59.421875 57.515625 
Q 54.78125 59.71875 50.671875 60.765625 
Q 46.578125 61.8125 42.671875 61.8125 
Q 34.28125 61.8125 29.59375 57.140625 
Q 24.90625 52.484375 24.125 43.3125 
Q 27.34375 45.703125 31.09375 46.890625 
Q 34.859375 48.09375 39.3125 48.09375 
Q 50.484375 48.09375 57.34375 41.546875 
Q 64.203125 35.015625 64.203125 24.421875 
Q 64.203125 12.703125 56.53125 5.640625 
Q 48.875 -1.421875 35.984375 -1.421875 
Q 21.78125 -1.421875 13.984375 8.171875 
Q 6.203125 17.78125 6.203125 35.40625 
Q 6.203125 53.46875 15.3125 63.796875 
Q 24.421875 74.125 40.28125 74.125 
Q 45.3125 74.125 50.046875 73.34375 
Q 54.78125 72.5625 59.421875 71 
z
" id="DejaVuSans-Bold-54"/>
     <path d="M 10.015625 1.609375 
L 10.015625 15.09375 
Q 14.5 12.984375 18.59375 11.9375 
Q 22.703125 10.890625 26.703125 10.890625 
Q 35.109375 10.890625 39.796875 15.546875 
Q 44.484375 20.21875 45.3125 29.390625 
Q 42 26.953125 38.234375 25.734375 
Q 34.46875 24.515625 30.078125 24.515625 
Q 18.890625 24.515625 12.03125 31.03125 
Q 5.171875 37.546875 5.171875 48.1875 
Q 5.171875 59.96875 12.8125 67.046875 
Q 20.453125 74.125 33.296875 74.125 
Q 47.5625 74.125 55.375 64.5 
Q 63.1875 54.890625 63.1875 37.3125 
Q 63.1875 19.234375 54.046875 8.90625 
Q 44.921875 -1.421875 29 -1.421875 
Q 23.875 -1.421875 19.1875 -0.65625 
Q 14.5 0.09375 10.015625 1.609375 
z
M 33.203125 36.71875 
Q 38.140625 36.71875 40.625 39.90625 
Q 43.109375 43.109375 43.109375 49.515625 
Q 43.109375 55.859375 40.625 59.078125 
Q 38.140625 62.3125 33.203125 62.3125 
Q 28.265625 62.3125 25.78125 59.078125 
Q 23.296875 55.859375 23.296875 49.515625 
Q 23.296875 43.109375 25.78125 39.90625 
Q 28.265625 36.71875 33.203125 36.71875 
z
" id="DejaVuSans-Bold-57"/>
    </defs>
    <g transform="translate(220.804434 305.563991)scale(0.11512 -0.11512)">
     <use xlink:href="#DejaVuSans-Bold-54"/>
     <use x="69.580078" xlink:href="#DejaVuSans-Bold-52"/>
     <use x="139.160156" xlink:href="#DejaVuSans-Bold-57"/>
     <use x="208.740234" xlink:href="#DejaVuSans-Bold-181"/>
     <use x="282.324219" xlink:href="#DejaVuSans-Bold-115"/>
    </g>
   </g>
   <g id="text_32">
    <!--   1ms -->
    <defs>
     <path id="DejaVuSans-Bold-32"/>
     <path d="M 11.71875 12.984375 
L 28.328125 12.984375 
L 28.328125 60.109375 
L 11.28125 56.59375 
L 11.28125 69.390625 
L 28.21875 72.90625 
L 46.09375 72.90625 
L 46.09375 12.984375 
L 62.703125 12.984375 
L 62.703125 0 
L 11.71875 0 
z
" id="DejaVuSans-Bold-49"/>
     <path d="M 59.078125 45.609375 
Q 62.40625 50.6875 66.96875 53.34375 
Q 71.53125 56 77 56 
Q 86.421875 56 91.359375 50.1875 
Q 96.296875 44.390625 96.296875 33.296875 
L 96.296875 0 
L 78.71875 0 
L 78.71875 28.515625 
Q 78.765625 29.15625 78.78125 29.828125 
Q 78.8125 30.515625 78.8125 31.78125 
Q 78.8125 37.59375 77.09375 40.203125 
Q 75.390625 42.828125 71.578125 42.828125 
Q 66.609375 42.828125 63.890625 38.71875 
Q 61.1875 34.625 61.078125 26.859375 
L 61.078125 0 
L 43.5 0 
L 43.5 28.515625 
Q 43.5 37.59375 41.9375 40.203125 
Q 40.375 42.828125 36.375 42.828125 
Q 31.34375 42.828125 28.609375 38.703125 
Q 25.875 34.578125 25.875 26.90625 
L 25.875 0 
L 8.296875 0 
L 8.296875 54.6875 
L 25.875 54.6875 
L 25.875 46.6875 
Q 29.109375 51.3125 33.28125 53.65625 
Q 37.453125 56 42.484375 56 
Q 48.140625 56 52.484375 53.265625 
Q 56.84375 50.53125 59.078125 45.609375 
z
" id="DejaVuSans-Bold-109"/>
    </defs>
    <g transform="translate(221.962881 190.573522)scale(0.122257 -0.122257)">
     <use xlink:href="#DejaVuSans-Bold-32"/>
     <use x="34.814453" xlink:href="#DejaVuSans-Bold-32"/>
     <use x="69.628906" xlink:href="#DejaVuSans-Bold-49"/>
     <use x="139.208984" xlink:href="#DejaVuSans-Bold-109"/>
     <use x="243.408203" xlink:href="#DejaVuSans-Bold-115"/>
    </g>
   </g>
   <g id="text_33">
    <!--   2ms -->
    <defs>
     <path d="M 28.8125 13.8125 
L 60.890625 13.8125 
L 60.890625 0 
L 7.90625 0 
L 7.90625 13.8125 
L 34.515625 37.3125 
Q 38.09375 40.53125 39.796875 43.609375 
Q 41.5 46.6875 41.5 50 
Q 41.5 55.125 38.0625 58.25 
Q 34.625 61.375 28.90625 61.375 
Q 24.515625 61.375 19.28125 59.5 
Q 14.0625 57.625 8.109375 53.90625 
L 8.109375 69.921875 
Q 14.453125 72.015625 20.65625 73.109375 
Q 26.859375 74.21875 32.8125 74.21875 
Q 45.90625 74.21875 53.15625 68.453125 
Q 60.40625 62.703125 60.40625 52.390625 
Q 60.40625 46.4375 57.328125 41.28125 
Q 54.25 36.140625 44.390625 27.484375 
z
" id="DejaVuSans-Bold-50"/>
    </defs>
    <g transform="translate(220.477872 75.644066)scale(0.132061 -0.132061)">
     <use xlink:href="#DejaVuSans-Bold-32"/>
     <use x="34.814453" xlink:href="#DejaVuSans-Bold-32"/>
     <use x="69.628906" xlink:href="#DejaVuSans-Bold-50"/>
     <use x="139.208984" xlink:href="#DejaVuSans-Bold-109"/>
     <use x="243.408203" xlink:href="#DejaVuSans-Bold-115"/>
    </g>
   </g>
   <g id="text_34">
    <!-- 300µs -->
    <g transform="translate(306.288753 650.963895)scale(0.107839 -0.107839)">
     <use xlink:href="#DejaVuSans-Bold-51"/>
     <use x="69.580078" xlink:href="#DejaVuSans-Bold-48"/>
     <use x="139.160156" xlink:href="#DejaVuSans-Bold-48"/>
     <use x="208.740234" xlink:href="#DejaVuSans-Bold-181"/>
     <use x="282.324219" xlink:href="#DejaVuSans-Bold-115"/>
    </g>
   </g>
   <g id="text_35">
    <!-- 300µs -->
    <g transform="translate(306.288753 535.763895)scale(0.107839 -0.107839)">
     <use xlink:href="#DejaVuSans-Bold-51"/>
     <use x="69.580078" xlink:href="#DejaVuSans-Bold-48"/>
     <use x="139.160156" xlink:href="#DejaVuSans-Bold-48"/>
     <use x="208.740234" xlink:href="#DejaVuSans-Bold-181"/>
     <use x="282.324219" xlink:href="#DejaVuSans-Bold-115"/>
    </g>
   </g>
   <g id="text_36">
    <!-- 500µs -->
    <g transform="translate(305.497824 420.691083)scale(0.112467 -0.112467)">
     <use xlink:href="#DejaVuSans-Bold-53"/>
     <use x="69.580078" xlink:href="#DejaVuSans-Bold-48"/>
     <use x="139.160156" xlink:href="#DejaVuSans-Bold-48"/>
     <use x="208.740234" xlink:href="#DejaVuSans-Bold-181"/>
     <use x="282.324219" xlink:href="#DejaVuSans-Bold-115"/>
    </g>
   </g>
   <g id="text_37">
    <!--   1ms -->
    <g transform="translate(306.368346 305.743377)scale(0.121164 -0.121164)">
     <use xlink:href="#DejaVuSans-Bold-32"/>
     <use x="34.814453" xlink:href="#DejaVuSans-Bold-32"/>
     <use x="69.628906" xlink:href="#DejaVuSans-Bold-49"/>
     <use x="139.208984" xlink:href="#DejaVuSans-Bold-109"/>
     <use x="243.408203" xlink:href="#DejaVuSans-Bold-115"/>
    </g>
   </g>
   <g id="text_38">
    <!--   3ms -->
    <g transform="translate(304.343342 190.9123)scale(0.134534 -0.134534)">
     <use xlink:href="#DejaVuSans-Bold-32"/>
     <use x="34.814453" xlink:href="#DejaVuSans-Bold-32"/>
     <use x="69.628906" xlink:href="#DejaVuSans-Bold-51"/>
     <use x="139.208984" xlink:href="#DejaVuSans-Bold-109"/>
     <use x="243.408203" xlink:href="#DejaVuSans-Bold-115"/>
    </g>
   </g>
   <g id="text_39">
    <!--   9ms -->
    <g transform="translate(300.786603 76.360281)scale(0.158017 -0.158017)">
     <use xlink:href="#DejaVuSans-Bold-32"/>
     <use x="34.814453" xlink:href="#DejaVuSans-Bold-32"/>
     <use x="69.628906" xlink:href="#DejaVuSans-Bold-57"/>
     <use x="139.208984" xlink:href="#DejaVuSans-Bold-109"/>
     <use x="243.408203" xlink:href="#DejaVuSans-Bold-115"/>
    </g>
   </g>
   <g id="text_40">
    <!-- 300µs -->
    <g transform="translate(390.528753 650.963895)scale(0.107839 -0.107839)">
     <use xlink:href="#DejaVuSans-Bold-51"/>
     <use x="69.580078" xlink:href="#DejaVuSans-Bold-48"/>
     <use x="139.160156" xlink:href="#DejaVuSans-Bold-48"/>
     <use x="208.740234" xlink:href="#DejaVuSans-Bold-181"/>
     <use x="282.324219" xlink:href="#DejaVuSans-Bold-115"/>
    </g>
   </g>
   <g id="text_41">
    <!-- 400µs -->
    <g transform="translate(390.098326 535.833111)scale(0.110358 -0.110358)">
     <use xlink:href="#DejaVuSans-Bold-52"/>
     <use x="69.580078" xlink:href="#DejaVuSans-Bold-48"/>
     <use x="139.160156" xlink:href="#DejaVuSans-Bold-48"/>
     <use x="208.740234" xlink:href="#DejaVuSans-Bold-181"/>
     <use x="282.324219" xlink:href="#DejaVuSans-Bold-115"/>
    </g>
   </g>
   <g id="text_42">
    <!-- 800µs -->
    <defs>
     <path d="M 34.8125 32.625 
Q 29.546875 32.625 26.703125 29.734375 
Q 23.875 26.859375 23.875 21.484375 
Q 23.875 16.109375 26.703125 13.25 
Q 29.546875 10.40625 34.8125 10.40625 
Q 40.046875 10.40625 42.828125 13.25 
Q 45.609375 16.109375 45.609375 21.484375 
Q 45.609375 26.90625 42.828125 29.765625 
Q 40.046875 32.625 34.8125 32.625 
z
M 21.09375 38.8125 
Q 14.453125 40.828125 11.078125 44.96875 
Q 7.71875 49.125 7.71875 55.328125 
Q 7.71875 64.546875 14.59375 69.375 
Q 21.484375 74.21875 34.8125 74.21875 
Q 48.046875 74.21875 54.921875 69.40625 
Q 61.8125 64.59375 61.8125 55.328125 
Q 61.8125 49.125 58.421875 44.96875 
Q 55.03125 40.828125 48.390625 38.8125 
Q 55.8125 36.765625 59.59375 32.15625 
Q 63.375 27.546875 63.375 20.515625 
Q 63.375 9.671875 56.171875 4.125 
Q 48.96875 -1.421875 34.8125 -1.421875 
Q 20.609375 -1.421875 13.359375 4.125 
Q 6.109375 9.671875 6.109375 20.515625 
Q 6.109375 27.546875 9.890625 32.15625 
Q 13.671875 36.765625 21.09375 38.8125 
z
M 25.484375 53.421875 
Q 25.484375 49.078125 27.90625 46.734375 
Q 30.328125 44.390625 34.8125 44.390625 
Q 39.203125 44.390625 41.59375 46.734375 
Q 44 49.078125 44 53.421875 
Q 44 57.765625 41.59375 60.078125 
Q 39.203125 62.40625 34.8125 62.40625 
Q 30.328125 62.40625 27.90625 60.0625 
Q 25.484375 57.71875 25.484375 53.421875 
z
" id="DejaVuSans-Bold-56"/>
    </defs>
    <g transform="translate(388.89446 420.826702)scale(0.117401 -0.117401)">
     <use xlink:href="#DejaVuSans-Bold-56"/>
     <use x="69.580078" xlink:href="#DejaVuSans-Bold-48"/>
     <use x="139.160156" xlink:href="#DejaVuSans-Bold-48"/>
     <use x="208.740234" xlink:href="#DejaVuSans-Bold-181"/>
     <use x="282.324219" xlink:href="#DejaVuSans-Bold-115"/>
    </g>
   </g>
   <g id="text_43">
    <!--   2ms -->
    <g transform="translate(389.612009 305.924893)scale(0.127742 -0.127742)">
     <use xlink:href="#DejaVuSans-Bold-32"/>
     <use x="34.814453" xlink:href="#DejaVuSans-Bold-32"/>
     <use x="69.628906" xlink:href="#DejaVuSans-Bold-50"/>
     <use x="139.208984" xlink:href="#DejaVuSans-Bold-109"/>
     <use x="243.408203" xlink:href="#DejaVuSans-Bold-115"/>
    </g>
   </g>
   <g id="text_44">
    <!--   6ms -->
    <g transform="translate(386.199932 191.346519)scale(0.15027 -0.15027)">
     <use xlink:href="#DejaVuSans-Bold-32"/>
     <use x="34.814453" xlink:href="#DejaVuSans-Bold-32"/>
     <use x="69.628906" xlink:href="#DejaVuSans-Bold-54"/>
     <use x="139.208984" xlink:href="#DejaVuSans-Bold-109"/>
     <use x="243.408203" xlink:href="#DejaVuSans-Bold-115"/>
    </g>
   </g>
   <g id="text_45">
    <!--  30ms -->
    <g transform="translate(376.612909 77.286411)scale(0.19158 -0.19158)">
     <use xlink:href="#DejaVuSans-Bold-32"/>
     <use x="34.814453" xlink:href="#DejaVuSans-Bold-51"/>
     <use x="104.394531" xlink:href="#DejaVuSans-Bold-48"/>
     <use x="173.974609" xlink:href="#DejaVuSans-Bold-109"/>
     <use x="278.173828" xlink:href="#DejaVuSans-Bold-115"/>
    </g>
   </g>
   <g id="text_46">
    <!-- 349µs -->
    <g transform="translate(474.54683 650.999582)scale(0.109138 -0.109138)">
     <use xlink:href="#DejaVuSans-Bold-51"/>
     <use x="69.580078" xlink:href="#DejaVuSans-Bold-52"/>
     <use x="139.160156" xlink:href="#DejaVuSans-Bold-57"/>
     <use x="208.740234" xlink:href="#DejaVuSans-Bold-181"/>
     <use x="282.324219" xlink:href="#DejaVuSans-Bold-115"/>
    </g>
   </g>
   <g id="text_47">
    <!-- 400µs -->
    <g transform="translate(474.338326 535.833111)scale(0.110358 -0.110358)">
     <use xlink:href="#DejaVuSans-Bold-52"/>
     <use x="69.580078" xlink:href="#DejaVuSans-Bold-48"/>
     <use x="139.160156" xlink:href="#DejaVuSans-Bold-48"/>
     <use x="208.740234" xlink:href="#DejaVuSans-Bold-181"/>
     <use x="282.324219" xlink:href="#DejaVuSans-Bold-115"/>
    </g>
   </g>
   <g id="text_48">
    <!-- 1000µs -->
    <g transform="translate(468.515625 420.898125)scale(0.12 -0.12)">
     <use xlink:href="#DejaVuSans-Bold-49"/>
     <use x="69.580078" xlink:href="#DejaVuSans-Bold-48"/>
     <use x="139.160156" xlink:href="#DejaVuSans-Bold-48"/>
     <use x="208.740234" xlink:href="#DejaVuSans-Bold-48"/>
     <use x="278.320312" xlink:href="#DejaVuSans-Bold-181"/>
     <use x="351.904297" xlink:href="#DejaVuSans-Bold-115"/>
    </g>
   </g>
   <g id="text_49">
    <!--   3ms -->
    <g transform="translate(472.526005 306.16647)scale(0.136497 -0.136497)">
     <use xlink:href="#DejaVuSans-Bold-32"/>
     <use x="34.814453" xlink:href="#DejaVuSans-Bold-32"/>
     <use x="69.628906" xlink:href="#DejaVuSans-Bold-51"/>
     <use x="139.208984" xlink:href="#DejaVuSans-Bold-109"/>
     <use x="243.408203" xlink:href="#DejaVuSans-Bold-115"/>
    </g>
   </g>
   <g id="text_50">
    <!--  15ms -->
    <g transform="translate(464.400918 191.906568)scale(0.170566 -0.170566)">
     <use xlink:href="#DejaVuSans-Bold-32"/>
     <use x="34.814453" xlink:href="#DejaVuSans-Bold-49"/>
     <use x="104.394531" xlink:href="#DejaVuSans-Bold-53"/>
     <use x="173.974609" xlink:href="#DejaVuSans-Bold-109"/>
     <use x="278.173828" xlink:href="#DejaVuSans-Bold-115"/>
    </g>
   </g>
   <g id="text_51">
    <!--  91ms -->
    <g transform="translate(453.464207 78.49393)scale(0.235341 -0.235341)">
     <use xlink:href="#DejaVuSans-Bold-32"/>
     <use x="34.814453" xlink:href="#DejaVuSans-Bold-57"/>
     <use x="104.394531" xlink:href="#DejaVuSans-Bold-49"/>
     <use x="173.974609" xlink:href="#DejaVuSans-Bold-109"/>
     <use x="278.173828" xlink:href="#DejaVuSans-Bold-115"/>
    </g>
   </g>
  </g>
  <g id="axes_2">
   <g id="patch_7">
    <path clip-path="url(#p4ae5240741)" d="M 622.8 648 
L 622.8 552 
L 622.8 168 
L 622.8 72 
L 651.6 72 
L 651.6 168 
L 651.6 552 
L 651.6 648 
z
" style="fill:#ffffff;stroke:#ffffff;stroke-linejoin:miter;stroke-width:0.01;"/>
   </g>
   <g id="QuadMesh_1">
    <path clip-path="url(#p4ae5240741)" d="M 622.8 648 
L 651.6 648 
L 651.6 552 
L 622.8 552 
L 622.8 648 
" style="fill:#481f70;"/>
    <path clip-path="url(#p4ae5240741)" d="M 622.8 552 
L 651.6 552 
L 651.6 456 
L 622.8 456 
L 622.8 552 
" style="fill:#3b528b;"/>
    <path clip-path="url(#p4ae5240741)" d="M 622.8 456 
L 651.6 456 
L 651.6 360 
L 622.8 360 
L 622.8 456 
" style="fill:#287c8e;"/>
    <path clip-path="url(#p4ae5240741)" d="M 622.8 360 
L 651.6 360 
L 651.6 264 
L 622.8 264 
L 622.8 360 
" style="fill:#20a486;"/>
    <path clip-path="url(#p4ae5240741)" d="M 622.8 264 
L 651.6 264 
L 651.6 168 
L 622.8 168 
L 622.8 264 
" style="fill:#5ec962;"/>
    <path clip-path="url(#p4ae5240741)" d="M 622.8 168 
L 651.6 168 
L 651.6 72 
L 622.8 72 
L 622.8 168 
" style="fill:#c8e020;"/>
   </g>
   <g id="matplotlib.axis_3"/>
   <g id="matplotlib.axis_4">
    <g id="ytick_7">
     <g id="line2d_13">
      <defs>
       <path d="M 0 0 
L 3.5 0 
" id="md8fc328afc" style="stroke:#000000;stroke-width:0.8;"/>
      </defs>
      <g>
       <use style="stroke:#000000;stroke-width:0.8;" x="651.6" xlink:href="#md8fc328afc" y="648"/>
      </g>
     </g>
     <g id="text_52">
      <!--  10B -->
      <defs>
       <path d="M 31.78125 66.40625 
Q 24.171875 66.40625 20.328125 58.90625 
Q 16.5 51.421875 16.5 36.375 
Q 16.5 21.390625 20.328125 13.890625 
Q 24.171875 6.390625 31.78125 6.390625 
Q 39.453125 6.390625 43.28125 13.890625 
Q 47.125 21.390625 47.125 36.375 
Q 47.125 51.421875 43.28125 58.90625 
Q 39.453125 66.40625 31.78125 66.40625 
z
M 31.78125 74.21875 
Q 44.046875 74.21875 50.515625 64.515625 
Q 56.984375 54.828125 56.984375 36.375 
Q 56.984375 17.96875 50.515625 8.265625 
Q 44.046875 -1.421875 31.78125 -1.421875 
Q 19.53125 -1.421875 13.0625 8.265625 
Q 6.59375 17.96875 6.59375 36.375 
Q 6.59375 54.828125 13.0625 64.515625 
Q 19.53125 74.21875 31.78125 74.21875 
z
" id="DejaVuSans-48"/>
       <path d="M 19.671875 34.8125 
L 19.671875 8.109375 
L 35.5 8.109375 
Q 43.453125 8.109375 47.28125 11.40625 
Q 51.125 14.703125 51.125 21.484375 
Q 51.125 28.328125 47.28125 31.5625 
Q 43.453125 34.8125 35.5 34.8125 
z
M 19.671875 64.796875 
L 19.671875 42.828125 
L 34.28125 42.828125 
Q 41.5 42.828125 45.03125 45.53125 
Q 48.578125 48.25 48.578125 53.8125 
Q 48.578125 59.328125 45.03125 62.0625 
Q 41.5 64.796875 34.28125 64.796875 
z
M 9.8125 72.90625 
L 35.015625 72.90625 
Q 46.296875 72.90625 52.390625 68.21875 
Q 58.5 63.53125 58.5 54.890625 
Q 58.5 48.1875 55.375 44.234375 
Q 52.25 40.28125 46.1875 39.3125 
Q 53.46875 37.75 57.5 32.78125 
Q 61.53125 27.828125 61.53125 20.40625 
Q 61.53125 10.640625 54.890625 5.3125 
Q 48.25 0 35.984375 0 
L 9.8125 0 
z
" id="DejaVuSans-66"/>
      </defs>
      <g transform="translate(658.6 651.799219)scale(0.1 -0.1)">
       <use xlink:href="#DejaVuSans-32"/>
       <use x="31.787109" xlink:href="#DejaVuSans-49"/>
       <use x="95.410156" xlink:href="#DejaVuSans-48"/>
       <use x="159.033203" xlink:href="#DejaVuSans-66"/>
      </g>
     </g>
    </g>
    <g id="ytick_8">
     <g id="line2d_14">
      <g>
       <use style="stroke:#000000;stroke-width:0.8;" x="651.6" xlink:href="#md8fc328afc" y="552"/>
      </g>
     </g>
     <g id="text_53">
      <!-- 100B -->
      <g transform="translate(658.6 555.799219)scale(0.1 -0.1)">
       <use xlink:href="#DejaVuSans-49"/>
       <use x="63.623047" xlink:href="#DejaVuSans-48"/>
       <use x="127.246094" xlink:href="#DejaVuSans-48"/>
       <use x="190.869141" xlink:href="#DejaVuSans-66"/>
      </g>
     </g>
    </g>
    <g id="ytick_9">
     <g id="line2d_15">
      <g>
       <use style="stroke:#000000;stroke-width:0.8;" x="651.6" xlink:href="#md8fc328afc" y="456"/>
      </g>
     </g>
     <g id="text_54">
      <!--   1KB -->
      <defs>
       <path d="M 9.8125 72.90625 
L 19.671875 72.90625 
L 19.671875 42.09375 
L 52.390625 72.90625 
L 65.09375 72.90625 
L 28.90625 38.921875 
L 67.671875 0 
L 54.6875 0 
L 19.671875 35.109375 
L 19.671875 0 
L 9.8125 0 
z
" id="DejaVuSans-75"/>
      </defs>
      <g transform="translate(658.6 459.799219)scale(0.1 -0.1)">
       <use xlink:href="#DejaVuSans-32"/>
       <use x="31.787109" xlink:href="#DejaVuSans-32"/>
       <use x="63.574219" xlink:href="#DejaVuSans-49"/>
       <use x="127.197266" xlink:href="#DejaVuSans-75"/>
       <use x="192.773438" xlink:href="#DejaVuSans-66"/>
      </g>
     </g>
    </g>
    <g id="ytick_10">
     <g id="line2d_16">
      <g>
       <use style="stroke:#000000;stroke-width:0.8;" x="651.6" xlink:href="#md8fc328afc" y="360"/>
      </g>
     </g>
     <g id="text_55">
      <!--  10KB -->
      <g transform="translate(658.6 363.799219)scale(0.1 -0.1)">
       <use xlink:href="#DejaVuSans-32"/>
       <use x="31.787109" xlink:href="#DejaVuSans-49"/>
       <use x="95.410156" xlink:href="#DejaVuSans-48"/>
       <use x="159.033203" xlink:href="#DejaVuSans-75"/>
       <use x="224.609375" xlink:href="#DejaVuSans-66"/>
      </g>
     </g>
    </g>
    <g id="ytick_11">
     <g id="line2d_17">
      <g>
       <use style="stroke:#000000;stroke-width:0.8;" x="651.6" xlink:href="#md8fc328afc" y="264"/>
      </g>
     </g>
     <g id="text_56">
      <!-- 100KB -->
      <g transform="translate(658.6 267.799219)scale(0.1 -0.1)">
       <use xlink:href="#DejaVuSans-49"/>
       <use x="63.623047" xlink:href="#DejaVuSans-48"/>
       <use x="127.246094" xlink:href="#DejaVuSans-48"/>
       <use x="190.869141" xlink:href="#DejaVuSans-75"/>
       <use x="256.445312" xlink:href="#DejaVuSans-66"/>
      </g>
     </g>
    </g>
    <g id="ytick_12">
     <g id="line2d_18">
      <g>
       <use style="stroke:#000000;stroke-width:0.8;" x="651.6" xlink:href="#md8fc328afc" y="168"/>
      </g>
     </g>
     <g id="text_57">
      <!--   1MB -->
      <defs>
       <path d="M 9.8125 72.90625 
L 24.515625 72.90625 
L 43.109375 23.296875 
L 61.8125 72.90625 
L 76.515625 72.90625 
L 76.515625 0 
L 66.890625 0 
L 66.890625 64.015625 
L 48.09375 14.015625 
L 38.1875 14.015625 
L 19.390625 64.015625 
L 19.390625 0 
L 9.8125 0 
z
" id="DejaVuSans-77"/>
      </defs>
      <g transform="translate(658.6 171.799219)scale(0.1 -0.1)">
       <use xlink:href="#DejaVuSans-32"/>
       <use x="31.787109" xlink:href="#DejaVuSans-32"/>
       <use x="63.574219" xlink:href="#DejaVuSans-49"/>
       <use x="127.197266" xlink:href="#DejaVuSans-77"/>
       <use x="213.476562" xlink:href="#DejaVuSans-66"/>
      </g>
     </g>
    </g>
    <g id="ytick_13">
     <g id="line2d_19">
      <g>
       <use style="stroke:#000000;stroke-width:0.8;" x="651.6" xlink:href="#md8fc328afc" y="72"/>
      </g>
     </g>
     <g id="text_58">
      <!--  10MB -->
      <g transform="translate(658.6 75.799219)scale(0.1 -0.1)">
       <use xlink:href="#DejaVuSans-32"/>
       <use x="31.787109" xlink:href="#DejaVuSans-49"/>
       <use x="95.410156" xlink:href="#DejaVuSans-48"/>
       <use x="159.033203" xlink:href="#DejaVuSans-77"/>
       <use x="245.3125" xlink:href="#DejaVuSans-66"/>
      </g>
     </g>
    </g>
    <g id="text_59">
     <!-- serialized payload size -->
     <defs>
      <path d="M 44.28125 53.078125 
L 44.28125 44.578125 
Q 40.484375 46.53125 36.375 47.5 
Q 32.28125 48.484375 27.875 48.484375 
Q 21.1875 48.484375 17.84375 46.4375 
Q 14.5 44.390625 14.5 40.28125 
Q 14.5 37.15625 16.890625 35.375 
Q 19.28125 33.59375 26.515625 31.984375 
L 29.59375 31.296875 
Q 39.15625 29.25 43.1875 25.515625 
Q 47.21875 21.78125 47.21875 15.09375 
Q 47.21875 7.46875 41.1875 3.015625 
Q 35.15625 -1.421875 24.609375 -1.421875 
Q 20.21875 -1.421875 15.453125 -0.5625 
Q 10.6875 0.296875 5.421875 2 
L 5.421875 11.28125 
Q 10.40625 8.6875 15.234375 7.390625 
Q 20.0625 6.109375 24.8125 6.109375 
Q 31.15625 6.109375 34.5625 8.28125 
Q 37.984375 10.453125 37.984375 14.40625 
Q 37.984375 18.0625 35.515625 20.015625 
Q 33.0625 21.96875 24.703125 23.78125 
L 21.578125 24.515625 
Q 13.234375 26.265625 9.515625 29.90625 
Q 5.8125 33.546875 5.8125 39.890625 
Q 5.8125 47.609375 11.28125 51.796875 
Q 16.75 56 26.8125 56 
Q 31.78125 56 36.171875 55.265625 
Q 40.578125 54.546875 44.28125 53.078125 
z
" id="DejaVuSans-115"/>
      <path d="M 5.515625 54.6875 
L 48.1875 54.6875 
L 48.1875 46.484375 
L 14.40625 7.171875 
L 48.1875 7.171875 
L 48.1875 0 
L 4.296875 0 
L 4.296875 8.203125 
L 38.09375 47.515625 
L 5.515625 47.515625 
z
" id="DejaVuSans-122"/>
     </defs>
     <g transform="translate(702.704687 416.6)rotate(-90)scale(0.1 -0.1)">
      <use xlink:href="#DejaVuSans-115"/>
      <use x="52.099609" xlink:href="#DejaVuSans-101"/>
      <use x="113.623047" xlink:href="#DejaVuSans-114"/>
      <use x="154.736328" xlink:href="#DejaVuSans-105"/>
      <use x="182.519531" xlink:href="#DejaVuSans-97"/>
      <use x="243.798828" xlink:href="#DejaVuSans-108"/>
      <use x="271.582031" xlink:href="#DejaVuSans-105"/>
      <use x="299.365234" xlink:href="#DejaVuSans-122"/>
      <use x="351.855469" xlink:href="#DejaVuSans-101"/>
      <use x="413.378906" xlink:href="#DejaVuSans-100"/>
      <use x="476.855469" xlink:href="#DejaVuSans-32"/>
      <use x="508.642578" xlink:href="#DejaVuSans-112"/>
      <use x="572.119141" xlink:href="#DejaVuSans-97"/>
      <use x="633.398438" xlink:href="#DejaVuSans-121"/>
      <use x="692.578125" xlink:href="#DejaVuSans-108"/>
      <use x="720.361328" xlink:href="#DejaVuSans-111"/>
      <use x="781.542969" xlink:href="#DejaVuSans-97"/>
      <use x="842.822266" xlink:href="#DejaVuSans-100"/>
      <use x="906.298828" xlink:href="#DejaVuSans-32"/>
      <use x="938.085938" xlink:href="#DejaVuSans-115"/>
      <use x="990.185547" xlink:href="#DejaVuSans-105"/>
      <use x="1017.96875" xlink:href="#DejaVuSans-122"/>
      <use x="1070.458984" xlink:href="#DejaVuSans-101"/>
     </g>
    </g>
   </g>
   <g id="patch_8">
    <path d="M 622.8 648 
L 622.8 552 
L 622.8 168 
L 622.8 72 
L 651.6 72 
L 651.6 168 
L 651.6 552 
L 651.6 648 
z
" style="fill:none;stroke:#000000;stroke-linejoin:miter;stroke-width:0.8;"/>
   </g>
  </g>
 </g>
 <defs>
  <clipPath id="p803885182b">
   <rect height="576" width="421.2" x="72" y="72"/>
  </clipPath>
  <clipPath id="p4ae5240741">
   <rect height="576" width="28.8" x="622.8" y="72"/>
  </clipPath>
 </defs>
</svg>
