<?xml version="1.0" encoding="utf-8" standalone="no"?>
<!DOCTYPE svg PUBLIC "-//W3C//DTD SVG 1.1//EN"
  "http://www.w3.org/Graphics/SVG/1.1/DTD/svg11.dtd">
<!-- Created with matplotlib (https://matplotlib.org/) -->
<svg height="720pt" version="1.1" viewBox="0 0 720 720" width="720pt" xmlns="http://www.w3.org/2000/svg" xmlns:xlink="http://www.w3.org/1999/xlink">
 <defs>
  <style type="text/css">
*{stroke-linecap:butt;stroke-linejoin:round;white-space:pre;}
  </style>
 </defs>
 <g id="figure_1">
  <g id="patch_1">
   <path d="M 0 720 
L 720 720 
L 720 0 
L 0 0 
z
" style="fill:#ffffff;"/>
  </g>
  <g id="axes_1">
   <g id="patch_2">
    <path d="M 72 648 
L 493.2 648 
L 493.2 72 
L 72 72 
z
" style="fill:#ffffff;"/>
   </g>
   <g id="PathCollection_1">
    <path clip-path="url(#p7be6003c6d)" d="M 156.24 648 
L 240.48 648 
L 324.72 648 
L 332.852967 648 
L 324.72 647.681794 
L 240.48 639.966872 
L 156.24 606.311218 
L 96.2414 532.8 
L 72 430.293422 
L 72 532.8 
L 72 648 
z
" style="fill:#481f70;"/>
   </g>
   <g id="PathCollection_2">
    <path clip-path="url(#p7be6003c6d)" d="M 156.24 606.311218 
L 240.48 639.966872 
L 324.72 647.681794 
L 332.852967 648 
L 408.96 648 
L 493.2 648 
L 493.2 618.248947 
L 408.96 584.641798 
L 340.295479 532.8 
L 324.72 525.915639 
L 240.48 442.761877 
L 222.732188 417.6 
L 172.279003 302.4 
L 157.244619 187.2 
L 156.24 173.506398 
L 130.744622 72 
L 72 72 
L 72 187.2 
L 72 302.4 
L 72 417.6 
L 72 430.293422 
L 96.2414 532.8 
z
" style="fill:#3b528b;"/>
   </g>
   <g id="PathCollection_3">
    <path clip-path="url(#p7be6003c6d)" d="M 408.96 584.641798 
L 493.2 618.248947 
L 493.2 532.8 
L 493.2 506.73757 
L 408.96 427.345767 
L 399.998776 417.6 
L 324.72 309.691224 
L 320.057677 302.4 
L 262.605392 187.2 
L 244.172312 72 
L 240.48 72 
L 156.24 72 
L 130.744622 72 
L 156.24 173.506398 
L 157.244619 187.2 
L 172.279003 302.4 
L 222.732188 417.6 
L 240.48 442.761877 
L 324.72 525.915639 
L 340.295479 532.8 
z
" style="fill:#287c8e;"/>
   </g>
   <g id="PathCollection_4">
    <path clip-path="url(#p7be6003c6d)" d="M 408.96 427.345767 
L 493.2 506.73757 
L 493.2 417.6 
L 493.2 359.874667 
L 447.996165 302.4 
L 408.96 219.077403 
L 389.789479 187.2 
L 342.016195 72 
L 324.72 72 
L 244.172312 72 
L 262.605392 187.2 
L 320.057677 302.4 
L 324.72 309.691224 
L 399.998776 417.6 
z
" style="fill:#20a486;"/>
   </g>
   <g id="PathCollection_5">
    <path clip-path="url(#p7be6003c6d)" d="M 493.2 359.874667 
L 493.2 302.4 
L 493.2 187.2 
L 493.2 148.79319 
L 449.003496 72 
L 408.96 72 
L 342.016195 72 
L 389.789479 187.2 
L 408.96 219.077403 
L 447.996165 302.4 
z
" style="fill:#5ec962;"/>
   </g>
   <g id="PathCollection_6">
    <path clip-path="url(#p7be6003c6d)" d="M 493.2 148.79319 
L 493.2 72 
L 449.003496 72 
z
" style="fill:#c8e020;"/>
   </g>
   <g id="matplotlib.axis_1">
    <g id="xtick_1">
     <g id="line2d_1">
      <defs>
       <path d="M 0 0 
L 0 3.5 
" id="m036c58ad29" style="stroke:#000000;stroke-width:0.8;"/>
      </defs>
      <g>
       <use style="stroke:#000000;stroke-width:0.8;" x="72" xlink:href="#m036c58ad29" y="648"/>
      </g>
     </g>
     <g id="text_1">
      <!-- 1 -->
      <defs>
       <path d="M 12.40625 8.296875 
L 28.515625 8.296875 
L 28.515625 63.921875 
L 10.984375 60.40625 
L 10.984375 69.390625 
L 28.421875 72.90625 
L 38.28125 72.90625 
L 38.28125 8.296875 
L 54.390625 8.296875 
L 54.390625 0 
L 12.40625 0 
z
" id="DejaVuSans-49"/>
      </defs>
      <g transform="translate(68.81875 689.098438)scale(0.1 -0.1)">
       <use xlink:href="#DejaVuSans-49"/>
      </g>
     </g>
    </g>
    <g id="xtick_2">
     <g id="line2d_2">
      <g>
       <use style="stroke:#000000;stroke-width:0.8;" x="156.24" xlink:href="#m036c58ad29" y="648"/>
      </g>
     </g>
     <g id="text_2">
      <!-- 2 -->
      <defs>
       <path d="M 19.1875 8.296875 
L 53.609375 8.296875 
L 53.609375 0 
L 7.328125 0 
L 7.328125 8.296875 
Q 12.9375 14.109375 22.625 23.890625 
Q 32.328125 33.6875 34.8125 36.53125 
Q 39.546875 41.84375 41.421875 45.53125 
Q 43.3125 49.21875 43.3125 52.78125 
Q 43.3125 58.59375 39.234375 62.25 
Q 35.15625 65.921875 28.609375 65.921875 
Q 23.96875 65.921875 18.8125 64.3125 
Q 13.671875 62.703125 7.8125 59.421875 
L 7.8125 69.390625 
Q 13.765625 71.78125 18.9375 73 
Q 24.125 74.21875 28.421875 74.21875 
Q 39.75 74.21875 46.484375 68.546875 
Q 53.21875 62.890625 53.21875 53.421875 
Q 53.21875 48.921875 51.53125 44.890625 
Q 49.859375 40.875 45.40625 35.40625 
Q 44.1875 33.984375 37.640625 27.21875 
Q 31.109375 20.453125 19.1875 8.296875 
z
" id="DejaVuSans-50"/>
      </defs>
      <g transform="translate(153.05875 689.098438)scale(0.1 -0.1)">
       <use xlink:href="#DejaVuSans-50"/>
      </g>
     </g>
    </g>
    <g id="xtick_3">
     <g id="line2d_3">
      <g>
       <use style="stroke:#000000;stroke-width:0.8;" x="240.48" xlink:href="#m036c58ad29" y="648"/>
      </g>
     </g>
     <g id="text_3">
      <!-- 3 -->
      <defs>
       <path d="M 40.578125 39.3125 
Q 47.65625 37.796875 51.625 33 
Q 55.609375 28.21875 55.609375 21.1875 
Q 55.609375 10.40625 48.1875 4.484375 
Q 40.765625 -1.421875 27.09375 -1.421875 
Q 22.515625 -1.421875 17.65625 -0.515625 
Q 12.796875 0.390625 7.625 2.203125 
L 7.625 11.71875 
Q 11.71875 9.328125 16.59375 8.109375 
Q 21.484375 6.890625 26.8125 6.890625 
Q 36.078125 6.890625 40.9375 10.546875 
Q 45.796875 14.203125 45.796875 21.1875 
Q 45.796875 27.640625 41.28125 31.265625 
Q 36.765625 34.90625 28.71875 34.90625 
L 20.21875 34.90625 
L 20.21875 43.015625 
L 29.109375 43.015625 
Q 36.375 43.015625 40.234375 45.921875 
Q 44.09375 48.828125 44.09375 54.296875 
Q 44.09375 59.90625 40.109375 62.90625 
Q 36.140625 65.921875 28.71875 65.921875 
Q 24.65625 65.921875 20.015625 65.03125 
Q 15.375 64.15625 9.8125 62.3125 
L 9.8125 71.09375 
Q 15.4375 72.65625 20.34375 73.4375 
Q 25.25 74.21875 29.59375 74.21875 
Q 40.828125 74.21875 47.359375 69.109375 
Q 53.90625 64.015625 53.90625 55.328125 
Q 53.90625 49.265625 50.4375 45.09375 
Q 46.96875 40.921875 40.578125 39.3125 
z
" id="DejaVuSans-51"/>
      </defs>
      <g transform="translate(237.29875 689.098438)scale(0.1 -0.1)">
       <use xlink:href="#DejaVuSans-51"/>
      </g>
     </g>
    </g>
    <g id="xtick_4">
     <g id="line2d_4">
      <g>
       <use style="stroke:#000000;stroke-width:0.8;" x="324.72" xlink:href="#m036c58ad29" y="648"/>
      </g>
     </g>
     <g id="text_4">
      <!-- 4 -->
      <defs>
       <path d="M 37.796875 64.3125 
L 12.890625 25.390625 
L 37.796875 25.390625 
z
M 35.203125 72.90625 
L 47.609375 72.90625 
L 47.609375 25.390625 
L 58.015625 25.390625 
L 58.015625 17.1875 
L 47.609375 17.1875 
L 47.609375 0 
L 37.796875 0 
L 37.796875 17.1875 
L 4.890625 17.1875 
L 4.890625 26.703125 
z
" id="DejaVuSans-52"/>
      </defs>
      <g transform="translate(321.53875 689.098438)scale(0.1 -0.1)">
       <use xlink:href="#DejaVuSans-52"/>
      </g>
     </g>
    </g>
    <g id="xtick_5">
     <g id="line2d_5">
      <g>
       <use style="stroke:#000000;stroke-width:0.8;" x="408.96" xlink:href="#m036c58ad29" y="648"/>
      </g>
     </g>
     <g id="text_5">
      <!-- 5 -->
      <defs>
       <path d="M 10.796875 72.90625 
L 49.515625 72.90625 
L 49.515625 64.59375 
L 19.828125 64.59375 
L 19.828125 46.734375 
Q 21.96875 47.46875 24.109375 47.828125 
Q 26.265625 48.1875 28.421875 48.1875 
Q 40.625 48.1875 47.75 41.5 
Q 54.890625 34.8125 54.890625 23.390625 
Q 54.890625 11.625 47.5625 5.09375 
Q 40.234375 -1.421875 26.90625 -1.421875 
Q 22.3125 -1.421875 17.546875 -0.640625 
Q 12.796875 0.140625 7.71875 1.703125 
L 7.71875 11.625 
Q 12.109375 9.234375 16.796875 8.0625 
Q 21.484375 6.890625 26.703125 6.890625 
Q 35.15625 6.890625 40.078125 11.328125 
Q 45.015625 15.765625 45.015625 23.390625 
Q 45.015625 31 40.078125 35.4375 
Q 35.15625 39.890625 26.703125 39.890625 
Q 22.75 39.890625 18.8125 39.015625 
Q 14.890625 38.140625 10.796875 36.28125 
z
" id="DejaVuSans-53"/>
      </defs>
      <g transform="translate(405.77875 689.098438)scale(0.1 -0.1)">
       <use xlink:href="#DejaVuSans-53"/>
      </g>
     </g>
    </g>
    <g id="xtick_6">
     <g id="line2d_6">
      <g>
       <use style="stroke:#000000;stroke-width:0.8;" x="493.2" xlink:href="#m036c58ad29" y="648"/>
      </g>
     </g>
     <g id="text_6">
      <!-- 6 -->
      <defs>
       <path d="M 33.015625 40.375 
Q 26.375 40.375 22.484375 35.828125 
Q 18.609375 31.296875 18.609375 23.390625 
Q 18.609375 15.53125 22.484375 10.953125 
Q 26.375 6.390625 33.015625 6.390625 
Q 39.65625 6.390625 43.53125 10.953125 
Q 47.40625 15.53125 47.40625 23.390625 
Q 47.40625 31.296875 43.53125 35.828125 
Q 39.65625 40.375 33.015625 40.375 
z
M 52.59375 71.296875 
L 52.59375 62.3125 
Q 48.875 64.0625 45.09375 64.984375 
Q 41.3125 65.921875 37.59375 65.921875 
Q 27.828125 65.921875 22.671875 59.328125 
Q 17.53125 52.734375 16.796875 39.40625 
Q 19.671875 43.65625 24.015625 45.921875 
Q 28.375 48.1875 33.59375 48.1875 
Q 44.578125 48.1875 50.953125 41.515625 
Q 57.328125 34.859375 57.328125 23.390625 
Q 57.328125 12.15625 50.6875 5.359375 
Q 44.046875 -1.421875 33.015625 -1.421875 
Q 20.359375 -1.421875 13.671875 8.265625 
Q 6.984375 17.96875 6.984375 36.375 
Q 6.984375 53.65625 15.1875 63.9375 
Q 23.390625 74.21875 37.203125 74.21875 
Q 40.921875 74.21875 44.703125 73.484375 
Q 48.484375 72.75 52.59375 71.296875 
z
" id="DejaVuSans-54"/>
      </defs>
      <g transform="translate(490.01875 689.098438)scale(0.1 -0.1)">
       <use xlink:href="#DejaVuSans-54"/>
      </g>
     </g>
    </g>
    <g id="text_7">
     <!-- payload breadth -->
     <defs>
      <path d="M 18.109375 8.203125 
L 18.109375 -20.796875 
L 9.078125 -20.796875 
L 9.078125 54.6875 
L 18.109375 54.6875 
L 18.109375 46.390625 
Q 20.953125 51.265625 25.265625 53.625 
Q 29.59375 56 35.59375 56 
Q 45.5625 56 51.78125 48.09375 
Q 58.015625 40.1875 58.015625 27.296875 
Q 58.015625 14.40625 51.78125 6.484375 
Q 45.5625 -1.421875 35.59375 -1.421875 
Q 29.59375 -1.421875 25.265625 0.953125 
Q 20.953125 3.328125 18.109375 8.203125 
z
M 48.6875 27.296875 
Q 48.6875 37.203125 44.609375 42.84375 
Q 40.53125 48.484375 33.40625 48.484375 
Q 26.265625 48.484375 22.1875 42.84375 
Q 18.109375 37.203125 18.109375 27.296875 
Q 18.109375 17.390625 22.1875 11.75 
Q 26.265625 6.109375 33.40625 6.109375 
Q 40.53125 6.109375 44.609375 11.75 
Q 48.6875 17.390625 48.6875 27.296875 
z
" id="DejaVuSans-112"/>
      <path d="M 34.28125 27.484375 
Q 23.390625 27.484375 19.1875 25 
Q 14.984375 22.515625 14.984375 16.5 
Q 14.984375 11.71875 18.140625 8.90625 
Q 21.296875 6.109375 26.703125 6.109375 
Q 34.1875 6.109375 38.703125 11.40625 
Q 43.21875 16.703125 43.21875 25.484375 
L 43.21875 27.484375 
z
M 52.203125 31.203125 
L 52.203125 0 
L 43.21875 0 
L 43.21875 8.296875 
Q 40.140625 3.328125 35.546875 0.953125 
Q 30.953125 -1.421875 24.3125 -1.421875 
Q 15.921875 -1.421875 10.953125 3.296875 
Q 6 8.015625 6 15.921875 
Q 6 25.140625 12.171875 29.828125 
Q 18.359375 34.515625 30.609375 34.515625 
L 43.21875 34.515625 
L 43.21875 35.40625 
Q 43.21875 41.609375 39.140625 45 
Q 35.0625 48.390625 27.6875 48.390625 
Q 23 48.390625 18.546875 47.265625 
Q 14.109375 46.140625 10.015625 43.890625 
L 10.015625 52.203125 
Q 14.9375 54.109375 19.578125 55.046875 
Q 24.21875 56 28.609375 56 
Q 40.484375 56 46.34375 49.84375 
Q 52.203125 43.703125 52.203125 31.203125 
z
" id="DejaVuSans-97"/>
      <path d="M 32.171875 -5.078125 
Q 28.375 -14.84375 24.75 -17.8125 
Q 21.140625 -20.796875 15.09375 -20.796875 
L 7.90625 -20.796875 
L 7.90625 -13.28125 
L 13.1875 -13.28125 
Q 16.890625 -13.28125 18.9375 -11.515625 
Q 21 -9.765625 23.484375 -3.21875 
L 25.09375 0.875 
L 2.984375 54.6875 
L 12.5 54.6875 
L 29.59375 11.921875 
L 46.6875 54.6875 
L 56.203125 54.6875 
z
" id="DejaVuSans-121"/>
      <path d="M 9.421875 75.984375 
L 18.40625 75.984375 
L 18.40625 0 
L 9.421875 0 
z
" id="DejaVuSans-108"/>
      <path d="M 30.609375 48.390625 
Q 23.390625 48.390625 19.1875 42.75 
Q 14.984375 37.109375 14.984375 27.296875 
Q 14.984375 17.484375 19.15625 11.84375 
Q 23.34375 6.203125 30.609375 6.203125 
Q 37.796875 6.203125 41.984375 11.859375 
Q 46.1875 17.53125 46.1875 27.296875 
Q 46.1875 37.015625 41.984375 42.703125 
Q 37.796875 48.390625 30.609375 48.390625 
z
M 30.609375 56 
Q 42.328125 56 49.015625 48.375 
Q 55.71875 40.765625 55.71875 27.296875 
Q 55.71875 13.875 49.015625 6.21875 
Q 42.328125 -1.421875 30.609375 -1.421875 
Q 18.84375 -1.421875 12.171875 6.21875 
Q 5.515625 13.875 5.515625 27.296875 
Q 5.515625 40.765625 12.171875 48.375 
Q 18.84375 56 30.609375 56 
z
" id="DejaVuSans-111"/>
      <path d="M 45.40625 46.390625 
L 45.40625 75.984375 
L 54.390625 75.984375 
L 54.390625 0 
L 45.40625 0 
L 45.40625 8.203125 
Q 42.578125 3.328125 38.25 0.953125 
Q 33.9375 -1.421875 27.875 -1.421875 
Q 17.96875 -1.421875 11.734375 6.484375 
Q 5.515625 14.40625 5.515625 27.296875 
Q 5.515625 40.1875 11.734375 48.09375 
Q 17.96875 56 27.875 56 
Q 33.9375 56 38.25 53.625 
Q 42.578125 51.265625 45.40625 46.390625 
z
M 14.796875 27.296875 
Q 14.796875 17.390625 18.875 11.75 
Q 22.953125 6.109375 30.078125 6.109375 
Q 37.203125 6.109375 41.296875 11.75 
Q 45.40625 17.390625 45.40625 27.296875 
Q 45.40625 37.203125 41.296875 42.84375 
Q 37.203125 48.484375 30.078125 48.484375 
Q 22.953125 48.484375 18.875 42.84375 
Q 14.796875 37.203125 14.796875 27.296875 
z
" id="DejaVuSans-100"/>
      <path id="DejaVuSans-32"/>
      <path d="M 48.6875 27.296875 
Q 48.6875 37.203125 44.609375 42.84375 
Q 40.53125 48.484375 33.40625 48.484375 
Q 26.265625 48.484375 22.1875 42.84375 
Q 18.109375 37.203125 18.109375 27.296875 
Q 18.109375 17.390625 22.1875 11.75 
Q 26.265625 6.109375 33.40625 6.109375 
Q 40.53125 6.109375 44.609375 11.75 
Q 48.6875 17.390625 48.6875 27.296875 
z
M 18.109375 46.390625 
Q 20.953125 51.265625 25.265625 53.625 
Q 29.59375 56 35.59375 56 
Q 45.5625 56 51.78125 48.09375 
Q 58.015625 40.1875 58.015625 27.296875 
Q 58.015625 14.40625 51.78125 6.484375 
Q 45.5625 -1.421875 35.59375 -1.421875 
Q 29.59375 -1.421875 25.265625 0.953125 
Q 20.953125 3.328125 18.109375 8.203125 
L 18.109375 0 
L 9.078125 0 
L 9.078125 75.984375 
L 18.109375 75.984375 
z
" id="DejaVuSans-98"/>
      <path d="M 41.109375 46.296875 
Q 39.59375 47.171875 37.8125 47.578125 
Q 36.03125 48 33.890625 48 
Q 26.265625 48 22.1875 43.046875 
Q 18.109375 38.09375 18.109375 28.8125 
L 18.109375 0 
L 9.078125 0 
L 9.078125 54.6875 
L 18.109375 54.6875 
L 18.109375 46.1875 
Q 20.953125 51.171875 25.484375 53.578125 
Q 30.03125 56 36.53125 56 
Q 37.453125 56 38.578125 55.875 
Q 39.703125 55.765625 41.0625 55.515625 
z
" id="DejaVuSans-114"/>
      <path d="M 56.203125 29.59375 
L 56.203125 25.203125 
L 14.890625 25.203125 
Q 15.484375 15.921875 20.484375 11.0625 
Q 25.484375 6.203125 34.421875 6.203125 
Q 39.59375 6.203125 44.453125 7.46875 
Q 49.3125 8.734375 54.109375 11.28125 
L 54.109375 2.78125 
Q 49.265625 0.734375 44.1875 -0.34375 
Q 39.109375 -1.421875 33.890625 -1.421875 
Q 20.796875 -1.421875 13.15625 6.1875 
Q 5.515625 13.8125 5.515625 26.8125 
Q 5.515625 40.234375 12.765625 48.109375 
Q 20.015625 56 32.328125 56 
Q 43.359375 56 49.78125 48.890625 
Q 56.203125 41.796875 56.203125 29.59375 
z
M 47.21875 32.234375 
Q 47.125 39.59375 43.09375 43.984375 
Q 39.0625 48.390625 32.421875 48.390625 
Q 24.90625 48.390625 20.390625 44.140625 
Q 15.875 39.890625 15.1875 32.171875 
z
" id="DejaVuSans-101"/>
      <path d="M 18.3125 70.21875 
L 18.3125 54.6875 
L 36.8125 54.6875 
L 36.8125 47.703125 
L 18.3125 47.703125 
L 18.3125 18.015625 
Q 18.3125 11.328125 20.140625 9.421875 
Q 21.96875 7.515625 27.59375 7.515625 
L 36.8125 7.515625 
L 36.8125 0 
L 27.59375 0 
Q 17.1875 0 13.234375 3.875 
Q 9.28125 7.765625 9.28125 18.015625 
L 9.28125 47.703125 
L 2.6875 47.703125 
L 2.6875 54.6875 
L 9.28125 54.6875 
L 9.28125 70.21875 
z
" id="DejaVuSans-116"/>
      <path d="M 54.890625 33.015625 
L 54.890625 0 
L 45.90625 0 
L 45.90625 32.71875 
Q 45.90625 40.484375 42.875 44.328125 
Q 39.84375 48.1875 33.796875 48.1875 
Q 26.515625 48.1875 22.3125 43.546875 
Q 18.109375 38.921875 18.109375 30.90625 
L 18.109375 0 
L 9.078125 0 
L 9.078125 75.984375 
L 18.109375 75.984375 
L 18.109375 46.1875 
Q 21.34375 51.125 25.703125 53.5625 
Q 30.078125 56 35.796875 56 
Q 45.21875 56 50.046875 50.171875 
Q 54.890625 44.34375 54.890625 33.015625 
z
" id="DejaVuSans-104"/>
     </defs>
     <g transform="translate(241.454687 702.776563)scale(0.1 -0.1)">
      <use xlink:href="#DejaVuSans-112"/>
      <use x="63.476562" xlink:href="#DejaVuSans-97"/>
      <use x="124.755859" xlink:href="#DejaVuSans-121"/>
      <use x="183.935547" xlink:href="#DejaVuSans-108"/>
      <use x="211.71875" xlink:href="#DejaVuSans-111"/>
      <use x="272.900391" xlink:href="#DejaVuSans-97"/>
      <use x="334.179688" xlink:href="#DejaVuSans-100"/>
      <use x="397.65625" xlink:href="#DejaVuSans-32"/>
      <use x="429.443359" xlink:href="#DejaVuSans-98"/>
      <use x="492.919922" xlink:href="#DejaVuSans-114"/>
      <use x="534.001953" xlink:href="#DejaVuSans-101"/>
      <use x="595.525391" xlink:href="#DejaVuSans-97"/>
      <use x="656.804688" xlink:href="#DejaVuSans-100"/>
      <use x="720.28125" xlink:href="#DejaVuSans-116"/>
      <use x="759.490234" xlink:href="#DejaVuSans-104"/>
     </g>
    </g>
   </g>
   <g id="matplotlib.axis_2">
    <g id="ytick_1">
     <g id="line2d_7">
      <defs>
       <path d="M 0 0 
L -3.5 0 
" id="m50d8b9e34a" style="stroke:#000000;stroke-width:0.8;"/>
      </defs>
      <g>
       <use style="stroke:#000000;stroke-width:0.8;" x="72" xlink:href="#m50d8b9e34a" y="648"/>
      </g>
     </g>
     <g id="text_8">
      <!-- 1 -->
      <g transform="translate(32.1375 651.799219)scale(0.1 -0.1)">
       <use xlink:href="#DejaVuSans-49"/>
      </g>
     </g>
    </g>
    <g id="ytick_2">
     <g id="line2d_8">
      <g>
       <use style="stroke:#000000;stroke-width:0.8;" x="72" xlink:href="#m50d8b9e34a" y="532.8"/>
      </g>
     </g>
     <g id="text_9">
      <!-- 2 -->
      <g transform="translate(32.1375 536.599219)scale(0.1 -0.1)">
       <use xlink:href="#DejaVuSans-50"/>
      </g>
     </g>
    </g>
    <g id="ytick_3">
     <g id="line2d_9">
      <g>
       <use style="stroke:#000000;stroke-width:0.8;" x="72" xlink:href="#m50d8b9e34a" y="417.6"/>
      </g>
     </g>
     <g id="text_10">
      <!-- 3 -->
      <g transform="translate(32.1375 421.399219)scale(0.1 -0.1)">
       <use xlink:href="#DejaVuSans-51"/>
      </g>
     </g>
    </g>
    <g id="ytick_4">
     <g id="line2d_10">
      <g>
       <use style="stroke:#000000;stroke-width:0.8;" x="72" xlink:href="#m50d8b9e34a" y="302.4"/>
      </g>
     </g>
     <g id="text_11">
      <!-- 4 -->
      <g transform="translate(32.1375 306.199219)scale(0.1 -0.1)">
       <use xlink:href="#DejaVuSans-52"/>
      </g>
     </g>
    </g>
    <g id="ytick_5">
     <g id="line2d_11">
      <g>
       <use style="stroke:#000000;stroke-width:0.8;" x="72" xlink:href="#m50d8b9e34a" y="187.2"/>
      </g>
     </g>
     <g id="text_12">
      <!-- 5 -->
      <g transform="translate(32.1375 190.999219)scale(0.1 -0.1)">
       <use xlink:href="#DejaVuSans-53"/>
      </g>
     </g>
    </g>
    <g id="ytick_6">
     <g id="line2d_12">
      <g>
       <use style="stroke:#000000;stroke-width:0.8;" x="72" xlink:href="#m50d8b9e34a" y="72"/>
      </g>
     </g>
     <g id="text_13">
      <!-- 6 -->
      <g transform="translate(32.1375 75.799219)scale(0.1 -0.1)">
       <use xlink:href="#DejaVuSans-54"/>
      </g>
     </g>
    </g>
    <g id="text_14">
     <!-- payload depth -->
     <g transform="translate(26.057813 396.027344)rotate(-90)scale(0.1 -0.1)">
      <use xlink:href="#DejaVuSans-112"/>
      <use x="63.476562" xlink:href="#DejaVuSans-97"/>
      <use x="124.755859" xlink:href="#DejaVuSans-121"/>
      <use x="183.935547" xlink:href="#DejaVuSans-108"/>
      <use x="211.71875" xlink:href="#DejaVuSans-111"/>
      <use x="272.900391" xlink:href="#DejaVuSans-97"/>
      <use x="334.179688" xlink:href="#DejaVuSans-100"/>
      <use x="397.65625" xlink:href="#DejaVuSans-32"/>
      <use x="429.443359" xlink:href="#DejaVuSans-100"/>
      <use x="492.919922" xlink:href="#DejaVuSans-101"/>
      <use x="554.443359" xlink:href="#DejaVuSans-112"/>
      <use x="617.919922" xlink:href="#DejaVuSans-116"/>
      <use x="657.128906" xlink:href="#DejaVuSans-104"/>
     </g>
    </g>
   </g>
   <g id="patch_3">
    <path d="M 72 648 
L 72 72 
" style="fill:none;stroke:#000000;stroke-linecap:square;stroke-linejoin:miter;stroke-width:0.8;"/>
   </g>
   <g id="patch_4">
    <path d="M 493.2 648 
L 493.2 72 
" style="fill:none;stroke:#000000;stroke-linecap:square;stroke-linejoin:miter;stroke-width:0.8;"/>
   </g>
   <g id="patch_5">
    <path d="M 72 648 
L 493.2 648 
" style="fill:none;stroke:#000000;stroke-linecap:square;stroke-linejoin:miter;stroke-width:0.8;"/>
   </g>
   <g id="patch_6">
    <path d="M 72 72 
L 493.2 72 
" style="fill:none;stroke:#000000;stroke-linecap:square;stroke-linejoin:miter;stroke-width:0.8;"/>
   </g>
   <g id="text_15">
    <!-- nokia8110-firefox -->
    <defs>
     <path d="M 54.890625 33.015625 
L 54.890625 0 
L 45.90625 0 
L 45.90625 32.71875 
Q 45.90625 40.484375 42.875 44.328125 
Q 39.84375 48.1875 33.796875 48.1875 
Q 26.515625 48.1875 22.3125 43.546875 
Q 18.109375 38.921875 18.109375 30.90625 
L 18.109375 0 
L 9.078125 0 
L 9.078125 54.6875 
L 18.109375 54.6875 
L 18.109375 46.1875 
Q 21.34375 51.125 25.703125 53.5625 
Q 30.078125 56 35.796875 56 
Q 45.21875 56 50.046875 50.171875 
Q 54.890625 44.34375 54.890625 33.015625 
z
" id="DejaVuSans-110"/>
     <path d="M 9.078125 75.984375 
L 18.109375 75.984375 
L 18.109375 31.109375 
L 44.921875 54.6875 
L 56.390625 54.6875 
L 27.390625 29.109375 
L 57.625 0 
L 45.90625 0 
L 18.109375 26.703125 
L 18.109375 0 
L 9.078125 0 
z
" id="DejaVuSans-107"/>
     <path d="M 9.421875 54.6875 
L 18.40625 54.6875 
L 18.40625 0 
L 9.421875 0 
z
M 9.421875 75.984375 
L 18.40625 75.984375 
L 18.40625 64.59375 
L 9.421875 64.59375 
z
" id="DejaVuSans-105"/>
     <path d="M 31.78125 34.625 
Q 24.75 34.625 20.71875 30.859375 
Q 16.703125 27.09375 16.703125 20.515625 
Q 16.703125 13.921875 20.71875 10.15625 
Q 24.75 6.390625 31.78125 6.390625 
Q 38.8125 6.390625 42.859375 10.171875 
Q 46.921875 13.96875 46.921875 20.515625 
Q 46.921875 27.09375 42.890625 30.859375 
Q 38.875 34.625 31.78125 34.625 
z
M 21.921875 38.8125 
Q 15.578125 40.375 12.03125 44.71875 
Q 8.5 49.078125 8.5 55.328125 
Q 8.5 64.0625 14.71875 69.140625 
Q 20.953125 74.21875 31.78125 74.21875 
Q 42.671875 74.21875 48.875 69.140625 
Q 55.078125 64.0625 55.078125 55.328125 
Q 55.078125 49.078125 51.53125 44.71875 
Q 48 40.375 41.703125 38.8125 
Q 48.828125 37.15625 52.796875 32.3125 
Q 56.78125 27.484375 56.78125 20.515625 
Q 56.78125 9.90625 50.3125 4.234375 
Q 43.84375 -1.421875 31.78125 -1.421875 
Q 19.734375 -1.421875 13.25 4.234375 
Q 6.78125 9.90625 6.78125 20.515625 
Q 6.78125 27.484375 10.78125 32.3125 
Q 14.796875 37.15625 21.921875 38.8125 
z
M 18.3125 54.390625 
Q 18.3125 48.734375 21.84375 45.5625 
Q 25.390625 42.390625 31.78125 42.390625 
Q 38.140625 42.390625 41.71875 45.5625 
Q 45.3125 48.734375 45.3125 54.390625 
Q 45.3125 60.0625 41.71875 63.234375 
Q 38.140625 66.40625 31.78125 66.40625 
Q 25.390625 66.40625 21.84375 63.234375 
Q 18.3125 60.0625 18.3125 54.390625 
z
" id="DejaVuSans-56"/>
     <path d="M 31.78125 66.40625 
Q 24.171875 66.40625 20.328125 58.90625 
Q 16.5 51.421875 16.5 36.375 
Q 16.5 21.390625 20.328125 13.890625 
Q 24.171875 6.390625 31.78125 6.390625 
Q 39.453125 6.390625 43.28125 13.890625 
Q 47.125 21.390625 47.125 36.375 
Q 47.125 51.421875 43.28125 58.90625 
Q 39.453125 66.40625 31.78125 66.40625 
z
M 31.78125 74.21875 
Q 44.046875 74.21875 50.515625 64.515625 
Q 56.984375 54.828125 56.984375 36.375 
Q 56.984375 17.96875 50.515625 8.265625 
Q 44.046875 -1.421875 31.78125 -1.421875 
Q 19.53125 -1.421875 13.0625 8.265625 
Q 6.59375 17.96875 6.59375 36.375 
Q 6.59375 54.828125 13.0625 64.515625 
Q 19.53125 74.21875 31.78125 74.21875 
z
" id="DejaVuSans-48"/>
     <path d="M 4.890625 31.390625 
L 31.203125 31.390625 
L 31.203125 23.390625 
L 4.890625 23.390625 
z
" id="DejaVuSans-45"/>
     <path d="M 37.109375 75.984375 
L 37.109375 68.5 
L 28.515625 68.5 
Q 23.6875 68.5 21.796875 66.546875 
Q 19.921875 64.59375 19.921875 59.515625 
L 19.921875 54.6875 
L 34.71875 54.6875 
L 34.71875 47.703125 
L 19.921875 47.703125 
L 19.921875 0 
L 10.890625 0 
L 10.890625 47.703125 
L 2.296875 47.703125 
L 2.296875 54.6875 
L 10.890625 54.6875 
L 10.890625 58.5 
Q 10.890625 67.625 15.140625 71.796875 
Q 19.390625 75.984375 28.609375 75.984375 
z
" id="DejaVuSans-102"/>
     <path d="M 54.890625 54.6875 
L 35.109375 28.078125 
L 55.90625 0 
L 45.3125 0 
L 29.390625 21.484375 
L 13.484375 0 
L 2.875 0 
L 24.125 28.609375 
L 4.6875 54.6875 
L 15.28125 54.6875 
L 29.78125 35.203125 
L 44.28125 54.6875 
z
" id="DejaVuSans-120"/>
    </defs>
    <g transform="translate(229.605937 22)scale(0.12 -0.12)">
     <use xlink:href="#DejaVuSans-110"/>
     <use x="63.378906" xlink:href="#DejaVuSans-111"/>
     <use x="124.560547" xlink:href="#DejaVuSans-107"/>
     <use x="182.470703" xlink:href="#DejaVuSans-105"/>
     <use x="210.253906" xlink:href="#DejaVuSans-97"/>
     <use x="271.533203" xlink:href="#DejaVuSans-56"/>
     <use x="335.15625" xlink:href="#DejaVuSans-49"/>
     <use x="398.779297" xlink:href="#DejaVuSans-49"/>
     <use x="462.402344" xlink:href="#DejaVuSans-48"/>
     <use x="526.025391" xlink:href="#DejaVuSans-45"/>
     <use x="562.109375" xlink:href="#DejaVuSans-102"/>
     <use x="597.314453" xlink:href="#DejaVuSans-105"/>
     <use x="625.097656" xlink:href="#DejaVuSans-114"/>
     <use x="666.179688" xlink:href="#DejaVuSans-101"/>
     <use x="727.703125" xlink:href="#DejaVuSans-102"/>
     <use x="762.908203" xlink:href="#DejaVuSans-111"/>
     <use x="824.042969" xlink:href="#DejaVuSans-120"/>
    </g>
   </g>
   <g id="PathCollection_7">
    <path d="M 72 675.64942 
C 79.332712 675.64942 86.366082 672.736103 91.551092 667.551092 
C 96.736103 662.366082 99.64942 655.332712 99.64942 648 
C 99.64942 640.667288 96.736103 633.633918 91.551092 628.448908 
C 86.366082 623.263897 79.332712 620.35058 72 620.35058 
C 64.667288 620.35058 57.633918 623.263897 52.448908 628.448908 
C 47.263897 633.633918 44.35058 640.667288 44.35058 648 
C 44.35058 655.332712 47.263897 662.366082 52.448908 667.551092 
C 57.633918 672.736103 64.667288 675.64942 72 675.64942 
z
" style="fill:#f96245;fill-opacity:0.8;stroke:#f96245;stroke-opacity:0.8;"/>
    <path d="M 72 560.251918 
C 79.280334 560.251918 86.263464 557.35941 91.411437 552.211437 
C 96.55941 547.063464 99.451918 540.080334 99.451918 532.8 
C 99.451918 525.519666 96.55941 518.536536 91.411437 513.388563 
C 86.263464 508.24059 79.280334 505.348082 72 505.348082 
C 64.719666 505.348082 57.736536 508.24059 52.588563 513.388563 
C 47.44059 518.536536 44.548082 525.519666 44.548082 532.8 
C 44.548082 540.080334 47.44059 547.063464 52.588563 552.211437 
C 57.736536 557.35941 64.719666 560.251918 72 560.251918 
z
" style="fill:#f96346;fill-opacity:0.8;stroke:#f96346;stroke-opacity:0.8;"/>
    <path d="M 72 445.151668 
C 79.306788 445.151668 86.315292 442.24865 91.481971 437.081971 
C 96.64865 431.915292 99.551668 424.906788 99.551668 417.6 
C 99.551668 410.293212 96.64865 403.284708 91.481971 398.118029 
C 86.315292 392.95135 79.306788 390.048332 72 390.048332 
C 64.693212 390.048332 57.684708 392.95135 52.518029 398.118029 
C 47.35135 403.284708 44.448332 410.293212 44.448332 417.6 
C 44.448332 424.906788 47.35135 431.915292 52.518029 437.081971 
C 57.684708 442.24865 64.693212 445.151668 72 445.151668 
z
" style="fill:#f96245;fill-opacity:0.8;stroke:#f96245;stroke-opacity:0.8;"/>
    <path d="M 72 329.851918 
C 79.280334 329.851918 86.263464 326.95941 91.411437 321.811437 
C 96.55941 316.663464 99.451918 309.680334 99.451918 302.4 
C 99.451918 295.119666 96.55941 288.136536 91.411437 282.988563 
C 86.263464 277.84059 79.280334 274.948082 72 274.948082 
C 64.719666 274.948082 57.736536 277.84059 52.588563 282.988563 
C 47.44059 288.136536 44.548082 295.119666 44.548082 302.4 
C 44.548082 309.680334 47.44059 316.663464 52.588563 321.811437 
C 57.736536 326.95941 64.719666 329.851918 72 329.851918 
z
" style="fill:#f96346;fill-opacity:0.8;stroke:#f96346;stroke-opacity:0.8;"/>
    <path d="M 72 214.446054 
C 79.225738 214.446054 86.156501 211.575238 91.26587 206.46587 
C 96.375238 201.356501 99.246054 194.425738 99.246054 187.2 
C 99.246054 179.974262 96.375238 173.043499 91.26587 167.93413 
C 86.156501 162.824762 79.225738 159.953946 72 159.953946 
C 64.774262 159.953946 57.843499 162.824762 52.73413 167.93413 
C 47.624762 173.043499 44.753946 179.974262 44.753946 187.2 
C 44.753946 194.425738 47.624762 201.356501 52.73413 206.46587 
C 57.843499 211.575238 64.774262 214.446054 72 214.446054 
z
" style="fill:#fa6547;fill-opacity:0.8;stroke:#fa6547;stroke-opacity:0.8;"/>
    <path d="M 72 99.74526 
C 79.358129 99.74526 86.415879 96.821845 91.618862 91.618862 
C 96.821845 86.415879 99.74526 79.358129 99.74526 72 
C 99.74526 64.641871 96.821845 57.584121 91.618862 52.381138 
C 86.415879 47.178155 79.358129 44.25474 72 44.25474 
C 64.641871 44.25474 57.584121 47.178155 52.381138 52.381138 
C 47.178155 57.584121 44.25474 64.641871 44.25474 72 
C 44.25474 79.358129 47.178155 86.415879 52.381138 91.618862 
C 57.584121 96.821845 64.641871 99.74526 72 99.74526 
z
" style="fill:#f96044;fill-opacity:0.8;stroke:#f96044;stroke-opacity:0.8;"/>
    <path d="M 156.24 675.74526 
C 163.598129 675.74526 170.655879 672.821845 175.858862 667.618862 
C 181.061845 662.415879 183.98526 655.358129 183.98526 648 
C 183.98526 640.641871 181.061845 633.584121 175.858862 628.381138 
C 170.655879 623.178155 163.598129 620.25474 156.24 620.25474 
C 148.881871 620.25474 141.824121 623.178155 136.621138 628.381138 
C 131.418155 633.584121 128.49474 640.641871 128.49474 648 
C 128.49474 655.358129 131.418155 662.415879 136.621138 667.618862 
C 141.824121 672.821845 148.881871 675.74526 156.24 675.74526 
z
" style="fill:#f96044;fill-opacity:0.8;stroke:#f96044;stroke-opacity:0.8;"/>
    <path d="M 156.24 560.54526 
C 163.598129 560.54526 170.655879 557.621845 175.858862 552.418862 
C 181.061845 547.215879 183.98526 540.158129 183.98526 532.8 
C 183.98526 525.441871 181.061845 518.384121 175.858862 513.181138 
C 170.655879 507.978155 163.598129 505.05474 156.24 505.05474 
C 148.881871 505.05474 141.824121 507.978155 136.621138 513.181138 
C 131.418155 518.384121 128.49474 525.441871 128.49474 532.8 
C 128.49474 540.158129 131.418155 547.215879 136.621138 552.418862 
C 141.824121 557.621845 148.881871 560.54526 156.24 560.54526 
z
" style="fill:#f96044;fill-opacity:0.8;stroke:#f96044;stroke-opacity:0.8;"/>
    <path d="M 156.24 445.798395 
C 163.718302 445.798395 170.891318 442.827234 176.179276 437.539276 
C 181.467234 432.251318 184.438395 425.078302 184.438395 417.6 
C 184.438395 410.121698 181.467234 402.948682 176.179276 397.660724 
C 170.891318 392.372766 163.718302 389.401605 156.24 389.401605 
C 148.761698 389.401605 141.588682 392.372766 136.300724 397.660724 
C 131.012766 402.948682 128.041605 410.121698 128.041605 417.6 
C 128.041605 425.078302 131.012766 432.251318 136.300724 437.539276 
C 141.588682 442.827234 148.761698 445.798395 156.24 445.798395 
z
" style="fill:#f85d42;fill-opacity:0.8;stroke:#f85d42;stroke-opacity:0.8;"/>
    <path d="M 156.24 330.933425 
C 163.807153 330.933425 171.065393 327.926963 176.416178 322.576178 
C 181.766963 317.225393 184.773425 309.967153 184.773425 302.4 
C 184.773425 294.832847 181.766963 287.574607 176.416178 282.223822 
C 171.065393 276.873037 163.807153 273.866575 156.24 273.866575 
C 148.672847 273.866575 141.414607 276.873037 136.063822 282.223822 
C 130.713037 287.574607 127.706575 294.832847 127.706575 302.4 
C 127.706575 309.967153 130.713037 317.225393 136.063822 322.576178 
C 141.414607 327.926963 148.672847 330.933425 156.24 330.933425 
z
" style="fill:#f75c41;fill-opacity:0.8;stroke:#f75c41;stroke-opacity:0.8;"/>
    <path d="M 156.24 216.953595 
C 164.130746 216.953595 171.699369 213.818569 177.278969 208.238969 
C 182.858569 202.659369 185.993595 195.090746 185.993595 187.2 
C 185.993595 179.309254 182.858569 171.740631 177.278969 166.161031 
C 171.699369 160.581431 164.130746 157.446405 156.24 157.446405 
C 148.349254 157.446405 140.780631 160.581431 135.201031 166.161031 
C 129.621431 171.740631 126.486405 179.309254 126.486405 187.2 
C 126.486405 195.090746 129.621431 202.659369 135.201031 208.238969 
C 140.780631 213.818569 148.349254 216.953595 156.24 216.953595 
z
" style="fill:#f5533b;fill-opacity:0.8;stroke:#f5533b;stroke-opacity:0.8;"/>
    <path d="M 156.24 103.202262 
C 164.514937 103.202262 172.452067 99.914595 178.303331 94.063331 
C 184.154595 88.212067 187.442262 80.274937 187.442262 72 
C 187.442262 63.725063 184.154595 55.787933 178.303331 49.936669 
C 172.452067 44.085405 164.514937 40.797738 156.24 40.797738 
C 147.965063 40.797738 140.027933 44.085405 134.176669 49.936669 
C 128.325405 55.787933 125.037738 63.725063 125.037738 72 
C 125.037738 80.274937 128.325405 88.212067 134.176669 94.063331 
C 140.027933 99.914595 147.965063 103.202262 156.24 103.202262 
z
" style="fill:#f34a36;fill-opacity:0.8;stroke:#f34a36;stroke-opacity:0.8;"/>
    <path d="M 240.48 675.350079 
C 247.733326 675.350079 254.69055 672.468302 259.819426 667.339426 
C 264.948302 662.21055 267.830079 655.253326 267.830079 648 
C 267.830079 640.746674 264.948302 633.78945 259.819426 628.660574 
C 254.69055 623.531698 247.733326 620.649921 240.48 620.649921 
C 233.226674 620.649921 226.26945 623.531698 221.140574 628.660574 
C 216.011698 633.78945 213.129921 640.746674 213.129921 648 
C 213.129921 655.253326 216.011698 662.21055 221.140574 667.339426 
C 226.26945 672.468302 233.226674 675.350079 240.48 675.350079 
z
" style="fill:#f96346;fill-opacity:0.8;stroke:#f96346;stroke-opacity:0.8;"/>
    <path d="M 240.48 560.911016 
C 247.935129 560.911016 255.085918 557.949062 260.35749 552.67749 
C 265.629062 547.405918 268.591016 540.255129 268.591016 532.8 
C 268.591016 525.344871 265.629062 518.194082 260.35749 512.92251 
C 255.085918 507.650938 247.935129 504.688984 240.48 504.688984 
C 233.024871 504.688984 225.874082 507.650938 220.60251 512.92251 
C 215.330938 518.194082 212.368984 525.344871 212.368984 532.8 
C 212.368984 540.255129 215.330938 547.405918 220.60251 552.67749 
C 225.874082 557.949062 233.024871 560.911016 240.48 560.911016 
z
" style="fill:#f85d42;fill-opacity:0.8;stroke:#f85d42;stroke-opacity:0.8;"/>
    <path d="M 240.48 446.597751 
C 248.170293 446.597751 255.546648 443.542365 260.984506 438.104506 
C 266.422365 432.666648 269.477751 425.290293 269.477751 417.6 
C 269.477751 409.909707 266.422365 402.533352 260.984506 397.095494 
C 255.546648 391.657635 248.170293 388.602249 240.48 388.602249 
C 232.789707 388.602249 225.413352 391.657635 219.975494 397.095494 
C 214.537635 402.533352 211.482249 409.909707 211.482249 417.6 
C 211.482249 425.290293 214.537635 432.666648 219.975494 438.104506 
C 225.413352 443.542365 232.789707 446.597751 240.48 446.597751 
z
" style="fill:#f6583e;fill-opacity:0.8;stroke:#f6583e;stroke-opacity:0.8;"/>
    <path d="M 240.48 333.37712 
C 248.695228 333.37712 256.575088 330.113175 262.384131 324.304131 
C 268.193175 318.495088 271.45712 310.615228 271.45712 302.4 
C 271.45712 294.184772 268.193175 286.304912 262.384131 280.495869 
C 256.575088 274.686825 248.695228 271.42288 240.48 271.42288 
C 232.264772 271.42288 224.384912 274.686825 218.575869 280.495869 
C 212.766825 286.304912 209.50288 294.184772 209.50288 302.4 
C 209.50288 310.615228 212.766825 318.495088 218.575869 324.304131 
C 224.384912 330.113175 232.264772 333.37712 240.48 333.37712 
z
" style="fill:#f34c37;fill-opacity:0.8;stroke:#f34c37;stroke-opacity:0.8;"/>
    <path d="M 240.48 221.668332 
C 249.621108 221.668332 258.389051 218.036531 264.852791 211.572791 
C 271.316531 205.109051 274.948332 196.341108 274.948332 187.2 
C 274.948332 178.058892 271.316531 169.290949 264.852791 162.827209 
C 258.389051 156.363469 249.621108 152.731668 240.48 152.731668 
C 231.338892 152.731668 222.570949 156.363469 216.107209 162.827209 
C 209.643469 169.290949 206.011668 178.058892 206.011668 187.2 
C 206.011668 196.341108 209.643469 205.109051 216.107209 211.572791 
C 222.570949 218.036531 231.338892 221.668332 240.48 221.668332 
z
" style="fill:#ec382b;fill-opacity:0.8;stroke:#ec382b;stroke-opacity:0.8;"/>
    <path d="M 240.48 111.462247 
C 250.94551 111.462247 260.983789 107.304256 268.384022 99.904022 
C 275.784256 92.503789 279.942247 82.46551 279.942247 72 
C 279.942247 61.53449 275.784256 51.496211 268.384022 44.095978 
C 260.983789 36.695744 250.94551 32.537753 240.48 32.537753 
C 230.01449 32.537753 219.976211 36.695744 212.575978 44.095978 
C 205.175744 51.496211 201.017753 61.53449 201.017753 72 
C 201.017753 82.46551 205.175744 92.503789 212.575978 99.904022 
C 219.976211 107.304256 230.01449 111.462247 240.48 111.462247 
z
" style="fill:#d82422;fill-opacity:0.8;stroke:#d82422;stroke-opacity:0.8;"/>
    <path d="M 324.72 676.111016 
C 332.175129 676.111016 339.325918 673.149062 344.59749 667.87749 
C 349.869062 662.605918 352.831016 655.455129 352.831016 648 
C 352.831016 640.544871 349.869062 633.394082 344.59749 628.12251 
C 339.325918 622.850938 332.175129 619.888984 324.72 619.888984 
C 317.264871 619.888984 310.114082 622.850938 304.84251 628.12251 
C 299.570938 633.394082 296.608984 640.544871 296.608984 648 
C 296.608984 655.455129 299.570938 662.605918 304.84251 667.87749 
C 310.114082 673.149062 317.264871 676.111016 324.72 676.111016 
z
" style="fill:#f85d42;fill-opacity:0.8;stroke:#f85d42;stroke-opacity:0.8;"/>
    <path d="M 324.72 561.168701 
C 332.243467 561.168701 339.459806 558.179596 344.779701 552.859701 
C 350.099596 547.539806 353.088701 540.323467 353.088701 532.8 
C 353.088701 525.276533 350.099596 518.060194 344.779701 512.740299 
C 339.459806 507.420404 332.243467 504.431299 324.72 504.431299 
C 317.196533 504.431299 309.980194 507.420404 304.660299 512.740299 
C 299.340404 518.060194 296.351299 525.276533 296.351299 532.8 
C 296.351299 540.323467 299.340404 547.539806 304.660299 552.859701 
C 309.980194 558.179596 317.196533 561.168701 324.72 561.168701 
z
" style="fill:#f75c41;fill-opacity:0.8;stroke:#f75c41;stroke-opacity:0.8;"/>
    <path d="M 324.72 447.724176 
C 332.709025 447.724176 340.371916 444.550103 346.021009 438.901009 
C 351.670103 433.251916 354.844176 425.589025 354.844176 417.6 
C 354.844176 409.610975 351.670103 401.948084 346.021009 396.298991 
C 340.371916 390.649897 332.709025 387.475824 324.72 387.475824 
C 316.730975 387.475824 309.068084 390.649897 303.418991 396.298991 
C 297.769897 401.948084 294.595824 409.610975 294.595824 417.6 
C 294.595824 425.589025 297.769897 433.251916 303.418991 438.901009 
C 309.068084 444.550103 316.730975 447.724176 324.72 447.724176 
z
" style="fill:#f4503a;fill-opacity:0.8;stroke:#f4503a;stroke-opacity:0.8;"/>
    <path d="M 324.72 336.641004 
C 333.80082 336.641004 342.510936 333.033156 348.932046 326.612046 
C 355.353156 320.190936 358.961004 311.48082 358.961004 302.4 
C 358.961004 293.31918 355.353156 284.609064 348.932046 278.187954 
C 342.510936 271.766844 333.80082 268.158996 324.72 268.158996 
C 315.63918 268.158996 306.929064 271.766844 300.507954 278.187954 
C 294.086844 284.609064 290.478996 293.31918 290.478996 302.4 
C 290.478996 311.48082 294.086844 320.190936 300.507954 326.612046 
C 306.929064 333.033156 315.63918 336.641004 324.72 336.641004 
z
" style="fill:#ed392b;fill-opacity:0.8;stroke:#ed392b;stroke-opacity:0.8;"/>
    <path d="M 324.72 227.727708 
C 335.468074 227.727708 345.777381 223.457453 353.377417 215.857417 
C 360.977453 208.257381 365.247708 197.948074 365.247708 187.2 
C 365.247708 176.451926 360.977453 166.142619 353.377417 158.542583 
C 345.777381 150.942547 335.468074 146.672292 324.72 146.672292 
C 313.971926 146.672292 303.662619 150.942547 296.062583 158.542583 
C 288.462547 166.142619 284.192292 176.451926 284.192292 187.2 
C 284.192292 197.948074 288.462547 208.257381 296.062583 215.857417 
C 303.662619 223.457453 313.971926 227.727708 324.72 227.727708 
z
" style="fill:#d32020;fill-opacity:0.8;stroke:#d32020;stroke-opacity:0.8;"/>
    <path d="M 324.72 121.827092 
C 337.934299 121.827092 350.609154 116.576995 359.953075 107.233075 
C 369.296995 97.889154 374.547092 85.214299 374.547092 72 
C 374.547092 58.785701 369.296995 46.110846 359.953075 36.766925 
C 350.609154 27.423005 337.934299 22.172908 324.72 22.172908 
C 311.505701 22.172908 298.830846 27.423005 289.486925 36.766925 
C 280.143005 46.110846 274.892908 58.785701 274.892908 72 
C 274.892908 85.214299 280.143005 97.889154 289.486925 107.233075 
C 298.830846 116.576995 311.505701 121.827092 324.72 121.827092 
z
" style="fill:#b31218;fill-opacity:0.8;stroke:#b31218;stroke-opacity:0.8;"/>
    <path d="M 408.96 676.022078 
C 416.391542 676.022078 423.519707 673.069495 428.774601 667.814601 
C 434.029495 662.559707 436.982078 655.431542 436.982078 648 
C 436.982078 640.568458 434.029495 633.440293 428.774601 628.185399 
C 423.519707 622.930505 416.391542 619.977922 408.96 619.977922 
C 401.528458 619.977922 394.400293 622.930505 389.145399 628.185399 
C 383.890505 633.440293 380.937922 640.568458 380.937922 648 
C 380.937922 655.431542 383.890505 662.559707 389.145399 667.814601 
C 394.400293 673.069495 401.528458 676.022078 408.96 676.022078 
z
" style="fill:#f85f43;fill-opacity:0.8;stroke:#f85f43;stroke-opacity:0.8;"/>
    <path d="M 408.96 561.797751 
C 416.650293 561.797751 424.026648 558.742365 429.464506 553.304506 
C 434.902365 547.866648 437.957751 540.490293 437.957751 532.8 
C 437.957751 525.109707 434.902365 517.733352 429.464506 512.295494 
C 424.026648 506.857635 416.650293 503.802249 408.96 503.802249 
C 401.269707 503.802249 393.893352 506.857635 388.455494 512.295494 
C 383.017635 517.733352 379.962249 525.109707 379.962249 532.8 
C 379.962249 540.490293 383.017635 547.866648 388.455494 553.304506 
C 393.893352 558.742365 401.269707 561.797751 408.96 561.797751 
z
" style="fill:#f6583e;fill-opacity:0.8;stroke:#f6583e;stroke-opacity:0.8;"/>
    <path d="M 408.96 449.360351 
C 417.382944 449.360351 425.462039 446.01388 431.41796 440.05796 
C 437.37388 434.102039 440.720351 426.022944 440.720351 417.6 
C 440.720351 409.177056 437.37388 401.097961 431.41796 395.14204 
C 425.462039 389.18612 417.382944 385.839649 408.96 385.839649 
C 400.537056 385.839649 392.457961 389.18612 386.50204 395.14204 
C 380.54612 401.097961 377.199649 409.177056 377.199649 417.6 
C 377.199649 426.022944 380.54612 434.102039 386.50204 440.05796 
C 392.457961 446.01388 400.537056 449.360351 408.96 449.360351 
z
" style="fill:#f24633;fill-opacity:0.8;stroke:#f24633;stroke-opacity:0.8;"/>
    <path d="M 408.96 340.438399 
C 419.047901 340.438399 428.723986 336.430433 435.85721 329.29721 
C 442.990433 322.163986 446.998399 312.487901 446.998399 302.4 
C 446.998399 292.312099 442.990433 282.636014 435.85721 275.50279 
C 428.723986 268.369567 419.047901 264.361601 408.96 264.361601 
C 398.872099 264.361601 389.196014 268.369567 382.06279 275.50279 
C 374.929567 282.636014 370.921601 292.312099 370.921601 302.4 
C 370.921601 312.487901 374.929567 322.163986 382.06279 329.29721 
C 389.196014 336.430433 398.872099 340.438399 408.96 340.438399 
z
" style="fill:#dd2a25;fill-opacity:0.8;stroke:#dd2a25;stroke-opacity:0.8;"/>
    <path d="M 408.96 235.024072 
C 421.643092 235.024072 433.808425 229.985026 442.776725 221.016725 
C 451.745026 212.048425 456.784072 199.883092 456.784072 187.2 
C 456.784072 174.516908 451.745026 162.351575 442.776725 153.383275 
C 433.808425 144.414974 421.643092 139.375928 408.96 139.375928 
C 396.276908 139.375928 384.111575 144.414974 375.143275 153.383275 
C 366.174974 162.351575 361.135928 174.516908 361.135928 187.2 
C 361.135928 199.883092 366.174974 212.048425 375.143275 221.016725 
C 384.111575 229.985026 396.276908 235.024072 408.96 235.024072 
z
" style="fill:#bb141a;fill-opacity:0.8;stroke:#bb141a;stroke-opacity:0.8;"/>
    <path d="M 408.96 132.087116 
C 424.895289 132.087116 440.180056 125.755958 451.448007 114.488007 
C 462.715958 103.220056 469.047116 87.935289 469.047116 72 
C 469.047116 56.064711 462.715958 40.779944 451.448007 29.511993 
C 440.180056 18.244042 424.895289 11.912884 408.96 11.912884 
C 393.024711 11.912884 377.739944 18.244042 366.471993 29.511993 
C 355.204042 40.779944 348.872884 56.064711 348.872884 72 
C 348.872884 87.935289 355.204042 103.220056 366.471993 114.488007 
C 377.739944 125.755958 393.024711 132.087116 408.96 132.087116 
z
" style="fill:#8e0912;fill-opacity:0.8;stroke:#8e0912;stroke-opacity:0.8;"/>
    <path d="M 493.2 676.022078 
C 500.631542 676.022078 507.759707 673.069495 513.014601 667.814601 
C 518.269495 662.559707 521.222078 655.431542 521.222078 648 
C 521.222078 640.568458 518.269495 633.440293 513.014601 628.185399 
C 507.759707 622.930505 500.631542 619.977922 493.2 619.977922 
C 485.768458 619.977922 478.640293 622.930505 473.385399 628.185399 
C 468.130505 633.440293 465.177922 640.568458 465.177922 648 
C 465.177922 655.431542 468.130505 662.559707 473.385399 667.814601 
C 478.640293 673.069495 485.768458 676.022078 493.2 676.022078 
z
" style="fill:#f85f43;fill-opacity:0.8;stroke:#f85f43;stroke-opacity:0.8;"/>
    <path d="M 493.2 562.154974 
C 500.98503 562.154974 508.452254 559.061949 513.957101 553.557101 
C 519.461949 548.052254 522.554974 540.58503 522.554974 532.8 
C 522.554974 525.01497 519.461949 517.547746 513.957101 512.042899 
C 508.452254 506.538051 500.98503 503.445026 493.2 503.445026 
C 485.41497 503.445026 477.947746 506.538051 472.442899 512.042899 
C 466.938051 517.547746 463.845026 525.01497 463.845026 532.8 
C 463.845026 540.58503 466.938051 548.052254 472.442899 553.557101 
C 477.947746 559.061949 485.41497 562.154974 493.2 562.154974 
z
" style="fill:#f6563d;fill-opacity:0.8;stroke:#f6563d;stroke-opacity:0.8;"/>
    <path d="M 493.2 451.0368 
C 502.067543 451.0368 510.573088 447.513688 516.843388 441.243388 
C 523.113688 434.973088 526.6368 426.467543 526.6368 417.6 
C 526.6368 408.732457 523.113688 400.226912 516.843388 393.956612 
C 510.573088 387.686312 502.067543 384.1632 493.2 384.1632 
C 484.332457 384.1632 475.826912 387.686312 469.556612 393.956612 
C 463.286312 400.226912 459.7632 408.732457 459.7632 417.6 
C 459.7632 426.467543 463.286312 434.973088 469.556612 441.243388 
C 475.826912 447.513688 484.332457 451.0368 493.2 451.0368 
z
" style="fill:#f03d2d;fill-opacity:0.8;stroke:#f03d2d;stroke-opacity:0.8;"/>
    <path d="M 493.2 344.02064 
C 504.237923 344.02064 514.825247 339.635227 522.630237 331.830237 
C 530.435227 324.025247 534.82064 313.437923 534.82064 302.4 
C 534.82064 291.362077 530.435227 280.774753 522.630237 272.969763 
C 514.825247 265.164773 504.237923 260.77936 493.2 260.77936 
C 482.162077 260.77936 471.574753 265.164773 463.769763 272.969763 
C 455.964773 280.774753 451.57936 291.362077 451.57936 302.4 
C 451.57936 313.437923 455.964773 324.025247 463.769763 331.830237 
C 471.574753 339.635227 482.162077 344.02064 493.2 344.02064 
z
" style="fill:#d01d1f;fill-opacity:0.8;stroke:#d01d1f;stroke-opacity:0.8;"/>
    <path d="M 493.2 241.258716 
C 507.536539 241.258716 521.287821 235.562749 531.425285 225.425285 
C 541.562749 215.287821 547.258716 201.536539 547.258716 187.2 
C 547.258716 172.863461 541.562749 159.112179 531.425285 148.974715 
C 521.287821 138.837251 507.536539 133.141284 493.2 133.141284 
C 478.863461 133.141284 465.112179 138.837251 454.974715 148.974715 
C 444.837251 159.112179 439.141284 172.863461 439.141284 187.2 
C 439.141284 201.536539 444.837251 215.287821 454.974715 225.425285 
C 465.112179 235.562749 478.863461 241.258716 493.2 241.258716 
z
" style="fill:#a60f15;fill-opacity:0.8;stroke:#a60f15;stroke-opacity:0.8;"/>
    <path d="M 493.2 141.951168 
C 511.751267 141.951168 529.545219 134.580672 542.662945 121.462945 
C 555.780672 108.345219 563.151168 90.551267 563.151168 72 
C 563.151168 53.448733 555.780672 35.654781 542.662945 22.537055 
C 529.545219 9.419328 511.751267 2.048832 493.2 2.048832 
C 474.648733 2.048832 456.854781 9.419328 443.737055 22.537055 
C 430.619328 35.654781 423.248832 53.448733 423.248832 72 
C 423.248832 90.551267 430.619328 108.345219 443.737055 121.462945 
C 456.854781 134.580672 474.648733 141.951168 493.2 141.951168 
z
" style="fill:#67000d;fill-opacity:0.8;stroke:#67000d;stroke-opacity:0.8;"/>
   </g>
   <g id="text_16">
    <!-- 860µs -->
    <defs>
     <path d="M 34.8125 32.625 
Q 29.546875 32.625 26.703125 29.734375 
Q 23.875 26.859375 23.875 21.484375 
Q 23.875 16.109375 26.703125 13.25 
Q 29.546875 10.40625 34.8125 10.40625 
Q 40.046875 10.40625 42.828125 13.25 
Q 45.609375 16.109375 45.609375 21.484375 
Q 45.609375 26.90625 42.828125 29.765625 
Q 40.046875 32.625 34.8125 32.625 
z
M 21.09375 38.8125 
Q 14.453125 40.828125 11.078125 44.96875 
Q 7.71875 49.125 7.71875 55.328125 
Q 7.71875 64.546875 14.59375 69.375 
Q 21.484375 74.21875 34.8125 74.21875 
Q 48.046875 74.21875 54.921875 69.40625 
Q 61.8125 64.59375 61.8125 55.328125 
Q 61.8125 49.125 58.421875 44.96875 
Q 55.03125 40.828125 48.390625 38.8125 
Q 55.8125 36.765625 59.59375 32.15625 
Q 63.375 27.546875 63.375 20.515625 
Q 63.375 9.671875 56.171875 4.125 
Q 48.96875 -1.421875 34.8125 -1.421875 
Q 20.609375 -1.421875 13.359375 4.125 
Q 6.109375 9.671875 6.109375 20.515625 
Q 6.109375 27.546875 9.890625 32.15625 
Q 13.671875 36.765625 21.09375 38.8125 
z
M 25.484375 53.421875 
Q 25.484375 49.078125 27.90625 46.734375 
Q 30.328125 44.390625 34.8125 44.390625 
Q 39.203125 44.390625 41.59375 46.734375 
Q 44 49.078125 44 53.421875 
Q 44 57.765625 41.59375 60.078125 
Q 39.203125 62.40625 34.8125 62.40625 
Q 30.328125 62.40625 27.90625 60.0625 
Q 25.484375 57.71875 25.484375 53.421875 
z
" id="DejaVuSans-Bold-56"/>
     <path d="M 36.1875 35.984375 
Q 31.25 35.984375 28.78125 32.78125 
Q 26.3125 29.59375 26.3125 23.1875 
Q 26.3125 16.796875 28.78125 13.59375 
Q 31.25 10.40625 36.1875 10.40625 
Q 41.15625 10.40625 43.625 13.59375 
Q 46.09375 16.796875 46.09375 23.1875 
Q 46.09375 29.59375 43.625 32.78125 
Q 41.15625 35.984375 36.1875 35.984375 
z
M 59.421875 71 
L 59.421875 57.515625 
Q 54.78125 59.71875 50.671875 60.765625 
Q 46.578125 61.8125 42.671875 61.8125 
Q 34.28125 61.8125 29.59375 57.140625 
Q 24.90625 52.484375 24.125 43.3125 
Q 27.34375 45.703125 31.09375 46.890625 
Q 34.859375 48.09375 39.3125 48.09375 
Q 50.484375 48.09375 57.34375 41.546875 
Q 64.203125 35.015625 64.203125 24.421875 
Q 64.203125 12.703125 56.53125 5.640625 
Q 48.875 -1.421875 35.984375 -1.421875 
Q 21.78125 -1.421875 13.984375 8.171875 
Q 6.203125 17.78125 6.203125 35.40625 
Q 6.203125 53.46875 15.3125 63.796875 
Q 24.421875 74.125 40.28125 74.125 
Q 45.3125 74.125 50.046875 73.34375 
Q 54.78125 72.5625 59.421875 71 
z
" id="DejaVuSans-Bold-54"/>
     <path d="M 46 36.53125 
Q 46 50.203125 43.4375 55.78125 
Q 40.875 61.375 34.8125 61.375 
Q 28.765625 61.375 26.171875 55.78125 
Q 23.578125 50.203125 23.578125 36.53125 
Q 23.578125 22.703125 26.171875 17.03125 
Q 28.765625 11.375 34.8125 11.375 
Q 40.828125 11.375 43.40625 17.03125 
Q 46 22.703125 46 36.53125 
z
M 64.796875 36.375 
Q 64.796875 18.265625 56.984375 8.421875 
Q 49.171875 -1.421875 34.8125 -1.421875 
Q 20.40625 -1.421875 12.59375 8.421875 
Q 4.78125 18.265625 4.78125 36.375 
Q 4.78125 54.546875 12.59375 64.375 
Q 20.40625 74.21875 34.8125 74.21875 
Q 49.171875 74.21875 56.984375 64.375 
Q 64.796875 54.546875 64.796875 36.375 
z
" id="DejaVuSans-Bold-48"/>
     <path d="M 8.5 -20.90625 
L 8.5 54.6875 
L 26.125 54.6875 
L 26.125 22.90625 
Q 26.125 17.234375 28.5625 14.46875 
Q 31 11.71875 35.984375 11.71875 
Q 41.015625 11.71875 43.453125 14.46875 
Q 45.90625 17.234375 45.90625 22.90625 
L 45.90625 54.6875 
L 63.484375 54.6875 
L 63.484375 18.109375 
Q 63.484375 14.65625 64.28125 13.28125 
Q 65.09375 11.921875 67 11.921875 
Q 67.875 11.921875 68.671875 12.15625 
Q 69.484375 12.40625 70.40625 12.984375 
L 70.40625 0.78125 
Q 67.828125 -0.34375 65.546875 -0.875 
Q 63.28125 -1.421875 61.078125 -1.421875 
Q 56.734375 -1.421875 53.96875 0.40625 
Q 51.21875 2.25 49.515625 6.296875 
Q 47.21875 2.4375 43.921875 0.5 
Q 40.625 -1.421875 36.28125 -1.421875 
Q 32.671875 -1.421875 30.125 -0.265625 
Q 27.59375 0.875 26.125 3.21875 
L 26.125 -20.90625 
z
" id="DejaVuSans-Bold-181"/>
     <path d="M 51.125 52.984375 
L 51.125 39.703125 
Q 45.515625 42.046875 40.28125 43.21875 
Q 35.0625 44.390625 30.421875 44.390625 
Q 25.4375 44.390625 23.015625 43.140625 
Q 20.609375 41.890625 20.609375 39.3125 
Q 20.609375 37.203125 22.4375 36.078125 
Q 24.265625 34.96875 29 34.421875 
L 32.078125 33.984375 
Q 45.515625 32.28125 50.140625 28.375 
Q 54.78125 24.46875 54.78125 16.109375 
Q 54.78125 7.375 48.328125 2.96875 
Q 41.890625 -1.421875 29.109375 -1.421875 
Q 23.6875 -1.421875 17.890625 -0.5625 
Q 12.109375 0.296875 6 2 
L 6 15.28125 
Q 11.234375 12.75 16.71875 11.46875 
Q 22.21875 10.203125 27.875 10.203125 
Q 33.015625 10.203125 35.59375 11.609375 
Q 38.1875 13.03125 38.1875 15.828125 
Q 38.1875 18.171875 36.40625 19.3125 
Q 34.625 20.453125 29.296875 21.09375 
L 26.21875 21.484375 
Q 14.546875 22.953125 9.859375 26.90625 
Q 5.171875 30.859375 5.171875 38.921875 
Q 5.171875 47.609375 11.125 51.796875 
Q 17.09375 56 29.390625 56 
Q 34.234375 56 39.546875 55.265625 
Q 44.875 54.546875 51.125 52.984375 
z
" id="DejaVuSans-Bold-115"/>
    </defs>
    <g transform="translate(51.793767 651.249327)scale(0.118225 -0.118225)">
     <use xlink:href="#DejaVuSans-Bold-56"/>
     <use x="69.580078" xlink:href="#DejaVuSans-Bold-54"/>
     <use x="139.160156" xlink:href="#DejaVuSans-Bold-48"/>
     <use x="208.740234" xlink:href="#DejaVuSans-Bold-181"/>
     <use x="282.324219" xlink:href="#DejaVuSans-Bold-115"/>
    </g>
   </g>
   <g id="text_17">
    <!-- 820µs -->
    <defs>
     <path d="M 28.8125 13.8125 
L 60.890625 13.8125 
L 60.890625 0 
L 7.90625 0 
L 7.90625 13.8125 
L 34.515625 37.3125 
Q 38.09375 40.53125 39.796875 43.609375 
Q 41.5 46.6875 41.5 50 
Q 41.5 55.125 38.0625 58.25 
Q 34.625 61.375 28.90625 61.375 
Q 24.515625 61.375 19.28125 59.5 
Q 14.0625 57.625 8.109375 53.90625 
L 8.109375 69.921875 
Q 14.453125 72.015625 20.65625 73.109375 
Q 26.859375 74.21875 32.8125 74.21875 
Q 45.90625 74.21875 53.15625 68.453125 
Q 60.40625 62.703125 60.40625 52.390625 
Q 60.40625 46.4375 57.328125 41.28125 
Q 54.25 36.140625 44.390625 27.484375 
z
" id="DejaVuSans-Bold-50"/>
    </defs>
    <g transform="translate(51.886767 536.034372)scale(0.11768 -0.11768)">
     <use xlink:href="#DejaVuSans-Bold-56"/>
     <use x="69.580078" xlink:href="#DejaVuSans-Bold-50"/>
     <use x="139.160156" xlink:href="#DejaVuSans-Bold-48"/>
     <use x="208.740234" xlink:href="#DejaVuSans-Bold-181"/>
     <use x="282.324219" xlink:href="#DejaVuSans-Bold-115"/>
    </g>
   </g>
   <g id="text_18">
    <!-- 840µs -->
    <defs>
     <path d="M 36.8125 57.421875 
L 16.21875 26.90625 
L 36.8125 26.90625 
z
M 33.6875 72.90625 
L 54.59375 72.90625 
L 54.59375 26.90625 
L 64.984375 26.90625 
L 64.984375 13.28125 
L 54.59375 13.28125 
L 54.59375 0 
L 36.8125 0 
L 36.8125 13.28125 
L 4.5 13.28125 
L 4.5 29.390625 
z
" id="DejaVuSans-Bold-52"/>
    </defs>
    <g transform="translate(51.83988 420.841912)scale(0.117955 -0.117955)">
     <use xlink:href="#DejaVuSans-Bold-56"/>
     <use x="69.580078" xlink:href="#DejaVuSans-Bold-52"/>
     <use x="139.160156" xlink:href="#DejaVuSans-Bold-48"/>
     <use x="208.740234" xlink:href="#DejaVuSans-Bold-181"/>
     <use x="282.324219" xlink:href="#DejaVuSans-Bold-115"/>
    </g>
   </g>
   <g id="text_19">
    <!-- 820µs -->
    <g transform="translate(51.886767 305.634372)scale(0.11768 -0.11768)">
     <use xlink:href="#DejaVuSans-Bold-56"/>
     <use x="69.580078" xlink:href="#DejaVuSans-Bold-50"/>
     <use x="139.160156" xlink:href="#DejaVuSans-Bold-48"/>
     <use x="208.740234" xlink:href="#DejaVuSans-Bold-181"/>
     <use x="282.324219" xlink:href="#DejaVuSans-Bold-115"/>
    </g>
   </g>
   <g id="text_20">
    <!-- 780µs -->
    <defs>
     <path d="M 6.6875 72.90625 
L 61.625 72.90625 
L 61.625 62.3125 
L 33.203125 0 
L 14.890625 0 
L 41.796875 59.078125 
L 6.6875 59.078125 
z
" id="DejaVuSans-Bold-55"/>
    </defs>
    <g transform="translate(51.982994 190.418898)scale(0.117117 -0.117117)">
     <use xlink:href="#DejaVuSans-Bold-55"/>
     <use x="69.580078" xlink:href="#DejaVuSans-Bold-56"/>
     <use x="139.160156" xlink:href="#DejaVuSans-Bold-48"/>
     <use x="208.740234" xlink:href="#DejaVuSans-Bold-181"/>
     <use x="282.324219" xlink:href="#DejaVuSans-Bold-115"/>
    </g>
   </g>
   <g id="text_21">
    <!-- 880µs -->
    <g transform="translate(51.748397 75.256623)scale(0.11849 -0.11849)">
     <use xlink:href="#DejaVuSans-Bold-56"/>
     <use x="69.580078" xlink:href="#DejaVuSans-Bold-56"/>
     <use x="139.160156" xlink:href="#DejaVuSans-Bold-48"/>
     <use x="208.740234" xlink:href="#DejaVuSans-Bold-181"/>
     <use x="282.324219" xlink:href="#DejaVuSans-Bold-115"/>
    </g>
   </g>
   <g id="text_22">
    <!-- 880µs -->
    <g transform="translate(135.988397 651.256623)scale(0.11849 -0.11849)">
     <use xlink:href="#DejaVuSans-Bold-56"/>
     <use x="69.580078" xlink:href="#DejaVuSans-Bold-56"/>
     <use x="139.160156" xlink:href="#DejaVuSans-Bold-48"/>
     <use x="208.740234" xlink:href="#DejaVuSans-Bold-181"/>
     <use x="282.324219" xlink:href="#DejaVuSans-Bold-115"/>
    </g>
   </g>
   <g id="text_23">
    <!-- 880µs -->
    <g transform="translate(135.988397 536.056623)scale(0.11849 -0.11849)">
     <use xlink:href="#DejaVuSans-Bold-56"/>
     <use x="69.580078" xlink:href="#DejaVuSans-Bold-56"/>
     <use x="139.160156" xlink:href="#DejaVuSans-Bold-48"/>
     <use x="208.740234" xlink:href="#DejaVuSans-Bold-181"/>
     <use x="282.324219" xlink:href="#DejaVuSans-Bold-115"/>
    </g>
   </g>
   <g id="text_24">
    <!-- 980µs -->
    <defs>
     <path d="M 10.015625 1.609375 
L 10.015625 15.09375 
Q 14.5 12.984375 18.59375 11.9375 
Q 22.703125 10.890625 26.703125 10.890625 
Q 35.109375 10.890625 39.796875 15.546875 
Q 44.484375 20.21875 45.3125 29.390625 
Q 42 26.953125 38.234375 25.734375 
Q 34.46875 24.515625 30.078125 24.515625 
Q 18.890625 24.515625 12.03125 31.03125 
Q 5.171875 37.546875 5.171875 48.1875 
Q 5.171875 59.96875 12.8125 67.046875 
Q 20.453125 74.125 33.296875 74.125 
Q 47.5625 74.125 55.375 64.5 
Q 63.1875 54.890625 63.1875 37.3125 
Q 63.1875 19.234375 54.046875 8.90625 
Q 44.921875 -1.421875 29 -1.421875 
Q 23.875 -1.421875 19.1875 -0.65625 
Q 14.5 0.09375 10.015625 1.609375 
z
M 33.203125 36.71875 
Q 38.140625 36.71875 40.625 39.90625 
Q 43.109375 43.109375 43.109375 49.515625 
Q 43.109375 55.859375 40.625 59.078125 
Q 38.140625 62.3125 33.203125 62.3125 
Q 28.265625 62.3125 25.78125 59.078125 
Q 23.296875 55.859375 23.296875 49.515625 
Q 23.296875 43.109375 25.78125 39.90625 
Q 28.265625 36.71875 33.203125 36.71875 
z
" id="DejaVuSans-Bold-57"/>
    </defs>
    <g transform="translate(135.771764 420.891459)scale(0.119757 -0.119757)">
     <use xlink:href="#DejaVuSans-Bold-57"/>
     <use x="69.580078" xlink:href="#DejaVuSans-Bold-56"/>
     <use x="139.160156" xlink:href="#DejaVuSans-Bold-48"/>
     <use x="208.740234" xlink:href="#DejaVuSans-Bold-181"/>
     <use x="282.324219" xlink:href="#DejaVuSans-Bold-115"/>
    </g>
   </g>
   <g id="text_25">
    <!--   1ms -->
    <defs>
     <path id="DejaVuSans-Bold-32"/>
     <path d="M 11.71875 12.984375 
L 28.328125 12.984375 
L 28.328125 60.109375 
L 11.28125 56.59375 
L 11.28125 69.390625 
L 28.21875 72.90625 
L 46.09375 72.90625 
L 46.09375 12.984375 
L 62.703125 12.984375 
L 62.703125 0 
L 11.71875 0 
z
" id="DejaVuSans-Bold-49"/>
     <path d="M 59.078125 45.609375 
Q 62.40625 50.6875 66.96875 53.34375 
Q 71.53125 56 77 56 
Q 86.421875 56 91.359375 50.1875 
Q 96.296875 44.390625 96.296875 33.296875 
L 96.296875 0 
L 78.71875 0 
L 78.71875 28.515625 
Q 78.765625 29.15625 78.78125 29.828125 
Q 78.8125 30.515625 78.8125 31.78125 
Q 78.8125 37.59375 77.09375 40.203125 
Q 75.390625 42.828125 71.578125 42.828125 
Q 66.609375 42.828125 63.890625 38.71875 
Q 61.1875 34.625 61.078125 26.859375 
L 61.078125 0 
L 43.5 0 
L 43.5 28.515625 
Q 43.5 37.59375 41.9375 40.203125 
Q 40.375 42.828125 36.375 42.828125 
Q 31.34375 42.828125 28.609375 38.703125 
Q 25.875 34.578125 25.875 26.90625 
L 25.875 0 
L 8.296875 0 
L 8.296875 54.6875 
L 25.875 54.6875 
L 25.875 46.6875 
Q 29.109375 51.3125 33.28125 53.65625 
Q 37.453125 56 42.484375 56 
Q 48.140625 56 52.484375 53.265625 
Q 56.84375 50.53125 59.078125 45.609375 
z
" id="DejaVuSans-Bold-109"/>
    </defs>
    <g transform="translate(137.957481 305.730781)scale(0.120708 -0.120708)">
     <use xlink:href="#DejaVuSans-Bold-32"/>
     <use x="34.814453" xlink:href="#DejaVuSans-Bold-32"/>
     <use x="69.628906" xlink:href="#DejaVuSans-Bold-49"/>
     <use x="139.208984" xlink:href="#DejaVuSans-Bold-109"/>
     <use x="243.408203" xlink:href="#DejaVuSans-Bold-115"/>
    </g>
   </g>
   <g id="text_26">
    <!--   1ms -->
    <g transform="translate(137.418885 190.628905)scale(0.124264 -0.124264)">
     <use xlink:href="#DejaVuSans-Bold-32"/>
     <use x="34.814453" xlink:href="#DejaVuSans-Bold-32"/>
     <use x="69.628906" xlink:href="#DejaVuSans-Bold-49"/>
     <use x="139.208984" xlink:href="#DejaVuSans-Bold-109"/>
     <use x="243.408203" xlink:href="#DejaVuSans-Bold-115"/>
    </g>
   </g>
   <g id="text_27">
    <!--   2ms -->
    <g transform="translate(136.750149 75.550738)scale(0.128679 -0.128679)">
     <use xlink:href="#DejaVuSans-Bold-32"/>
     <use x="34.814453" xlink:href="#DejaVuSans-Bold-32"/>
     <use x="69.628906" xlink:href="#DejaVuSans-Bold-50"/>
     <use x="139.208984" xlink:href="#DejaVuSans-Bold-109"/>
     <use x="243.408203" xlink:href="#DejaVuSans-Bold-115"/>
    </g>
   </g>
   <g id="text_28">
    <!-- 800µs -->
    <g transform="translate(220.41446 651.226702)scale(0.117401 -0.117401)">
     <use xlink:href="#DejaVuSans-Bold-56"/>
     <use x="69.580078" xlink:href="#DejaVuSans-Bold-48"/>
     <use x="139.160156" xlink:href="#DejaVuSans-Bold-48"/>
     <use x="208.740234" xlink:href="#DejaVuSans-Bold-181"/>
     <use x="282.324219" xlink:href="#DejaVuSans-Bold-115"/>
    </g>
   </g>
   <g id="text_29">
    <!-- 960µs -->
    <g transform="translate(220.05381 536.084698)scale(0.119511 -0.119511)">
     <use xlink:href="#DejaVuSans-Bold-57"/>
     <use x="69.580078" xlink:href="#DejaVuSans-Bold-54"/>
     <use x="139.160156" xlink:href="#DejaVuSans-Bold-48"/>
     <use x="208.740234" xlink:href="#DejaVuSans-Bold-181"/>
     <use x="282.324219" xlink:href="#DejaVuSans-Bold-115"/>
    </g>
   </g>
   <g id="text_30">
    <!--   1ms -->
    <g transform="translate(221.99518 420.967637)scale(0.122043 -0.122043)">
     <use xlink:href="#DejaVuSans-Bold-32"/>
     <use x="34.814453" xlink:href="#DejaVuSans-Bold-32"/>
     <use x="69.628906" xlink:href="#DejaVuSans-Bold-49"/>
     <use x="139.208984" xlink:href="#DejaVuSans-Bold-109"/>
     <use x="243.408203" xlink:href="#DejaVuSans-Bold-115"/>
    </g>
   </g>
   <g id="text_31">
    <!--   2ms -->
    <g transform="translate(221.096166 305.931423)scale(0.127979 -0.127979)">
     <use xlink:href="#DejaVuSans-Bold-32"/>
     <use x="34.814453" xlink:href="#DejaVuSans-Bold-32"/>
     <use x="69.628906" xlink:href="#DejaVuSans-Bold-50"/>
     <use x="139.208984" xlink:href="#DejaVuSans-Bold-109"/>
     <use x="243.408203" xlink:href="#DejaVuSans-Bold-115"/>
    </g>
   </g>
   <g id="text_32">
    <!--   4ms -->
    <g transform="translate(219.365846 191.04666)scale(0.139403 -0.139403)">
     <use xlink:href="#DejaVuSans-Bold-32"/>
     <use x="34.814453" xlink:href="#DejaVuSans-Bold-32"/>
     <use x="69.628906" xlink:href="#DejaVuSans-Bold-52"/>
     <use x="139.208984" xlink:href="#DejaVuSans-Bold-109"/>
     <use x="243.408203" xlink:href="#DejaVuSans-Bold-115"/>
    </g>
   </g>
   <g id="text_33">
    <!--   9ms -->
    <g transform="translate(216.569854 76.356044)scale(0.157863 -0.157863)">
     <use xlink:href="#DejaVuSans-Bold-32"/>
     <use x="34.814453" xlink:href="#DejaVuSans-Bold-32"/>
     <use x="69.628906" xlink:href="#DejaVuSans-Bold-57"/>
     <use x="139.208984" xlink:href="#DejaVuSans-Bold-109"/>
     <use x="243.408203" xlink:href="#DejaVuSans-Bold-115"/>
    </g>
   </g>
   <g id="text_34">
    <!-- 960µs -->
    <g transform="translate(304.29381 651.284698)scale(0.119511 -0.119511)">
     <use xlink:href="#DejaVuSans-Bold-57"/>
     <use x="69.580078" xlink:href="#DejaVuSans-Bold-54"/>
     <use x="139.160156" xlink:href="#DejaVuSans-Bold-48"/>
     <use x="208.740234" xlink:href="#DejaVuSans-Bold-181"/>
     <use x="282.324219" xlink:href="#DejaVuSans-Bold-115"/>
    </g>
   </g>
   <g id="text_35">
    <!--   1ms -->
    <g transform="translate(306.508464 536.117849)scale(0.120239 -0.120239)">
     <use xlink:href="#DejaVuSans-Bold-32"/>
     <use x="34.814453" xlink:href="#DejaVuSans-Bold-32"/>
     <use x="69.628906" xlink:href="#DejaVuSans-Bold-49"/>
     <use x="139.208984" xlink:href="#DejaVuSans-Bold-109"/>
     <use x="243.408203" xlink:href="#DejaVuSans-Bold-115"/>
    </g>
   </g>
   <g id="text_36">
    <!--   2ms -->
    <g transform="translate(305.730842 421.059519)scale(0.125373 -0.125373)">
     <use xlink:href="#DejaVuSans-Bold-32"/>
     <use x="34.814453" xlink:href="#DejaVuSans-Bold-32"/>
     <use x="69.628906" xlink:href="#DejaVuSans-Bold-50"/>
     <use x="139.208984" xlink:href="#DejaVuSans-Bold-109"/>
     <use x="243.408203" xlink:href="#DejaVuSans-Bold-115"/>
    </g>
   </g>
   <g id="text_37">
    <!--   4ms -->
    <g transform="translate(303.724134 306.22511)scale(0.138622 -0.138622)">
     <use xlink:href="#DejaVuSans-Bold-32"/>
     <use x="34.814453" xlink:href="#DejaVuSans-Bold-32"/>
     <use x="69.628906" xlink:href="#DejaVuSans-Bold-52"/>
     <use x="139.208984" xlink:href="#DejaVuSans-Bold-109"/>
     <use x="243.408203" xlink:href="#DejaVuSans-Bold-115"/>
    </g>
   </g>
   <g id="text_38">
    <!--  11ms -->
    <g transform="translate(297.346248 191.67363)scale(0.162125 -0.162125)">
     <use xlink:href="#DejaVuSans-Bold-32"/>
     <use x="34.814453" xlink:href="#DejaVuSans-Bold-49"/>
     <use x="104.394531" xlink:href="#DejaVuSans-Bold-49"/>
     <use x="173.974609" xlink:href="#DejaVuSans-Bold-109"/>
     <use x="278.173828" xlink:href="#DejaVuSans-Bold-115"/>
    </g>
   </g>
   <g id="text_39">
    <!--  43ms -->
    <defs>
     <path d="M 46.578125 39.3125 
Q 53.953125 37.40625 57.78125 32.6875 
Q 61.625 27.984375 61.625 20.703125 
Q 61.625 9.859375 53.3125 4.21875 
Q 45.015625 -1.421875 29.109375 -1.421875 
Q 23.484375 -1.421875 17.84375 -0.515625 
Q 12.203125 0.390625 6.6875 2.203125 
L 6.6875 16.703125 
Q 11.96875 14.0625 17.15625 12.71875 
Q 22.359375 11.375 27.390625 11.375 
Q 34.859375 11.375 38.84375 13.953125 
Q 42.828125 16.546875 42.828125 21.390625 
Q 42.828125 26.375 38.75 28.9375 
Q 34.671875 31.5 26.703125 31.5 
L 19.1875 31.5 
L 19.1875 43.609375 
L 27.09375 43.609375 
Q 34.1875 43.609375 37.640625 45.828125 
Q 41.109375 48.046875 41.109375 52.59375 
Q 41.109375 56.78125 37.734375 59.078125 
Q 34.375 61.375 28.21875 61.375 
Q 23.6875 61.375 19.046875 60.34375 
Q 14.40625 59.328125 9.8125 57.328125 
L 9.8125 71.09375 
Q 15.375 72.65625 20.84375 73.4375 
Q 26.3125 74.21875 31.59375 74.21875 
Q 45.796875 74.21875 52.84375 69.546875 
Q 59.90625 64.890625 59.90625 55.515625 
Q 59.90625 49.125 56.53125 45.046875 
Q 53.171875 40.96875 46.578125 39.3125 
z
" id="DejaVuSans-Bold-51"/>
    </defs>
    <g transform="translate(290.252751 77.632904)scale(0.204137 -0.204137)">
     <use xlink:href="#DejaVuSans-Bold-32"/>
     <use x="34.814453" xlink:href="#DejaVuSans-Bold-52"/>
     <use x="104.394531" xlink:href="#DejaVuSans-Bold-51"/>
     <use x="173.974609" xlink:href="#DejaVuSans-Bold-109"/>
     <use x="278.173828" xlink:href="#DejaVuSans-Bold-115"/>
    </g>
   </g>
   <g id="text_40">
    <!-- 940µs -->
    <g transform="translate(388.576474 651.277837)scale(0.119262 -0.119262)">
     <use xlink:href="#DejaVuSans-Bold-57"/>
     <use x="69.580078" xlink:href="#DejaVuSans-Bold-52"/>
     <use x="139.160156" xlink:href="#DejaVuSans-Bold-48"/>
     <use x="208.740234" xlink:href="#DejaVuSans-Bold-181"/>
     <use x="282.324219" xlink:href="#DejaVuSans-Bold-115"/>
    </g>
   </g>
   <g id="text_41">
    <!--   1ms -->
    <g transform="translate(390.47518 536.167637)scale(0.122043 -0.122043)">
     <use xlink:href="#DejaVuSans-Bold-32"/>
     <use x="34.814453" xlink:href="#DejaVuSans-Bold-32"/>
     <use x="69.628906" xlink:href="#DejaVuSans-Bold-49"/>
     <use x="139.208984" xlink:href="#DejaVuSans-Bold-109"/>
     <use x="243.408203" xlink:href="#DejaVuSans-Bold-115"/>
    </g>
   </g>
   <g id="text_42">
    <!--   2ms -->
    <g transform="translate(389.204042 421.199218)scale(0.130436 -0.130436)">
     <use xlink:href="#DejaVuSans-Bold-32"/>
     <use x="34.814453" xlink:href="#DejaVuSans-Bold-32"/>
     <use x="69.628906" xlink:href="#DejaVuSans-Bold-50"/>
     <use x="139.208984" xlink:href="#DejaVuSans-Bold-109"/>
     <use x="243.408203" xlink:href="#DejaVuSans-Bold-115"/>
    </g>
   </g>
   <g id="text_43">
    <!--   7ms -->
    <g transform="translate(385.885534 306.603797)scale(0.152346 -0.152346)">
     <use xlink:href="#DejaVuSans-Bold-32"/>
     <use x="34.814453" xlink:href="#DejaVuSans-Bold-32"/>
     <use x="69.628906" xlink:href="#DejaVuSans-Bold-55"/>
     <use x="139.208984" xlink:href="#DejaVuSans-Bold-109"/>
     <use x="243.408203" xlink:href="#DejaVuSans-Bold-115"/>
    </g>
   </g>
   <g id="text_44">
    <!--  33ms -->
    <g transform="translate(376.14402 192.563041)scale(0.194357 -0.194357)">
     <use xlink:href="#DejaVuSans-Bold-32"/>
     <use x="34.814453" xlink:href="#DejaVuSans-Bold-51"/>
     <use x="104.394531" xlink:href="#DejaVuSans-Bold-51"/>
     <use x="173.974609" xlink:href="#DejaVuSans-Bold-109"/>
     <use x="278.173828" xlink:href="#DejaVuSans-Bold-115"/>
    </g>
   </g>
   <g id="text_45">
    <!-- 149ms -->
    <g transform="translate(360.443683 79.188809)scale(0.260523 -0.260523)">
     <use xlink:href="#DejaVuSans-Bold-49"/>
     <use x="69.580078" xlink:href="#DejaVuSans-Bold-52"/>
     <use x="139.160156" xlink:href="#DejaVuSans-Bold-57"/>
     <use x="208.740234" xlink:href="#DejaVuSans-Bold-109"/>
     <use x="312.939453" xlink:href="#DejaVuSans-Bold-115"/>
    </g>
   </g>
   <g id="text_46">
    <!-- 940µs -->
    <g transform="translate(472.816474 651.277837)scale(0.119262 -0.119262)">
     <use xlink:href="#DejaVuSans-Bold-57"/>
     <use x="69.580078" xlink:href="#DejaVuSans-Bold-52"/>
     <use x="139.160156" xlink:href="#DejaVuSans-Bold-48"/>
     <use x="208.740234" xlink:href="#DejaVuSans-Bold-181"/>
     <use x="282.324219" xlink:href="#DejaVuSans-Bold-115"/>
    </g>
   </g>
   <g id="text_47">
    <!--   1ms -->
    <g transform="translate(474.557321 536.196397)scale(0.123086 -0.123086)">
     <use xlink:href="#DejaVuSans-Bold-32"/>
     <use x="34.814453" xlink:href="#DejaVuSans-Bold-32"/>
     <use x="69.628906" xlink:href="#DejaVuSans-Bold-49"/>
     <use x="139.208984" xlink:href="#DejaVuSans-Bold-109"/>
     <use x="243.408203" xlink:href="#DejaVuSans-Bold-115"/>
    </g>
   </g>
   <g id="text_48">
    <!--   3ms -->
    <g transform="translate(472.61631 421.350018)scale(0.135901 -0.135901)">
     <use xlink:href="#DejaVuSans-Bold-32"/>
     <use x="34.814453" xlink:href="#DejaVuSans-Bold-32"/>
     <use x="69.628906" xlink:href="#DejaVuSans-Bold-51"/>
     <use x="139.208984" xlink:href="#DejaVuSans-Bold-109"/>
     <use x="243.408203" xlink:href="#DejaVuSans-Bold-115"/>
    </g>
   </g>
   <g id="text_49">
    <!--  13ms -->
    <g transform="translate(465.068287 306.997502)scale(0.166614 -0.166614)">
     <use xlink:href="#DejaVuSans-Bold-32"/>
     <use x="34.814453" xlink:href="#DejaVuSans-Bold-49"/>
     <use x="104.394531" xlink:href="#DejaVuSans-Bold-51"/>
     <use x="173.974609" xlink:href="#DejaVuSans-Bold-109"/>
     <use x="278.173828" xlink:href="#DejaVuSans-Bold-115"/>
    </g>
   </g>
   <g id="text_50">
    <!--  74ms -->
    <g transform="translate(455.021517 193.439423)scale(0.226117 -0.226117)">
     <use xlink:href="#DejaVuSans-Bold-32"/>
     <use x="34.814453" xlink:href="#DejaVuSans-Bold-55"/>
     <use x="104.394531" xlink:href="#DejaVuSans-Bold-52"/>
     <use x="173.974609" xlink:href="#DejaVuSans-Bold-109"/>
     <use x="278.173828" xlink:href="#DejaVuSans-Bold-115"/>
    </g>
   </g>
   <g id="text_51">
    <!-- 410ms -->
    <g transform="translate(432.740002 80.95854)scale(0.324658 -0.324658)">
     <use xlink:href="#DejaVuSans-Bold-52"/>
     <use x="69.580078" xlink:href="#DejaVuSans-Bold-49"/>
     <use x="139.160156" xlink:href="#DejaVuSans-Bold-48"/>
     <use x="208.740234" xlink:href="#DejaVuSans-Bold-109"/>
     <use x="312.939453" xlink:href="#DejaVuSans-Bold-115"/>
    </g>
   </g>
  </g>
  <g id="axes_2">
   <g id="patch_7">
    <path clip-path="url(#p3a87f08041)" d="M 622.8 648 
L 622.8 552 
L 622.8 168 
L 622.8 72 
L 651.6 72 
L 651.6 168 
L 651.6 552 
L 651.6 648 
z
" style="fill:#ffffff;stroke:#ffffff;stroke-linejoin:miter;stroke-width:0.01;"/>
   </g>
   <g id="QuadMesh_1">
    <path clip-path="url(#p3a87f08041)" d="M 622.8 648 
L 651.6 648 
L 651.6 552 
L 622.8 552 
L 622.8 648 
" style="fill:#481f70;"/>
    <path clip-path="url(#p3a87f08041)" d="M 622.8 552 
L 651.6 552 
L 651.6 456 
L 622.8 456 
L 622.8 552 
" style="fill:#3b528b;"/>
    <path clip-path="url(#p3a87f08041)" d="M 622.8 456 
L 651.6 456 
L 651.6 360 
L 622.8 360 
L 622.8 456 
" style="fill:#287c8e;"/>
    <path clip-path="url(#p3a87f08041)" d="M 622.8 360 
L 651.6 360 
L 651.6 264 
L 622.8 264 
L 622.8 360 
" style="fill:#20a486;"/>
    <path clip-path="url(#p3a87f08041)" d="M 622.8 264 
L 651.6 264 
L 651.6 168 
L 622.8 168 
L 622.8 264 
" style="fill:#5ec962;"/>
    <path clip-path="url(#p3a87f08041)" d="M 622.8 168 
L 651.6 168 
L 651.6 72 
L 622.8 72 
L 622.8 168 
" style="fill:#c8e020;"/>
   </g>
   <g id="matplotlib.axis_3"/>
   <g id="matplotlib.axis_4">
    <g id="ytick_7">
     <g id="line2d_13">
      <defs>
       <path d="M 0 0 
L 3.5 0 
" id="m0c617f83f1" style="stroke:#000000;stroke-width:0.8;"/>
      </defs>
      <g>
       <use style="stroke:#000000;stroke-width:0.8;" x="651.6" xlink:href="#m0c617f83f1" y="648"/>
      </g>
     </g>
     <g id="text_52">
      <!--  10B -->
      <defs>
       <path d="M 19.671875 34.8125 
L 19.671875 8.109375 
L 35.5 8.109375 
Q 43.453125 8.109375 47.28125 11.40625 
Q 51.125 14.703125 51.125 21.484375 
Q 51.125 28.328125 47.28125 31.5625 
Q 43.453125 34.8125 35.5 34.8125 
z
M 19.671875 64.796875 
L 19.671875 42.828125 
L 34.28125 42.828125 
Q 41.5 42.828125 45.03125 45.53125 
Q 48.578125 48.25 48.578125 53.8125 
Q 48.578125 59.328125 45.03125 62.0625 
Q 41.5 64.796875 34.28125 64.796875 
z
M 9.8125 72.90625 
L 35.015625 72.90625 
Q 46.296875 72.90625 52.390625 68.21875 
Q 58.5 63.53125 58.5 54.890625 
Q 58.5 48.1875 55.375 44.234375 
Q 52.25 40.28125 46.1875 39.3125 
Q 53.46875 37.75 57.5 32.78125 
Q 61.53125 27.828125 61.53125 20.40625 
Q 61.53125 10.640625 54.890625 5.3125 
Q 48.25 0 35.984375 0 
L 9.8125 0 
z
" id="DejaVuSans-66"/>
      </defs>
      <g transform="translate(658.6 651.799219)scale(0.1 -0.1)">
       <use xlink:href="#DejaVuSans-32"/>
       <use x="31.787109" xlink:href="#DejaVuSans-49"/>
       <use x="95.410156" xlink:href="#DejaVuSans-48"/>
       <use x="159.033203" xlink:href="#DejaVuSans-66"/>
      </g>
     </g>
    </g>
    <g id="ytick_8">
     <g id="line2d_14">
      <g>
       <use style="stroke:#000000;stroke-width:0.8;" x="651.6" xlink:href="#m0c617f83f1" y="552"/>
      </g>
     </g>
     <g id="text_53">
      <!-- 100B -->
      <g transform="translate(658.6 555.799219)scale(0.1 -0.1)">
       <use xlink:href="#DejaVuSans-49"/>
       <use x="63.623047" xlink:href="#DejaVuSans-48"/>
       <use x="127.246094" xlink:href="#DejaVuSans-48"/>
       <use x="190.869141" xlink:href="#DejaVuSans-66"/>
      </g>
     </g>
    </g>
    <g id="ytick_9">
     <g id="line2d_15">
      <g>
       <use style="stroke:#000000;stroke-width:0.8;" x="651.6" xlink:href="#m0c617f83f1" y="456"/>
      </g>
     </g>
     <g id="text_54">
      <!--   1KB -->
      <defs>
       <path d="M 9.8125 72.90625 
L 19.671875 72.90625 
L 19.671875 42.09375 
L 52.390625 72.90625 
L 65.09375 72.90625 
L 28.90625 38.921875 
L 67.671875 0 
L 54.6875 0 
L 19.671875 35.109375 
L 19.671875 0 
L 9.8125 0 
z
" id="DejaVuSans-75"/>
      </defs>
      <g transform="translate(658.6 459.799219)scale(0.1 -0.1)">
       <use xlink:href="#DejaVuSans-32"/>
       <use x="31.787109" xlink:href="#DejaVuSans-32"/>
       <use x="63.574219" xlink:href="#DejaVuSans-49"/>
       <use x="127.197266" xlink:href="#DejaVuSans-75"/>
       <use x="192.773438" xlink:href="#DejaVuSans-66"/>
      </g>
     </g>
    </g>
    <g id="ytick_10">
     <g id="line2d_16">
      <g>
       <use style="stroke:#000000;stroke-width:0.8;" x="651.6" xlink:href="#m0c617f83f1" y="360"/>
      </g>
     </g>
     <g id="text_55">
      <!--  10KB -->
      <g transform="translate(658.6 363.799219)scale(0.1 -0.1)">
       <use xlink:href="#DejaVuSans-32"/>
       <use x="31.787109" xlink:href="#DejaVuSans-49"/>
       <use x="95.410156" xlink:href="#DejaVuSans-48"/>
       <use x="159.033203" xlink:href="#DejaVuSans-75"/>
       <use x="224.609375" xlink:href="#DejaVuSans-66"/>
      </g>
     </g>
    </g>
    <g id="ytick_11">
     <g id="line2d_17">
      <g>
       <use style="stroke:#000000;stroke-width:0.8;" x="651.6" xlink:href="#m0c617f83f1" y="264"/>
      </g>
     </g>
     <g id="text_56">
      <!-- 100KB -->
      <g transform="translate(658.6 267.799219)scale(0.1 -0.1)">
       <use xlink:href="#DejaVuSans-49"/>
       <use x="63.623047" xlink:href="#DejaVuSans-48"/>
       <use x="127.246094" xlink:href="#DejaVuSans-48"/>
       <use x="190.869141" xlink:href="#DejaVuSans-75"/>
       <use x="256.445312" xlink:href="#DejaVuSans-66"/>
      </g>
     </g>
    </g>
    <g id="ytick_12">
     <g id="line2d_18">
      <g>
       <use style="stroke:#000000;stroke-width:0.8;" x="651.6" xlink:href="#m0c617f83f1" y="168"/>
      </g>
     </g>
     <g id="text_57">
      <!--   1MB -->
      <defs>
       <path d="M 9.8125 72.90625 
L 24.515625 72.90625 
L 43.109375 23.296875 
L 61.8125 72.90625 
L 76.515625 72.90625 
L 76.515625 0 
L 66.890625 0 
L 66.890625 64.015625 
L 48.09375 14.015625 
L 38.1875 14.015625 
L 19.390625 64.015625 
L 19.390625 0 
L 9.8125 0 
z
" id="DejaVuSans-77"/>
      </defs>
      <g transform="translate(658.6 171.799219)scale(0.1 -0.1)">
       <use xlink:href="#DejaVuSans-32"/>
       <use x="31.787109" xlink:href="#DejaVuSans-32"/>
       <use x="63.574219" xlink:href="#DejaVuSans-49"/>
       <use x="127.197266" xlink:href="#DejaVuSans-77"/>
       <use x="213.476562" xlink:href="#DejaVuSans-66"/>
      </g>
     </g>
    </g>
    <g id="ytick_13">
     <g id="line2d_19">
      <g>
       <use style="stroke:#000000;stroke-width:0.8;" x="651.6" xlink:href="#m0c617f83f1" y="72"/>
      </g>
     </g>
     <g id="text_58">
      <!--  10MB -->
      <g transform="translate(658.6 75.799219)scale(0.1 -0.1)">
       <use xlink:href="#DejaVuSans-32"/>
       <use x="31.787109" xlink:href="#DejaVuSans-49"/>
       <use x="95.410156" xlink:href="#DejaVuSans-48"/>
       <use x="159.033203" xlink:href="#DejaVuSans-77"/>
       <use x="245.3125" xlink:href="#DejaVuSans-66"/>
      </g>
     </g>
    </g>
    <g id="text_59">
     <!-- serialized payload size -->
     <defs>
      <path d="M 44.28125 53.078125 
L 44.28125 44.578125 
Q 40.484375 46.53125 36.375 47.5 
Q 32.28125 48.484375 27.875 48.484375 
Q 21.1875 48.484375 17.84375 46.4375 
Q 14.5 44.390625 14.5 40.28125 
Q 14.5 37.15625 16.890625 35.375 
Q 19.28125 33.59375 26.515625 31.984375 
L 29.59375 31.296875 
Q 39.15625 29.25 43.1875 25.515625 
Q 47.21875 21.78125 47.21875 15.09375 
Q 47.21875 7.46875 41.1875 3.015625 
Q 35.15625 -1.421875 24.609375 -1.421875 
Q 20.21875 -1.421875 15.453125 -0.5625 
Q 10.6875 0.296875 5.421875 2 
L 5.421875 11.28125 
Q 10.40625 8.6875 15.234375 7.390625 
Q 20.0625 6.109375 24.8125 6.109375 
Q 31.15625 6.109375 34.5625 8.28125 
Q 37.984375 10.453125 37.984375 14.40625 
Q 37.984375 18.0625 35.515625 20.015625 
Q 33.0625 21.96875 24.703125 23.78125 
L 21.578125 24.515625 
Q 13.234375 26.265625 9.515625 29.90625 
Q 5.8125 33.546875 5.8125 39.890625 
Q 5.8125 47.609375 11.28125 51.796875 
Q 16.75 56 26.8125 56 
Q 31.78125 56 36.171875 55.265625 
Q 40.578125 54.546875 44.28125 53.078125 
z
" id="DejaVuSans-115"/>
      <path d="M 5.515625 54.6875 
L 48.1875 54.6875 
L 48.1875 46.484375 
L 14.40625 7.171875 
L 48.1875 7.171875 
L 48.1875 0 
L 4.296875 0 
L 4.296875 8.203125 
L 38.09375 47.515625 
L 5.515625 47.515625 
z
" id="DejaVuSans-122"/>
     </defs>
     <g transform="translate(702.704687 416.6)rotate(-90)scale(0.1 -0.1)">
      <use xlink:href="#DejaVuSans-115"/>
      <use x="52.099609" xlink:href="#DejaVuSans-101"/>
      <use x="113.623047" xlink:href="#DejaVuSans-114"/>
      <use x="154.736328" xlink:href="#DejaVuSans-105"/>
      <use x="182.519531" xlink:href="#DejaVuSans-97"/>
      <use x="243.798828" xlink:href="#DejaVuSans-108"/>
      <use x="271.582031" xlink:href="#DejaVuSans-105"/>
      <use x="299.365234" xlink:href="#DejaVuSans-122"/>
      <use x="351.855469" xlink:href="#DejaVuSans-101"/>
      <use x="413.378906" xlink:href="#DejaVuSans-100"/>
      <use x="476.855469" xlink:href="#DejaVuSans-32"/>
      <use x="508.642578" xlink:href="#DejaVuSans-112"/>
      <use x="572.119141" xlink:href="#DejaVuSans-97"/>
      <use x="633.398438" xlink:href="#DejaVuSans-121"/>
      <use x="692.578125" xlink:href="#DejaVuSans-108"/>
      <use x="720.361328" xlink:href="#DejaVuSans-111"/>
      <use x="781.542969" xlink:href="#DejaVuSans-97"/>
      <use x="842.822266" xlink:href="#DejaVuSans-100"/>
      <use x="906.298828" xlink:href="#DejaVuSans-32"/>
      <use x="938.085938" xlink:href="#DejaVuSans-115"/>
      <use x="990.185547" xlink:href="#DejaVuSans-105"/>
      <use x="1017.96875" xlink:href="#DejaVuSans-122"/>
      <use x="1070.458984" xlink:href="#DejaVuSans-101"/>
     </g>
    </g>
   </g>
   <g id="patch_8">
    <path d="M 622.8 648 
L 622.8 552 
L 622.8 168 
L 622.8 72 
L 651.6 72 
L 651.6 168 
L 651.6 552 
L 651.6 648 
z
" style="fill:none;stroke:#000000;stroke-linejoin:miter;stroke-width:0.8;"/>
   </g>
  </g>
 </g>
 <defs>
  <clipPath id="p7be6003c6d">
   <rect height="576" width="421.2" x="72" y="72"/>
  </clipPath>
  <clipPath id="p3a87f08041">
   <rect height="576" width="28.8" x="622.8" y="72"/>
  </clipPath>
 </defs>
</svg>
