<?xml version="1.0" encoding="utf-8" standalone="no"?>
<!DOCTYPE svg PUBLIC "-//W3C//DTD SVG 1.1//EN"
  "http://www.w3.org/Graphics/SVG/1.1/DTD/svg11.dtd">
<!-- Created with matplotlib (https://matplotlib.org/) -->
<svg height="720pt" version="1.1" viewBox="0 0 720 720" width="720pt" xmlns="http://www.w3.org/2000/svg" xmlns:xlink="http://www.w3.org/1999/xlink">
 <defs>
  <style type="text/css">
*{stroke-linecap:butt;stroke-linejoin:round;white-space:pre;}
  </style>
 </defs>
 <g id="figure_1">
  <g id="patch_1">
   <path d="M 0 720 
L 720 720 
L 720 0 
L 0 0 
z
" style="fill:#ffffff;"/>
  </g>
  <g id="axes_1">
   <g id="patch_2">
    <path d="M 72 648 
L 493.2 648 
L 493.2 72 
L 72 72 
z
" style="fill:#ffffff;"/>
   </g>
   <g id="PathCollection_1">
    <path clip-path="url(#p0df86a3a0a)" d="M 156.24 648 
L 240.48 648 
L 324.72 648 
L 332.852967 648 
L 324.72 647.681794 
L 240.48 639.966872 
L 156.24 606.311218 
L 96.2414 532.8 
L 72 430.293422 
L 72 532.8 
L 72 648 
z
" style="fill:#481f70;"/>
   </g>
   <g id="PathCollection_2">
    <path clip-path="url(#p0df86a3a0a)" d="M 156.24 606.311218 
L 240.48 639.966872 
L 324.72 647.681794 
L 332.852967 648 
L 408.96 648 
L 493.2 648 
L 493.2 618.248947 
L 408.96 584.641798 
L 340.295479 532.8 
L 324.72 525.915639 
L 240.48 442.761877 
L 222.732188 417.6 
L 172.279003 302.4 
L 157.244619 187.2 
L 156.24 173.506398 
L 130.744622 72 
L 72 72 
L 72 187.2 
L 72 302.4 
L 72 417.6 
L 72 430.293422 
L 96.2414 532.8 
z
" style="fill:#3b528b;"/>
   </g>
   <g id="PathCollection_3">
    <path clip-path="url(#p0df86a3a0a)" d="M 408.96 584.641798 
L 493.2 618.248947 
L 493.2 532.8 
L 493.2 506.73757 
L 408.96 427.345767 
L 399.998776 417.6 
L 324.72 309.691224 
L 320.057677 302.4 
L 262.605392 187.2 
L 244.172312 72 
L 240.48 72 
L 156.24 72 
L 130.744622 72 
L 156.24 173.506398 
L 157.244619 187.2 
L 172.279003 302.4 
L 222.732188 417.6 
L 240.48 442.761877 
L 324.72 525.915639 
L 340.295479 532.8 
z
" style="fill:#287c8e;"/>
   </g>
   <g id="PathCollection_4">
    <path clip-path="url(#p0df86a3a0a)" d="M 408.96 427.345767 
L 493.2 506.73757 
L 493.2 417.6 
L 493.2 359.874667 
L 447.996165 302.4 
L 408.96 219.077403 
L 389.789479 187.2 
L 342.016195 72 
L 324.72 72 
L 244.172312 72 
L 262.605392 187.2 
L 320.057677 302.4 
L 324.72 309.691224 
L 399.998776 417.6 
z
" style="fill:#20a486;"/>
   </g>
   <g id="PathCollection_5">
    <path clip-path="url(#p0df86a3a0a)" d="M 493.2 359.874667 
L 493.2 302.4 
L 493.2 187.2 
L 493.2 148.79319 
L 449.003496 72 
L 408.96 72 
L 342.016195 72 
L 389.789479 187.2 
L 408.96 219.077403 
L 447.996165 302.4 
z
" style="fill:#5ec962;"/>
   </g>
   <g id="PathCollection_6">
    <path clip-path="url(#p0df86a3a0a)" d="M 493.2 148.79319 
L 493.2 72 
L 449.003496 72 
z
" style="fill:#c8e020;"/>
   </g>
   <g id="matplotlib.axis_1">
    <g id="xtick_1">
     <g id="line2d_1">
      <defs>
       <path d="M 0 0 
L 0 3.5 
" id="ma6b1dad13c" style="stroke:#000000;stroke-width:0.8;"/>
      </defs>
      <g>
       <use style="stroke:#000000;stroke-width:0.8;" x="72" xlink:href="#ma6b1dad13c" y="648"/>
      </g>
     </g>
     <g id="text_1">
      <!-- 1 -->
      <defs>
       <path d="M 12.40625 8.296875 
L 28.515625 8.296875 
L 28.515625 63.921875 
L 10.984375 60.40625 
L 10.984375 69.390625 
L 28.421875 72.90625 
L 38.28125 72.90625 
L 38.28125 8.296875 
L 54.390625 8.296875 
L 54.390625 0 
L 12.40625 0 
z
" id="DejaVuSans-49"/>
      </defs>
      <g transform="translate(68.81875 689.098438)scale(0.1 -0.1)">
       <use xlink:href="#DejaVuSans-49"/>
      </g>
     </g>
    </g>
    <g id="xtick_2">
     <g id="line2d_2">
      <g>
       <use style="stroke:#000000;stroke-width:0.8;" x="156.24" xlink:href="#ma6b1dad13c" y="648"/>
      </g>
     </g>
     <g id="text_2">
      <!-- 2 -->
      <defs>
       <path d="M 19.1875 8.296875 
L 53.609375 8.296875 
L 53.609375 0 
L 7.328125 0 
L 7.328125 8.296875 
Q 12.9375 14.109375 22.625 23.890625 
Q 32.328125 33.6875 34.8125 36.53125 
Q 39.546875 41.84375 41.421875 45.53125 
Q 43.3125 49.21875 43.3125 52.78125 
Q 43.3125 58.59375 39.234375 62.25 
Q 35.15625 65.921875 28.609375 65.921875 
Q 23.96875 65.921875 18.8125 64.3125 
Q 13.671875 62.703125 7.8125 59.421875 
L 7.8125 69.390625 
Q 13.765625 71.78125 18.9375 73 
Q 24.125 74.21875 28.421875 74.21875 
Q 39.75 74.21875 46.484375 68.546875 
Q 53.21875 62.890625 53.21875 53.421875 
Q 53.21875 48.921875 51.53125 44.890625 
Q 49.859375 40.875 45.40625 35.40625 
Q 44.1875 33.984375 37.640625 27.21875 
Q 31.109375 20.453125 19.1875 8.296875 
z
" id="DejaVuSans-50"/>
      </defs>
      <g transform="translate(153.05875 689.098438)scale(0.1 -0.1)">
       <use xlink:href="#DejaVuSans-50"/>
      </g>
     </g>
    </g>
    <g id="xtick_3">
     <g id="line2d_3">
      <g>
       <use style="stroke:#000000;stroke-width:0.8;" x="240.48" xlink:href="#ma6b1dad13c" y="648"/>
      </g>
     </g>
     <g id="text_3">
      <!-- 3 -->
      <defs>
       <path d="M 40.578125 39.3125 
Q 47.65625 37.796875 51.625 33 
Q 55.609375 28.21875 55.609375 21.1875 
Q 55.609375 10.40625 48.1875 4.484375 
Q 40.765625 -1.421875 27.09375 -1.421875 
Q 22.515625 -1.421875 17.65625 -0.515625 
Q 12.796875 0.390625 7.625 2.203125 
L 7.625 11.71875 
Q 11.71875 9.328125 16.59375 8.109375 
Q 21.484375 6.890625 26.8125 6.890625 
Q 36.078125 6.890625 40.9375 10.546875 
Q 45.796875 14.203125 45.796875 21.1875 
Q 45.796875 27.640625 41.28125 31.265625 
Q 36.765625 34.90625 28.71875 34.90625 
L 20.21875 34.90625 
L 20.21875 43.015625 
L 29.109375 43.015625 
Q 36.375 43.015625 40.234375 45.921875 
Q 44.09375 48.828125 44.09375 54.296875 
Q 44.09375 59.90625 40.109375 62.90625 
Q 36.140625 65.921875 28.71875 65.921875 
Q 24.65625 65.921875 20.015625 65.03125 
Q 15.375 64.15625 9.8125 62.3125 
L 9.8125 71.09375 
Q 15.4375 72.65625 20.34375 73.4375 
Q 25.25 74.21875 29.59375 74.21875 
Q 40.828125 74.21875 47.359375 69.109375 
Q 53.90625 64.015625 53.90625 55.328125 
Q 53.90625 49.265625 50.4375 45.09375 
Q 46.96875 40.921875 40.578125 39.3125 
z
" id="DejaVuSans-51"/>
      </defs>
      <g transform="translate(237.29875 689.098438)scale(0.1 -0.1)">
       <use xlink:href="#DejaVuSans-51"/>
      </g>
     </g>
    </g>
    <g id="xtick_4">
     <g id="line2d_4">
      <g>
       <use style="stroke:#000000;stroke-width:0.8;" x="324.72" xlink:href="#ma6b1dad13c" y="648"/>
      </g>
     </g>
     <g id="text_4">
      <!-- 4 -->
      <defs>
       <path d="M 37.796875 64.3125 
L 12.890625 25.390625 
L 37.796875 25.390625 
z
M 35.203125 72.90625 
L 47.609375 72.90625 
L 47.609375 25.390625 
L 58.015625 25.390625 
L 58.015625 17.1875 
L 47.609375 17.1875 
L 47.609375 0 
L 37.796875 0 
L 37.796875 17.1875 
L 4.890625 17.1875 
L 4.890625 26.703125 
z
" id="DejaVuSans-52"/>
      </defs>
      <g transform="translate(321.53875 689.098438)scale(0.1 -0.1)">
       <use xlink:href="#DejaVuSans-52"/>
      </g>
     </g>
    </g>
    <g id="xtick_5">
     <g id="line2d_5">
      <g>
       <use style="stroke:#000000;stroke-width:0.8;" x="408.96" xlink:href="#ma6b1dad13c" y="648"/>
      </g>
     </g>
     <g id="text_5">
      <!-- 5 -->
      <defs>
       <path d="M 10.796875 72.90625 
L 49.515625 72.90625 
L 49.515625 64.59375 
L 19.828125 64.59375 
L 19.828125 46.734375 
Q 21.96875 47.46875 24.109375 47.828125 
Q 26.265625 48.1875 28.421875 48.1875 
Q 40.625 48.1875 47.75 41.5 
Q 54.890625 34.8125 54.890625 23.390625 
Q 54.890625 11.625 47.5625 5.09375 
Q 40.234375 -1.421875 26.90625 -1.421875 
Q 22.3125 -1.421875 17.546875 -0.640625 
Q 12.796875 0.140625 7.71875 1.703125 
L 7.71875 11.625 
Q 12.109375 9.234375 16.796875 8.0625 
Q 21.484375 6.890625 26.703125 6.890625 
Q 35.15625 6.890625 40.078125 11.328125 
Q 45.015625 15.765625 45.015625 23.390625 
Q 45.015625 31 40.078125 35.4375 
Q 35.15625 39.890625 26.703125 39.890625 
Q 22.75 39.890625 18.8125 39.015625 
Q 14.890625 38.140625 10.796875 36.28125 
z
" id="DejaVuSans-53"/>
      </defs>
      <g transform="translate(405.77875 689.098438)scale(0.1 -0.1)">
       <use xlink:href="#DejaVuSans-53"/>
      </g>
     </g>
    </g>
    <g id="xtick_6">
     <g id="line2d_6">
      <g>
       <use style="stroke:#000000;stroke-width:0.8;" x="493.2" xlink:href="#ma6b1dad13c" y="648"/>
      </g>
     </g>
     <g id="text_6">
      <!-- 6 -->
      <defs>
       <path d="M 33.015625 40.375 
Q 26.375 40.375 22.484375 35.828125 
Q 18.609375 31.296875 18.609375 23.390625 
Q 18.609375 15.53125 22.484375 10.953125 
Q 26.375 6.390625 33.015625 6.390625 
Q 39.65625 6.390625 43.53125 10.953125 
Q 47.40625 15.53125 47.40625 23.390625 
Q 47.40625 31.296875 43.53125 35.828125 
Q 39.65625 40.375 33.015625 40.375 
z
M 52.59375 71.296875 
L 52.59375 62.3125 
Q 48.875 64.0625 45.09375 64.984375 
Q 41.3125 65.921875 37.59375 65.921875 
Q 27.828125 65.921875 22.671875 59.328125 
Q 17.53125 52.734375 16.796875 39.40625 
Q 19.671875 43.65625 24.015625 45.921875 
Q 28.375 48.1875 33.59375 48.1875 
Q 44.578125 48.1875 50.953125 41.515625 
Q 57.328125 34.859375 57.328125 23.390625 
Q 57.328125 12.15625 50.6875 5.359375 
Q 44.046875 -1.421875 33.015625 -1.421875 
Q 20.359375 -1.421875 13.671875 8.265625 
Q 6.984375 17.96875 6.984375 36.375 
Q 6.984375 53.65625 15.1875 63.9375 
Q 23.390625 74.21875 37.203125 74.21875 
Q 40.921875 74.21875 44.703125 73.484375 
Q 48.484375 72.75 52.59375 71.296875 
z
" id="DejaVuSans-54"/>
      </defs>
      <g transform="translate(490.01875 689.098438)scale(0.1 -0.1)">
       <use xlink:href="#DejaVuSans-54"/>
      </g>
     </g>
    </g>
    <g id="text_7">
     <!-- payload breadth -->
     <defs>
      <path d="M 18.109375 8.203125 
L 18.109375 -20.796875 
L 9.078125 -20.796875 
L 9.078125 54.6875 
L 18.109375 54.6875 
L 18.109375 46.390625 
Q 20.953125 51.265625 25.265625 53.625 
Q 29.59375 56 35.59375 56 
Q 45.5625 56 51.78125 48.09375 
Q 58.015625 40.1875 58.015625 27.296875 
Q 58.015625 14.40625 51.78125 6.484375 
Q 45.5625 -1.421875 35.59375 -1.421875 
Q 29.59375 -1.421875 25.265625 0.953125 
Q 20.953125 3.328125 18.109375 8.203125 
z
M 48.6875 27.296875 
Q 48.6875 37.203125 44.609375 42.84375 
Q 40.53125 48.484375 33.40625 48.484375 
Q 26.265625 48.484375 22.1875 42.84375 
Q 18.109375 37.203125 18.109375 27.296875 
Q 18.109375 17.390625 22.1875 11.75 
Q 26.265625 6.109375 33.40625 6.109375 
Q 40.53125 6.109375 44.609375 11.75 
Q 48.6875 17.390625 48.6875 27.296875 
z
" id="DejaVuSans-112"/>
      <path d="M 34.28125 27.484375 
Q 23.390625 27.484375 19.1875 25 
Q 14.984375 22.515625 14.984375 16.5 
Q 14.984375 11.71875 18.140625 8.90625 
Q 21.296875 6.109375 26.703125 6.109375 
Q 34.1875 6.109375 38.703125 11.40625 
Q 43.21875 16.703125 43.21875 25.484375 
L 43.21875 27.484375 
z
M 52.203125 31.203125 
L 52.203125 0 
L 43.21875 0 
L 43.21875 8.296875 
Q 40.140625 3.328125 35.546875 0.953125 
Q 30.953125 -1.421875 24.3125 -1.421875 
Q 15.921875 -1.421875 10.953125 3.296875 
Q 6 8.015625 6 15.921875 
Q 6 25.140625 12.171875 29.828125 
Q 18.359375 34.515625 30.609375 34.515625 
L 43.21875 34.515625 
L 43.21875 35.40625 
Q 43.21875 41.609375 39.140625 45 
Q 35.0625 48.390625 27.6875 48.390625 
Q 23 48.390625 18.546875 47.265625 
Q 14.109375 46.140625 10.015625 43.890625 
L 10.015625 52.203125 
Q 14.9375 54.109375 19.578125 55.046875 
Q 24.21875 56 28.609375 56 
Q 40.484375 56 46.34375 49.84375 
Q 52.203125 43.703125 52.203125 31.203125 
z
" id="DejaVuSans-97"/>
      <path d="M 32.171875 -5.078125 
Q 28.375 -14.84375 24.75 -17.8125 
Q 21.140625 -20.796875 15.09375 -20.796875 
L 7.90625 -20.796875 
L 7.90625 -13.28125 
L 13.1875 -13.28125 
Q 16.890625 -13.28125 18.9375 -11.515625 
Q 21 -9.765625 23.484375 -3.21875 
L 25.09375 0.875 
L 2.984375 54.6875 
L 12.5 54.6875 
L 29.59375 11.921875 
L 46.6875 54.6875 
L 56.203125 54.6875 
z
" id="DejaVuSans-121"/>
      <path d="M 9.421875 75.984375 
L 18.40625 75.984375 
L 18.40625 0 
L 9.421875 0 
z
" id="DejaVuSans-108"/>
      <path d="M 30.609375 48.390625 
Q 23.390625 48.390625 19.1875 42.75 
Q 14.984375 37.109375 14.984375 27.296875 
Q 14.984375 17.484375 19.15625 11.84375 
Q 23.34375 6.203125 30.609375 6.203125 
Q 37.796875 6.203125 41.984375 11.859375 
Q 46.1875 17.53125 46.1875 27.296875 
Q 46.1875 37.015625 41.984375 42.703125 
Q 37.796875 48.390625 30.609375 48.390625 
z
M 30.609375 56 
Q 42.328125 56 49.015625 48.375 
Q 55.71875 40.765625 55.71875 27.296875 
Q 55.71875 13.875 49.015625 6.21875 
Q 42.328125 -1.421875 30.609375 -1.421875 
Q 18.84375 -1.421875 12.171875 6.21875 
Q 5.515625 13.875 5.515625 27.296875 
Q 5.515625 40.765625 12.171875 48.375 
Q 18.84375 56 30.609375 56 
z
" id="DejaVuSans-111"/>
      <path d="M 45.40625 46.390625 
L 45.40625 75.984375 
L 54.390625 75.984375 
L 54.390625 0 
L 45.40625 0 
L 45.40625 8.203125 
Q 42.578125 3.328125 38.25 0.953125 
Q 33.9375 -1.421875 27.875 -1.421875 
Q 17.96875 -1.421875 11.734375 6.484375 
Q 5.515625 14.40625 5.515625 27.296875 
Q 5.515625 40.1875 11.734375 48.09375 
Q 17.96875 56 27.875 56 
Q 33.9375 56 38.25 53.625 
Q 42.578125 51.265625 45.40625 46.390625 
z
M 14.796875 27.296875 
Q 14.796875 17.390625 18.875 11.75 
Q 22.953125 6.109375 30.078125 6.109375 
Q 37.203125 6.109375 41.296875 11.75 
Q 45.40625 17.390625 45.40625 27.296875 
Q 45.40625 37.203125 41.296875 42.84375 
Q 37.203125 48.484375 30.078125 48.484375 
Q 22.953125 48.484375 18.875 42.84375 
Q 14.796875 37.203125 14.796875 27.296875 
z
" id="DejaVuSans-100"/>
      <path id="DejaVuSans-32"/>
      <path d="M 48.6875 27.296875 
Q 48.6875 37.203125 44.609375 42.84375 
Q 40.53125 48.484375 33.40625 48.484375 
Q 26.265625 48.484375 22.1875 42.84375 
Q 18.109375 37.203125 18.109375 27.296875 
Q 18.109375 17.390625 22.1875 11.75 
Q 26.265625 6.109375 33.40625 6.109375 
Q 40.53125 6.109375 44.609375 11.75 
Q 48.6875 17.390625 48.6875 27.296875 
z
M 18.109375 46.390625 
Q 20.953125 51.265625 25.265625 53.625 
Q 29.59375 56 35.59375 56 
Q 45.5625 56 51.78125 48.09375 
Q 58.015625 40.1875 58.015625 27.296875 
Q 58.015625 14.40625 51.78125 6.484375 
Q 45.5625 -1.421875 35.59375 -1.421875 
Q 29.59375 -1.421875 25.265625 0.953125 
Q 20.953125 3.328125 18.109375 8.203125 
L 18.109375 0 
L 9.078125 0 
L 9.078125 75.984375 
L 18.109375 75.984375 
z
" id="DejaVuSans-98"/>
      <path d="M 41.109375 46.296875 
Q 39.59375 47.171875 37.8125 47.578125 
Q 36.03125 48 33.890625 48 
Q 26.265625 48 22.1875 43.046875 
Q 18.109375 38.09375 18.109375 28.8125 
L 18.109375 0 
L 9.078125 0 
L 9.078125 54.6875 
L 18.109375 54.6875 
L 18.109375 46.1875 
Q 20.953125 51.171875 25.484375 53.578125 
Q 30.03125 56 36.53125 56 
Q 37.453125 56 38.578125 55.875 
Q 39.703125 55.765625 41.0625 55.515625 
z
" id="DejaVuSans-114"/>
      <path d="M 56.203125 29.59375 
L 56.203125 25.203125 
L 14.890625 25.203125 
Q 15.484375 15.921875 20.484375 11.0625 
Q 25.484375 6.203125 34.421875 6.203125 
Q 39.59375 6.203125 44.453125 7.46875 
Q 49.3125 8.734375 54.109375 11.28125 
L 54.109375 2.78125 
Q 49.265625 0.734375 44.1875 -0.34375 
Q 39.109375 -1.421875 33.890625 -1.421875 
Q 20.796875 -1.421875 13.15625 6.1875 
Q 5.515625 13.8125 5.515625 26.8125 
Q 5.515625 40.234375 12.765625 48.109375 
Q 20.015625 56 32.328125 56 
Q 43.359375 56 49.78125 48.890625 
Q 56.203125 41.796875 56.203125 29.59375 
z
M 47.21875 32.234375 
Q 47.125 39.59375 43.09375 43.984375 
Q 39.0625 48.390625 32.421875 48.390625 
Q 24.90625 48.390625 20.390625 44.140625 
Q 15.875 39.890625 15.1875 32.171875 
z
" id="DejaVuSans-101"/>
      <path d="M 18.3125 70.21875 
L 18.3125 54.6875 
L 36.8125 54.6875 
L 36.8125 47.703125 
L 18.3125 47.703125 
L 18.3125 18.015625 
Q 18.3125 11.328125 20.140625 9.421875 
Q 21.96875 7.515625 27.59375 7.515625 
L 36.8125 7.515625 
L 36.8125 0 
L 27.59375 0 
Q 17.1875 0 13.234375 3.875 
Q 9.28125 7.765625 9.28125 18.015625 
L 9.28125 47.703125 
L 2.6875 47.703125 
L 2.6875 54.6875 
L 9.28125 54.6875 
L 9.28125 70.21875 
z
" id="DejaVuSans-116"/>
      <path d="M 54.890625 33.015625 
L 54.890625 0 
L 45.90625 0 
L 45.90625 32.71875 
Q 45.90625 40.484375 42.875 44.328125 
Q 39.84375 48.1875 33.796875 48.1875 
Q 26.515625 48.1875 22.3125 43.546875 
Q 18.109375 38.921875 18.109375 30.90625 
L 18.109375 0 
L 9.078125 0 
L 9.078125 75.984375 
L 18.109375 75.984375 
L 18.109375 46.1875 
Q 21.34375 51.125 25.703125 53.5625 
Q 30.078125 56 35.796875 56 
Q 45.21875 56 50.046875 50.171875 
Q 54.890625 44.34375 54.890625 33.015625 
z
" id="DejaVuSans-104"/>
     </defs>
     <g transform="translate(241.454687 702.776563)scale(0.1 -0.1)">
      <use xlink:href="#DejaVuSans-112"/>
      <use x="63.476562" xlink:href="#DejaVuSans-97"/>
      <use x="124.755859" xlink:href="#DejaVuSans-121"/>
      <use x="183.935547" xlink:href="#DejaVuSans-108"/>
      <use x="211.71875" xlink:href="#DejaVuSans-111"/>
      <use x="272.900391" xlink:href="#DejaVuSans-97"/>
      <use x="334.179688" xlink:href="#DejaVuSans-100"/>
      <use x="397.65625" xlink:href="#DejaVuSans-32"/>
      <use x="429.443359" xlink:href="#DejaVuSans-98"/>
      <use x="492.919922" xlink:href="#DejaVuSans-114"/>
      <use x="534.001953" xlink:href="#DejaVuSans-101"/>
      <use x="595.525391" xlink:href="#DejaVuSans-97"/>
      <use x="656.804688" xlink:href="#DejaVuSans-100"/>
      <use x="720.28125" xlink:href="#DejaVuSans-116"/>
      <use x="759.490234" xlink:href="#DejaVuSans-104"/>
     </g>
    </g>
   </g>
   <g id="matplotlib.axis_2">
    <g id="ytick_1">
     <g id="line2d_7">
      <defs>
       <path d="M 0 0 
L -3.5 0 
" id="m4b56ccfb2b" style="stroke:#000000;stroke-width:0.8;"/>
      </defs>
      <g>
       <use style="stroke:#000000;stroke-width:0.8;" x="72" xlink:href="#m4b56ccfb2b" y="648"/>
      </g>
     </g>
     <g id="text_8">
      <!-- 1 -->
      <g transform="translate(32.1375 651.799219)scale(0.1 -0.1)">
       <use xlink:href="#DejaVuSans-49"/>
      </g>
     </g>
    </g>
    <g id="ytick_2">
     <g id="line2d_8">
      <g>
       <use style="stroke:#000000;stroke-width:0.8;" x="72" xlink:href="#m4b56ccfb2b" y="532.8"/>
      </g>
     </g>
     <g id="text_9">
      <!-- 2 -->
      <g transform="translate(32.1375 536.599219)scale(0.1 -0.1)">
       <use xlink:href="#DejaVuSans-50"/>
      </g>
     </g>
    </g>
    <g id="ytick_3">
     <g id="line2d_9">
      <g>
       <use style="stroke:#000000;stroke-width:0.8;" x="72" xlink:href="#m4b56ccfb2b" y="417.6"/>
      </g>
     </g>
     <g id="text_10">
      <!-- 3 -->
      <g transform="translate(32.1375 421.399219)scale(0.1 -0.1)">
       <use xlink:href="#DejaVuSans-51"/>
      </g>
     </g>
    </g>
    <g id="ytick_4">
     <g id="line2d_10">
      <g>
       <use style="stroke:#000000;stroke-width:0.8;" x="72" xlink:href="#m4b56ccfb2b" y="302.4"/>
      </g>
     </g>
     <g id="text_11">
      <!-- 4 -->
      <g transform="translate(32.1375 306.199219)scale(0.1 -0.1)">
       <use xlink:href="#DejaVuSans-52"/>
      </g>
     </g>
    </g>
    <g id="ytick_5">
     <g id="line2d_11">
      <g>
       <use style="stroke:#000000;stroke-width:0.8;" x="72" xlink:href="#m4b56ccfb2b" y="187.2"/>
      </g>
     </g>
     <g id="text_12">
      <!-- 5 -->
      <g transform="translate(32.1375 190.999219)scale(0.1 -0.1)">
       <use xlink:href="#DejaVuSans-53"/>
      </g>
     </g>
    </g>
    <g id="ytick_6">
     <g id="line2d_12">
      <g>
       <use style="stroke:#000000;stroke-width:0.8;" x="72" xlink:href="#m4b56ccfb2b" y="72"/>
      </g>
     </g>
     <g id="text_13">
      <!-- 6 -->
      <g transform="translate(32.1375 75.799219)scale(0.1 -0.1)">
       <use xlink:href="#DejaVuSans-54"/>
      </g>
     </g>
    </g>
    <g id="text_14">
     <!-- payload depth -->
     <g transform="translate(26.057813 396.027344)rotate(-90)scale(0.1 -0.1)">
      <use xlink:href="#DejaVuSans-112"/>
      <use x="63.476562" xlink:href="#DejaVuSans-97"/>
      <use x="124.755859" xlink:href="#DejaVuSans-121"/>
      <use x="183.935547" xlink:href="#DejaVuSans-108"/>
      <use x="211.71875" xlink:href="#DejaVuSans-111"/>
      <use x="272.900391" xlink:href="#DejaVuSans-97"/>
      <use x="334.179688" xlink:href="#DejaVuSans-100"/>
      <use x="397.65625" xlink:href="#DejaVuSans-32"/>
      <use x="429.443359" xlink:href="#DejaVuSans-100"/>
      <use x="492.919922" xlink:href="#DejaVuSans-101"/>
      <use x="554.443359" xlink:href="#DejaVuSans-112"/>
      <use x="617.919922" xlink:href="#DejaVuSans-116"/>
      <use x="657.128906" xlink:href="#DejaVuSans-104"/>
     </g>
    </g>
   </g>
   <g id="patch_3">
    <path d="M 72 648 
L 72 72 
" style="fill:none;stroke:#000000;stroke-linecap:square;stroke-linejoin:miter;stroke-width:0.8;"/>
   </g>
   <g id="patch_4">
    <path d="M 493.2 648 
L 493.2 72 
" style="fill:none;stroke:#000000;stroke-linecap:square;stroke-linejoin:miter;stroke-width:0.8;"/>
   </g>
   <g id="patch_5">
    <path d="M 72 648 
L 493.2 648 
" style="fill:none;stroke:#000000;stroke-linecap:square;stroke-linejoin:miter;stroke-width:0.8;"/>
   </g>
   <g id="patch_6">
    <path d="M 72 72 
L 493.2 72 
" style="fill:none;stroke:#000000;stroke-linecap:square;stroke-linejoin:miter;stroke-width:0.8;"/>
   </g>
   <g id="text_15">
    <!-- pixel3-chrome -->
    <defs>
     <path d="M 9.421875 54.6875 
L 18.40625 54.6875 
L 18.40625 0 
L 9.421875 0 
z
M 9.421875 75.984375 
L 18.40625 75.984375 
L 18.40625 64.59375 
L 9.421875 64.59375 
z
" id="DejaVuSans-105"/>
     <path d="M 54.890625 54.6875 
L 35.109375 28.078125 
L 55.90625 0 
L 45.3125 0 
L 29.390625 21.484375 
L 13.484375 0 
L 2.875 0 
L 24.125 28.609375 
L 4.6875 54.6875 
L 15.28125 54.6875 
L 29.78125 35.203125 
L 44.28125 54.6875 
z
" id="DejaVuSans-120"/>
     <path d="M 4.890625 31.390625 
L 31.203125 31.390625 
L 31.203125 23.390625 
L 4.890625 23.390625 
z
" id="DejaVuSans-45"/>
     <path d="M 48.78125 52.59375 
L 48.78125 44.1875 
Q 44.96875 46.296875 41.140625 47.34375 
Q 37.3125 48.390625 33.40625 48.390625 
Q 24.65625 48.390625 19.8125 42.84375 
Q 14.984375 37.3125 14.984375 27.296875 
Q 14.984375 17.28125 19.8125 11.734375 
Q 24.65625 6.203125 33.40625 6.203125 
Q 37.3125 6.203125 41.140625 7.25 
Q 44.96875 8.296875 48.78125 10.40625 
L 48.78125 2.09375 
Q 45.015625 0.34375 40.984375 -0.53125 
Q 36.96875 -1.421875 32.421875 -1.421875 
Q 20.0625 -1.421875 12.78125 6.34375 
Q 5.515625 14.109375 5.515625 27.296875 
Q 5.515625 40.671875 12.859375 48.328125 
Q 20.21875 56 33.015625 56 
Q 37.15625 56 41.109375 55.140625 
Q 45.0625 54.296875 48.78125 52.59375 
z
" id="DejaVuSans-99"/>
     <path d="M 52 44.1875 
Q 55.375 50.25 60.0625 53.125 
Q 64.75 56 71.09375 56 
Q 79.640625 56 84.28125 50.015625 
Q 88.921875 44.046875 88.921875 33.015625 
L 88.921875 0 
L 79.890625 0 
L 79.890625 32.71875 
Q 79.890625 40.578125 77.09375 44.375 
Q 74.3125 48.1875 68.609375 48.1875 
Q 61.625 48.1875 57.5625 43.546875 
Q 53.515625 38.921875 53.515625 30.90625 
L 53.515625 0 
L 44.484375 0 
L 44.484375 32.71875 
Q 44.484375 40.625 41.703125 44.40625 
Q 38.921875 48.1875 33.109375 48.1875 
Q 26.21875 48.1875 22.15625 43.53125 
Q 18.109375 38.875 18.109375 30.90625 
L 18.109375 0 
L 9.078125 0 
L 9.078125 54.6875 
L 18.109375 54.6875 
L 18.109375 46.1875 
Q 21.1875 51.21875 25.484375 53.609375 
Q 29.78125 56 35.6875 56 
Q 41.65625 56 45.828125 52.96875 
Q 50 49.953125 52 44.1875 
z
" id="DejaVuSans-109"/>
    </defs>
    <g transform="translate(239.460937 22)scale(0.12 -0.12)">
     <use xlink:href="#DejaVuSans-112"/>
     <use x="63.476562" xlink:href="#DejaVuSans-105"/>
     <use x="91.259766" xlink:href="#DejaVuSans-120"/>
     <use x="150.392578" xlink:href="#DejaVuSans-101"/>
     <use x="211.916016" xlink:href="#DejaVuSans-108"/>
     <use x="239.699219" xlink:href="#DejaVuSans-51"/>
     <use x="303.322266" xlink:href="#DejaVuSans-45"/>
     <use x="339.40625" xlink:href="#DejaVuSans-99"/>
     <use x="394.386719" xlink:href="#DejaVuSans-104"/>
     <use x="457.765625" xlink:href="#DejaVuSans-114"/>
     <use x="498.847656" xlink:href="#DejaVuSans-111"/>
     <use x="560.029297" xlink:href="#DejaVuSans-109"/>
     <use x="657.441406" xlink:href="#DejaVuSans-101"/>
    </g>
   </g>
   <g id="PathCollection_7">
    <path d="M 72 658.352649 
C 74.745555 658.352649 77.379028 657.261829 79.320428 655.320428 
C 81.261829 653.379028 82.352649 650.745555 82.352649 648 
C 82.352649 645.254445 81.261829 642.620972 79.320428 640.679572 
C 77.379028 638.738171 74.745555 637.647351 72 637.647351 
C 69.254445 637.647351 66.620972 638.738171 64.679572 640.679572 
C 62.738171 642.620972 61.647351 645.254445 61.647351 648 
C 61.647351 650.745555 62.738171 653.379028 64.679572 655.320428 
C 66.620972 657.261829 69.254445 658.352649 72 658.352649 
z
" style="fill:#fff2ec;fill-opacity:0.8;stroke:#fff2ec;stroke-opacity:0.8;"/>
    <path d="M 72 543.152649 
C 74.745555 543.152649 77.379028 542.061829 79.320428 540.120428 
C 81.261829 538.179028 82.352649 535.545555 82.352649 532.8 
C 82.352649 530.054445 81.261829 527.420972 79.320428 525.479572 
C 77.379028 523.538171 74.745555 522.447351 72 522.447351 
C 69.254445 522.447351 66.620972 523.538171 64.679572 525.479572 
C 62.738171 527.420972 61.647351 530.054445 61.647351 532.8 
C 61.647351 535.545555 62.738171 538.179028 64.679572 540.120428 
C 66.620972 542.061829 69.254445 543.152649 72 543.152649 
z
" style="fill:#fff2ec;fill-opacity:0.8;stroke:#fff2ec;stroke-opacity:0.8;"/>
    <path d="M 72 427.952649 
C 74.745555 427.952649 77.379028 426.861829 79.320428 424.920428 
C 81.261829 422.979028 82.352649 420.345555 82.352649 417.6 
C 82.352649 414.854445 81.261829 412.220972 79.320428 410.279572 
C 77.379028 408.338171 74.745555 407.247351 72 407.247351 
C 69.254445 407.247351 66.620972 408.338171 64.679572 410.279572 
C 62.738171 412.220972 61.647351 414.854445 61.647351 417.6 
C 61.647351 420.345555 62.738171 422.979028 64.679572 424.920428 
C 66.620972 426.861829 69.254445 427.952649 72 427.952649 
z
" style="fill:#fff2ec;fill-opacity:0.8;stroke:#fff2ec;stroke-opacity:0.8;"/>
    <path d="M 72 312.752649 
C 74.745555 312.752649 77.379028 311.661829 79.320428 309.720428 
C 81.261829 307.779028 82.352649 305.145555 82.352649 302.4 
C 82.352649 299.654445 81.261829 297.020972 79.320428 295.079572 
C 77.379028 293.138171 74.745555 292.047351 72 292.047351 
C 69.254445 292.047351 66.620972 293.138171 64.679572 295.079572 
C 62.738171 297.020972 61.647351 299.654445 61.647351 302.4 
C 61.647351 305.145555 62.738171 307.779028 64.679572 309.720428 
C 66.620972 311.661829 69.254445 312.752649 72 312.752649 
z
" style="fill:#fff2ec;fill-opacity:0.8;stroke:#fff2ec;stroke-opacity:0.8;"/>
    <path d="M 72 197.552649 
C 74.745555 197.552649 77.379028 196.461829 79.320428 194.520428 
C 81.261829 192.579028 82.352649 189.945555 82.352649 187.2 
C 82.352649 184.454445 81.261829 181.820972 79.320428 179.879572 
C 77.379028 177.938171 74.745555 176.847351 72 176.847351 
C 69.254445 176.847351 66.620972 177.938171 64.679572 179.879572 
C 62.738171 181.820972 61.647351 184.454445 61.647351 187.2 
C 61.647351 189.945555 62.738171 192.579028 64.679572 194.520428 
C 66.620972 196.461829 69.254445 197.552649 72 197.552649 
z
" style="fill:#fff2ec;fill-opacity:0.8;stroke:#fff2ec;stroke-opacity:0.8;"/>
    <path d="M 72 82.352649 
C 74.745555 82.352649 77.379028 81.261829 79.320428 79.320428 
C 81.261829 77.379028 82.352649 74.745555 82.352649 72 
C 82.352649 69.254445 81.261829 66.620972 79.320428 64.679572 
C 77.379028 62.738171 74.745555 61.647351 72 61.647351 
C 69.254445 61.647351 66.620972 62.738171 64.679572 64.679572 
C 62.738171 66.620972 61.647351 69.254445 61.647351 72 
C 61.647351 74.745555 62.738171 77.379028 64.679572 79.320428 
C 66.620972 81.261829 69.254445 82.352649 72 82.352649 
z
" style="fill:#fff2ec;fill-opacity:0.8;stroke:#fff2ec;stroke-opacity:0.8;"/>
    <path d="M 156.24 658.352649 
C 158.985555 658.352649 161.619028 657.261829 163.560428 655.320428 
C 165.501829 653.379028 166.592649 650.745555 166.592649 648 
C 166.592649 645.254445 165.501829 642.620972 163.560428 640.679572 
C 161.619028 638.738171 158.985555 637.647351 156.24 637.647351 
C 153.494445 637.647351 150.860972 638.738171 148.919572 640.679572 
C 146.978171 642.620972 145.887351 645.254445 145.887351 648 
C 145.887351 650.745555 146.978171 653.379028 148.919572 655.320428 
C 150.860972 657.261829 153.494445 658.352649 156.24 658.352649 
z
" style="fill:#fff2ec;fill-opacity:0.8;stroke:#fff2ec;stroke-opacity:0.8;"/>
    <path d="M 156.24 543.152649 
C 158.985555 543.152649 161.619028 542.061829 163.560428 540.120428 
C 165.501829 538.179028 166.592649 535.545555 166.592649 532.8 
C 166.592649 530.054445 165.501829 527.420972 163.560428 525.479572 
C 161.619028 523.538171 158.985555 522.447351 156.24 522.447351 
C 153.494445 522.447351 150.860972 523.538171 148.919572 525.479572 
C 146.978171 527.420972 145.887351 530.054445 145.887351 532.8 
C 145.887351 535.545555 146.978171 538.179028 148.919572 540.120428 
C 150.860972 542.061829 153.494445 543.152649 156.24 543.152649 
z
" style="fill:#fff2ec;fill-opacity:0.8;stroke:#fff2ec;stroke-opacity:0.8;"/>
    <path d="M 156.24 427.952649 
C 158.985555 427.952649 161.619028 426.861829 163.560428 424.920428 
C 165.501829 422.979028 166.592649 420.345555 166.592649 417.6 
C 166.592649 414.854445 165.501829 412.220972 163.560428 410.279572 
C 161.619028 408.338171 158.985555 407.247351 156.24 407.247351 
C 153.494445 407.247351 150.860972 408.338171 148.919572 410.279572 
C 146.978171 412.220972 145.887351 414.854445 145.887351 417.6 
C 145.887351 420.345555 146.978171 422.979028 148.919572 424.920428 
C 150.860972 426.861829 153.494445 427.952649 156.24 427.952649 
z
" style="fill:#fff2ec;fill-opacity:0.8;stroke:#fff2ec;stroke-opacity:0.8;"/>
    <path d="M 156.24 312.752649 
C 158.985555 312.752649 161.619028 311.661829 163.560428 309.720428 
C 165.501829 307.779028 166.592649 305.145555 166.592649 302.4 
C 166.592649 299.654445 165.501829 297.020972 163.560428 295.079572 
C 161.619028 293.138171 158.985555 292.047351 156.24 292.047351 
C 153.494445 292.047351 150.860972 293.138171 148.919572 295.079572 
C 146.978171 297.020972 145.887351 299.654445 145.887351 302.4 
C 145.887351 305.145555 146.978171 307.779028 148.919572 309.720428 
C 150.860972 311.661829 153.494445 312.752649 156.24 312.752649 
z
" style="fill:#fff2ec;fill-opacity:0.8;stroke:#fff2ec;stroke-opacity:0.8;"/>
    <path d="M 156.24 197.552649 
C 158.985555 197.552649 161.619028 196.461829 163.560428 194.520428 
C 165.501829 192.579028 166.592649 189.945555 166.592649 187.2 
C 166.592649 184.454445 165.501829 181.820972 163.560428 179.879572 
C 161.619028 177.938171 158.985555 176.847351 156.24 176.847351 
C 153.494445 176.847351 150.860972 177.938171 148.919572 179.879572 
C 146.978171 181.820972 145.887351 184.454445 145.887351 187.2 
C 145.887351 189.945555 146.978171 192.579028 148.919572 194.520428 
C 150.860972 196.461829 153.494445 197.552649 156.24 197.552649 
z
" style="fill:#fff2ec;fill-opacity:0.8;stroke:#fff2ec;stroke-opacity:0.8;"/>
    <path d="M 156.24 91.999998 
C 161.544062 91.999998 166.631597 89.892672 170.382134 86.142134 
C 174.132672 82.391597 176.239998 77.304062 176.239998 72 
C 176.239998 66.695938 174.132672 61.608403 170.382134 57.857866 
C 166.631597 54.107328 161.544062 52.000002 156.24 52.000002 
C 150.935938 52.000002 145.848403 54.107328 142.097866 57.857866 
C 138.347328 61.608403 136.240002 66.695938 136.240002 72 
C 136.240002 77.304062 138.347328 82.391597 142.097866 86.142134 
C 145.848403 89.892672 150.935938 91.999998 156.24 91.999998 
z
" style="fill:#fc9879;fill-opacity:0.8;stroke:#fc9879;stroke-opacity:0.8;"/>
    <path d="M 240.48 658.352649 
C 243.225555 658.352649 245.859028 657.261829 247.800428 655.320428 
C 249.741829 653.379028 250.832649 650.745555 250.832649 648 
C 250.832649 645.254445 249.741829 642.620972 247.800428 640.679572 
C 245.859028 638.738171 243.225555 637.647351 240.48 637.647351 
C 237.734445 637.647351 235.100972 638.738171 233.159572 640.679572 
C 231.218171 642.620972 230.127351 645.254445 230.127351 648 
C 230.127351 650.745555 231.218171 653.379028 233.159572 655.320428 
C 235.100972 657.261829 237.734445 658.352649 240.48 658.352649 
z
" style="fill:#fff2ec;fill-opacity:0.8;stroke:#fff2ec;stroke-opacity:0.8;"/>
    <path d="M 240.48 543.152649 
C 243.225555 543.152649 245.859028 542.061829 247.800428 540.120428 
C 249.741829 538.179028 250.832649 535.545555 250.832649 532.8 
C 250.832649 530.054445 249.741829 527.420972 247.800428 525.479572 
C 245.859028 523.538171 243.225555 522.447351 240.48 522.447351 
C 237.734445 522.447351 235.100972 523.538171 233.159572 525.479572 
C 231.218171 527.420972 230.127351 530.054445 230.127351 532.8 
C 230.127351 535.545555 231.218171 538.179028 233.159572 540.120428 
C 235.100972 542.061829 237.734445 543.152649 240.48 543.152649 
z
" style="fill:#fff2ec;fill-opacity:0.8;stroke:#fff2ec;stroke-opacity:0.8;"/>
    <path d="M 240.48 427.952649 
C 243.225555 427.952649 245.859028 426.861829 247.800428 424.920428 
C 249.741829 422.979028 250.832649 420.345555 250.832649 417.6 
C 250.832649 414.854445 249.741829 412.220972 247.800428 410.279572 
C 245.859028 408.338171 243.225555 407.247351 240.48 407.247351 
C 237.734445 407.247351 235.100972 408.338171 233.159572 410.279572 
C 231.218171 412.220972 230.127351 414.854445 230.127351 417.6 
C 230.127351 420.345555 231.218171 422.979028 233.159572 424.920428 
C 235.100972 426.861829 237.734445 427.952649 240.48 427.952649 
z
" style="fill:#fff2ec;fill-opacity:0.8;stroke:#fff2ec;stroke-opacity:0.8;"/>
    <path d="M 240.48 322.399998 
C 245.784062 322.399998 250.871597 320.292672 254.622134 316.542134 
C 258.372672 312.791597 260.479998 307.704062 260.479998 302.4 
C 260.479998 297.095938 258.372672 292.008403 254.622134 288.257866 
C 250.871597 284.507328 245.784062 282.400002 240.48 282.400002 
C 235.175938 282.400002 230.088403 284.507328 226.337866 288.257866 
C 222.587328 292.008403 220.480002 297.095938 220.480002 302.4 
C 220.480002 307.704062 222.587328 312.791597 226.337866 316.542134 
C 230.088403 320.292672 235.175938 322.399998 240.48 322.399998 
z
" style="fill:#fc9879;fill-opacity:0.8;stroke:#fc9879;stroke-opacity:0.8;"/>
    <path d="M 240.48 207.200002 
C 245.784063 207.200002 250.871598 205.092676 254.622137 201.342137 
C 258.372676 197.591598 260.480002 192.504063 260.480002 187.2 
C 260.480002 181.895937 258.372676 176.808402 254.622137 173.057863 
C 250.871598 169.307324 245.784063 167.199998 240.48 167.199998 
C 235.175937 167.199998 230.088402 169.307324 226.337863 173.057863 
C 222.587324 176.808402 220.479998 181.895937 220.479998 187.2 
C 220.479998 192.504063 222.587324 197.591598 226.337863 201.342137 
C 230.088402 205.092676 235.175937 207.200002 240.48 207.200002 
z
" style="fill:#fc9879;fill-opacity:0.8;stroke:#fc9879;stroke-opacity:0.8;"/>
    <path d="M 240.48 96.640473 
C 247.01473 96.640473 253.282694 94.044197 257.903445 89.423445 
C 262.524197 84.802694 265.120473 78.53473 265.120473 72 
C 265.120473 65.46527 262.524197 59.197306 257.903445 54.576555 
C 253.282694 49.955803 247.01473 47.359527 240.48 47.359527 
C 233.94527 47.359527 227.677306 49.955803 223.056555 54.576555 
C 218.435803 59.197306 215.839527 65.46527 215.839527 72 
C 215.839527 78.53473 218.435803 84.802694 223.056555 89.423445 
C 227.677306 94.044197 233.94527 96.640473 240.48 96.640473 
z
" style="fill:#fb7656;fill-opacity:0.8;stroke:#fb7656;stroke-opacity:0.8;"/>
    <path d="M 324.72 658.352649 
C 327.465555 658.352649 330.099028 657.261829 332.040428 655.320428 
C 333.981829 653.379028 335.072649 650.745555 335.072649 648 
C 335.072649 645.254445 333.981829 642.620972 332.040428 640.679572 
C 330.099028 638.738171 327.465555 637.647351 324.72 637.647351 
C 321.974445 637.647351 319.340972 638.738171 317.399572 640.679572 
C 315.458171 642.620972 314.367351 645.254445 314.367351 648 
C 314.367351 650.745555 315.458171 653.379028 317.399572 655.320428 
C 319.340972 657.261829 321.974445 658.352649 324.72 658.352649 
z
" style="fill:#fff2ec;fill-opacity:0.8;stroke:#fff2ec;stroke-opacity:0.8;"/>
    <path d="M 324.72 543.152649 
C 327.465555 543.152649 330.099028 542.061829 332.040428 540.120428 
C 333.981829 538.179028 335.072649 535.545555 335.072649 532.8 
C 335.072649 530.054445 333.981829 527.420972 332.040428 525.479572 
C 330.099028 523.538171 327.465555 522.447351 324.72 522.447351 
C 321.974445 522.447351 319.340972 523.538171 317.399572 525.479572 
C 315.458171 527.420972 314.367351 530.054445 314.367351 532.8 
C 314.367351 535.545555 315.458171 538.179028 317.399572 540.120428 
C 319.340972 542.061829 321.974445 543.152649 324.72 543.152649 
z
" style="fill:#fff2ec;fill-opacity:0.8;stroke:#fff2ec;stroke-opacity:0.8;"/>
    <path d="M 324.72 427.952649 
C 327.465555 427.952649 330.099028 426.861829 332.040428 424.920428 
C 333.981829 422.979028 335.072649 420.345555 335.072649 417.6 
C 335.072649 414.854445 333.981829 412.220972 332.040428 410.279572 
C 330.099028 408.338171 327.465555 407.247351 324.72 407.247351 
C 321.974445 407.247351 319.340972 408.338171 317.399572 410.279572 
C 315.458171 412.220972 314.367351 414.854445 314.367351 417.6 
C 314.367351 420.345555 315.458171 422.979028 317.399572 424.920428 
C 319.340972 426.861829 321.974445 427.952649 324.72 427.952649 
z
" style="fill:#fff2ec;fill-opacity:0.8;stroke:#fff2ec;stroke-opacity:0.8;"/>
    <path d="M 324.72 322.399998 
C 330.024062 322.399998 335.111597 320.292672 338.862134 316.542134 
C 342.612672 312.791597 344.719998 307.704062 344.719998 302.4 
C 344.719998 297.095938 342.612672 292.008403 338.862134 288.257866 
C 335.111597 284.507328 330.024062 282.400002 324.72 282.400002 
C 319.415938 282.400002 314.328403 284.507328 310.577866 288.257866 
C 306.827328 292.008403 304.720002 297.095938 304.720002 302.4 
C 304.720002 307.704062 306.827328 312.791597 310.577866 316.542134 
C 314.328403 320.292672 319.415938 322.399998 324.72 322.399998 
z
" style="fill:#fc9879;fill-opacity:0.8;stroke:#fc9879;stroke-opacity:0.8;"/>
    <path d="M 324.72 211.840474 
C 331.25473 211.840474 337.522694 209.244198 342.143446 204.623446 
C 346.764198 200.002694 349.360474 193.73473 349.360474 187.2 
C 349.360474 180.66527 346.764198 174.397306 342.143446 169.776554 
C 337.522694 165.155802 331.25473 162.559526 324.72 162.559526 
C 318.18527 162.559526 311.917306 165.155802 307.296554 169.776554 
C 302.675802 174.397306 300.079526 180.66527 300.079526 187.2 
C 300.079526 193.73473 302.675802 200.002694 307.296554 204.623446 
C 311.917306 209.244198 318.18527 211.840474 324.72 211.840474 
z
" style="fill:#fb7656;fill-opacity:0.8;stroke:#fb7656;stroke-opacity:0.8;"/>
    <path d="M 324.72 102.06418 
C 332.693114 102.06418 340.340743 98.896429 345.978586 93.258586 
C 351.616429 87.620743 354.78418 79.973114 354.78418 72 
C 354.78418 64.026886 351.616429 56.379257 345.978586 50.741414 
C 340.340743 45.103571 332.693114 41.93582 324.72 41.93582 
C 316.746886 41.93582 309.099257 45.103571 303.461414 50.741414 
C 297.823571 56.379257 294.65582 64.026886 294.65582 72 
C 294.65582 79.973114 297.823571 87.620743 303.461414 93.258586 
C 309.099257 98.896429 316.746886 102.06418 324.72 102.06418 
z
" style="fill:#f5523a;fill-opacity:0.8;stroke:#f5523a;stroke-opacity:0.8;"/>
    <path d="M 408.96 658.352649 
C 411.705555 658.352649 414.339028 657.261829 416.280428 655.320428 
C 418.221829 653.379028 419.312649 650.745555 419.312649 648 
C 419.312649 645.254445 418.221829 642.620972 416.280428 640.679572 
C 414.339028 638.738171 411.705555 637.647351 408.96 637.647351 
C 406.214445 637.647351 403.580972 638.738171 401.639572 640.679572 
C 399.698171 642.620972 398.607351 645.254445 398.607351 648 
C 398.607351 650.745555 399.698171 653.379028 401.639572 655.320428 
C 403.580972 657.261829 406.214445 658.352649 408.96 658.352649 
z
" style="fill:#fff2ec;fill-opacity:0.8;stroke:#fff2ec;stroke-opacity:0.8;"/>
    <path d="M 408.96 543.152649 
C 411.705555 543.152649 414.339028 542.061829 416.280428 540.120428 
C 418.221829 538.179028 419.312649 535.545555 419.312649 532.8 
C 419.312649 530.054445 418.221829 527.420972 416.280428 525.479572 
C 414.339028 523.538171 411.705555 522.447351 408.96 522.447351 
C 406.214445 522.447351 403.580972 523.538171 401.639572 525.479572 
C 399.698171 527.420972 398.607351 530.054445 398.607351 532.8 
C 398.607351 535.545555 399.698171 538.179028 401.639572 540.120428 
C 403.580972 542.061829 406.214445 543.152649 408.96 543.152649 
z
" style="fill:#fff2ec;fill-opacity:0.8;stroke:#fff2ec;stroke-opacity:0.8;"/>
    <path d="M 408.96 437.599998 
C 414.264062 437.599998 419.351597 435.492672 423.102134 431.742134 
C 426.852672 427.991597 428.959998 422.904062 428.959998 417.6 
C 428.959998 412.295938 426.852672 407.208403 423.102134 403.457866 
C 419.351597 399.707328 414.264062 397.600002 408.96 397.600002 
C 403.655938 397.600002 398.568403 399.707328 394.817866 403.457866 
C 391.067328 407.208403 388.960002 412.295938 388.960002 417.6 
C 388.960002 422.904062 391.067328 427.991597 394.817866 431.742134 
C 398.568403 435.492672 403.655938 437.599998 408.96 437.599998 
z
" style="fill:#fc9879;fill-opacity:0.8;stroke:#fc9879;stroke-opacity:0.8;"/>
    <path d="M 408.96 324.599313 
C 414.847327 324.599313 420.494316 322.260253 424.657285 318.097285 
C 428.820253 313.934316 431.159313 308.287327 431.159313 302.4 
C 431.159313 296.512673 428.820253 290.865684 424.657285 286.702715 
C 420.494316 282.539747 414.847327 280.200687 408.96 280.200687 
C 403.072673 280.200687 397.425684 282.539747 393.262715 286.702715 
C 389.099747 290.865684 386.760687 296.512673 386.760687 302.4 
C 386.760687 308.287327 389.099747 313.934316 393.262715 318.097285 
C 397.425684 322.260253 403.072673 324.599313 408.96 324.599313 
z
" style="fill:#fc8767;fill-opacity:0.8;stroke:#fc8767;stroke-opacity:0.8;"/>
    <path d="M 408.96 215.484271 
C 416.461076 215.484271 423.655938 212.504062 428.96 207.2 
C 434.264062 201.895938 437.244271 194.701076 437.244271 187.2 
C 437.244271 179.698924 434.264062 172.504062 428.96 167.2 
C 423.655938 161.895938 416.461076 158.915729 408.96 158.915729 
C 401.458924 158.915729 394.264062 161.895938 388.96 167.2 
C 383.655938 172.504062 380.675729 179.698924 380.675729 187.2 
C 380.675729 194.701076 383.655938 201.895938 388.96 207.2 
C 394.264062 212.504062 401.458924 215.484271 408.96 215.484271 
z
" style="fill:#f85d42;fill-opacity:0.8;stroke:#f85d42;stroke-opacity:0.8;"/>
    <path d="M 408.96 108.457026 
C 418.628516 108.457026 427.902337 104.615684 434.73901 97.77901 
C 441.575684 90.942337 445.417026 81.668516 445.417026 72 
C 445.417026 62.331484 441.575684 53.057663 434.73901 46.22099 
C 427.902337 39.384316 418.628516 35.542974 408.96 35.542974 
C 399.291484 35.542974 390.017663 39.384316 383.18099 46.22099 
C 376.344316 53.057663 372.502974 62.331484 372.502974 72 
C 372.502974 81.668516 376.344316 90.942337 383.18099 97.77901 
C 390.017663 104.615684 399.291484 108.457026 408.96 108.457026 
z
" style="fill:#e32f27;fill-opacity:0.8;stroke:#e32f27;stroke-opacity:0.8;"/>
    <path d="M 493.2 658.352649 
C 495.945555 658.352649 498.579028 657.261829 500.520428 655.320428 
C 502.461829 653.379028 503.552649 650.745555 503.552649 648 
C 503.552649 645.254445 502.461829 642.620972 500.520428 640.679572 
C 498.579028 638.738171 495.945555 637.647351 493.2 637.647351 
C 490.454445 637.647351 487.820972 638.738171 485.879572 640.679572 
C 483.938171 642.620972 482.847351 645.254445 482.847351 648 
C 482.847351 650.745555 483.938171 653.379028 485.879572 655.320428 
C 487.820972 657.261829 490.454445 658.352649 493.2 658.352649 
z
" style="fill:#fff2ec;fill-opacity:0.8;stroke:#fff2ec;stroke-opacity:0.8;"/>
    <path d="M 493.2 543.152649 
C 495.945555 543.152649 498.579028 542.061829 500.520428 540.120428 
C 502.461829 538.179028 503.552649 535.545555 503.552649 532.8 
C 503.552649 530.054445 502.461829 527.420972 500.520428 525.479572 
C 498.579028 523.538171 495.945555 522.447351 493.2 522.447351 
C 490.454445 522.447351 487.820972 523.538171 485.879572 525.479572 
C 483.938171 527.420972 482.847351 530.054445 482.847351 532.8 
C 482.847351 535.545555 483.938171 538.179028 485.879572 540.120428 
C 487.820972 542.061829 490.454445 543.152649 493.2 543.152649 
z
" style="fill:#fff2ec;fill-opacity:0.8;stroke:#fff2ec;stroke-opacity:0.8;"/>
    <path d="M 493.2 437.599998 
C 498.504062 437.599998 503.591597 435.492672 507.342134 431.742134 
C 511.092672 427.991597 513.199998 422.904062 513.199998 417.6 
C 513.199998 412.295938 511.092672 407.208403 507.342134 403.457866 
C 503.591597 399.707328 498.504062 397.600002 493.2 397.600002 
C 487.895938 397.600002 482.808403 399.707328 479.057866 403.457866 
C 475.307328 407.208403 473.200002 412.295938 473.200002 417.6 
C 473.200002 422.904062 475.307328 427.991597 479.057866 431.742134 
C 482.808403 435.492672 487.895938 437.599998 493.2 437.599998 
z
" style="fill:#fc9879;fill-opacity:0.8;stroke:#fc9879;stroke-opacity:0.8;"/>
    <path d="M 493.2 327.882114 
C 499.957936 327.882114 506.439994 325.197158 511.218576 320.418576 
C 515.997158 315.639994 518.682114 309.157936 518.682114 302.4 
C 518.682114 295.642064 515.997158 289.160006 511.218576 284.381424 
C 506.439994 279.602842 499.957936 276.917886 493.2 276.917886 
C 486.442064 276.917886 479.960006 279.602842 475.181424 284.381424 
C 470.402842 289.160006 467.717886 295.642064 467.717886 302.4 
C 467.717886 309.157936 470.402842 315.639994 475.181424 320.418576 
C 479.960006 325.197158 486.442064 327.882114 493.2 327.882114 
z
" style="fill:#fb7050;fill-opacity:0.8;stroke:#fb7050;stroke-opacity:0.8;"/>
    <path d="M 493.2 219.468033 
C 501.757582 219.468033 509.96582 216.068069 516.016945 210.016945 
C 522.068069 203.96582 525.468033 195.757582 525.468033 187.2 
C 525.468033 178.642418 522.068069 170.43418 516.016945 164.383055 
C 509.96582 158.331931 501.757582 154.931967 493.2 154.931967 
C 484.642418 154.931967 476.43418 158.331931 470.383055 164.383055 
C 464.331931 170.43418 460.931967 178.642418 460.931967 187.2 
C 460.931967 195.757582 464.331931 203.96582 470.383055 210.016945 
C 476.43418 216.068069 484.642418 219.468033 493.2 219.468033 
z
" style="fill:#f14331;fill-opacity:0.8;stroke:#f14331;stroke-opacity:0.8;"/>
    <path d="M 493.2 115.189923 
C 504.654101 115.189923 515.640614 110.63916 523.739887 102.539887 
C 531.83916 94.440614 536.389923 83.454101 536.389923 72 
C 536.389923 60.545899 531.83916 49.559386 523.739887 41.460113 
C 515.640614 33.36084 504.654101 28.810077 493.2 28.810077 
C 481.745899 28.810077 470.759386 33.36084 462.660113 41.460113 
C 454.56084 49.559386 450.010077 60.545899 450.010077 72 
C 450.010077 83.454101 454.56084 94.440614 462.660113 102.539887 
C 470.759386 110.63916 481.745899 115.189923 493.2 115.189923 
z
" style="fill:#ca181d;fill-opacity:0.8;stroke:#ca181d;stroke-opacity:0.8;"/>
   </g>
   <g id="text_16">
    <!--   0µs -->
    <defs>
     <path id="DejaVuSans-Bold-32"/>
     <path d="M 46 36.53125 
Q 46 50.203125 43.4375 55.78125 
Q 40.875 61.375 34.8125 61.375 
Q 28.765625 61.375 26.171875 55.78125 
Q 23.578125 50.203125 23.578125 36.53125 
Q 23.578125 22.703125 26.171875 17.03125 
Q 28.765625 11.375 34.8125 11.375 
Q 40.828125 11.375 43.40625 17.03125 
Q 46 22.703125 46 36.53125 
z
M 64.796875 36.375 
Q 64.796875 18.265625 56.984375 8.421875 
Q 49.171875 -1.421875 34.8125 -1.421875 
Q 20.40625 -1.421875 12.59375 8.421875 
Q 4.78125 18.265625 4.78125 36.375 
Q 4.78125 54.546875 12.59375 64.375 
Q 20.40625 74.21875 34.8125 74.21875 
Q 49.171875 74.21875 56.984375 64.375 
Q 64.796875 54.546875 64.796875 36.375 
z
" id="DejaVuSans-Bold-48"/>
     <path d="M 8.5 -20.90625 
L 8.5 54.6875 
L 26.125 54.6875 
L 26.125 22.90625 
Q 26.125 17.234375 28.5625 14.46875 
Q 31 11.71875 35.984375 11.71875 
Q 41.015625 11.71875 43.453125 14.46875 
Q 45.90625 17.234375 45.90625 22.90625 
L 45.90625 54.6875 
L 63.484375 54.6875 
L 63.484375 18.109375 
Q 63.484375 14.65625 64.28125 13.28125 
Q 65.09375 11.921875 67 11.921875 
Q 67.875 11.921875 68.671875 12.15625 
Q 69.484375 12.40625 70.40625 12.984375 
L 70.40625 0.78125 
Q 67.828125 -0.34375 65.546875 -0.875 
Q 63.28125 -1.421875 61.078125 -1.421875 
Q 56.734375 -1.421875 53.96875 0.40625 
Q 51.21875 2.25 49.515625 6.296875 
Q 47.21875 2.4375 43.921875 0.5 
Q 40.625 -1.421875 36.28125 -1.421875 
Q 32.671875 -1.421875 30.125 -0.265625 
Q 27.59375 0.875 26.125 3.21875 
L 26.125 -20.90625 
z
" id="DejaVuSans-Bold-181"/>
     <path d="M 51.125 52.984375 
L 51.125 39.703125 
Q 45.515625 42.046875 40.28125 43.21875 
Q 35.0625 44.390625 30.421875 44.390625 
Q 25.4375 44.390625 23.015625 43.140625 
Q 20.609375 41.890625 20.609375 39.3125 
Q 20.609375 37.203125 22.4375 36.078125 
Q 24.265625 34.96875 29 34.421875 
L 32.078125 33.984375 
Q 45.515625 32.28125 50.140625 28.375 
Q 54.78125 24.46875 54.78125 16.109375 
Q 54.78125 7.375 48.328125 2.96875 
Q 41.890625 -1.421875 29.109375 -1.421875 
Q 23.6875 -1.421875 17.890625 -0.5625 
Q 12.109375 0.296875 6 2 
L 6 15.28125 
Q 11.234375 12.75 16.71875 11.46875 
Q 22.21875 10.203125 27.875 10.203125 
Q 33.015625 10.203125 35.59375 11.609375 
Q 38.1875 13.03125 38.1875 15.828125 
Q 38.1875 18.171875 36.40625 19.3125 
Q 34.625 20.453125 29.296875 21.09375 
L 26.21875 21.484375 
Q 14.546875 22.953125 9.859375 26.90625 
Q 5.171875 30.859375 5.171875 38.921875 
Q 5.171875 47.609375 11.125 51.796875 
Q 17.09375 56 29.390625 56 
Q 34.234375 56 39.546875 55.265625 
Q 44.875 54.546875 51.125 52.984375 
z
" id="DejaVuSans-Bold-115"/>
    </defs>
    <g transform="translate(60.378524 650.346035)scale(0.085359 -0.085359)">
     <use xlink:href="#DejaVuSans-Bold-32"/>
     <use x="34.814453" xlink:href="#DejaVuSans-Bold-32"/>
     <use x="69.628906" xlink:href="#DejaVuSans-Bold-48"/>
     <use x="139.208984" xlink:href="#DejaVuSans-Bold-181"/>
     <use x="212.792969" xlink:href="#DejaVuSans-Bold-115"/>
    </g>
   </g>
   <g id="text_17">
    <!--   0µs -->
    <g transform="translate(60.378524 535.146035)scale(0.085359 -0.085359)">
     <use xlink:href="#DejaVuSans-Bold-32"/>
     <use x="34.814453" xlink:href="#DejaVuSans-Bold-32"/>
     <use x="69.628906" xlink:href="#DejaVuSans-Bold-48"/>
     <use x="139.208984" xlink:href="#DejaVuSans-Bold-181"/>
     <use x="212.792969" xlink:href="#DejaVuSans-Bold-115"/>
    </g>
   </g>
   <g id="text_18">
    <!--   0µs -->
    <g transform="translate(60.378524 419.946035)scale(0.085359 -0.085359)">
     <use xlink:href="#DejaVuSans-Bold-32"/>
     <use x="34.814453" xlink:href="#DejaVuSans-Bold-32"/>
     <use x="69.628906" xlink:href="#DejaVuSans-Bold-48"/>
     <use x="139.208984" xlink:href="#DejaVuSans-Bold-181"/>
     <use x="212.792969" xlink:href="#DejaVuSans-Bold-115"/>
    </g>
   </g>
   <g id="text_19">
    <!--   0µs -->
    <g transform="translate(60.378524 304.746035)scale(0.085359 -0.085359)">
     <use xlink:href="#DejaVuSans-Bold-32"/>
     <use x="34.814453" xlink:href="#DejaVuSans-Bold-32"/>
     <use x="69.628906" xlink:href="#DejaVuSans-Bold-48"/>
     <use x="139.208984" xlink:href="#DejaVuSans-Bold-181"/>
     <use x="212.792969" xlink:href="#DejaVuSans-Bold-115"/>
    </g>
   </g>
   <g id="text_20">
    <!--   0µs -->
    <g transform="translate(60.378524 189.546035)scale(0.085359 -0.085359)">
     <use xlink:href="#DejaVuSans-Bold-32"/>
     <use x="34.814453" xlink:href="#DejaVuSans-Bold-32"/>
     <use x="69.628906" xlink:href="#DejaVuSans-Bold-48"/>
     <use x="139.208984" xlink:href="#DejaVuSans-Bold-181"/>
     <use x="212.792969" xlink:href="#DejaVuSans-Bold-115"/>
    </g>
   </g>
   <g id="text_21">
    <!--   0µs -->
    <g transform="translate(60.378524 74.346035)scale(0.085359 -0.085359)">
     <use xlink:href="#DejaVuSans-Bold-32"/>
     <use x="34.814453" xlink:href="#DejaVuSans-Bold-32"/>
     <use x="69.628906" xlink:href="#DejaVuSans-Bold-48"/>
     <use x="139.208984" xlink:href="#DejaVuSans-Bold-181"/>
     <use x="212.792969" xlink:href="#DejaVuSans-Bold-115"/>
    </g>
   </g>
   <g id="text_22">
    <!--   0µs -->
    <g transform="translate(144.618524 650.346035)scale(0.085359 -0.085359)">
     <use xlink:href="#DejaVuSans-Bold-32"/>
     <use x="34.814453" xlink:href="#DejaVuSans-Bold-32"/>
     <use x="69.628906" xlink:href="#DejaVuSans-Bold-48"/>
     <use x="139.208984" xlink:href="#DejaVuSans-Bold-181"/>
     <use x="212.792969" xlink:href="#DejaVuSans-Bold-115"/>
    </g>
   </g>
   <g id="text_23">
    <!--   0µs -->
    <g transform="translate(144.618524 535.146035)scale(0.085359 -0.085359)">
     <use xlink:href="#DejaVuSans-Bold-32"/>
     <use x="34.814453" xlink:href="#DejaVuSans-Bold-32"/>
     <use x="69.628906" xlink:href="#DejaVuSans-Bold-48"/>
     <use x="139.208984" xlink:href="#DejaVuSans-Bold-181"/>
     <use x="212.792969" xlink:href="#DejaVuSans-Bold-115"/>
    </g>
   </g>
   <g id="text_24">
    <!--   0µs -->
    <g transform="translate(144.618524 419.946035)scale(0.085359 -0.085359)">
     <use xlink:href="#DejaVuSans-Bold-32"/>
     <use x="34.814453" xlink:href="#DejaVuSans-Bold-32"/>
     <use x="69.628906" xlink:href="#DejaVuSans-Bold-48"/>
     <use x="139.208984" xlink:href="#DejaVuSans-Bold-181"/>
     <use x="212.792969" xlink:href="#DejaVuSans-Bold-115"/>
    </g>
   </g>
   <g id="text_25">
    <!--   0µs -->
    <g transform="translate(144.618524 304.746035)scale(0.085359 -0.085359)">
     <use xlink:href="#DejaVuSans-Bold-32"/>
     <use x="34.814453" xlink:href="#DejaVuSans-Bold-32"/>
     <use x="69.628906" xlink:href="#DejaVuSans-Bold-48"/>
     <use x="139.208984" xlink:href="#DejaVuSans-Bold-181"/>
     <use x="212.792969" xlink:href="#DejaVuSans-Bold-115"/>
    </g>
   </g>
   <g id="text_26">
    <!--   0µs -->
    <g transform="translate(144.618524 189.546035)scale(0.085359 -0.085359)">
     <use xlink:href="#DejaVuSans-Bold-32"/>
     <use x="34.814453" xlink:href="#DejaVuSans-Bold-32"/>
     <use x="69.628906" xlink:href="#DejaVuSans-Bold-48"/>
     <use x="139.208984" xlink:href="#DejaVuSans-Bold-181"/>
     <use x="212.792969" xlink:href="#DejaVuSans-Bold-115"/>
    </g>
   </g>
   <g id="text_27">
    <!-- 100µs -->
    <defs>
     <path d="M 11.71875 12.984375 
L 28.328125 12.984375 
L 28.328125 60.109375 
L 11.28125 56.59375 
L 11.28125 69.390625 
L 28.21875 72.90625 
L 46.09375 72.90625 
L 46.09375 12.984375 
L 62.703125 12.984375 
L 62.703125 0 
L 11.71875 0 
z
" id="DejaVuSans-Bold-49"/>
    </defs>
    <g transform="translate(139.148594 74.748437)scale(0.1 -0.1)">
     <use xlink:href="#DejaVuSans-Bold-49"/>
     <use x="69.580078" xlink:href="#DejaVuSans-Bold-48"/>
     <use x="139.160156" xlink:href="#DejaVuSans-Bold-48"/>
     <use x="208.740234" xlink:href="#DejaVuSans-Bold-181"/>
     <use x="282.324219" xlink:href="#DejaVuSans-Bold-115"/>
    </g>
   </g>
   <g id="text_28">
    <!--   0µs -->
    <g transform="translate(228.858524 650.346035)scale(0.085359 -0.085359)">
     <use xlink:href="#DejaVuSans-Bold-32"/>
     <use x="34.814453" xlink:href="#DejaVuSans-Bold-32"/>
     <use x="69.628906" xlink:href="#DejaVuSans-Bold-48"/>
     <use x="139.208984" xlink:href="#DejaVuSans-Bold-181"/>
     <use x="212.792969" xlink:href="#DejaVuSans-Bold-115"/>
    </g>
   </g>
   <g id="text_29">
    <!--   0µs -->
    <g transform="translate(228.858524 535.146035)scale(0.085359 -0.085359)">
     <use xlink:href="#DejaVuSans-Bold-32"/>
     <use x="34.814453" xlink:href="#DejaVuSans-Bold-32"/>
     <use x="69.628906" xlink:href="#DejaVuSans-Bold-48"/>
     <use x="139.208984" xlink:href="#DejaVuSans-Bold-181"/>
     <use x="212.792969" xlink:href="#DejaVuSans-Bold-115"/>
    </g>
   </g>
   <g id="text_30">
    <!--   0µs -->
    <g transform="translate(228.858524 419.946035)scale(0.085359 -0.085359)">
     <use xlink:href="#DejaVuSans-Bold-32"/>
     <use x="34.814453" xlink:href="#DejaVuSans-Bold-32"/>
     <use x="69.628906" xlink:href="#DejaVuSans-Bold-48"/>
     <use x="139.208984" xlink:href="#DejaVuSans-Bold-181"/>
     <use x="212.792969" xlink:href="#DejaVuSans-Bold-115"/>
    </g>
   </g>
   <g id="text_31">
    <!-- 100µs -->
    <g transform="translate(223.388594 305.148437)scale(0.1 -0.1)">
     <use xlink:href="#DejaVuSans-Bold-49"/>
     <use x="69.580078" xlink:href="#DejaVuSans-Bold-48"/>
     <use x="139.160156" xlink:href="#DejaVuSans-Bold-48"/>
     <use x="208.740234" xlink:href="#DejaVuSans-Bold-181"/>
     <use x="282.324219" xlink:href="#DejaVuSans-Bold-115"/>
    </g>
   </g>
   <g id="text_32">
    <!-- 100µs -->
    <g transform="translate(223.388593 189.948438)scale(0.1 -0.1)">
     <use xlink:href="#DejaVuSans-Bold-49"/>
     <use x="69.580078" xlink:href="#DejaVuSans-Bold-48"/>
     <use x="139.160156" xlink:href="#DejaVuSans-Bold-48"/>
     <use x="208.740234" xlink:href="#DejaVuSans-Bold-181"/>
     <use x="282.324219" xlink:href="#DejaVuSans-Bold-115"/>
    </g>
   </g>
   <g id="text_33">
    <!-- 400µs -->
    <defs>
     <path d="M 36.8125 57.421875 
L 16.21875 26.90625 
L 36.8125 26.90625 
z
M 33.6875 72.90625 
L 54.59375 72.90625 
L 54.59375 26.90625 
L 64.984375 26.90625 
L 64.984375 13.28125 
L 54.59375 13.28125 
L 54.59375 0 
L 36.8125 0 
L 36.8125 13.28125 
L 4.5 13.28125 
L 4.5 29.390625 
z
" id="DejaVuSans-Bold-52"/>
    </defs>
    <g transform="translate(221.618327 75.033111)scale(0.110358 -0.110358)">
     <use xlink:href="#DejaVuSans-Bold-52"/>
     <use x="69.580078" xlink:href="#DejaVuSans-Bold-48"/>
     <use x="139.160156" xlink:href="#DejaVuSans-Bold-48"/>
     <use x="208.740234" xlink:href="#DejaVuSans-Bold-181"/>
     <use x="282.324219" xlink:href="#DejaVuSans-Bold-115"/>
    </g>
   </g>
   <g id="text_34">
    <!--   0µs -->
    <g transform="translate(313.098524 650.346035)scale(0.085359 -0.085359)">
     <use xlink:href="#DejaVuSans-Bold-32"/>
     <use x="34.814453" xlink:href="#DejaVuSans-Bold-32"/>
     <use x="69.628906" xlink:href="#DejaVuSans-Bold-48"/>
     <use x="139.208984" xlink:href="#DejaVuSans-Bold-181"/>
     <use x="212.792969" xlink:href="#DejaVuSans-Bold-115"/>
    </g>
   </g>
   <g id="text_35">
    <!--   0µs -->
    <g transform="translate(313.098524 535.146035)scale(0.085359 -0.085359)">
     <use xlink:href="#DejaVuSans-Bold-32"/>
     <use x="34.814453" xlink:href="#DejaVuSans-Bold-32"/>
     <use x="69.628906" xlink:href="#DejaVuSans-Bold-48"/>
     <use x="139.208984" xlink:href="#DejaVuSans-Bold-181"/>
     <use x="212.792969" xlink:href="#DejaVuSans-Bold-115"/>
    </g>
   </g>
   <g id="text_36">
    <!--   0µs -->
    <g transform="translate(313.098524 419.946035)scale(0.085359 -0.085359)">
     <use xlink:href="#DejaVuSans-Bold-32"/>
     <use x="34.814453" xlink:href="#DejaVuSans-Bold-32"/>
     <use x="69.628906" xlink:href="#DejaVuSans-Bold-48"/>
     <use x="139.208984" xlink:href="#DejaVuSans-Bold-181"/>
     <use x="212.792969" xlink:href="#DejaVuSans-Bold-115"/>
    </g>
   </g>
   <g id="text_37">
    <!-- 100µs -->
    <g transform="translate(307.628594 305.148437)scale(0.1 -0.1)">
     <use xlink:href="#DejaVuSans-Bold-49"/>
     <use x="69.580078" xlink:href="#DejaVuSans-Bold-48"/>
     <use x="139.160156" xlink:href="#DejaVuSans-Bold-48"/>
     <use x="208.740234" xlink:href="#DejaVuSans-Bold-181"/>
     <use x="282.324219" xlink:href="#DejaVuSans-Bold-115"/>
    </g>
   </g>
   <g id="text_38">
    <!-- 400µs -->
    <g transform="translate(305.858326 190.233111)scale(0.110358 -0.110358)">
     <use xlink:href="#DejaVuSans-Bold-52"/>
     <use x="69.580078" xlink:href="#DejaVuSans-Bold-48"/>
     <use x="139.160156" xlink:href="#DejaVuSans-Bold-48"/>
     <use x="208.740234" xlink:href="#DejaVuSans-Bold-181"/>
     <use x="282.324219" xlink:href="#DejaVuSans-Bold-115"/>
    </g>
   </g>
   <g id="text_39">
    <!--   1ms -->
    <defs>
     <path d="M 59.078125 45.609375 
Q 62.40625 50.6875 66.96875 53.34375 
Q 71.53125 56 77 56 
Q 86.421875 56 91.359375 50.1875 
Q 96.296875 44.390625 96.296875 33.296875 
L 96.296875 0 
L 78.71875 0 
L 78.71875 28.515625 
Q 78.765625 29.15625 78.78125 29.828125 
Q 78.8125 30.515625 78.8125 31.78125 
Q 78.8125 37.59375 77.09375 40.203125 
Q 75.390625 42.828125 71.578125 42.828125 
Q 66.609375 42.828125 63.890625 38.71875 
Q 61.1875 34.625 61.078125 26.859375 
L 61.078125 0 
L 43.5 0 
L 43.5 28.515625 
Q 43.5 37.59375 41.9375 40.203125 
Q 40.375 42.828125 36.375 42.828125 
Q 31.34375 42.828125 28.609375 38.703125 
Q 25.875 34.578125 25.875 26.90625 
L 25.875 0 
L 8.296875 0 
L 8.296875 54.6875 
L 25.875 54.6875 
L 25.875 46.6875 
Q 29.109375 51.3125 33.28125 53.65625 
Q 37.453125 56 42.484375 56 
Q 48.140625 56 52.484375 53.265625 
Q 56.84375 50.53125 59.078125 45.609375 
z
" id="DejaVuSans-Bold-109"/>
    </defs>
    <g transform="translate(305.758189 75.454537)scale(0.125193 -0.125193)">
     <use xlink:href="#DejaVuSans-Bold-32"/>
     <use x="34.814453" xlink:href="#DejaVuSans-Bold-32"/>
     <use x="69.628906" xlink:href="#DejaVuSans-Bold-49"/>
     <use x="139.208984" xlink:href="#DejaVuSans-Bold-109"/>
     <use x="243.408203" xlink:href="#DejaVuSans-Bold-115"/>
    </g>
   </g>
   <g id="text_40">
    <!--   0µs -->
    <g transform="translate(397.338524 650.346035)scale(0.085359 -0.085359)">
     <use xlink:href="#DejaVuSans-Bold-32"/>
     <use x="34.814453" xlink:href="#DejaVuSans-Bold-32"/>
     <use x="69.628906" xlink:href="#DejaVuSans-Bold-48"/>
     <use x="139.208984" xlink:href="#DejaVuSans-Bold-181"/>
     <use x="212.792969" xlink:href="#DejaVuSans-Bold-115"/>
    </g>
   </g>
   <g id="text_41">
    <!--   0µs -->
    <g transform="translate(397.338524 535.146035)scale(0.085359 -0.085359)">
     <use xlink:href="#DejaVuSans-Bold-32"/>
     <use x="34.814453" xlink:href="#DejaVuSans-Bold-32"/>
     <use x="69.628906" xlink:href="#DejaVuSans-Bold-48"/>
     <use x="139.208984" xlink:href="#DejaVuSans-Bold-181"/>
     <use x="212.792969" xlink:href="#DejaVuSans-Bold-115"/>
    </g>
   </g>
   <g id="text_42">
    <!-- 100µs -->
    <g transform="translate(391.868594 420.348437)scale(0.1 -0.1)">
     <use xlink:href="#DejaVuSans-Bold-49"/>
     <use x="69.580078" xlink:href="#DejaVuSans-Bold-48"/>
     <use x="139.160156" xlink:href="#DejaVuSans-Bold-48"/>
     <use x="208.740234" xlink:href="#DejaVuSans-Bold-181"/>
     <use x="282.324219" xlink:href="#DejaVuSans-Bold-115"/>
    </g>
   </g>
   <g id="text_43">
    <!-- 200µs -->
    <defs>
     <path d="M 28.8125 13.8125 
L 60.890625 13.8125 
L 60.890625 0 
L 7.90625 0 
L 7.90625 13.8125 
L 34.515625 37.3125 
Q 38.09375 40.53125 39.796875 43.609375 
Q 41.5 46.6875 41.5 50 
Q 41.5 55.125 38.0625 58.25 
Q 34.625 61.375 28.90625 61.375 
Q 24.515625 61.375 19.28125 59.5 
Q 14.0625 57.625 8.109375 53.90625 
L 8.109375 69.921875 
Q 14.453125 72.015625 20.65625 73.109375 
Q 26.859375 74.21875 32.8125 74.21875 
Q 45.90625 74.21875 53.15625 68.453125 
Q 60.40625 62.703125 60.40625 52.390625 
Q 60.40625 46.4375 57.328125 41.28125 
Q 54.25 36.140625 44.390625 27.484375 
z
" id="DejaVuSans-Bold-50"/>
    </defs>
    <g transform="translate(391.075471 305.275978)scale(0.10464 -0.10464)">
     <use xlink:href="#DejaVuSans-Bold-50"/>
     <use x="69.580078" xlink:href="#DejaVuSans-Bold-48"/>
     <use x="139.160156" xlink:href="#DejaVuSans-Bold-48"/>
     <use x="208.740234" xlink:href="#DejaVuSans-Bold-181"/>
     <use x="282.324219" xlink:href="#DejaVuSans-Bold-115"/>
    </g>
   </g>
   <g id="text_44">
    <!--   1ms -->
    <g transform="translate(390.784687 190.51125)scale(0.12 -0.12)">
     <use xlink:href="#DejaVuSans-Bold-32"/>
     <use x="34.814453" xlink:href="#DejaVuSans-Bold-32"/>
     <use x="69.628906" xlink:href="#DejaVuSans-Bold-49"/>
     <use x="139.208984" xlink:href="#DejaVuSans-Bold-109"/>
     <use x="243.408203" xlink:href="#DejaVuSans-Bold-115"/>
    </g>
   </g>
   <g id="text_45">
    <!--   5ms -->
    <defs>
     <path d="M 10.59375 72.90625 
L 57.328125 72.90625 
L 57.328125 59.078125 
L 25.59375 59.078125 
L 25.59375 47.796875 
Q 27.734375 48.390625 29.90625 48.703125 
Q 32.078125 49.03125 34.421875 49.03125 
Q 47.75 49.03125 55.171875 42.359375 
Q 62.59375 35.6875 62.59375 23.78125 
Q 62.59375 11.96875 54.515625 5.265625 
Q 46.4375 -1.421875 32.078125 -1.421875 
Q 25.875 -1.421875 19.796875 -0.21875 
Q 13.71875 0.984375 7.71875 3.421875 
L 7.71875 18.21875 
Q 13.671875 14.796875 19.015625 13.078125 
Q 24.359375 11.375 29.109375 11.375 
Q 35.9375 11.375 39.859375 14.71875 
Q 43.796875 18.0625 43.796875 23.78125 
Q 43.796875 29.546875 39.859375 32.859375 
Q 35.9375 36.1875 29.109375 36.1875 
Q 25.046875 36.1875 20.453125 35.125 
Q 15.875 34.078125 10.59375 31.890625 
z
" id="DejaVuSans-Bold-53"/>
    </defs>
    <g transform="translate(386.777677 76.041263)scale(0.146456 -0.146456)">
     <use xlink:href="#DejaVuSans-Bold-32"/>
     <use x="34.814453" xlink:href="#DejaVuSans-Bold-32"/>
     <use x="69.628906" xlink:href="#DejaVuSans-Bold-53"/>
     <use x="139.208984" xlink:href="#DejaVuSans-Bold-109"/>
     <use x="243.408203" xlink:href="#DejaVuSans-Bold-115"/>
    </g>
   </g>
   <g id="text_46">
    <!--   0µs -->
    <g transform="translate(481.578524 650.346035)scale(0.085359 -0.085359)">
     <use xlink:href="#DejaVuSans-Bold-32"/>
     <use x="34.814453" xlink:href="#DejaVuSans-Bold-32"/>
     <use x="69.628906" xlink:href="#DejaVuSans-Bold-48"/>
     <use x="139.208984" xlink:href="#DejaVuSans-Bold-181"/>
     <use x="212.792969" xlink:href="#DejaVuSans-Bold-115"/>
    </g>
   </g>
   <g id="text_47">
    <!--   0µs -->
    <g transform="translate(481.578524 535.146035)scale(0.085359 -0.085359)">
     <use xlink:href="#DejaVuSans-Bold-32"/>
     <use x="34.814453" xlink:href="#DejaVuSans-Bold-32"/>
     <use x="69.628906" xlink:href="#DejaVuSans-Bold-48"/>
     <use x="139.208984" xlink:href="#DejaVuSans-Bold-181"/>
     <use x="212.792969" xlink:href="#DejaVuSans-Bold-115"/>
    </g>
   </g>
   <g id="text_48">
    <!-- 100µs -->
    <g transform="translate(476.108594 420.348437)scale(0.1 -0.1)">
     <use xlink:href="#DejaVuSans-Bold-49"/>
     <use x="69.580078" xlink:href="#DejaVuSans-Bold-48"/>
     <use x="139.160156" xlink:href="#DejaVuSans-Bold-48"/>
     <use x="208.740234" xlink:href="#DejaVuSans-Bold-181"/>
     <use x="282.324219" xlink:href="#DejaVuSans-Bold-115"/>
    </g>
   </g>
   <g id="text_49">
    <!-- 500µs -->
    <g transform="translate(473.977824 305.491083)scale(0.112467 -0.112467)">
     <use xlink:href="#DejaVuSans-Bold-53"/>
     <use x="69.580078" xlink:href="#DejaVuSans-Bold-48"/>
     <use x="139.160156" xlink:href="#DejaVuSans-Bold-48"/>
     <use x="208.740234" xlink:href="#DejaVuSans-Bold-181"/>
     <use x="282.324219" xlink:href="#DejaVuSans-Bold-115"/>
    </g>
   </g>
   <g id="text_50">
    <!--   2ms -->
    <g transform="translate(473.197872 190.844066)scale(0.132061 -0.132061)">
     <use xlink:href="#DejaVuSans-Bold-32"/>
     <use x="34.814453" xlink:href="#DejaVuSans-Bold-32"/>
     <use x="69.628906" xlink:href="#DejaVuSans-Bold-50"/>
     <use x="139.208984" xlink:href="#DejaVuSans-Bold-109"/>
     <use x="243.408203" xlink:href="#DejaVuSans-Bold-115"/>
    </g>
   </g>
   <g id="text_51">
    <!--  17ms -->
    <defs>
     <path d="M 6.6875 72.90625 
L 61.625 72.90625 
L 61.625 62.3125 
L 33.203125 0 
L 14.890625 0 
L 41.796875 59.078125 
L 6.6875 59.078125 
z
" id="DejaVuSans-Bold-55"/>
    </defs>
    <g transform="translate(463.944702 76.781127)scale(0.173268 -0.173268)">
     <use xlink:href="#DejaVuSans-Bold-32"/>
     <use x="34.814453" xlink:href="#DejaVuSans-Bold-49"/>
     <use x="104.394531" xlink:href="#DejaVuSans-Bold-55"/>
     <use x="173.974609" xlink:href="#DejaVuSans-Bold-109"/>
     <use x="278.173828" xlink:href="#DejaVuSans-Bold-115"/>
    </g>
   </g>
  </g>
  <g id="axes_2">
   <g id="patch_7">
    <path clip-path="url(#pc3d682b624)" d="M 622.8 648 
L 622.8 552 
L 622.8 168 
L 622.8 72 
L 651.6 72 
L 651.6 168 
L 651.6 552 
L 651.6 648 
z
" style="fill:#ffffff;stroke:#ffffff;stroke-linejoin:miter;stroke-width:0.01;"/>
   </g>
   <g id="QuadMesh_1">
    <path clip-path="url(#pc3d682b624)" d="M 622.8 648 
L 651.6 648 
L 651.6 552 
L 622.8 552 
L 622.8 648 
" style="fill:#481f70;"/>
    <path clip-path="url(#pc3d682b624)" d="M 622.8 552 
L 651.6 552 
L 651.6 456 
L 622.8 456 
L 622.8 552 
" style="fill:#3b528b;"/>
    <path clip-path="url(#pc3d682b624)" d="M 622.8 456 
L 651.6 456 
L 651.6 360 
L 622.8 360 
L 622.8 456 
" style="fill:#287c8e;"/>
    <path clip-path="url(#pc3d682b624)" d="M 622.8 360 
L 651.6 360 
L 651.6 264 
L 622.8 264 
L 622.8 360 
" style="fill:#20a486;"/>
    <path clip-path="url(#pc3d682b624)" d="M 622.8 264 
L 651.6 264 
L 651.6 168 
L 622.8 168 
L 622.8 264 
" style="fill:#5ec962;"/>
    <path clip-path="url(#pc3d682b624)" d="M 622.8 168 
L 651.6 168 
L 651.6 72 
L 622.8 72 
L 622.8 168 
" style="fill:#c8e020;"/>
   </g>
   <g id="matplotlib.axis_3"/>
   <g id="matplotlib.axis_4">
    <g id="ytick_7">
     <g id="line2d_13">
      <defs>
       <path d="M 0 0 
L 3.5 0 
" id="m1c776f7444" style="stroke:#000000;stroke-width:0.8;"/>
      </defs>
      <g>
       <use style="stroke:#000000;stroke-width:0.8;" x="651.6" xlink:href="#m1c776f7444" y="648"/>
      </g>
     </g>
     <g id="text_52">
      <!--  10B -->
      <defs>
       <path d="M 31.78125 66.40625 
Q 24.171875 66.40625 20.328125 58.90625 
Q 16.5 51.421875 16.5 36.375 
Q 16.5 21.390625 20.328125 13.890625 
Q 24.171875 6.390625 31.78125 6.390625 
Q 39.453125 6.390625 43.28125 13.890625 
Q 47.125 21.390625 47.125 36.375 
Q 47.125 51.421875 43.28125 58.90625 
Q 39.453125 66.40625 31.78125 66.40625 
z
M 31.78125 74.21875 
Q 44.046875 74.21875 50.515625 64.515625 
Q 56.984375 54.828125 56.984375 36.375 
Q 56.984375 17.96875 50.515625 8.265625 
Q 44.046875 -1.421875 31.78125 -1.421875 
Q 19.53125 -1.421875 13.0625 8.265625 
Q 6.59375 17.96875 6.59375 36.375 
Q 6.59375 54.828125 13.0625 64.515625 
Q 19.53125 74.21875 31.78125 74.21875 
z
" id="DejaVuSans-48"/>
       <path d="M 19.671875 34.8125 
L 19.671875 8.109375 
L 35.5 8.109375 
Q 43.453125 8.109375 47.28125 11.40625 
Q 51.125 14.703125 51.125 21.484375 
Q 51.125 28.328125 47.28125 31.5625 
Q 43.453125 34.8125 35.5 34.8125 
z
M 19.671875 64.796875 
L 19.671875 42.828125 
L 34.28125 42.828125 
Q 41.5 42.828125 45.03125 45.53125 
Q 48.578125 48.25 48.578125 53.8125 
Q 48.578125 59.328125 45.03125 62.0625 
Q 41.5 64.796875 34.28125 64.796875 
z
M 9.8125 72.90625 
L 35.015625 72.90625 
Q 46.296875 72.90625 52.390625 68.21875 
Q 58.5 63.53125 58.5 54.890625 
Q 58.5 48.1875 55.375 44.234375 
Q 52.25 40.28125 46.1875 39.3125 
Q 53.46875 37.75 57.5 32.78125 
Q 61.53125 27.828125 61.53125 20.40625 
Q 61.53125 10.640625 54.890625 5.3125 
Q 48.25 0 35.984375 0 
L 9.8125 0 
z
" id="DejaVuSans-66"/>
      </defs>
      <g transform="translate(658.6 651.799219)scale(0.1 -0.1)">
       <use xlink:href="#DejaVuSans-32"/>
       <use x="31.787109" xlink:href="#DejaVuSans-49"/>
       <use x="95.410156" xlink:href="#DejaVuSans-48"/>
       <use x="159.033203" xlink:href="#DejaVuSans-66"/>
      </g>
     </g>
    </g>
    <g id="ytick_8">
     <g id="line2d_14">
      <g>
       <use style="stroke:#000000;stroke-width:0.8;" x="651.6" xlink:href="#m1c776f7444" y="552"/>
      </g>
     </g>
     <g id="text_53">
      <!-- 100B -->
      <g transform="translate(658.6 555.799219)scale(0.1 -0.1)">
       <use xlink:href="#DejaVuSans-49"/>
       <use x="63.623047" xlink:href="#DejaVuSans-48"/>
       <use x="127.246094" xlink:href="#DejaVuSans-48"/>
       <use x="190.869141" xlink:href="#DejaVuSans-66"/>
      </g>
     </g>
    </g>
    <g id="ytick_9">
     <g id="line2d_15">
      <g>
       <use style="stroke:#000000;stroke-width:0.8;" x="651.6" xlink:href="#m1c776f7444" y="456"/>
      </g>
     </g>
     <g id="text_54">
      <!--   1KB -->
      <defs>
       <path d="M 9.8125 72.90625 
L 19.671875 72.90625 
L 19.671875 42.09375 
L 52.390625 72.90625 
L 65.09375 72.90625 
L 28.90625 38.921875 
L 67.671875 0 
L 54.6875 0 
L 19.671875 35.109375 
L 19.671875 0 
L 9.8125 0 
z
" id="DejaVuSans-75"/>
      </defs>
      <g transform="translate(658.6 459.799219)scale(0.1 -0.1)">
       <use xlink:href="#DejaVuSans-32"/>
       <use x="31.787109" xlink:href="#DejaVuSans-32"/>
       <use x="63.574219" xlink:href="#DejaVuSans-49"/>
       <use x="127.197266" xlink:href="#DejaVuSans-75"/>
       <use x="192.773438" xlink:href="#DejaVuSans-66"/>
      </g>
     </g>
    </g>
    <g id="ytick_10">
     <g id="line2d_16">
      <g>
       <use style="stroke:#000000;stroke-width:0.8;" x="651.6" xlink:href="#m1c776f7444" y="360"/>
      </g>
     </g>
     <g id="text_55">
      <!--  10KB -->
      <g transform="translate(658.6 363.799219)scale(0.1 -0.1)">
       <use xlink:href="#DejaVuSans-32"/>
       <use x="31.787109" xlink:href="#DejaVuSans-49"/>
       <use x="95.410156" xlink:href="#DejaVuSans-48"/>
       <use x="159.033203" xlink:href="#DejaVuSans-75"/>
       <use x="224.609375" xlink:href="#DejaVuSans-66"/>
      </g>
     </g>
    </g>
    <g id="ytick_11">
     <g id="line2d_17">
      <g>
       <use style="stroke:#000000;stroke-width:0.8;" x="651.6" xlink:href="#m1c776f7444" y="264"/>
      </g>
     </g>
     <g id="text_56">
      <!-- 100KB -->
      <g transform="translate(658.6 267.799219)scale(0.1 -0.1)">
       <use xlink:href="#DejaVuSans-49"/>
       <use x="63.623047" xlink:href="#DejaVuSans-48"/>
       <use x="127.246094" xlink:href="#DejaVuSans-48"/>
       <use x="190.869141" xlink:href="#DejaVuSans-75"/>
       <use x="256.445312" xlink:href="#DejaVuSans-66"/>
      </g>
     </g>
    </g>
    <g id="ytick_12">
     <g id="line2d_18">
      <g>
       <use style="stroke:#000000;stroke-width:0.8;" x="651.6" xlink:href="#m1c776f7444" y="168"/>
      </g>
     </g>
     <g id="text_57">
      <!--   1MB -->
      <defs>
       <path d="M 9.8125 72.90625 
L 24.515625 72.90625 
L 43.109375 23.296875 
L 61.8125 72.90625 
L 76.515625 72.90625 
L 76.515625 0 
L 66.890625 0 
L 66.890625 64.015625 
L 48.09375 14.015625 
L 38.1875 14.015625 
L 19.390625 64.015625 
L 19.390625 0 
L 9.8125 0 
z
" id="DejaVuSans-77"/>
      </defs>
      <g transform="translate(658.6 171.799219)scale(0.1 -0.1)">
       <use xlink:href="#DejaVuSans-32"/>
       <use x="31.787109" xlink:href="#DejaVuSans-32"/>
       <use x="63.574219" xlink:href="#DejaVuSans-49"/>
       <use x="127.197266" xlink:href="#DejaVuSans-77"/>
       <use x="213.476562" xlink:href="#DejaVuSans-66"/>
      </g>
     </g>
    </g>
    <g id="ytick_13">
     <g id="line2d_19">
      <g>
       <use style="stroke:#000000;stroke-width:0.8;" x="651.6" xlink:href="#m1c776f7444" y="72"/>
      </g>
     </g>
     <g id="text_58">
      <!--  10MB -->
      <g transform="translate(658.6 75.799219)scale(0.1 -0.1)">
       <use xlink:href="#DejaVuSans-32"/>
       <use x="31.787109" xlink:href="#DejaVuSans-49"/>
       <use x="95.410156" xlink:href="#DejaVuSans-48"/>
       <use x="159.033203" xlink:href="#DejaVuSans-77"/>
       <use x="245.3125" xlink:href="#DejaVuSans-66"/>
      </g>
     </g>
    </g>
    <g id="text_59">
     <!-- serialized payload size -->
     <defs>
      <path d="M 44.28125 53.078125 
L 44.28125 44.578125 
Q 40.484375 46.53125 36.375 47.5 
Q 32.28125 48.484375 27.875 48.484375 
Q 21.1875 48.484375 17.84375 46.4375 
Q 14.5 44.390625 14.5 40.28125 
Q 14.5 37.15625 16.890625 35.375 
Q 19.28125 33.59375 26.515625 31.984375 
L 29.59375 31.296875 
Q 39.15625 29.25 43.1875 25.515625 
Q 47.21875 21.78125 47.21875 15.09375 
Q 47.21875 7.46875 41.1875 3.015625 
Q 35.15625 -1.421875 24.609375 -1.421875 
Q 20.21875 -1.421875 15.453125 -0.5625 
Q 10.6875 0.296875 5.421875 2 
L 5.421875 11.28125 
Q 10.40625 8.6875 15.234375 7.390625 
Q 20.0625 6.109375 24.8125 6.109375 
Q 31.15625 6.109375 34.5625 8.28125 
Q 37.984375 10.453125 37.984375 14.40625 
Q 37.984375 18.0625 35.515625 20.015625 
Q 33.0625 21.96875 24.703125 23.78125 
L 21.578125 24.515625 
Q 13.234375 26.265625 9.515625 29.90625 
Q 5.8125 33.546875 5.8125 39.890625 
Q 5.8125 47.609375 11.28125 51.796875 
Q 16.75 56 26.8125 56 
Q 31.78125 56 36.171875 55.265625 
Q 40.578125 54.546875 44.28125 53.078125 
z
" id="DejaVuSans-115"/>
      <path d="M 5.515625 54.6875 
L 48.1875 54.6875 
L 48.1875 46.484375 
L 14.40625 7.171875 
L 48.1875 7.171875 
L 48.1875 0 
L 4.296875 0 
L 4.296875 8.203125 
L 38.09375 47.515625 
L 5.515625 47.515625 
z
" id="DejaVuSans-122"/>
     </defs>
     <g transform="translate(702.704687 416.6)rotate(-90)scale(0.1 -0.1)">
      <use xlink:href="#DejaVuSans-115"/>
      <use x="52.099609" xlink:href="#DejaVuSans-101"/>
      <use x="113.623047" xlink:href="#DejaVuSans-114"/>
      <use x="154.736328" xlink:href="#DejaVuSans-105"/>
      <use x="182.519531" xlink:href="#DejaVuSans-97"/>
      <use x="243.798828" xlink:href="#DejaVuSans-108"/>
      <use x="271.582031" xlink:href="#DejaVuSans-105"/>
      <use x="299.365234" xlink:href="#DejaVuSans-122"/>
      <use x="351.855469" xlink:href="#DejaVuSans-101"/>
      <use x="413.378906" xlink:href="#DejaVuSans-100"/>
      <use x="476.855469" xlink:href="#DejaVuSans-32"/>
      <use x="508.642578" xlink:href="#DejaVuSans-112"/>
      <use x="572.119141" xlink:href="#DejaVuSans-97"/>
      <use x="633.398438" xlink:href="#DejaVuSans-121"/>
      <use x="692.578125" xlink:href="#DejaVuSans-108"/>
      <use x="720.361328" xlink:href="#DejaVuSans-111"/>
      <use x="781.542969" xlink:href="#DejaVuSans-97"/>
      <use x="842.822266" xlink:href="#DejaVuSans-100"/>
      <use x="906.298828" xlink:href="#DejaVuSans-32"/>
      <use x="938.085938" xlink:href="#DejaVuSans-115"/>
      <use x="990.185547" xlink:href="#DejaVuSans-105"/>
      <use x="1017.96875" xlink:href="#DejaVuSans-122"/>
      <use x="1070.458984" xlink:href="#DejaVuSans-101"/>
     </g>
    </g>
   </g>
   <g id="patch_8">
    <path d="M 622.8 648 
L 622.8 552 
L 622.8 168 
L 622.8 72 
L 651.6 72 
L 651.6 168 
L 651.6 552 
L 651.6 648 
z
" style="fill:none;stroke:#000000;stroke-linejoin:miter;stroke-width:0.8;"/>
   </g>
  </g>
 </g>
 <defs>
  <clipPath id="p0df86a3a0a">
   <rect height="576" width="421.2" x="72" y="72"/>
  </clipPath>
  <clipPath id="pc3d682b624">
   <rect height="576" width="28.8" x="622.8" y="72"/>
  </clipPath>
 </defs>
</svg>
