<svg viewBox="0 0 418.213 393.635" fill="none" stroke-linecap="square" stroke-miterlimit="10" xmlns="http://www.w3.org/2000/svg"><clipPath id="a"><path d="M0 0h418.213v393.635H0V0z"/></clipPath><g clip-path="url(#a)"><path d="M0 0h418.213v393.635H0z"/><path fill="#f3f3f3" d="M0 0h418.866v393.7H0z" fill-rule="evenodd"/><path fill="#e69138" d="M9.617 132.234h400.63v42.015H9.617z" fill-rule="evenodd"/><path stroke="#434343" stroke-width="2" stroke-linejoin="round" stroke-linecap="butt" d="M9.617 132.234h400.63v42.015H9.617z"/><path fill="#434343" d="m188.057 146.649-3.516 13.312h-1.968l-2.438-8.468-.203-.735q-.094-.39-.187-.765-.094-.39-.157-.703-.062-.313-.093-.485-.016.172-.079.485-.062.296-.14.687-.078.375-.188.781-.093.391-.203.735l-2.375 8.468h-1.969l-3.5-13.312h1.907l2.031 8.078q.11.39.203.813.094.406.172.828.078.422.14.812.079.375.126.719.046-.344.109-.75.078-.406.156-.828.094-.422.188-.828.11-.407.218-.782l2.282-8.062h1.86l2.358 8.11q.11.374.22.796.109.422.187.844.093.406.156.797.078.375.125.703.062-.453.156-.984.11-.532.235-1.094.125-.563.25-1.11l2.03-8.062h1.907zm5.708 3.094q1.312 0 2.25.562.937.563 1.437 1.578.5 1.016.5 2.407v1.03h-6.812q.015 1.61.812 2.485.813.86 2.266.86.953 0 1.703-.188.75-.187 1.547-.531v1.531q-.766.344-1.531.5-.75.172-1.813.172-1.453 0-2.547-.578-1.093-.594-1.703-1.735-.61-1.14-.61-2.828 0-1.656.548-2.828.562-1.187 1.562-1.812 1.016-.625 2.39-.625zm-.016 1.422q-1.11 0-1.781.734-.672.719-.797 2.062h4.938q-.016-.828-.266-1.453-.25-.64-.766-.984-.515-.36-1.328-.36zm8.519-5.375v3.484q0 .594-.031 1.172-.031.562-.063.875h.094q.406-.656 1.156-1.11.75-.468 1.938-.468 1.828 0 2.922 1.312 1.109 1.313 1.109 3.875 0 1.703-.5 2.875-.5 1.156-1.422 1.75-.922.594-2.156.594-1.172 0-1.906-.438-.72-.437-1.141-1.03h-.125l-.344 1.28h-1.36V145.79h1.829zm2.688 5.468q-1 0-1.594.391-.578.39-.844 1.187-.25.782-.25 1.985v.14q0 1.782.578 2.735.594.937 2.11.937 1.265 0 1.906-.953.656-.969.656-2.765 0-1.829-.656-2.735-.64-.922-1.906-.922zm12.764 1.594h4.812v6.578q-1.046.344-2.171.531-1.11.188-2.485.188-2.062 0-3.484-.813-1.406-.828-2.14-2.359-.735-1.531-.735-3.687 0-2.063.812-3.594.813-1.547 2.36-2.39 1.547-.86 3.734-.86 1.094 0 2.094.219 1.015.203 1.86.578l-.673 1.578q-.703-.313-1.578-.531-.86-.235-1.765-.235-1.532 0-2.641.656-1.094.641-1.688 1.813-.578 1.172-.578 2.781 0 1.578.485 2.766.5 1.172 1.547 1.828 1.046.656 2.687.656.844 0 1.422-.094.594-.093 1.078-.218v-3.75h-2.953v-1.64zm11.68-6.203q2.578 0 3.765 1.031 1.188 1.016 1.188 2.922 0 .844-.281 1.625-.266.766-.875 1.36-.61.578-1.625.921-1 .344-2.453.344h-1.516v5.11h-1.875v-13.313h3.672zm-.14 1.562h-1.657v5.063h1.312q1.157 0 1.938-.25.797-.266 1.187-.844.407-.578.407-1.515 0-1.235-.782-1.844-.765-.61-2.406-.61zm18.084-1.562v8.61q0 1.406-.578 2.515-.578 1.094-1.75 1.734-1.156.641-2.922.641-2.5 0-3.828-1.344-1.313-1.344-1.313-3.578v-8.578h1.875v8.5q0 1.687.844 2.547.844.86 2.516.86 1.14 0 1.86-.407.734-.422 1.077-1.188.36-.765.36-1.812v-8.5h1.859z"/><path d="M9.617 184.486h195.622V226.5H9.617z"/><path stroke="#434343" stroke-width="2" stroke-linejoin="round" stroke-linecap="butt" d="M9.617 184.486h195.622V226.5H9.617z"/><path fill="#434343" d="m81.944 212.213-1.468-3.968H75.24l-1.453 3.968H71.85l5.078-13.375h1.922l5.047 13.375h-1.954zm-2-5.578-1.39-3.937q-.078-.188-.203-.594-.125-.406-.266-.828-.125-.438-.219-.719-.078.375-.203.797l-.234.766q-.11.36-.188.578l-1.422 3.937h4.125zm9.008 5.766q-1.844 0-2.937-1.297-1.094-1.312-1.094-3.875 0-2.578 1.11-3.906 1.109-1.328 2.968-1.328.766 0 1.344.218.593.204 1.015.547.422.344.703.782h.11q-.047-.282-.094-.782-.047-.515-.047-.906v-3.812h1.844v14.171H92.42l-.297-1.39h-.094q-.265.437-.687.797-.422.36-1.016.578-.578.203-1.375.203zm.422-1.5q1.484 0 2.094-.86.625-.859.64-2.53v-.282q0-1.797-.593-2.75-.594-.969-2.157-.969-1.281 0-1.922 1-.64.985-.64 2.75 0 1.75.64 2.703.641.938 1.938.938zm11.467-8.906q1.86 0 2.766.828.922.828.922 2.61v6.78h-1.313l-.343-1.453h-.078q-.422.547-.875.907-.454.359-1.047.546-.594.188-1.453.188-.922 0-1.625-.328-.704-.328-1.11-.985-.406-.671-.406-1.687 0-1.531 1.172-2.328 1.172-.797 3.562-.86l1.735-.078v-.562q0-1.172-.532-1.656-.515-.485-1.468-.485-.766 0-1.485.235-.703.218-1.36.515l-.577-1.328q.703-.36 1.61-.61.905-.25 1.905-.25zm1.875 5.343-1.39.063q-1.75.062-2.453.578-.703.516-.703 1.438 0 .796.484 1.171t1.266.375q1.234 0 2.015-.687.781-.688.781-2.031v-.907zm9.814-5.343q1.828 0 2.921 1.297 1.094 1.296 1.094 3.875 0 1.718-.5 2.875-.5 1.156-1.422 1.765-.922.594-2.14.594-.782 0-1.36-.203-.578-.219-1-.547-.406-.344-.703-.734h-.11q.032.343.063.812.047.469.047.844v4.11h-1.828v-14.5h1.5l.25 1.437h.078q.297-.453.703-.813.422-.375 1-.594.594-.218 1.407-.218zm-.422 1.515q-.97 0-1.547.375-.578.375-.844 1.125t-.297 1.875v.297q0 1.203.25 2.031.266.813.86 1.25.593.422 1.593.422.86 0 1.422-.453.578-.469.844-1.312.281-.844.281-1.97 0-1.702-.625-2.67-.625-.97-1.937-.97zm10.498 7.407q.391 0 .782-.063.406-.078.703-.187v1.406q-.313.125-.828.219-.516.109-1.047.109-.828 0-1.5-.281-.656-.282-1.063-.97-.39-.687-.39-1.89v-5.672h-1.391v-.843l1.453-.672.656-2.172h1.125v2.281h2.907v1.406h-2.907v5.641q0 .844.407 1.266.406.422 1.093.422zm7.452-8.922q1.313 0 2.25.562.938.563 1.438 1.578.5 1.016.5 2.407v1.03h-6.813q.016 1.61.813 2.485.812.86 2.265.86.953 0 1.703-.188.75-.187 1.547-.531v1.531q-.765.344-1.53.5-.75.172-1.813.172-1.454 0-2.547-.578-1.094-.594-1.703-1.735-.61-1.14-.61-2.828 0-1.656.547-2.828.563-1.187 1.563-1.812 1.015-.625 2.39-.625zm-.015 1.422q-1.11 0-1.782.734-.672.719-.797 2.062h4.938q-.016-.828-.266-1.453-.25-.64-.765-.984-.516-.36-1.328-.36zm11.518-1.422q.266 0 .579.03.328.032.562.08l-.203 1.702q-.219-.062-.5-.094-.281-.03-.531-.03-.578 0-1.11.218-.531.219-.937.64-.39.407-.625 1-.235.594-.235 1.36v5.312h-1.828v-10.03h1.469l.219 1.812h.078q.312-.547.75-1 .453-.47 1.031-.735.578-.265 1.281-.265z"/><path d="M214.617 184.486h195.622V226.5H214.617z"/><path stroke="#434343" stroke-width="2" stroke-linejoin="round" stroke-linecap="butt" d="M214.617 184.486h195.622V226.5H214.617z"/><path fill="#434343" d="m286.944 212.213-1.468-3.968h-5.235l-1.453 3.968h-1.937l5.078-13.375h1.922l5.047 13.375h-1.954zm-2-5.578-1.39-3.937q-.078-.188-.203-.594-.125-.406-.266-.828-.125-.438-.219-.719-.078.375-.203.797l-.234.766q-.11.36-.188.578l-1.422 3.937h4.125zm9.008 5.766q-1.844 0-2.938-1.297-1.093-1.312-1.093-3.875 0-2.578 1.11-3.906 1.108-1.328 2.968-1.328.765 0 1.344.218.593.204 1.015.547.422.344.703.782h.11q-.047-.282-.094-.782-.047-.515-.047-.906v-3.812h1.844v14.171h-1.453l-.297-1.39h-.094q-.266.437-.687.797-.422.36-1.016.578-.578.203-1.375.203zm.422-1.5q1.484 0 2.094-.86.625-.859.64-2.53v-.282q0-1.797-.594-2.75-.593-.969-2.156-.969-1.281 0-1.922 1-.64.985-.64 2.75 0 1.75.64 2.703.641.938 1.938.938zm11.467-8.906q1.86 0 2.766.828.922.828.922 2.61v6.78h-1.313l-.343-1.453h-.078q-.422.547-.875.907-.454.359-1.047.546-.594.188-1.453.188-.922 0-1.625-.328-.704-.328-1.11-.985-.406-.671-.406-1.687 0-1.531 1.172-2.328 1.172-.797 3.562-.86l1.735-.078v-.562q0-1.172-.532-1.656-.515-.485-1.468-.485-.766 0-1.485.235-.703.218-1.36.515l-.577-1.328q.703-.36 1.61-.61.905-.25 1.905-.25zm1.875 5.343-1.39.063q-1.75.062-2.453.578-.703.516-.703 1.438 0 .796.484 1.171t1.266.375q1.234 0 2.015-.687.781-.688.781-2.031v-.907zm9.814-5.343q1.828 0 2.921 1.297 1.094 1.296 1.094 3.875 0 1.718-.5 2.875-.5 1.156-1.422 1.765-.922.594-2.14.594-.782 0-1.36-.203-.578-.219-1-.547-.406-.344-.703-.734h-.11q.032.343.063.812.047.469.047.844v4.11h-1.828v-14.5h1.5l.25 1.437h.078q.297-.453.703-.813.422-.375 1-.594.594-.218 1.407-.218zm-.422 1.515q-.97 0-1.547.375-.578.375-.844 1.125t-.297 1.875v.297q0 1.203.25 2.031.266.813.86 1.25.593.422 1.593.422.86 0 1.422-.453.578-.469.844-1.312.281-.844.281-1.97 0-1.702-.625-2.67-.625-.97-1.937-.97zm10.498 7.407q.391 0 .782-.063.406-.078.703-.187v1.406q-.313.125-.828.219-.516.109-1.047.109-.828 0-1.5-.281-.656-.282-1.063-.97-.39-.687-.39-1.89v-5.672h-1.391v-.843l1.453-.672.656-2.172h1.125v2.281h2.907v1.406h-2.907v5.641q0 .844.407 1.266.406.422 1.093.422zm7.452-8.922q1.313 0 2.25.562.938.563 1.438 1.578.5 1.016.5 2.407v1.03h-6.813q.016 1.61.813 2.485.812.86 2.265.86.953 0 1.703-.188.75-.187 1.547-.531v1.531q-.765.344-1.53.5-.75.172-1.813.172-1.454 0-2.547-.578-1.094-.594-1.703-1.735-.61-1.14-.61-2.828 0-1.656.547-2.828.563-1.187 1.563-1.812 1.015-.625 2.39-.625zm-.015 1.422q-1.11 0-1.782.734-.672.719-.797 2.062h4.938q-.016-.828-.266-1.453-.25-.64-.765-.984-.516-.36-1.328-.36zm11.518-1.422q.266 0 .579.03.328.032.562.08l-.203 1.702q-.219-.062-.5-.094-.281-.03-.531-.03-.578 0-1.11.218-.531.219-.937.64-.39.407-.625 1-.235.594-.235 1.36v5.312h-1.828v-10.03h1.469l.219 1.812h.078q.312-.547.75-1 .453-.47 1.031-.735.578-.265 1.281-.265z"/><path d="M9.62 288.99h195.62v42.015H9.62z"/><path stroke="#434343" stroke-width="2" stroke-linejoin="round" stroke-linecap="butt" d="M9.62 288.99h195.62v42.015H9.62z"/><path fill="#434343" d="M92.668 309.936q0 2.25-.828 3.766-.828 1.5-2.406 2.265-1.578.75-3.813.75h-3.656v-13.312h4.063q2.047 0 3.53.75 1.485.734 2.298 2.187.812 1.454.812 3.594zm-1.968.047q0-1.703-.563-2.812-.547-1.125-1.625-1.657-1.062-.547-2.625-.547H83.84v10.172h1.719q2.578 0 3.86-1.297 1.28-1.296 1.28-3.859zm9.484-3.484q.266 0 .578.03.328.032.563.079l-.203 1.703q-.22-.062-.5-.094-.282-.03-.532-.03-.578 0-1.109.218-.531.219-.937.64-.391.407-.625 1-.235.594-.235 1.36v5.312h-1.828v-10.03h1.469l.219 1.812h.078q.312-.547.75-1 .453-.47 1.03-.735.579-.265 1.282-.265zm4.834.187v10.031h-1.828v-10.03h1.828zm-.906-3.812q.438 0 .75.265.313.25.313.828 0 .579-.313.844-.312.25-.75.25-.437 0-.75-.25-.297-.265-.297-.844 0-.578.297-.828.313-.265.75-.265zm6.284 13.843-3.813-10.03h1.938l2.14 5.984q.22.578.422 1.28.203.704.266 1.157h.078q.078-.453.297-1.156.219-.703.422-1.281l2.14-5.985h1.938l-3.813 10.031h-2.015zM121.73 306.5q1.313 0 2.25.562.938.563 1.438 1.578.5 1.016.5 2.407v1.03h-6.813q.016 1.61.813 2.485.812.86 2.265.86.953 0 1.703-.188.75-.187 1.547-.531v1.531q-.765.344-1.53.5-.75.172-1.813.172-1.454 0-2.547-.578-1.094-.594-1.703-1.735-.61-1.14-.61-2.828 0-1.656.547-2.828.563-1.187 1.563-1.812 1.015-.625 2.39-.625zm-.015 1.422q-1.11 0-1.782.734-.672.719-.797 2.062h4.938q-.016-.828-.266-1.453-.25-.64-.765-.984-.516-.36-1.328-.36zm11.518-1.422q.266 0 .579.03.328.032.562.079l-.203 1.703q-.219-.062-.5-.094-.281-.03-.531-.03-.578 0-1.11.218-.531.219-.937.64-.39.407-.625 1-.235.594-.235 1.36v5.312h-1.828v-10.03h1.469l.219 1.812h.078q.312-.547.75-1 .453-.47 1.031-.735.578-.265 1.281-.265z"/><path d="M214.62 288.99h195.62v42.015H214.62z"/><path stroke="#434343" stroke-width="2" stroke-linejoin="round" stroke-linecap="butt" d="M214.62 288.99h195.62v42.015H214.62z"/><path fill="#434343" d="M297.668 309.936q0 2.25-.828 3.766-.828 1.5-2.406 2.265-1.578.75-3.813.75h-3.656v-13.312h4.063q2.047 0 3.53.75 1.485.734 2.298 2.187.812 1.454.812 3.594zm-1.968.047q0-1.703-.563-2.812-.547-1.125-1.625-1.657-1.062-.547-2.625-.547h-2.047v10.172h1.719q2.578 0 3.86-1.297 1.28-1.296 1.28-3.859zm9.484-3.484q.266 0 .578.03.328.032.563.079l-.203 1.703q-.22-.062-.5-.094-.282-.03-.532-.03-.578 0-1.109.218-.531.219-.937.64-.391.407-.625 1-.235.594-.235 1.36v5.312h-1.828v-10.03h1.469l.219 1.812h.078q.312-.547.75-1 .453-.47 1.03-.735.579-.265 1.282-.265zm4.834.187v10.031h-1.828v-10.03h1.828zm-.906-3.812q.438 0 .75.265.313.25.313.828 0 .579-.313.844-.312.25-.75.25-.437 0-.75-.25-.297-.265-.297-.844 0-.578.297-.828.313-.265.75-.265zm6.284 13.843-3.813-10.03h1.938l2.14 5.984q.22.578.422 1.28.203.704.266 1.157h.078q.078-.453.297-1.156.219-.703.422-1.281l2.14-5.985h1.938l-3.813 10.031h-2.015zM326.73 306.5q1.313 0 2.25.562.938.563 1.438 1.578.5 1.016.5 2.407v1.03h-6.813q.016 1.61.813 2.485.812.86 2.265.86.953 0 1.703-.188.75-.187 1.547-.531v1.531q-.765.344-1.53.5-.75.172-1.813.172-1.454 0-2.547-.578-1.094-.594-1.703-1.735-.61-1.14-.61-2.828 0-1.656.547-2.828.563-1.187 1.563-1.812 1.015-.625 2.39-.625zm-.015 1.422q-1.11 0-1.782.734-.672.719-.797 2.062h4.938q-.016-.828-.266-1.453-.25-.64-.765-.984-.516-.36-1.328-.36zm11.518-1.422q.266 0 .579.03.328.032.562.079l-.203 1.703q-.219-.062-.5-.094-.281-.03-.531-.03-.578 0-1.11.218-.531.219-.937.64-.39.407-.625 1-.235.594-.235 1.36v5.312h-1.828v-10.03h1.469l.219 1.812h.078q.312-.547.75-1 .453-.47 1.031-.735.578-.265 1.281-.265z"/><path d="M9.617 63.824h95.118v58.173H9.617z"/><path stroke="#434343" stroke-width="2" stroke-linejoin="round" stroke-linecap="butt" d="M9.617 63.824h95.118v58.173H9.617z"/><path fill="#434343" d="M32.516 89.07V77.65h1.61v10.03h4.952v1.39h-6.562zm15.851-4.327q0 1.062-.281 1.906-.266.828-.797 1.406-.531.563-1.281.875-.734.297-1.672.297-.875 0-1.61-.297-.718-.312-1.25-.875-.53-.578-.827-1.406-.282-.844-.282-1.906 0-1.407.485-2.407.484-1 1.375-1.515.906-.516 2.156-.516 1.187 0 2.078.531.906.516 1.406 1.516.5.984.5 2.39zm-6.39 0q0 1 .25 1.718.25.704.78 1.094.532.375 1.36.375.828 0 1.36-.375.53-.39.78-1.094.25-.718.25-1.718 0-.985-.25-1.688t-.78-1.078q-.532-.375-1.375-.375-1.235 0-1.813.828-.562.828-.562 2.313zm11.007 8.172q-1.734 0-2.656-.641-.922-.625-.922-1.75 0-.813.5-1.375.516-.563 1.422-.75-.344-.156-.594-.484-.234-.329-.234-.735 0-.469.266-.812.265-.36.812-.688-.687-.281-1.11-.922-.405-.656-.405-1.531 0-.937.39-1.594.406-.656 1.14-1 .75-.343 1.813-.343.235 0 .485.03.25.016.468.063.235.032.375.063h2.97v.937l-1.532.235q.219.297.36.703.14.406.14.89 0 1.313-.89 2.079-.891.75-2.47.75-.374 0-.75-.063-.328.203-.5.438-.171.218-.171.515 0 .235.14.375.157.14.438.203.297.063.719.063h1.5q1.406 0 2.156.594.75.593.75 1.75 0 1.437-1.188 2.218-1.187.782-3.422.782zm.047-1.141q1.016 0 1.688-.203.672-.203 1.015-.578.344-.375.344-.891 0-.469-.219-.719-.218-.25-.656-.328-.437-.094-1.078-.094h-1.422q-.547 0-.953.172-.406.172-.64.5-.22.328-.22.797 0 .656.548 1 .562.344 1.593.344zm.344-6.797q.875 0 1.297-.453.437-.469.437-1.313 0-.921-.437-1.375-.438-.468-1.297-.468-.844 0-1.281.484-.438.469-.438 1.375 0 .828.438 1.297.453.453 1.281.453zm7.508-4.516v8.61H59.32v-8.61h1.563zm-.766-3.265q.375 0 .64.219.267.218.267.718 0 .485-.266.719-.266.219-.64.219-.391 0-.657-.219-.25-.234-.25-.719 0-.5.25-.718.266-.22.656-.22zm6.907 12.031q-1.188 0-2.079-.469-.89-.484-1.375-1.468-.484-.985-.484-2.485 0-1.562.516-2.547.53-1 1.453-1.468.922-.485 2.125-.485.703 0 1.312.14.61.141 1.032.345l-.47 1.28q-.437-.171-.952-.296-.5-.14-.953-.14-.829 0-1.375.359-.532.359-.813 1.062-.266.703-.266 1.735 0 1 .266 1.703.266.687.797 1.047.531.359 1.312.359.704 0 1.25-.156.563-.157 1.032-.407v1.391q-.453.25-1 .375-.547.125-1.328.125zm7.648-8.922q1.594 0 2.375.719.797.703.797 2.219v5.828h-1.125l-.313-1.25h-.062q-.36.469-.75.781-.39.313-.906.469-.5.156-1.235.156-.781 0-1.39-.281-.61-.281-.97-.844-.343-.578-.343-1.453 0-1.313 1-1.984 1.016-.688 3.063-.75l1.484-.063v-.484q0-1-.453-1.407-.438-.421-1.25-.421-.656 0-1.266.187-.61.188-1.172.453l-.5-1.14q.61-.313 1.375-.516.782-.219 1.64-.219zm1.61 4.578-1.204.063q-1.484.047-2.094.5-.609.437-.609 1.219 0 .687.406 1.015.422.313 1.11.313 1.047 0 1.718-.578.672-.594.672-1.75v-.782zm5.757 4.188h-1.578V76.915h1.578V89.07zm-39.262 13.372q0 1.937-.718 3.234-.703 1.281-2.047 1.938-1.344.656-3.266.656h-3.14V96.849h3.484q1.75 0 3.016.64 1.28.626 1.968 1.876.703 1.25.703 3.078zm-1.671.047q0-1.47-.485-2.422-.469-.953-1.39-1.407-.922-.468-2.266-.468h-1.75v8.718h1.469q2.218 0 3.312-1.109 1.11-1.11 1.11-3.312zm7.359-2.985q1.125 0 1.922.485.812.468 1.234 1.343.438.875.438 2.063v.89h-5.844q.016 1.391.703 2.125.688.735 1.938.735.812 0 1.453-.156.64-.157 1.328-.454v1.313q-.64.297-1.297.437-.656.141-1.563.141-1.25 0-2.187-.5-.938-.5-1.469-1.484-.515-.985-.515-2.422 0-1.422.468-2.422.485-1.016 1.344-1.547.875-.547 2.047-.547zm-.016 1.219q-.953 0-1.531.625-.578.61-.672 1.766h4.235q-.016-.704-.235-1.235-.219-.547-.656-.844-.438-.312-1.14-.312zm7.68 7.547-3.281-8.61h1.672l1.828 5.125q.187.516.36 1.125.171.594.233.985h.063q.078-.406.266-1 .187-.61.359-1.11l1.828-5.125h1.672l-3.281 8.61h-1.719zm7.898-8.61v8.61h-1.562v-8.61h1.562zm-.765-3.265q.375 0 .64.219.266.218.266.718 0 .485-.266.719-.265.219-.64.219-.39 0-.656-.219-.25-.234-.25-.719 0-.5.25-.718.265-.22.656-.22zm6.906 12.031q-1.187 0-2.078-.469-.89-.484-1.375-1.468-.484-.985-.484-2.485 0-1.562.515-2.547.531-1 1.453-1.468.922-.485 2.125-.485.703 0 1.313.14.61.141 1.031.345l-.469 1.28q-.437-.171-.953-.296-.5-.14-.953-.14-.828 0-1.375.359-.531.359-.812 1.062-.266.703-.266 1.735 0 1 .266 1.703.265.687.796 1.047.532.359 1.313.359.703 0 1.25-.156.562-.157 1.031-.407v1.391q-.453.25-1 .375-.547.125-1.328.125zm7.727-8.922q1.125 0 1.921.485.813.468 1.235 1.343.437.875.437 2.063v.89h-5.843q.015 1.391.703 2.125.687.735 1.937.735.813 0 1.453-.156.641-.157 1.328-.454v1.313q-.64.297-1.296.437-.657.141-1.563.141-1.25 0-2.187-.5-.938-.5-1.47-1.484-.515-.985-.515-2.422 0-1.422.469-2.422.484-1.016 1.344-1.547.875-.547 2.047-.547zm-.016 1.219q-.953 0-1.531.625-.578.61-.672 1.766h4.234q-.015-.704-.234-1.235-.219-.547-.656-.844-.438-.312-1.141-.312z"/><path d="M114.126 63.824h91.118v58.173h-91.118z"/><path stroke="#434343" stroke-width="2" stroke-linejoin="round" stroke-linecap="butt" d="M114.126 63.824h91.118v58.173h-91.118z"/><path fill="#434343" d="M135.025 89.07V77.65h1.61v10.03h4.952v1.39h-6.562zm15.851-4.327q0 1.062-.28 1.906-.266.828-.798 1.406-.53.563-1.28.875-.735.297-1.673.297-.875 0-1.61-.297-.718-.312-1.25-.875-.53-.578-.827-1.406-.282-.844-.282-1.906 0-1.407.485-2.407.484-1 1.375-1.515.906-.516 2.156-.516 1.188 0 2.078.531.906.516 1.406 1.516.5.984.5 2.39zm-6.39 0q0 1 .25 1.718.25.704.781 1.094.531.375 1.36.375.828 0 1.359-.375.531-.39.781-1.094.25-.718.25-1.718 0-.985-.25-1.688t-.781-1.078q-.531-.375-1.375-.375-1.235 0-1.813.828-.562.828-.562 2.313zm11.008 8.172q-1.735 0-2.657-.641-.921-.625-.921-1.75 0-.813.5-1.375.515-.563 1.421-.75-.343-.156-.593-.484-.235-.329-.235-.735 0-.469.266-.812.266-.36.812-.688-.687-.281-1.109-.922-.406-.656-.406-1.531 0-.937.39-1.594.407-.656 1.141-1 .75-.343 1.813-.343.234 0 .484.03.25.016.469.063.234.032.375.063h2.968v.937l-1.53.235q.218.297.359.703.14.406.14.89 0 1.313-.89 2.079-.891.75-2.47.75-.374 0-.75-.063-.327.203-.5.438-.171.218-.171.515 0 .235.14.375.157.14.438.203.297.063.719.063h1.5q1.406 0 2.156.594.75.593.75 1.75 0 1.437-1.187 2.218-1.188.782-3.422.782zm.047-1.141q1.015 0 1.687-.203.672-.203 1.016-.578.343-.375.343-.891 0-.469-.218-.719-.22-.25-.657-.328-.437-.094-1.078-.094h-1.422q-.546 0-.953.172-.406.172-.64.5-.22.328-.22.797 0 .656.548 1 .562.344 1.594.344zm.343-6.797q.875 0 1.297-.453.438-.469.438-1.313 0-.921-.438-1.375-.437-.468-1.297-.468-.843 0-1.281.484-.437.469-.437 1.375 0 .828.437 1.297.453.453 1.281.453zm7.508-4.516v8.61h-1.562v-8.61h1.562zm-.766-3.265q.375 0 .641.219.266.218.266.718 0 .485-.266.719-.266.219-.64.219-.391 0-.657-.219-.25-.234-.25-.719 0-.5.25-.718.266-.22.656-.22zm6.907 12.031q-1.188 0-2.078-.469-.891-.484-1.375-1.468-.485-.985-.485-2.485 0-1.562.516-2.547.531-1 1.453-1.468.922-.485 2.125-.485.703 0 1.312.14.61.141 1.032.345l-.469 1.28q-.438-.171-.953-.296-.5-.14-.953-.14-.828 0-1.375.359-.532.359-.813 1.062-.265.703-.265 1.735 0 1 .265 1.703.266.687.797 1.047.531.359 1.313.359.703 0 1.25-.156.562-.157 1.03-.407v1.391q-.452.25-1 .375-.546.125-1.327.125zm7.648-8.922q1.594 0 2.375.719.797.703.797 2.219v5.828h-1.125l-.312-1.25h-.063q-.36.469-.75.781-.39.313-.906.469-.5.156-1.235.156-.78 0-1.39-.281-.61-.281-.969-.844-.344-.578-.344-1.453 0-1.313 1-1.984 1.016-.688 3.063-.75l1.484-.063v-.484q0-1-.453-1.407-.437-.421-1.25-.421-.656 0-1.266.187-.609.188-1.171.453l-.5-1.14q.609-.313 1.375-.516.78-.219 1.64-.219zm1.61 4.578-1.204.063q-1.484.047-2.093.5-.61.437-.61 1.219 0 .687.407 1.015.421.313 1.109.313 1.047 0 1.719-.578.672-.594.672-1.75v-.782zm5.757 4.188h-1.578V76.915h1.578V89.07zm-39.261 13.372q0 1.937-.72 3.234-.702 1.281-2.046 1.938-1.344.656-3.266.656h-3.14V96.849h3.484q1.75 0 3.016.64 1.281.626 1.968 1.876.704 1.25.704 3.078zm-1.672.047q0-1.47-.485-2.422-.468-.953-1.39-1.407-.922-.468-2.266-.468h-1.75v8.718h1.469q2.219 0 3.312-1.109 1.11-1.11 1.11-3.312zm7.36-2.985q1.124 0 1.921.485.812.468 1.234 1.343.438.875.438 2.063v.89h-5.844q.016 1.391.703 2.125.688.735 1.938.735.812 0 1.453-.156.64-.157 1.328-.454v1.313q-.64.297-1.297.437-.656.141-1.562.141-1.25 0-2.188-.5-.937-.5-1.469-1.484-.515-.985-.515-2.422 0-1.422.468-2.422.485-1.016 1.344-1.547.875-.547 2.047-.547zm-.017 1.219q-.953 0-1.53.625-.579.61-.673 1.766h4.235q-.016-.704-.235-1.235-.218-.547-.656-.844-.437-.312-1.14-.312zm7.68 7.547-3.281-8.61h1.672l1.828 5.125q.187.516.36 1.125.171.594.234.985h.062q.078-.406.266-1 .187-.61.36-1.11l1.827-5.125h1.672l-3.281 8.61h-1.719zm7.899-8.61v8.61h-1.563v-8.61h1.563zm-.766-3.265q.375 0 .64.219.266.218.266.718 0 .485-.265.719-.266.219-.641.219-.39 0-.656-.219-.25-.234-.25-.719 0-.5.25-.718.265-.22.656-.22zm6.906 12.031q-1.187 0-2.078-.469-.89-.484-1.375-1.468-.484-.985-.484-2.485 0-1.562.515-2.547.532-1 1.453-1.468.922-.485 2.125-.485.704 0 1.313.14.61.141 1.031.345l-.469 1.28q-.437-.171-.953-.296-.5-.14-.953-.14-.828 0-1.375.359-.531.359-.812 1.062-.266.703-.266 1.735 0 1 .266 1.703.265.687.797 1.047.53.359 1.312.359.703 0 1.25-.156.563-.157 1.031-.407v1.391q-.453.25-1 .375-.547.125-1.328.125zm7.727-8.922q1.125 0 1.922.485.812.468 1.234 1.343.438.875.438 2.063v.89h-5.844q.015 1.391.703 2.125.687.735 1.937.735.813 0 1.454-.156.64-.157 1.328-.454v1.313q-.641.297-1.297.437-.656.141-1.563.141-1.25 0-2.187-.5-.938-.5-1.469-1.484-.516-.985-.516-2.422 0-1.422.47-2.422.484-1.016 1.343-1.547.875-.547 2.047-.547zm-.016 1.219q-.953 0-1.531.625-.578.61-.672 1.766h4.234q-.015-.704-.234-1.235-.219-.547-.656-.844-.438-.312-1.14-.312z"/><path d="M9.624 11.572h95.118v42.016H9.624z"/><path stroke="#434343" stroke-width="2" stroke-linejoin="round" stroke-linecap="butt" d="M9.624 11.572h95.118v42.016H9.624z"/><path fill="#434343" d="m41.97 39.3-1.469-3.969h-5.234l-1.453 3.97h-1.938l5.079-13.376h1.921L43.923 39.3H41.97zm-2-5.578-1.39-3.938q-.079-.187-.204-.593-.125-.407-.265-.828-.125-.438-.219-.72-.078.376-.203.798l-.234.765q-.11.36-.188.578l-1.422 3.938h4.125zm10.476-4.64q1.829 0 2.922 1.296 1.094 1.297 1.094 3.875 0 1.719-.5 2.875t-1.422 1.766q-.922.594-2.14.594-.782 0-1.36-.204-.578-.218-1-.546-.406-.344-.703-.735h-.11q.032.344.063.813.047.468.047.843v4.11H45.51v-14.5h1.5l.25 1.437h.078q.297-.453.703-.812.422-.375 1-.594.594-.219 1.406-.219zm-.421 1.515q-.97 0-1.547.375-.578.375-.844 1.125t-.297 1.875v.297q0 1.203.25 2.031.266.813.86 1.25.593.422 1.593.422.86 0 1.422-.453.578-.469.844-1.313.281-.843.281-1.968 0-1.704-.625-2.672-.625-.97-1.937-.97zM61.96 29.08q1.828 0 2.922 1.297t1.094 3.875q0 1.719-.5 2.875t-1.422 1.766q-.922.594-2.141.594-.781 0-1.36-.204-.577-.218-1-.546-.406-.344-.702-.735h-.11q.031.344.063.813.047.468.047.843v4.11h-1.829v-14.5h1.5l.25 1.437h.079q.296-.453.703-.812.422-.375 1-.594.593-.219 1.406-.219zm-.422 1.516q-.969 0-1.547.375t-.844 1.125q-.265.75-.296 1.875v.297q0 1.203.25 2.031.265.813.859 1.25.594.422 1.594.422.859 0 1.422-.453.578-.469.843-1.313.282-.843.282-1.968 0-1.704-.625-2.672-.625-.97-1.938-.97zM78.665 39.3h-1.812v-9.89q0-.406.015-.78.032-.376.047-.72-.234.25-.5.485-.25.219-.593.5l-1.516 1.219-.938-1.204 3.766-2.921h1.531V39.3z"/><path d="M114.133 11.572h91.118v42.016h-91.118z"/><path stroke="#434343" stroke-width="2" stroke-linejoin="round" stroke-linecap="butt" d="M114.133 11.572h91.118v42.016h-91.118z"/><path fill="#434343" d="m144.48 39.3-1.47-3.969h-5.234l-1.453 3.97h-1.938l5.079-13.376h1.922l5.046 13.375h-1.953zm-2-5.578-1.391-3.938q-.078-.187-.203-.593-.125-.407-.266-.828-.125-.438-.219-.72-.078.376-.203.798l-.234.765q-.11.36-.188.578l-1.422 3.938h4.125zm10.476-4.64q1.828 0 2.921 1.296 1.094 1.297 1.094 3.875 0 1.719-.5 2.875t-1.422 1.766q-.922.594-2.14.594-.782 0-1.36-.204-.578-.218-1-.546-.406-.344-.703-.735h-.11q.032.344.063.813.047.468.047.843v4.11h-1.828v-14.5h1.5l.25 1.437h.078q.297-.453.703-.812.422-.375 1-.594.594-.219 1.407-.219zm-.422 1.515q-.969 0-1.547.375t-.844 1.125q-.266.75-.297 1.875v.297q0 1.203.25 2.031.266.813.86 1.25.593.422 1.593.422.86 0 1.422-.453.578-.469.844-1.313.281-.843.281-1.968 0-1.704-.625-2.672-.625-.97-1.937-.97zm11.936-1.516q1.828 0 2.922 1.297t1.094 3.875q0 1.719-.5 2.875t-1.422 1.766q-.922.594-2.14.594-.782 0-1.36-.204-.578-.218-1-.546-.407-.344-.703-.735h-.11q.031.344.063.813.047.468.047.843v4.11h-1.829v-14.5h1.5l.25 1.437h.079q.296-.453.703-.812.422-.375 1-.594.593-.219 1.406-.219zm-.422 1.516q-.969 0-1.547.375t-.844 1.125q-.265.75-.296 1.875v.297q0 1.203.25 2.031.265.813.859 1.25.594.422 1.594.422.86 0 1.422-.453.578-.469.843-1.313.282-.843.282-1.968 0-1.704-.625-2.672-.625-.97-1.938-.97zm20.033 8.703h-8.875v-1.437l3.5-3.563q1.015-1.016 1.672-1.766.656-.765.984-1.484.344-.719.344-1.562 0-1.032-.61-1.579-.61-.546-1.625-.546-.906 0-1.64.328-.735.328-1.516.953l-.984-1.219q.547-.453 1.172-.828.625-.375 1.375-.594.75-.219 1.656-.219 1.25 0 2.156.438.906.437 1.39 1.25.5.797.5 1.875 0 1.062-.421 1.969-.422.906-1.203 1.797-.782.89-1.828 1.906l-2.594 2.562v.094h6.547V39.3z"/><path d="M214.617 63.824h97.48v58.173h-97.48z"/><path stroke="#434343" stroke-width="2" stroke-linejoin="round" stroke-linecap="butt" d="M214.617 63.824h97.48v58.173h-97.48z"/><path fill="#434343" d="M258.087 97.78q0-.594.297-.844.313-.25.735-.25.437 0 .734.25.313.25.313.844 0 .578-.313.844-.297.266-.734.266-.422 0-.735-.266-.297-.266-.297-.844zm4.25 0q0-.594.297-.844.313-.25.735-.25.437 0 .734.25.313.25.313.844 0 .578-.313.844-.297.266-.734.266-.422 0-.735-.266-.297-.266-.297-.844zm4.22 0q0-.594.296-.844.313-.25.734-.25.438 0 .735.25.312.25.312.844 0 .578-.312.844-.297.266-.735.266-.421 0-.734-.266-.297-.266-.297-.844z"/><path d="M321.478 63.824h86.897v58.173h-86.897z"/><path stroke="#434343" stroke-width="2" stroke-linejoin="round" stroke-linecap="butt" d="M321.478 63.824h86.897v58.173h-86.897z"/><path fill="#434343" d="M340.266 89.07V77.65h1.61v10.03h4.953v1.39h-6.563zm15.852-4.327q0 1.062-.281 1.906-.266.828-.797 1.406-.531.563-1.281.875-.735.297-1.672.297-.875 0-1.61-.297-.718-.312-1.25-.875-.531-.578-.828-1.406-.281-.844-.281-1.906 0-1.407.484-2.407.485-1 1.375-1.515.907-.516 2.157-.516 1.187 0 2.078.531.906.516 1.406 1.516.5.984.5 2.39zm-6.39 0q0 1 .25 1.718.25.704.78 1.094.532.375 1.36.375.828 0 1.36-.375.53-.39.78-1.094.25-.718.25-1.718 0-.985-.25-1.688t-.78-1.078q-.532-.375-1.376-.375-1.234 0-1.812.828-.563.828-.563 2.313zm11.007 8.172q-1.734 0-2.656-.641-.922-.625-.922-1.75 0-.813.5-1.375.516-.563 1.422-.75-.344-.156-.594-.484-.234-.329-.234-.735 0-.469.265-.812.266-.36.813-.688-.688-.281-1.11-.922-.406-.656-.406-1.531 0-.937.39-1.594.407-.656 1.141-1 .75-.343 1.813-.343.234 0 .484.03.25.016.47.063.233.032.374.063h2.969v.937l-1.531.235q.218.297.359.703.14.406.14.89 0 1.313-.89 2.079-.89.75-2.469.75-.375 0-.75-.063-.328.203-.5.438-.172.218-.172.515 0 .235.141.375.156.14.437.203.297.063.72.063h1.5q1.405 0 2.155.594.75.593.75 1.75 0 1.437-1.187 2.218-1.188.782-3.422.782zm.047-1.141q1.016 0 1.687-.203.672-.203 1.016-.578.344-.375.344-.891 0-.469-.219-.719t-.656-.328q-.438-.094-1.078-.094h-1.422q-.547 0-.953.172-.407.172-.64.5-.22.328-.22.797 0 .656.547 1 .563.344 1.594.344zm.344-6.797q.875 0 1.297-.453.437-.469.437-1.313 0-.921-.437-1.375-.438-.468-1.297-.468-.844 0-1.282.484-.437.469-.437 1.375 0 .828.437 1.297.454.453 1.282.453zm7.508-4.516v8.61h-1.563v-8.61h1.563zm-.766-3.265q.375 0 .64.219.266.218.266.718 0 .485-.265.719-.266.219-.641.219-.39 0-.656-.219-.25-.234-.25-.719 0-.5.25-.718.265-.22.656-.22zm6.906 12.031q-1.187 0-2.078-.469-.89-.484-1.375-1.468-.484-.985-.484-2.485 0-1.562.515-2.547.532-1 1.453-1.468.922-.485 2.125-.485.704 0 1.313.14.61.141 1.031.345l-.469 1.28q-.437-.171-.953-.296-.5-.14-.953-.14-.828 0-1.375.359-.531.359-.812 1.062-.266.703-.266 1.735 0 1 .266 1.703.265.687.797 1.047.53.359 1.312.359.703 0 1.25-.156.563-.157 1.031-.407v1.391q-.453.25-1 .375-.547.125-1.328.125zm7.649-8.922q1.593 0 2.375.719.796.703.796 2.219v5.828h-1.125l-.312-1.25h-.063q-.359.469-.75.781-.39.313-.906.469-.5.156-1.234.156-.781 0-1.39-.281-.61-.281-.97-.844-.343-.578-.343-1.453 0-1.313 1-1.984 1.015-.688 3.062-.75l1.485-.063v-.484q0-1-.454-1.407-.437-.421-1.25-.421-.656 0-1.265.187-.61.188-1.172.453l-.5-1.14q.61-.313 1.375-.516.781-.219 1.64-.219zm1.609 4.578-1.203.063q-1.485.047-2.094.5-.61.437-.61 1.219 0 .687.407 1.015.422.313 1.11.313 1.046 0 1.718-.578.672-.594.672-1.75v-.782zm5.758 4.188h-1.578V76.915h1.578V89.07zm-39.262 13.372q0 1.937-.719 3.234-.703 1.281-2.047 1.938-1.343.656-3.265.656h-3.14V96.849h3.484q1.75 0 3.015.64 1.281.626 1.969 1.876.703 1.25.703 3.078zm-1.672.047q0-1.47-.484-2.422-.469-.953-1.39-1.407-.923-.468-2.266-.468h-1.75v8.718h1.468q2.22 0 3.313-1.109 1.11-1.11 1.11-3.312zm7.36-2.985q1.125 0 1.921.485.813.468 1.235 1.343.437.875.437 2.063v.89h-5.843q.015 1.391.703 2.125.687.735 1.937.735.813 0 1.453-.156.641-.157 1.328-.454v1.313q-.64.297-1.296.437-.657.141-1.563.141-1.25 0-2.187-.5-.938-.5-1.47-1.484-.515-.985-.515-2.422 0-1.422.469-2.422.484-1.016 1.344-1.547.875-.547 2.047-.547zm-.016 1.219q-.953 0-1.531.625-.578.61-.672 1.766h4.234q-.015-.704-.234-1.235-.219-.547-.656-.844-.438-.312-1.141-.312zm7.68 7.547-3.282-8.61h1.672l1.828 5.125q.188.516.36 1.125.172.594.234.985h.063q.078-.406.265-1 .188-.61.36-1.11l1.828-5.125h1.672l-3.282 8.61h-1.718zm7.898-8.61v8.61h-1.562v-8.61h1.562zm-.766-3.265q.375 0 .641.219.266.218.266.718 0 .485-.266.719-.266.219-.64.219-.391 0-.657-.219-.25-.234-.25-.719 0-.5.25-.718.266-.22.656-.22zm6.907 12.031q-1.188 0-2.078-.469-.891-.484-1.375-1.468-.485-.985-.485-2.485 0-1.562.516-2.547.531-1 1.453-1.468.922-.485 2.125-.485.703 0 1.312.14.61.141 1.032.345l-.469 1.28q-.438-.171-.953-.296-.5-.14-.953-.14-.828 0-1.375.359-.532.359-.813 1.062-.265.703-.265 1.735 0 1 .265 1.703.266.687.797 1.047.531.359 1.313.359.703 0 1.25-.156.562-.157 1.03-.407v1.391q-.452.25-1 .375-.546.125-1.327.125zm7.726-8.922q1.125 0 1.922.485.813.468 1.235 1.343.437.875.437 2.063v.89h-5.844q.016 1.391.703 2.125.688.735 1.938.735.812 0 1.453-.156.64-.157 1.328-.454v1.313q-.64.297-1.297.437-.656.141-1.562.141-1.25 0-2.188-.5-.937-.5-1.468-1.484-.516-.985-.516-2.422 0-1.422.469-2.422.484-1.016 1.343-1.547.875-.547 2.047-.547zm-.015 1.219q-.953 0-1.532.625-.578.61-.671 1.766h4.234q-.016-.704-.234-1.235-.22-.547-.657-.844-.437-.312-1.14-.312z"/><path d="M214.624 11.572h97.48v42.016h-97.48z"/><path stroke="#434343" stroke-width="2" stroke-linejoin="round" stroke-linecap="butt" d="M214.624 11.572h97.48v42.016h-97.48z"/><path fill="#434343" d="M257.223 38.269q0-.703.344-.985.359-.296.859-.296t.86.296q.359.282.359.985 0 .672-.36.984-.359.297-.859.297t-.86-.297q-.343-.312-.343-.984zm4.953 0q0-.703.344-.985.36-.296.86-.296t.858.296q.36.282.36.985 0 .672-.36.984-.359.297-.859.297t-.86-.297q-.343-.312-.343-.984zm4.906 0q0-.703.344-.985.36-.296.86-.296t.859.296q.36.282.36.985 0 .672-.36.984-.36.297-.86.297t-.859-.297q-.344-.312-.344-.984z"/><path d="M321.484 11.572h86.898v42.016h-86.898z"/><path stroke="#434343" stroke-width="2" stroke-linejoin="round" stroke-linecap="butt" d="M321.484 11.572h86.898v42.016h-86.898z"/><path fill="#434343" d="m349.229 39.3-1.47-3.969h-5.234l-1.453 3.97h-1.937l5.078-13.376h1.922l5.047 13.375h-1.953zm-2-5.578-1.391-3.938q-.078-.187-.203-.593-.125-.407-.266-.828-.125-.438-.219-.72-.078.376-.203.798l-.234.765q-.11.36-.188.578l-1.421 3.938h4.125zm10.476-4.64q1.828 0 2.922 1.296 1.093 1.297 1.093 3.875 0 1.719-.5 2.875t-1.421 1.766q-.922.594-2.141.594-.781 0-1.36-.204-.578-.218-1-.546-.406-.344-.703-.735h-.109q.031.344.063.813.046.468.046.843v4.11h-1.828v-14.5h1.5l.25 1.437h.078q.297-.453.704-.812.421-.375 1-.594.593-.219 1.406-.219zm-.422 1.515q-.969 0-1.547.375t-.844 1.125q-.265.75-.297 1.875v.297q0 1.203.25 2.031.266.813.86 1.25.594.422 1.594.422.859 0 1.421-.453.579-.469.844-1.313.281-.843.281-1.968 0-1.704-.625-2.672-.625-.97-1.937-.97zm11.936-1.516q1.828 0 2.922 1.297t1.094 3.875q0 1.719-.5 2.875t-1.422 1.766q-.922.594-2.14.594-.782 0-1.36-.204-.578-.218-1-.546-.406-.344-.703-.735H366q.032.344.063.813.047.468.047.843v4.11h-1.828v-14.5h1.5l.25 1.437h.078q.297-.453.703-.812.422-.375 1-.594.594-.219 1.406-.219zm-.422 1.516q-.968 0-1.546.375-.579.375-.844 1.125-.266.75-.297 1.875v.297q0 1.203.25 2.031.266.813.86 1.25.593.422 1.593.422.86 0 1.422-.453.578-.469.844-1.313.28-.843.28-1.968 0-1.704-.624-2.672-.625-.97-1.938-.97zm16.83-1.516q1.75 0 2.672.875.937.875.937 2.797V39.3h-1.812v-6.297q0-1.203-.532-1.797-.53-.61-1.625-.61-1.546 0-2.171.923-.625.906-.625 2.656V39.3h-1.829V29.27h1.438l.266 1.406h.109q.312-.531.797-.875.5-.36 1.11-.531.609-.188 1.265-.188z"/><path d="M9.62 236.738h195.62v42.015H9.62z"/><path stroke="#434343" stroke-width="2" stroke-linejoin="round" stroke-linecap="butt" d="M9.62 236.738h195.62v42.015H9.62z"/><path fill="#434343" d="M91.621 257.794q0 1.53-.39 2.796-.391 1.266-1.157 2.172-.765.907-1.921 1.407-1.157.484-2.688.484-1.578 0-2.734-.484-1.157-.5-1.922-1.407-.766-.922-1.156-2.187-.375-1.266-.375-2.813 0-2.047.671-3.578.688-1.547 2.063-2.39 1.375-.86 3.469-.86 2.03 0 3.39.86 1.375.843 2.063 2.375.687 1.53.687 3.625zm-10.375 0q0 1.609.438 2.796.453 1.172 1.39 1.829.938.64 2.391.64t2.375-.64q.938-.657 1.375-1.829.438-1.187.438-2.796 0-2.47-1-3.86-1-1.39-3.172-1.39-1.453 0-2.391.64-.937.625-1.39 1.797-.454 1.172-.454 2.813zm20.89 3.093q0 1.188-.593 2.032-.578.843-1.656 1.296-1.063.438-2.516.438-.75 0-1.422-.078-.656-.078-1.234-.219-.578-.156-1.047-.375v-1.766q.765.313 1.75.579 1 .265 2.062.265.907 0 1.532-.25t.937-.703q.328-.453.328-1.094 0-.64-.312-1.062-.297-.438-.97-.797-.67-.375-1.765-.781-.75-.282-1.375-.625-.61-.344-1.062-.797-.453-.469-.703-1.078-.235-.61-.235-1.422 0-1.094.532-1.875.546-.797 1.515-1.203.985-.422 2.266-.422 1.062 0 1.969.219.921.203 1.75.578l-.594 1.547q-.781-.329-1.563-.516-.78-.203-1.625-.203-.765 0-1.297.234-.53.219-.812.64-.281.407-.281.985 0 .656.28 1.078.298.422.923.782.64.343 1.656.734 1.125.437 1.922.937.797.485 1.219 1.172.422.688.422 1.75zm15.789 3.578-1.469-3.968h-5.234l-1.453 3.968h-1.938l5.078-13.375h1.922l5.047 13.375h-1.953zm-2-5.578-1.39-3.937q-.079-.188-.204-.594-.125-.406-.265-.828-.125-.438-.22-.719-.077.375-.202.797l-.235.766q-.109.359-.187.578l-1.422 3.937h4.125zm9.43-7.734q2.578 0 3.765 1.031 1.188 1.016 1.188 2.922 0 .844-.282 1.625-.265.766-.875 1.36-.609.578-1.625.921-1 .344-2.453.344h-1.515v5.11h-1.875v-13.313h3.671zm-.141 1.562h-1.656v5.063h1.312q1.156 0 1.938-.25.796-.266 1.187-.844.406-.578.406-1.515 0-1.235-.78-1.844-.767-.61-2.407-.61zm7.819 11.75v-13.312h1.875v13.312h-1.875z"/><path d="M214.62 236.738h195.62v42.015H214.62z"/><path stroke="#434343" stroke-width="2" stroke-linejoin="round" stroke-linecap="butt" d="M214.62 236.738h195.62v42.015H214.62z"/><path fill="#434343" d="M296.621 257.794q0 1.53-.39 2.796-.391 1.266-1.157 2.172-.765.907-1.921 1.407-1.157.484-2.688.484-1.578 0-2.734-.484-1.157-.5-1.922-1.407-.766-.922-1.156-2.187-.375-1.266-.375-2.813 0-2.047.671-3.578.688-1.547 2.063-2.39 1.375-.86 3.469-.86 2.03 0 3.39.86 1.375.843 2.063 2.375.687 1.53.687 3.625zm-10.375 0q0 1.609.438 2.796.453 1.172 1.39 1.829.938.64 2.391.64t2.375-.64q.938-.657 1.375-1.829.438-1.187.438-2.796 0-2.47-1-3.86-1-1.39-3.172-1.39-1.453 0-2.391.64-.937.625-1.39 1.797-.454 1.172-.454 2.813zm20.89 3.093q0 1.188-.593 2.032-.578.843-1.656 1.296-1.063.438-2.516.438-.75 0-1.422-.078-.656-.078-1.234-.219-.578-.156-1.047-.375v-1.766q.765.313 1.75.579 1 .265 2.062.265.907 0 1.532-.25t.937-.703q.328-.453.328-1.094 0-.64-.312-1.062-.297-.438-.97-.797-.67-.375-1.765-.781-.75-.282-1.375-.625-.61-.344-1.062-.797-.453-.469-.703-1.078-.235-.61-.235-1.422 0-1.094.532-1.875.546-.797 1.515-1.203.985-.422 2.266-.422 1.062 0 1.969.219.921.203 1.75.578l-.594 1.547q-.781-.329-1.563-.516-.78-.203-1.625-.203-.765 0-1.297.234-.53.219-.812.64-.281.407-.281.985 0 .656.28 1.078.298.422.923.782.64.343 1.656.734 1.125.437 1.922.937.797.485 1.219 1.172.422.688.422 1.75zm15.789 3.578-1.469-3.968h-5.234l-1.453 3.968h-1.938l5.078-13.375h1.922l5.047 13.375h-1.953zm-2-5.578-1.39-3.937q-.079-.188-.204-.594-.125-.406-.265-.828-.125-.438-.22-.719-.077.375-.202.797l-.235.766q-.109.359-.187.578l-1.422 3.937h4.125zm9.43-7.734q2.578 0 3.765 1.031 1.188 1.016 1.188 2.922 0 .844-.282 1.625-.265.766-.875 1.36-.609.578-1.625.921-1 .344-2.453.344h-1.515v5.11h-1.875v-13.313h3.671zm-.141 1.562h-1.656v5.063h1.312q1.156 0 1.938-.25.796-.266 1.187-.844.406-.578.406-1.515 0-1.235-.78-1.844-.767-.61-2.407-.61zm7.819 11.75v-13.312h1.875v13.312h-1.875z"/><path d="M9.62 341.241h195.62v42.016H9.62z"/><path stroke="#434343" stroke-width="2" stroke-linejoin="round" stroke-linecap="butt" d="M9.62 341.241h195.62v42.016H9.62z"/><path fill="#434343" d="M55.794 355.657h3.859q2.547 0 3.828.75 1.297.734 1.297 2.547 0 .781-.297 1.39-.281.61-.812 1.016-.532.39-1.329.547v.078q.829.14 1.47.5.64.36 1 1.016.374.64.374 1.656 0 1.219-.578 2.078-.578.844-1.625 1.297-1.047.437-2.5.437h-4.687v-13.312zm1.875 5.594h2.312q1.625 0 2.234-.516.625-.531.625-1.547 0-1.047-.75-1.5-.734-.469-2.328-.469H57.67v4.032zm0 1.546v4.594h2.53q1.657 0 2.329-.64.687-.657.687-1.75 0-.688-.312-1.172-.297-.5-.984-.766-.688-.266-1.844-.266h-2.406zm18.592-3.859v10.031h-1.453l-.266-1.375h-.094q-.312.516-.812.875-.485.344-1.094.516-.61.172-1.297.172-1.156 0-1.969-.375-.796-.39-1.218-1.203-.407-.813-.407-2.078v-6.563h1.844v6.313q0 1.203.516 1.812.531.594 1.594.594 1.062 0 1.671-.406.61-.422.875-1.22.282-.796.282-1.952v-5.14h1.828zm4.963 0v10.031h-1.828v-10.03h1.828zm-.906-3.812q.438 0 .75.265.313.25.313.828t-.313.844q-.312.25-.75.25-.437 0-.75-.25-.297-.266-.297-.844t.297-.828q.313-.265.75-.265zm5.862 13.843h-1.828v-14.172h1.828v14.172zm6.627-1.297q.39 0 .782-.062.406-.078.703-.188v1.407q-.313.125-.828.218-.516.11-1.047.11-.828 0-1.5-.281-.657-.282-1.063-.97-.39-.687-.39-1.89v-5.672h-1.391v-.843l1.453-.672.656-2.172h1.125v2.281h2.907v1.406h-2.907v5.641q0 .844.407 1.266.406.421 1.093.421zm2.655-2.921v-1.579h4.61v1.579h-4.61zm8.69-5.813v10.031h-1.827v-10.03h1.828zm-.905-3.812q.437 0 .75.265.312.25.312.828t-.312.844q-.313.25-.75.25-.438 0-.75-.25-.297-.266-.297-.844t.297-.828q.312-.265.75-.265zm9.018 3.625q1.75 0 2.672.875.937.875.937 2.796v6.547h-1.812v-6.297q0-1.203-.532-1.796-.53-.61-1.625-.61-1.547 0-2.172.922-.625.906-.625 2.656v5.125h-1.828v-10.03h1.438l.265 1.405h.11q.312-.53.797-.875.5-.359 1.11-.53.608-.188 1.265-.188zm17.278 3.109h4.813v6.578q-1.047.344-2.172.531-1.11.188-2.484.188-2.063 0-3.485-.813-1.406-.828-2.14-2.359-.735-1.531-.735-3.688 0-2.062.813-3.593.812-1.547 2.359-2.39 1.547-.86 3.734-.86 1.094 0 2.094.218 1.016.204 1.86.579l-.672 1.578q-.703-.313-1.578-.532-.86-.234-1.766-.234-1.531 0-2.64.656-1.094.641-1.688 1.813-.578 1.172-.578 2.781 0 1.578.484 2.766.5 1.172 1.547 1.828 1.047.656 2.687.656.844 0 1.422-.094.594-.093 1.078-.218v-3.75h-2.953v-1.641zm11.68-6.203q2.578 0 3.766 1.031 1.187 1.016 1.187 2.922 0 .844-.28 1.625-.267.766-.876 1.36-.61.577-1.625.921-1 .344-2.453.344h-1.516v5.11h-1.875v-13.313h3.672zm-.14 1.562h-1.657v5.063h1.313q1.156 0 1.937-.25.797-.266 1.188-.844.406-.578.406-1.516 0-1.234-.781-1.843-.766-.61-2.406-.61zm18.084-1.562v8.61q0 1.405-.578 2.515-.578 1.094-1.75 1.734-1.156.64-2.922.64-2.5 0-3.828-1.343-1.312-1.344-1.312-3.578v-8.578h1.875v8.5q0 1.687.844 2.547.843.86 2.515.86 1.14 0 1.86-.407.734-.422 1.078-1.188.359-.765.359-1.812v-8.5h1.86z"/><path d="M214.62 341.241h195.62v42.016H214.62z"/><path stroke="#434343" stroke-width="2" stroke-linejoin="round" stroke-linecap="butt" d="M214.62 341.241h195.62v42.016H214.62z"/><path fill="#434343" d="M266.81 362.188q0 2.25-.828 3.766-.828 1.5-2.406 2.265-1.579.75-3.813.75h-3.656v-13.312h4.062q2.047 0 3.532.75 1.484.734 2.296 2.187.813 1.453.813 3.594zm-1.969.047q0-1.703-.562-2.813-.547-1.125-1.625-1.656-1.063-.547-2.625-.547h-2.047v10.172h1.719q2.578 0 3.859-1.297 1.281-1.297 1.281-3.859zm6.485-3.297v10.031h-1.828v-10.03h1.828zm-.907-3.812q.438 0 .75.265.313.25.313.828t-.313.844q-.312.25-.75.25-.437 0-.75-.25-.296-.266-.296-.844t.296-.828q.313-.265.75-.265zm10.66 11.03q0 .985-.485 1.657t-1.39 1.016q-.907.328-2.188.328-1.063 0-1.828-.172-.75-.156-1.375-.453v-1.625q.656.328 1.53.578.876.234 1.72.234 1.171 0 1.687-.375.531-.375.531-1 0-.375-.218-.656-.204-.297-.735-.578-.515-.297-1.484-.672-.953-.375-1.64-.734-.673-.375-1.032-.907-.36-.53-.36-1.375 0-1.296 1.047-1.984 1.047-.687 2.766-.687.906 0 1.703.187.813.172 1.547.5l-.594 1.422q-.656-.297-1.343-.469-.688-.187-1.407-.187-.937 0-1.437.297-.5.296-.5.828 0 .406.234.687.235.266.781.531.547.25 1.47.61.921.344 1.593.719.672.375 1.031.921.375.532.375 1.36zm6.396 3q-1.39 0-2.437-.546-1.031-.563-1.594-1.703-.562-1.156-.562-2.906 0-1.813.61-2.97.608-1.171 1.687-1.718 1.078-.562 2.468-.562.828 0 1.532.171.718.157 1.203.407l-.547 1.484q-.516-.203-1.11-.36-.578-.156-1.109-.156-.969 0-1.61.422-.624.422-.937 1.25-.312.813-.312 2.016 0 1.172.312 1.984.313.797.922 1.22.625.421 1.531.421.813 0 1.453-.188.657-.187 1.204-.468v1.61q-.532.296-1.172.437-.625.156-1.532.156zm9.898-10.405q.265 0 .578.03.328.032.562.079l-.203 1.703q-.219-.062-.5-.094-.281-.03-.531-.03-.578 0-1.11.218-.53.219-.937.64-.39.407-.625 1-.234.594-.234 1.36v5.312h-1.828v-10.03h1.468l.22 1.812h.077q.313-.547.75-1 .453-.47 1.031-.735.579-.265 1.282-.265zm6.943 0q1.313 0 2.25.562.938.563 1.438 1.578.5 1.016.5 2.406v1.032h-6.813q.016 1.61.813 2.484.812.86 2.265.86.954 0 1.704-.188t1.546-.531v1.531q-.765.344-1.53.5-.75.172-1.813.172-1.453 0-2.547-.578-1.094-.594-1.703-1.735-.61-1.14-.61-2.828 0-1.656.547-2.828.563-1.187 1.563-1.812 1.015-.625 2.39-.625zm-.015 1.421q-1.11 0-1.782.735-.671.719-.796 2.062h4.937q-.016-.828-.266-1.453-.25-.64-.765-.984-.516-.36-1.328-.36zm10.19 7.5q.391 0 .782-.062.406-.078.703-.188v1.407q-.313.125-.828.218-.516.11-1.047.11-.828 0-1.5-.281-.657-.282-1.063-.97-.39-.687-.39-1.89v-5.672h-1.391v-.843l1.453-.672.656-2.172h1.125v2.281h2.907v1.406h-2.907v5.641q0 .844.407 1.266.406.421 1.093.421zm7.452-8.921q1.313 0 2.25.562.938.563 1.438 1.578.5 1.016.5 2.406v1.032h-6.813q.016 1.61.813 2.484.812.86 2.265.86.953 0 1.703-.188.75-.188 1.547-.531v1.531q-.765.344-1.53.5-.75.172-1.813.172-1.454 0-2.547-.578-1.094-.594-1.703-1.735-.61-1.14-.61-2.828 0-1.656.547-2.828.563-1.187 1.563-1.812 1.015-.625 2.39-.625zm-.015 1.421q-1.11 0-1.782.735-.672.719-.797 2.062h4.938q-.016-.828-.266-1.453-.25-.64-.765-.984-.516-.36-1.328-.36zm17.302 1.688h4.813v6.578q-1.047.344-2.172.531-1.11.188-2.485.188-2.062 0-3.484-.813-1.406-.828-2.14-2.359-.735-1.531-.735-3.688 0-2.062.812-3.593.813-1.547 2.36-2.39 1.547-.86 3.734-.86 1.094 0 2.094.218 1.016.204 1.86.579l-.673 1.578q-.703-.313-1.578-.532-.859-.234-1.765-.234-1.532 0-2.64.656-1.095.641-1.688 1.813-.579 1.172-.579 2.781 0 1.578.485 2.766.5 1.172 1.547 1.828 1.047.656 2.687.656.844 0 1.422-.094.594-.093 1.078-.218v-3.75h-2.953v-1.641zm11.68-6.203q2.578 0 3.766 1.031 1.187 1.016 1.187 2.922 0 .844-.281 1.625-.266.766-.875 1.36-.61.577-1.625.921-1 .344-2.453.344h-1.516v5.11h-1.875v-13.313h3.672zm-.14 1.562h-1.657v5.063h1.313q1.156 0 1.937-.25.797-.266 1.188-.844.406-.578.406-1.516 0-1.234-.781-1.843-.766-.61-2.407-.61zm18.084-1.562v8.61q0 1.405-.578 2.515-.578 1.094-1.75 1.734-1.156.64-2.922.64-2.5 0-3.828-1.343-1.312-1.344-1.312-3.578v-8.578h1.875v8.5q0 1.687.843 2.547.844.86 2.516.86 1.14 0 1.86-.407.734-.422 1.077-1.188.36-.765.36-1.812v-8.5h1.86z"/></g></svg>